<?xml version="1.0" encoding="iso-8859-1"?>
<!-- Generator: Adobe Illustrator 19.0.0, SVG Export Plug-In . SVG Version: 6.00 Build 0)  -->
<svg version="1.1" id="Layer_1" xmlns="http://www.w3.org/2000/svg" xmlns:xlink="http://www.w3.org/1999/xlink" x="0px" y="0px"
	 viewBox="0 0 512 512" style="enable-background:new 0 0 512 512;" xml:space="preserve">
<g>
	<g>
		<path d="M88.148,353.649c-32.307,0-58.59,26.283-58.59,58.59c0,32.307,26.283,58.59,58.59,58.59
			c32.307,0,58.59-26.283,58.59-58.59C146.738,379.932,120.455,353.649,88.148,353.649z M88.148,454.994
			c-23.575,0-42.755-19.179-42.755-42.755c0-23.575,19.179-42.755,42.755-42.755c23.575,0,42.755,19.179,42.755,42.755
			C130.903,435.814,111.724,454.994,88.148,454.994z"/>
	</g>
</g>
<g>
	<g>
		<path d="M88.148,387.431c-13.679,0-24.808,11.129-24.808,24.808s11.129,24.808,24.808,24.808s24.808-11.129,24.808-24.808
			S101.828,387.431,88.148,387.431z M88.148,421.212c-4.948,0-8.973-4.025-8.973-8.973s4.025-8.973,8.973-8.973
			c4.948,0,8.973,4.025,8.973,8.973S93.096,421.212,88.148,421.212z"/>
	</g>
</g>
<g>
	<g>
		<path d="M490.017,351.691c-14.254-16.215-34.068-25.909-55.922-27.395c-0.577-0.134-1.179-0.205-1.798-0.205h-44.582
			c22.859-15.966,37.72-42.458,37.72-72.314c0-46.469-35.962-84.833-82.13-87.945c-0.577-0.133-1.178-0.204-1.796-0.204h-50.672
			c-4.374,0-7.917,3.544-7.917,7.918s3.544,7.918,7.917,7.918h49.345c0.3,0.051,0.606,0.084,0.916,0.101
			c34.285,1.778,61.919,27.245,67.466,60.072h-98.725c-4.374,0-7.918,3.544-7.918,7.917c0,4.374,3.544,7.918,7.918,7.918h99.666
			c-0.642,12.747-4.592,24.643-11.015,34.837h-34.812c-4.374,0-7.917,3.544-7.917,7.918s3.544,7.918,7.917,7.918h21.325
			c-11.81,10.376-27.055,16.972-43.904,17.845c-0.31,0.017-0.617,0.051-0.916,0.101H227.143c7.184-5.014,13.583-11.07,18.99-17.946
			h84.819c4.374,0,7.918-3.544,7.918-7.918s-3.544-7.918-7.918-7.918h-74.865c5.175-10.603,8.275-22.391,8.792-34.837h15.401
			c4.374,0,7.918-3.544,7.918-7.918c0-4.374-3.544-7.917-7.918-7.917h-16.163c-1.182-8.545-3.596-16.695-7.052-24.28h49.079
			c4.374,0,7.918-3.544,7.918-7.917c0-4.374-3.544-7.918-7.918-7.918h-58.385c-5.729-7.757-12.703-14.534-20.616-20.058h21.467
			c4.373,0,7.918-3.544,7.918-7.918s-3.545-7.918-7.918-7.918h-71.786c-48.605,0-88.148,39.543-88.148,88.148
			c0,29.909,14.986,56.37,37.83,72.313c0,0-37.887,0-38.358,0C39.543,324.091,0,363.634,0,412.239s39.543,88.148,88.148,88.148
			c0.471,0,76.008,0,76.008,0c4.373,0,7.918-3.544,7.918-7.918c0-4.374-3.545-7.917-7.918-7.917h-25.69
			c7.184-5.014,13.583-11.07,18.99-17.946h40.847c5.406,6.877,11.806,12.932,18.99,17.946h-10.911c-4.373,0-7.917,3.544-7.917,7.917
			c0,4.374,3.545,7.918,7.917,7.918h225.913c0.619,0,1.22-0.071,1.798-0.205c21.853-1.485,41.668-11.18,55.922-27.395
			C504.192,456.662,512,435.158,512,412.239S504.192,367.817,490.017,351.691z M341.509,339.926h89.461
			c0.3,0.051,0.606,0.084,0.916,0.101c33.363,1.729,58.516,26.286,63.4,60.072H354.905c-1.182-8.545-3.596-16.695-7.052-24.28
			h33.772c4.374,0,7.918-3.544,7.918-7.917s-3.544-7.918-7.918-7.918h-43.078c-5.729-7.757-12.702-14.534-20.616-20.058H341.509z
			 M104.511,251.777c0-39.874,32.44-72.313,72.313-72.313s72.313,32.44,72.313,72.313s-32.44,72.313-72.313,72.313
			S104.511,291.651,104.511,251.777z M217.294,339.926c-7.914,5.523-14.887,12.301-20.616,20.058h-37.595
			c-5.729-7.757-12.703-14.534-20.616-20.058H217.294z M88.148,484.553c-39.874,0-72.313-32.44-72.313-72.313
			s32.44-72.313,72.313-72.313s72.313,32.44,72.313,72.313S128.022,484.553,88.148,484.553z M167.411,450.771
			c5.686-11.648,8.886-24.722,8.886-38.532c0-12.985-2.845-25.311-7.908-36.421h18.983c-5.063,11.11-7.908,23.436-7.908,36.421
			c0,13.81,3.2,26.884,8.886,38.532H167.411z M195.299,412.239c0-39.874,32.44-72.313,72.313-72.313s72.313,32.44,72.313,72.313
			s-32.44,72.313-72.313,72.313S195.299,452.113,195.299,412.239z M486.343,450.881c-0.413-0.066-0.833-0.11-1.264-0.11h-33.781
			c-4.374,0-7.918,3.544-7.918,7.917s3.544,7.918,7.918,7.918h22.779c-11.05,10.473-25.602,16.986-42.191,17.845
			c-0.31,0.017-0.617,0.051-0.916,0.101H328.001c-0.415-0.068-0.837-0.111-1.271-0.111c-0.005,0-0.011,0-0.015,0l-8.651,0.016
			c7.136-5.001,13.495-11.028,18.87-17.869c0.117,0.005,0.233,0.018,0.352,0.018h4.223h80.231c4.374,0,7.918-3.544,7.918-7.918
			s-3.544-7.917-7.918-7.917h-74.865c5.175-10.603,8.275-22.391,8.792-34.837h140.42
			C495.536,428.92,492.076,440.789,486.343,450.881z"/>
	</g>
</g>
<g>
	<g>
		<path d="M267.612,353.649c-32.307,0-58.59,26.283-58.59,58.59c0,32.307,26.283,58.59,58.59,58.59
			c32.307,0,58.59-26.283,58.59-58.59C326.202,379.932,299.919,353.649,267.612,353.649z M267.612,454.994
			c-23.575,0-42.755-19.179-42.755-42.755c0-23.575,19.179-42.755,42.755-42.755c23.575,0,42.755,19.179,42.755,42.755
			C310.367,435.814,291.188,454.994,267.612,454.994z"/>
	</g>
</g>
<g>
	<g>
		<path d="M267.612,387.431c-13.679,0-24.808,11.129-24.808,24.808s11.129,24.808,24.808,24.808s24.808-11.129,24.808-24.808
			S281.292,387.431,267.612,387.431z M267.612,421.212c-4.948,0-8.973-4.025-8.973-8.973s4.025-8.973,8.973-8.973
			s8.973,4.025,8.973,8.973S272.56,421.212,267.612,421.212z"/>
	</g>
</g>
<g>
	<g>
		<path d="M453.41,359.984h-41.699c-4.374,0-7.918,3.544-7.918,7.918s3.544,7.917,7.918,7.917h41.699
			c4.374,0,7.918-3.544,7.918-7.917S457.784,359.984,453.41,359.984z"/>
	</g>
</g>
<g>
	<g>
		<path d="M176.825,193.188c-32.307,0-58.59,26.283-58.59,58.59c0,32.307,26.283,58.59,58.59,58.59
			c32.307,0,58.59-26.283,58.59-58.59C235.414,219.471,209.131,193.188,176.825,193.188z M176.825,294.532
			c-23.575,0-42.755-19.179-42.755-42.755c0-23.575,19.179-42.755,42.755-42.755c23.575,0,42.755,19.179,42.755,42.755
			C219.579,275.353,200.4,294.532,176.825,294.532z"/>
	</g>
</g>
<g>
	<g>
		<path d="M176.825,226.969c-13.679,0-24.808,11.129-24.808,24.808s11.129,24.808,24.808,24.808s24.808-11.129,24.808-24.808
			S190.504,226.969,176.825,226.969z M176.825,260.751c-4.948,0-8.973-4.025-8.973-8.973s4.025-8.973,8.973-8.973
			c4.948,0,8.973,4.025,8.973,8.973S181.773,260.751,176.825,260.751z"/>
	</g>
</g>
<g>
	<g>
		<path d="M366.845,199.522h-24.808c-4.374,0-7.917,3.544-7.917,7.918c0,4.374,3.544,7.917,7.917,7.917h24.808
			c4.374,0,7.917-3.544,7.917-7.917C374.763,203.066,371.219,199.522,366.845,199.522z"/>
	</g>
</g>
<g>
	<g>
		<path d="M447.076,11.612h-38.004c-4.374,0-7.918,3.544-7.918,7.918s3.544,7.918,7.918,7.918h12.668v93.955H318.812V27.447h48.033
			c4.374,0,7.917-3.544,7.917-7.918s-3.544-7.918-7.917-7.918h-55.951c-4.374,0-7.917,3.544-7.917,7.918v21.641h-30.614V27.975
			c0-4.374-3.544-7.918-7.918-7.918s-7.918,3.544-7.918,7.918v13.196h-17.946V27.975c0-4.374-3.545-7.918-7.918-7.918
			c-4.373,0-7.918,3.544-7.918,7.918v13.196H204.8V27.975c0-4.374-3.545-7.918-7.917-7.918c-4.373,0-7.918,3.544-7.918,7.918v13.196
			h-17.946V27.975c0-4.374-3.545-7.918-7.918-7.918c-4.373,0-7.917,3.544-7.917,7.918v13.196h-17.946V27.975
			c0-4.374-3.545-7.918-7.918-7.918c-4.373,0-7.918,3.544-7.918,7.918v13.196h-17.946V27.975c0-4.374-3.545-7.918-7.918-7.918
			s-7.918,3.544-7.918,7.918v13.196H69.674V27.975c0-4.374-3.545-7.918-7.918-7.918c-4.373,0-7.918,3.544-7.918,7.918v13.196h-8.973
			c-18.336,0-33.254,14.918-33.254,33.254s14.918,33.254,33.254,33.254h8.973v13.196c0,4.374,3.545,7.918,7.918,7.918
			c4.373,0,7.918-3.544,7.918-7.918v-13.196h17.946v13.196c0,4.374,3.545,7.918,7.918,7.918s7.918-3.544,7.918-7.918v-13.196h17.946
			v13.196c0,4.374,3.545,7.918,7.918,7.918c4.373,0,7.918-3.544,7.918-7.918v-13.196h17.946v13.196c0,4.374,3.545,7.918,7.917,7.918
			c4.373,0,7.918-3.544,7.918-7.918v-13.196h17.946v13.196c0,4.374,3.545,7.918,7.918,7.918c4.373,0,7.917-3.544,7.917-7.918
			v-13.196h17.946v13.196c0,4.374,3.545,7.918,7.918,7.918c4.373,0,7.918-3.544,7.918-7.918v-13.196h17.946v13.196
			c0,4.374,3.544,7.918,7.918,7.918s7.918-3.544,7.918-7.918v-13.196h30.614v21.641c0,4.374,3.544,7.918,7.917,7.918h167.852
			c13.097,0,23.753-10.656,23.753-23.753v-46.45C502.499,36.476,477.636,11.612,447.076,11.612z M302.977,91.843H44.866
			c-9.604,0-17.419-7.814-17.419-17.419s7.814-17.419,17.419-17.419h258.111V91.843z M486.664,113.485
			c0,4.366-3.551,7.917-7.918,7.917h-41.171V27.447h9.501c21.829,0,39.588,17.758,39.588,39.588V113.485z"/>
	</g>
</g>
<g>
	<g>
		<path d="M371.068,34.837c-21.829,0-39.588,17.758-39.588,39.588s17.758,39.588,39.588,39.588s39.588-17.758,39.588-39.588
			S392.897,34.837,371.068,34.837z M371.068,98.177c-13.097,0-23.753-10.656-23.753-23.753s10.656-23.753,23.753-23.753
			s23.753,10.656,23.753,23.753S384.165,98.177,371.068,98.177z"/>
	</g>
</g>
<g>
</g>
<g>
</g>
<g>
</g>
<g>
</g>
<g>
</g>
<g>
</g>
<g>
</g>
<g>
</g>
<g>
</g>
<g>
</g>
<g>
</g>
<g>
</g>
<g>
</g>
<g>
</g>
<g>
</g>
</svg>
