<?xml version="1.0" encoding="iso-8859-1"?>
<!-- Generator: Adobe Illustrator 19.0.0, SVG Export Plug-In . SVG Version: 6.00 Build 0)  -->
<svg version="1.1" id="Layer_1" xmlns="http://www.w3.org/2000/svg" xmlns:xlink="http://www.w3.org/1999/xlink" x="0px" y="0px"
	 viewBox="0 0 466.311 466.311" style="enable-background:new 0 0 466.311 466.311;" xml:space="preserve">
<g>
	<g>
		<g>
			<path d="M61.221,222.306c11.387-5.561,23.853-5.936,35.389-1.122c1.413,1.214,3.244,1.933,5.214,1.933h0.774
				c1.97,0,3.801-0.719,5.214-1.933c11.536-4.814,24-4.439,35.39,1.122c1.13,0.552,2.326,0.813,3.504,0.813
				c2.961-0.001,5.808-1.652,7.194-4.492c1.939-3.97,0.292-8.76-3.679-10.699c-15.448-7.543-32.342-8.123-48.01-1.743
				c-15.672-6.38-32.565-5.799-48.01,1.743c-3.971,1.939-5.617,6.729-3.679,10.699C52.462,222.597,57.253,224.243,61.221,222.306z"
				/>
			<path d="M373.786,40.482c-87.616-50.585-199.399-21.35-251.18,65.137c-0.009-0.005-0.012-0.019-0.03-0.029l-8,13.856
				c7.439,4.295,9.127,9.172,11.463,15.925c2.675,7.687,5.998,17.25,18.591,24.52c12.592,7.27,22.536,5.367,30.53,3.84
				c7.016-1.353,12.093-2.325,19.523,1.965c7.43,4.29,9.127,9.172,11.463,15.925c2.675,7.687,5.998,17.25,18.591,24.52
				c12.592,7.27,22.536,5.367,30.522,3.835c4.401-0.842,8.027-1.543,11.949-0.896l-76.905,133.204h-83.901l-54.19-54.18
				c-7.17-7.18-16.72-11.46-25.54-11.46c-6.82,0-12.9,2.48-17.59,7.17c-11.97,11.96-12.12,27.28-0.38,39.02l38.19,38.18v81.63
				c0,4.42,3.58,8,8,8c4.42,0,8-3.58,8-8v-65.63l8.93,8.94c5.76,5.76,13.42,8.93,21.57,8.93h204c-0.32,0.86-0.5,1.79-0.5,2.76v45
				c0,4.42,3.58,8,8,8c4.42,0,8-3.58,8-8v-45c0-0.97-0.18-1.9-0.5-2.76h15.36l23.57,23.57c5.76,5.76,13.42,8.93,21.57,8.93
				c6.81,0,12.979-0.53,19.53-7.08c16.12-16.12,10.21-28.79,2.39-36.61l-32.47-32.14c-5.89-5.89-13.75-9.27-21.57-9.27H208.778
				l72.281-125.195c2.522,3.072,3.733,6.555,5.195,10.782c2.666,7.682,5.99,17.245,18.591,24.52
				c12.592,7.27,22.536,5.367,30.522,3.835c7.025-1.348,12.093-2.325,19.523,1.965c7.439,4.295,9.127,9.172,11.472,15.93
				c2.666,7.682,5.998,17.25,18.591,24.52c12.592,7.27,22.536,5.367,30.53,3.84c7.017-1.353,12.093-2.325,19.523,1.965l8-13.856
				c-0.009-0.005-0.022-0.001-0.031-0.006C491.976,202.491,461.402,91.066,373.786,40.482z M340.773,358.285
				c3.599,0,7.339,1.67,10.279,4.61l32.47,32.14c3.48,3.48,5.77,5.77-2.41,13.95c-2.11,2.11-3.11,2.4-8.22,2.4
				c-3.88,0-7.521-1.51-10.26-4.25l-25.91-25.91c-1.5-1.5-3.53-2.34-5.65-2.34H93.393c-3.88,0-7.521-1.51-10.26-4.25l-63.12-63.12
				c-5.53-5.53-5.42-10.59,0.38-16.39c1.67-1.67,3.729-2.48,6.28-2.48c4.53,0,10.12,2.66,14.23,6.77l56.53,56.53
				c1.5,1.5,3.539,2.34,5.66,2.34H340.773z M195.754,148.624c-9.392-3.332-17.142-1.849-23.605-0.615
				c-7.016,1.353-12.088,2.317-19.518-1.973c-7.431-4.29-9.132-9.164-11.468-15.917c-1.532-4.406-6.234-13.922-6.234-13.922
				c38.51-66.701,115.621-97.202,186.826-79.613c-1.204,0.286-2.423,0.576-3.657,0.914
				C276.491,48.822,235.346,86.207,195.754,148.624z M275.483,194.748c-9.219-3.152-16.85-1.715-23.227-0.489
				c-7.025,1.348-12.088,2.317-19.518-1.973c-7.431-4.29-9.132-9.164-11.468-15.917c-2.105-6.054-4.63-13.261-11.74-19.607
				c45.763-71.924,85.67-95.985,111.335-103.418c16.852-4.889,29.605-3.438,37.118-1.491L275.483,194.748z M355.213,240.873
				c-9.05-2.985-16.563-1.572-22.85-0.364c-7.025,1.348-12.088,2.317-19.518-1.973c-7.439-4.295-9.132-9.164-11.477-15.922
				c-2.132-6.127-4.689-13.458-12.029-19.866l82.5-142.894c5.452,5.538,13.076,15.852,17.277,32.896
				C395.503,118.688,394.628,165.283,355.213,240.873z M427.645,285.197c0,0-10.583,0.691-15.174,1.562
				c-7.016,1.353-12.088,2.317-19.518-1.973c-7.439-4.295-9.132-9.164-11.477-15.922c-2.154-6.209-4.749-13.654-12.318-20.125
				c34.249-65.501,46.057-119.813,35.066-161.516c-0.333-1.243-0.682-2.438-1.037-3.624
				C454.022,136.47,466.155,218.496,427.645,285.197z"/>
		</g>
	</g>
</g>
<g>
</g>
<g>
</g>
<g>
</g>
<g>
</g>
<g>
</g>
<g>
</g>
<g>
</g>
<g>
</g>
<g>
</g>
<g>
</g>
<g>
</g>
<g>
</g>
<g>
</g>
<g>
</g>
<g>
</g>
</svg>
