<?xml version="1.0" encoding="iso-8859-1"?>
<!-- Generator: Adobe Illustrator 19.0.0, SVG Export Plug-In . SVG Version: 6.00 Build 0)  -->
<svg version="1.1" id="Layer_1" xmlns="http://www.w3.org/2000/svg" xmlns:xlink="http://www.w3.org/1999/xlink" x="0px" y="0px"
	 viewBox="0 0 512 512" style="enable-background:new 0 0 512 512;" xml:space="preserve">
<g>
	<g>
		<path d="M170.402,234.517c-3.238-0.951-6.719,0.353-8.54,3.198l-51.447,80.352c-1.498,2.34-1.601,5.312-0.267,7.75
			c1.333,2.437,3.891,3.954,6.67,3.954h43.843v43.856c0,31.142-25.335,56.477-56.477,56.477s-56.477-25.335-56.477-56.477V229.341
			c18.489-3.564,32.501-19.859,32.501-39.372c0-19.514-14.012-35.807-32.501-39.372V53.221c0-4.199-3.404-7.604-7.604-7.604
			s-7.604,3.405-7.604,7.604v97.375C14.012,154.161,0,170.454,0,189.968c0,19.514,14.012,35.808,32.5,39.372v144.287
			c0,39.527,32.158,71.685,71.685,71.685s71.685-32.158,71.685-71.685v-51.46v-9.556v-70.797
			C175.87,238.438,173.644,235.466,170.402,234.517z M47.707,166.263c10.021,3.222,17.293,12.629,17.293,23.705
			c0,11.076-7.272,20.483-17.293,23.705V166.263z M32.5,213.673c-10.02-3.222-17.292-12.629-17.292-23.705
			c0-11.076,7.272-20.483,17.292-23.704V213.673z M160.663,312.611v1.952h-29.945l29.945-46.77V312.611z"/>
	</g>
</g>
<g>
	<g>
		<path d="M438.833,187.66c-6.897-46.589-25.909-87.421-42.396-115.653c-22.204-38.023-44.155-61.438-45.078-62.416
			c-1.437-1.521-3.437-2.384-5.529-2.384c-2.092,0-4.092,0.863-5.529,2.384c-0.924,0.978-22.875,24.394-45.078,62.416
			c-15.882,27.197-34.109,66.09-41.591,110.555c-22.596,2.086-40.351,21.139-40.351,44.27c0,4.199,3.404,7.604,7.604,7.604h29.535
			c0.118,2.435,0.284,4.855,0.473,7.266c-21.277,3.306-37.613,21.749-37.613,43.938c0,4.199,3.404,7.604,7.604,7.604h36.863
			c0.839,0,1.644-0.141,2.399-0.392c9.035,32.296,22.76,60.416,35.076,81.504c5.311,9.093,10.603,17.341,15.6,24.657l-42.194,95.092
			c-1.043,2.352-0.826,5.072,0.576,7.23c1.402,2.156,3.801,3.458,6.374,3.458h40.338c12.201,0,23.057-5.857,29.913-14.905
			c6.856,9.048,17.711,14.905,29.913,14.905h40.338c2.573,0,4.972-1.302,6.374-3.458c1.403-2.157,1.62-4.878,0.576-7.23
			l-42.194-95.092c4.997-7.316,10.29-15.563,15.6-24.657c14.756-25.268,31.543-60.628,39.851-101.176h68.109
			c4.2,0,7.604-3.405,7.604-7.604C512,224.173,479.605,190.21,438.833,187.66z M250.194,219.228h-20.703
			c2.821-10.473,11.333-18.618,21.994-20.956C250.76,205.155,250.315,212.145,250.194,219.228z M229.492,278.037
			c2.914-10.821,11.898-19.172,23.056-21.184c1.013,7.204,2.321,14.273,3.866,21.184H229.492z M308.157,80.015
			c14.848-25.485,29.85-44.442,37.672-53.689c7.824,9.249,22.826,28.206,37.672,53.689c5.442,9.341,11.175,20.124,16.615,32.063
			c-29.973,29.837-78.602,29.837-108.574,0C296.982,100.14,302.715,89.357,308.157,80.015z M338.225,467.278
			c0.001,12.3-10.008,22.308-22.308,22.308h-28.645l33.817-76.214c7.822,10.442,14.056,17.68,17.135,21.127V467.278z
			 M404.387,489.586h-28.645c-12.301,0-22.309-10.008-22.309-22.309v-32.779c3.08-3.447,9.314-10.685,17.135-21.127L404.387,489.586
			z M383.502,366.348c-14.848,25.485-29.85,44.442-37.672,53.689c-7.824-9.249-22.826-28.206-37.672-53.689
			c-19.528-33.517-42.805-85.563-42.805-143.166c0-35.137,8.665-68.196,19.853-96.253c17.308,15.14,38.96,22.732,60.624,22.732
			s43.316-7.593,60.624-22.732c11.188,28.058,19.853,61.117,19.853,96.253C426.307,280.786,403.03,332.83,383.502,366.348z
			 M438.943,257.973c1.639-11.295,2.572-22.921,2.572-34.791c0-6.791-0.317-13.499-0.884-20.116
			c29.019,3.099,52.205,26.008,55.704,54.907H438.943z"/>
	</g>
</g>
<g>
	<g>
		<path d="M345.83,66.053c-12.912,0-23.416,10.505-23.416,23.416c0,12.911,10.504,23.417,23.416,23.417
			c12.911,0,23.417-10.505,23.417-23.416C369.247,76.559,358.742,66.053,345.83,66.053z M345.83,97.677
			c-4.526,0-8.208-3.682-8.208-8.208s3.682-8.208,8.208-8.208c4.527,0,8.209,3.682,8.209,8.208S350.357,97.677,345.83,97.677z"/>
	</g>
</g>
<g>
	<g>
		<path d="M390.357,165.017c-2.971-2.97-7.784-2.971-10.754,0L345.83,198.79l-33.773-33.773c-2.971-2.97-7.784-2.97-10.754,0
			s-2.97,7.784,0,10.753l39.149,39.149c1.485,1.484,3.432,2.227,5.378,2.227s3.892-0.742,5.378-2.227l39.149-39.149
			C393.326,172.801,393.326,167.986,390.357,165.017z"/>
	</g>
</g>
<g>
	<g>
		<path d="M390.356,223.826c-2.97-2.97-7.783-2.97-10.754,0l-33.773,33.773l-33.773-33.773c-2.971-2.97-7.784-2.97-10.754,0
			s-2.97,7.784,0,10.753l39.149,39.149c1.485,1.484,3.432,2.227,5.378,2.227c1.946,0,3.892-0.742,5.378-2.227l39.149-39.149
			C393.326,231.61,393.326,226.795,390.356,223.826z"/>
	</g>
</g>
<g>
</g>
<g>
</g>
<g>
</g>
<g>
</g>
<g>
</g>
<g>
</g>
<g>
</g>
<g>
</g>
<g>
</g>
<g>
</g>
<g>
</g>
<g>
</g>
<g>
</g>
<g>
</g>
<g>
</g>
</svg>
