<?xml version="1.0" encoding="UTF-8" standalone="no"?><!DOCTYPE svg PUBLIC "-//W3C//DTD SVG 1.1//EN" "http://www.w3.org/Graphics/SVG/1.1/DTD/svg11.dtd"><svg width="100%" height="100%" viewBox="0 0 68 68" version="1.1" xmlns="http://www.w3.org/2000/svg" xmlns:xlink="http://www.w3.org/1999/xlink" xml:space="preserve" style="fill-rule:evenodd;clip-rule:evenodd;stroke-linejoin:round;stroke-miterlimit:1.41421;"><g id="Fresh-Water"><path id="Shape" d="M20.645,10.005c0.506,0.036 0.98,0.262 1.322,0.631c9.733,10.45 19.033,22.855 19.033,34.869c0,11.943 -9.112,21.821 -20.5,21.821c-11.388,0 -20.5,-9.878 -20.5,-21.821c0,-12.014 9.3,-24.419 19.033,-34.869c0.41,-0.442 1.005,-0.675 1.612,-0.631Zm-0.145,4.967c-8.866,9.833 -16.532,21.134 -16.532,30.533c0,10.003 7.479,17.912 16.532,17.912c9.052,0 16.532,-7.909 16.532,-17.912c0,-9.399 -7.666,-20.7 -16.532,-30.533Zm12.565,26.91c1.01,0.027 1.837,0.799 1.921,1.791c0.541,5.614 -2.276,11.762 -6.737,14.798c-0.582,0.419 -1.35,0.494 -2.004,0.195c-0.655,-0.3 -1.093,-0.925 -1.144,-1.634c-0.052,-0.709 0.291,-1.389 0.896,-1.777c2.856,-1.944 5.416,-7.334 5.042,-11.216c-0.059,-0.559 0.129,-1.117 0.517,-1.53c0.388,-0.414 0.937,-0.642 1.509,-0.627Z" style="fill-rule:nonzero;"/><path id="Shape1" d="M51.12,0.005c0.42,0.03 0.813,0.222 1.097,0.536c8.07,8.891 15.783,19.445 15.783,29.667c0,10.161 -7.556,18.565 -17,18.565c-9.444,0 -17,-8.404 -17,-18.565c0,-10.222 7.713,-20.776 15.783,-29.667c0.341,-0.376 0.833,-0.574 1.337,-0.536Zm-0.12,4.225c-7.353,8.366 -13.71,17.982 -13.71,25.978c0,8.51 6.203,15.24 13.71,15.24c7.507,0 13.71,-6.73 13.71,-15.24c0,-7.996 -6.357,-17.612 -13.71,-25.978Zm10.419,22.895c0.838,0.024 1.525,0.68 1.594,1.524c0.448,4.777 -1.887,10.007 -5.587,12.591c-0.483,0.356 -1.119,0.42 -1.662,0.165c-0.543,-0.254 -0.906,-0.787 -0.949,-1.39c-0.043,-0.603 0.242,-1.182 0.743,-1.512c2.369,-1.654 4.492,-6.24 4.182,-9.542c-0.05,-0.476 0.107,-0.951 0.428,-1.302c0.322,-0.352 0.778,-0.546 1.251,-0.534Z" style="fill-rule:nonzero;"/></g></svg>