<?xml version="1.0" encoding="UTF-8" standalone="no"?><!DOCTYPE svg PUBLIC "-//W3C//DTD SVG 1.1//EN" "http://www.w3.org/Graphics/SVG/1.1/DTD/svg11.dtd"><svg width="100%" height="100%" viewBox="0 0 50 50" version="1.1" xmlns="http://www.w3.org/2000/svg" xmlns:xlink="http://www.w3.org/1999/xlink" xml:space="preserve" style="fill-rule:evenodd;clip-rule:evenodd;stroke-linejoin:round;stroke-miterlimit:1.41421;"><g id="Fresh_Water_icon"><path id="Shape" d="M15.106,7.504c0.371,0.027 0.717,0.194 0.968,0.468c7.121,7.747 13.926,16.944 13.926,25.851c0,8.854 -6.667,16.177 -15,16.177c-8.333,0 -15,-7.323 -15,-16.177c0,-8.907 6.805,-18.104 13.926,-25.851c0.301,-0.328 0.736,-0.501 1.18,-0.468Zm-0.106,3.682c-6.488,7.29 -12.097,15.669 -12.097,22.637c0,7.416 5.473,13.28 12.097,13.28c6.624,0 12.097,-5.864 12.097,-13.28c0,-6.968 -5.609,-15.347 -12.097,-22.637Zm9.194,19.95c0.739,0.021 1.344,0.593 1.406,1.328c0.395,4.162 -1.666,8.72 -4.93,10.971c-0.426,0.311 -0.988,0.366 -1.467,0.145c-0.479,-0.222 -0.799,-0.686 -0.837,-1.211c-0.037,-0.526 0.214,-1.03 0.656,-1.318c2.09,-1.441 3.963,-5.437 3.69,-8.315c-0.044,-0.415 0.094,-0.828 0.378,-1.135c0.283,-0.306 0.686,-0.476 1.104,-0.465Z" style="fill-rule:nonzero;"/><path id="Shape1" d="M37.588,0.003c0.309,0.023 0.598,0.164 0.807,0.395c5.934,6.531 11.605,14.286 11.605,21.796c0,7.465 -5.556,13.639 -12.5,13.639c-6.944,0 -12.5,-6.174 -12.5,-13.639c0,-7.51 5.671,-15.265 11.605,-21.796c0.251,-0.277 0.613,-0.422 0.983,-0.395Zm-0.088,3.105c-5.406,6.146 -10.081,13.211 -10.081,19.086c0,6.252 4.561,11.196 10.081,11.196c5.52,0 10.081,-4.944 10.081,-11.196c0,-5.875 -4.675,-12.94 -10.081,-19.086Zm7.661,16.821c0.616,0.017 1.121,0.499 1.172,1.119c0.33,3.51 -1.388,7.353 -4.108,9.251c-0.355,0.261 -0.823,0.308 -1.222,0.121c-0.399,-0.187 -0.666,-0.578 -0.698,-1.021c-0.031,-0.443 0.178,-0.868 0.547,-1.111c1.741,-1.215 3.302,-4.584 3.074,-7.011c-0.036,-0.349 0.079,-0.698 0.315,-0.956c0.237,-0.259 0.572,-0.402 0.92,-0.392Z" style="fill-rule:nonzero;"/></g></svg>