<?xml version="1.0" encoding="UTF-8" standalone="no"?><!DOCTYPE svg PUBLIC "-//W3C//DTD SVG 1.1//EN" "http://www.w3.org/Graphics/SVG/1.1/DTD/svg11.dtd"><svg width="100%" height="100%" viewBox="0 0 50 50" version="1.1" xmlns="http://www.w3.org/2000/svg" xmlns:xlink="http://www.w3.org/1999/xlink" xml:space="preserve" style="fill-rule:evenodd;clip-rule:evenodd;stroke-linejoin:round;stroke-miterlimit:1.41421;"><g id="Tourism_icon"><path id="Shape" d="M36.5,5c0.828,0 1.5,-0.747 1.5,-1.667l0,-1.666c0,-0.92 -0.672,-1.667 -1.5,-1.667c-0.828,0 -1.5,0.747 -1.5,1.667l0,1.666c0,0.92 0.672,1.667 1.5,1.667Z" style="fill-rule:nonzero;"/><path id="Shape1" d="M28.847,7.459c0.36,0.361 0.833,0.541 1.306,0.541c0.473,0 0.945,-0.18 1.306,-0.541c0.721,-0.722 0.721,-1.891 0,-2.612l-1.306,-1.306c-0.721,-0.721 -1.892,-0.721 -2.612,0c-0.721,0.721 -0.721,1.891 0,2.612l1.306,1.306Z" style="fill-rule:nonzero;"/><path id="Shape2" d="M43.847,8c0.473,0 0.945,-0.18 1.306,-0.541l1.306,-1.306c0.721,-0.721 0.721,-1.891 0,-2.612c-0.721,-0.721 -1.891,-0.721 -2.612,0l-1.306,1.306c-0.721,0.721 -0.721,1.89 0,2.612c0.361,0.36 0.834,0.541 1.306,0.541Z" style="fill-rule:nonzero;"/><path id="Shape3" d="M43.333,40.182l-35.723,0l-4.514,-7.387c-0.473,-0.775 -1.498,-1.026 -2.287,-0.562c-0.789,0.465 -1.045,1.471 -0.571,2.245l4.529,7.411l-2.924,5.743c-0.412,0.809 -0.078,1.791 0.745,2.196c0.24,0.117 0.494,0.172 0.745,0.172c0.61,0 1.2,-0.331 1.492,-0.904l2.872,-5.641l10.636,0l0,4.909c0,0.903 0.747,1.636 1.667,1.636c0.92,0 1.667,-0.733 1.667,-1.636l0,-4.909l15.365,0l1.351,5.305c0.19,0.744 0.87,1.24 1.615,1.24c0.135,0 0.27,-0.016 0.406,-0.049c0.893,-0.219 1.436,-1.108 1.213,-1.985l-1.149,-4.511l2.865,0c0.92,0 1.667,-0.733 1.667,-1.637c0,-0.903 -0.747,-1.636 -1.667,-1.636Z" style="fill-rule:nonzero;"/><path id="Shape4" d="M36.5,20c3.584,0 6.5,-2.916 6.5,-6.5c0,-3.584 -2.916,-6.5 -6.5,-6.5c-3.584,0 -6.5,2.916 -6.5,6.5c0,3.584 2.916,6.5 6.5,6.5Zm0,-9.75c1.792,0 3.25,1.458 3.25,3.25c0,1.792 -1.458,3.25 -3.25,3.25c-1.792,0 -3.25,-1.458 -3.25,-3.25c0,-1.792 1.458,-3.25 3.25,-3.25Z" style="fill-rule:nonzero;"/><path id="Shape5" d="M24.667,15l1.666,0c0.92,0 1.667,-0.672 1.667,-1.5c0,-0.828 -0.747,-1.5 -1.667,-1.5l-1.666,0c-0.92,0 -1.667,0.672 -1.667,1.5c0,0.828 0.747,1.5 1.667,1.5Z" style="fill-rule:nonzero;"/><path id="Shape6" d="M48.333,12l-1.666,0c-0.92,0 -1.667,0.672 -1.667,1.5c0,0.828 0.747,1.5 1.667,1.5l1.666,0c0.92,0 1.667,-0.672 1.667,-1.5c0,-0.828 -0.747,-1.5 -1.667,-1.5Z" style="fill-rule:nonzero;"/><path id="Shape7" d="M35,23.667l0,1.666c0,0.92 0.672,1.667 1.5,1.667c0.828,0 1.5,-0.747 1.5,-1.667l0,-1.666c0,-0.92 -0.672,-1.667 -1.5,-1.667c-0.828,0 -1.5,0.747 -1.5,1.667Z" style="fill-rule:nonzero;"/><path id="Shape8" d="M42.541,19.541c-0.721,0.721 -0.721,1.891 0,2.612l1.306,1.306c0.361,0.361 0.833,0.541 1.306,0.541c0.473,0 0.945,-0.18 1.306,-0.541c0.721,-0.722 0.721,-1.891 0,-2.612l-1.306,-1.306c-0.721,-0.721 -1.89,-0.721 -2.612,0Z" style="fill-rule:nonzero;"/><path id="Shape9" d="M28.847,19.541l-1.306,1.306c-0.721,0.721 -0.721,1.89 0,2.612c0.36,0.361 0.833,0.541 1.306,0.541c0.473,0 0.945,-0.18 1.306,-0.541l1.306,-1.306c0.721,-0.721 0.721,-1.891 0,-2.612c-0.722,-0.721 -1.892,-0.721 -2.612,0Z" style="fill-rule:nonzero;"/></g></svg>