<?xml version="1.0" encoding="UTF-8" standalone="no"?><!DOCTYPE svg PUBLIC "-//W3C//DTD SVG 1.1//EN" "http://www.w3.org/Graphics/SVG/1.1/DTD/svg11.dtd"><svg width="100%" height="100%" viewBox="0 0 49 50" version="1.1" xmlns="http://www.w3.org/2000/svg" xmlns:xlink="http://www.w3.org/1999/xlink" xml:space="preserve" style="fill-rule:evenodd;clip-rule:evenodd;stroke-linejoin:round;stroke-miterlimit:1.41421;"><g id="Jobs_icon"><path id="Shape" d="M5.128,49.679l38.462,0c2.82,0 5.128,-2.307 5.128,-5.128l0,-8.782c0,-0.833 -0.705,-1.538 -1.539,-1.538c-0.833,0 -1.538,0.705 -1.538,1.538l0,8.782c0,1.154 -0.897,2.052 -2.051,2.052l-38.462,0c-1.154,0 -2.051,-0.898 -2.051,-2.052l0,-8.782c0,-0.833 -0.705,-1.538 -1.539,-1.538c-0.833,0 -1.538,0.705 -1.538,1.538l0,8.782c0.064,2.821 2.308,5.128 5.128,5.128Z" style="fill-rule:nonzero;"/><path id="Shape1" d="M7.692,37.051l7.757,0c0.961,0 1.795,-0.513 2.243,-1.282c0.193,-0.384 0.321,-0.769 0.321,-1.282l0,-2.308l12.692,0l0,2.308c0,0.449 0.128,0.898 0.321,1.282c0.448,0.769 1.282,1.282 2.243,1.282l7.757,0c0.961,0 1.795,-0.513 2.243,-1.282c0.193,-0.384 0.321,-0.769 0.321,-1.282l0,-2.308c2.82,0 5.128,-2.307 5.128,-5.128l0,-13.91c0,-2.82 -2.308,-5.128 -5.128,-5.128l-7.693,0l0,-5.128c0,-1.411 -1.153,-2.564 -2.564,-2.564l-17.948,0c-1.411,0 -2.564,1.153 -2.564,2.564l0,5.128l-7.693,0c-2.82,0 -5.128,2.308 -5.128,5.128l0,13.91c0,2.821 2.308,5.128 5.128,5.128l0,2.308c0,0.449 0.128,0.898 0.321,1.282c0.513,0.769 1.346,1.282 2.243,1.282Zm-4.615,-10l0,-13.91c0,-1.154 0.897,-2.051 2.051,-2.051l38.462,0c1.154,0 2.051,0.897 2.051,2.051l0,13.91c0,1.154 -0.897,2.052 -2.051,2.052l0,-2.308c0,-1.41 -1.154,-2.564 -2.564,-2.564l-7.757,0c-1.41,0 -2.564,1.154 -2.564,2.564l0,2.308l-12.692,0l0,-2.308c0,-1.41 -1.154,-2.564 -2.564,-2.564l-7.757,0c-1.41,0 -2.564,1.154 -2.564,2.564l0,2.308c-1.09,0 -2.051,-0.898 -2.051,-2.052Zm29.744,-23.654l0,4.616l-16.924,0l0,-4.616l16.924,0Zm7.692,30.577l-6.731,0l0,-6.666l6.731,0l0,6.666Zm-32.308,-6.666l6.731,0l0,6.666l-6.731,0l0,-6.666Z" style="fill-rule:nonzero;"/></g></svg>