<?xml version="1.0" encoding="UTF-8" standalone="no"?><!DOCTYPE svg PUBLIC "-//W3C//DTD SVG 1.1//EN" "http://www.w3.org/Graphics/SVG/1.1/DTD/svg11.dtd"><svg width="100%" height="100%" viewBox="0 0 50 50" version="1.1" xmlns="http://www.w3.org/2000/svg" xmlns:xlink="http://www.w3.org/1999/xlink" xml:space="preserve" style="fill-rule:evenodd;clip-rule:evenodd;stroke-linejoin:round;stroke-miterlimit:1.41421;"><g id="Forests_icon"><path id="Shape" d="M41.176,13.971c0,-3.249 -2.633,-5.883 -5.882,-5.883c-3.249,0 -5.882,2.634 -5.882,5.883c0,3.248 2.633,5.882 5.882,5.882c3.249,0 5.882,-2.634 5.882,-5.882Zm-8.823,0c0,-1.625 1.317,-2.942 2.941,-2.942c1.624,0 2.941,1.317 2.941,2.942c0,1.624 -1.317,2.941 -2.941,2.941c-1.624,0 -2.941,-1.317 -2.941,-2.941Zm1.471,-9.559c0,0.812 0.658,1.47 1.47,1.47c0.812,0 1.471,-0.658 1.471,-1.47l0,-2.941c0,-0.813 -0.659,-1.471 -1.471,-1.471c-0.812,0 -1.47,0.658 -1.47,1.471l0,2.941Zm11.029,8.088c-0.812,0 -1.471,0.658 -1.471,1.471c0,0.812 0.659,1.47 1.471,1.47l2.941,0c0.812,0 1.471,-0.658 1.471,-1.47c0,-0.813 -0.659,-1.471 -1.471,-1.471l-2.941,0Zm-22.059,0c-0.812,0 -1.47,0.658 -1.47,1.471c0,0.812 0.658,1.47 1.47,1.47l2.941,0c0.812,0 1.471,-0.658 1.471,-1.47c0,-0.813 -0.659,-1.471 -1.471,-1.471l-2.941,0Zm18.524,-6.633c-0.574,0.574 -0.574,1.505 0,2.08c0.574,0.574 1.505,0.574 2.08,0l2.079,-2.08c0.575,-0.574 0.575,-1.505 0,-2.08c-0.574,-0.574 -1.505,-0.574 -2.079,0l-2.08,2.08Zm-16.207,16.207c-0.574,0.574 -0.574,1.506 0,2.08c0.574,0.574 1.505,0.574 2.08,0l2.079,-2.08c0.575,-0.574 0.575,-1.505 0,-2.08c-0.574,-0.574 -1.505,-0.574 -2.079,0l-2.08,2.08Zm2.08,-14.127c0.574,0.574 1.505,0.574 2.079,0c0.575,-0.575 0.575,-1.506 0,-2.08l-2.079,-2.08c-0.575,-0.574 -1.506,-0.574 -2.08,0c-0.574,0.575 -0.574,1.506 0,2.08l2.08,2.08Zm16.207,16.207c0.574,0.574 1.505,0.574 2.079,0c0.575,-0.574 0.575,-1.506 0,-2.08l-2.079,-2.08c-0.575,-0.574 -1.506,-0.574 -2.08,0c-0.574,0.575 -0.574,1.506 0,2.08l2.08,2.08Zm-39.43,19.228l1.179,-6.448l1.183,6.448l-2.362,0Zm-0.268,-14.969l-2.941,16.177c-0.164,0.903 0.529,1.734 1.447,1.734l5.882,0c0.918,0 1.611,-0.831 1.447,-1.734l-2.941,-16.177c-0.293,-1.61 -2.601,-1.61 -2.894,0Z"/><path id="Shape1" d="M6.618,46.324c0,-0.813 -0.659,-1.471 -1.471,-1.471c-0.812,0 -1.471,0.658 -1.471,1.471l0,2.205c0,0.813 0.659,1.471 1.471,1.471c0.812,0 1.471,-0.658 1.471,-1.471l0,-2.205Zm25.414,-3.678l2.527,-10.095l2.526,10.096l-5.053,-0.001Zm1.1,-16.532l-4.412,17.647c-0.232,0.928 0.47,1.827 1.427,1.827l8.824,0c0.956,0 1.658,-0.899 1.426,-1.827l-4.411,-17.647c-0.372,-1.485 -2.483,-1.485 -2.854,0Zm-5.191,6.239c0,-4.873 -3.95,-8.824 -8.823,-8.824c-4.873,0 -8.824,3.951 -8.824,8.824c0,4.873 3.951,8.823 8.824,8.823c4.873,0 8.823,-3.95 8.823,-8.823Zm-14.706,0c0,-3.249 2.634,-5.882 5.883,-5.882c3.248,0 5.882,2.633 5.882,5.882c0,3.249 -2.634,5.882 -5.882,5.882c-3.249,0 -5.883,-2.633 -5.883,-5.882Z"/><path id="Shape2" d="M20.588,40.441c0,-0.812 -0.658,-1.47 -1.47,-1.47c-0.813,0 -1.471,0.658 -1.471,1.47l0,8.088c0,0.813 0.658,1.471 1.471,1.471c0.812,0 1.47,-0.658 1.47,-1.471l0,-8.088Zm15.441,5.147c0,-0.812 -0.658,-1.47 -1.47,-1.47c-0.812,0 -1.471,0.658 -1.471,1.47l0,2.941c0,0.813 0.659,1.471 1.471,1.471c0.812,0 1.47,-0.658 1.47,-1.471l0,-2.941Z"/></g></svg>