<?xml version="1.0" encoding="UTF-8"?>
<svg width="103px" height="100px" viewBox="0 0 103 100" version="1.1" xmlns="http://www.w3.org/2000/svg" xmlns:xlink="http://www.w3.org/1999/xlink">
	<g stroke="none" stroke-width="1" fill="black" fill-rule="evenodd">
		<path d="M74.4796475,95.7876382 C61.5865138,95.7876382 51.0958456,85.29697 51.0958456,72.4038364 C51.0958456,59.5107028 61.5865138,49.0200346 74.4796475,49.0200346 C87.3727811,49.0200346 97.8634493,59.5107028 97.8634493,72.4038364 C97.8634493,85.29697 87.3727811,95.7876382 74.4796475,95.7876382 L74.4796475,95.7876382 Z M58.8124124,4.48809908 L70.7603618,4.48809908 L70.7603618,45.0871313 C66.3680346,45.6840899 62.2975968,47.2993894 58.8124124,49.7135599 L58.8124124,4.48809908 Z M33.1402696,80.4159562 L45.0852926,80.4159562 L45.0852926,24.205288 L33.1402696,24.205288 L33.1402696,80.4159562 Z M74.9712604,44.8325461 C89.9596014,45.0988364 102.077274,57.3511175 102.077274,72.4038364 C102.077274,87.6204263 89.6962373,99.9985369 74.4796475,99.9985369 C63.6553848,99.9985369 54.2942558,93.7216935 49.7760991,84.6297811 L2.10720507,84.6297811 C0.942550691,84.6297811 0.000292626728,83.6845968 0.000292626728,82.5228687 C0.000292626728,81.3582143 0.942550691,80.4159562 2.10720507,80.4159562 L3.25137558,80.4159562 L3.25137558,40.200265 C3.25137558,39.0356106 4.19363364,38.0933525 5.35828802,38.0933525 L21.5171359,38.0933525 C22.6817903,38.0933525 23.6240484,39.0356106 23.6240484,40.200265 L23.6240484,80.4159562 L28.929371,80.4159562 L28.929371,22.0983756 C28.929371,20.9366475 29.871629,19.9943894 31.0333571,19.9943894 L47.1922051,19.9943894 C48.3539332,19.9943894 49.2991175,20.9366475 49.2991175,22.0983756 L49.2991175,61.1698963 C50.607159,58.2465553 52.4068134,55.5953571 54.5985876,53.3099424 L54.5985876,2.38118664 C54.5985876,1.21945853 55.5408456,0.274274194 56.7055,0.274274194 L72.8643479,0.274274194 C74.0290023,0.274274194 74.9712604,1.21945853 74.9712604,2.38118664 L74.9712604,44.8325461 Z M7.46520046,80.4159562 L19.4131498,80.4159562 L19.4131498,42.3071774 L7.46520046,42.3071774 L7.46520046,80.4159562 Z" id="Fill-1"></path>
		<path d="M86.1306985,60.9947411 C86.1306985,60.9917742 86.1277963,60.9917742 86.1277963,60.9888072 C86.0204128,60.7306834 85.8665933,60.496295 85.6779467,60.3034439 C85.5212249,60.1402621 85.3325784,60.0304853 85.135225,59.9296093 C85.0916912,59.9058738 85.0568641,59.8643366 85.010428,59.843568 C84.7579318,59.7367582 84.4909243,59.6803863 84.2123078,59.6803863 C84.2065033,59.6803863 84.2036011,59.6774194 84.2006988,59.6774194 L66.270566,59.6774194 C65.1183706,59.6774194 64.1838444,60.6327743 64.1838444,61.8106498 C64.1838444,62.9914923 65.1183706,63.9468473 66.270566,63.9468473 L78.7328499,63.9468473 C76.3994367,66.3233669 73.0008959,69.9489686 67.8987311,75.4585778 C65.1619045,78.410684 62.802371,80.9622531 61.9404011,81.7989304 C61.1045516,82.6118722 61.0697246,83.9618303 61.8649425,84.8192762 C62.2741605,85.2613504 62.8284912,85.483871 63.3799197,85.483871 C63.8965212,85.483871 64.4160249,85.2880529 64.8194383,84.8993836 C65.759769,83.9825989 68.0467462,81.517071 70.9344901,78.3928823 C74.0021739,75.0758424 78.892474,69.7976546 82.111075,66.5340197 L82.111075,80.1404105 C82.111075,81.3212529 83.0485035,82.2766079 84.2006988,82.2766079 C85.3528941,82.2766079 86.2903226,81.3212529 86.2903226,80.1404105 L86.2903226,61.8106498 L86.2903226,61.8076829 C86.2903226,61.5376913 86.238082,61.2617658 86.1306985,60.9947411" id="Fill-4" fill="url(#linearGradient-2)"></path>
	</g>
</svg>
