<?xml version="1.0" encoding="UTF-8"?>
<svg width="110px" height="100px" viewBox="0 0 110 100" version="1.1" xmlns="http://www.w3.org/2000/svg" xmlns:xlink="http://www.w3.org/1999/xlink">
	<path d="M93.5909091,54.8706061 L70.2909091,30.440303 C69.4575758,29.5645455 68.0757576,29.540303 67.2060606,30.3706061 C66.3333333,31.2009091 66.3,32.5827273 67.1363636,33.4554545 L93.0909091,60.6645455 C94.9818182,62.6463636 94.2969697,65.6554545 92.5787879,67.3069697 C91.5787879,68.2706061 89.5,69.479697 86.8636364,66.7554545 L84.9818182,64.8160606 L73.7939394,53.2706061 C72.9575758,52.4009091 71.5727273,52.3827273 70.7090909,53.2221212 C69.8454545,54.0584848 69.8212121,55.440303 70.6636364,56.3069697 L71.5484848,57.2190909 C71.5575758,57.2281818 71.5575758,57.240303 71.5666667,57.2524242 L83.7333333,69.7948485 C86.5969697,72.7493939 84.8181818,75.0978788 83.9242424,75.9675758 C82.4515152,77.3918182 79.4818182,78.4736364 77.4666667,76.4039394 L64.0939394,62.6645455 C63.2545455,61.8009091 61.869697,61.779697 61.0090909,62.6221212 C60.1454545,63.4615152 60.1272727,64.8433333 60.9666667,65.7069697 L72.2333333,77.2827273 C72.3242424,77.6130303 72.469697,77.9312121 72.7242424,78.1978788 C75.5757576,81.1918182 73.8969697,83.4433333 73.0424242,84.2736364 C71.6454545,85.6372727 68.7424242,86.6312121 66.6969697,84.5675758 L63.4393939,81.2827273 C63.0454545,80.4766667 62.5484848,79.7069697 61.8757576,79.0372727 L61.1636364,78.3251515 C59.9030303,77.0645455 58.3333333,76.3009091 56.6969697,76.01 C58.5363636,72.8039394 58.1212121,68.6463636 55.3848485,65.9069697 L54.6666667,65.1948485 C53.4272727,63.9554545 51.8909091,63.1887879 50.2878788,62.8887879 C52.5848485,59.6190909 52.2909091,55.0706061 49.3666667,52.1524242 L48.6545455,51.4372727 C45.4939394,48.2766667 39.9484848,48.2766667 36.7878788,51.4372727 L36.0848485,52.140303 C35.7606061,50.5493939 34.9848485,49.0857576 33.8151515,47.9190909 L33.1030303,47.2069697 C31.5272727,45.6281818 29.4181818,44.7584848 27.1727273,44.7584848 L27.1666667,44.7584848 C24.9212121,44.7584848 22.8151515,45.6281818 21.2393939,47.2069697 L16.4515152,51.9978788 L10.4727273,46.0312121 C0.175757576,35.7463636 4.46060606,21.9584848 12.8030303,13.5009091 C21.4393939,4.73121212 35.6606061,0.0766666667 46.4363636,10.5675758 L49.4090909,13.5251515 L36.1272727,26.7433333 C33.6909091,29.1645455 33.5939394,32.2190909 35.8757576,34.5251515 C39.3878788,38.0766667 48.7272727,39.2675758 54.4393939,33.6463636 L59.4454545,28.7039394 C61.8424242,26.5312121 64.4575758,27.1827273 68.8757576,28.5160606 C74.1575758,30.1130303 80.7363636,32.1039394 88.0121212,26.3615152 C88.9575758,25.6130303 89.1181818,24.2433333 88.3727273,23.2978788 C87.6212121,22.3493939 86.2575758,22.1918182 85.3090909,22.9342424 C79.8242424,27.2645455 75.1181818,25.8433333 70.1393939,24.340303 C65.7878788,23.0221212 60.8575758,21.5342424 56.4484848,25.5342424 L51.3757576,30.540303 C47.4848485,34.3706061 40.9151515,33.41 38.9787879,31.4524242 C38.5909091,31.0615152 38.2848485,30.7524242 39.2060606,29.8342424 L59.3454545,9.79484848 C68.7545455,0.637272727 83.030303,5.52515152 86.0606061,7.22212121 C89.4,9.09484848 92.7515152,11.7887879 95.7515152,15.0160606 C104.136364,24.0312121 110.093939,38.3948485 99.2818182,49.1918182 L93.5909091,54.8706061 Z M58.7939394,87.8190909 L52.5939394,94.0160606 C51.0969697,95.5190909 48.4060606,95.5281818 46.8969697,94.0160606 L46.1818182,93.3039394 C45.430303,92.5524242 45.0151515,91.540303 45.0151515,90.4584848 C45.0151515,89.3766667 45.4272727,88.3645455 46.1818182,87.6069697 L52.3787879,81.41 C53.1636364,80.6251515 54.1969697,80.2312121 55.2272727,80.2312121 C55.7121212,80.2312121 56.1969697,80.3342424 56.6575758,80.51 C56.7424242,80.6433333 56.8,80.7887879 56.9151515,80.9039394 L59.730303,83.740303 C60.1787879,85.1342424 59.8939394,86.7160606 58.7939394,87.8190909 L58.7939394,87.8190909 Z M36.5090909,84.7857576 L35.7969697,84.0736364 C35.0424242,83.3190909 34.6272727,82.3069697 34.6272727,81.2281818 C34.6272727,80.1463636 35.0424242,79.1342424 35.7969697,78.379697 L45.8909091,68.2827273 C46.6787879,67.4978788 47.7060606,67.1069697 48.7393939,67.1069697 C49.769697,67.1069697 50.8,67.4978788 51.5878788,68.2827273 L52.3,68.9948485 C53.8727273,70.5675758 53.8727273,73.1221212 52.3030303,74.6918182 L42.2060606,84.7857576 C40.6909091,86.2978788 38.0151515,86.2918182 36.5090909,84.7857576 L36.5090909,84.7857576 Z M25.8636364,75.6584848 L25.1484848,74.9433333 C24.3969697,74.1887879 23.9787879,73.179697 23.9787879,72.0978788 C23.9787879,71.0160606 24.3939394,70.0039394 25.1484848,69.2493939 L39.869697,54.5251515 C40.6272727,53.7675758 41.6393939,53.3524242 42.7212121,53.3524242 C43.8,53.3524242 44.8121212,53.7675758 45.569697,54.5221212 L46.2848485,55.2372727 C47.8515152,56.8069697 47.8515152,59.3615152 46.2848485,60.9312121 L31.5575758,75.6584848 C30.0151515,77.2009091 27.4030303,77.2009091 25.8636364,75.6584848 L25.8636364,75.6584848 Z M18.6424242,67.1160606 C17.5545455,67.1160606 16.5454545,66.7009091 15.7909091,65.9493939 L15.0787879,65.2372727 C13.5090909,63.6645455 13.5090909,61.11 15.0787879,59.540303 L24.3272727,50.2918182 C25.0787879,49.5372727 26.0878788,49.1221212 27.169697,49.1221212 C28.2515152,49.1221212 29.2636364,49.5372727 30.0181818,50.2918182 L30.7333333,51.0069697 C31.4848485,51.7584848 31.9,52.7706061 31.9,53.8554545 C31.9,54.9372727 31.4848485,55.9493939 30.7333333,56.7009091 L21.4848485,65.9493939 C20.7363636,66.7009091 19.7242424,67.1160606 18.6424242,67.1160606 L18.6424242,67.1160606 Z M88.1939394,3.41909091 C82.2818182,0.100909091 66.7121212,-3.46575758 56.2848485,6.68272727 L52.5030303,10.4463636 L49.4969697,7.45848485 C37.1545455,-4.56272727 20.130303,-0.147575758 9.69393939,10.4372727 C-0.112121212,20.3827273 -5.01515152,36.7281818 7.39090909,49.1190909 L13.3636364,55.0827273 L11.9939394,56.4554545 C8.72424242,59.7281818 8.72424242,65.0493939 11.9939394,68.3221212 L12.7090909,69.0342424 C14.2818182,70.61 16.3878788,71.479697 18.6393939,71.479697 C19,71.479697 19.3393939,71.4190909 19.6848485,71.379697 C19.6636364,71.6190909 19.6151515,71.8554545 19.6151515,72.1009091 C19.6181818,74.3463636 20.4878788,76.4524242 22.0636364,78.0281818 L22.7787879,78.7433333 C24.4121212,80.379697 26.5606061,81.1978788 28.7090909,81.1978788 C29.2363636,81.1978788 29.7636364,81.1433333 30.2787879,81.0463636 C30.2636364,83.4736364 31.1333333,85.579697 32.7121212,87.1584848 L33.4272727,87.8736364 C35.0606061,89.5069697 37.2090909,90.3251515 39.3606061,90.3251515 C39.8,90.3251515 40.2393939,90.2706061 40.6757576,90.2009091 C40.6515152,92.7069697 41.5212121,94.8130303 43.1,96.3918182 L43.8121212,97.1039394 C45.3878788,98.679697 47.4939394,99.5493939 49.7454545,99.5463636 C51.9939394,99.5463636 54.1030303,98.679697 55.6757576,97.1039394 L61.8757576,90.9039394 C62.7757576,90.0039394 63.4060606,88.9433333 63.8090909,87.8160606 C65.4939394,89.41 67.4969697,90.1221212 69.4909091,90.1221212 C71.9393939,90.1221212 74.3575758,89.079697 76.0848485,87.4039394 C77.5848485,85.9463636 78.5939394,83.9645455 78.6757576,81.7887879 C79.1727273,81.879697 79.6727273,81.9281818 80.1757576,81.9281818 C82.6757576,81.9281818 85.1727273,80.8372727 86.9636364,79.0978788 C88.6060606,77.5039394 89.6666667,75.21 89.5848485,72.7372727 C89.7393939,72.7463636 89.9030303,72.7887879 90.0575758,72.7887879 C92.1757576,72.7857576 94.1363636,71.8645455 95.6060606,70.4524242 C98.7181818,67.4554545 99.8666667,61.979697 96.5636364,58.0706061 L102.366667,52.279697 C114.542424,40.1160606 109.424242,23.3069697 98.9484848,12.0433333 C95.6424242,8.48878788 91.9212121,5.5069697 88.1939394,3.41909091 Z"></path>
</svg>
