<?xml version="1.0" encoding="UTF-8"?>
<svg width="100px" height="86px" viewBox="0 0 100 86" version="1.1" xmlns="http://www.w3.org/2000/svg" xmlns:xlink="http://www.w3.org/1999/xlink">
	<g stroke="none" stroke-width="1" fill="black" fill-rule="evenodd">
		<path d="M9.56997417,81.4132926 L17.9759915,81.4132926 L17.9759915,58.6569901 L9.56997417,58.6569901 L9.56997417,81.4132926 Z M33.7213189,81.4132926 L42.1273363,81.4132926 L42.1273363,34.4033613 L33.7213189,34.4033613 L33.7213189,81.4132926 Z M57.8726637,81.4132926 L66.2786811,81.4132926 L66.2786811,56.0595875 L57.8726637,56.0595875 L57.8726637,81.4132926 Z M82.0240085,81.4132926 L90.4300258,81.4132926 L90.4300258,44.7990833 L82.0240085,44.7990833 L82.0240085,81.4132926 Z M97.8118827,81.5996944 L94.8062604,81.5996944 L94.8062604,42.5958747 C94.8062604,41.3827349 93.8276858,40.3957219 92.6181431,40.3957219 L79.8358912,40.3957219 C78.6293876,40.3957219 77.6477739,41.3827349 77.6477739,42.5958747 L77.6477739,81.5996944 L70.6549157,81.5996944 L70.6549157,53.8563789 C70.6549157,52.6432391 69.6733019,51.6562261 68.4667984,51.6562261 L55.6845464,51.6562261 C54.4750038,51.6562261 53.4964291,52.6432391 53.4964291,53.8563789 L53.4964291,81.5996944 L46.5035709,81.5996944 L46.5035709,32.2032086 C46.5035709,30.987013 45.5219571,30 44.3154536,30 L31.5301626,30 C30.323659,30 29.3420453,30.987013 29.3420453,32.2032086 L29.3420453,81.5996944 L22.3522261,81.5996944 L22.3522261,56.4568373 C22.3522261,55.2406417 21.3706124,54.2536287 20.1641088,54.2536287 L7.38185686,54.2536287 C6.17231424,54.2536287 5.1907005,55.2406417 5.1907005,56.4568373 L5.1907005,81.5996944 L2.18811731,81.5996944 C0.981613737,81.5996944 0,82.5836516 0,83.7998472 C0,85.012987 0.981613737,86 2.18811731,86 L97.8118827,86 C99.0183863,86 100,85.012987 100,83.7998472 C100,82.5836516 99.0183863,81.5996944 97.8118827,81.5996944 L97.8118827,81.5996944 Z"></path>
		<path d="M13.5004314,29.1362529 C16.3421053,29.1362529 18.6522865,31.4797744 18.6522865,34.3624591 C18.6522865,37.2420803 16.3421053,39.5886653 13.5004314,39.5886653 C10.6617774,39.5886653 8.34857636,37.2420803 8.34857636,34.3624591 C8.34857636,31.4797744 10.6617774,29.1362529 13.5004314,29.1362529 M37.4991372,4.41439811 C40.340811,4.41439811 42.6509922,6.75791965 42.6509922,9.6375409 C42.6509922,12.5202256 40.340811,14.8637471 37.4991372,14.8637471 C34.6604832,14.8637471 32.350302,12.5202256 32.350302,9.6375409 C32.350302,6.75791965 34.6604832,4.41439811 37.4991372,4.41439811 M61.5008628,26.5231498 C64.3395168,26.5231498 66.6527179,28.8697347 66.6527179,31.7524194 C66.6527179,34.6320407 64.3395168,36.9755622 61.5008628,36.9755622 C58.659189,36.9755622 56.3490078,34.6320407 56.3490078,31.7524194 C56.3490078,28.8697347 58.659189,26.5231498 61.5008628,26.5231498 M85.4995686,15.2803732 C88.3412425,15.2803732 90.6514236,17.6238947 90.6514236,20.5065794 C90.6514236,23.3892641 88.3412425,25.7327856 85.4995686,25.7327856 C82.6578947,25.7327856 80.3477135,23.3892641 80.3477135,20.5065794 C80.3477135,17.6238947 82.6578947,15.2803732 85.4995686,15.2803732 M13.5004314,44 C18.7398619,44 23.0008628,39.6744413 23.0008628,34.3624591 C23.0008628,32.4692613 22.4421915,30.7200446 21.5120794,29.2281557 C21.5332183,29.2067117 21.5634167,29.2005848 21.5845557,29.1822043 L32.7942192,17.9608717 C34.1863676,18.7757432 35.7778257,19.2781452 37.4991372,19.2781452 C39.5012942,19.2781452 41.352459,18.6409524 42.8835203,17.5656896 L53.2053494,27.1480888 C52.4594478,28.5205041 52.0004314,30.0767249 52.0004314,31.7524194 C52.0004314,37.0644016 56.2614323,41.3899603 61.5008628,41.3899603 C66.7372735,41.3899603 71.0012942,37.0644016 71.0012942,31.7524194 C71.0012942,31.1489243 70.9318378,30.5638098 70.8261432,29.9940124 L78.0556514,26.4281835 C79.7981018,28.6736754 82.4706644,30.1471837 85.4995686,30.1471837 C90.7389991,30.1471837 95,25.821625 95,20.5065794 C95,15.1915338 90.7389991,10.8690385 85.4995686,10.8690385 C80.2601381,10.8690385 75.9961173,15.1915338 75.9961173,20.5065794 C75.9961173,21.1682796 76.0625539,21.8177261 76.1893874,22.4426652 L69.0504745,25.9625426 C67.3140638,23.6404651 64.5901639,22.1118151 61.5008628,22.1118151 C59.4896462,22.1118151 57.6294219,22.7581981 56.092321,23.8426513 L45.7795513,14.2694423 C46.5345125,12.8878368 47.0025884,11.3254891 47.0025884,9.6375409 C47.0025884,4.32555873 42.7385677,0 37.4991372,0 C32.2627265,0 27.9987058,4.32555873 27.9987058,9.6375409 C27.9987058,11.6073244 28.5905953,13.4361902 29.5931838,14.9648402 L18.5284728,26.0391283 C18.4892148,26.0789529 18.4771355,26.1310311 18.4439172,26.1708557 C16.9974116,25.2702082 15.3183779,24.7249182 13.5004314,24.7249182 C8.26402071,24.7249182 4,29.0474135 4,34.3624591 C4,39.6744413 8.26402071,44 13.5004314,44"></path>
	</g>
</svg>
