<?xml version="1.0" encoding="UTF-8"?>
<svg width="100px" height="100px" viewBox="0 0 100 100" version="1.1" xmlns="http://www.w3.org/2000/svg" xmlns:xlink="http://www.w3.org/1999/xlink">
    <defs>
        <polygon id="path-1" points="0 44.9991375 0 0.216284575 99.5529412 0.216284575 99.5529412 44.9991375 6.43864621e-16 44.9991375"></polygon>
    </defs>
    <g stroke="none" stroke-width="1" fill="black" fill-rule="evenodd">
		<g id="group-3" transform="translate(0.000000, 55.000000)">
			<mask id="mask-2" fill="white"><use xlink:href="#path-1"></use></mask>
			<path d="M96.1411765,9.0961375 C94.7352941,8.3946375 92.05,7.7161375 88.0764706,9.4468875 C87.8382353,8.0927625 87.1735294,6.9370125 86.1,6.1003875 C83.6794118,4.2086375 79.8764706,4.5450125 76.1029412,6.9398875 C75.6147059,6.0630125 74.9705882,5.5138875 74.3852941,5.1746375 C72.2,3.8952625 68.9588235,4.3638875 64.7411765,6.5546375 L51.7941176,13.2878875 C51.3764706,13.5035125 51.0970588,13.8542625 50.9088235,14.2423875 C47.1117647,13.7967625 44.2441176,12.4685125 37.9470588,7.9087625 L29.3970588,1.7131375 C26.8088235,-0.1613625 21.4088235,-0.2936125 17.1029412,1.4198875 L1.32058824,7.6902625 C0.238235294,8.1186375 -0.285294118,9.3261375 0.155882353,10.3870125 C0.597058824,11.4421375 1.82647059,11.9567625 2.91470588,11.5255125 L18.6970588,5.2551375 C22.2382353,3.8521375 25.9558824,4.3753875 26.8764706,5.0395125 L35.4264706,11.2322625 C45.4029412,18.4600125 48.3676471,18.5117625 56.2882353,18.6583875 C58.2441176,18.6928875 60.5382353,18.7360125 63.3705882,18.8998875 C63.8911765,18.9315125 64.4058824,19.4490125 64.4970588,20.0297625 C64.6529412,21.0130125 63.4617647,21.6138875 62.6176471,21.9387625 C50.8941176,27.1712625 43.8352941,25.4347625 31.4617647,19.2420125 C30.4235294,18.7273875 29.1441176,19.1241375 28.6117647,20.1418875 C28.0764706,21.1596375 28.4911765,22.4073875 29.5323529,22.9277625 C36.5882353,26.4582625 42.7911765,29.1550125 49.9,29.1550125 C54.2205882,29.1550125 58.8735294,28.1602625 64.2558824,25.7510125 C68.0382353,24.3307625 69.0235294,21.5362625 68.6852941,19.3943875 C68.2823529,16.8586375 66.1529412,14.9122625 63.6235294,14.7685125 C61.6264706,14.6535125 59.9088235,14.5960125 58.3676471,14.5586375 L66.7294118,10.2116375 C70.0882353,8.4636375 71.7852941,8.4780125 72.2147059,8.7281375 C72.4705882,8.8776375 72.6411765,9.5158875 72.6441176,10.3496375 C72.65,11.1143875 73.0882353,11.8158875 73.7794118,12.1695125 C74.4705882,12.5202625 75.3088235,12.4771375 75.9588235,12.0430125 L78.1441176,10.5825125 C80.6970588,8.8747625 82.6882353,8.7367625 83.4588235,9.3347625 C84.0794118,9.8206375 84.0941176,11.0971375 83.4911765,12.5892625 C83.1470588,13.4460125 83.4176471,14.4235125 84.1647059,14.9870125 C84.9088235,15.5505125 85.9441176,15.5648875 86.7058824,15.0243875 C89.8058824,12.8221375 92.6176471,11.9883875 94.2176471,12.7847625 C95.0294118,13.1901375 95.3176471,13.9462625 95.3176471,14.5183875 C95.3147059,14.8950125 95.1970588,15.5850125 94.2352941,16.0737625 L59.8705882,37.2941375 C53.2352941,41.3852625 44.5176471,41.3507625 42.6117647,40.2323875 C42.4382353,40.1317625 42.25,40.0570125 42.0529412,40.0052625 C37.7941176,38.9328875 34.3852941,37.8720125 31.3764706,36.9347625 C23.4911765,34.4766375 18.2794118,32.8522625 8.27058824,34.1143875 C7.10882353,34.2581375 6.29117647,35.2960125 6.43823529,36.4316375 C6.58823529,37.5643875 7.67058824,38.3722625 8.80882353,38.2198875 C17.9,37.0813875 22.4852941,38.5073875 30.0911765,40.8792625 C33.0941176,41.8136375 36.4882353,42.8687625 40.7441176,43.9497625 C42.0911765,44.6138875 44.2588235,44.9991375 46.8441176,44.9991375 C51.4117647,44.9991375 57.2676471,43.7945125 62.1323529,40.7901375 L96.3235294,19.6675125 C98.3441176,18.6670125 99.55,16.7436375 99.5529412,14.5212625 C99.5529412,12.2270125 98.2470588,10.1455125 96.1411765,9.0961375"></path>
		</g>
		<path d="M50.498534,4.21926645 C63.3345061,4.21926645 73.7780265,14.6633436 73.7780265,27.4970679 C73.7780265,40.3337243 63.3345061,50.7807336 50.498534,50.7807336 C37.6654939,50.7807336 27.2219735,40.3337243 27.2219735,27.4970679 C27.2219735,14.6633436 37.6654939,4.21926645 50.498534,4.21926645 M50.498534,55 C65.6624554,55 78,42.6617976 78,27.4970679 C78,12.3352703 65.6624554,0 50.498534,0 C35.3346127,0 23,12.3352703 23,27.4970679 C23,42.6617976 35.3346127,55 50.498534,55"></path>
		<path d="M50.5091105,29.6166893 L50.5786749,29.6166893 C54.5740881,29.5608322 56.7094111,30.9072818 57.3778337,32.1331976 C57.7800971,32.8710991 57.7226309,33.6736771 57.2175333,34.3939394 C56.3555403,35.6286748 54.0115242,36.7840344 49.9888902,36.3430574 C48.0138677,36.1284487 45.9844034,35.4699231 43.6373628,34.7085029 L43.1836823,34.5615106 C42.0373828,34.2087291 40.8094209,34.7966983 40.4283292,35.9020805 C40.0502621,37.0104025 40.6672677,38.2098598 41.807518,38.5802804 L42.258174,38.7243329 C44.3299818,39.3946178 46.3050043,40.0178652 48.3193459,40.3647671 L48.3193459,44.8833107 C48.3193459,46.0533695 49.2962713,47 50.5000369,47 C51.7007781,47 52.6777035,46.0533695 52.6777035,44.8833107 L52.6777035,40.5793758 C56.2708532,40.347128 59.2258257,39.0506558 60.8197566,36.7781547 C62.2352399,34.7555405 62.3864667,32.2772501 61.2250446,30.1517413 C59.5706229,27.11782 55.7113139,25.3862506 50.630092,25.3862506 C50.590773,25.3891904 50.5514541,25.3891904 50.5091105,25.3862506 C46.4290103,25.3862506 44.269491,24.0956581 43.6071175,22.8844414 C43.1110934,21.9730891 43.4286698,21.1822705 43.7795161,20.6766169 C44.6687299,19.4095432 47.0702122,18.2130258 51.1351897,18.6569426 C53.1253349,18.8744912 55.1729464,19.5388964 57.5441832,20.3091361 L57.9585448,20.4414292 C59.1078688,20.8236092 60.3358308,20.2121212 60.7138979,19.1037992 C61.0949895,17.9954772 60.477984,16.7960199 59.3347091,16.4285391 L58.923372,16.2933062 C56.788049,15.5995025 54.7525357,14.9615559 52.6777035,14.614654 L52.6777035,10.1166893 C52.6777035,8.94957033 51.7007781,8 50.5000369,8 C49.2962713,8 48.3193459,8.94957033 48.3193459,10.1166893 L48.3193459,14.3912257 C44.720147,14.6440525 41.7863463,16.0022614 40.1803172,18.2953415 C38.7708831,20.312076 38.6136071,22.7697874 39.7629311,24.8717775 C41.4113037,27.8880597 45.3280789,29.6166893 50.5091105,29.6166893"></path>
    </g>
</svg>
