<?xml version="1.0" encoding="UTF-8"?>
<svg width="50px" height="50px" viewBox="0 0 50 50" version="1.1" xmlns="http://www.w3.org/2000/svg" xmlns:xlink="http://www.w3.org/1999/xlink">
    <!-- Generator: Sketch 42 (36781) - http://www.bohemiancoding.com/sketch -->
    <title>Forests_icon</title>
    <desc>Created with Sketch.</desc>
    <defs></defs>
    <g id="🖥-Desktop" stroke="none" stroke-width="1" fill="none" fill-rule="evenodd">
        <g id="2_1_1_D_WWF_Country_BiH-Copy" transform="translate(-25.000000, -883.000000)" fill="#03769D">
            <g id="Sidebar_navigation" transform="translate(0.000000, 550.000000)">
                <g id="Forests" transform="translate(0.000000, 318.000000)">
                    <g id="Forests_icon" transform="translate(25.000000, 15.000000)">
                        <path d="M41.1764706,13.9705882 C41.1764706,10.7218544 38.5428515,8.08823529 35.2941176,8.08823529 C32.0453838,8.08823529 29.4117647,10.7218544 29.4117647,13.9705882 C29.4117647,17.2193221 32.0453838,19.8529412 35.2941176,19.8529412 C38.5428515,19.8529412 41.1764706,17.2193221 41.1764706,13.9705882 Z M32.3529412,13.9705882 C32.3529412,12.3462213 33.6697507,11.0294118 35.2941176,11.0294118 C36.9184846,11.0294118 38.2352941,12.3462213 38.2352941,13.9705882 C38.2352941,15.5949551 36.9184846,16.9117647 35.2941176,16.9117647 C33.6697507,16.9117647 32.3529412,15.5949551 32.3529412,13.9705882 Z M33.8235294,4.41176471 C33.8235294,5.22394816 34.4819342,5.88235294 35.2941176,5.88235294 C36.1063011,5.88235294 36.7647059,5.22394816 36.7647059,4.41176471 L36.7647059,1.47058824 C36.7647059,0.658404779 36.1063011,0 35.2941176,0 C34.4819342,0 33.8235294,0.658404779 33.8235294,1.47058824 L33.8235294,4.41176471 Z M44.8529412,12.5 C44.0407577,12.5 43.3823529,13.1584048 43.3823529,13.9705882 C43.3823529,14.7827717 44.0407577,15.4411765 44.8529412,15.4411765 L47.7941176,15.4411765 C48.6063011,15.4411765 49.2647059,14.7827717 49.2647059,13.9705882 C49.2647059,13.1584048 48.6063011,12.5 47.7941176,12.5 L44.8529412,12.5 Z M22.7941176,12.5 C21.9819342,12.5 21.3235294,13.1584048 21.3235294,13.9705882 C21.3235294,14.7827717 21.9819342,15.4411765 22.7941176,15.4411765 L25.7352941,15.4411765 C26.5474776,15.4411765 27.2058824,14.7827717 27.2058824,13.9705882 C27.2058824,13.1584048 26.5474776,12.5 25.7352941,12.5 L22.7941176,12.5 Z M41.3179325,5.86704759 C40.7436321,6.44134801 40.7436321,7.37247301 41.3179325,7.94677338 C41.8922329,8.52107382 42.8233579,8.52107382 43.3976583,7.94677338 L45.4773841,5.86704759 C46.0516846,5.29274716 46.0516846,4.36162219 45.4773841,3.78732176 C44.9030837,3.21302133 43.9719587,3.21302133 43.3976583,3.78732176 L41.3179325,5.86704759 Z M25.1108512,22.0741289 C24.5365507,22.6484293 24.5365507,23.5795543 25.1108512,24.1538547 C25.6851516,24.7281551 26.6162765,24.7281551 27.190577,24.1538547 L29.2703028,22.0741289 C29.8446032,21.4998285 29.8446032,20.5687035 29.2703028,19.9944031 C28.6960024,19.4201026 27.7648774,19.4201026 27.190577,19.9944031 L25.1108512,22.0741289 Z M27.190577,7.94677338 C27.7648774,8.52107382 28.6960024,8.52107382 29.2703028,7.94677338 C29.8446032,7.37247301 29.8446032,6.44134801 29.2703028,5.86704759 L27.190577,3.78732176 C26.6162765,3.21302133 25.6851516,3.21302133 25.1108512,3.78732176 C24.5365507,4.36162219 24.5365507,5.29274716 25.1108512,5.86704759 L27.190577,7.94677338 Z M43.3976583,24.1538547 C43.9719587,24.7281551 44.9030837,24.7281551 45.4773841,24.1538547 C46.0516846,23.5795543 46.0516846,22.6484293 45.4773841,22.0741289 L43.3976583,19.9944031 C42.8233579,19.4201026 41.8922329,19.4201026 41.3179325,19.9944031 C40.7436321,20.5687035 40.7436321,21.4998285 41.3179325,22.0741289 L43.3976583,24.1538547 Z M3.96756222,43.3823529 L5.14705882,36.9338092 L6.32992097,43.3823529 L3.96756222,43.3823529 Z M3.70019131,28.4134038 L0.759014838,44.5898743 C0.594886383,45.4925809 1.2883764,46.3235294 2.20588235,46.3235294 L8.08823529,46.3235294 C9.00574125,46.3235294 9.69923125,45.4925809 9.53510279,44.5898743 L6.59392634,28.4134038 C6.30119387,26.8033752 3.99292377,26.8033752 3.70019131,28.4134038 Z" id="Shape"></path>
                        <path d="M6.61764706,46.3235294 C6.61764706,45.511346 5.95924228,44.8529412 5.14705882,44.8529412 C4.33487537,44.8529412 3.67647059,45.511346 3.67647059,46.3235294 L3.67647059,48.5294118 C3.67647059,49.3415952 4.33487537,50 5.14705882,50 C5.95924228,50 6.61764706,49.3415952 6.61764706,48.5294118 L6.61764706,46.3235294 Z M32.0315335,42.6458238 L34.5588235,32.5514849 L37.0847532,42.6470588 L32.0315335,42.6458238 Z M33.1321434,26.1139182 L28.7203787,43.760977 C28.4883394,44.689134 29.1903365,45.5882353 30.1470588,45.5882353 L38.9705882,45.5882353 C39.9273105,45.5882353 40.6293076,44.689134 40.3972684,43.760977 L35.9855037,26.1139182 C35.6141976,24.628694 33.5034494,24.628694 33.1321434,26.1139182 Z M27.9411765,32.3529412 C27.9411765,27.4798404 23.9907478,23.5294118 19.1176471,23.5294118 C14.2445463,23.5294118 10.2941176,27.4798404 10.2941176,32.3529412 C10.2941176,37.2260419 14.2445463,41.1764706 19.1176471,41.1764706 C23.9907478,41.1764706 27.9411765,37.2260419 27.9411765,32.3529412 Z M13.2352941,32.3529412 C13.2352941,29.1042074 15.8689132,26.4705882 19.1176471,26.4705882 C22.3663809,26.4705882 25,29.1042074 25,32.3529412 C25,35.601675 22.3663809,38.2352941 19.1176471,38.2352941 C15.8689132,38.2352941 13.2352941,35.601675 13.2352941,32.3529412 Z" id="Shape"></path>
                        <path d="M20.5882353,40.4411765 C20.5882353,39.628993 19.9298305,38.9705882 19.1176471,38.9705882 C18.3054636,38.9705882 17.6470588,39.628993 17.6470588,40.4411765 L17.6470588,48.5294118 C17.6470588,49.3415952 18.3054636,50 19.1176471,50 C19.9298305,50 20.5882353,49.3415952 20.5882353,48.5294118 L20.5882353,40.4411765 Z M36.0294118,45.5882353 C36.0294118,44.7760518 35.371007,44.1176471 34.5588235,44.1176471 C33.7466401,44.1176471 33.0882353,44.7760518 33.0882353,45.5882353 L33.0882353,48.5294118 C33.0882353,49.3415952 33.7466401,50 34.5588235,50 C35.371007,50 36.0294118,49.3415952 36.0294118,48.5294118 L36.0294118,45.5882353 Z" id="Shape"></path>
                    </g>
                </g>
            </g>
        </g>
    </g>
</svg>