<?xml version="1.0" encoding="UTF-8"?>
<svg width="49px" height="50px" viewBox="0 0 49 50" version="1.1" xmlns="http://www.w3.org/2000/svg" xmlns:xlink="http://www.w3.org/1999/xlink">
    <!-- Generator: Sketch 42 (36781) - http://www.bohemiancoding.com/sketch -->
    <title>Jobs_icon</title>
    <desc>Created with Sketch.</desc>
    <defs></defs>
    <g id="🖥-Desktop" stroke="none" stroke-width="1" fill="none" fill-rule="evenodd">
        <g id="2_1_1_D_WWF_Country_BiH-Copy" transform="translate(-26.000000, -777.000000)" fill-rule="nonzero" fill="#03769D">
            <g id="Sidebar_navigation" transform="translate(0.000000, 550.000000)">
                <g id="Jobs" transform="translate(0.000000, 212.000000)">
                    <g id="Jobs_icon" transform="translate(26.000000, 15.000000)">
                        <path d="M5.12820513,49.6794872 L43.5897436,49.6794872 C46.4102564,49.6794872 48.7179487,47.3717949 48.7179487,44.5512821 L48.7179487,35.7692308 C48.7179487,34.9358974 48.0128205,34.2307692 47.1794872,34.2307692 C46.3461538,34.2307692 45.6410256,34.9358974 45.6410256,35.7692308 L45.6410256,35.7692308 L45.6410256,44.5512821 C45.6410256,45.7051282 44.7435897,46.6025641 43.5897436,46.6025641 L5.12820513,46.6025641 C3.97435897,46.6025641 3.07692308,45.7051282 3.07692308,44.5512821 L3.07692308,35.7692308 L3.07692308,35.7692308 C3.07692308,34.9358974 2.37179487,34.2307692 1.53846154,34.2307692 C0.705128205,34.2307692 0,34.9358974 0,35.7692308 L0,44.5512821 C0.0641025641,47.3717949 2.30769231,49.6794872 5.12820513,49.6794872 Z" id="Shape"></path>
                        <path d="M7.69230769,37.0512821 L15.4487179,37.0512821 C16.4102564,37.0512821 17.2435897,36.5384615 17.6923077,35.7692308 C17.8846154,35.3846154 18.0128205,35 18.0128205,34.4871795 L18.0128205,32.1794872 L30.7051282,32.1794872 L30.7051282,34.4871795 C30.7051282,34.9358974 30.8333333,35.3846154 31.025641,35.7692308 C31.474359,36.5384615 32.3076923,37.0512821 33.2692308,37.0512821 L41.025641,37.0512821 C41.9871795,37.0512821 42.8205128,36.5384615 43.2692308,35.7692308 C43.4615385,35.3846154 43.5897436,35 43.5897436,34.4871795 L43.5897436,32.1794872 C46.4102564,32.1794872 48.7179487,29.8717949 48.7179487,27.0512821 L48.7179487,13.1410256 C48.7179487,10.3205128 46.4102564,8.01282051 43.5897436,8.01282051 L35.8974359,8.01282051 L35.8974359,2.88461538 C35.8974359,1.47435897 34.7435897,0.320512821 33.3333333,0.320512821 L15.3846154,0.320512821 C13.974359,0.320512821 12.8205128,1.47435897 12.8205128,2.88461538 L12.8205128,8.01282051 L5.12820513,8.01282051 C2.30769231,8.01282051 0,10.3205128 0,13.1410256 L0,27.0512821 C0,29.8717949 2.30769231,32.1794872 5.12820513,32.1794872 L5.12820513,34.4871795 C5.12820513,34.9358974 5.25641026,35.3846154 5.44871795,35.7692308 C5.96153846,36.5384615 6.79487179,37.0512821 7.69230769,37.0512821 Z M3.07692308,27.0512821 L3.07692308,13.1410256 C3.07692308,11.9871795 3.97435897,11.0897436 5.12820513,11.0897436 L43.5897436,11.0897436 C44.7435897,11.0897436 45.6410256,11.9871795 45.6410256,13.1410256 L45.6410256,27.0512821 C45.6410256,28.2051282 44.7435897,29.1025641 43.5897436,29.1025641 L43.5897436,26.7948718 C43.5897436,25.3846154 42.4358974,24.2307692 41.025641,24.2307692 L33.2692308,24.2307692 C31.8589744,24.2307692 30.7051282,25.3846154 30.7051282,26.7948718 L30.7051282,29.1025641 L18.0128205,29.1025641 L18.0128205,26.7948718 C18.0128205,25.3846154 16.8589744,24.2307692 15.4487179,24.2307692 L7.69230769,24.2307692 C6.28205128,24.2307692 5.12820513,25.3846154 5.12820513,26.7948718 L5.12820513,29.1025641 C4.03846154,29.1025641 3.07692308,28.2051282 3.07692308,27.0512821 Z M32.8205128,3.3974359 L32.8205128,8.01282051 L15.8974359,8.01282051 L15.8974359,3.3974359 L32.8205128,3.3974359 Z M40.5128205,33.974359 L33.7820513,33.974359 L33.7820513,27.3076923 L40.5128205,27.3076923 L40.5128205,33.974359 Z M8.20512821,27.3076923 L14.9358974,27.3076923 L14.9358974,33.974359 L8.20512821,33.974359 L8.20512821,27.3076923 Z" id="Shape"></path>
                    </g>
                </g>
            </g>
        </g>
    </g>
</svg>