<?xml version="1.0" encoding="UTF-8"?>
<svg width="199px" height="216px" viewBox="0 0 199 216" version="1.1" xmlns="http://www.w3.org/2000/svg" xmlns:xlink="http://www.w3.org/1999/xlink">
    <!-- Generator: Sketch 42 (36781) - http://www.bohemiancoding.com/sketch -->
    <title>Number_of_visitors_icon</title>
    <desc>Created with Sketch.</desc>
    <defs></defs>
    <g id="🖥-Desktop" stroke="none" stroke-width="1" fill="none" fill-rule="evenodd" opacity="0.303498641">
        <g id="2_6_1_D_WWF_Country_Kosovo" transform="translate(-903.000000, -684.000000)" stroke="#F0733D" fill-rule="nonzero">
            <g id="Tourism" transform="translate(150.000000, 620.000000)">
                <g id="Tourism-Numbers" transform="translate(617.000000, 2.000000)">
                    <g id="Number_of_visitors_icon" transform="translate(137.000000, 63.000000)">
                        <path d="M10.6586851,12.1321294 C7.30297458,12.1321294 4.58263369,9.41625971 4.58263369,6.06606469 C4.58263369,2.71586967 7.30297458,0 10.6586851,0 C14.0143957,0 16.7347365,2.71586967 16.7347365,6.06606469 C16.7347365,9.41625971 14.0143957,12.1321294 10.6586851,12.1321294 Z M15.0687224,14.0400046 L15.0687224,14.0400046 C18.5096053,14.0399782 21.3027817,16.817628 21.3162753,20.2528289 L21.3162753,32.9230769 C21.3133731,35.903458 19.1988889,38.465362 16.2692326,39.0380615 L16.2692326,52.8579266 C16.2692326,55.3975906 14.2070387,57.456395 11.6631936,57.456395 L9.65417662,57.456395 C7.11033153,57.456395 5.04813763,55.3975906 5.04813763,52.8579266 L5.04813763,39.0625214 C2.11848139,38.4898219 0.0039970944,35.9279179 0.00109491677,32.9475369 L0.00109491677,20.2772888 C0.00109491677,16.8325319 2.79821962,14.0400046 6.24864779,14.0400046 L15.0687224,14.0400046 Z M10.6586851,75.0675506 C7.30297458,75.0675506 4.58263369,72.3516809 4.58263369,69.0014859 C4.58263369,65.6512909 7.30297458,62.9354212 10.6586851,62.9354212 C14.0143957,62.9354212 16.7347365,65.6512909 16.7347365,69.0014859 C16.7347365,72.3516809 14.0143957,75.0675506 10.6586851,75.0675506 Z M15.0687224,76.9509658 L15.0687224,76.9509658 C16.7256765,76.9509658 18.314766,77.6081064 19.4864095,78.7778241 C20.6580529,79.9475418 21.3162753,81.5340194 21.3162753,83.1882501 L21.3162753,95.8584981 C21.3133731,98.8388792 19.1988889,101.400783 16.2692326,101.973483 L16.2692326,115.891188 C16.2692326,117.110777 15.7839549,118.280416 14.920155,119.142796 C14.0563552,120.005176 12.8847911,120.489656 11.6631936,120.489656 L9.65417662,120.489656 C7.11033153,120.489656 5.04813763,118.430852 5.04813763,115.891188 L5.04813763,102.095782 C2.07274843,101.514685 -0.0553021022,98.8847775 0.00109491677,95.8584981 L0.00109491677,83.1882501 C0.00109491677,79.7434931 2.79821962,76.9509658 6.24864779,76.9509658 L15.0687224,76.9509658 Z M10.6586851,138.002972 C7.30297458,138.002972 4.58263369,135.287102 4.58263369,131.936907 C4.58263369,128.586712 7.30297458,125.870842 10.6586851,125.870842 C14.0143957,125.870842 16.7347365,128.586712 16.7347365,131.936907 C16.7347365,135.287102 14.0143957,138.002972 10.6586851,138.002972 Z M15.0687224,139.886387 L15.0687224,139.886387 C18.5191506,139.886387 21.3162753,142.678914 21.3162753,146.123671 L21.3162753,158.793919 C21.3133731,161.7743 19.1988889,164.336204 16.2692326,164.908904 L16.2692326,178.704309 C16.2692326,181.243973 14.2070387,183.302777 11.6631936,183.302777 L9.65417662,183.302777 C7.11033153,183.302777 5.04813763,181.243973 5.04813763,178.704309 L5.04813763,164.908904 C2.11848139,164.336204 0.0039970944,161.7743 0.00109491677,158.793919 L0.00109491677,146.123671 C0.00109491677,142.678914 2.79821962,139.886387 6.24864779,139.886387 L15.0687224,139.886387 Z M35.7713977,42.804892 C32.4156871,42.804892 29.6953462,40.0890223 29.6953462,36.7388273 C29.6953462,33.3886323 32.4156871,30.6727626 35.7713977,30.6727626 C39.1271082,30.6727626 41.8474491,33.3886323 41.8474491,36.7388273 C41.8474491,40.0890223 39.1271082,42.804892 35.7713977,42.804892 Z M40.181435,44.6883072 C41.8468485,44.6687326 43.4511506,45.3138627 44.638022,46.4804125 C45.8248934,47.6469623 46.4960724,49.2383525 46.5024885,50.9011316 L46.5024885,63.5713796 C46.4995863,66.5517606 44.385102,69.1136646 41.4554458,69.6863642 L41.4554458,83.5062293 C41.4554458,86.0458933 39.3932519,88.1046977 36.8494068,88.1046977 L34.8403898,88.1046977 C33.5892627,88.1446032 32.3757525,87.6744174 31.4791418,86.802351 C30.5825312,85.9302845 30.0800529,84.7314561 30.0873496,83.4817693 L30.0873496,69.6863642 C27.1576933,69.1136646 25.043209,66.5517606 25.0403068,63.5713796 L25.0403068,50.9011316 C25.0467229,49.2383525 25.7179019,47.6469623 26.9047733,46.4804125 C28.0916447,45.3138627 29.6959468,44.6687326 31.3613603,44.6883072 L40.181435,44.6883072 Z M35.7713977,105.740313 C32.4156871,105.740313 29.6953462,103.024444 29.6953462,99.6742485 C29.6953462,96.3240535 32.4156871,93.6081838 35.7713977,93.6081838 C39.1271082,93.6081838 41.8474491,96.3240535 41.8474491,99.6742485 C41.8474491,103.024444 39.1271082,105.740313 35.7713977,105.740313 Z M40.181435,107.623728 L40.181435,107.623728 C43.6127538,107.637136 46.3910577,110.410874 46.4044877,113.836553 L46.4044877,126.555721 C46.3879927,129.487725 44.3281984,132.012425 41.4554458,132.621785 L41.4554458,146.417191 C41.4554458,148.956855 39.3932519,151.015659 36.8494068,151.015659 L34.8403898,151.015659 C33.6019833,151.055201 32.399845,150.594957 31.5054649,149.738868 C30.6110848,148.882779 30.0998976,147.70305 30.0873496,146.46611 L30.0873496,132.670705 C27.1576933,132.098006 25.043209,129.536102 25.0403068,126.555721 L25.0403068,113.836553 C25.0467229,112.173774 25.7179019,110.582383 26.9047733,109.415834 C28.0916447,108.249284 29.6959468,107.604154 31.3613603,107.623728 L40.181435,107.623728 Z M35.7713977,168.651274 C32.4156871,168.651274 29.6953462,165.935405 29.6953462,162.58521 C29.6953462,159.235015 32.4156871,156.519145 35.7713977,156.519145 C39.1271082,156.519145 41.8474491,159.235015 41.8474491,162.58521 C41.8474491,165.935405 39.1271082,168.651274 35.7713977,168.651274 Z M40.181435,170.58361 C41.8426271,170.564047 43.4432166,171.205832 44.6293761,172.367092 C45.8155355,173.528352 46.4895742,175.113447 46.5024885,176.771974 L46.5024885,189.442222 C46.4995863,192.422603 44.385102,194.984507 41.4554458,195.557207 L41.4554458,209.352612 C41.4554458,211.892276 39.3932519,213.95108 36.8494068,213.95108 L34.8403898,213.95108 C33.5935262,213.990829 32.3838381,213.523953 31.4879784,212.657228 C30.5921186,211.790502 30.0867141,210.59806 30.0873496,209.352612 L30.0873496,195.557207 C27.1576933,194.984507 25.043209,192.422603 25.0403068,189.442222 L25.0403068,176.771974 C25.0532211,175.113447 25.7272598,173.528352 26.9134192,172.367092 C28.0995787,171.205832 29.7001683,170.564047 31.3613603,170.58361 L40.181435,170.58361 Z M60.8841102,12.1321294 C57.5283997,12.1321294 54.8080588,9.41625971 54.8080588,6.06606469 C54.8080588,2.71586967 57.5283997,0 60.8841102,0 C64.2398208,0 66.9601616,2.71586967 66.9601616,6.06606469 C66.9601616,9.41625971 64.2398208,12.1321294 60.8841102,12.1321294 Z M65.2941475,14.0400046 L65.2941475,14.0400046 C66.9553374,14.0269841 68.5533203,14.6750152 69.734871,15.8408542 C70.9164218,17.0066931 71.5842374,18.5943309 71.5907008,20.2528289 L71.5907008,32.9230769 C71.5746641,35.9495252 69.3847262,38.5277544 66.3966569,39.0380615 L66.3966569,52.8579266 C66.3966569,55.3975906 64.334463,57.456395 61.7906179,57.456395 L59.8796017,57.456395 C58.6580042,57.456395 57.4864402,56.9719149 56.6226403,56.1095348 C55.7588404,55.2471547 55.2735627,54.0775163 55.2735627,52.8579266 L55.2735627,39.0625214 C52.3439065,38.4898219 50.2294222,35.9279179 50.22652,32.9475369 L50.22652,20.2772888 C50.22652,16.8325319 53.0236447,14.0400046 56.4740729,14.0400046 L65.2941475,14.0400046 Z M60.8841102,75.0675506 C57.5283997,75.0675506 54.8080588,72.3516809 54.8080588,69.0014859 C54.8080588,65.6512909 57.5283997,62.9354212 60.8841102,62.9354212 C64.2398208,62.9354212 66.9601616,65.6512909 66.9601616,69.0014859 C66.9601616,72.3516809 64.2398208,75.0675506 60.8841102,75.0675506 Z M65.2941475,76.9509658 L65.2941475,76.9509658 C66.9595753,76.9379247 68.5612821,77.5893036 69.7435448,78.7604378 C70.9258075,79.931572 71.5907521,81.5255085 71.5907008,83.1882501 L71.5907008,95.8584981 C71.5746641,98.8849463 69.3847262,101.463176 66.3966569,101.973483 L66.3966569,115.891188 C66.3966569,117.110777 65.9113792,118.280416 65.0475793,119.142796 C64.1837794,120.005176 63.0122154,120.489656 61.7906179,120.489656 L59.8796017,120.489656 C57.3357566,120.489656 55.2735627,118.430852 55.2735627,115.891188 L55.2735627,102.095782 C52.2981735,101.514685 50.170123,98.8847775 50.22652,95.8584981 L50.22652,83.1882501 C50.22652,79.7434931 53.0236447,76.9509658 56.4740729,76.9509658 L65.2941475,76.9509658 Z M60.8841102,138.002972 C57.5283997,138.002972 54.8080588,135.287102 54.8080588,131.936907 C54.8080588,128.586712 57.5283997,125.870842 60.8841102,125.870842 C64.2398208,125.870842 66.9601616,128.586712 66.9601616,131.936907 C66.9601616,135.287102 64.2398208,138.002972 60.8841102,138.002972 Z M65.2941475,139.886387 L65.2941475,139.886387 C66.9595753,139.873346 68.5612821,140.524725 69.7435448,141.695859 C70.9258075,142.866993 71.5907521,144.46093 71.5907008,146.123671 L71.5907008,158.793919 C71.5746641,161.820368 69.3847262,164.398597 66.3966569,164.908904 L66.3966569,178.704309 C66.3966569,181.243973 64.334463,183.302777 61.7906179,183.302777 L59.8796017,183.302777 C58.6580042,183.302777 57.4864402,182.818297 56.6226403,181.955917 C55.7588404,181.093537 55.2735627,179.923899 55.2735627,178.704309 L55.2735627,164.908904 C52.3439065,164.336204 50.2294222,161.7743 50.22652,158.793919 L50.22652,146.123671 C50.22652,142.678914 53.0236447,139.886387 56.4740729,139.886387 L65.2941475,139.886387 Z M85.9968228,42.804892 C82.6411122,42.804892 79.9207713,40.0890223 79.9207713,36.7388273 C79.9207713,33.3886323 82.6411122,30.6727626 85.9968228,30.6727626 C89.3525333,30.6727626 92.0728742,33.3886323 92.0728742,36.7388273 C92.0728742,40.0890223 89.3525333,42.804892 85.9968228,42.804892 Z M90.4068601,44.6883072 C93.8477429,44.6882808 96.6409193,47.4659306 96.654413,50.9011316 L96.654413,63.5713796 C96.6515108,66.5517606 94.5370265,69.1136646 91.6073702,69.6863642 L91.6073702,83.5062293 C91.6073702,86.0458933 89.5451764,88.1046977 87.0013313,88.1046977 L84.9923143,88.1046977 C82.4484692,88.1046977 80.3862753,86.0458933 80.3862753,83.5062293 L80.3862753,69.7108241 C77.456619,69.1381246 75.3421347,66.5762206 75.3392326,63.5958395 L75.3392326,50.9255915 C75.3392326,47.4808345 78.1363573,44.6883072 81.5867854,44.6883072 L90.4068601,44.6883072 Z M85.9968228,105.740313 C82.6411122,105.740313 79.9207713,103.024444 79.9207713,99.6742485 C79.9207713,96.3240535 82.6411122,93.6081838 85.9968228,93.6081838 C89.3525333,93.6081838 92.0728742,96.3240535 92.0728742,99.6742485 C92.0728742,103.024444 89.3525333,105.740313 85.9968228,105.740313 Z M90.4068601,107.623728 L90.4068601,107.623728 C93.8381789,107.637136 96.6164828,110.410874 96.6299128,113.836553 L96.6299128,126.555721 C96.6037359,129.517674 94.4945462,132.052719 91.58287,132.621785 L91.58287,146.417191 C91.58287,148.956855 89.5206761,151.015659 86.9768311,151.015659 L84.9678141,151.015659 C82.4525348,151.002443 80.4129991,148.977149 80.3862753,146.46611 L80.3862753,132.670705 C77.456619,132.098006 75.3421347,129.536102 75.3392326,126.555721 L75.3392326,113.861013 C75.3392326,110.416256 78.1363573,107.623728 81.5867854,107.623728 L90.4068601,107.623728 Z M85.9968228,168.651274 C82.6411122,168.651274 79.9207713,165.935405 79.9207713,162.58521 C79.9207713,159.235015 82.6411122,156.519145 85.9968228,156.519145 C89.3525333,156.519145 92.0728742,159.235015 92.0728742,162.58521 C92.0728742,165.935405 89.3525333,168.651274 85.9968228,168.651274 Z M90.4068601,170.58361 C93.8382426,170.583504 96.6275002,173.346337 96.654413,176.771974 L96.654413,189.442222 C96.6515108,192.422603 94.5370265,194.984507 91.6073702,195.557207 L91.6073702,209.401532 C91.6073702,211.941196 89.5451764,214 87.0013313,214 L84.9923143,214 C82.4484692,214 80.3862753,211.941196 80.3862753,209.401532 L80.3862753,195.606126 C77.456619,195.033427 75.3421347,192.471523 75.3392326,189.491142 L75.3392326,176.820894 C75.3392326,173.376137 78.1363573,170.58361 81.5867854,170.58361 L90.4068601,170.58361 Z M111.109535,12.1321294 C107.753825,12.1321294 105.033484,9.41625971 105.033484,6.06606469 C105.033484,2.71586967 107.753825,0 111.109535,0 C114.465246,0 117.185587,2.71586967 117.185587,6.06606469 C117.185587,9.41625971 114.465246,12.1321294 111.109535,12.1321294 Z M115.519573,14.0400046 L115.519573,14.0400046 C118.960455,14.0399782 121.753632,16.817628 121.767126,20.2528289 L121.767126,32.9230769 C121.764223,35.903458 119.649739,38.465362 116.720083,39.0380615 L116.720083,52.8579266 C116.720083,55.3975906 114.657889,57.456395 112.114044,57.456395 L110.105027,57.456395 C107.561182,57.456395 105.498988,55.3975906 105.498988,52.8579266 L105.498988,39.0625214 C102.569332,38.4898219 100.454847,35.9279179 100.451945,32.9475369 L100.451945,20.2772888 C100.451945,16.8325319 103.24907,14.0400046 106.699498,14.0400046 L115.519573,14.0400046 Z M111.109535,75.0675506 C107.753825,75.0675506 105.033484,72.3516809 105.033484,69.0014859 C105.033484,65.6512909 107.753825,62.9354212 111.109535,62.9354212 C114.465246,62.9354212 117.185587,65.6512909 117.185587,69.0014859 C117.185587,72.3516809 114.465246,75.0675506 111.109535,75.0675506 Z M115.519573,76.9509658 C117.176527,76.9509658 118.765616,77.6081064 119.93726,78.7778241 C121.108903,79.9475418 121.767126,81.5340194 121.767126,83.1882501 L121.767126,95.8584981 C121.764223,98.8388792 119.649739,101.400783 116.720083,101.973483 L116.720083,115.891188 C116.720083,117.110777 116.234805,118.280416 115.371005,119.142796 C114.507205,120.005176 113.335641,120.489656 112.114044,120.489656 L110.105027,120.489656 C107.561182,120.489656 105.498988,118.430852 105.498988,115.891188 L105.498988,102.095782 C102.523599,101.514685 100.395548,98.8847775 100.451945,95.8584981 L100.451945,83.1882501 C100.451945,79.7434931 103.24907,76.9509658 106.699498,76.9509658 L115.519573,76.9509658 Z M111.109535,138.002972 C107.753825,138.002972 105.033484,135.287102 105.033484,131.936907 C105.033484,128.586712 107.753825,125.870842 111.109535,125.870842 C114.465246,125.870842 117.185587,128.586712 117.185587,131.936907 C117.185587,135.287102 114.465246,138.002972 111.109535,138.002972 Z M115.519573,139.886387 C118.970001,139.886387 121.767126,142.678914 121.767126,146.123671 L121.767126,158.793919 C121.764223,161.7743 119.649739,164.336204 116.720083,164.908904 L116.720083,178.704309 C116.720083,181.243973 114.657889,183.302777 112.114044,183.302777 L110.105027,183.302777 C107.561182,183.302777 105.498988,181.243973 105.498988,178.704309 L105.498988,164.908904 C102.569332,164.336204 100.454847,161.7743 100.451945,158.793919 L100.451945,146.123671 C100.451945,142.678914 103.24907,139.886387 106.699498,139.886387 L115.519573,139.886387 Z M136.222248,42.804892 C132.866537,42.804892 130.146196,40.0890223 130.146196,36.7388273 C130.146196,33.3886323 132.866537,30.6727626 136.222248,30.6727626 C139.577958,30.6727626 142.298299,33.3886323 142.298299,36.7388273 C142.298299,40.0890223 139.577958,42.804892 136.222248,42.804892 Z M140.632285,44.6883072 C142.297699,44.6687326 143.902001,45.3138627 145.088872,46.4804125 C146.275744,47.6469623 146.946923,49.2383525 146.953339,50.9011316 L146.953339,63.5713796 C146.950437,66.5517606 144.835952,69.1136646 141.906296,69.6863642 L141.906296,83.5062293 C141.906296,86.0458933 139.844102,88.1046977 137.300257,88.1046977 L135.29124,88.1046977 C134.040113,88.1446032 132.826603,87.6744174 131.929992,86.802351 C131.033381,85.9302845 130.530903,84.7314561 130.5382,83.4817693 L130.5382,69.6863642 C127.608544,69.1136646 125.494059,66.5517606 125.491157,63.5713796 L125.491157,50.9011316 C125.497573,49.2383525 126.168752,47.6469623 127.355623,46.4804125 C128.542495,45.3138627 130.146797,44.6687326 131.812211,44.6883072 L140.632285,44.6883072 Z M136.222248,105.740313 C132.866537,105.740313 130.146196,103.024444 130.146196,99.6742485 C130.146196,96.3240535 132.866537,93.6081838 136.222248,93.6081838 C139.577958,93.6081838 142.298299,96.3240535 142.298299,99.6742485 C142.298299,103.024444 139.577958,105.740313 136.222248,105.740313 Z M140.632285,107.623728 C144.063604,107.637136 146.841908,110.410874 146.855338,113.836553 L146.855338,126.555721 C146.838843,129.487725 144.779049,132.012425 141.906296,132.621785 L141.906296,146.417191 C141.906296,148.956855 139.844102,151.015659 137.300257,151.015659 L135.29124,151.015659 C134.052833,151.055201 132.850695,150.594957 131.956315,149.738868 C131.061935,148.882779 130.550748,147.70305 130.5382,146.46611 L130.5382,132.670705 C127.608544,132.098006 125.494059,129.536102 125.491157,126.555721 L125.491157,113.836553 C125.497573,112.173774 126.168752,110.582383 127.355623,109.415834 C128.542495,108.249284 130.146797,107.604154 131.812211,107.623728 L140.632285,107.623728 Z M136.222248,168.651274 C132.866537,168.651274 130.146196,165.935405 130.146196,162.58521 C130.146196,159.235015 132.866537,156.519145 136.222248,156.519145 C139.577958,156.519145 142.298299,159.235015 142.298299,162.58521 C142.298299,165.935405 139.577958,168.651274 136.222248,168.651274 Z M140.632285,170.58361 C142.293477,170.564047 143.894067,171.205832 145.080226,172.367092 C146.266386,173.528352 146.940424,175.113447 146.953339,176.771974 L146.953339,189.442222 C146.950437,192.422603 144.835952,194.984507 141.906296,195.557207 L141.906296,209.352612 C141.906296,211.892276 139.844102,213.95108 137.300257,213.95108 L135.29124,213.95108 C134.044376,213.990829 132.834688,213.523953 131.938829,212.657228 C131.042969,211.790502 130.537564,210.59806 130.5382,209.352612 L130.5382,195.557207 C127.608544,194.984507 125.494059,192.422603 125.491157,189.442222 L125.491157,176.771974 C125.504071,175.113447 126.17811,173.528352 127.364269,172.367092 C128.550429,171.205832 130.151018,170.564047 131.812211,170.58361 L140.632285,170.58361 Z M161.33496,12.1321294 C157.97925,12.1321294 155.258909,9.41625971 155.258909,6.06606469 C155.258909,2.71586967 157.97925,0 161.33496,0 C164.690671,0 167.411012,2.71586967 167.411012,6.06606469 C167.411012,9.41625971 164.690671,12.1321294 161.33496,12.1321294 Z M165.744998,14.0400046 L165.744998,14.0400046 C167.406188,14.0269841 169.00417,14.6750152 170.185721,15.8408542 C171.367272,17.0066931 172.035088,18.5943309 172.041551,20.2528289 L172.041551,32.9230769 C172.025514,35.9495252 169.835576,38.5277544 166.847507,39.0380615 L166.847507,52.8579266 C166.847507,55.3975906 164.785313,57.456395 162.241468,57.456395 L160.330452,57.456395 C157.786607,57.456395 155.724413,55.3975906 155.724413,52.8579266 L155.724413,39.0625214 C152.794757,38.4898219 150.680272,35.9279179 150.67737,32.9475369 L150.67737,20.2772888 C150.67737,16.8325319 153.474495,14.0400046 156.924923,14.0400046 L165.744998,14.0400046 Z M161.33496,75.0675506 C157.97925,75.0675506 155.258909,72.3516809 155.258909,69.0014859 C155.258909,65.6512909 157.97925,62.9354212 161.33496,62.9354212 C164.690671,62.9354212 167.411012,65.6512909 167.411012,69.0014859 C167.411012,72.3516809 164.690671,75.0675506 161.33496,75.0675506 Z M165.744998,76.9509658 L165.744998,76.9509658 C167.410425,76.9379247 169.012132,77.5893036 170.194395,78.7604378 C171.376658,79.931572 172.041602,81.5255085 172.041551,83.1882501 L172.041551,95.8584981 C172.025514,98.8849463 169.835576,101.463176 166.847507,101.973483 L166.847507,115.891188 C166.847507,118.430852 164.785313,120.489656 162.241468,120.489656 L160.330452,120.489656 C159.108854,120.489656 157.93729,120.005176 157.073491,119.142796 C156.209691,118.280416 155.724413,117.110777 155.724413,115.891188 L155.724413,102.095782 C152.749024,101.514685 150.620973,98.8847775 150.67737,95.8584981 L150.67737,83.1882501 C150.67737,79.7434931 153.474495,76.9509658 156.924923,76.9509658 L165.744998,76.9509658 Z M161.33496,138.002972 C157.97925,138.002972 155.258909,135.287102 155.258909,131.936907 C155.258909,128.586712 157.97925,125.870842 161.33496,125.870842 C164.690671,125.870842 167.411012,128.586712 167.411012,131.936907 C167.411012,135.287102 164.690671,138.002972 161.33496,138.002972 Z M165.744998,139.886387 C167.410425,139.873346 169.012132,140.524725 170.194395,141.695859 C171.376658,142.866993 172.041602,144.46093 172.041551,146.123671 L172.041551,158.793919 C172.025514,161.820368 169.835576,164.398597 166.847507,164.908904 L166.847507,178.704309 C166.847507,181.243973 164.785313,183.302777 162.241468,183.302777 L160.330452,183.302777 C157.786607,183.302777 155.724413,181.243973 155.724413,178.704309 L155.724413,164.908904 C152.794757,164.336204 150.680272,161.7743 150.67737,158.793919 L150.67737,146.123671 C150.67737,142.678914 153.474495,139.886387 156.924923,139.886387 L165.744998,139.886387 Z M186.447673,42.804892 C183.091962,42.804892 180.371622,40.0890223 180.371622,36.7388273 C180.371622,33.3886323 183.091962,30.6727626 186.447673,30.6727626 C189.803383,30.6727626 192.523724,33.3886323 192.523724,36.7388273 C192.523724,40.0890223 189.803383,42.804892 186.447673,42.804892 Z M190.85771,44.6883072 C194.298593,44.6882808 197.091769,47.4659306 197.105263,50.9011316 L197.105263,63.5713796 C197.102361,66.5517606 194.987877,69.1136646 192.05822,69.6863642 L192.05822,83.5062293 C192.05822,86.0458933 189.996027,88.1046977 187.452181,88.1046977 L185.443164,88.1046977 C182.899319,88.1046977 180.837125,86.0458933 180.837125,83.5062293 L180.837125,69.7108241 C177.907469,69.1381246 175.792985,66.5762206 175.790083,63.5958395 L175.790083,50.9255915 C175.790083,47.4808345 178.587207,44.6883072 182.037636,44.6883072 L190.85771,44.6883072 Z M186.447673,105.740313 C183.091962,105.740313 180.371622,103.024444 180.371622,99.6742485 C180.371622,96.3240535 183.091962,93.6081838 186.447673,93.6081838 C189.803383,93.6081838 192.523724,96.3240535 192.523724,99.6742485 C192.523724,103.024444 189.803383,105.740313 186.447673,105.740313 Z M190.85771,107.623728 C194.289029,107.637136 197.067333,110.410874 197.080763,113.836553 L197.080763,126.555721 C197.054586,129.517674 194.945396,132.052719 192.03372,132.621785 L192.03372,146.417191 C192.03372,148.956855 189.971526,151.015659 187.427681,151.015659 L185.418664,151.015659 C182.903385,151.002443 180.863849,148.977149 180.837125,146.46611 L180.837125,132.670705 C177.907469,132.098006 175.792985,129.536102 175.790083,126.555721 L175.790083,113.861013 C175.790083,110.416256 178.587207,107.623728 182.037636,107.623728 L190.85771,107.623728 Z M186.447673,168.651274 C183.091962,168.651274 180.371622,165.935405 180.371622,162.58521 C180.371622,159.235015 183.091962,156.519145 186.447673,156.519145 C189.803383,156.519145 192.523724,159.235015 192.523724,162.58521 C192.523724,165.935405 189.803383,168.651274 186.447673,168.651274 Z M190.85771,170.58361 C194.289093,170.583504 197.07835,173.346337 197.105263,176.771974 L197.105263,189.442222 C197.102361,192.422603 194.987877,194.984507 192.05822,195.557207 L192.05822,209.401532 C192.05822,211.941196 189.996027,214 187.452181,214 L185.443164,214 C182.899319,214 180.837125,211.941196 180.837125,209.401532 L180.837125,195.606126 C177.907469,195.033427 175.792985,192.471523 175.790083,189.491142 L175.790083,176.820894 C175.790083,173.376137 178.587207,170.58361 182.037636,170.58361 L190.85771,170.58361 Z" id="Combined-Shape"></path>
                    </g>
                </g>
            </g>
        </g>
    </g>
</svg>