<?xml version="1.0" encoding="utf-8"?>
<!-- Generator: Adobe Illustrator 21.0.0, SVG Export Plug-In . SVG Version: 6.00 Build 0)  -->
<svg version="1.1" id="Layer_1" xmlns="http://www.w3.org/2000/svg" xmlns:xlink="http://www.w3.org/1999/xlink" x="0px" y="0px"
	 viewBox="0 0 199 216" style="enable-background:new 0 0 199 216;" xml:space="preserve">
<style type="text/css">
	.st0{fill:none;stroke:#000000;stroke-miterlimit:10;}
</style>
<title>Number_of_visitors_icon</title>
<desc>Created with Sketch.</desc>
<g id="_xD83D__xDDA5_-Desktop">
	<g id="_x32__x5F_6_x5F_1_x5F_D_x5F_WWF_x5F_Country_x5F_Kosovo" transform="translate(-903.000000, -684.000000)">
		<g id="Tourism" transform="translate(150.000000, 620.000000)">
			<g id="Tourism-Numbers" transform="translate(617.000000, 2.000000)">
				<g id="Number_of_visitors_icon" transform="translate(137.000000, 63.000000)">
					<path id="Combined-Shape" class="st0" d="M10.7,12.1c-3.4,0-6.1-2.7-6.1-6.1S7.3,0,10.7,0s6.1,2.7,6.1,6.1S14,12.1,10.7,12.1z
						 M15.1,14L15.1,14c3.4,0,6.2,2.8,6.2,6.2v12.7c0,3-2.1,5.5-5,6.1v13.8c0,2.5-2.1,4.6-4.6,4.6h-2c-2.5,0-4.6-2.1-4.6-4.6V39.1
						c-2.9-0.6-5-3.1-5-6.1V20.3C0,16.8,2.8,14,6.2,14H15.1z M10.7,75.1c-3.4,0-6.1-2.7-6.1-6.1s2.7-6.1,6.1-6.1s6.1,2.7,6.1,6.1
						S14,75.1,10.7,75.1z M15.1,77L15.1,77c1.7,0,3.2,0.7,4.4,1.8c1.2,1.2,1.8,2.8,1.8,4.4v12.7c0,3-2.1,5.5-5,6.1v13.9
						c0,1.2-0.5,2.4-1.3,3.3c-0.9,0.9-2,1.3-3.3,1.3h-2c-2.5,0-4.6-2.1-4.6-4.6v-13.8c-3-0.6-5.1-3.2-5-6.2V83.2
						C0,79.7,2.8,77,6.2,77H15.1z M10.7,138c-3.4,0-6.1-2.7-6.1-6.1c0-3.4,2.7-6.1,6.1-6.1s6.1,2.7,6.1,6.1
						C16.7,135.3,14,138,10.7,138z M15.1,139.9L15.1,139.9c3.5,0,6.2,2.8,6.2,6.2v12.7c0,3-2.1,5.5-5,6.1v13.8
						c0,2.5-2.1,4.6-4.6,4.6h-2c-2.5,0-4.6-2.1-4.6-4.6v-13.8c-2.9-0.6-5-3.1-5-6.1v-12.7c0-3.4,2.8-6.2,6.2-6.2H15.1z M35.8,42.8
						c-3.4,0-6.1-2.7-6.1-6.1c0-3.4,2.7-6.1,6.1-6.1c3.4,0,6.1,2.7,6.1,6.1C41.8,40.1,39.1,42.8,35.8,42.8z M40.2,44.7
						c1.7,0,3.3,0.6,4.5,1.8c1.2,1.2,1.9,2.8,1.9,4.4v12.7c0,3-2.1,5.5-5,6.1v13.8c0,2.5-2.1,4.6-4.6,4.6h-2c-1.3,0-2.5-0.4-3.4-1.3
						c-0.9-0.9-1.4-2.1-1.4-3.3V69.7c-2.9-0.6-5-3.1-5-6.1V50.9c0-1.7,0.7-3.3,1.9-4.4c1.2-1.2,2.8-1.8,4.5-1.8H40.2z M35.8,105.7
						c-3.4,0-6.1-2.7-6.1-6.1s2.7-6.1,6.1-6.1c3.4,0,6.1,2.7,6.1,6.1S39.1,105.7,35.8,105.7z M40.2,107.6L40.2,107.6
						c3.4,0,6.2,2.8,6.2,6.2v12.7c0,2.9-2.1,5.5-4.9,6.1v13.8c0,2.5-2.1,4.6-4.6,4.6h-2c-1.2,0-2.4-0.4-3.3-1.3
						c-0.9-0.9-1.4-2-1.4-3.3v-13.8c-2.9-0.6-5-3.1-5-6.1v-12.7c0-1.7,0.7-3.3,1.9-4.4c1.2-1.2,2.8-1.8,4.5-1.8H40.2z M35.8,168.7
						c-3.4,0-6.1-2.7-6.1-6.1c0-3.4,2.7-6.1,6.1-6.1c3.4,0,6.1,2.7,6.1,6.1C41.8,165.9,39.1,168.7,35.8,168.7z M40.2,170.6
						c1.7,0,3.3,0.6,4.4,1.8c1.2,1.2,1.9,2.7,1.9,4.4v12.7c0,3-2.1,5.5-5,6.1v13.8c0,2.5-2.1,4.6-4.6,4.6h-2c-1.2,0-2.5-0.4-3.4-1.3
						c-0.9-0.9-1.4-2.1-1.4-3.3v-13.8c-2.9-0.6-5-3.1-5-6.1v-12.7c0-1.7,0.7-3.2,1.9-4.4c1.2-1.2,2.8-1.8,4.4-1.8H40.2z M60.9,12.1
						c-3.4,0-6.1-2.7-6.1-6.1S57.5,0,60.9,0C64.2,0,67,2.7,67,6.1S64.2,12.1,60.9,12.1z M65.3,14L65.3,14c1.7,0,3.3,0.6,4.4,1.8
						s1.8,2.8,1.9,4.4v12.7c0,3-2.2,5.6-5.2,6.1v13.8c0,2.5-2.1,4.6-4.6,4.6h-1.9c-1.2,0-2.4-0.5-3.3-1.3s-1.3-2-1.3-3.3V39.1
						c-2.9-0.6-5-3.1-5-6.1V20.3c0-3.4,2.8-6.2,6.2-6.2H65.3z M60.9,75.1c-3.4,0-6.1-2.7-6.1-6.1s2.7-6.1,6.1-6.1
						c3.4,0,6.1,2.7,6.1,6.1S64.2,75.1,60.9,75.1z M65.3,77L65.3,77c1.7,0,3.3,0.6,4.4,1.8c1.2,1.2,1.8,2.8,1.8,4.4v12.7
						c0,3-2.2,5.6-5.2,6.1v13.9c0,1.2-0.5,2.4-1.3,3.3c-0.9,0.9-2,1.3-3.3,1.3h-1.9c-2.5,0-4.6-2.1-4.6-4.6v-13.8
						c-3-0.6-5.1-3.2-5-6.2V83.2c0-3.4,2.8-6.2,6.2-6.2H65.3z M60.9,138c-3.4,0-6.1-2.7-6.1-6.1c0-3.4,2.7-6.1,6.1-6.1
						c3.4,0,6.1,2.7,6.1,6.1C67,135.3,64.2,138,60.9,138z M65.3,139.9L65.3,139.9c1.7,0,3.3,0.6,4.4,1.8c1.2,1.2,1.8,2.8,1.8,4.4
						v12.7c0,3-2.2,5.6-5.2,6.1v13.8c0,2.5-2.1,4.6-4.6,4.6h-1.9c-1.2,0-2.4-0.5-3.3-1.3s-1.3-2-1.3-3.3v-13.8c-2.9-0.6-5-3.1-5-6.1
						v-12.7c0-3.4,2.8-6.2,6.2-6.2H65.3z M86,42.8c-3.4,0-6.1-2.7-6.1-6.1c0-3.4,2.7-6.1,6.1-6.1c3.4,0,6.1,2.7,6.1,6.1
						C92.1,40.1,89.4,42.8,86,42.8z M90.4,44.7c3.4,0,6.2,2.8,6.2,6.2v12.7c0,3-2.1,5.5-5,6.1v13.8c0,2.5-2.1,4.6-4.6,4.6h-2
						c-2.5,0-4.6-2.1-4.6-4.6V69.7c-2.9-0.6-5-3.1-5-6.1V50.9c0-3.4,2.8-6.2,6.2-6.2H90.4z M86,105.7c-3.4,0-6.1-2.7-6.1-6.1
						s2.7-6.1,6.1-6.1c3.4,0,6.1,2.7,6.1,6.1S89.4,105.7,86,105.7z M90.4,107.6L90.4,107.6c3.4,0,6.2,2.8,6.2,6.2v12.7
						c0,3-2.1,5.5-5,6.1v13.8c0,2.5-2.1,4.6-4.6,4.6h-2c-2.5,0-4.6-2-4.6-4.5v-13.8c-2.9-0.6-5-3.1-5-6.1v-12.7
						c0-3.4,2.8-6.2,6.2-6.2H90.4z M86,168.7c-3.4,0-6.1-2.7-6.1-6.1c0-3.4,2.7-6.1,6.1-6.1c3.4,0,6.1,2.7,6.1,6.1
						C92.1,165.9,89.4,168.7,86,168.7z M90.4,170.6c3.4,0,6.2,2.8,6.2,6.2v12.7c0,3-2.1,5.5-5,6.1v13.8c0,2.5-2.1,4.6-4.6,4.6h-2
						c-2.5,0-4.6-2.1-4.6-4.6v-13.8c-2.9-0.6-5-3.1-5-6.1v-12.7c0-3.4,2.8-6.2,6.2-6.2H90.4z M111.1,12.1c-3.4,0-6.1-2.7-6.1-6.1
						s2.7-6.1,6.1-6.1s6.1,2.7,6.1,6.1S114.5,12.1,111.1,12.1z M115.5,14L115.5,14c3.4,0,6.2,2.8,6.2,6.2v12.7c0,3-2.1,5.5-5,6.1
						v13.8c0,2.5-2.1,4.6-4.6,4.6h-2c-2.5,0-4.6-2.1-4.6-4.6V39.1c-2.9-0.6-5-3.1-5-6.1V20.3c0-3.4,2.8-6.2,6.2-6.2H115.5z
						 M111.1,75.1c-3.4,0-6.1-2.7-6.1-6.1s2.7-6.1,6.1-6.1s6.1,2.7,6.1,6.1S114.5,75.1,111.1,75.1z M115.5,77c1.7,0,3.2,0.7,4.4,1.8
						c1.2,1.2,1.8,2.8,1.8,4.4v12.7c0,3-2.1,5.5-5,6.1v13.9c0,1.2-0.5,2.4-1.3,3.3c-0.9,0.9-2,1.3-3.3,1.3h-2
						c-2.5,0-4.6-2.1-4.6-4.6v-13.8c-3-0.6-5.1-3.2-5-6.2V83.2c0-3.4,2.8-6.2,6.2-6.2H115.5z M111.1,138c-3.4,0-6.1-2.7-6.1-6.1
						c0-3.4,2.7-6.1,6.1-6.1s6.1,2.7,6.1,6.1C117.2,135.3,114.5,138,111.1,138z M115.5,139.9c3.5,0,6.2,2.8,6.2,6.2v12.7
						c0,3-2.1,5.5-5,6.1v13.8c0,2.5-2.1,4.6-4.6,4.6h-2c-2.5,0-4.6-2.1-4.6-4.6v-13.8c-2.9-0.6-5-3.1-5-6.1v-12.7
						c0-3.4,2.8-6.2,6.2-6.2H115.5z M136.2,42.8c-3.4,0-6.1-2.7-6.1-6.1c0-3.4,2.7-6.1,6.1-6.1s6.1,2.7,6.1,6.1
						C142.3,40.1,139.6,42.8,136.2,42.8z M140.6,44.7c1.7,0,3.3,0.6,4.5,1.8c1.2,1.2,1.9,2.8,1.9,4.4v12.7c0,3-2.1,5.5-5,6.1v13.8
						c0,2.5-2.1,4.6-4.6,4.6h-2c-1.3,0-2.5-0.4-3.4-1.3c-0.9-0.9-1.4-2.1-1.4-3.3V69.7c-2.9-0.6-5-3.1-5-6.1V50.9
						c0-1.7,0.7-3.3,1.9-4.4c1.2-1.2,2.8-1.8,4.5-1.8H140.6z M136.2,105.7c-3.4,0-6.1-2.7-6.1-6.1s2.7-6.1,6.1-6.1s6.1,2.7,6.1,6.1
						S139.6,105.7,136.2,105.7z M140.6,107.6c3.4,0,6.2,2.8,6.2,6.2v12.7c0,2.9-2.1,5.5-4.9,6.1v13.8c0,2.5-2.1,4.6-4.6,4.6h-2
						c-1.2,0-2.4-0.4-3.3-1.3c-0.9-0.9-1.4-2-1.4-3.3v-13.8c-2.9-0.6-5-3.1-5-6.1v-12.7c0-1.7,0.7-3.3,1.9-4.4
						c1.2-1.2,2.8-1.8,4.5-1.8H140.6z M136.2,168.7c-3.4,0-6.1-2.7-6.1-6.1c0-3.4,2.7-6.1,6.1-6.1s6.1,2.7,6.1,6.1
						C142.3,165.9,139.6,168.7,136.2,168.7z M140.6,170.6c1.7,0,3.3,0.6,4.4,1.8c1.2,1.2,1.9,2.7,1.9,4.4v12.7c0,3-2.1,5.5-5,6.1
						v13.8c0,2.5-2.1,4.6-4.6,4.6h-2c-1.2,0-2.5-0.4-3.4-1.3s-1.4-2.1-1.4-3.3v-13.8c-2.9-0.6-5-3.1-5-6.1v-12.7
						c0-1.7,0.7-3.2,1.9-4.4c1.2-1.2,2.8-1.8,4.4-1.8H140.6z M161.3,12.1c-3.4,0-6.1-2.7-6.1-6.1S158,0,161.3,0s6.1,2.7,6.1,6.1
						S164.7,12.1,161.3,12.1z M165.7,14L165.7,14c1.7,0,3.3,0.6,4.4,1.8c1.2,1.2,1.8,2.8,1.9,4.4v12.7c0,3-2.2,5.6-5.2,6.1v13.8
						c0,2.5-2.1,4.6-4.6,4.6h-1.9c-2.5,0-4.6-2.1-4.6-4.6V39.1c-2.9-0.6-5-3.1-5-6.1V20.3c0-3.4,2.8-6.2,6.2-6.2H165.7z M161.3,75.1
						c-3.4,0-6.1-2.7-6.1-6.1s2.7-6.1,6.1-6.1s6.1,2.7,6.1,6.1S164.7,75.1,161.3,75.1z M165.7,77L165.7,77c1.7,0,3.3,0.6,4.4,1.8
						s1.8,2.8,1.8,4.4v12.7c0,3-2.2,5.6-5.2,6.1v13.9c0,2.5-2.1,4.6-4.6,4.6h-1.9c-1.2,0-2.4-0.5-3.3-1.3c-0.9-0.9-1.3-2-1.3-3.3
						v-13.8c-3-0.6-5.1-3.2-5-6.2V83.2c0-3.4,2.8-6.2,6.2-6.2H165.7z M161.3,138c-3.4,0-6.1-2.7-6.1-6.1c0-3.4,2.7-6.1,6.1-6.1
						s6.1,2.7,6.1,6.1C167.4,135.3,164.7,138,161.3,138z M165.7,139.9c1.7,0,3.3,0.6,4.4,1.8c1.2,1.2,1.8,2.8,1.8,4.4v12.7
						c0,3-2.2,5.6-5.2,6.1v13.8c0,2.5-2.1,4.6-4.6,4.6h-1.9c-2.5,0-4.6-2.1-4.6-4.6v-13.8c-2.9-0.6-5-3.1-5-6.1v-12.7
						c0-3.4,2.8-6.2,6.2-6.2H165.7z M186.4,42.8c-3.4,0-6.1-2.7-6.1-6.1c0-3.4,2.7-6.1,6.1-6.1s6.1,2.7,6.1,6.1
						C192.5,40.1,189.8,42.8,186.4,42.8z M190.9,44.7c3.4,0,6.2,2.8,6.2,6.2v12.7c0,3-2.1,5.5-5,6.1v13.8c0,2.5-2.1,4.6-4.6,4.6h-2
						c-2.5,0-4.6-2.1-4.6-4.6V69.7c-2.9-0.6-5-3.1-5-6.1V50.9c0-3.4,2.8-6.2,6.2-6.2H190.9z M186.4,105.7c-3.4,0-6.1-2.7-6.1-6.1
						s2.7-6.1,6.1-6.1s6.1,2.7,6.1,6.1S189.8,105.7,186.4,105.7z M190.9,107.6c3.4,0,6.2,2.8,6.2,6.2v12.7c0,3-2.1,5.5-5,6.1v13.8
						c0,2.5-2.1,4.6-4.6,4.6h-2c-2.5,0-4.6-2-4.6-4.5v-13.8c-2.9-0.6-5-3.1-5-6.1v-12.7c0-3.4,2.8-6.2,6.2-6.2H190.9z M186.4,168.7
						c-3.4,0-6.1-2.7-6.1-6.1c0-3.4,2.7-6.1,6.1-6.1s6.1,2.7,6.1,6.1C192.5,165.9,189.8,168.7,186.4,168.7z M190.9,170.6
						c3.4,0,6.2,2.8,6.2,6.2v12.7c0,3-2.1,5.5-5,6.1v13.8c0,2.5-2.1,4.6-4.6,4.6h-2c-2.5,0-4.6-2.1-4.6-4.6v-13.8
						c-2.9-0.6-5-3.1-5-6.1v-12.7c0-3.4,2.8-6.2,6.2-6.2H190.9z"/>
				</g>
			</g>
		</g>
	</g>
</g>
</svg>
