<?xml version="1.0" encoding="utf-8"?>
<!-- Generator: Adobe Illustrator 21.0.0, SVG Export Plug-In . SVG Version: 6.00 Build 0)  -->
<svg version="1.1" xmlns="http://www.w3.org/2000/svg" xmlns:xlink="http://www.w3.org/1999/xlink" x="0px" y="0px"
	 viewBox="0 0 216 216" style="enable-background:new 0 0 216 216;" xml:space="preserve">
<style type="text/css">
	.st0{display:none;}
	.st1{display:inline;}
	.st2{display:inline;opacity:0.47;}
	.st3{display:inline;}
	.st4{fill:none;stroke-miterlimit:10;}
	path{stroke:#f7f7f7;}
</style>
<g id="Layer_5" class="st0">
	<rect class="st1" width="200" height="200"/>
	<rect x="16" y="16" class="st2" width="200" height="200"/>
</g>
<g id="Layer_1" class="st0">
	<title>Number_of_visitors_icon</title>
	<desc>Created with Sketch.</desc>
	<g id="_xD83D__xDDA5_-Desktop" class="st3">
		<g id="_x32__x5F_6_x5F_1_x5F_D_x5F_WWF_x5F_Country_x5F_Kosovo" transform="translate(-903.000000, -684.000000)">
			<g id="Tourism" transform="translate(150.000000, 620.000000)">
				<g id="Tourism-Numbers" transform="translate(617.000000, 2.000000)">
					<g id="Number_of_visitors_icon" transform="translate(137.000000, 63.000000)">
						<path id="Combined-Shape" class="st4" d="M10.7,12.1c-3.4,0-6.1-2.7-6.1-6.1s2.7-6,6.1-6s6.1,2.7,6.1,6.1S14,12.1,10.7,12.1z
							 M15.1,14L15.1,14c3.4,0,6.2,2.8,6.2,6.2v12.7c0,3-2.1,5.5-5,6.1v13.8c0,2.5-2.1,4.6-4.6,4.6h-2c-2.5,0-4.6-2.1-4.6-4.6V39.1
							c-2.9-0.6-5-3.1-5-6.1V20.3C0,16.8,2.8,14,6.2,14H15.1z M10.7,75.1c-3.4,0-6.1-2.7-6.1-6.1s2.7-6.1,6.1-6.1s6.1,2.7,6.1,6.1
							S14,75.1,10.7,75.1z M15.1,77L15.1,77c1.7,0,3.2,0.7,4.4,1.8c1.2,1.2,1.8,2.8,1.8,4.4v12.7c0,3-2.1,5.5-5,6.1v13.9
							c0,1.2-0.5,2.4-1.3,3.3c-0.9,0.9-2,1.3-3.3,1.3h-2c-2.5,0-4.6-2.1-4.6-4.6v-13.8c-3-0.6-5.1-3.2-5-6.2V83.2
							C0,79.7,2.8,77,6.2,77H15.1z M10.7,138c-3.4,0-6.1-2.7-6.1-6.1c0-3.4,2.7-6.1,6.1-6.1s6.1,2.7,6.1,6.1
							C16.7,135.3,14,138,10.7,138z M15.1,139.9L15.1,139.9c3.5,0,6.2,2.8,6.2,6.2v12.7c0,3-2.1,5.5-5,6.1v13.8
							c0,2.5-2.1,4.6-4.6,4.6h-2c-2.5,0-4.6-2.1-4.6-4.6v-13.8c-2.9-0.6-5-3.1-5-6.1v-12.7c0-3.4,2.8-6.2,6.2-6.2H15.1z M35.8,42.8
							c-3.4,0-6.1-2.7-6.1-6.1c0-3.4,2.7-6.1,6.1-6.1s6.1,2.7,6.1,6.1C41.8,40.1,39.1,42.8,35.8,42.8z M40.2,44.7
							c1.7,0,3.3,0.6,4.5,1.8s1.9,2.8,1.9,4.4v12.7c0,3-2.1,5.5-5,6.1v13.8c0,2.5-2.1,4.6-4.6,4.6h-2c-1.3,0-2.5-0.4-3.4-1.3
							s-1.4-2.1-1.4-3.3V69.7c-2.9-0.6-5-3.1-5-6.1V50.9c0-1.7,0.7-3.3,1.9-4.4c1.2-1.2,2.8-1.8,4.5-1.8H40.2z M35.8,105.7
							c-3.4,0-6.1-2.7-6.1-6.1s2.7-6.1,6.1-6.1s6.1,2.7,6.1,6.1S39.1,105.7,35.8,105.7z M40.2,107.6L40.2,107.6
							c3.4,0,6.2,2.8,6.2,6.2v12.7c0,2.9-2.1,5.5-4.9,6.1v13.8c0,2.5-2.1,4.6-4.6,4.6h-2c-1.2,0-2.4-0.4-3.3-1.3
							c-0.9-0.9-1.4-2-1.4-3.3v-13.8c-2.9-0.6-5-3.1-5-6.1v-12.7c0-1.7,0.7-3.3,1.9-4.4c1.2-1.2,2.8-1.8,4.5-1.8
							C31.6,107.6,40.2,107.6,40.2,107.6z M35.8,168.7c-3.4,0-6.1-2.7-6.1-6.1c0-3.4,2.7-6.1,6.1-6.1s6.1,2.7,6.1,6.1
							C41.8,165.9,39.1,168.7,35.8,168.7z M40.2,170.6c1.7,0,3.3,0.6,4.4,1.8c1.2,1.2,1.9,2.7,1.9,4.4v12.7c0,3-2.1,5.5-5,6.1v13.8
							c0,2.5-2.1,4.6-4.6,4.6h-2c-1.2,0-2.5-0.4-3.4-1.3c-0.9-0.9-1.4-2.1-1.4-3.3v-13.8c-2.9-0.6-5-3.1-5-6.1v-12.7
							c0-1.7,0.7-3.2,1.9-4.4c1.2-1.2,2.8-1.8,4.4-1.8H40.2z M60.9,12.1c-3.4,0-6.1-2.7-6.1-6.1s2.7-6,6.1-6C64.2,0,67,2.7,67,6.1
							S64.2,12.1,60.9,12.1z M65.3,14L65.3,14c1.7,0,3.3,0.6,4.4,1.8s1.8,2.8,1.9,4.4v12.7c0,3-2.2,5.6-5.2,6.1v13.8
							c0,2.5-2.1,4.6-4.6,4.6h-1.9c-1.2,0-2.4-0.5-3.3-1.3s-1.3-2-1.3-3.3V39.1c-2.9-0.6-5-3.1-5-6.1V20.3c0-3.4,2.8-6.2,6.2-6.2
							L65.3,14L65.3,14z M60.9,75.1c-3.4,0-6.1-2.7-6.1-6.1s2.7-6.1,6.1-6.1c3.4,0,6.1,2.7,6.1,6.1S64.2,75.1,60.9,75.1z M65.3,77
							L65.3,77c1.7,0,3.3,0.6,4.4,1.8c1.2,1.2,1.8,2.8,1.8,4.4v12.7c0,3-2.2,5.6-5.2,6.1v13.9c0,1.2-0.5,2.4-1.3,3.3
							c-0.9,0.9-2,1.3-3.3,1.3h-1.9c-2.5,0-4.6-2.1-4.6-4.6v-13.8c-3-0.6-5.1-3.2-5-6.2V83.2c0-3.4,2.8-6.2,6.2-6.2H65.3z M60.9,138
							c-3.4,0-6.1-2.7-6.1-6.1c0-3.4,2.7-6.1,6.1-6.1c3.4,0,6.1,2.7,6.1,6.1C67,135.3,64.2,138,60.9,138z M65.3,139.9L65.3,139.9
							c1.7,0,3.3,0.6,4.4,1.8c1.2,1.2,1.8,2.8,1.8,4.4v12.7c0,3-2.2,5.6-5.2,6.1v13.8c0,2.5-2.1,4.6-4.6,4.6h-1.9
							c-1.2,0-2.4-0.5-3.3-1.3s-1.3-2-1.3-3.3v-13.8c-2.9-0.6-5-3.1-5-6.1v-12.7c0-3.4,2.8-6.2,6.2-6.2H65.3z M86,42.8
							c-3.4,0-6.1-2.7-6.1-6.1c0-3.4,2.7-6.1,6.1-6.1s6.1,2.7,6.1,6.1C92.1,40.1,89.4,42.8,86,42.8z M90.4,44.7
							c3.4,0,6.2,2.8,6.2,6.2v12.7c0,3-2.1,5.5-5,6.1v13.8c0,2.5-2.1,4.6-4.6,4.6h-2c-2.5,0-4.6-2.1-4.6-4.6V69.7
							c-2.9-0.6-5-3.1-5-6.1V50.9c0-3.4,2.8-6.2,6.2-6.2H90.4z M86,105.7c-3.4,0-6.1-2.7-6.1-6.1s2.7-6.1,6.1-6.1s6.1,2.7,6.1,6.1
							S89.4,105.7,86,105.7z M90.4,107.6L90.4,107.6c3.4,0,6.2,2.8,6.2,6.2v12.7c0,3-2.1,5.5-5,6.1v13.8c0,2.5-2.1,4.6-4.6,4.6h-2
							c-2.5,0-4.6-2-4.6-4.5v-13.8c-2.9-0.6-5-3.1-5-6.1v-12.7c0-3.4,2.8-6.2,6.2-6.2h8.8V107.6z M86,168.7c-3.4,0-6.1-2.7-6.1-6.1
							c0-3.4,2.7-6.1,6.1-6.1s6.1,2.7,6.1,6.1C92.1,165.9,89.4,168.7,86,168.7z M90.4,170.6c3.4,0,6.2,2.8,6.2,6.2v12.7
							c0,3-2.1,5.5-5,6.1v13.8c0,2.5-2.1,4.6-4.6,4.6h-2c-2.5,0-4.6-2.1-4.6-4.6v-13.8c-2.9-0.6-5-3.1-5-6.1v-12.7
							c0-3.4,2.8-6.2,6.2-6.2H90.4z M111.1,12.1c-3.4,0-6.1-2.7-6.1-6.1s2.7-6.1,6.1-6.1s6.1,2.7,6.1,6.1S114.5,12.1,111.1,12.1z
							 M115.5,14L115.5,14c3.4,0,6.2,2.8,6.2,6.2v12.7c0,3-2.1,5.5-5,6.1v13.8c0,2.5-2.1,4.6-4.6,4.6h-2c-2.5,0-4.6-2.1-4.6-4.6
							V39.1c-2.9-0.6-5-3.1-5-6.1V20.3c0-3.4,2.8-6.2,6.2-6.2L115.5,14L115.5,14z M111.1,75.1c-3.4,0-6.1-2.7-6.1-6.1
							s2.7-6.1,6.1-6.1s6.1,2.7,6.1,6.1S114.5,75.1,111.1,75.1z M115.5,77c1.7,0,3.2,0.7,4.4,1.8c1.2,1.2,1.8,2.8,1.8,4.4v12.7
							c0,3-2.1,5.5-5,6.1v13.9c0,1.2-0.5,2.4-1.3,3.3c-0.9,0.9-2,1.3-3.3,1.3h-2c-2.5,0-4.6-2.1-4.6-4.6v-13.8c-3-0.6-5.1-3.2-5-6.2
							V83.2c0-3.4,2.8-6.2,6.2-6.2H115.5z M111.1,138c-3.4,0-6.1-2.7-6.1-6.1c0-3.4,2.7-6.1,6.1-6.1s6.1,2.7,6.1,6.1
							C117.2,135.3,114.5,138,111.1,138z M115.5,139.9c3.5,0,6.2,2.8,6.2,6.2v12.7c0,3-2.1,5.5-5,6.1v13.8c0,2.5-2.1,4.6-4.6,4.6h-2
							c-2.5,0-4.6-2.1-4.6-4.6v-13.8c-2.9-0.6-5-3.1-5-6.1v-12.7c0-3.4,2.8-6.2,6.2-6.2H115.5z M136.2,42.8c-3.4,0-6.1-2.7-6.1-6.1
							c0-3.4,2.7-6.1,6.1-6.1s6.1,2.7,6.1,6.1C142.3,40.1,139.6,42.8,136.2,42.8z M140.6,44.7c1.7,0,3.3,0.6,4.5,1.8
							s1.9,2.8,1.9,4.4v12.7c0,3-2.1,5.5-5,6.1v13.8c0,2.5-2.1,4.6-4.6,4.6h-2c-1.3,0-2.5-0.4-3.4-1.3s-1.4-2.1-1.4-3.3V69.7
							c-2.9-0.6-5-3.1-5-6.1V50.9c0-1.7,0.7-3.3,1.9-4.4c1.2-1.2,2.8-1.8,4.5-1.8H140.6z M136.2,105.7c-3.4,0-6.1-2.7-6.1-6.1
							s2.7-6.1,6.1-6.1s6.1,2.7,6.1,6.1S139.6,105.7,136.2,105.7z M140.6,107.6c3.4,0,6.2,2.8,6.2,6.2v12.7c0,2.9-2.1,5.5-4.9,6.1
							v13.8c0,2.5-2.1,4.6-4.6,4.6h-2c-1.2,0-2.4-0.4-3.3-1.3c-0.9-0.9-1.4-2-1.4-3.3v-13.8c-2.9-0.6-5-3.1-5-6.1v-12.7
							c0-1.7,0.7-3.3,1.9-4.4c1.2-1.2,2.8-1.8,4.5-1.8C132,107.6,140.6,107.6,140.6,107.6z M136.2,168.7c-3.4,0-6.1-2.7-6.1-6.1
							c0-3.4,2.7-6.1,6.1-6.1s6.1,2.7,6.1,6.1C142.3,165.9,139.6,168.7,136.2,168.7z M140.6,170.6c1.7,0,3.3,0.6,4.4,1.8
							c1.2,1.2,1.9,2.7,1.9,4.4v12.7c0,3-2.1,5.5-5,6.1v13.8c0,2.5-2.1,4.6-4.6,4.6h-2c-1.2,0-2.5-0.4-3.4-1.3s-1.4-2.1-1.4-3.3
							v-13.8c-2.9-0.6-5-3.1-5-6.1v-12.7c0-1.7,0.7-3.2,1.9-4.4s2.8-1.8,4.4-1.8H140.6z M161.3,12.1c-3.4,0-6.1-2.7-6.1-6.1
							s2.8-6,6.1-6s6.1,2.7,6.1,6.1S164.7,12.1,161.3,12.1z M165.7,14L165.7,14c1.7,0,3.3,0.6,4.4,1.8c1.2,1.2,1.8,2.8,1.9,4.4v12.7
							c0,3-2.2,5.6-5.2,6.1v13.8c0,2.5-2.1,4.6-4.6,4.6h-1.9c-2.5,0-4.6-2.1-4.6-4.6V39.1c-2.9-0.6-5-3.1-5-6.1V20.3
							c0-3.4,2.8-6.2,6.2-6.2L165.7,14L165.7,14z M161.3,75.1c-3.4,0-6.1-2.7-6.1-6.1s2.7-6.1,6.1-6.1s6.1,2.7,6.1,6.1
							S164.7,75.1,161.3,75.1z M165.7,77L165.7,77c1.7,0,3.3,0.6,4.4,1.8s1.8,2.8,1.8,4.4v12.7c0,3-2.2,5.6-5.2,6.1v13.9
							c0,2.5-2.1,4.6-4.6,4.6h-1.9c-1.2,0-2.4-0.5-3.3-1.3c-0.9-0.9-1.3-2-1.3-3.3v-13.8c-3-0.6-5.1-3.2-5-6.2V83.2
							c0-3.4,2.8-6.2,6.2-6.2H165.7z M161.3,138c-3.4,0-6.1-2.7-6.1-6.1c0-3.4,2.7-6.1,6.1-6.1s6.1,2.7,6.1,6.1
							C167.4,135.3,164.7,138,161.3,138z M165.7,139.9c1.7,0,3.3,0.6,4.4,1.8c1.2,1.2,1.8,2.8,1.8,4.4v12.7c0,3-2.2,5.6-5.2,6.1
							v13.8c0,2.5-2.1,4.6-4.6,4.6h-1.9c-2.5,0-4.6-2.1-4.6-4.6v-13.8c-2.9-0.6-5-3.1-5-6.1v-12.7c0-3.4,2.8-6.2,6.2-6.2H165.7z
							 M186.4,42.8c-3.4,0-6.1-2.7-6.1-6.1c0-3.4,2.7-6.1,6.1-6.1s6.1,2.7,6.1,6.1C192.5,40.1,189.8,42.8,186.4,42.8z M190.9,44.7
							c3.4,0,6.2,2.8,6.2,6.2v12.7c0,3-2.1,5.5-5,6.1v13.8c0,2.5-2.1,4.6-4.6,4.6h-2c-2.5,0-4.6-2.1-4.6-4.6V69.7
							c-2.9-0.6-5-3.1-5-6.1V50.9c0-3.4,2.8-6.2,6.2-6.2H190.9z M186.4,105.7c-3.4,0-6.1-2.7-6.1-6.1s2.7-6.1,6.1-6.1
							s6.1,2.7,6.1,6.1S189.8,105.7,186.4,105.7z M190.9,107.6c3.4,0,6.2,2.8,6.2,6.2v12.7c0,3-2.1,5.5-5,6.1v13.8
							c0,2.5-2.1,4.6-4.6,4.6h-2c-2.5,0-4.6-2-4.6-4.5v-13.8c-2.9-0.6-5-3.1-5-6.1v-12.7c0-3.4,2.8-6.2,6.2-6.2h8.8V107.6z
							 M186.4,168.7c-3.4,0-6.1-2.7-6.1-6.1c0-3.4,2.7-6.1,6.1-6.1s6.1,2.7,6.1,6.1C192.5,165.9,189.8,168.7,186.4,168.7z
							 M190.9,170.6c3.4,0,6.2,2.8,6.2,6.2v12.7c0,3-2.1,5.5-5,6.1v13.8c0,2.5-2.1,4.6-4.6,4.6h-2c-2.5,0-4.6-2.1-4.6-4.6v-13.8
							c-2.9-0.6-5-3.1-5-6.1v-12.7c0-3.4,2.8-6.2,6.2-6.2H190.9z"/>
					</g>
				</g>
			</g>
		</g>
	</g>
</g>
<g id="Layer_2" class="st0">
	<g class="st3">
		<path d="M20.5,10.3C20.5,10.3,20.5,10.3,20.5,10.3C20.5,10.3,20.5,10.2,20.5,10.3C20.5,10.2,20.5,10.2,20.5,10.3
			c0-0.1,0-0.1,0-0.2c0,0,0,0,0,0c0,0,0,0,0,0c0,0,0,0,0,0c0,0,0,0,0,0c0,0,0,0,0,0c0,0,0,0,0,0c0,0,0,0,0-0.1c0,0,0,0,0,0
			c0,0,0,0,0,0c0,0,0,0,0,0c0,0,0,0-0.1,0l-8.7-4.9l5-3.1l8.4,4.8l-3.5,2.2c-0.3,0.2-0.4,0.5-0.2,0.8c0.2,0.3,0.5,0.4,0.8,0.2
			L26.3,7c0.2-0.1,0.3-0.3,0.3-0.5c0-0.2-0.1-0.4-0.3-0.5l-9.5-5.4c-0.2-0.1-0.4-0.1-0.6,0l-6.1,3.9c0,0,0,0,0,0L7,6.4c0,0,0,0,0,0
			l-6.1,3.9c-0.2,0.1-0.3,0.3-0.3,0.5c0,0.2,0.1,0.4,0.3,0.5l9.5,5.4c0.1,0.1,0.2,0.1,0.3,0.1c0.1,0,0.2,0,0.3-0.1l4.4-2.7
			c0.3-0.2,0.4-0.5,0.2-0.8c-0.2-0.3-0.5-0.4-0.8-0.2l-4.1,2.6l-8.4-4.8l5-3.1l8.9,5.1v6.7c0,0.2,0.1,0.4,0.3,0.5
			c0.1,0,0.2,0.1,0.3,0.1c0.1,0,0.2,0,0.3-0.1l3.1-1.9c0.2-0.1,0.3-0.3,0.3-0.5L20.5,10.3C20.5,10.4,20.5,10.4,20.5,10.3
			C20.5,10.3,20.5,10.3,20.5,10.3z M17.4,18.3v-6c0-0.2-0.1-0.4-0.3-0.5L8.5,6.8l1.9-1.2l8.4,4.8L18,10.9c-0.3,0.2-0.4,0.5-0.2,0.8
			c0.1,0.2,0.3,0.3,0.5,0.3c0.1,0,0.2,0,0.3-0.1l0.7-0.4v5.7L17.4,18.3z"/>
		<path d="M25.7,8.4l-4.4,2.7c-0.3,0.2-0.4,0.5-0.2,0.8c0.1,0.2,0.3,0.3,0.5,0.3c0.1,0,0.2,0,0.3-0.1l4.4-2.7
			c0.3-0.2,0.4-0.5,0.2-0.8C26.4,8.3,26,8.2,25.7,8.4z"/>
		<path d="M14.8,15.3l-4.1,2.6l-9.2-5.2c-0.3-0.2-0.6-0.1-0.8,0.2c-0.2,0.3-0.1,0.6,0.2,0.8l9.5,5.4c0.1,0.1,0.2,0.1,0.3,0.1
			c0.1,0,0.2,0,0.3-0.1l4.4-2.7c0.3-0.2,0.4-0.5,0.2-0.8C15.4,15.2,15,15.1,14.8,15.3z"/>
		<path d="M25.7,10.7l-4.4,2.7c-0.3,0.2-0.4,0.5-0.2,0.8c0.1,0.2,0.3,0.3,0.5,0.3c0.1,0,0.2,0,0.3-0.1l4.4-2.7
			c0.3-0.2,0.4-0.5,0.2-0.8C26.4,10.6,26,10.5,25.7,10.7z"/>
		<path d="M14.8,17.6l-4.1,2.6l-9.2-5.2c-0.3-0.2-0.6-0.1-0.8,0.2c-0.2,0.3-0.1,0.6,0.2,0.8l9.5,5.4c0.1,0.1,0.2,0.1,0.3,0.1
			c0.1,0,0.2,0,0.3-0.1l4.4-2.7c0.3-0.2,0.4-0.5,0.2-0.8C15.4,17.5,15,17.4,14.8,17.6z"/>
		<path d="M25.7,13.1l-4.4,2.7c-0.3,0.2-0.4,0.5-0.2,0.8c0.1,0.2,0.3,0.3,0.5,0.3c0.1,0,0.2,0,0.3-0.1l4.4-2.7
			c0.3-0.2,0.4-0.5,0.2-0.8C26.4,13,26,12.9,25.7,13.1z"/>
		<path d="M14.8,20l-4.1,2.6l-9.2-5.2c-0.3-0.2-0.6-0.1-0.8,0.2c-0.2,0.3-0.1,0.6,0.2,0.8l9.5,5.4c0.1,0.1,0.2,0.1,0.3,0.1
			c0.1,0,0.2,0,0.3-0.1l4.4-2.7c0.3-0.2,0.4-0.5,0.2-0.8C15.4,19.9,15,19.8,14.8,20z"/>
	</g>
	<g class="st3">
		<path d="M20.5,58.2C20.5,58.2,20.5,58.2,20.5,58.2C20.5,58.2,20.5,58.1,20.5,58.2C20.5,58.1,20.5,58.1,20.5,58.2
			c0-0.1,0-0.1,0-0.2c0,0,0,0,0,0c0,0,0,0,0,0c0,0,0,0,0,0c0,0,0,0,0,0c0,0,0,0,0,0c0,0,0,0,0,0c0,0,0,0,0-0.1c0,0,0,0,0,0
			c0,0,0,0,0,0c0,0,0,0,0,0c0,0,0,0-0.1,0l-8.7-4.9l5-3.1l8.4,4.8l-3.5,2.2c-0.3,0.2-0.4,0.5-0.2,0.8c0.2,0.3,0.5,0.4,0.8,0.2
			l4.4-2.7c0.2-0.1,0.3-0.3,0.3-0.5c0-0.2-0.1-0.4-0.3-0.5l-9.5-5.4c-0.2-0.1-0.4-0.1-0.6,0l-6.1,3.9c0,0,0,0,0,0L7,54.3
			c0,0,0,0,0,0l-6.1,3.9c-0.2,0.1-0.3,0.3-0.3,0.5c0,0.2,0.1,0.4,0.3,0.5l9.5,5.4c0.1,0.1,0.2,0.1,0.3,0.1c0.1,0,0.2,0,0.3-0.1
			l4.4-2.7c0.3-0.2,0.4-0.5,0.2-0.8c-0.2-0.3-0.5-0.4-0.8-0.2l-4.1,2.6l-8.4-4.8l5-3.1l8.9,5.1v6.7c0,0.2,0.1,0.4,0.3,0.5
			c0.1,0,0.2,0.1,0.3,0.1c0.1,0,0.2,0,0.3-0.1l3.1-1.9c0.2-0.1,0.3-0.3,0.3-0.5L20.5,58.2C20.5,58.3,20.5,58.3,20.5,58.2
			C20.5,58.2,20.5,58.2,20.5,58.2z M17.4,66.2v-6c0-0.2-0.1-0.4-0.3-0.5l-8.7-4.9l1.9-1.2l8.4,4.8L18,58.8c-0.3,0.2-0.4,0.5-0.2,0.8
			c0.1,0.2,0.3,0.3,0.5,0.3c0.1,0,0.2,0,0.3-0.1l0.7-0.4V65L17.4,66.2z"/>
		<path d="M25.7,56.3L21.4,59c-0.3,0.2-0.4,0.5-0.2,0.8c0.1,0.2,0.3,0.3,0.5,0.3c0.1,0,0.2,0,0.3-0.1l4.4-2.7
			c0.3-0.2,0.4-0.5,0.2-0.8C26.4,56.2,26,56.1,25.7,56.3z"/>
		<path d="M14.8,63.2l-4.1,2.6l-9.2-5.2c-0.3-0.2-0.6-0.1-0.8,0.2c-0.2,0.3-0.1,0.6,0.2,0.8l9.5,5.4c0.1,0.1,0.2,0.1,0.3,0.1
			c0.1,0,0.2,0,0.3-0.1l4.4-2.7c0.3-0.2,0.4-0.5,0.2-0.8C15.4,63.1,15,63,14.8,63.2z"/>
		<path d="M25.7,58.6l-4.4,2.7c-0.3,0.2-0.4,0.5-0.2,0.8c0.1,0.2,0.3,0.3,0.5,0.3c0.1,0,0.2,0,0.3-0.1l4.4-2.7
			c0.3-0.2,0.4-0.5,0.2-0.8C26.4,58.5,26,58.5,25.7,58.6z"/>
		<path d="M14.8,65.5l-4.1,2.6l-9.2-5.2c-0.3-0.2-0.6-0.1-0.8,0.2c-0.2,0.3-0.1,0.6,0.2,0.8l9.5,5.4c0.1,0.1,0.2,0.1,0.3,0.1
			c0.1,0,0.2,0,0.3-0.1l4.4-2.7c0.3-0.2,0.4-0.5,0.2-0.8C15.4,65.4,15,65.4,14.8,65.5z"/>
		<path d="M25.7,61l-4.4,2.7c-0.3,0.2-0.4,0.5-0.2,0.8c0.1,0.2,0.3,0.3,0.5,0.3c0.1,0,0.2,0,0.3-0.1l4.4-2.7
			c0.3-0.2,0.4-0.5,0.2-0.8C26.4,60.9,26,60.8,25.7,61z"/>
		<path d="M14.8,67.9l-4.1,2.6l-9.2-5.2c-0.3-0.2-0.6-0.1-0.8,0.2c-0.2,0.3-0.1,0.6,0.2,0.8l9.5,5.4c0.1,0.1,0.2,0.1,0.3,0.1
			c0.1,0,0.2,0,0.3-0.1l4.4-2.7c0.3-0.2,0.4-0.5,0.2-0.8C15.4,67.8,15,67.7,14.8,67.9z"/>
	</g>
	<g class="st3">
		<path d="M38.2,30.8C38.2,30.8,38.2,30.8,38.2,30.8C38.2,30.7,38.2,30.7,38.2,30.8C38.2,30.7,38.2,30.7,38.2,30.8
			c0-0.1,0-0.1,0-0.2c0,0,0,0,0,0c0,0,0,0,0,0c0,0,0,0,0,0c0,0,0,0,0,0c0,0,0,0,0,0c0,0,0,0,0,0c0,0,0,0,0-0.1c0,0,0,0,0,0
			c0,0,0,0,0,0c0,0,0,0,0,0c0,0,0,0-0.1,0l-8.7-4.9l5-3.1l8.4,4.8l-3.5,2.2c-0.3,0.2-0.4,0.5-0.2,0.8c0.2,0.3,0.5,0.4,0.8,0.2
			l4.4-2.7c0.2-0.1,0.3-0.3,0.3-0.5c0-0.2-0.1-0.4-0.3-0.5l-9.5-5.4c-0.2-0.1-0.4-0.1-0.6,0l-6.1,3.9c0,0,0,0,0,0l-3.1,1.9
			c0,0,0,0,0,0l-6.1,3.9c-0.2,0.1-0.3,0.3-0.3,0.5c0,0.2,0.1,0.4,0.3,0.5l9.5,5.4c0.1,0.1,0.2,0.1,0.3,0.1c0.1,0,0.2,0,0.3-0.1
			l4.4-2.7c0.3-0.2,0.4-0.5,0.2-0.8c-0.2-0.3-0.5-0.4-0.8-0.2L28.4,36l-8.4-4.8l5-3.1l8.9,5.1v6.7c0,0.2,0.1,0.4,0.3,0.5
			c0.1,0,0.2,0.1,0.3,0.1c0.1,0,0.2,0,0.3-0.1l3.1-1.9c0.2-0.1,0.3-0.3,0.3-0.5L38.2,30.8C38.2,30.9,38.2,30.8,38.2,30.8
			C38.2,30.8,38.2,30.8,38.2,30.8z M35.2,38.8v-6c0-0.2-0.1-0.4-0.3-0.5l-8.7-4.9l1.9-1.2l8.4,4.8l-0.7,0.5
			c-0.3,0.2-0.4,0.5-0.2,0.8c0.1,0.2,0.3,0.3,0.5,0.3c0.1,0,0.2,0,0.3-0.1l0.7-0.4v5.7L35.2,38.8z"/>
		<path d="M43.4,28.9l-4.4,2.7c-0.3,0.2-0.4,0.5-0.2,0.8c0.1,0.2,0.3,0.3,0.5,0.3c0.1,0,0.2,0,0.3-0.1l4.4-2.7
			c0.3-0.2,0.4-0.5,0.2-0.8C44.1,28.8,43.7,28.7,43.4,28.9z"/>
		<path d="M32.5,35.8l-4.1,2.6l-9.2-5.2c-0.3-0.2-0.6-0.1-0.8,0.2c-0.2,0.3-0.1,0.6,0.2,0.8l9.5,5.4c0.1,0.1,0.2,0.1,0.3,0.1
			c0.1,0,0.2,0,0.3-0.1l4.4-2.7c0.3-0.2,0.4-0.5,0.2-0.8C33.1,35.7,32.8,35.6,32.5,35.8z"/>
		<path d="M43.4,31.2L39.1,34c-0.3,0.2-0.4,0.5-0.2,0.8c0.1,0.2,0.3,0.3,0.5,0.3c0.1,0,0.2,0,0.3-0.1l4.4-2.7
			c0.3-0.2,0.4-0.5,0.2-0.8C44.1,31.1,43.7,31,43.4,31.2z"/>
		<path d="M32.5,38.1l-4.1,2.6l-9.2-5.2c-0.3-0.2-0.6-0.1-0.8,0.2c-0.2,0.3-0.1,0.6,0.2,0.8l9.5,5.4c0.1,0.1,0.2,0.1,0.3,0.1
			c0.1,0,0.2,0,0.3-0.1l4.4-2.7c0.3-0.2,0.4-0.5,0.2-0.8C33.1,38,32.8,37.9,32.5,38.1z"/>
		<path d="M43.4,33.6l-4.4,2.7c-0.3,0.2-0.4,0.5-0.2,0.8c0.1,0.2,0.3,0.3,0.5,0.3c0.1,0,0.2,0,0.3-0.1l4.4-2.7
			c0.3-0.2,0.4-0.5,0.2-0.8C44.1,33.5,43.7,33.4,43.4,33.6z"/>
		<path d="M32.5,40.5L28.4,43l-9.2-5.2c-0.3-0.2-0.6-0.1-0.8,0.2c-0.2,0.3-0.1,0.6,0.2,0.8l9.5,5.4c0.1,0.1,0.2,0.1,0.3,0.1
			c0.1,0,0.2,0,0.3-0.1l4.4-2.7c0.3-0.2,0.4-0.5,0.2-0.8C33.1,40.4,32.8,40.3,32.5,40.5z"/>
	</g>
	<g class="st3">
		<path d="M66.2,10.3C66.2,10.3,66.2,10.3,66.2,10.3C66.2,10.3,66.2,10.2,66.2,10.3C66.1,10.2,66.1,10.2,66.2,10.3
			c0-0.1,0-0.1,0-0.2c0,0,0,0,0,0c0,0,0,0,0,0c0,0,0,0,0,0c0,0,0,0,0,0c0,0,0,0,0,0c0,0,0,0,0,0c0,0,0,0,0-0.1c0,0,0,0,0,0
			c0,0,0,0,0,0c0,0,0,0,0,0c0,0,0,0-0.1,0l-8.7-4.9l5-3.1l8.4,4.8L67,8.8c-0.3,0.2-0.4,0.5-0.2,0.8c0.2,0.3,0.5,0.4,0.8,0.2L72,7
			c0.2-0.1,0.3-0.3,0.3-0.5c0-0.2-0.1-0.4-0.3-0.5l-9.5-5.4c-0.2-0.1-0.4-0.1-0.6,0l-6.1,3.9c0,0,0,0,0,0l-3.1,1.9c0,0,0,0,0,0
			l-6.1,3.9c-0.2,0.1-0.3,0.3-0.3,0.5c0,0.2,0.1,0.4,0.3,0.5l9.5,5.4c0.1,0.1,0.2,0.1,0.3,0.1c0.1,0,0.2,0,0.3-0.1l4.4-2.7
			c0.3-0.2,0.4-0.5,0.2-0.8c-0.2-0.3-0.5-0.4-0.8-0.2l-4.1,2.6L48,10.7l5-3.1l8.9,5.1v6.7c0,0.2,0.1,0.4,0.3,0.5
			c0.1,0,0.2,0.1,0.3,0.1c0.1,0,0.2,0,0.3-0.1l3.1-1.9c0.2-0.1,0.3-0.3,0.3-0.5L66.2,10.3C66.2,10.4,66.2,10.4,66.2,10.3
			C66.2,10.3,66.2,10.3,66.2,10.3z M63.1,18.3v-6c0-0.2-0.1-0.4-0.3-0.5l-8.7-4.9l1.9-1.2l8.4,4.8l-0.7,0.5
			c-0.3,0.2-0.4,0.5-0.2,0.8c0.1,0.2,0.3,0.3,0.5,0.3c0.1,0,0.2,0,0.3-0.1l0.7-0.4v5.7L63.1,18.3z"/>
		<path d="M71.4,8.4L67,11.1c-0.3,0.2-0.4,0.5-0.2,0.8c0.1,0.2,0.3,0.3,0.5,0.3c0.1,0,0.2,0,0.3-0.1L72,9.4c0.3-0.2,0.4-0.5,0.2-0.8
			C72,8.3,71.7,8.2,71.4,8.4z"/>
		<path d="M60.4,15.3l-4.1,2.6l-9.2-5.2c-0.3-0.2-0.6-0.1-0.8,0.2c-0.2,0.3-0.1,0.6,0.2,0.8l9.5,5.4c0.1,0.1,0.2,0.1,0.3,0.1
			c0.1,0,0.2,0,0.3-0.1l4.4-2.7c0.3-0.2,0.4-0.5,0.2-0.8C61.1,15.2,60.7,15.1,60.4,15.3z"/>
		<path d="M71.4,10.7L67,13.5c-0.3,0.2-0.4,0.5-0.2,0.8c0.1,0.2,0.3,0.3,0.5,0.3c0.1,0,0.2,0,0.3-0.1l4.4-2.7
			c0.3-0.2,0.4-0.5,0.2-0.8C72,10.6,71.7,10.5,71.4,10.7z"/>
		<path d="M60.4,17.6l-4.1,2.6l-9.2-5.2c-0.3-0.2-0.6-0.1-0.8,0.2c-0.2,0.3-0.1,0.6,0.2,0.8l9.5,5.4c0.1,0.1,0.2,0.1,0.3,0.1
			c0.1,0,0.2,0,0.3-0.1l4.4-2.7c0.3-0.2,0.4-0.5,0.2-0.8C61.1,17.5,60.7,17.4,60.4,17.6z"/>
		<path d="M71.4,13.1L67,15.8c-0.3,0.2-0.4,0.5-0.2,0.8c0.1,0.2,0.3,0.3,0.5,0.3c0.1,0,0.2,0,0.3-0.1l4.4-2.7
			c0.3-0.2,0.4-0.5,0.2-0.8C72,13,71.7,12.9,71.4,13.1z"/>
		<path d="M60.4,20l-4.1,2.6l-9.2-5.2c-0.3-0.2-0.6-0.1-0.8,0.2c-0.2,0.3-0.1,0.6,0.2,0.8l9.5,5.4c0.1,0.1,0.2,0.1,0.3,0.1
			c0.1,0,0.2,0,0.3-0.1l4.4-2.7c0.3-0.2,0.4-0.5,0.2-0.8C61.1,19.9,60.7,19.8,60.4,20z"/>
	</g>
	<g class="st3">
		<path d="M83.9,30.8C83.9,30.8,83.9,30.8,83.9,30.8C83.9,30.7,83.9,30.7,83.9,30.8C83.9,30.7,83.9,30.7,83.9,30.8
			c0-0.1,0-0.1,0-0.2c0,0,0,0,0,0c0,0,0,0,0,0c0,0,0,0,0,0c0,0,0,0,0,0c0,0,0,0,0,0c0,0,0,0,0,0c0,0,0,0,0-0.1c0,0,0,0,0,0
			c0,0,0,0,0,0c0,0,0,0,0,0c0,0,0,0-0.1,0l-8.7-4.9l5-3.1l8.4,4.8l-3.5,2.2c-0.3,0.2-0.4,0.5-0.2,0.8c0.2,0.3,0.5,0.4,0.8,0.2
			l4.4-2.7c0.2-0.1,0.3-0.3,0.3-0.5c0-0.2-0.1-0.4-0.3-0.5l-9.5-5.4c-0.2-0.1-0.4-0.1-0.6,0l-6.1,3.9c0,0,0,0,0,0l-3.1,1.9
			c0,0,0,0,0,0l-6.1,3.9C64.1,30.8,64,31,64,31.2c0,0.2,0.1,0.4,0.3,0.5l9.5,5.4c0.1,0.1,0.2,0.1,0.3,0.1c0.1,0,0.2,0,0.3-0.1
			l4.4-2.7c0.3-0.2,0.4-0.5,0.2-0.8c-0.2-0.3-0.5-0.4-0.8-0.2L74.1,36l-8.4-4.8l5-3.1l8.9,5.1v6.7c0,0.2,0.1,0.4,0.3,0.5
			c0.1,0,0.2,0.1,0.3,0.1c0.1,0,0.2,0,0.3-0.1l3.1-1.9c0.2-0.1,0.3-0.3,0.3-0.5L83.9,30.8C83.9,30.9,83.9,30.8,83.9,30.8
			C83.9,30.8,83.9,30.8,83.9,30.8z M80.8,38.8v-6c0-0.2-0.1-0.4-0.3-0.5l-8.7-4.9l1.9-1.2l8.4,4.8l-0.7,0.5
			c-0.3,0.2-0.4,0.5-0.2,0.8c0.1,0.2,0.3,0.3,0.5,0.3c0.1,0,0.2,0,0.3-0.1l0.7-0.4v5.7L80.8,38.8z"/>
		<path d="M89.1,28.9l-4.4,2.7c-0.3,0.2-0.4,0.5-0.2,0.8c0.1,0.2,0.3,0.3,0.5,0.3c0.1,0,0.2,0,0.3-0.1l4.4-2.7
			c0.3-0.2,0.4-0.5,0.2-0.8C89.7,28.8,89.4,28.7,89.1,28.9z"/>
		<path d="M78.2,35.8l-4.1,2.6l-9.2-5.2c-0.3-0.2-0.6-0.1-0.8,0.2c-0.2,0.3-0.1,0.6,0.2,0.8l9.5,5.4c0.1,0.1,0.2,0.1,0.3,0.1
			c0.1,0,0.2,0,0.3-0.1l4.4-2.7c0.3-0.2,0.4-0.5,0.2-0.8C78.8,35.7,78.4,35.6,78.2,35.8z"/>
		<path d="M89.1,31.2L84.8,34c-0.3,0.2-0.4,0.5-0.2,0.8c0.1,0.2,0.3,0.3,0.5,0.3c0.1,0,0.2,0,0.3-0.1l4.4-2.7
			c0.3-0.2,0.4-0.5,0.2-0.8C89.7,31.1,89.4,31,89.1,31.2z"/>
		<path d="M78.2,38.1l-4.1,2.6l-9.2-5.2c-0.3-0.2-0.6-0.1-0.8,0.2c-0.2,0.3-0.1,0.6,0.2,0.8l9.5,5.4c0.1,0.1,0.2,0.1,0.3,0.1
			c0.1,0,0.2,0,0.3-0.1l4.4-2.7c0.3-0.2,0.4-0.5,0.2-0.8C78.8,38,78.4,37.9,78.2,38.1z"/>
		<path d="M89.1,33.6l-4.4,2.7c-0.3,0.2-0.4,0.5-0.2,0.8c0.1,0.2,0.3,0.3,0.5,0.3c0.1,0,0.2,0,0.3-0.1l4.4-2.7
			c0.3-0.2,0.4-0.5,0.2-0.8C89.7,33.5,89.4,33.4,89.1,33.6z"/>
		<path d="M78.2,40.5L74.1,43l-9.2-5.2c-0.3-0.2-0.6-0.1-0.8,0.2c-0.2,0.3-0.1,0.6,0.2,0.8l9.5,5.4c0.1,0.1,0.2,0.1,0.3,0.1
			c0.1,0,0.2,0,0.3-0.1l4.4-2.7c0.3-0.2,0.4-0.5,0.2-0.8C78.8,40.4,78.4,40.3,78.2,40.5z"/>
	</g>
	<polygon class="st3" points="37.5,-20.8 37.6,-35.1 41.6,-37.3 41.5,-23.7 	"/>
</g>
<g id="Layer_3" class="st0">
	<g>
		<g class="st3">
			<path d="M43.4,16.4l-27,27c-0.2,0.2-0.5,0.2-0.8,0L0.2,27.9c-0.2-0.2-0.2-0.5,0-0.8l27-27c0.2-0.2,0.5-0.2,0.8,0l15.5,15.5
				C43.6,15.9,43.6,16.2,43.4,16.4z M16,42.3L42.3,16L27.5,1.3L1.3,27.5L16,42.3z"/>
			<path d="M31.1,4.1c-2,2-5.2,2-7.1,0c-0.2-0.2-0.2-0.5,0-0.8c0.2-0.2,0.5-0.2,0.8,0c1.5,1.5,4.1,1.5,5.6,0c0.2-0.2,0.5-0.2,0.8,0
				C31.3,3.5,31.3,3.9,31.1,4.1z"/>
			<path d="M40.2,19.6c-0.2,0.2-0.5,0.2-0.8,0c-2-2-2-5.2,0-7.1c0.2-0.2,0.5-0.2,0.8,0c0.2,0.2,0.2,0.5,0,0.8
				c-1.5,1.5-1.5,4.1,0,5.6C40.4,19.1,40.4,19.4,40.2,19.6z"/>
			<path d="M4.1,31.1c-0.2,0.2-0.5,0.2-0.8,0c-0.2-0.2-0.2-0.5,0-0.8c1.5-1.5,1.5-4.1,0-5.6c-0.2-0.2-0.2-0.5,0-0.8
				c0.2-0.2,0.5-0.2,0.8,0C6.1,25.9,6.1,29.1,4.1,31.1z"/>
			<path d="M19.6,40.2c-0.2,0.2-0.5,0.2-0.8,0c-1.5-1.5-4.1-1.5-5.6,0c-0.2,0.2-0.5,0.2-0.8,0c-0.2-0.2-0.2-0.5,0-0.8
				c2-2,5.2-2,7.1,0C19.8,39.7,19.8,40,19.6,40.2z"/>
		</g>
		<path class="st3" d="M26.4,19.7c-0.4,0.1-0.6,0.4-0.4,0.8c0.6,1.5,0.3,3.1-0.7,4.1c-1,1-2.4,1.3-3.8,0.9l2.1-2.1
			c0.3-0.3,0.3-0.6,0-0.9s-0.6-0.3-0.9,0L20.2,25c-0.3-0.2-0.6-0.4-0.9-0.7c-0.2-0.2-0.5-0.5-0.6-0.8l2.4-2.4c0.3-0.3,0.3-0.6,0-0.9
			c-0.3-0.3-0.6-0.3-0.9,0l-2.1,2.1c-0.4-1.4-0.2-2.9,0.9-3.9c1-1,2.6-1.3,4.1-0.7c0.4,0,0.6-0.1,0.8-0.4c0-0.4-0.1-0.6-0.4-0.8
			c-2.1-0.8-4.1-0.4-5.5,1c-1.6,1.6-1.8,3.9-0.9,5.9l-1,1c-0.3,0.3-0.3,0.6,0,0.9c0.3,0.3,0.6,0.3,0.9,0l0.8-0.8
			c0.2,0.2,0.4,0.5,0.6,0.7c0.3,0.3,0.6,0.6,1,0.8l-0.8,0.8c-0.3,0.3-0.3,0.6,0,0.9s0.6,0.3,0.9,0l1.1-1.1c1.9,0.7,4.1,0.4,5.5-1
			c1.3-1.3,1.8-3.4,1.2-5.3C27.1,19.7,26.7,19.5,26.4,19.7z"/>
	</g>
	<g>
		<g class="st3">
			<path d="M199.8,16.4l-27,27c-0.2,0.2-0.5,0.2-0.8,0l-15.5-15.5c-0.2-0.2-0.2-0.5,0-0.8l27-27c0.2-0.2,0.5-0.2,0.8,0l15.5,15.5
				C200.1,15.9,200.1,16.2,199.8,16.4z M172.5,42.3L198.7,16L184,1.3l-26.2,26.2L172.5,42.3z"/>
			<path d="M187.5,4.1c-2,2-5.2,2-7.1,0c-0.2-0.2-0.2-0.5,0-0.8c0.2-0.2,0.5-0.2,0.8,0c1.5,1.5,4.1,1.5,5.6,0c0.2-0.2,0.5-0.2,0.8,0
				C187.7,3.5,187.7,3.9,187.5,4.1z"/>
			<path d="M196.7,19.6c-0.2,0.2-0.5,0.2-0.8,0c-2-2-2-5.2,0-7.1c0.2-0.2,0.5-0.2,0.8,0s0.2,0.5,0,0.8c-1.5,1.5-1.5,4.1,0,5.6
				C196.9,19.1,196.9,19.4,196.7,19.6z"/>
			<path d="M160.6,31.1c-0.2,0.2-0.5,0.2-0.8,0c-0.2-0.2-0.2-0.5,0-0.8c1.5-1.5,1.5-4.1,0-5.6c-0.2-0.2-0.2-0.5,0-0.8
				c0.2-0.2,0.5-0.2,0.8,0C162.5,25.9,162.5,29.1,160.6,31.1z"/>
			<path d="M176.1,40.2c-0.2,0.2-0.5,0.2-0.8,0c-1.5-1.5-4.1-1.5-5.6,0c-0.2,0.2-0.5,0.2-0.8,0c-0.2-0.2-0.2-0.5,0-0.8
				c2-2,5.2-2,7.1,0C176.3,39.7,176.3,40,176.1,40.2z"/>
		</g>
		<path class="st3" d="M182.8,19.7c-0.4,0.1-0.6,0.4-0.4,0.8c0.6,1.5,0.3,3.1-0.7,4.1c-1,1-2.4,1.3-3.8,0.9l2.1-2.1
			c0.3-0.3,0.3-0.6,0-0.9c-0.3-0.3-0.6-0.3-0.9,0l-2.4,2.4c-0.3-0.2-0.6-0.4-0.9-0.7c-0.2-0.2-0.5-0.5-0.6-0.8l2.4-2.4
			c0.3-0.3,0.3-0.6,0-0.9c-0.3-0.3-0.6-0.3-0.9,0l-2.1,2.1c-0.4-1.4-0.2-2.9,0.9-3.9c1-1,2.6-1.3,4.1-0.7c0.4,0,0.6-0.1,0.8-0.4
			c0-0.4-0.1-0.6-0.4-0.8c-2.1-0.8-4.1-0.4-5.5,1c-1.6,1.6-1.8,3.9-0.9,5.9l-1,1c-0.3,0.3-0.3,0.6,0,0.9c0.3,0.3,0.6,0.3,0.9,0
			l0.8-0.8c0.2,0.2,0.4,0.5,0.6,0.7c0.3,0.3,0.6,0.6,1,0.8l-0.8,0.8c-0.3,0.3-0.3,0.6,0,0.9c0.3,0.3,0.6,0.3,0.9,0l1.1-1.1
			c1.9,0.7,4.1,0.4,5.5-1c1.3-1.3,1.8-3.4,1.2-5.3C183.6,19.7,183.2,19.5,182.8,19.7z"/>
	</g>
	<g>
		<g class="st3">
			<path d="M147.7,16.4l-27,27c-0.2,0.2-0.5,0.2-0.8,0l-15.5-15.5c-0.2-0.2-0.2-0.5,0-0.8l27-27c0.2-0.2,0.5-0.2,0.8,0l15.5,15.5
				C147.9,15.9,147.9,16.2,147.7,16.4z M120.3,42.3L146.6,16L131.8,1.3l-26.2,26.2L120.3,42.3z"/>
			<path d="M135.4,4.1c-2,2-5.2,2-7.1,0c-0.2-0.2-0.2-0.5,0-0.8c0.2-0.2,0.5-0.2,0.8,0c1.5,1.5,4.1,1.5,5.6,0c0.2-0.2,0.5-0.2,0.8,0
				C135.6,3.5,135.6,3.9,135.4,4.1z"/>
			<path d="M144.5,19.6c-0.2,0.2-0.5,0.2-0.8,0c-2-2-2-5.2,0-7.1c0.2-0.2,0.5-0.2,0.8,0s0.2,0.5,0,0.8c-1.5,1.5-1.5,4.1,0,5.6
				C144.7,19.1,144.7,19.4,144.5,19.6z"/>
			<path d="M108.4,31.1c-0.2,0.2-0.5,0.2-0.8,0c-0.2-0.2-0.2-0.5,0-0.8c1.5-1.5,1.5-4.1,0-5.6c-0.2-0.2-0.2-0.5,0-0.8
				c0.2-0.2,0.5-0.2,0.8,0C110.4,25.9,110.4,29.1,108.4,31.1z"/>
			<path d="M123.9,40.2c-0.2,0.2-0.5,0.2-0.8,0c-1.5-1.5-4.1-1.5-5.6,0c-0.2,0.2-0.5,0.2-0.8,0c-0.2-0.2-0.2-0.5,0-0.8
				c2-2,5.2-2,7.1,0C124.1,39.7,124.1,40,123.9,40.2z"/>
		</g>
		<path class="st3" d="M130.7,19.7c-0.4,0.1-0.6,0.4-0.4,0.8c0.6,1.5,0.3,3.1-0.7,4.1c-1,1-2.4,1.3-3.8,0.9l2.1-2.1
			c0.3-0.3,0.3-0.6,0-0.9s-0.6-0.3-0.9,0l-2.4,2.4c-0.3-0.2-0.6-0.4-0.9-0.7c-0.2-0.2-0.5-0.5-0.6-0.8l2.4-2.4
			c0.3-0.3,0.3-0.6,0-0.9c-0.3-0.3-0.6-0.3-0.9,0l-2.1,2.1c-0.4-1.4-0.2-2.9,0.9-3.9c1-1,2.6-1.3,4.1-0.7c0.4,0,0.6-0.1,0.8-0.4
			c0-0.4-0.1-0.6-0.4-0.8c-2.1-0.8-4.1-0.4-5.5,1c-1.6,1.6-1.8,3.9-0.9,5.9l-1,1c-0.3,0.3-0.3,0.6,0,0.9c0.3,0.3,0.6,0.3,0.9,0
			l0.8-0.8c0.2,0.2,0.4,0.5,0.6,0.7c0.3,0.3,0.6,0.6,1,0.8l-0.8,0.8c-0.3,0.3-0.3,0.6,0,0.9c0.3,0.3,0.6,0.3,0.9,0l1.1-1.1
			c1.9,0.7,4.1,0.4,5.5-1c1.3-1.3,1.8-3.4,1.2-5.3C131.4,19.7,131,19.5,130.7,19.7z"/>
	</g>
	<g>
		<g class="st3">
			<path d="M95.5,16.4l-27,27c-0.2,0.2-0.5,0.2-0.8,0L52.3,27.9c-0.2-0.2-0.2-0.5,0-0.8l27-27c0.2-0.2,0.5-0.2,0.8,0l15.5,15.5
				C95.7,15.9,95.7,16.2,95.5,16.4z M68.2,42.3L94.4,16L79.7,1.3L53.4,27.5L68.2,42.3z"/>
			<path d="M83.2,4.1c-2,2-5.2,2-7.1,0c-0.2-0.2-0.2-0.5,0-0.8c0.2-0.2,0.5-0.2,0.8,0c1.5,1.5,4.1,1.5,5.6,0c0.2-0.2,0.5-0.2,0.8,0
				C83.4,3.5,83.4,3.9,83.2,4.1z"/>
			<path d="M92.4,19.6c-0.2,0.2-0.5,0.2-0.8,0c-2-2-2-5.2,0-7.1c0.2-0.2,0.5-0.2,0.8,0s0.2,0.5,0,0.8c-1.5,1.5-1.5,4.1,0,5.6
				C92.6,19.1,92.6,19.4,92.4,19.6z"/>
			<path d="M56.2,31.1c-0.2,0.2-0.5,0.2-0.8,0c-0.2-0.2-0.2-0.5,0-0.8c1.5-1.5,1.5-4.1,0-5.6c-0.2-0.2-0.2-0.5,0-0.8
				c0.2-0.2,0.5-0.2,0.8,0C58.2,25.9,58.2,29.1,56.2,31.1z"/>
			<path d="M71.8,40.2c-0.2,0.2-0.5,0.2-0.8,0c-1.5-1.5-4.1-1.5-5.6,0c-0.2,0.2-0.5,0.2-0.8,0c-0.2-0.2-0.2-0.5,0-0.8
				c2-2,5.2-2,7.1,0C72,39.7,72,40,71.8,40.2z"/>
		</g>
		<path class="st3" d="M78.5,19.7c-0.4,0.1-0.6,0.4-0.4,0.8c0.6,1.5,0.3,3.1-0.7,4.1c-1,1-2.4,1.3-3.8,0.9l2.1-2.1
			c0.3-0.3,0.3-0.6,0-0.9c-0.3-0.3-0.6-0.3-0.9,0L72.3,25c-0.3-0.2-0.6-0.4-0.9-0.7c-0.2-0.2-0.5-0.5-0.6-0.8l2.4-2.4
			c0.3-0.3,0.3-0.6,0-0.9c-0.3-0.3-0.6-0.3-0.9,0l-2.1,2.1c-0.4-1.4-0.2-2.9,0.9-3.9c1-1,2.6-1.3,4.1-0.7c0.4,0,0.6-0.1,0.8-0.4
			c0-0.4-0.1-0.6-0.4-0.8c-2.1-0.8-4.1-0.4-5.5,1c-1.6,1.6-1.8,3.9-0.9,5.9l-1,1c-0.3,0.3-0.3,0.6,0,0.9c0.3,0.3,0.6,0.3,0.9,0
			l0.8-0.8c0.2,0.2,0.4,0.5,0.6,0.7c0.3,0.3,0.6,0.6,1,0.8l-0.8,0.8c-0.3,0.3-0.3,0.6,0,0.9s0.6,0.3,0.9,0l1.1-1.1
			c1.9,0.7,4.1,0.4,5.5-1c1.3-1.3,1.8-3.4,1.2-5.3C79.2,19.7,78.9,19.5,78.5,19.7z"/>
	</g>
	<g>
		<g class="st3">
			<path d="M58.4,53.4l-27,27c-0.2,0.2-0.5,0.2-0.8,0L15.2,64.9c-0.2-0.2-0.2-0.5,0-0.8l27-27c0.2-0.2,0.5-0.2,0.8,0l15.5,15.5
				C58.6,52.8,58.6,53.2,58.4,53.4z M31,79.2L57.3,53L42.5,38.3L16.3,64.5L31,79.2z"/>
			<path d="M46.1,41.1c-2,2-5.2,2-7.1,0c-0.2-0.2-0.2-0.5,0-0.8c0.2-0.2,0.5-0.2,0.8,0c1.5,1.5,4.1,1.5,5.6,0c0.2-0.2,0.5-0.2,0.8,0
				S46.3,40.9,46.1,41.1z"/>
			<path d="M55.2,56.6c-0.2,0.2-0.5,0.2-0.8,0c-2-2-2-5.2,0-7.1c0.2-0.2,0.5-0.2,0.8,0c0.2,0.2,0.2,0.5,0,0.8
				c-1.5,1.5-1.5,4.1,0,5.6C55.4,56,55.4,56.4,55.2,56.6z"/>
			<path d="M19.1,68c-0.2,0.2-0.5,0.2-0.8,0c-0.2-0.2-0.2-0.5,0-0.8c1.5-1.5,1.5-4.1,0-5.6c-0.2-0.2-0.2-0.5,0-0.8
				c0.2-0.2,0.5-0.2,0.8,0C21.1,62.9,21.1,66.1,19.1,68z"/>
			<path d="M34.6,77.2c-0.2,0.2-0.5,0.2-0.8,0c-1.5-1.5-4.1-1.5-5.6,0c-0.2,0.2-0.5,0.2-0.8,0s-0.2-0.5,0-0.8c2-2,5.2-2,7.1,0
				C34.8,76.6,34.8,77,34.6,77.2z"/>
		</g>
		<path class="st3" d="M41.4,56.7c-0.4,0.1-0.6,0.4-0.4,0.8c0.6,1.5,0.3,3.1-0.7,4.1c-1,1-2.4,1.3-3.8,0.9l2.1-2.1
			c0.3-0.3,0.3-0.6,0-0.9c-0.3-0.3-0.6-0.3-0.9,0L35.2,62c-0.3-0.2-0.6-0.4-0.9-0.7c-0.2-0.2-0.5-0.5-0.6-0.8l2.4-2.4
			c0.3-0.3,0.3-0.6,0-0.9c-0.3-0.3-0.6-0.3-0.9,0l-2.1,2.1c-0.4-1.4-0.2-2.9,0.9-3.9c1-1,2.6-1.3,4.1-0.7c0.4,0,0.6-0.1,0.8-0.4
			c0-0.4-0.1-0.6-0.4-0.8c-2.1-0.8-4.1-0.4-5.5,1c-1.6,1.6-1.8,3.9-0.9,5.9l-1,1c-0.3,0.3-0.3,0.6,0,0.9c0.3,0.3,0.6,0.3,0.9,0
			l0.8-0.8c0.2,0.2,0.4,0.5,0.6,0.7c0.3,0.3,0.6,0.6,1,0.8l-0.8,0.8c-0.3,0.3-0.3,0.6,0,0.9c0.3,0.3,0.6,0.3,0.9,0l1.1-1.1
			c1.9,0.7,4.1,0.4,5.5-1c1.3-1.3,1.8-3.4,1.2-5.3C42.1,56.7,41.7,56.5,41.4,56.7z"/>
	</g>
	<g>
		<g class="st3">
			<path d="M214.8,53.4l-27,27c-0.2,0.2-0.5,0.2-0.8,0l-15.5-15.5c-0.2-0.2-0.2-0.5,0-0.8l27-27c0.2-0.2,0.5-0.2,0.8,0l15.5,15.5
				C215.1,52.8,215.1,53.2,214.8,53.4z M187.5,79.2L213.7,53L199,38.3l-26.2,26.2L187.5,79.2z"/>
			<path d="M202.5,41.1c-2,2-5.2,2-7.1,0c-0.2-0.2-0.2-0.5,0-0.8c0.2-0.2,0.5-0.2,0.8,0c1.5,1.5,4.1,1.5,5.6,0
				c0.2-0.2,0.5-0.2,0.8,0S202.7,40.9,202.5,41.1z"/>
			<path d="M211.7,56.6c-0.2,0.2-0.5,0.2-0.8,0c-2-2-2-5.2,0-7.1c0.2-0.2,0.5-0.2,0.8,0s0.2,0.5,0,0.8c-1.5,1.5-1.5,4.1,0,5.6
				C211.9,56,211.9,56.4,211.7,56.6z"/>
			<path d="M175.6,68c-0.2,0.2-0.5,0.2-0.8,0c-0.2-0.2-0.2-0.5,0-0.8c1.5-1.5,1.5-4.1,0-5.6c-0.2-0.2-0.2-0.5,0-0.8
				c0.2-0.2,0.5-0.2,0.8,0C177.5,62.9,177.5,66.1,175.6,68z"/>
			<path d="M191.1,77.2c-0.2,0.2-0.5,0.2-0.8,0c-1.5-1.5-4.1-1.5-5.6,0c-0.2,0.2-0.5,0.2-0.8,0s-0.2-0.5,0-0.8c2-2,5.2-2,7.1,0
				C191.3,76.6,191.3,77,191.1,77.2z"/>
		</g>
		<path class="st3" d="M197.8,56.7c-0.4,0.1-0.6,0.4-0.4,0.8c0.6,1.5,0.3,3.1-0.7,4.1c-1,1-2.4,1.3-3.8,0.9l2.1-2.1
			c0.3-0.3,0.3-0.6,0-0.9c-0.3-0.3-0.6-0.3-0.9,0l-2.4,2.4c-0.3-0.2-0.6-0.4-0.9-0.7c-0.2-0.2-0.5-0.5-0.6-0.8l2.4-2.4
			c0.3-0.3,0.3-0.6,0-0.9c-0.3-0.3-0.6-0.3-0.9,0l-2.1,2.1c-0.4-1.4-0.2-2.9,0.9-3.9c1-1,2.6-1.3,4.1-0.7c0.4,0,0.6-0.1,0.8-0.4
			c0-0.4-0.1-0.6-0.4-0.8c-2.1-0.8-4.1-0.4-5.5,1c-1.6,1.6-1.8,3.9-0.9,5.9l-1,1c-0.3,0.3-0.3,0.6,0,0.9c0.3,0.3,0.6,0.3,0.9,0
			l0.8-0.8c0.2,0.2,0.4,0.5,0.6,0.7c0.3,0.3,0.6,0.6,1,0.8l-0.8,0.8c-0.3,0.3-0.3,0.6,0,0.9c0.3,0.3,0.6,0.3,0.9,0l1.1-1.1
			c1.9,0.7,4.1,0.4,5.5-1c1.3-1.3,1.8-3.4,1.2-5.3C198.6,56.7,198.2,56.5,197.8,56.7z"/>
	</g>
	<g>
		<g class="st3">
			<path d="M162.7,53.4l-27,27c-0.2,0.2-0.5,0.2-0.8,0l-15.5-15.5c-0.2-0.2-0.2-0.5,0-0.8l27-27c0.2-0.2,0.5-0.2,0.8,0l15.5,15.5
				C162.9,52.8,162.9,53.2,162.7,53.4z M135.3,79.2L161.6,53l-14.8-14.8l-26.2,26.2L135.3,79.2z"/>
			<path d="M150.4,41.1c-2,2-5.2,2-7.1,0c-0.2-0.2-0.2-0.5,0-0.8c0.2-0.2,0.5-0.2,0.8,0c1.5,1.5,4.1,1.5,5.6,0
				c0.2-0.2,0.5-0.2,0.8,0C150.6,40.5,150.6,40.9,150.4,41.1z"/>
			<path d="M159.5,56.6c-0.2,0.2-0.5,0.2-0.8,0c-2-2-2-5.2,0-7.1c0.2-0.2,0.5-0.2,0.8,0s0.2,0.5,0,0.8c-1.5,1.5-1.5,4.1,0,5.6
				C159.7,56,159.7,56.4,159.5,56.6z"/>
			<path d="M123.4,68c-0.2,0.2-0.5,0.2-0.8,0c-0.2-0.2-0.2-0.5,0-0.8c1.5-1.5,1.5-4.1,0-5.6c-0.2-0.2-0.2-0.5,0-0.8
				c0.2-0.2,0.5-0.2,0.8,0C125.4,62.9,125.4,66.1,123.4,68z"/>
			<path d="M138.9,77.2c-0.2,0.2-0.5,0.2-0.8,0c-1.5-1.5-4.1-1.5-5.6,0c-0.2,0.2-0.5,0.2-0.8,0s-0.2-0.5,0-0.8c2-2,5.2-2,7.1,0
				C139.1,76.6,139.1,77,138.9,77.2z"/>
		</g>
		<path class="st3" d="M145.7,56.7c-0.4,0.1-0.6,0.4-0.4,0.8c0.6,1.5,0.3,3.1-0.7,4.1c-1,1-2.4,1.3-3.8,0.9l2.1-2.1
			c0.3-0.3,0.3-0.6,0-0.9c-0.3-0.3-0.6-0.3-0.9,0l-2.4,2.4c-0.3-0.2-0.6-0.4-0.9-0.7c-0.2-0.2-0.5-0.5-0.6-0.8l2.4-2.4
			c0.3-0.3,0.3-0.6,0-0.9c-0.3-0.3-0.6-0.3-0.9,0l-2.1,2.1c-0.4-1.4-0.2-2.9,0.9-3.9c1-1,2.6-1.3,4.1-0.7c0.4,0,0.6-0.1,0.8-0.4
			c0-0.4-0.1-0.6-0.4-0.8c-2.1-0.8-4.1-0.4-5.5,1c-1.6,1.6-1.8,3.9-0.9,5.9l-1,1c-0.3,0.3-0.3,0.6,0,0.9c0.3,0.3,0.6,0.3,0.9,0
			l0.8-0.8c0.2,0.2,0.4,0.5,0.6,0.7c0.3,0.3,0.6,0.6,1,0.8l-0.8,0.8c-0.3,0.3-0.3,0.6,0,0.9c0.3,0.3,0.6,0.3,0.9,0l1.1-1.1
			c1.9,0.7,4.1,0.4,5.5-1c1.3-1.3,1.8-3.4,1.2-5.3C146.4,56.7,146,56.5,145.7,56.7z"/>
	</g>
	<g>
		<g class="st3">
			<path d="M110.5,53.4l-27,27c-0.2,0.2-0.5,0.2-0.8,0L67.3,64.9c-0.2-0.2-0.2-0.5,0-0.8l27-27c0.2-0.2,0.5-0.2,0.8,0l15.5,15.5
				C110.7,52.8,110.7,53.2,110.5,53.4z M83.2,79.2L109.4,53L94.7,38.3L68.4,64.5L83.2,79.2z"/>
			<path d="M98.2,41.1c-2,2-5.2,2-7.1,0c-0.2-0.2-0.2-0.5,0-0.8c0.2-0.2,0.5-0.2,0.8,0c1.5,1.5,4.1,1.5,5.6,0c0.2-0.2,0.5-0.2,0.8,0
				S98.4,40.9,98.2,41.1z"/>
			<path d="M107.4,56.6c-0.2,0.2-0.5,0.2-0.8,0c-2-2-2-5.2,0-7.1c0.2-0.2,0.5-0.2,0.8,0s0.2,0.5,0,0.8c-1.5,1.5-1.5,4.1,0,5.6
				C107.6,56,107.6,56.4,107.4,56.6z"/>
			<path d="M71.2,68c-0.2,0.2-0.5,0.2-0.8,0c-0.2-0.2-0.2-0.5,0-0.8c1.5-1.5,1.5-4.1,0-5.6c-0.2-0.2-0.2-0.5,0-0.8
				c0.2-0.2,0.5-0.2,0.8,0C73.2,62.9,73.2,66.1,71.2,68z"/>
			<path d="M86.8,77.2c-0.2,0.2-0.5,0.2-0.8,0c-1.5-1.5-4.1-1.5-5.6,0c-0.2,0.2-0.5,0.2-0.8,0s-0.2-0.5,0-0.8c2-2,5.2-2,7.1,0
				C87,76.6,87,77,86.8,77.2z"/>
		</g>
		<path class="st3" d="M93.5,56.7c-0.4,0.1-0.6,0.4-0.4,0.8c0.6,1.5,0.3,3.1-0.7,4.1c-1,1-2.4,1.3-3.8,0.9l2.1-2.1
			c0.3-0.3,0.3-0.6,0-0.9c-0.3-0.3-0.6-0.3-0.9,0L87.3,62c-0.3-0.2-0.6-0.4-0.9-0.7c-0.2-0.2-0.5-0.5-0.6-0.8l2.4-2.4
			c0.3-0.3,0.3-0.6,0-0.9c-0.3-0.3-0.6-0.3-0.9,0l-2.1,2.1c-0.4-1.4-0.2-2.9,0.9-3.9c1-1,2.6-1.3,4.1-0.7c0.4,0,0.6-0.1,0.8-0.4
			c0-0.4-0.1-0.6-0.4-0.8c-2.1-0.8-4.1-0.4-5.5,1c-1.6,1.6-1.8,3.9-0.9,5.9l-1,1c-0.3,0.3-0.3,0.6,0,0.9c0.3,0.3,0.6,0.3,0.9,0
			l0.8-0.8c0.2,0.2,0.4,0.5,0.6,0.7c0.3,0.3,0.6,0.6,1,0.8l-0.8,0.8c-0.3,0.3-0.3,0.6,0,0.9c0.3,0.3,0.6,0.3,0.9,0l1.1-1.1
			c1.9,0.7,4.1,0.4,5.5-1c1.3-1.3,1.8-3.4,1.2-5.3C94.2,56.7,93.9,56.5,93.5,56.7z"/>
	</g>
</g>
<g id="Layer_4">
	<g>
		<g>
			<g>
				<path d="M14.1,0.3C13.9,0.1,13.7,0,13.5,0s-0.4,0.1-0.6,0.3C12.4,0.9,0,15.3,0,22.5C0,29.9,6.1,36,13.5,36S27,29.9,27,22.5
					C27,15.3,14.6,0.9,14.1,0.3z M13.5,34.5c-6.6,0-12-5.4-12-12c0-5.9,9.6-17.7,12-20.6c1.1,1.3,3.4,4.2,5.8,7.5
					c4.1,5.8,6.2,10.4,6.2,13.1C25.5,29.1,20.1,34.5,13.5,34.5z"/>
			</g>
		</g>
		<g>
			<g>
				<path d="M13.5,30.7c-4.5,0-8.2-3.7-8.2-8.2c0-0.4-0.3-0.8-0.8-0.8c-0.4,0-0.8,0.3-0.8,0.8c0,5.4,4.4,9.8,9.8,9.8
					c0.4,0,0.8-0.3,0.8-0.8C14.3,31.1,13.9,30.7,13.5,30.7z"/>
			</g>
		</g>
	</g>
	<g>
		<g>
			<g>
				<path d="M176.1,0.3c-0.1-0.2-0.3-0.3-0.6-0.3s-0.4,0.1-0.6,0.3c-0.5,0.6-12.9,15-12.9,22.2c0,7.4,6.1,13.5,13.5,13.5
					S189,29.9,189,22.5C189,15.3,176.6,0.9,176.1,0.3z M175.5,34.5c-6.6,0-12-5.4-12-12c0-5.9,9.6-17.7,12-20.6
					c1.1,1.3,3.4,4.2,5.8,7.5c4.1,5.8,6.2,10.4,6.2,13.1C187.5,29.1,182.1,34.5,175.5,34.5z"/>
			</g>
		</g>
		<g>
			<g>
				<path d="M175.5,30.7c-4.5,0-8.2-3.7-8.2-8.2c0-0.4-0.3-0.8-0.8-0.8c-0.4,0-0.8,0.3-0.8,0.8c0,5.4,4.4,9.8,9.8,9.8
					c0.4,0,0.8-0.3,0.8-0.8C176.3,31.1,175.9,30.7,175.5,30.7z"/>
			</g>
		</g>
	</g>
	<g>
		<g>
			<g>
				<path d="M122.1,0.3c-0.1-0.2-0.3-0.3-0.6-0.3s-0.4,0.1-0.6,0.3c-0.5,0.6-12.9,15-12.9,22.2c0,7.4,6.1,13.5,13.5,13.5
					S135,29.9,135,22.5C135,15.3,122.6,0.9,122.1,0.3z M121.5,34.5c-6.6,0-12-5.4-12-12c0-5.9,9.6-17.7,12-20.6
					c1.1,1.3,3.4,4.2,5.8,7.5c4.1,5.8,6.2,10.4,6.2,13.1C133.5,29.1,128.1,34.5,121.5,34.5z"/>
			</g>
		</g>
		<g>
			<g>
				<path d="M121.5,30.7c-4.5,0-8.2-3.7-8.2-8.2c0-0.4-0.3-0.8-0.8-0.8c-0.4,0-0.8,0.3-0.8,0.8c0,5.4,4.4,9.8,9.8,9.8
					c0.4,0,0.8-0.3,0.8-0.8C122.3,31.1,121.9,30.7,121.5,30.7z"/>
			</g>
		</g>
	</g>
	<g>
		<g>
			<g>
				<path d="M14.1,52.6c-0.1-0.2-0.3-0.3-0.6-0.3s-0.4,0.1-0.6,0.3C12.4,53.2,0,67.6,0,74.8c0,7.4,6.1,13.5,13.5,13.5
					S27,82.3,27,74.8C27,67.6,14.6,53.2,14.1,52.6z M13.5,86.8c-6.6,0-12-5.4-12-12c0-5.9,9.6-17.7,12-20.6c1.1,1.3,3.4,4.2,5.8,7.5
					c4.1,5.8,6.2,10.4,6.2,13.1C25.5,81.5,20.1,86.8,13.5,86.8z"/>
			</g>
		</g>
		<g>
			<g>
				<path d="M13.5,83.1c-4.5,0-8.2-3.7-8.2-8.2c0-0.4-0.3-0.8-0.8-0.8c-0.4,0-0.8,0.3-0.8,0.8c0,5.4,4.4,9.8,9.8,9.8
					c0.4,0,0.8-0.3,0.8-0.8C14.3,83.4,13.9,83.1,13.5,83.1z"/>
			</g>
		</g>
	</g>
	<g>
		<g>
			<g>
				<path d="M176.1,52.6c-0.1-0.2-0.3-0.3-0.6-0.3s-0.4,0.1-0.6,0.3c-0.5,0.6-12.9,15-12.9,22.2c0,7.4,6.1,13.5,13.5,13.5
					S189,82.3,189,74.8C189,67.6,176.6,53.2,176.1,52.6z M175.5,86.8c-6.6,0-12-5.4-12-12c0-5.9,9.6-17.7,12-20.6
					c1.1,1.3,3.4,4.2,5.8,7.5c4.1,5.8,6.2,10.4,6.2,13.1C187.5,81.5,182.1,86.8,175.5,86.8z"/>
			</g>
		</g>
		<g>
			<g>
				<path d="M175.5,83.1c-4.5,0-8.2-3.7-8.2-8.2c0-0.4-0.3-0.8-0.8-0.8c-0.4,0-0.8,0.3-0.8,0.8c0,5.4,4.4,9.8,9.8,9.8
					c0.4,0,0.8-0.3,0.8-0.8C176.3,83.4,175.9,83.1,175.5,83.1z"/>
			</g>
		</g>
	</g>
	<g>
		<g>
			<g>
				<path d="M122.1,52.6c-0.1-0.2-0.3-0.3-0.6-0.3s-0.4,0.1-0.6,0.3c-0.5,0.6-12.9,15-12.9,22.2c0,7.4,6.1,13.5,13.5,13.5
					S135,82.3,135,74.8C135,67.6,122.6,53.2,122.1,52.6z M121.5,86.8c-6.6,0-12-5.4-12-12c0-5.9,9.6-17.7,12-20.6
					c1.1,1.3,3.4,4.2,5.8,7.5c4.1,5.8,6.2,10.4,6.2,13.1C133.5,81.5,128.1,86.8,121.5,86.8z"/>
			</g>
		</g>
		<g>
			<g>
				<path d="M121.5,83.1c-4.5,0-8.2-3.7-8.2-8.2c0-0.4-0.3-0.8-0.8-0.8c-0.4,0-0.8,0.3-0.8,0.8c0,5.4,4.4,9.8,9.8,9.8
					c0.4,0,0.8-0.3,0.8-0.8C122.3,83.4,121.9,83.1,121.5,83.1z"/>
			</g>
		</g>
	</g>
	<g>
		<g>
			<g>
				<path d="M14.1,104.9c-0.1-0.2-0.3-0.3-0.6-0.3s-0.4,0.1-0.6,0.3c-0.5,0.6-12.9,15-12.9,22.2c0,7.4,6.1,13.5,13.5,13.5
					S27,134.6,27,127.2C27,119.9,14.6,105.5,14.1,104.9z M13.5,139.2c-6.6,0-12-5.4-12-12c0-5.9,9.6-17.7,12-20.6
					c1.1,1.3,3.4,4.2,5.8,7.5c4.1,5.8,6.2,10.4,6.2,13.1C25.5,133.8,20.1,139.2,13.5,139.2z"/>
			</g>
		</g>
		<g>
			<g>
				<path d="M13.5,135.4c-4.5,0-8.2-3.7-8.2-8.2c0-0.4-0.3-0.8-0.8-0.8c-0.4,0-0.8,0.3-0.8,0.8c0,5.4,4.4,9.8,9.8,9.8
					c0.4,0,0.8-0.3,0.8-0.8C14.3,135.8,13.9,135.4,13.5,135.4z"/>
			</g>
		</g>
	</g>
	<g>
		<g>
			<g>
				<path d="M176.1,104.9c-0.1-0.2-0.3-0.3-0.6-0.3s-0.4,0.1-0.6,0.3c-0.5,0.6-12.9,15-12.9,22.2c0,7.4,6.1,13.5,13.5,13.5
					s13.5-6.1,13.5-13.5C189,119.9,176.6,105.5,176.1,104.9z M175.5,139.2c-6.6,0-12-5.4-12-12c0-5.9,9.6-17.7,12-20.6
					c1.1,1.3,3.4,4.2,5.8,7.5c4.1,5.8,6.2,10.4,6.2,13.1C187.5,133.8,182.1,139.2,175.5,139.2z"/>
			</g>
		</g>
		<g>
			<g>
				<path d="M175.5,135.4c-4.5,0-8.2-3.7-8.2-8.2c0-0.4-0.3-0.8-0.8-0.8c-0.4,0-0.8,0.3-0.8,0.8c0,5.4,4.4,9.8,9.8,9.8
					c0.4,0,0.8-0.3,0.8-0.8C176.3,135.8,175.9,135.4,175.5,135.4z"/>
			</g>
		</g>
	</g>
	<g>
		<g>
			<g>
				<path d="M122.1,104.9c-0.1-0.2-0.3-0.3-0.6-0.3s-0.4,0.1-0.6,0.3c-0.5,0.6-12.9,15-12.9,22.2c0,7.4,6.1,13.5,13.5,13.5
					s13.5-6.1,13.5-13.5C135,119.9,122.6,105.5,122.1,104.9z M121.5,139.2c-6.6,0-12-5.4-12-12c0-5.9,9.6-17.7,12-20.6
					c1.1,1.3,3.4,4.2,5.8,7.5c4.1,5.8,6.2,10.4,6.2,13.1C133.5,133.8,128.1,139.2,121.5,139.2z"/>
			</g>
		</g>
		<g>
			<g>
				<path d="M121.5,135.4c-4.5,0-8.2-3.7-8.2-8.2c0-0.4-0.3-0.8-0.8-0.8c-0.4,0-0.8,0.3-0.8,0.8c0,5.4,4.4,9.8,9.8,9.8
					c0.4,0,0.8-0.3,0.8-0.8C122.3,135.8,121.9,135.4,121.5,135.4z"/>
			</g>
		</g>
	</g>
	<g>
		<g>
			<g>
				<path d="M14.1,157.3c-0.1-0.2-0.3-0.3-0.6-0.3s-0.4,0.1-0.6,0.3c-0.5,0.6-12.9,15-12.9,22.2c0,7.4,6.1,13.5,13.5,13.5
					S27,186.9,27,179.5C27,172.3,14.6,157.9,14.1,157.3z M13.5,191.5c-6.6,0-12-5.4-12-12c0-5.9,9.6-17.7,12-20.6
					c1.1,1.3,3.4,4.2,5.8,7.5c4.1,5.8,6.2,10.4,6.2,13.1C25.5,186.1,20.1,191.5,13.5,191.5z"/>
			</g>
		</g>
		<g>
			<g>
				<path d="M13.5,187.7c-4.5,0-8.2-3.7-8.2-8.2c0-0.4-0.3-0.8-0.8-0.8c-0.4,0-0.8,0.3-0.8,0.8c0,5.4,4.4,9.8,9.8,9.8
					c0.4,0,0.8-0.3,0.8-0.8C14.3,188.1,13.9,187.7,13.5,187.7z"/>
			</g>
		</g>
	</g>
	<g>
		<g>
			<g>
				<path d="M68.1,0.3C67.9,0.1,67.7,0,67.5,0s-0.4,0.1-0.6,0.3C66.4,0.9,54,15.3,54,22.5C54,29.9,60.1,36,67.5,36S81,29.9,81,22.5
					C81,15.3,68.6,0.9,68.1,0.3z M67.5,34.5c-6.6,0-12-5.4-12-12c0-5.9,9.6-17.7,12-20.6c1.1,1.3,3.4,4.2,5.8,7.5
					c4.1,5.8,6.2,10.4,6.2,13.1C79.5,29.1,74.1,34.5,67.5,34.5z"/>
			</g>
		</g>
		<g>
			<g>
				<path d="M67.5,30.7c-4.5,0-8.2-3.7-8.2-8.2c0-0.4-0.3-0.8-0.8-0.8c-0.4,0-0.8,0.3-0.8,0.8c0,5.4,4.4,9.8,9.8,9.8
					c0.4,0,0.8-0.3,0.8-0.8C68.3,31.1,67.9,30.7,67.5,30.7z"/>
			</g>
		</g>
	</g>
	<g>
		<g>
			<g>
				<path d="M68.1,52.6c-0.1-0.2-0.3-0.3-0.6-0.3s-0.4,0.1-0.6,0.3C66.4,53.2,54,67.6,54,74.8c0,7.4,6.1,13.5,13.5,13.5
					S81,82.3,81,74.8C81,67.6,68.6,53.2,68.1,52.6z M67.5,86.8c-6.6,0-12-5.4-12-12c0-5.9,9.6-17.7,12-20.6c1.1,1.3,3.4,4.2,5.8,7.5
					c4.1,5.8,6.2,10.4,6.2,13.1C79.5,81.5,74.1,86.8,67.5,86.8z"/>
			</g>
		</g>
		<g>
			<g>
				<path d="M67.5,83.1c-4.5,0-8.2-3.7-8.2-8.2c0-0.4-0.3-0.8-0.8-0.8c-0.4,0-0.8,0.3-0.8,0.8c0,5.4,4.4,9.8,9.8,9.8
					c0.4,0,0.8-0.3,0.8-0.8C68.3,83.4,67.9,83.1,67.5,83.1z"/>
			</g>
		</g>
	</g>
	<g>
		<g>
			<g>
				<path d="M68.1,104.9c-0.1-0.2-0.3-0.3-0.6-0.3s-0.4,0.1-0.6,0.3c-0.5,0.6-12.9,15-12.9,22.2c0,7.4,6.1,13.5,13.5,13.5
					S81,134.6,81,127.2C81,119.9,68.6,105.5,68.1,104.9z M67.5,139.2c-6.6,0-12-5.4-12-12c0-5.9,9.6-17.7,12-20.6
					c1.1,1.3,3.4,4.2,5.8,7.5c4.1,5.8,6.2,10.4,6.2,13.1C79.5,133.8,74.1,139.2,67.5,139.2z"/>
			</g>
		</g>
		<g>
			<g>
				<path d="M67.5,135.4c-4.5,0-8.2-3.7-8.2-8.2c0-0.4-0.3-0.8-0.8-0.8c-0.4,0-0.8,0.3-0.8,0.8c0,5.4,4.4,9.8,9.8,9.8
					c0.4,0,0.8-0.3,0.8-0.8C68.3,135.8,67.9,135.4,67.5,135.4z"/>
			</g>
		</g>
	</g>
	<g>
		<g>
			<g>
				<path d="M68.1,157.3c-0.1-0.2-0.3-0.3-0.6-0.3s-0.4,0.1-0.6,0.3c-0.5,0.6-12.9,15-12.9,22.2c0,7.4,6.1,13.5,13.5,13.5
					S81,186.9,81,179.5C81,172.3,68.6,157.9,68.1,157.3z M67.5,191.5c-6.6,0-12-5.4-12-12c0-5.9,9.6-17.7,12-20.6
					c1.1,1.3,3.4,4.2,5.8,7.5c4.1,5.8,6.2,10.4,6.2,13.1C79.5,186.1,74.1,191.5,67.5,191.5z"/>
			</g>
		</g>
		<g>
			<g>
				<path d="M67.5,187.7c-4.5,0-8.2-3.7-8.2-8.2c0-0.4-0.3-0.8-0.8-0.8c-0.4,0-0.8,0.3-0.8,0.8c0,5.4,4.4,9.8,9.8,9.8
					c0.4,0,0.8-0.3,0.8-0.8C68.3,188.1,67.9,187.7,67.5,187.7z"/>
			</g>
		</g>
	</g>
	<g>
		<g>
			<g>
				<path d="M176.1,157.3c-0.1-0.2-0.3-0.3-0.6-0.3s-0.4,0.1-0.6,0.3c-0.5,0.6-12.9,15-12.9,22.2c0,7.4,6.1,13.5,13.5,13.5
					s13.5-6.1,13.5-13.5C189,172.3,176.6,157.9,176.1,157.3z M175.5,191.5c-6.6,0-12-5.4-12-12c0-5.9,9.6-17.7,12-20.6
					c1.1,1.3,3.4,4.2,5.8,7.5c4.1,5.8,6.2,10.4,6.2,13.1C187.5,186.1,182.1,191.5,175.5,191.5z"/>
			</g>
		</g>
		<g>
			<g>
				<path d="M175.5,187.7c-4.5,0-8.2-3.7-8.2-8.2c0-0.4-0.3-0.8-0.8-0.8c-0.4,0-0.8,0.3-0.8,0.8c0,5.4,4.4,9.8,9.8,9.8
					c0.4,0,0.8-0.3,0.8-0.8C176.3,188.1,175.9,187.7,175.5,187.7z"/>
			</g>
		</g>
	</g>
	<g>
		<g>
			<g>
				<path d="M122.1,157.3c-0.1-0.2-0.3-0.3-0.6-0.3s-0.4,0.1-0.6,0.3c-0.5,0.6-12.9,15-12.9,22.2c0,7.4,6.1,13.5,13.5,13.5
					s13.5-6.1,13.5-13.5C135,172.3,122.6,157.9,122.1,157.3z M121.5,191.5c-6.6,0-12-5.4-12-12c0-5.9,9.6-17.7,12-20.6
					c1.1,1.3,3.4,4.2,5.8,7.5c4.1,5.8,6.2,10.4,6.2,13.1C133.5,186.1,128.1,191.5,121.5,191.5z"/>
			</g>
		</g>
		<g>
			<g>
				<path d="M121.5,187.7c-4.5,0-8.2-3.7-8.2-8.2c0-0.4-0.3-0.8-0.8-0.8c-0.4,0-0.8,0.3-0.8,0.8c0,5.4,4.4,9.8,9.8,9.8
					c0.4,0,0.8-0.3,0.8-0.8C122.3,188.1,121.9,187.7,121.5,187.7z"/>
			</g>
		</g>
	</g>
	<g>
		<g>
			<g>
				<path d="M149.1,22c-0.1-0.2-0.3-0.3-0.6-0.3s-0.4,0.1-0.6,0.3c-0.5,0.6-12.9,15-12.9,22.2c0,7.4,6.1,13.5,13.5,13.5
					S162,51.7,162,44.2C162,37,149.6,22.6,149.1,22z M148.5,56.2c-6.6,0-12-5.4-12-12c0-5.9,9.6-17.7,12-20.6
					c1.1,1.3,3.4,4.2,5.8,7.5c4.1,5.8,6.2,10.4,6.2,13.1C160.5,50.9,155.1,56.2,148.5,56.2z"/>
			</g>
		</g>
		<g>
			<g>
				<path d="M148.5,52.5c-4.5,0-8.2-3.7-8.2-8.2c0-0.4-0.3-0.8-0.8-0.8c-0.4,0-0.8,0.3-0.8,0.8c0,5.4,4.4,9.8,9.8,9.8
					c0.4,0,0.8-0.3,0.8-0.8C149.3,52.8,148.9,52.5,148.5,52.5z"/>
			</g>
		</g>
	</g>
	<g>
		<g>
			<g>
				<path d="M149.1,74.3c-0.1-0.2-0.3-0.3-0.6-0.3s-0.4,0.1-0.6,0.3c-0.5,0.6-12.9,15-12.9,22.2c0,7.4,6.1,13.5,13.5,13.5
					S162,104,162,96.6C162,89.3,149.6,75,149.1,74.3z M148.5,108.6c-6.6,0-12-5.4-12-12c0-5.9,9.6-17.7,12-20.6
					c1.1,1.3,3.4,4.2,5.8,7.5c4.1,5.8,6.2,10.4,6.2,13.1C160.5,103.2,155.1,108.6,148.5,108.6z"/>
			</g>
		</g>
		<g>
			<g>
				<path d="M148.5,104.8c-4.5,0-8.2-3.7-8.2-8.2c0-0.4-0.3-0.8-0.8-0.8c-0.4,0-0.8,0.3-0.8,0.8c0,5.4,4.4,9.8,9.8,9.8
					c0.4,0,0.8-0.3,0.8-0.8C149.3,105.2,148.9,104.8,148.5,104.8z"/>
			</g>
		</g>
	</g>
	<g>
		<g>
			<g>
				<path d="M149.1,126.7c-0.1-0.2-0.3-0.3-0.6-0.3s-0.4,0.1-0.6,0.3c-0.5,0.6-12.9,15-12.9,22.2c0,7.4,6.1,13.5,13.5,13.5
					s13.5-6.1,13.5-13.5C162,141.7,149.6,127.3,149.1,126.7z M148.5,160.9c-6.6,0-12-5.4-12-12c0-5.9,9.6-17.7,12-20.6
					c1.1,1.3,3.4,4.2,5.8,7.5c4.1,5.8,6.2,10.4,6.2,13.1C160.5,155.5,155.1,160.9,148.5,160.9z"/>
			</g>
		</g>
		<g>
			<g>
				<path d="M148.5,157.2c-4.5,0-8.2-3.7-8.2-8.2c0-0.4-0.3-0.8-0.8-0.8c-0.4,0-0.8,0.3-0.8,0.8c0,5.4,4.4,9.8,9.8,9.8
					c0.4,0,0.8-0.3,0.8-0.8C149.3,157.5,148.9,157.2,148.5,157.2z"/>
			</g>
		</g>
	</g>
	<g>
		<g>
			<g>
				<path d="M149.1,179c-0.1-0.2-0.3-0.3-0.6-0.3s-0.4,0.1-0.6,0.3c-0.5,0.6-12.9,15-12.9,22.2c0,7.4,6.1,13.5,13.5,13.5
					s13.5-6.1,13.5-13.5C162,194,149.6,179.6,149.1,179z M148.5,213.2c-6.6,0-12-5.4-12-12c0-5.9,9.6-17.7,12-20.6
					c1.1,1.3,3.4,4.2,5.8,7.5c4.1,5.8,6.2,10.4,6.2,13.1C160.5,207.9,155.1,213.2,148.5,213.2z"/>
			</g>
		</g>
		<g>
			<g>
				<path d="M148.5,209.5c-4.5,0-8.2-3.7-8.2-8.2c0-0.4-0.3-0.8-0.8-0.8c-0.4,0-0.8,0.3-0.8,0.8c0,5.4,4.4,9.8,9.8,9.8
					c0.4,0,0.8-0.3,0.8-0.8C149.3,209.8,148.9,209.5,148.5,209.5z"/>
			</g>
		</g>
	</g>
	<g>
		<g>
			<g>
				<path d="M203.1,22c-0.1-0.2-0.3-0.3-0.6-0.3s-0.4,0.1-0.6,0.3c-0.5,0.6-12.9,15-12.9,22.2c0,7.4,6.1,13.5,13.5,13.5
					S216,51.7,216,44.2C216,37,203.6,22.6,203.1,22z M202.5,56.2c-6.6,0-12-5.4-12-12c0-5.9,9.6-17.7,12-20.6
					c1.1,1.3,3.4,4.2,5.8,7.5c4.1,5.8,6.2,10.4,6.2,13.1C214.5,50.9,209.1,56.2,202.5,56.2z"/>
			</g>
		</g>
		<g>
			<g>
				<path d="M202.5,52.5c-4.5,0-8.2-3.7-8.2-8.2c0-0.4-0.3-0.8-0.8-0.8c-0.4,0-0.8,0.3-0.8,0.8c0,5.4,4.4,9.8,9.8,9.8
					c0.4,0,0.8-0.3,0.8-0.8C203.3,52.8,202.9,52.5,202.5,52.5z"/>
			</g>
		</g>
	</g>
	<g>
		<g>
			<g>
				<path d="M203.1,74.3c-0.1-0.2-0.3-0.3-0.6-0.3s-0.4,0.1-0.6,0.3c-0.5,0.6-12.9,15-12.9,22.2c0,7.4,6.1,13.5,13.5,13.5
					S216,104,216,96.6C216,89.3,203.6,75,203.1,74.3z M202.5,108.6c-6.6,0-12-5.4-12-12c0-5.9,9.6-17.7,12-20.6
					c1.1,1.3,3.4,4.2,5.8,7.5c4.1,5.8,6.2,10.4,6.2,13.1C214.5,103.2,209.1,108.6,202.5,108.6z"/>
			</g>
		</g>
		<g>
			<g>
				<path d="M202.5,104.8c-4.5,0-8.2-3.7-8.2-8.2c0-0.4-0.3-0.8-0.8-0.8c-0.4,0-0.8,0.3-0.8,0.8c0,5.4,4.4,9.8,9.8,9.8
					c0.4,0,0.8-0.3,0.8-0.8C203.3,105.2,202.9,104.8,202.5,104.8z"/>
			</g>
		</g>
	</g>
	<g>
		<g>
			<g>
				<path d="M203.1,126.7c-0.1-0.2-0.3-0.3-0.6-0.3s-0.4,0.1-0.6,0.3c-0.5,0.6-12.9,15-12.9,22.2c0,7.4,6.1,13.5,13.5,13.5
					s13.5-6.1,13.5-13.5C216,141.7,203.6,127.3,203.1,126.7z M202.5,160.9c-6.6,0-12-5.4-12-12c0-5.9,9.6-17.7,12-20.6
					c1.1,1.3,3.4,4.2,5.8,7.5c4.1,5.8,6.2,10.4,6.2,13.1C214.5,155.5,209.1,160.9,202.5,160.9z"/>
			</g>
		</g>
		<g>
			<g>
				<path d="M202.5,157.2c-4.5,0-8.2-3.7-8.2-8.2c0-0.4-0.3-0.8-0.8-0.8c-0.4,0-0.8,0.3-0.8,0.8c0,5.4,4.4,9.8,9.8,9.8
					c0.4,0,0.8-0.3,0.8-0.8C203.3,157.5,202.9,157.2,202.5,157.2z"/>
			</g>
		</g>
	</g>
	<g>
		<g>
			<g>
				<path d="M203.1,179c-0.1-0.2-0.3-0.3-0.6-0.3s-0.4,0.1-0.6,0.3c-0.5,0.6-12.9,15-12.9,22.2c0,7.4,6.1,13.5,13.5,13.5
					s13.5-6.1,13.5-13.5C216,194,203.6,179.6,203.1,179z M202.5,213.2c-6.6,0-12-5.4-12-12c0-5.9,9.6-17.7,12-20.6
					c1.1,1.3,3.4,4.2,5.8,7.5c4.1,5.8,6.2,10.4,6.2,13.1C214.5,207.9,209.1,213.2,202.5,213.2z"/>
			</g>
		</g>
		<g>
			<g>
				<path d="M202.5,209.5c-4.5,0-8.2-3.7-8.2-8.2c0-0.4-0.3-0.8-0.8-0.8c-0.4,0-0.8,0.3-0.8,0.8c0,5.4,4.4,9.8,9.8,9.8
					c0.4,0,0.8-0.3,0.8-0.8C203.3,209.8,202.9,209.5,202.5,209.5z"/>
			</g>
		</g>
	</g>
	<g>
		<g>
			<g>
				<path d="M95.1,22c-0.1-0.2-0.3-0.3-0.6-0.3s-0.4,0.1-0.6,0.3C93.4,22.6,81,37,81,44.2c0,7.4,6.1,13.5,13.5,13.5
					S108,51.7,108,44.2C108,37,95.6,22.6,95.1,22z M94.5,56.2c-6.6,0-12-5.4-12-12c0-5.9,9.6-17.7,12-20.6c1.1,1.3,3.4,4.2,5.8,7.5
					c4.1,5.8,6.2,10.4,6.2,13.1C106.5,50.9,101.1,56.2,94.5,56.2z"/>
			</g>
		</g>
		<g>
			<g>
				<path d="M94.5,52.5c-4.5,0-8.2-3.7-8.2-8.2c0-0.4-0.3-0.8-0.8-0.8c-0.4,0-0.8,0.3-0.8,0.8c0,5.4,4.4,9.8,9.8,9.8
					c0.4,0,0.8-0.3,0.8-0.8C95.3,52.8,94.9,52.5,94.5,52.5z"/>
			</g>
		</g>
	</g>
	<g>
		<g>
			<g>
				<path d="M95.1,74.3c-0.1-0.2-0.3-0.3-0.6-0.3s-0.4,0.1-0.6,0.3C93.4,75,81,89.3,81,96.6c0,7.4,6.1,13.5,13.5,13.5
					S108,104,108,96.6C108,89.3,95.6,75,95.1,74.3z M94.5,108.6c-6.6,0-12-5.4-12-12c0-5.9,9.6-17.7,12-20.6
					c1.1,1.3,3.4,4.2,5.8,7.5c4.1,5.8,6.2,10.4,6.2,13.1C106.5,103.2,101.1,108.6,94.5,108.6z"/>
			</g>
		</g>
		<g>
			<g>
				<path d="M94.5,104.8c-4.5,0-8.2-3.7-8.2-8.2c0-0.4-0.3-0.8-0.8-0.8c-0.4,0-0.8,0.3-0.8,0.8c0,5.4,4.4,9.8,9.8,9.8
					c0.4,0,0.8-0.3,0.8-0.8C95.3,105.2,94.9,104.8,94.5,104.8z"/>
			</g>
		</g>
	</g>
	<g>
		<g>
			<g>
				<path d="M95.1,126.7c-0.1-0.2-0.3-0.3-0.6-0.3s-0.4,0.1-0.6,0.3c-0.5,0.6-12.9,15-12.9,22.2c0,7.4,6.1,13.5,13.5,13.5
					s13.5-6.1,13.5-13.5C108,141.7,95.6,127.3,95.1,126.7z M94.5,160.9c-6.6,0-12-5.4-12-12c0-5.9,9.6-17.7,12-20.6
					c1.1,1.3,3.4,4.2,5.8,7.5c4.1,5.8,6.2,10.4,6.2,13.1C106.5,155.5,101.1,160.9,94.5,160.9z"/>
			</g>
		</g>
		<g>
			<g>
				<path d="M94.5,157.2c-4.5,0-8.2-3.7-8.2-8.2c0-0.4-0.3-0.8-0.8-0.8c-0.4,0-0.8,0.3-0.8,0.8c0,5.4,4.4,9.8,9.8,9.8
					c0.4,0,0.8-0.3,0.8-0.8C95.3,157.5,94.9,157.2,94.5,157.2z"/>
			</g>
		</g>
	</g>
	<g>
		<g>
			<g>
				<path d="M95.1,179c-0.1-0.2-0.3-0.3-0.6-0.3s-0.4,0.1-0.6,0.3c-0.5,0.6-12.9,15-12.9,22.2c0,7.4,6.1,13.5,13.5,13.5
					s13.5-6.1,13.5-13.5C108,194,95.6,179.6,95.1,179z M94.5,213.2c-6.6,0-12-5.4-12-12c0-5.9,9.6-17.7,12-20.6
					c1.1,1.3,3.4,4.2,5.8,7.5c4.1,5.8,6.2,10.4,6.2,13.1C106.5,207.9,101.1,213.2,94.5,213.2z"/>
			</g>
		</g>
		<g>
			<g>
				<path d="M94.5,209.5c-4.5,0-8.2-3.7-8.2-8.2c0-0.4-0.3-0.8-0.8-0.8c-0.4,0-0.8,0.3-0.8,0.8c0,5.4,4.4,9.8,9.8,9.8
					c0.4,0,0.8-0.3,0.8-0.8C95.3,209.8,94.9,209.5,94.5,209.5z"/>
			</g>
		</g>
	</g>
	<g>
		<g>
			<g>
				<path d="M41.1,22c-0.1-0.2-0.3-0.3-0.6-0.3s-0.4,0.1-0.6,0.3C39.4,22.6,27,37,27,44.2c0,7.4,6.1,13.5,13.5,13.5S54,51.7,54,44.2
					C54,37,41.6,22.6,41.1,22z M40.5,56.2c-6.6,0-12-5.4-12-12c0-5.9,9.6-17.7,12-20.6c1.1,1.3,3.4,4.2,5.8,7.5
					c4.1,5.8,6.2,10.4,6.2,13.1C52.5,50.9,47.1,56.2,40.5,56.2z"/>
			</g>
		</g>
		<g>
			<g>
				<path d="M40.5,52.5c-4.5,0-8.2-3.7-8.2-8.2c0-0.4-0.3-0.8-0.8-0.8c-0.4,0-0.8,0.3-0.8,0.8c0,5.4,4.4,9.8,9.8,9.8
					c0.4,0,0.8-0.3,0.8-0.8C41.3,52.8,40.9,52.5,40.5,52.5z"/>
			</g>
		</g>
	</g>
	<g>
		<g>
			<g>
				<path d="M41.1,74.3c-0.1-0.2-0.3-0.3-0.6-0.3s-0.4,0.1-0.6,0.3C39.4,75,27,89.3,27,96.6c0,7.4,6.1,13.5,13.5,13.5
					S54,104,54,96.6C54,89.3,41.6,75,41.1,74.3z M40.5,108.6c-6.6,0-12-5.4-12-12c0-5.9,9.6-17.7,12-20.6c1.1,1.3,3.4,4.2,5.8,7.5
					c4.1,5.8,6.2,10.4,6.2,13.1C52.5,103.2,47.1,108.6,40.5,108.6z"/>
			</g>
		</g>
		<g>
			<g>
				<path d="M40.5,104.8c-4.5,0-8.2-3.7-8.2-8.2c0-0.4-0.3-0.8-0.8-0.8c-0.4,0-0.8,0.3-0.8,0.8c0,5.4,4.4,9.8,9.8,9.8
					c0.4,0,0.8-0.3,0.8-0.8C41.3,105.2,40.9,104.8,40.5,104.8z"/>
			</g>
		</g>
	</g>
	<g>
		<g>
			<g>
				<path d="M41.1,126.7c-0.1-0.2-0.3-0.3-0.6-0.3s-0.4,0.1-0.6,0.3c-0.5,0.6-12.9,15-12.9,22.2c0,7.4,6.1,13.5,13.5,13.5
					S54,156.4,54,148.9C54,141.7,41.6,127.3,41.1,126.7z M40.5,160.9c-6.6,0-12-5.4-12-12c0-5.9,9.6-17.7,12-20.6
					c1.1,1.3,3.4,4.2,5.8,7.5c4.1,5.8,6.2,10.4,6.2,13.1C52.5,155.5,47.1,160.9,40.5,160.9z"/>
			</g>
		</g>
		<g>
			<g>
				<path d="M40.5,157.2c-4.5,0-8.2-3.7-8.2-8.2c0-0.4-0.3-0.8-0.8-0.8c-0.4,0-0.8,0.3-0.8,0.8c0,5.4,4.4,9.8,9.8,9.8
					c0.4,0,0.8-0.3,0.8-0.8C41.3,157.5,40.9,157.2,40.5,157.2z"/>
			</g>
		</g>
	</g>
	<g>
		<g>
			<g>
				<path d="M41.1,179c-0.1-0.2-0.3-0.3-0.6-0.3s-0.4,0.1-0.6,0.3c-0.5,0.6-12.9,15-12.9,22.2c0,7.4,6.1,13.5,13.5,13.5
					S54,208.7,54,201.2C54,194,41.6,179.6,41.1,179z M40.5,213.2c-6.6,0-12-5.4-12-12c0-5.9,9.6-17.7,12-20.6
					c1.1,1.3,3.4,4.2,5.8,7.5c4.1,5.8,6.2,10.4,6.2,13.1C52.5,207.9,47.1,213.2,40.5,213.2z"/>
			</g>
		</g>
		<g>
			<g>
				<path d="M40.5,209.5c-4.5,0-8.2-3.7-8.2-8.2c0-0.4-0.3-0.8-0.8-0.8c-0.4,0-0.8,0.3-0.8,0.8c0,5.4,4.4,9.8,9.8,9.8
					c0.4,0,0.8-0.3,0.8-0.8C41.3,209.8,40.9,209.5,40.5,209.5z"/>
			</g>
		</g>
	</g>
</g>
</svg>
