<?xml version="1.0" standalone="no"?>
<!DOCTYPE svg PUBLIC "-//W3C//DTD SVG 1.1//EN" "http://www.w3.org/Graphics/SVG/1.1/DTD/svg11.dtd" >
<svg xmlns="http://www.w3.org/2000/svg">
<metadata>Generated by IcoMoon</metadata>
<defs>
<font id="icomoon" horiz-adv-x="1024">
<font-face units-per-em="1024" ascent="960" descent="-64" />
<missing-glyph horiz-adv-x="1024" />
<glyph unicode="&#x20;" horiz-adv-x="512" d="" />
<glyph unicode="&#xe900;" glyph-name="pav-overall-values" d="M984.486 303.656c-14.396 7.183-41.894 14.131-82.583-3.592-2.44 13.866-9.246 25.701-20.239 34.268-24.787 19.372-63.729 15.927-102.37-8.596-5 8.979-11.595 14.602-17.589 18.076-22.377 13.101-55.567 8.302-98.756-14.131l-132.578-68.948c-4.277-2.208-7.138-5.8-9.065-9.774-38.882 4.563-68.247 18.164-132.728 64.856l-87.552 63.443c-26.504 19.195-81.8 20.549-125.892 3.003l-161.611-64.209c-11.083-4.387-16.444-16.751-11.927-27.615 4.518-10.804 17.107-16.074 28.25-11.658l161.611 64.209c36.262 14.367 74.33 9.009 83.757 2.208l87.552-63.414c102.159-74.012 132.518-74.542 213.624-76.044 20.028-0.353 43.52-0.795 72.523-2.473 5.331-0.324 10.601-5.623 11.535-11.57 1.596-10.068-10.601-16.221-19.245-19.548-120.049-53.581-192.331-35.799-319.036 27.615-10.632 5.27-23.733 1.207-29.184-9.215-5.481-10.422-1.235-23.199 9.427-28.527 72.252-36.152 135.77-63.767 208.565-63.767 44.243 0 91.889 10.186 147.004 34.857 38.731 14.543 48.821 43.159 45.357 65.092-4.126 25.966-25.931 45.897-51.832 47.369-20.45 1.178-38.039 1.766-53.82 2.149l85.624 44.513c34.394 17.9 51.772 17.752 56.169 15.191 2.62-1.531 4.367-8.067 4.397-16.604 0.060-7.831 4.548-15.014 11.625-18.636 7.078-3.592 15.661-3.15 22.317 1.295l22.377 14.956c26.142 17.487 46.532 18.9 54.423 12.777 6.355-4.975 6.505-18.047 0.331-33.326-3.524-8.773-0.753-18.783 6.897-24.553 7.62-5.77 18.221-5.917 26.022-0.383 31.744 22.551 60.536 31.089 76.92 22.934 8.312-4.151 11.264-11.894 11.264-17.752-0.030-3.857-1.235-10.922-11.083-15.927l-351.895-217.297c-67.945-41.893-157.214-41.54-176.73-30.088-1.777 1.030-3.704 1.796-5.722 2.326-43.61 10.981-78.517 21.844-109.327 31.442-80.745 25.171-134.114 41.805-236.604 28.881-11.896-1.472-20.269-12.1-18.763-23.729 1.536-11.599 12.619-19.872 24.275-18.312 93.094 11.658 140.047-2.944 217.931-27.232 30.75-9.568 65.506-20.372 109.086-31.442 13.794-6.801 35.991-10.746 62.464-10.746 46.773 0 106.737 12.335 156.552 43.1l350.118 216.296c20.691 10.245 33.039 29.94 33.069 52.698 0 23.493-13.372 44.808-34.936 55.553zM517.105 916.795c131.44 0 238.382-106.947 238.382-238.365 0-131.447-106.942-238.425-238.382-238.425-131.41 0-238.352 106.977-238.352 238.425 0 131.417 106.942 238.365 238.352 238.365zM517.105 396.8c155.279 0 281.615 126.343 281.615 281.63 0 155.257-126.336 281.57-281.615 281.57s-281.585-126.313-281.585-281.57c0-155.287 126.306-281.63 281.585-281.63zM517.213 656.725h0.712c40.913 0.572 62.779-13.216 69.623-25.769 4.119-7.556 3.531-15.775-1.641-23.15-8.827-12.644-32.83-24.475-74.021-19.959-20.224 2.198-41.006 8.941-65.040 16.738l-4.646 1.505c-11.738 3.612-24.312-2.408-28.215-13.727-3.871-11.349 2.447-23.632 14.123-27.425l4.615-1.475c21.215-6.864 41.44-13.246 62.066-16.798v-46.27c0-11.981 10.004-21.675 22.33-21.675 12.296 0 22.299 9.693 22.299 21.675v44.072c36.794 2.378 67.053 15.654 83.375 38.925 14.495 20.712 16.043 46.089 4.15 67.854-16.941 31.067-56.461 48.799-108.492 48.799-0.403-0.030-0.805-0.030-1.239 0-41.78 0-63.894 13.216-70.676 25.619-5.079 9.332-1.827 17.43 1.765 22.608 9.106 12.975 33.697 25.227 75.322 20.681 20.379-2.228 41.347-9.031 65.628-16.918l4.243-1.355c11.769-3.914 24.343 2.348 28.215 13.697 3.902 11.349-2.416 23.632-14.123 27.395l-4.212 1.385c-21.866 7.105-42.709 13.637-63.956 17.189v46.059c0 11.951-10.004 21.675-22.299 21.675-12.327 0-22.33-9.724-22.33-21.675v-43.771c-36.856-2.589-66.898-16.497-83.344-39.978-14.433-20.651-16.043-45.818-4.274-67.343 16.879-30.887 56.987-48.588 110.041-48.588z" />
<glyph unicode="&#xe901;" glyph-name="pav-overall-econ-values" horiz-adv-x="1055" d="M762.672-20.865v0c132.026 0 239.45 107.424 239.45 239.45s-107.424 239.45-239.45 239.45c-132.026 0-239.45-107.424-239.45-239.45s107.424-239.45 239.45-239.45zM602.239 914.042v-463.109c35.688 24.721 77.37 41.262 122.347 47.375v415.734h-122.347zM339.356 136.541h122.317v575.597h-122.317v-575.597zM767.706 500.915c153.481-2.727 277.566-128.19 277.566-282.33 0-155.818-126.782-282.57-282.6-282.57-110.84 0-206.698 64.275-252.964 157.376h-488.129c-11.926 0-21.575 9.679-21.575 21.575 0 11.926 9.649 21.575 21.575 21.575h11.716v411.809c0 11.926 9.649 21.575 21.575 21.575h165.467c11.926 0 21.575-9.649 21.575-21.575v-411.809h54.327v597.172c0 11.896 9.649 21.545 21.545 21.545h165.467c11.896 0 21.575-9.649 21.575-21.545v-400.092c13.394 29.935 31.823 57.083 54.267 80.486v521.51c0 11.896 9.649 21.575 21.575 21.575h165.467c11.926 0 21.575-9.679 21.575-21.575v-434.702zM76.444 136.541h122.347v390.234h-122.347v-390.234zM881.978 335.414c0 0.030-0.030 0.030-0.030 0.061-1.1 2.643-2.675 5.043-4.606 7.018-1.605 1.671-3.537 2.795-5.557 3.828-0.446 0.243-0.802 0.668-1.278 0.881-2.586 1.094-5.32 1.671-8.173 1.671-0.059 0-0.089 0.030-0.119 0.030h-183.605c-11.798 0-21.368-9.783-21.368-21.844 0-12.092 9.57-21.875 21.368-21.875h127.614c-23.894-24.336-58.695-61.462-110.941-117.88-28.025-30.23-52.187-56.358-61.013-64.925-8.559-8.325-8.916-22.148-0.773-30.928 4.19-4.527 9.867-6.805 15.513-6.805 5.29 0 10.61 2.005 14.741 5.985 9.629 9.388 33.048 34.635 62.618 66.627 31.413 33.966 81.49 88.015 114.448 121.435v-139.329c0-12.092 9.599-21.875 21.398-21.875s21.398 9.783 21.398 21.875v187.727c0 2.765-0.535 5.59-1.635 8.325z" />
<glyph unicode="&#xe902;" glyph-name="pav-main-potentials" horiz-adv-x="1126" d="M958.371 398.125l-238.592 250.166c-8.533 8.968-22.683 9.216-31.589 0.714-8.937-8.502-9.278-22.652-0.714-31.589l265.775-278.621c19.363-20.294 12.35-51.107-5.244-68.018-10.24-9.868-31.527-22.249-58.523 5.648l-19.27 19.859-114.564 118.225c-8.564 8.906-22.745 9.092-31.589 0.496-8.844-8.564-9.092-22.714-0.465-31.589l9.061-9.34c0.093-0.093 0.093-0.217 0.186-0.341l124.587-128.434c29.324-30.255 11.109-54.303 1.955-63.209-15.081-14.584-45.49-25.662-66.126-4.468l-136.937 140.691c-8.595 8.844-22.776 9.061-31.589 0.434-8.844-8.595-9.030-22.745-0.434-31.589l115.371-118.536c0.931-3.382 2.42-6.64 5.027-9.371 29.2-30.658 12.009-53.713 3.258-62.216-14.305-13.964-44.032-24.142-64.977-3.010l-33.358 33.637c-4.034 8.254-9.123 16.136-16.012 22.993l-7.292 7.292c-12.909 12.909-28.982 20.728-45.739 23.707 18.835 32.83 14.584 75.404-13.436 103.455l-7.354 7.292c-12.691 12.691-28.424 20.542-44.839 23.614 23.521 33.482 20.511 80.058-9.433 109.94l-7.292 7.323c-32.365 32.365-89.15 32.365-121.515 0l-7.199-7.199c-3.32 16.291-11.264 31.279-23.242 43.225l-7.292 7.292c-16.136 16.167-37.733 25.072-60.726 25.072h-0.062c-22.993 0-44.56-8.906-60.695-25.072l-49.028-49.059-61.223 61.099c-105.441 105.317-61.564 246.505 23.862 333.11 88.436 89.802 234.062 137.464 344.405 30.037l30.441-30.286-136.006-135.354c-24.948-24.793-25.941-56.072-2.576-79.686 35.964-36.368 131.6-48.562 190.092 8.999l51.262 50.61c24.545 22.249 51.324 15.577 96.566 1.924 54.086-16.353 121.453-36.74 195.956 22.063 9.681 7.664 11.326 21.69 3.693 31.372-7.696 9.712-21.659 11.326-31.372 3.724-56.165-44.342-104.355-29.789-155.338-14.398-44.56 13.498-95.046 28.734-140.195-12.226l-51.945-51.262c-39.843-39.222-107.117-29.386-126.945-9.34-3.972 4.003-7.106 7.168 2.327 16.57l206.227 205.203c96.349 93.774 242.533 43.722 273.563 26.345 34.195-19.177 68.515-46.763 99.235-79.81 85.861-92.315 146.866-239.399 36.15-349.96l-58.275-58.151zM602.050 60.733l-63.488-63.457c-15.329-15.391-42.884-15.484-58.337 0l-7.323 7.292c-7.696 7.696-11.947 18.060-11.947 29.137s4.22 21.442 11.947 29.2l63.457 63.457c8.037 8.037 18.618 12.071 29.168 12.071 4.965 0 9.93-1.055 14.646-2.855 0.869-1.365 1.458-2.855 2.638-4.034l28.827-29.044c4.592-14.274 1.676-30.472-9.588-41.767v0zM373.853 91.794l-7.292 7.292c-7.727 7.727-11.978 18.091-11.978 29.137 0 11.078 4.251 21.442 11.978 29.168l103.362 103.393c8.068 8.037 18.587 12.040 29.168 12.040 10.55 0 21.101-4.003 29.168-12.040l7.292-7.292c16.105-16.105 16.105-42.263 0.031-58.337l-103.393-103.362c-15.515-15.484-42.915-15.422-58.337 0v0zM264.844 185.257l-7.323 7.323c-7.696 7.727-11.978 18.060-11.978 29.137s4.251 21.442 11.978 29.168l150.745 150.776c7.758 7.758 18.122 12.009 29.2 12.009 11.047 0 21.411-4.251 29.168-11.978l7.323-7.323c16.043-16.074 16.043-42.232 0-58.306l-150.807-150.807c-15.794-15.794-42.543-15.794-58.306 0v0zM190.898 272.732c-11.14 0-21.473 4.251-29.2 11.947l-7.292 7.292c-16.074 16.105-16.074 42.263 0 58.337l94.704 94.704c7.696 7.727 18.029 11.978 29.106 11.978s21.442-4.251 29.168-11.978l7.323-7.323c7.696-7.696 11.947-18.060 11.947-29.168 0-11.078-4.251-21.442-11.947-29.137l-94.704-94.704c-7.664-7.696-18.029-11.947-29.106-11.947v0zM903.106 924.989c-60.54 33.978-219.974 70.501-326.749-33.42l-38.726-38.54-30.782 30.596c-126.386 123.097-300.715 77.886-407.583-30.503-100.414-101.841-150.621-269.219-23.583-396.102l61.161-61.068-14.026-14.057c-33.482-33.513-33.482-88.002 0-121.515l7.323-7.292c16.105-16.136 37.671-25.041 60.726-25.041 3.693 0 7.168 0.621 10.705 1.024-0.217-2.451-0.714-4.872-0.714-7.385 0.031-22.993 8.937-44.56 25.072-60.695l7.323-7.323c16.725-16.756 38.726-25.135 60.726-25.135 5.399 0 10.799 0.559 16.074 1.552-0.155-24.855 8.751-46.421 24.917-62.588l7.323-7.323c16.725-16.725 38.726-25.104 60.757-25.104 4.499 0 8.999 0.559 13.467 1.272-0.248-25.662 8.657-47.228 24.824-63.395l7.292-7.292c16.136-16.136 37.702-25.041 60.757-25.010 23.024 0 44.622 8.875 60.726 25.010l63.488 63.488c9.216 9.216 15.67 20.077 19.797 31.62 17.253-16.322 37.764-23.614 58.182-23.614 25.072 0 49.835 10.674 67.522 27.834 15.36 14.926 25.693 35.219 26.531 57.499 5.089-0.931 10.209-1.427 15.36-1.427 25.6 0 51.169 11.171 69.508 28.982 16.818 16.322 27.679 39.812 26.841 65.133 1.583-0.093 3.258-0.528 4.841-0.528 21.69 0.031 41.767 9.464 56.816 23.924 31.868 30.689 43.629 86.761 9.806 126.79l59.423 59.299c124.68 124.556 72.27 296.681-35.002 412.020-33.854 36.399-71.959 66.932-110.127 88.312z" />
<glyph unicode="&#xe903;" glyph-name="pav-flow-econ-values" horiz-adv-x="1191" d="M113.949-9.386v270.959h100.090v-270.959h-100.090zM401.519-9.386v559.746h100.090v-559.746h-100.090zM689.088-9.386v301.886h100.090v-301.886h-100.090zM976.658-9.386v435.965h100.090v-435.965h-100.090zM1164.644-11.606h-35.788v464.418c0 14.445-11.652 26.197-26.054 26.197h-152.198c-14.366 0-26.054-11.752-26.054-26.197v-464.418h-83.264v330.339c0 14.445-11.688 26.197-26.054 26.197h-152.198c-14.402 0-26.054-11.752-26.054-26.197v-330.339h-83.264v588.163c0 14.481-11.688 26.234-26.054 26.234h-152.234c-14.366 0-26.054-11.752-26.054-26.234v-588.163h-83.228v299.375c0 14.481-11.688 26.234-26.054 26.234h-152.198c-14.402 0-26.090-11.752-26.090-26.234v-299.375h-35.752c-14.366 0-26.054-11.716-26.054-26.197 0-14.445 11.688-26.197 26.054-26.197h1138.59c14.366 0 26.054 11.752 26.054 26.197 0 14.481-11.688 26.197-26.054 26.197v0zM160.749 613.075c33.836 0 61.343-27.904 61.343-62.228 0-34.288-27.507-62.228-61.343-62.228-33.8 0-61.343 27.941-61.343 62.228 0 34.324 27.543 62.228 61.343 62.228zM446.501 907.438c33.836 0 61.343-27.904 61.343-62.192 0-34.324-27.507-62.228-61.343-62.228-33.8 0-61.307 27.904-61.307 62.228 0 34.288 27.507 62.192 61.307 62.192zM732.289 644.189c33.8 0 61.343-27.941 61.343-62.265 0-34.288-27.543-62.192-61.343-62.192-33.836 0-61.343 27.904-61.343 62.192 0 34.324 27.507 62.265 61.343 62.265zM1018.041 778.057c33.836 0 61.343-27.904 61.343-62.228s-27.507-62.228-61.343-62.228c-33.836 0-61.343 27.904-61.343 62.228s27.507 62.228 61.343 62.228zM160.749 436.093c62.386 0 113.121 51.504 113.121 114.754 0 22.542-6.652 43.37-17.727 61.134 0.252 0.255 0.611 0.328 0.863 0.547l133.473 133.612c16.576-9.703 35.526-15.685 56.021-15.685 23.84 0 45.881 7.587 64.112 20.39l122.902-114.097c-8.881-16.341-14.347-34.871-14.347-54.824 0-63.25 50.736-114.754 113.121-114.754 62.35 0 113.121 51.504 113.121 114.754 0 7.186-0.827 14.153-2.086 20.937l86.082 42.458c20.747-26.737 52.569-44.282 88.635-44.282 62.386 0 113.121 51.504 113.121 114.79s-50.736 114.754-113.121 114.754c-62.386 0-113.157-51.468-113.157-114.754 0-7.879 0.791-15.612 2.301-23.053l-85.003-41.911c-20.675 27.649-53.109 45.851-89.893 45.851-23.948 0-46.097-7.696-64.399-20.609l-122.794 113.988c8.989 16.451 14.563 35.054 14.563 55.152 0 63.25-50.772 114.754-113.157 114.754-62.35 0-113.121-51.504-113.121-114.754 0-23.454 7.048-45.23 18.985-63.432l-131.747-131.861c-0.467-0.474-0.611-1.094-1.007-1.568-17.224 10.724-37.216 17.217-58.862 17.217-62.35 0-113.121-51.468-113.121-114.754 0-63.25 50.772-114.754 113.121-114.754z" />
<glyph unicode="&#xe904;" glyph-name="cntry-msg-water" d="M310.889 809.336c7.62-0.542 14.758-3.945 19.908-9.502 146.568-157.365 286.615-344.169 286.615-525.086 0-179.848-137.216-328.599-308.706-328.599s-308.706 148.751-308.706 328.599c0 180.917 140.047 367.721 286.615 525.086 6.174 6.656 15.134 10.165 24.275 9.502zM308.706 734.539c-133.512-148.073-248.952-318.253-248.952-459.791 0-150.633 112.625-269.734 248.952-269.734 136.312 0 248.952 119.1 248.952 269.734 0 141.538-115.441 311.718-248.952 459.791zM497.92 329.306c15.209-0.407 27.663-12.032 28.928-26.97 8.147-84.54-34.274-177.122-101.451-222.84-8.764-6.31-20.329-7.439-30.178-2.936-9.864 4.518-16.459 13.929-17.227 24.606-0.783 10.677 4.382 20.917 13.493 26.76 43.008 29.274 81.559 110.441 75.927 168.9-0.888 8.418 1.943 16.821 7.785 23.040 5.843 6.234 14.11 9.668 22.724 9.442zM769.807 959.925c6.325-0.452 12.243-3.343 16.52-8.072 121.525-133.888 237.673-292.819 237.673-446.75 0-153.013-113.784-279.567-256-279.567s-256 126.554-256 279.567c0 153.931 116.149 312.862 237.673 446.75 5.135 5.662 12.544 8.644 20.134 8.072zM768 896.301c-110.728-125.982-206.456-270.788-206.456-391.198 0-128.151 93.41-229.496 206.456-229.496s206.456 101.346 206.456 229.496c0 120.41-95.729 265.216-206.456 391.198zM924.898 551.529c12.619-0.361 22.965-10.24 24.004-22.95 6.746-71.936-28.416-150.694-84.134-189.606-7.273-5.361-16.851-6.325-25.028-2.485-8.177 3.825-13.643 11.851-14.291 20.932s3.644 17.8 11.189 22.769c35.674 24.907 67.644 93.967 62.976 143.691-0.753 7.168 1.611 14.321 6.445 19.607 4.849 5.301 11.716 8.222 18.839 8.041z" />
<glyph unicode="&#xe905;" glyph-name="cntry-msg-logging" d="M176.296 252.702c-64.614 0-117.18-52.566-117.18-117.18s52.566-117.18 117.18-117.18c64.614 0 117.18 52.566 117.18 117.18s-52.566 117.18-117.18 117.18zM176.296 50.012c-47.15 0-85.51 38.358-85.51 85.51 0 47.15 38.358 85.51 85.51 85.51 47.15 0 85.51-38.358 85.51-85.51 0-47.15-38.358-85.51-85.51-85.51zM176.296 185.138c-27.358 0-49.616-22.258-49.616-49.616s22.258-49.616 49.616-49.616 49.616 22.258 49.616 49.616-22.256 49.616-49.616 49.616zM176.296 117.576c-9.896 0-17.946 8.050-17.946 17.946s8.050 17.946 17.946 17.946c9.896 0 17.946-8.050 17.946-17.946s-8.050-17.946-17.946-17.946zM980.034 256.618c-28.508 32.43-68.136 51.818-111.844 54.79-1.154 0.268-2.358 0.41-3.596 0.41h-89.164c45.718 31.932 75.44 84.916 75.44 144.628 0 92.938-71.924 169.666-164.26 175.89-1.154 0.266-2.356 0.408-3.592 0.408h-101.344c-8.748 0-15.834-7.088-15.834-15.836s7.088-15.836 15.834-15.836h98.69c0.6-0.102 1.212-0.168 1.832-0.202 68.57-3.556 123.838-54.49 134.932-120.144h-197.45c-8.748 0-15.836-7.088-15.836-15.834 0-8.748 7.088-15.836 15.836-15.836h199.332c-1.284-25.494-9.184-49.286-22.030-69.674h-69.624c-8.748 0-15.834-7.088-15.834-15.836s7.088-15.836 15.834-15.836h42.65c-23.62-20.752-54.11-33.944-87.808-35.69-0.62-0.034-1.234-0.102-1.832-0.202h-226.080c14.368 10.028 27.166 22.14 37.98 35.892h169.638c8.748 0 15.836 7.088 15.836 15.836s-7.088 15.836-15.836 15.836h-149.73c10.35 21.206 16.55 44.782 17.584 69.674h30.802c8.748 0 15.836 7.088 15.836 15.836s-7.088 15.834-15.836 15.834h-32.326c-2.364 17.090-7.192 33.39-14.104 48.56h98.158c8.748 0 15.836 7.088 15.836 15.834 0 8.748-7.088 15.836-15.836 15.836h-116.77c-11.458 15.514-25.406 29.068-41.232 40.116h42.934c8.746 0 15.836 7.088 15.836 15.836s-7.090 15.836-15.836 15.836h-143.572c-97.21 0-176.296-79.086-176.296-176.296 0-59.818 29.972-112.74 75.66-144.626 0 0-75.774 0-76.716 0-97.21-0.004-176.296-79.090-176.296-176.3s79.086-176.296 176.296-176.296c0.942 0 152.016 0 152.016 0 8.746 0 15.836 7.088 15.836 15.836s-7.090 15.834-15.836 15.834h-51.38c14.368 10.028 27.166 22.14 37.98 35.892h81.694c10.812-13.754 23.612-25.864 37.98-35.892h-21.822c-8.746 0-15.834-7.088-15.834-15.834 0-8.748 7.090-15.836 15.834-15.836h451.826c1.238 0 2.44 0.142 3.596 0.41 43.706 2.97 83.336 22.36 111.844 54.79 28.354 32.25 43.97 75.258 43.97 121.096s-15.616 88.844-43.966 121.096zM683.018 280.148h178.922c0.6-0.102 1.212-0.168 1.832-0.202 66.726-3.458 117.032-52.572 126.8-120.144h-280.762c-2.364 17.090-7.192 33.39-14.104 48.56h67.544c8.748 0 15.836 7.088 15.836 15.834s-7.088 15.836-15.836 15.836h-86.156c-11.458 15.514-25.404 29.068-41.232 40.116h47.156zM209.022 456.446c0 79.748 64.88 144.626 144.626 144.626s144.626-64.88 144.626-144.626-64.88-144.626-144.626-144.626-144.626 64.878-144.626 144.626zM434.588 280.148c-15.828-11.046-29.774-24.602-41.232-40.116h-75.19c-11.458 15.514-25.406 29.068-41.232 40.116h157.654zM176.296-9.106c-79.748 0-144.626 64.88-144.626 144.626s64.88 144.626 144.626 144.626 144.626-64.88 144.626-144.626-64.878-144.626-144.626-144.626zM334.822 58.458c11.372 23.296 17.772 49.444 17.772 77.064 0 25.97-5.69 50.622-15.816 72.842h37.966c-10.126-22.22-15.816-46.872-15.816-72.842 0-27.62 6.4-53.768 17.772-77.064h-41.878zM390.598 135.522c0 79.748 64.88 144.626 144.626 144.626s144.626-64.88 144.626-144.626-64.88-144.626-144.626-144.626-144.626 64.878-144.626 144.626zM972.686 58.238c-0.826 0.132-1.666 0.22-2.528 0.22h-67.562c-8.748 0-15.836-7.088-15.836-15.834s7.088-15.836 15.836-15.836h45.558c-22.1-20.946-51.204-33.972-84.382-35.69-0.62-0.034-1.234-0.102-1.832-0.202h-205.938c-0.83 0.136-1.674 0.222-2.542 0.222-0.010 0-0.022 0-0.030 0l-17.302-0.032c14.272 10.002 26.99 22.056 37.74 35.738 0.234-0.010 0.466-0.036 0.704-0.036h168.908c8.748 0 15.836 7.088 15.836 15.836s-7.088 15.834-15.836 15.834h-149.73c10.35 21.206 16.55 44.782 17.584 69.674h280.84c-1.102-25.972-8.022-49.71-19.488-69.894zM535.224 252.702c-64.614 0-117.18-52.566-117.18-117.18s52.566-117.18 117.18-117.18c64.614 0 117.18 52.566 117.18 117.18s-52.566 117.18-117.18 117.18zM535.224 50.012c-47.15 0-85.51 38.358-85.51 85.51 0 47.15 38.358 85.51 85.51 85.51 47.15 0 85.51-38.358 85.51-85.51 0-47.15-38.358-85.51-85.51-85.51zM535.224 185.138c-27.358 0-49.616-22.258-49.616-49.616s22.258-49.616 49.616-49.616 49.616 22.258 49.616 49.616-22.256 49.616-49.616 49.616zM535.224 117.576c-9.896 0-17.946 8.050-17.946 17.946s8.050 17.946 17.946 17.946 17.946-8.050 17.946-17.946-8.050-17.946-17.946-17.946zM906.82 240.032h-83.398c-8.748 0-15.836-7.088-15.836-15.836s7.088-15.834 15.836-15.834h83.398c8.748 0 15.836 7.088 15.836 15.834s-7.088 15.836-15.836 15.836zM353.65 573.624c-64.614 0-117.18-52.566-117.18-117.18s52.566-117.18 117.18-117.18c64.614 0 117.18 52.566 117.18 117.18-0.002 64.614-52.568 117.18-117.18 117.18zM353.65 370.936c-47.15 0-85.51 38.358-85.51 85.51 0 47.15 38.358 85.51 85.51 85.51 47.15 0 85.51-38.358 85.51-85.51-0.002-47.152-38.36-85.51-85.51-85.51zM353.65 506.062c-27.358 0-49.616-22.258-49.616-49.616s22.258-49.616 49.616-49.616 49.616 22.258 49.616 49.616-22.258 49.616-49.616 49.616zM353.65 438.498c-9.896 0-17.946 8.050-17.946 17.946s8.050 17.946 17.946 17.946c9.896 0 17.946-8.050 17.946-17.946s-8.050-17.946-17.946-17.946zM733.69 560.956h-49.616c-8.748 0-15.834-7.088-15.834-15.836s7.088-15.834 15.834-15.834h49.616c8.748 0 15.834 7.088 15.834 15.834 0.002 8.748-7.086 15.836-15.834 15.836zM894.152 936.776h-76.008c-8.748 0-15.836-7.088-15.836-15.836s7.088-15.836 15.836-15.836h25.336v-187.91h-205.856v187.912h96.066c8.748 0 15.834 7.088 15.834 15.836s-7.088 15.836-15.834 15.836h-111.902c-8.748 0-15.834-7.088-15.834-15.836v-43.282h-61.228v26.39c0 8.748-7.088 15.836-15.836 15.836s-15.836-7.088-15.836-15.836v-26.392h-35.892v26.392c0 8.748-7.090 15.836-15.836 15.836s-15.836-7.088-15.836-15.836v-26.392h-35.89v26.392c0 8.748-7.090 15.836-15.834 15.836-8.746 0-15.836-7.088-15.836-15.836v-26.392h-35.892v26.392c0 8.748-7.090 15.836-15.836 15.836s-15.834-7.088-15.834-15.836v-26.392h-35.892v26.392c0 8.748-7.090 15.836-15.836 15.836s-15.836-7.088-15.836-15.836v-26.392h-35.892v26.392c0 8.748-7.090 15.836-15.836 15.836s-15.836-7.088-15.836-15.836v-26.392h-35.892v26.392c0 8.748-7.090 15.836-15.836 15.836s-15.836-7.088-15.836-15.836v-26.392h-17.946c-36.672 0-66.508-29.836-66.508-66.508s29.836-66.508 66.508-66.508h17.946v-26.392c0-8.748 7.090-15.836 15.836-15.836s15.836 7.088 15.836 15.836v26.392h35.892v-26.392c0-8.748 7.090-15.836 15.836-15.836s15.836 7.088 15.836 15.836v26.392h35.892v-26.392c0-8.748 7.090-15.836 15.836-15.836s15.836 7.088 15.836 15.836v26.392h35.892v-26.392c0-8.748 7.090-15.836 15.834-15.836 8.746 0 15.836 7.088 15.836 15.836v26.392h35.892v-26.392c0-8.748 7.090-15.836 15.836-15.836s15.834 7.088 15.834 15.836v26.392h35.892v-26.392c0-8.748 7.090-15.836 15.836-15.836s15.836 7.088 15.836 15.836v26.392h35.892v-26.392c0-8.748 7.088-15.836 15.836-15.836s15.836 7.088 15.836 15.836v26.392h61.228v-43.282c0-8.748 7.088-15.836 15.834-15.836h335.704c26.194 0 47.506 21.312 47.506 47.506v92.9c-0.002 61.118-49.728 110.846-110.848 110.846zM605.954 776.314h-516.222c-19.208 0-34.838 15.628-34.838 34.838s15.628 34.838 34.838 34.838h516.222v-69.676zM973.328 733.030c0-8.732-7.102-15.834-15.836-15.834h-82.342v187.91h19.002c43.658 0 79.176-35.516 79.176-79.176v-92.9zM742.136 890.326c-43.658 0-79.176-35.516-79.176-79.176s35.516-79.176 79.176-79.176 79.176 35.516 79.176 79.176-35.518 79.176-79.176 79.176zM742.136 763.646c-26.194 0-47.506 21.312-47.506 47.506s21.312 47.506 47.506 47.506 47.506-21.312 47.506-47.506-21.312-47.506-47.506-47.506z" />
<glyph unicode="&#xe906;" glyph-name="cntry-msg-jobs" d="M939.558 771.874h-234.412l-18.212 72.852c-9.418 37.664-43.108 63.966-81.924 63.966h-186.022c-38.816 0-72.506-26.304-81.926-63.968l-18.21-72.85h-234.41c-46.56 0-84.442-37.88-84.442-84.442v-615.682c0-46.562 37.882-84.442 84.442-84.442h855.114c46.562 0 84.442 37.882 84.442 84.442v615.682c0.002 46.562-37.88 84.442-84.44 84.442zM368.172 836.944c5.844 23.364 26.742 39.682 50.818 39.682h186.022c24.076 0 44.972-16.318 50.818-39.68l16.266-65.072h-37.464l-14.066 56.264c-1.782 7.138-8.196 12.144-15.554 12.144h-186.022c-7.356 0-13.77-5.006-15.554-12.144l-14.062-56.264h-37.464l16.262 65.070zM601.578 771.874h-179.156l9.086 36.342h160.984l9.086-36.342zM84.442 739.808h855.114c16.010 0 30.354-7.228 39.97-18.582l-104.1-312.298c-9.472-28.416-35.96-47.508-65.914-47.508h-230.172v35.274c0 18.272-14.864 33.136-33.136 33.136h-68.41c-18.272 0-33.136-14.864-33.136-33.136v-35.274h-230.172c-29.952 0-56.442 19.092-65.914 47.506l-104.1 312.3c9.616 11.354 23.96 18.582 39.97 18.582zM476.726 327.214v69.478c0 0.59 0.478 1.068 1.068 1.068h68.41c0.59 0 1.068-0.478 1.068-1.068v-69.478h-70.546zM547.274 295.148v-35.274c0-0.59-0.478-1.068-1.068-1.068h-68.41c-0.59 0-1.068 0.478-1.068 1.068v35.274h70.546zM991.934 71.75c0-28.88-23.496-52.376-52.376-52.376h-855.116c-28.88 0-52.376 23.496-52.376 52.376v585.288l86.084-258.252c13.844-41.53 52.558-69.434 96.336-69.434h230.174v-69.478c0-18.272 14.864-33.136 33.136-33.136h68.41c18.272 0 33.136 14.864 33.136 33.136v69.478h230.174c43.778 0 82.49 27.902 96.336 69.434l86.084 258.252v-585.288z" />
<glyph unicode="&#xe907;" glyph-name="cntry-msg-hydro-power" d="M143.112 776.768h734.765v-31.312h-734.765v31.312zM987.962 190.376c-11.116 9.98-24.714 22.122-48.652 24.452v622.473h52.206v-600.129h31.312v631.441h-114.83v-656.699c-15.24-4.768-25.34-13.806-33.952-21.538-10.906-9.792-18.784-16.868-36.036-16.868-5.054 0-9.286 0.622-13.044 1.726l-51.416 298.859h79.284v31.312h-84.672l-2.714 15.768c-5.296 30.778-31.806 53.116-63.036 53.116s-57.74-22.34-63.036-53.116l-2.714-15.768h-25.056v118.982h181.604v-88.714h31.312v120.026h-244.226v-150.294h-30.142v-31.312h81.12l-45.336-263.523c-7.482 2.852-16.256 4.686-26.882 4.686-29.242 0-44.606-13.796-56.95-24.882-10.904-9.792-18.78-16.866-36.028-16.866-13.868 0-21.682 4.578-29.88 11.462l-49.742 289.123h82.29v31.312h-30.392v150.294h-244.23v-120.026h31.312v88.714h181.604v-118.982h-25.974l-2.712 15.768c-5.296 30.778-31.806 53.116-63.036 53.116s-57.74-22.34-63.036-53.116l-2.712-15.768h-85.582v-31.312h80.202l-44.69-259.767c-3.84 0.578-7.928 0.928-12.37 0.928-29.242 0-44.606-13.796-56.95-24.88-5.356-4.81-9.986-8.958-15.35-11.94v690.179h-114.832v-600.129h31.312v568.817h52.208v-662.691c-10.418 2.34-17.022 8.244-25.398 15.764-12.342 11.084-27.706 24.882-56.948 24.882v-31.312c17.246 0 25.124-7.074 36.028-16.866 12.344-11.084 27.706-24.882 56.948-24.882s44.608 13.796 56.952 24.882c10.904 9.792 18.782 16.866 36.030 16.866s25.128-7.074 36.032-16.868c12.344-11.084 27.708-24.88 56.95-24.88s44.606 13.796 56.95 24.882c10.904 9.792 18.782 16.866 36.030 16.866 16.224 0 24.16-6.26 34.116-15.15l0.184-1.070 0.848 0.146c0.294-0.264 0.582-0.522 0.88-0.792 12.344-11.084 27.708-24.882 56.952-24.882 29.242 0 44.606 13.796 56.95 24.882 10.904 9.792 18.782 16.866 36.028 16.866 17.248 0 25.128-7.074 36.032-16.868 12.344-11.084 27.706-24.88 56.948-24.88 29.244 0 44.608 13.796 56.952 24.88 10.906 9.792 18.784 16.868 36.032 16.868s25.128-7.074 36.032-16.868c12.344-11.084 27.708-24.88 56.95-24.88 29.244 0 44.61 13.796 56.956 24.88 10.906 9.792 18.786 16.868 36.040 16.868 17.252 0 25.132-7.076 36.040-16.868 12.344-11.084 27.71-24.88 56.958-24.88v31.312c-17.242 0-25.122 7.076-36.028 16.868zM373.095 215.255c-29.242 0-44.606-13.796-56.95-24.882-10.904-9.792-18.782-16.866-36.030-16.866s-25.128 7.074-36.032 16.866c-4.396 3.95-9.192 8.232-14.846 12.124l53.914 313.367c2.702 15.71 16.234 27.114 32.178 27.114 15.942 0 29.474-11.404 32.178-27.114l52.528-305.311c-7.498 2.858-16.29 4.702-26.94 4.702zM745.025 215.255c-29.244 0-44.608-13.796-56.952-24.88-10.904-9.792-18.784-16.868-36.032-16.868-17.246 0-25.126 7.074-36.028 16.866-0.504 0.452-1.022 0.914-1.536 1.376l55.762 324.115c2.702 15.71 16.234 27.114 32.178 27.114 15.942 0 29.474-11.404 32.178-27.114l54.102-314.459c-10.45 7.522-23.874 13.85-43.672 13.85zM848.484 75.566c-12.344 11.086-27.708 24.882-56.952 24.882s-44.608-13.796-56.952-24.88c-10.904-9.792-18.784-16.868-36.032-16.868s-25.126 7.074-36.030 16.866c-12.344 11.084-27.708 24.882-56.95 24.882s-44.606-13.796-56.95-24.882c-10.904-9.792-18.78-16.866-36.028-16.866s-25.128 7.074-36.032 16.868c-12.344 11.086-27.708 24.88-56.952 24.88-29.242 0-44.606-13.796-56.95-24.882-10.904-9.792-18.782-16.866-36.028-16.866-17.248 0-25.128 7.074-36.032 16.868-12.344 11.086-27.708 24.88-56.95 24.88-29.244 0-44.608-13.796-56.952-24.882-10.904-9.792-18.782-16.866-36.030-16.866v-31.312c29.242 0 44.606 13.796 56.95 24.88 10.904 9.792 18.782 16.868 36.030 16.868s25.128-7.074 36.032-16.866c12.344-11.086 27.708-24.882 56.952-24.882 29.242 0 44.606 13.796 56.95 24.882 10.904 9.792 18.782 16.866 36.030 16.866s25.128-7.074 36.032-16.868c12.344-11.084 27.708-24.88 56.952-24.88 29.242 0 44.606 13.796 56.95 24.882 10.904 9.792 18.782 16.866 36.028 16.866 17.248 0 25.126-7.074 36.030-16.866 12.344-11.086 27.708-24.882 56.95-24.882 29.244 0 44.608 13.796 56.952 24.88 10.904 9.792 18.784 16.868 36.032 16.868s25.128-7.074 36.030-16.868c12.344-11.084 27.708-24.88 56.95-24.88v31.312c-17.246 0-25.124 7.074-36.030 16.866z" />
<glyph unicode="&#xe908;" glyph-name="cntry-msg-honey-jar" d="M975.259 539.96c-27.688 105.104-104.343 166.269-134.953 187.119v75.979c32.242 7.606 53.576 37.345 53.576 77.509 0 46.769-28.915 79.434-70.313 79.434h-623.138c-41.398 0-70.313-32.665-70.313-79.436 0-40.161 21.334-69.902 53.576-77.509v-75.979c-30.61-20.851-107.265-82.015-134.953-187.119-49.82-189.112 134.515-493.673 142.389-506.545 33.404-54.623 109.723-97.413 173.752-97.413h294.239c64.026 0 140.348 42.79 173.752 97.413 7.872 12.874 192.207 317.432 142.386 506.547zM180.191 880.564c0 10.966 2.629 29.363 20.24 29.363h623.138c17.611 0 20.24-18.397 20.24-29.363s-2.629-29.361-20.24-29.361h-623.138c-17.611 0.003-20.24 18.397-20.24 29.361zM790.152 59.536c-24.351-39.823-84.356-73.463-131.032-73.463h-294.239c-46.676 0-106.681 33.639-131.032 73.458-1.815 2.974-181.073 299.183-136.688 467.67 28.669 108.832 122.99 163.84 123.886 164.351 7.859 4.442 12.719 12.771 12.719 21.797v87.784h556.465v-87.784c0-8.981 4.867-17.308 12.664-21.764 0.949-0.543 95.272-55.554 123.942-164.383 44.385-168.487-134.873-464.698-136.685-467.665zM787.914 514.898c-4.472 7.746-12.736 12.518-21.682 12.518h-127.081c-8.946 0-17.21-4.772-21.682-12.518l-56.315-97.54h-98.309l-56.315 97.54c-4.472 7.746-12.736 12.518-21.682 12.518h-127.081c-8.946 0-17.21-4.772-21.682-12.518l-63.541-110.059c-4.474-7.746-4.474-17.29 0-25.037l63.541-110.056c4.472-7.746 12.736-12.518 21.682-12.518h112.763l56.315-97.538c4.472-7.746 12.736-12.518 21.682-12.518h127.081c8.946 0 17.21 4.772 21.682 12.518l56.315 97.538h112.627c8.946 0 17.21 4.772 21.682 12.518l63.541 110.056c4.474 7.746 4.474 17.29 0 25.037l-63.541 110.059zM370.395 307.301h-98.171l-49.087 85.020 49.087 85.022h98.171l49.087-85.022-49.087-85.020zM561.155 197.245h-98.171l-49.087 85.020 49.087 85.020h98.171l49.087-85.020-49.087-85.020zM751.779 307.301h-98.171l-49.087 85.020 49.087 85.022h98.171l49.087-85.022-49.087-85.020zM637.183 688.312h89.020c13.828 0 25.037 11.211 25.037 25.037s-11.209 25.037-25.037 25.037h-89.020c-13.828 0-25.037-11.211-25.037-25.037s11.209-25.037 25.037-25.037zM297.796 688.312h249.255c13.828 0 25.037 11.211 25.037 25.037s-11.209 25.037-25.037 25.037h-249.255c-13.828 0-25.037-11.211-25.037-25.037s11.209-25.037 25.037-25.037z" />
<glyph unicode="&#xe909;" glyph-name="cntry-msg-growth" d="M625.171 334.701c42.078 42.078 38.718 111.035 38.558 114.075-0.48 8.096-6.944 14.559-15.039 15.039-2.88 0-71.997 3.52-114.075-38.558-2.4-2.4-4.64-4.96-6.72-7.52v71.517c13.599 13.919 47.998 53.917 47.998 102.715 0 59.517-51.198 105.915-53.278 107.995-6.064 5.408-15.215 5.408-21.279 0-2.24-1.92-53.278-47.998-53.278-107.995 0-48.798 34.398-88.956 47.998-102.715v-71.517c-2.080 2.56-4.32 5.12-6.72 7.52-41.438 42.078-111.195 38.718-114.235 38.718-8.096-0.48-14.559-6.944-15.039-15.039 0-2.88-3.52-71.997 38.558-114.075 26.879-23.871 61.341-37.47 97.275-38.398v-94.716c-2.080 2.56-4.32 5.12-6.72 7.52-42.078 42.078-111.035 38.718-114.075 38.558-8.096-0.48-14.559-6.944-15.039-15.039 0-2.88-3.52-71.997 38.558-114.075 26.847-23.983 61.293-37.694 97.275-38.718v-143.993h31.999v143.993c35.918 0.88 70.365 14.431 97.275 38.238 42.078 42.078 38.718 111.035 38.558 114.075-0.48 8.096-6.944 14.559-15.039 15.039-2.88 0-71.997 3.52-114.075-38.558-2.4-2.4-4.64-4.96-6.72-7.52v94.716c35.982 1.024 70.429 14.735 97.275 38.718zM557.334 402.538c20.719 17.711 46.83 27.871 74.077 28.799-0.928-27.279-11.135-53.405-28.959-74.077-20.719-17.711-46.83-27.871-74.077-28.799 0.848 27.311 11.007 53.501 28.799 74.237l0.16-0.16zM421.34 357.26c-17.711 20.719-27.871 46.83-28.799 74.077 27.279-0.928 53.405-11.135 74.077-28.959 17.711-20.719 27.871-46.83 28.799-74.077-27.295 0.976-53.437 11.247-74.077 29.119v-0.16zM421.34 141.27c-17.711 20.719-27.871 46.83-28.799 74.077 27.279-0.928 53.405-11.135 74.077-28.959 17.951-20.735 28.287-46.99 29.279-74.397-27.471 0.896-53.805 11.247-74.557 29.279zM557.334 186.548c20.719 17.711 46.83 27.871 74.077 28.799-0.928-27.279-11.135-53.405-28.959-74.077-20.783-17.983-47.086-28.319-74.557-29.279 0.912 27.471 11.247 53.805 29.279 74.557h0.16zM511.896 664.766c40.206-36.958 42.846-99.499 5.888-139.705-1.872-2.048-3.84-4.016-5.888-5.888-40.206 36.958-42.846 99.499-5.888 139.705 1.872 2.048 3.84 4 5.888 5.888zM296.706 247.825c-2.88 0-71.997 3.52-114.075-38.558-2.4-2.4-4.64-4.96-6.72-7.52v111.995c13.599 13.919 47.998 53.917 47.998 102.715 0 59.517-51.198 105.915-53.278 107.995-6.064 5.408-15.215 5.408-21.279 0-2.24-1.92-53.278-47.998-53.278-107.995 0-48.798 34.398-88.956 47.998-102.715v-111.995c-2.080 2.56-4.32 5.12-6.72 7.52-42.078 42.078-111.035 38.718-114.075 38.558-8.096-0.48-14.559-6.944-15.039-15.039 0-2.88-3.52-71.997 38.558-114.075 26.799-23.951 61.197-37.662 97.115-38.718v-143.993h31.999v143.993c35.918 0.88 70.365 14.431 97.275 38.238 42.078 42.078 38.718 111.035 38.558 114.075-0.24 8.288-6.768 15.023-15.039 15.519zM69.357 141.27c-17.711 20.719-27.871 46.83-28.799 74.077 27.279-0.928 53.405-11.135 74.077-28.959 17.951-20.735 28.287-46.99 29.279-74.397-27.471 0.896-53.805 11.247-74.557 29.279zM159.913 488.774c40.206-36.958 42.846-99.499 5.888-139.705-1.872-2.048-3.84-4.016-5.888-5.888-40.206 36.958-42.846 99.499-5.888 139.705 1.872 2.048 3.84 4 5.888 5.888zM250.468 141.27c-20.783-17.983-47.086-28.319-74.557-29.279 0.928 27.279 11.135 53.405 28.959 74.077 20.719 17.711 46.83 27.871 74.077 28.799-0.896-27.055-10.943-52.99-28.479-73.597zM977.154 342.701c42.078 42.078 38.718 111.035 38.558 114.075-0.48 8.096-6.944 14.559-15.039 15.039-2.88 0-71.997 3.52-114.075-38.558-2.4-2.4-4.64-4.96-6.72-7.52v102.235c35.918 0.88 70.365 14.431 97.275 38.238 42.078 42.078 38.718 111.035 38.558 114.075-0.48 8.096-6.944 14.559-15.039 15.039-2.88 0-71.997 3.52-114.075-38.558-2.4-2.4-4.64-4.96-6.72-7.52v95.996c13.599 13.919 47.998 53.917 47.998 102.715 0 59.517-51.198 105.915-53.278 107.995-6.064 5.408-15.215 5.408-21.279 0-2.24-1.92-53.278-47.998-53.278-107.995 0-48.798 34.398-88.956 47.998-102.715v-95.996c-2.080 2.56-4.32 5.12-6.72 7.52-42.078 42.078-111.035 38.718-114.075 38.558-8.096-0.48-14.559-6.944-15.039-15.039 0-2.88-3.52-71.997 38.558-114.075 26.863-23.775 61.245-37.31 97.115-38.238v-102.715c-2.080 2.56-4.32 5.12-6.72 7.52-42.078 42.078-111.035 38.718-114.075 38.558-8.096-0.48-14.559-6.944-15.039-15.039 0-2.88-3.52-71.997 38.558-114.075 26.911-23.807 61.357-37.358 97.275-38.238v-102.715c-2.080 2.56-4.32 5.12-6.72 7.52-42.078 42.078-111.035 38.718-114.075 38.558-8.096-0.48-14.559-6.944-15.039-15.039 0-2.88-3.52-71.997 38.558-114.075 26.911-23.807 61.357-37.358 97.275-38.238v-143.993h31.999v143.993c35.918 0.88 70.365 14.431 97.275 38.238 42.078 42.078 38.718 111.035 38.558 114.075-0.48 8.096-6.944 14.559-15.039 15.039-2.88 0-71.997 3.52-114.075-38.558-2.4-2.4-4.64-4.96-6.72-7.52v102.715c35.982 1.024 70.429 14.735 97.275 38.718zM909.317 410.538c20.719 17.711 46.83 27.871 74.077 28.799 2.544-54.541-39.63-100.827-94.172-103.355-3.12-0.144-6.224-0.144-9.344 0 0.912 27.471 11.247 53.805 29.279 74.557h0.16zM909.317 634.527c20.719 17.711 46.83 27.871 74.077 28.799 2.544-54.541-39.63-100.827-94.172-103.355-3.12-0.144-6.224-0.144-9.344 0 0.912 27.471 11.247 53.805 29.279 74.557h0.16zM773.324 589.249c-17.711 20.719-27.871 46.83-28.799 74.077 27.279-0.928 53.405-11.135 74.077-28.959 17.951-20.735 28.287-46.99 29.279-74.397-27.471 0.896-53.805 11.247-74.557 29.279zM773.324 365.26c-17.711 20.719-27.871 46.83-28.799 74.077 27.279-0.928 53.405-11.135 74.077-28.959 17.951-20.735 28.287-46.99 29.279-74.397-27.471 0.896-53.805 11.247-74.557 29.279zM773.324 141.27c-17.711 20.719-27.871 46.83-28.799 74.077 27.279-0.928 53.405-11.135 74.077-28.959 17.951-20.735 28.287-46.99 29.279-74.397-27.471 0.896-53.805 11.247-74.557 29.279zM909.317 186.548c20.719 17.711 46.83 27.871 74.077 28.799 2.544-54.541-39.63-100.827-94.172-103.355-3.12-0.144-6.224-0.144-9.344 0 0.912 27.471 11.247 53.805 29.279 74.557h0.16zM863.88 920.754c40.206-36.958 42.846-99.499 5.888-139.705-1.872-2.048-3.84-4.016-5.888-5.888-40.206 36.958-42.846 99.499-5.888 139.705 1.872 2.048 3.84 4 5.888 5.888z" />
<glyph unicode="&#xe90a;" glyph-name="cntry-msg-forest" d="M1024 390.857c0 131.077-106.638 237.714-237.714 237.714-46.469 0-91.931-13.767-130.489-39.074-10.011 43.845-23.321 86.085-39.394 123.881-43.189 101.55-99.749 157.479-159.259 157.479-59.577 0-116.137-55.698-159.253-156.834-15.189-35.627-27.913-75.291-37.717-116.594l-59.675 218.811c-2.171 7.954-9.397 13.474-17.641 13.474s-15.472-5.52-17.641-13.477l-164.571-603.429c-1.499-5.497-0.35-11.381 3.109-15.909 3.461-4.53 8.834-7.186 14.533-7.186h146.286v-146.286c0-10.098 8.187-18.286 18.286-18.286s18.286 8.187 18.286 18.286v146.286h146.286c5.698 0 11.072 2.656 14.53 7.189 2.816 3.687 4.071 8.27 3.643 12.814 22.624-10.411 47.305-17.086 73.255-19.234v-147.054c0-10.098 8.187-18.286 18.286-18.286s18.286 8.187 18.286 18.286v147.051c47.47 3.929 90.706 23.010 124.846 52.389 41.175-51.717 101.906-83.931 167.726-88.997v-110.443c0-10.098 8.187-18.286 18.286-18.286s18.286 8.187 18.286 18.286v110.411c122.565 9.367 219.429 112.094 219.429 237.017zM323.488 226.286h-122.345v28.997l32.359 32.359c7.141 7.143 7.141 18.718 0 25.861-7.143 7.138-18.718 7.138-25.861 0l-6.498-6.496v120.423c0 10.098-8.187 18.286-18.286 18.286s-18.286-8.187-18.286-18.286v-83.854l-23.641 23.641c-7.143 7.138-18.718 7.138-25.861 0-7.141-7.143-7.141-18.718 0-25.861l49.502-49.502v-28.983c0-0.007 0-0.016 0-0.023v-36.562h-122.345l140.631 515.648 61.954-227.161c-4.821-35.527-7.383-71.109-7.383-105.342 0-69.504 32.448-131.563 82.981-171.854l3.079-11.291zM475.429 255.282l67.787 67.787c7.141 7.143 7.141 18.718 0 25.861-7.143 7.138-18.718 7.138-25.861 0l-41.927-41.925v76.277l49.502 49.502c7.141 7.143 7.141 18.718 0 25.861-7.143 7.138-18.718 7.138-25.861 0l-23.641-23.639v47.28c0 10.098-8.187 18.286-18.286 18.286s-18.286-8.187-18.286-18.286v-91.417c0-0.007 0-0.016 0-0.023v-47.269l-41.927 41.927c-7.143 7.138-18.718 7.138-25.861 0-7.141-7.143-7.141-18.718 0-25.861l67.787-67.79v-28.983c0-0.007 0-0.016 0-0.023v-35.643c-92.43 9.207-164.857 87.415-164.857 182.226 0 97.243 21.506 205.751 57.531 290.249 36.471 85.543 82.254 134.606 125.611 134.606 43.278 0 89.058-49.287 125.605-135.221 36.030-84.718 57.538-192.994 57.538-289.637 0-94.814-72.427-173.022-164.857-182.226v28.080zM804.571 190.553v28.155l67.787 67.787c7.141 7.143 7.141 18.718 0 25.861-7.143 7.138-18.718 7.138-25.861 0l-41.927-41.922v120.423c0 10.098-8.187 18.286-18.286 18.286s-18.286-8.187-18.286-18.286v-83.854l-41.927 41.927c-7.143 7.138-18.718 7.138-25.861 0-7.141-7.143-7.141-18.718 0-25.861l67.787-67.787v-28.983c0-0.007 0-0.016 0-0.023v-35.726c-56.087 5.106-107.575 33.547-141.865 78.624 31.657 38.078 50.722 86.981 50.722 140.256 0 45.605-4.594 93.701-13.081 140.928 34.983 26.88 78.208 41.641 122.51 41.641 110.91 0 201.143-90.233 201.143-201.143 0-104.745-80.485-191.033-182.857-200.304z" />
<glyph unicode="&#xe90b;" glyph-name="cntry-msg-fishing" d="M340.804 490.966c-6.476 1.902-13.438-0.706-17.080-6.396l-102.894-160.704c-2.996-4.68-3.202-10.624-0.534-15.5 2.666-4.874 7.782-7.908 13.34-7.908h87.686v-87.712c0-62.284-50.67-112.954-112.954-112.954s-112.954 50.67-112.954 112.954v288.572c36.978 7.128 65.002 39.718 65.002 78.744 0 39.028-28.024 71.614-65.002 78.744v194.752c0 8.398-6.808 15.208-15.208 15.208s-15.208-6.81-15.208-15.208v-194.75c-36.974-7.13-64.998-39.716-64.998-78.744s28.024-71.616 65-78.744v-288.574c0-79.054 64.316-143.37 143.37-143.37s143.37 64.316 143.37 143.37v263.626c0 6.752-4.452 12.696-10.936 14.594zM95.414 627.474c20.042-6.444 34.586-25.258 34.586-47.41s-14.544-40.966-34.586-47.41v94.82zM65 532.654c-20.040 6.444-34.584 25.258-34.584 47.41s14.544 40.966 34.584 47.408v-94.818zM321.326 334.778v-3.904h-59.89l59.89 93.54v-89.636zM877.666 584.68c-13.794 93.178-51.818 174.842-84.792 231.306-44.408 76.046-88.31 122.876-90.156 124.832-2.874 3.042-6.874 4.768-11.058 4.768s-8.184-1.726-11.058-4.768c-1.848-1.956-45.75-48.788-90.156-124.832-31.764-54.394-68.218-132.18-83.182-221.11-45.192-4.172-80.702-42.278-80.702-88.54 0-8.398 6.808-15.208 15.208-15.208h59.070c0.236-4.87 0.568-9.71 0.946-14.532-42.554-6.612-75.226-43.498-75.226-87.876 0-8.398 6.808-15.208 15.208-15.208h73.726c1.678 0 3.288 0.282 4.798 0.784 18.070-64.592 45.52-120.832 70.152-163.008 10.622-18.186 21.206-34.682 31.2-49.314l-84.388-190.184c-2.086-4.704-1.652-10.144 1.152-14.46 2.804-4.312 7.602-6.916 12.748-6.916h80.676c24.402 0 46.114 11.714 59.826 29.81 13.712-18.096 35.422-29.81 59.826-29.81h80.676c5.146 0 9.944 2.604 12.748 6.916 2.806 4.314 3.24 9.756 1.152 14.46l-84.388 190.184c9.994 14.632 20.58 31.126 31.2 49.314 29.512 50.536 63.086 121.256 79.702 202.352h136.218c8.4 0 15.208 6.81 15.208 15.208 0 82.806-64.79 150.732-146.334 155.832zM500.388 521.544h-41.406c5.642 20.946 22.666 37.236 43.988 41.912-1.45-13.766-2.34-27.746-2.582-41.912zM458.984 403.926c5.828 21.642 23.796 38.344 46.112 42.368 2.026-14.408 4.642-28.546 7.732-42.368h-53.844zM616.314 799.97c29.696 50.97 59.7 88.884 75.344 107.378 15.648-18.498 45.652-56.412 75.344-107.378 10.884-18.682 22.35-40.248 33.23-64.126-59.946-59.674-157.204-59.674-217.148 0 10.88 23.876 22.346 45.442 33.23 64.126zM676.45 25.444c0.002-24.6-20.016-44.616-44.616-44.616h-57.29l67.634 152.428c15.644-20.884 28.112-35.36 34.27-42.254v-65.558zM808.774-19.172h-57.29c-24.602 0-44.618 20.016-44.618 44.618v65.558c6.16 6.894 18.628 21.37 34.27 42.254l67.638-152.43zM767.004 227.304c-29.696-50.97-59.7-88.884-75.344-107.378-15.648 18.498-45.652 56.412-75.344 107.378-39.056 67.034-85.61 171.126-85.61 286.332 0 70.274 17.33 136.392 39.706 192.506 34.616-30.28 77.92-45.464 121.248-45.464s86.632 15.186 121.248 45.464c22.376-56.116 39.706-122.234 39.706-192.506 0-115.208-46.554-219.296-85.61-286.332zM877.886 444.054c3.278 22.59 5.144 45.842 5.144 69.582 0 13.582-0.634 26.998-1.768 40.232 58.038-6.198 104.41-52.016 111.408-109.814h-114.784zM691.66 827.894c-25.824 0-46.832-21.010-46.832-46.832s21.008-46.834 46.832-46.834c25.822 0 46.834 21.010 46.834 46.832s-21.010 46.834-46.834 46.834zM691.66 764.646c-9.052 0-16.416 7.364-16.416 16.416s7.364 16.416 16.416 16.416c9.054 0 16.418-7.364 16.418-16.416s-7.364-16.416-16.418-16.416zM780.714 629.966c-5.942 5.94-15.568 5.942-21.508 0l-67.546-67.546-67.546 67.546c-5.942 5.94-15.568 5.94-21.508 0s-5.94-15.568 0-21.506l78.298-78.298c2.97-2.968 6.864-4.454 10.756-4.454s7.784 1.484 10.756 4.454l78.298 78.298c5.938 5.938 5.938 15.568 0 21.506zM780.712 512.348c-5.94 5.94-15.566 5.94-21.508 0l-67.546-67.546-67.546 67.546c-5.942 5.94-15.568 5.94-21.508 0s-5.94-15.568 0-21.506l78.298-78.298c2.97-2.968 6.864-4.454 10.756-4.454s7.784 1.484 10.756 4.454l78.298 78.298c5.94 5.938 5.94 15.568 0 21.506z" />
<glyph unicode="&#xe90c;" glyph-name="cntry-msg-fish-plate" d="M463.772 311.645c5.165-8.17 5.165-18.58 0-26.745l-27.428-43.383c-4.759-7.532-12.877-11.653-21.172-11.653-4.574 0-9.199 1.251-13.35 3.876-11.681 7.384-15.164 22.841-7.777 34.522l18.975 30.010-42.432 67.1c-7.387 11.681-3.904 27.138 7.777 34.524 11.681 7.384 27.138 3.901 34.522-7.775l50.885-80.477zM813.237 607.649c-30.796 41.076-32.41 103.416-1.984 156.27 34.512 59.95 100.288 90.389 156.407 72.367 3.373-1.084 6.478-2.87 9.111-5.245 43.768-39.477 50.484-111.643 15.972-171.596-30.426-52.849-85.154-82.754-136.131-76.764l-17.569-30.518c-4.629-8.042-13.052-12.544-21.71-12.544-4.236 0-8.525 1.078-12.462 3.341-11.976 6.896-16.097 22.193-9.201 34.172l17.566 30.518zM842.807 659.014l38.596 67.050c4.629 8.042 13.052 12.544 21.71 12.544 4.236 0 8.525-1.078 12.462-3.341 11.976-6.896 16.097-22.193 9.201-34.172l-38.596-67.047c24.17 5.903 48.097 24.147 63.188 50.367 21.287 36.977 20.029 81.193-2.262 105.628-32.325 7.001-71.196-14.116-92.481-51.092-15.091-26.217-18.852-56.072-11.818-79.936zM556.377 622.318c-34.514 59.955-27.796 132.122 15.972 171.596 2.63 2.372 5.735 4.159 9.108 5.245 56.119 18.017 121.895-12.416 156.407-72.364 30.423-52.849 28.807-115.197-1.982-156.27l17.569-30.516c6.894-11.979 2.775-27.275-9.201-34.172-3.934-2.262-8.228-3.341-12.462-3.341-8.658 0-17.078 4.502-21.71 12.544l-17.569 30.516c-50.992-6.003-105.71 23.91-136.133 76.761zM599.75 647.288c15.091-26.217 39.021-44.461 63.188-50.367l-38.596 67.047c-6.894 11.976-2.775 27.275 9.201 34.172 11.979 6.889 27.275 2.77 34.172-9.204l38.596-67.047c7.034 23.865 3.273 53.72-11.821 79.934-21.285 36.977-60.166 58.114-92.481 51.090-22.293-24.428-23.549-68.646-2.26-105.625zM1024 166.473c0-13.818-11.203-25.023-25.023-25.023h-80.002c-0.285-0.005-0.573-0.005-0.856 0h-111.048l-78.207-129.3c-4.534-7.492-12.654-12.071-21.412-12.071h-390.904c-8.758 0-16.878 4.579-21.412 12.071l-78.207 129.3h-191.905c-13.82 0-25.023 11.205-25.023 25.023s11.203 25.023 25.023 25.023h83.582c-9.524 13.548-17.796 27.673-24.74 42.239-0.425 0.788-0.808 1.606-1.149 2.442-8.53 18.352-14.961 37.385-19.14 56.838-0.743 3.466-0.743 7.047 0 10.512 31.819 148.105 186.853 255.602 368.636 255.602 124.157-0.003 239.019-50.692 308.425-134.217 45.705 55.091 111.456 96.434 188.587 117.984 8.5 2.377 17.626 0.098 24.012-5.998 6.386-6.098 9.086-15.104 7.107-23.709-15.584-67.76-26.512-140.062-32.483-214.919 2.878-36.098 6.951-71.917 12.139-106.776h58.977c13.82 0.003 25.023-11.2 25.023-25.021zM748.583 141.45h-473.165l55.239-91.325h362.686l55.241 91.325zM877.812 300.232c4.89 62.223 13.105 122.801 24.488 180.675-59.87-24.393-108.966-63.151-140.71-111.721-4.622-7.072-12.499-11.333-20.947-11.333s-16.325 4.261-20.947 11.333c-56.392 86.29-166.549 139.894-287.486 139.897-156.129 0-289.025-88.327-318.51-210.805 2.262-9.349 5.172-18.59 8.706-27.668h56.635c13.82 0 25.023-11.205 25.023-25.023s-11.203-25.023-25.023-25.023h-29.692c7.062-10.074 14.964-19.788 23.667-29.067h518.387c10.622 11.32 20.116 23.352 28.299 35.866 4.622 7.069 12.499 11.328 20.944 11.328 0 0 0 0 0.003 0 8.445 0 16.323-4.264 20.944-11.333 8.168-12.499 17.659-24.528 28.291-35.861h99.535c-4.937 34.307-8.828 69.442-11.606 104.817-0.103 1.304-0.103 2.615 0 3.919zM228.857 361.779h-5.503c-13.82 0-25.023-11.205-25.023-25.023s11.203-25.023 25.023-25.023h5.503c13.82 0 25.023 11.205 25.023 25.023s-11.203 25.023-25.023 25.023zM92.816 724.8h283.918c8.313 0 15.337-7.024 15.337-15.334 0-8.313-7.024-15.337-15.337-15.337h-160.719c-36.051 0-65.38-29.33-65.38-65.38v-40.36c0-13.818 11.203-25.023 25.023-25.023s25.023 11.205 25.023 25.023v40.36c0 8.31 7.021 15.334 15.334 15.334h160.719c36.053 0 65.383 29.332 65.383 65.383s-29.33 65.38-65.383 65.38h-283.918c-8.313 0-15.334 7.024-15.334 15.337 0 8.31 7.024 15.334 15.334 15.334h176.273c36.051 0 65.378 29.33 65.378 65.38 0 13.818-11.203 25.023-25.023 25.023s-25.023-11.205-25.023-25.023c0-8.31-7.021-15.334-15.332-15.334h-176.273c-36.051 0-65.38-29.33-65.38-65.38s29.33-65.383 65.38-65.383zM526.712 392.12c-7.387 11.676-22.841 15.162-34.524 7.775-11.678-7.387-15.162-22.844-7.775-34.524l42.432-67.1-18.975-30.008c-7.387-11.681-3.904-27.14 7.777-34.524 4.151-2.625 8.776-3.876 13.35-3.876 8.295 0 16.413 4.121 21.172 11.651l27.43 43.383c5.165 8.17 5.165 18.58 0 26.747l-50.887 80.477z" />
<glyph unicode="&#xe90d;" glyph-name="cntry-msg-bridge" d="M990.604 742.934c-18.44 0-33.39-14.95-33.39-33.39v-17.214c-42.858 28.796-91.706 53.152-144.694 72.442v44.532c0 18.44-14.95 33.39-33.39 33.39s-33.39-14.95-33.39-33.39v-23.484c-63.402 17.032-131.088 27.246-200.344 29.744v34.018c0 18.44-14.95 33.39-33.39 33.39s-33.39-14.95-33.39-33.39v-34.018c-69.256-2.498-136.942-12.714-200.344-29.744v23.484c0 18.44-14.95 33.39-33.39 33.39s-33.39-14.95-33.39-33.39v-44.532c-52.986-19.29-101.836-43.646-144.694-72.442v17.214c0 18.44-14.95 33.39-33.39 33.39s-33.39-14.95-33.39-33.39c0-10.542 0-353.458 0-378.218 0-12.856 7.38-24.568 18.978-30.118 67.692-32.396 148.546-26.646 211.018 15.002 49.6 33.066 113.704 33.062 163.302 0 72.098-48.064 165.274-48.078 237.388 0 49.604 33.066 113.704 33.064 163.302 0 62.47-41.648 143.328-47.4 211.020-15.002 11.596 5.55 18.978 17.262 18.978 30.118 0 12.366 0 332.912 0 378.218-0.008 18.44-14.958 33.39-33.4 33.39zM545.394 748.766c69.884-2.686 137.752-13.786 200.344-32.146v-71.088c-62.036 20.938-130.024 33.368-200.344 36.368v66.866zM278.268 716.62c62.59 18.36 130.46 29.46 200.344 32.146v-66.868c-70.322-2.998-138.31-15.428-200.344-36.368v71.090zM66.792 609.198c40.572 33.622 89.726 62.020 144.694 84.274v-74.906c-18.554-8.824-36.356-18.488-53.242-28.998-36.53-22.734-67.146-48.306-91.45-75.964v95.594zM593.652 371.774c-49.596-33.068-113.698-33.066-163.302 0-36.050 24.034-77.374 36.050-118.694 36.050-0.584 0-1.168-0.026-1.752-0.032 49.534 50.604 128.484 74.49 202.096 74.49 74.164 0 152.872-24.2 202.098-74.492-41.902 0.346-83.882-11.644-120.446-36.016zM831.042 371.774c-8.108 5.404-16.49 10.166-25.072 14.356-27.752 81.498-141.174 162.936-293.968 162.936-152.792 0-266.214-81.438-293.966-162.936-8.582-4.19-16.966-8.954-25.074-14.358-37.24-24.826-83.978-31.112-126.084-17.848 2.238 66.016 47.012 129.38 126.652 178.946 84.726 52.73 200.806 82.974 318.47 82.974s233.744-30.244 318.472-82.976c79.636-49.566 124.412-112.928 126.652-178.946-42.108-13.258-88.842-6.976-126.082 17.852zM957.214 513.606c-24.304 27.656-54.924 53.228-91.45 75.962-16.886 10.512-34.688 20.174-53.242 28.998v74.906c54.968-22.254 104.122-50.65 144.694-84.274v-95.592zM1020.724 212.174c-7.958 16.636-27.892 23.67-44.534 15.708-46.554-22.278-102.174-18.32-145.15 10.328-72.104 48.070-165.284 48.070-237.388 0-49.596-33.068-113.698-33.066-163.3 0-72.104 48.070-165.284 48.070-237.388 0-42.976-28.648-98.596-32.604-145.148-10.328-16.64 7.96-36.572 0.928-44.534-15.708-7.96-16.636-0.928-36.572 15.708-44.532 67.692-32.396 148.546-26.646 211.018 15.002 49.604 33.066 113.704 33.064 163.302 0 72.098-48.064 165.274-48.078 237.388 0 49.6 33.066 113.7 33.066 163.302 0 62.47-41.648 143.328-47.402 211.020-15.002 16.632 7.96 23.662 27.896 15.704 44.532zM1020.724 78.61c-7.958 16.636-27.892 23.672-44.534 15.708-46.554-22.276-102.174-18.32-145.15 10.328-72.104 48.070-165.284 48.070-237.388 0-49.596-33.068-113.698-33.066-163.3 0-72.104 48.070-165.284 48.070-237.388 0-42.98-28.646-98.6-32.604-145.15-10.328-16.64 7.96-36.572 0.926-44.534-15.708-7.96-16.636-0.928-36.572 15.708-44.532 67.692-32.394 148.546-26.646 211.018 15.002 49.604 33.066 113.704 33.066 163.302 0 72.098-48.064 165.274-48.078 237.388 0 49.6 33.066 113.7 33.066 163.302 0 62.47-41.65 143.328-47.4 211.020-15.002 16.634 7.96 23.664 27.898 15.706 44.532z" />
<glyph unicode="&#xe90e;" glyph-name="cntry-msg-bush" d="M1021.708 278.707c-7.072 24.413-29.648 42.166-64.507 51.232 31.69 77.262 29.262 140.83-7.596 165.303-7.669 5.093-18.898 9.804-34.217 9.871 17.054 60.477 9.86 106.961-20.787 127.309-22.314 14.813-53.062 12.698-87.497-5.222 4.512 54.105-9.316 93.16-39.459 107.771-29.526 14.314-68.073 1.607-107.108-34.062-8.519 44.155-28.474 72.611-57.179 80.036-29.288 7.583-61.761-8.837-91.358-45.431-29.59 36.592-62.059 53.011-91.358 45.431-28.707-7.428-48.662-35.882-57.179-80.036-39.035 35.666-77.58 48.371-107.108 34.060-30.143-14.609-43.973-53.664-39.461-107.769-34.435 17.922-65.183 20.039-87.493 5.222-30.651-20.347-37.841-66.839-20.789-127.309-15.317-0.067-26.548-4.778-34.215-9.871-36.86-24.473-39.29-88.041-7.598-165.305-34.859-9.065-57.434-26.816-64.509-51.229-10.741-37.069 16.593-79.417 74.99-116.189 51.196-32.238 111.395-49.279 174.089-49.279h521.258c62.696 0 122.895 17.041 174.091 49.279 58.399 36.774 85.731 79.122 74.99 116.189zM926.619 194.443c-45.169-28.443-98.417-43.476-153.99-43.476h-521.258c-55.57 0-108.819 15.033-153.987 43.476-40.584 25.556-64.236 55.199-58.857 73.765 4.057 13.998 25.582 24.832 57.583 28.98 5.998 0.779 11.262 4.387 14.149 9.702 2.889 5.317 3.051 11.695 0.439 17.152-35.402 73.936-34.375 127.196-15.432 139.772 3.921 2.603 8.681 3.597 13.666 3.597 7.252 0 14.975-2.104 21.271-4.416 6.957-2.55 14.766-0.799 19.961 4.489s6.808 13.129 4.128 20.039c-24.613 63.457-19.34 103.302-4.023 113.47 14.873 9.882 46.356-0.985 80.189-27.695 6.271-4.951 14.982-5.415 21.748-1.152 6.762 4.263 10.102 12.323 8.337 20.119-12.341 54.554-7.294 99.276 12.265 108.757 18.976 9.192 56.187-13.353 90.531-54.8 5.006-6.041 13.228-8.344 20.636-5.81 7.419 2.541 12.492 9.407 12.742 17.243 1.505 47.124 14.917 81.993 33.369 86.769 17.103 4.416 43.027-15.74 66.073-51.365 3.475-5.373 9.438-8.617 15.838-8.617s12.361 3.244 15.838 8.617c23.046 35.622 48.975 55.787 66.071 51.365 18.452-4.773 31.865-39.643 33.372-86.769 0.251-7.836 5.324-14.702 12.742-17.243 7.414-2.536 15.634-0.229 20.636 5.812 34.348 41.452 71.586 63.989 90.528 54.798 19.562-9.48 24.606-54.205 12.263-108.757-1.762-7.796 1.578-15.856 8.34-20.119 6.762-4.261 15.476-3.801 21.748 1.152 33.831 26.708 65.308 37.579 80.194 27.693 15.312-10.168 20.587-50.013-4.023-113.47-2.681-6.91-1.063-14.751 4.128-20.039 5.193-5.288 13-7.041 19.961-4.489 10.623 3.901 25.312 7.212 34.936 0.819 18.941-12.576 19.968-65.836-15.432-139.774-2.612-5.455-2.45-11.835 0.439-17.15 2.889-5.317 8.151-8.923 14.149-9.702 32-4.148 53.524-14.982 57.581-28.98 5.384-18.563-18.268-48.207-58.85-73.763zM331.585 327.859c-32.424 0-58.806-26.379-58.806-58.806s26.381-58.806 58.806-58.806 58.806 26.379 58.806 58.806-26.381 58.806-58.806 58.806zM331.585 247.974c-11.622 0-21.080 9.456-21.080 21.080s9.458 21.080 21.080 21.080 21.080-9.456 21.080-21.080-9.458-21.080-21.080-21.080zM677.762 327.859c-32.424 0-58.806-26.379-58.806-58.806s26.381-58.806 58.806-58.806c32.426 0 58.808 26.379 58.808 58.806s-26.381 58.806-58.808 58.806zM677.762 247.974c-11.622 0-21.080 9.456-21.080 21.080s9.458 21.080 21.080 21.080c11.624 0 21.082-9.456 21.082-21.080s-9.458-21.080-21.082-21.080zM512.002 616.503c-32.424 0-58.806-26.379-58.806-58.806s26.381-58.806 58.806-58.806 58.806 26.379 58.806 58.806-26.381 58.806-58.806 58.806zM512.002 536.618c-11.622 0-21.080 9.456-21.080 21.080s9.458 21.080 21.080 21.080 21.080-9.456 21.080-21.080-9.458-21.080-21.080-21.080zM504.675 404.633c-32.424 0-58.806-26.379-58.806-58.806s26.381-58.806 58.806-58.806 58.806 26.379 58.806 58.806-26.381 58.806-58.806 58.806zM504.675 324.748c-11.622 0-21.080 9.456-21.080 21.080s9.458 21.080 21.080 21.080 21.080-9.456 21.080-21.080-9.458-21.080-21.080-21.080zM349.526 445.821c0 32.426-26.381 58.806-58.806 58.806s-58.806-26.379-58.806-58.806 26.381-58.808 58.806-58.808 58.806 26.384 58.806 58.808zM269.641 445.821c0 11.624 9.458 21.080 21.080 21.080s21.080-9.456 21.080-21.080c0-11.624-9.458-21.082-21.080-21.082-11.624 0.002-21.080 9.458-21.080 21.082zM733.281 504.626c-32.426 0-58.808-26.379-58.808-58.806s26.381-58.808 58.808-58.808c32.424 0 58.806 26.381 58.806 58.808s-26.379 58.806-58.806 58.806zM733.281 424.741c-11.624 0-21.082 9.456-21.082 21.082 0 11.624 9.458 21.080 21.082 21.080 11.622 0 21.080-9.456 21.080-21.080 0-11.626-9.456-21.082-21.080-21.082z" />
<glyph unicode="&#xe926;" glyph-name="file-text2" d="M917.806 730.924c-22.212 30.292-53.174 65.7-87.178 99.704s-69.412 64.964-99.704 87.178c-51.574 37.82-76.592 42.194-90.924 42.194h-496c-44.112 0-80-35.888-80-80v-864c0-44.112 35.888-80 80-80h736c44.112 0 80 35.888 80 80v624c0 14.332-4.372 39.35-42.194 90.924zM785.374 785.374c30.7-30.7 54.8-58.398 72.58-81.374h-153.954v153.946c22.984-17.78 50.678-41.878 81.374-72.572zM896 16c0-8.672-7.328-16-16-16h-736c-8.672 0-16 7.328-16 16v864c0 8.672 7.328 16 16 16 0 0 495.956 0.002 496 0v-224c0-17.672 14.326-32 32-32h224v-624zM736 128h-448c-17.672 0-32 14.326-32 32s14.328 32 32 32h448c17.674 0 32-14.326 32-32s-14.326-32-32-32zM736 256h-448c-17.672 0-32 14.326-32 32s14.328 32 32 32h448c17.674 0 32-14.326 32-32s-14.326-32-32-32zM736 384h-448c-17.672 0-32 14.326-32 32s14.328 32 32 32h448c17.674 0 32-14.326 32-32s-14.326-32-32-32z" />
<glyph unicode="&#xe9bd;" glyph-name="menu" d="M64 768h896v-192h-896zM64 512h896v-192h-896zM64 256h896v-192h-896z" />
<glyph unicode="&#xeadf;" glyph-name="file-pdf" d="M842.012 370.52c-13.648 13.446-43.914 20.566-89.972 21.172-31.178 0.344-68.702-2.402-108.17-7.928-17.674 10.198-35.892 21.294-50.188 34.658-38.462 35.916-70.568 85.772-90.576 140.594 1.304 5.12 2.414 9.62 3.448 14.212 0 0 21.666 123.060 15.932 164.666-0.792 5.706-1.276 7.362-2.808 11.796l-1.882 4.834c-5.894 13.592-17.448 27.994-35.564 27.208l-10.916 0.344c-20.202 0-36.664-10.332-40.986-25.774-13.138-48.434 0.418-120.892 24.98-214.738l-6.288-15.286c-17.588-42.876-39.63-86.060-59.078-124.158l-2.528-4.954c-20.46-40.040-39.026-74.028-55.856-102.822l-17.376-9.188c-1.264-0.668-31.044-16.418-38.028-20.644-59.256-35.38-98.524-75.542-105.038-107.416-2.072-10.17-0.53-23.186 10.014-29.212l16.806-8.458c7.292-3.652 14.978-5.502 22.854-5.502 42.206 0 91.202 52.572 158.698 170.366 77.93 25.37 166.652 46.458 244.412 58.090 59.258-33.368 132.142-56.544 178.142-56.544 8.168 0 15.212 0.78 20.932 2.294 8.822 2.336 16.258 7.368 20.792 14.194 8.926 13.432 10.734 31.932 8.312 50.876-0.72 5.622-5.21 12.574-10.068 17.32zM211.646 145.952c7.698 21.042 38.16 62.644 83.206 99.556 2.832 2.296 9.808 8.832 16.194 14.902-47.104-75.124-78.648-105.066-99.4-114.458zM478.434 760.314c13.566 0 21.284-34.194 21.924-66.254s-6.858-54.56-16.158-71.208c-7.702 24.648-11.426 63.5-11.426 88.904 0 0-0.566 48.558 5.66 48.558v0zM398.852 322.506c9.45 16.916 19.282 34.756 29.33 53.678 24.492 46.316 39.958 82.556 51.478 112.346 22.91-41.684 51.444-77.12 84.984-105.512 4.186-3.542 8.62-7.102 13.276-10.65-68.21-13.496-127.164-29.91-179.068-49.862v0zM828.902 326.348c-4.152-2.598-16.052-4.1-23.708-4.1-24.708 0-55.272 11.294-98.126 29.666 16.468 1.218 31.562 1.838 45.102 1.838 24.782 0 32.12 0.108 56.35-6.072 24.228-6.18 24.538-18.734 20.382-21.332v0zM917.806 730.924c-22.21 30.292-53.174 65.7-87.178 99.704s-69.412 64.964-99.704 87.178c-51.574 37.82-76.592 42.194-90.924 42.194h-496c-44.112 0-80-35.888-80-80v-864c0-44.112 35.886-80 80-80h736c44.112 0 80 35.888 80 80v624c0 14.332-4.372 39.35-42.194 90.924v0zM785.374 785.374c30.7-30.7 54.8-58.398 72.58-81.374h-153.954v153.946c22.982-17.78 50.678-41.878 81.374-72.572v0zM896 16c0-8.672-7.328-16-16-16h-736c-8.672 0-16 7.328-16 16v864c0 8.672 7.328 16 16 16 0 0 495.956 0.002 496 0v-224c0-17.672 14.324-32 32-32h224v-624z" />
<glyph unicode="&#xf03e;" glyph-name="arrow-right" horiz-adv-x="640" d="M640 448l-384 320v-192h-256v-256h256v-192l384 320z" />
<glyph unicode="&#xf040;" glyph-name="arrow-left" horiz-adv-x="640" d="M384 576v192l-384-320 384-320v192h256v256h-256z" />
<glyph unicode="&#xf044;" glyph-name="triangle-left" horiz-adv-x="383" d="M0 448.125l383.75-383.75v767.5l-383.75-383.75z" />
<glyph unicode="&#xf05a;" glyph-name="triangle-right" horiz-adv-x="383" d="M0.062 831.75l383.75-383.75-383.75-383.75v767.5z" />
<glyph unicode="&#xf05b;" glyph-name="triangle-down" horiz-adv-x="767" d="M0 576l383.75-383.75 383.75 383.75h-767.5z" />
<glyph unicode="&#xf05e;" glyph-name="three-bars" horiz-adv-x="768" d="M0 768v-128h768v128h-768zM0 384h768v128h-768v-128zM0 128h768v128h-768v-128z" />
<glyph unicode="&#xf078;" glyph-name="chevron-right" horiz-adv-x="448" d="M128 768l-128-128 192-192-192-192 128-128 320 320-320 320z" />
<glyph unicode="&#xf081;" glyph-name="close" horiz-adv-x="640" d="M640 640l-128 128-192-192-192 192-128-128 192-192-192-192 128-128 192 192 192-192 128 128-192 192 192 192z" />
<glyph unicode="&#xf0a2;" glyph-name="chevron-up" horiz-adv-x="640" d="M320 704l-320-320 128-128 192 192 192-192 128 128-320 320z" />
<glyph unicode="&#xf0a3;" glyph-name="chevron-down" horiz-adv-x="640" d="M512 640l-192-192-192 192-128-128 320-320 320 320-128 128z" />
<glyph unicode="&#xf0a4;" glyph-name="chevron-left" horiz-adv-x="448" d="M448 640l-128 128-320-320 320-320 128 128-192 192 192 192z" />
<glyph unicode="&#xf0aa;" glyph-name="triangle-up" horiz-adv-x="767" d="M383.75 704l-383.75-383.75h767.5l-383.75 383.75z" />
<glyph unicode="&#x1f5eb;" glyph-name="cntry-msg-tourism" d="M134.439 471.825c25.005 12.212 52.38 13.035 77.713 2.464 3.103-2.666 7.124-4.245 11.45-4.245h1.7c4.326 0 8.347 1.579 11.45 4.245 25.333 10.571 52.703 9.748 77.715-2.464 2.481-1.212 5.108-1.785 7.695-1.785 6.502 0.002 12.754 3.628 15.798 9.864 4.258 8.718 0.641 19.237-8.079 23.495-33.923 16.564-71.022 17.838-105.428 3.828-34.415 14.010-71.511 12.734-105.428-3.828-8.72-4.258-12.335-14.777-8.079-23.495 4.26-8.718 14.781-12.333 23.495-8.079zM820.819 871.103c-192.401 111.083-437.872 46.884-551.581-143.038-0.020 0.011-0.026 0.042-0.066 0.064l-17.568-30.427c16.336-9.432 20.043-20.141 25.172-34.971 5.874-16.88 13.171-37.88 40.825-53.845 27.652-15.965 49.488-11.786 67.043-8.432 15.407 2.971 26.556 5.106 42.872-4.315s20.043-20.141 25.172-34.971c5.874-16.88 13.171-37.88 40.825-53.845 27.652-15.965 49.488-11.786 67.025-8.422 9.664 1.849 17.627 3.388 26.24 1.968l-168.88-292.511h-184.243l-118.999 118.977c-15.745 15.767-36.716 25.166-56.085 25.166-14.976 0-28.328-5.446-38.627-15.745-26.286-26.264-26.615-59.906-0.834-85.686l83.864-83.842v-179.256c0-9.706 7.862-17.568 17.568-17.568s17.568 7.862 17.568 17.568v144.121l19.61-19.632c12.649-12.649 29.47-19.61 47.367-19.61h447.976c-0.703-1.889-1.098-3.931-1.098-6.061v-98.818c0-9.706 7.862-17.568 17.568-17.568s17.568 7.862 17.568 17.568v98.818c0 2.13-0.395 4.172-1.098 6.061h33.73l51.759-51.759c12.649-12.649 29.47-19.61 47.367-19.61 14.954 0 28.501 1.164 42.887 15.547 35.399 35.399 22.421 63.222 5.248 80.394l-71.303 70.578c-12.934 12.934-30.194 20.357-47.367 20.357h-289.853l158.726 274.923c5.538-6.746 8.198-14.395 11.408-23.677 5.854-16.869 13.154-37.869 40.825-53.845 27.652-15.965 49.488-11.786 67.025-8.422 15.427 2.96 26.556 5.106 42.872-4.315 16.336-9.432 20.043-20.141 25.192-34.982 5.854-16.869 13.171-37.88 40.825-53.845 27.652-15.965 49.488-11.786 67.043-8.432 15.409 2.971 26.556 5.106 42.872-4.315l17.568 30.427c-0.020 0.011-0.048 0.002-0.068 0.013 107.604 193.449 40.465 438.133-151.936 549.214zM748.324 173.221c7.903 0 16.116-3.667 22.572-10.123l71.303-70.578c7.642-7.642 12.671-12.671-5.292-30.634-4.633-4.633-6.829-5.27-18.051-5.27-8.52 0-16.516 3.316-22.531 9.333l-56.897 56.897c-3.294 3.294-7.752 5.139-12.407 5.139h-521.933c-8.52 0-16.516 3.316-22.531 9.333l-138.609 138.609c-12.144 12.144-11.902 23.255 0.834 35.992 3.667 3.667 8.189 5.446 13.791 5.446 9.948 0 22.223-5.841 31.249-14.867l124.138-124.138c3.294-3.294 7.772-5.139 12.429-5.139h521.936zM429.868 633.628c-20.624 7.317-37.643 4.060-51.836 1.351-15.407-2.971-26.545-5.088-42.861 4.333-16.318 9.421-20.054 20.124-25.183 34.953-3.364 9.675-13.69 30.572-13.69 30.572 84.566 146.473 253.899 213.452 410.262 174.827-2.644-0.628-5.321-1.265-8.031-2.007-91.367-24.867-181.72-106.963-268.662-244.028zM604.949 532.341c-20.245 6.922-37.002 3.766-51.006 1.074-15.427-2.96-26.545-5.088-42.861 4.333-16.318 9.421-20.054 20.124-25.183 34.953-4.622 13.294-10.167 29.121-25.781 43.056 100.494 157.942 188.128 210.779 244.487 227.102 37.006 10.736 65.011 7.55 81.51 3.274l-181.167-313.792zM780.033 431.053c-19.873 6.555-36.372 3.452-50.178 0.799-15.427-2.96-26.545-5.088-42.861 4.333-16.336 9.432-20.054 20.124-25.203 34.964-4.682 13.455-10.297 29.553-26.415 43.625l181.167 313.789c11.972-12.161 28.714-34.81 37.94-72.238 14.026-56.959 12.104-159.28-74.45-325.272zM939.091 333.719c0 0-23.24-1.517-33.321-3.43-15.407-2.971-26.545-5.088-42.861 4.333-16.336 9.432-20.054 20.124-25.203 34.964-4.73 13.635-10.429 29.984-27.050 44.194 75.209 143.838 101.139 263.104 77.004 354.683-0.731 2.73-1.498 5.354-2.277 7.958 111.632-116.103 138.275-296.228 53.709-442.701z" />
</font>
</defs>
</svg>
