<?xml version="1.0" encoding="UTF-8" standalone="no"?><!DOCTYPE svg PUBLIC "-//W3C//DTD SVG 1.1//EN" "http://www.w3.org/Graphics/SVG/1.1/DTD/svg11.dtd"><svg width="100%" height="100%" viewBox="0 0 250 244" version="1.1" xmlns="http://www.w3.org/2000/svg" xmlns:xlink="http://www.w3.org/1999/xlink" xml:space="preserve" style="fill-rule:evenodd;clip-rule:evenodd;stroke-linejoin:round;stroke-miterlimit:1.41421;"><g><g><circle cx="7.888" cy="5.679" r="0.979" style="fill:#c2c2c2;"/><path d="M36.371,19.851l-14.828,-8.763c-0.06,-0.038 -0.344,-0.214 -0.514,-0.302c-0.966,-0.508 -2.016,-0.741 -3.054,-0.715c-0.907,-0.023 -1.639,-0.767 -1.639,-1.68l0,-1.934c0,-3.561 -2.897,-6.457 -6.458,-6.457c-2.383,0 -4.531,1.281 -5.666,3.36l-3.821,1.985c-0.24,0.125 -0.391,0.373 -0.391,0.644c0,0.271 0.15,0.519 0.391,0.644l3.629,1.89l0,6.049c0,5.505 4.069,10.077 9.357,10.868l-4.169,4.17l-2.081,0c-0.401,0 -0.726,0.325 -0.726,0.726c0,0.401 0.325,0.726 0.726,0.726l11.987,0c0.401,0 0.726,-0.325 0.726,-0.726c0,-0.401 -0.325,-0.726 -0.726,-0.726l-2.352,0l4.048,-4.049l4.569,0c0.029,0 0.058,-0.002 0.087,-0.006c4.143,-0.05 8.047,-1.657 11.038,-4.556c0.002,-0.001 0.003,-0.003 0.005,-0.004c0.018,-0.018 0.032,-0.033 0.042,-0.046c0.027,-0.032 0.053,-0.066 0.075,-0.104c0.204,-0.345 0.09,-0.79 -0.255,-0.994Zm-30.899,-5.279l0,-6.489c0,-0.002 0,-0.003 0,-0.005c0,-0.006 0,-0.011 -0.001,-0.017c0,-0.01 -0.001,-0.019 -0.002,-0.027c-0.016,-0.244 -0.155,-0.474 -0.388,-0.595l-2.782,-1.449l2.717,-1.411c0.159,-0.064 0.297,-0.184 0.38,-0.35c0.853,-1.713 2.57,-2.777 4.482,-2.777c2.76,0 5.006,2.245 5.006,5.005l0,1.934c0,0.834 0.328,1.593 0.862,2.155c-0.71,0.295 -1.374,0.724 -1.951,1.284c-1.196,1.159 -1.868,2.714 -1.894,4.378c-0.026,1.665 0.598,3.24 1.757,4.435c1.428,1.473 3.088,2.64 4.899,3.466l-3.548,0c-5.259,0 -9.537,-4.278 -9.537,-9.537Zm9.236,15.038l-3.447,0l4.049,-4.049l3.447,0l-4.049,4.049Zm5.99,-6.224c-0.168,-0.054 -0.334,-0.112 -0.499,-0.172l0,-1.763c0,-0.401 -0.325,-0.726 -0.726,-0.726c-0.401,0 -0.726,0.325 -0.726,0.726l0,1.141c-0.606,-0.3 -1.192,-0.644 -1.754,-1.028l0,-3.083c0,-0.401 -0.325,-0.726 -0.726,-0.726c-0.401,0 -0.726,0.325 -0.726,0.726l0,1.953c-0.289,-0.255 -0.569,-0.522 -0.84,-0.801c-0.889,-0.917 -1.368,-2.125 -1.348,-3.402c0.02,-1.277 0.536,-2.47 1.452,-3.359c0.879,-0.852 2.017,-1.312 3.18,-1.348c0.011,0 0.061,-0.001 0.075,-0.001c0.78,-0.012 1.57,0.167 2.297,0.549c0.099,0.052 0.313,0.182 0.424,0.252c0.005,0.003 0.011,0.006 0.016,0.009l7.075,4.181c-0.189,3.805 -3.33,6.845 -7.174,6.872Zm4.567,0.72c-0.078,0 -0.156,-0.001 -0.233,-0.002c-0.272,-0.004 -0.542,-0.016 -0.812,-0.035c2.67,-1.21 4.623,-3.733 5.032,-6.739l5.533,3.27c-2.663,2.271 -6.001,3.506 -9.52,3.506Z" style="fill:#c2c2c2;fill-rule:nonzero;"/><path d="M11.416,19.757c-0.145,-0.101 -0.288,-0.209 -0.423,-0.321c-0.309,-0.256 -0.767,-0.213 -1.022,0.096c-0.256,0.309 -0.213,0.766 0.096,1.022c0.167,0.138 0.341,0.271 0.519,0.395c0.127,0.088 0.271,0.13 0.414,0.13c0.23,0 0.456,-0.109 0.597,-0.312c0.229,-0.329 0.148,-0.781 -0.181,-1.01Z" style="fill:#c2c2c2;fill-rule:nonzero;"/><path d="M9.724,18.017c-0.671,-1.026 -1.026,-2.217 -1.026,-3.445c0,-0.401 -0.325,-0.726 -0.726,-0.726c-0.401,0 -0.725,0.325 -0.725,0.726c0,1.511 0.436,2.977 1.262,4.24c0.139,0.213 0.371,0.328 0.608,0.328c0.136,0 0.274,-0.038 0.397,-0.118c0.335,-0.22 0.429,-0.67 0.21,-1.005Z" style="fill:#c2c2c2;fill-rule:nonzero;"/></g><g><circle cx="7.888" cy="112.149" r="0.979" style="fill:#c2c2c2;"/><path d="M36.371,126.32l-14.828,-8.763c-0.06,-0.038 -0.344,-0.214 -0.514,-0.302c-0.966,-0.508 -2.016,-0.741 -3.054,-0.715c-0.907,-0.023 -1.639,-0.767 -1.639,-1.68l0,-1.934c0,-3.56 -2.897,-6.457 -6.458,-6.457c-2.383,0 -4.531,1.281 -5.666,3.36l-3.821,1.985c-0.24,0.125 -0.391,0.373 -0.391,0.644c0,0.271 0.15,0.519 0.391,0.644l3.629,1.891l0,6.048c0,5.505 4.069,10.077 9.357,10.868l-4.169,4.17l-2.081,0c-0.401,0 -0.726,0.325 -0.726,0.726c0,0.401 0.325,0.726 0.726,0.726l11.987,0c0.401,0 0.726,-0.325 0.726,-0.726c0,-0.401 -0.325,-0.726 -0.726,-0.726l-2.352,0l4.048,-4.049l4.569,0c0.029,0 0.058,-0.002 0.087,-0.005c4.143,-0.051 8.047,-1.658 11.038,-4.556c0.002,-0.002 0.003,-0.004 0.005,-0.005c0.018,-0.018 0.032,-0.033 0.042,-0.046c0.027,-0.032 0.053,-0.066 0.075,-0.104c0.204,-0.345 0.09,-0.79 -0.255,-0.994Zm-30.899,-5.279l0,-6.489c0,-0.002 0,-0.003 0,-0.005c0,-0.006 0,-0.011 -0.001,-0.017c0,-0.009 -0.001,-0.018 -0.002,-0.026c-0.016,-0.245 -0.155,-0.474 -0.388,-0.596l-2.782,-1.449l2.717,-1.411c0.159,-0.064 0.297,-0.184 0.38,-0.35c0.853,-1.713 2.57,-2.777 4.482,-2.777c2.76,0 5.006,2.245 5.006,5.005l0,1.934c0,0.834 0.328,1.593 0.862,2.155c-0.71,0.295 -1.374,0.724 -1.951,1.284c-1.196,1.159 -1.868,2.714 -1.894,4.379c-0.026,1.664 0.598,3.239 1.757,4.434c1.428,1.473 3.088,2.64 4.899,3.466l-3.548,0c-5.259,0 -9.537,-4.278 -9.537,-9.537Zm9.236,15.038l-3.447,0l4.049,-4.049l3.447,0l-4.049,4.049Zm5.99,-6.224c-0.168,-0.054 -0.334,-0.112 -0.499,-0.172l0,-1.763c0,-0.401 -0.325,-0.726 -0.726,-0.726c-0.401,0 -0.726,0.325 -0.726,0.726l0,1.141c-0.606,-0.3 -1.192,-0.644 -1.754,-1.028l0,-3.082c0,-0.401 -0.325,-0.726 -0.726,-0.726c-0.401,0 -0.726,0.325 -0.726,0.726l0,1.952c-0.289,-0.255 -0.569,-0.522 -0.84,-0.801c-0.889,-0.917 -1.368,-2.125 -1.348,-3.402c0.02,-1.277 0.536,-2.47 1.452,-3.359c0.879,-0.852 2.017,-1.312 3.18,-1.348c0.011,0 0.061,0 0.075,-0.001c0.78,-0.012 1.57,0.167 2.297,0.55c0.099,0.051 0.313,0.181 0.424,0.251c0.005,0.003 0.011,0.006 0.016,0.009l7.075,4.181c-0.189,3.805 -3.33,6.845 -7.174,6.872Zm4.567,0.72c-0.078,0 -0.156,-0.001 -0.233,-0.002c-0.272,-0.004 -0.542,-0.016 -0.812,-0.035c2.67,-1.21 4.623,-3.732 5.032,-6.739l5.533,3.27c-2.663,2.272 -6.001,3.506 -9.52,3.506Z" style="fill:#c2c2c2;fill-rule:nonzero;"/><path d="M11.416,126.226c-0.145,-0.101 -0.288,-0.209 -0.423,-0.321c-0.309,-0.256 -0.767,-0.213 -1.022,0.096c-0.256,0.309 -0.213,0.767 0.096,1.022c0.167,0.138 0.341,0.271 0.519,0.395c0.127,0.088 0.271,0.13 0.414,0.13c0.23,0 0.456,-0.109 0.597,-0.312c0.229,-0.329 0.148,-0.781 -0.181,-1.01Z" style="fill:#c2c2c2;fill-rule:nonzero;"/><path d="M9.724,124.486c-0.671,-1.026 -1.026,-2.217 -1.026,-3.445c0,-0.401 -0.325,-0.726 -0.726,-0.726c-0.401,0 -0.725,0.325 -0.725,0.726c0,1.511 0.436,2.977 1.262,4.24c0.139,0.213 0.371,0.328 0.608,0.328c0.136,0 0.274,-0.038 0.397,-0.118c0.335,-0.22 0.429,-0.67 0.21,-1.005Z" style="fill:#c2c2c2;fill-rule:nonzero;"/></g><g><circle cx="7.888" cy="218.618" r="0.979" style="fill:#c2c2c2;"/><path d="M36.371,232.789l-14.828,-8.763c-0.06,-0.038 -0.344,-0.214 -0.514,-0.302c-0.966,-0.507 -2.016,-0.741 -3.054,-0.715c-0.907,-0.023 -1.639,-0.767 -1.639,-1.68l0,-1.934c0,-3.56 -2.897,-6.457 -6.458,-6.457c-2.383,0 -4.531,1.281 -5.666,3.36l-3.821,1.985c-0.24,0.125 -0.391,0.374 -0.391,0.644c0,0.271 0.15,0.519 0.391,0.644l3.629,1.891l0,6.048c0,5.505 4.069,10.077 9.357,10.868l-4.169,4.17l-2.081,0c-0.401,0 -0.726,0.325 -0.726,0.726c0,0.401 0.325,0.726 0.726,0.726l11.987,0c0.401,0 0.726,-0.325 0.726,-0.726c0,-0.401 -0.325,-0.726 -0.726,-0.726l-2.352,0l4.048,-4.049l4.569,0c0.029,0 0.058,-0.002 0.087,-0.005c4.143,-0.05 8.047,-1.658 11.038,-4.556c0.002,-0.002 0.003,-0.003 0.005,-0.005c0.018,-0.017 0.032,-0.033 0.042,-0.046c0.027,-0.032 0.053,-0.066 0.075,-0.104c0.204,-0.345 0.09,-0.79 -0.255,-0.994Zm-30.899,-5.279l0,-6.489c0,-0.002 0,-0.003 0,-0.005c0,-0.006 0,-0.011 -0.001,-0.017c0,-0.009 -0.001,-0.018 -0.002,-0.026c-0.016,-0.244 -0.155,-0.474 -0.388,-0.596l-2.782,-1.449l2.717,-1.411c0.159,-0.064 0.297,-0.184 0.38,-0.35c0.853,-1.713 2.57,-2.777 4.482,-2.777c2.76,0 5.006,2.245 5.006,5.005l0,1.934c0,0.834 0.328,1.593 0.862,2.155c-0.71,0.295 -1.374,0.724 -1.951,1.284c-1.196,1.159 -1.868,2.714 -1.894,4.379c-0.026,1.664 0.598,3.239 1.757,4.435c1.428,1.473 3.088,2.639 4.899,3.465l-3.548,0c-5.259,0 -9.537,-4.278 -9.537,-9.537Zm9.236,15.038l-3.447,0l4.049,-4.049l3.447,0l-4.049,4.049Zm5.99,-6.223c-0.168,-0.055 -0.334,-0.113 -0.499,-0.173l0,-1.763c0,-0.401 -0.325,-0.726 -0.726,-0.726c-0.401,0 -0.726,0.325 -0.726,0.726l0,1.141c-0.606,-0.3 -1.192,-0.644 -1.754,-1.028l0,-3.082c0,-0.401 -0.325,-0.726 -0.726,-0.726c-0.401,0 -0.726,0.325 -0.726,0.726l0,1.952c-0.289,-0.255 -0.569,-0.522 -0.84,-0.801c-0.889,-0.917 -1.368,-2.125 -1.348,-3.402c0.02,-1.277 0.536,-2.469 1.452,-3.358c0.879,-0.852 2.017,-1.313 3.18,-1.349c0.011,0 0.061,0 0.075,-0.001c0.78,-0.012 1.57,0.168 2.297,0.55c0.099,0.051 0.313,0.181 0.424,0.251c0.005,0.003 0.011,0.006 0.016,0.01l7.075,4.18c-0.189,3.805 -3.33,6.845 -7.174,6.873Zm4.567,0.719c-0.078,0 -0.156,0 -0.233,-0.002c-0.272,-0.004 -0.542,-0.016 -0.812,-0.035c2.67,-1.21 4.623,-3.732 5.032,-6.738l5.533,3.27c-2.663,2.271 -6.001,3.505 -9.52,3.505Z" style="fill:#c2c2c2;fill-rule:nonzero;"/><path d="M11.416,232.695c-0.145,-0.101 -0.288,-0.209 -0.423,-0.321c-0.309,-0.256 -0.767,-0.213 -1.022,0.096c-0.256,0.309 -0.213,0.767 0.096,1.022c0.167,0.138 0.341,0.271 0.519,0.395c0.127,0.088 0.271,0.13 0.414,0.13c0.23,0 0.456,-0.109 0.597,-0.311c0.229,-0.33 0.148,-0.782 -0.181,-1.011Z" style="fill:#c2c2c2;fill-rule:nonzero;"/><path d="M9.724,230.955c-0.671,-1.026 -1.026,-2.217 -1.026,-3.445c0,-0.401 -0.325,-0.726 -0.726,-0.726c-0.401,0 -0.725,0.325 -0.725,0.726c0,1.511 0.436,2.978 1.262,4.24c0.139,0.213 0.371,0.328 0.608,0.328c0.136,0 0.274,-0.038 0.397,-0.118c0.335,-0.22 0.429,-0.67 0.21,-1.005Z" style="fill:#c2c2c2;fill-rule:nonzero;"/></g><g><circle cx="28.839" cy="58.914" r="0.979" style="fill:#c2c2c2;"/><path d="M0.357,73.085l14.827,-8.762c0.061,-0.038 0.345,-0.215 0.514,-0.303c0.966,-0.507 2.017,-0.741 3.054,-0.715c0.908,-0.023 1.64,-0.767 1.64,-1.68l0,-1.934c0,-3.56 2.896,-6.456 6.457,-6.456c2.383,0 4.532,1.281 5.667,3.36l3.82,1.985c0.241,0.125 0.391,0.373 0.392,0.644c0,0.27 -0.151,0.519 -0.391,0.644l-3.629,1.89l0,6.048c0,5.505 -4.069,10.078 -9.358,10.868l4.17,4.17l2.081,0c0.401,0 0.726,0.325 0.726,0.726c0,0.401 -0.325,0.726 -0.726,0.726l-11.988,0c-0.401,0 -0.726,-0.325 -0.726,-0.726c0,-0.401 0.325,-0.726 0.726,-0.726l2.353,0l-4.049,-4.048l-4.568,0c-0.03,0 -0.059,-0.003 -0.087,-0.006c-4.143,-0.05 -8.047,-1.657 -11.039,-4.556c-0.001,-0.001 -0.003,-0.003 -0.004,-0.005c-0.018,-0.017 -0.032,-0.032 -0.042,-0.046c-0.028,-0.032 -0.054,-0.066 -0.076,-0.103c-0.204,-0.346 -0.089,-0.791 0.256,-0.995Zm30.899,-5.279l0,-6.488c0,-0.002 0,-0.004 0,-0.006c0,-0.005 0,-0.011 0,-0.016c0.001,-0.01 0.001,-0.019 0.002,-0.027c0.017,-0.244 0.156,-0.474 0.388,-0.595l2.782,-1.449l-2.716,-1.412c-0.16,-0.064 -0.298,-0.183 -0.38,-0.349c-0.853,-1.713 -2.571,-2.778 -4.483,-2.778c-2.76,0 -5.005,2.246 -5.005,5.005l0,1.934c0,0.835 -0.329,1.593 -0.862,2.155c0.71,0.295 1.373,0.725 1.951,1.284c1.195,1.159 1.868,2.714 1.894,4.379c0.025,1.665 -0.599,3.239 -1.758,4.435c-1.428,1.473 -3.087,2.639 -4.898,3.466l3.548,0c5.258,0 9.537,-4.279 9.537,-9.538Zm-9.237,15.038l3.448,0l-4.049,-4.048l-3.447,0l4.048,4.048Zm-5.989,-6.223c0.167,-0.055 0.333,-0.112 0.499,-0.173l0,-1.762c0,-0.401 0.325,-0.726 0.726,-0.726c0.401,0 0.726,0.325 0.726,0.726l0,1.14c0.606,-0.3 1.192,-0.643 1.754,-1.027l0,-3.083c0,-0.401 0.325,-0.726 0.726,-0.726c0.401,0 0.726,0.325 0.726,0.726l0,1.952c0.288,-0.255 0.569,-0.521 0.84,-0.801c0.889,-0.917 1.367,-2.125 1.348,-3.402c-0.02,-1.276 -0.536,-2.469 -1.453,-3.358c-0.879,-0.852 -2.017,-1.313 -3.179,-1.349c-0.011,0.001 -0.061,0 -0.075,-0.001c-0.781,-0.011 -1.57,0.168 -2.298,0.55c-0.098,0.051 -0.312,0.181 -0.424,0.251c-0.005,0.003 -0.01,0.007 -0.016,0.01l-7.074,4.181c0.189,3.804 3.33,6.844 7.174,6.872Zm-4.567,0.719c0.077,0 0.155,0 0.233,-0.001c0.272,-0.004 0.542,-0.017 0.811,-0.036c-2.67,-1.21 -4.622,-3.732 -5.032,-6.738l-5.533,3.27c2.663,2.271 6.002,3.505 9.521,3.505Z" style="fill:#c2c2c2;fill-rule:nonzero;"/><path d="M25.312,72.991c0.145,-0.1 0.287,-0.209 0.423,-0.321c0.309,-0.256 0.766,-0.212 1.022,0.096c0.256,0.309 0.213,0.767 -0.096,1.023c-0.167,0.138 -0.342,0.27 -0.52,0.394c-0.126,0.088 -0.271,0.13 -0.414,0.13c-0.229,0 -0.455,-0.108 -0.596,-0.311c-0.229,-0.329 -0.148,-0.782 0.181,-1.011Z" style="fill:#c2c2c2;fill-rule:nonzero;"/><path d="M27.004,71.251c0.67,-1.025 1.025,-2.217 1.025,-3.445c0,-0.401 0.325,-0.726 0.726,-0.726c0.401,0 0.726,0.325 0.726,0.726c0,1.512 -0.437,2.978 -1.262,4.24c-0.14,0.213 -0.372,0.329 -0.609,0.329c-0.136,0 -0.274,-0.039 -0.396,-0.119c-0.336,-0.219 -0.43,-0.669 -0.21,-1.005Z" style="fill:#c2c2c2;fill-rule:nonzero;"/></g><g><circle cx="28.839" cy="165.383" r="0.979" style="fill:#c2c2c2;"/><path d="M0.357,179.554l14.827,-8.762c0.061,-0.038 0.345,-0.215 0.514,-0.303c0.966,-0.507 2.017,-0.74 3.054,-0.714c0.908,-0.023 1.64,-0.767 1.64,-1.681l0,-1.934c0,-3.56 2.896,-6.456 6.457,-6.456c2.383,0 4.532,1.281 5.667,3.36l3.82,1.985c0.241,0.125 0.391,0.373 0.392,0.644c0,0.27 -0.151,0.519 -0.391,0.644l-3.629,1.89l0,6.048c0,5.506 -4.069,10.078 -9.358,10.868l4.17,4.171l2.081,0c0.401,0 0.726,0.325 0.726,0.725c0,0.401 -0.325,0.726 -0.726,0.726l-11.988,0c-0.401,0 -0.726,-0.325 -0.726,-0.726c0,-0.401 0.325,-0.725 0.726,-0.725l2.353,0l-4.049,-4.049l-4.568,0c-0.03,0 -0.059,-0.002 -0.087,-0.006c-4.143,-0.05 -8.047,-1.657 -11.039,-4.556c-0.001,-0.001 -0.003,-0.003 -0.004,-0.004c-0.018,-0.018 -0.032,-0.033 -0.042,-0.047c-0.028,-0.032 -0.054,-0.066 -0.076,-0.103c-0.204,-0.345 -0.089,-0.791 0.256,-0.995Zm30.899,-5.278l0,-6.489c0,-0.002 0,-0.004 0,-0.006c0,-0.005 0,-0.011 0,-0.016c0.001,-0.01 0.001,-0.019 0.002,-0.027c0.017,-0.244 0.156,-0.474 0.388,-0.595l2.782,-1.449l-2.716,-1.412c-0.16,-0.063 -0.298,-0.183 -0.38,-0.349c-0.853,-1.713 -2.571,-2.777 -4.483,-2.777c-2.76,0 -5.005,2.245 -5.005,5.004l0,1.934c0,0.835 -0.329,1.593 -0.862,2.156c0.71,0.295 1.373,0.724 1.951,1.284c1.195,1.159 1.868,2.714 1.894,4.378c0.025,1.665 -0.599,3.24 -1.758,4.435c-1.428,1.473 -3.087,2.639 -4.898,3.466l3.548,0c5.258,0 9.537,-4.279 9.537,-9.537Zm-9.237,15.038l3.448,0l-4.049,-4.049l-3.447,0l4.048,4.049Zm-5.989,-6.224c0.167,-0.054 0.333,-0.112 0.499,-0.173l0,-1.762c0,-0.401 0.325,-0.726 0.726,-0.726c0.401,0 0.726,0.325 0.726,0.726l0,1.14c0.606,-0.3 1.192,-0.643 1.754,-1.027l0,-3.083c0,-0.401 0.325,-0.726 0.726,-0.726c0.401,0 0.726,0.325 0.726,0.726l0,1.953c0.288,-0.255 0.569,-0.522 0.84,-0.802c0.889,-0.917 1.367,-2.125 1.348,-3.402c-0.02,-1.276 -0.536,-2.469 -1.453,-3.358c-0.879,-0.852 -2.017,-1.313 -3.179,-1.348c-0.011,0 -0.061,-0.001 -0.075,-0.002c-0.781,-0.011 -1.57,0.168 -2.298,0.55c-0.098,0.051 -0.312,0.181 -0.424,0.251c-0.005,0.004 -0.01,0.007 -0.016,0.01l-7.074,4.181c0.189,3.804 3.33,6.845 7.174,6.872Zm-4.567,0.72c0.077,0 0.155,-0.001 0.233,-0.002c0.272,-0.004 0.542,-0.017 0.811,-0.035c-2.67,-1.211 -4.622,-3.733 -5.032,-6.739l-5.533,3.27c2.663,2.271 6.002,3.506 9.521,3.506Z" style="fill:#c2c2c2;fill-rule:nonzero;"/><path d="M25.312,179.46c0.145,-0.1 0.287,-0.208 0.423,-0.321c0.309,-0.256 0.766,-0.212 1.022,0.097c0.256,0.308 0.213,0.766 -0.096,1.022c-0.167,0.138 -0.342,0.271 -0.52,0.394c-0.126,0.088 -0.271,0.131 -0.414,0.131c-0.229,0 -0.455,-0.109 -0.596,-0.312c-0.229,-0.329 -0.148,-0.782 0.181,-1.011Z" style="fill:#c2c2c2;fill-rule:nonzero;"/><path d="M27.004,177.72c0.67,-1.025 1.025,-2.216 1.025,-3.444c0,-0.401 0.325,-0.726 0.726,-0.726c0.401,0 0.726,0.325 0.726,0.726c0,1.511 -0.437,2.977 -1.262,4.239c-0.14,0.213 -0.372,0.329 -0.609,0.329c-0.136,0 -0.274,-0.039 -0.396,-0.119c-0.336,-0.219 -0.43,-0.669 -0.21,-1.005Z" style="fill:#c2c2c2;fill-rule:nonzero;"/></g></g><g><g><circle cx="61.206" cy="5.679" r="0.979" style="fill:#c2c2c2;"/><path d="M89.689,19.851l-14.827,-8.763c-0.061,-0.038 -0.345,-0.214 -0.514,-0.302c-0.966,-0.508 -2.017,-0.741 -3.055,-0.715c-0.907,-0.023 -1.639,-0.767 -1.639,-1.68l0,-1.934c0,-3.561 -2.897,-6.457 -6.457,-6.457c-2.383,0 -4.532,1.281 -5.667,3.36l-3.821,1.985c-0.24,0.125 -0.391,0.373 -0.391,0.644c0,0.271 0.151,0.519 0.391,0.644l3.629,1.89l0,6.049c0,5.505 4.069,10.077 9.358,10.868l-4.17,4.17l-2.081,0c-0.401,0 -0.726,0.325 -0.726,0.726c0,0.401 0.325,0.726 0.726,0.726l11.987,0c0.401,0 0.726,-0.325 0.726,-0.726c0,-0.401 -0.325,-0.726 -0.726,-0.726l-2.352,0l4.049,-4.049l4.568,0c0.029,0 0.058,-0.002 0.087,-0.006c4.143,-0.05 8.047,-1.657 11.038,-4.556c0.002,-0.001 0.004,-0.003 0.005,-0.004c0.018,-0.018 0.032,-0.033 0.042,-0.046c0.027,-0.032 0.053,-0.066 0.076,-0.104c0.204,-0.345 0.089,-0.79 -0.256,-0.994Zm-30.899,-5.279l0,-6.489c0,-0.002 0,-0.003 0,-0.005c0,-0.006 0,-0.011 -0.001,-0.017c0,-0.01 -0.001,-0.019 -0.001,-0.027c-0.017,-0.244 -0.156,-0.474 -0.389,-0.595l-2.782,-1.449l2.717,-1.411c0.159,-0.064 0.297,-0.184 0.38,-0.35c0.853,-1.713 2.57,-2.777 4.483,-2.777c2.76,0 5.005,2.245 5.005,5.005l0,1.934c0,0.834 0.328,1.593 0.862,2.155c-0.71,0.295 -1.374,0.724 -1.951,1.284c-1.195,1.159 -1.868,2.714 -1.894,4.378c-0.026,1.665 0.598,3.24 1.757,4.435c1.428,1.473 3.088,2.64 4.899,3.466l-3.548,0c-5.259,0 -9.537,-4.278 -9.537,-9.537Zm9.236,15.038l-3.447,0l4.049,-4.049l3.447,0l-4.049,4.049Zm5.99,-6.224c-0.168,-0.054 -0.334,-0.112 -0.499,-0.172l0,-1.763c0,-0.401 -0.325,-0.726 -0.726,-0.726c-0.401,0 -0.726,0.325 -0.726,0.726l0,1.141c-0.606,-0.3 -1.192,-0.644 -1.754,-1.028l0,-3.083c0,-0.401 -0.325,-0.726 -0.726,-0.726c-0.401,0 -0.726,0.325 -0.726,0.726l0,1.953c-0.289,-0.255 -0.569,-0.522 -0.84,-0.801c-0.889,-0.917 -1.368,-2.125 -1.348,-3.402c0.02,-1.277 0.536,-2.47 1.453,-3.359c0.878,-0.852 2.016,-1.312 3.179,-1.348c0.011,0 0.061,-0.001 0.075,-0.001c0.781,-0.012 1.57,0.167 2.297,0.549c0.099,0.052 0.313,0.182 0.424,0.252c0.006,0.003 0.011,0.006 0.016,0.009l7.075,4.181c-0.189,3.805 -3.33,6.845 -7.174,6.872Zm4.567,0.72c-0.077,0 -0.155,-0.001 -0.233,-0.002c-0.272,-0.004 -0.542,-0.016 -0.811,-0.035c2.669,-1.21 4.622,-3.733 5.031,-6.739l5.533,3.27c-2.663,2.271 -6.001,3.506 -9.52,3.506Z" style="fill:#c2c2c2;fill-rule:nonzero;"/><path d="M64.734,19.757c-0.145,-0.101 -0.287,-0.209 -0.423,-0.321c-0.309,-0.256 -0.767,-0.213 -1.022,0.096c-0.256,0.309 -0.213,0.766 0.096,1.022c0.167,0.138 0.342,0.271 0.52,0.395c0.126,0.088 0.27,0.13 0.413,0.13c0.23,0 0.456,-0.109 0.597,-0.312c0.229,-0.329 0.148,-0.781 -0.181,-1.01Z" style="fill:#c2c2c2;fill-rule:nonzero;"/><path d="M63.042,18.017c-0.671,-1.026 -1.026,-2.217 -1.026,-3.445c0,-0.401 -0.325,-0.726 -0.725,-0.726c-0.401,0 -0.726,0.325 -0.726,0.726c0,1.511 0.436,2.977 1.262,4.24c0.139,0.213 0.371,0.328 0.608,0.328c0.136,0 0.274,-0.038 0.397,-0.118c0.336,-0.22 0.43,-0.67 0.21,-1.005Z" style="fill:#c2c2c2;fill-rule:nonzero;"/></g><g><circle cx="61.206" cy="112.149" r="0.979" style="fill:#c2c2c2;"/><path d="M89.689,126.32l-14.827,-8.763c-0.061,-0.038 -0.345,-0.214 -0.514,-0.302c-0.966,-0.508 -2.017,-0.741 -3.055,-0.715c-0.907,-0.023 -1.639,-0.767 -1.639,-1.68l0,-1.934c0,-3.56 -2.897,-6.457 -6.457,-6.457c-2.383,0 -4.532,1.281 -5.667,3.36l-3.821,1.985c-0.24,0.125 -0.391,0.373 -0.391,0.644c0,0.271 0.151,0.519 0.391,0.644l3.629,1.891l0,6.048c0,5.505 4.069,10.077 9.358,10.868l-4.17,4.17l-2.081,0c-0.401,0 -0.726,0.325 -0.726,0.726c0,0.401 0.325,0.726 0.726,0.726l11.987,0c0.401,0 0.726,-0.325 0.726,-0.726c0,-0.401 -0.325,-0.726 -0.726,-0.726l-2.352,0l4.049,-4.049l4.568,0c0.029,0 0.058,-0.002 0.087,-0.005c4.143,-0.051 8.047,-1.658 11.038,-4.556c0.002,-0.002 0.004,-0.004 0.005,-0.005c0.018,-0.018 0.032,-0.033 0.042,-0.046c0.027,-0.032 0.053,-0.066 0.076,-0.104c0.204,-0.345 0.089,-0.79 -0.256,-0.994Zm-30.899,-5.279l0,-6.489c0,-0.002 0,-0.003 0,-0.005c0,-0.006 0,-0.011 -0.001,-0.017c0,-0.009 -0.001,-0.018 -0.001,-0.026c-0.017,-0.245 -0.156,-0.474 -0.389,-0.596l-2.782,-1.449l2.717,-1.411c0.159,-0.064 0.297,-0.184 0.38,-0.35c0.853,-1.713 2.57,-2.777 4.483,-2.777c2.76,0 5.005,2.245 5.005,5.005l0,1.934c0,0.834 0.328,1.593 0.862,2.155c-0.71,0.295 -1.374,0.724 -1.951,1.284c-1.195,1.159 -1.868,2.714 -1.894,4.379c-0.026,1.664 0.598,3.239 1.757,4.434c1.428,1.473 3.088,2.64 4.899,3.466l-3.548,0c-5.259,0 -9.537,-4.278 -9.537,-9.537Zm9.236,15.038l-3.447,0l4.049,-4.049l3.447,0l-4.049,4.049Zm5.99,-6.224c-0.168,-0.054 -0.334,-0.112 -0.499,-0.172l0,-1.763c0,-0.401 -0.325,-0.726 -0.726,-0.726c-0.401,0 -0.726,0.325 -0.726,0.726l0,1.141c-0.606,-0.3 -1.192,-0.644 -1.754,-1.028l0,-3.082c0,-0.401 -0.325,-0.726 -0.726,-0.726c-0.401,0 -0.726,0.325 -0.726,0.726l0,1.952c-0.289,-0.255 -0.569,-0.522 -0.84,-0.801c-0.889,-0.917 -1.368,-2.125 -1.348,-3.402c0.02,-1.277 0.536,-2.47 1.453,-3.359c0.878,-0.852 2.016,-1.312 3.179,-1.348c0.011,0 0.061,0 0.075,-0.001c0.781,-0.012 1.57,0.167 2.297,0.55c0.099,0.051 0.313,0.181 0.424,0.251c0.006,0.003 0.011,0.006 0.016,0.009l7.075,4.181c-0.189,3.805 -3.33,6.845 -7.174,6.872Zm4.567,0.72c-0.077,0 -0.155,-0.001 -0.233,-0.002c-0.272,-0.004 -0.542,-0.016 -0.811,-0.035c2.669,-1.21 4.622,-3.732 5.031,-6.739l5.533,3.27c-2.663,2.272 -6.001,3.506 -9.52,3.506Z" style="fill:#c2c2c2;fill-rule:nonzero;"/><path d="M64.734,126.226c-0.145,-0.101 -0.287,-0.209 -0.423,-0.321c-0.309,-0.256 -0.767,-0.213 -1.022,0.096c-0.256,0.309 -0.213,0.767 0.096,1.022c0.167,0.138 0.342,0.271 0.52,0.395c0.126,0.088 0.27,0.13 0.413,0.13c0.23,0 0.456,-0.109 0.597,-0.312c0.229,-0.329 0.148,-0.781 -0.181,-1.01Z" style="fill:#c2c2c2;fill-rule:nonzero;"/><path d="M63.042,124.486c-0.671,-1.026 -1.026,-2.217 -1.026,-3.445c0,-0.401 -0.325,-0.726 -0.725,-0.726c-0.401,0 -0.726,0.325 -0.726,0.726c0,1.511 0.436,2.977 1.262,4.24c0.139,0.213 0.371,0.328 0.608,0.328c0.136,0 0.274,-0.038 0.397,-0.118c0.336,-0.22 0.43,-0.67 0.21,-1.005Z" style="fill:#c2c2c2;fill-rule:nonzero;"/></g><g><circle cx="61.206" cy="218.618" r="0.979" style="fill:#c2c2c2;"/><path d="M89.689,232.789l-14.827,-8.763c-0.061,-0.038 -0.345,-0.214 -0.514,-0.302c-0.966,-0.507 -2.017,-0.741 -3.055,-0.715c-0.907,-0.023 -1.639,-0.767 -1.639,-1.68l0,-1.934c0,-3.56 -2.897,-6.457 -6.457,-6.457c-2.383,0 -4.532,1.281 -5.667,3.36l-3.821,1.985c-0.24,0.125 -0.391,0.374 -0.391,0.644c0,0.271 0.151,0.519 0.391,0.644l3.629,1.891l0,6.048c0,5.505 4.069,10.077 9.358,10.868l-4.17,4.17l-2.081,0c-0.401,0 -0.726,0.325 -0.726,0.726c0,0.401 0.325,0.726 0.726,0.726l11.987,0c0.401,0 0.726,-0.325 0.726,-0.726c0,-0.401 -0.325,-0.726 -0.726,-0.726l-2.352,0l4.049,-4.049l4.568,0c0.029,0 0.058,-0.002 0.087,-0.005c4.143,-0.05 8.047,-1.658 11.038,-4.556c0.002,-0.002 0.004,-0.003 0.005,-0.005c0.018,-0.017 0.032,-0.033 0.042,-0.046c0.027,-0.032 0.053,-0.066 0.076,-0.104c0.204,-0.345 0.089,-0.79 -0.256,-0.994Zm-30.899,-5.279l0,-6.489c0,-0.002 0,-0.003 0,-0.005c0,-0.006 0,-0.011 -0.001,-0.017c0,-0.009 -0.001,-0.018 -0.001,-0.026c-0.017,-0.244 -0.156,-0.474 -0.389,-0.596l-2.782,-1.449l2.717,-1.411c0.159,-0.064 0.297,-0.184 0.38,-0.35c0.853,-1.713 2.57,-2.777 4.483,-2.777c2.76,0 5.005,2.245 5.005,5.005l0,1.934c0,0.834 0.328,1.593 0.862,2.155c-0.71,0.295 -1.374,0.724 -1.951,1.284c-1.195,1.159 -1.868,2.714 -1.894,4.379c-0.026,1.664 0.598,3.239 1.757,4.435c1.428,1.473 3.088,2.639 4.899,3.465l-3.548,0c-5.259,0 -9.537,-4.278 -9.537,-9.537Zm9.236,15.038l-3.447,0l4.049,-4.049l3.447,0l-4.049,4.049Zm5.99,-6.223c-0.168,-0.055 -0.334,-0.113 -0.499,-0.173l0,-1.763c0,-0.401 -0.325,-0.726 -0.726,-0.726c-0.401,0 -0.726,0.325 -0.726,0.726l0,1.141c-0.606,-0.3 -1.192,-0.644 -1.754,-1.028l0,-3.082c0,-0.401 -0.325,-0.726 -0.726,-0.726c-0.401,0 -0.726,0.325 -0.726,0.726l0,1.952c-0.289,-0.255 -0.569,-0.522 -0.84,-0.801c-0.889,-0.917 -1.368,-2.125 -1.348,-3.402c0.02,-1.277 0.536,-2.469 1.453,-3.358c0.878,-0.852 2.016,-1.313 3.179,-1.349c0.011,0 0.061,0 0.075,-0.001c0.781,-0.012 1.57,0.168 2.297,0.55c0.099,0.051 0.313,0.181 0.424,0.251c0.006,0.003 0.011,0.006 0.016,0.01l7.075,4.18c-0.189,3.805 -3.33,6.845 -7.174,6.873Zm4.567,0.719c-0.077,0 -0.155,0 -0.233,-0.002c-0.272,-0.004 -0.542,-0.016 -0.811,-0.035c2.669,-1.21 4.622,-3.732 5.031,-6.738l5.533,3.27c-2.663,2.271 -6.001,3.505 -9.52,3.505Z" style="fill:#c2c2c2;fill-rule:nonzero;"/><path d="M64.734,232.695c-0.145,-0.101 -0.287,-0.209 -0.423,-0.321c-0.309,-0.256 -0.767,-0.213 -1.022,0.096c-0.256,0.309 -0.213,0.767 0.096,1.022c0.167,0.138 0.342,0.271 0.52,0.395c0.126,0.088 0.27,0.13 0.413,0.13c0.23,0 0.456,-0.109 0.597,-0.311c0.229,-0.33 0.148,-0.782 -0.181,-1.011Z" style="fill:#c2c2c2;fill-rule:nonzero;"/><path d="M63.042,230.955c-0.671,-1.026 -1.026,-2.217 -1.026,-3.445c0,-0.401 -0.325,-0.726 -0.725,-0.726c-0.401,0 -0.726,0.325 -0.726,0.726c0,1.511 0.436,2.978 1.262,4.24c0.139,0.213 0.371,0.328 0.608,0.328c0.136,0 0.274,-0.038 0.397,-0.118c0.336,-0.22 0.43,-0.67 0.21,-1.005Z" style="fill:#c2c2c2;fill-rule:nonzero;"/></g><g><circle cx="82.157" cy="58.914" r="0.979" style="fill:#c2c2c2;"/><path d="M53.675,73.085l14.827,-8.762c0.061,-0.038 0.345,-0.215 0.514,-0.303c0.966,-0.507 2.017,-0.741 3.054,-0.715c0.908,-0.023 1.64,-0.767 1.64,-1.68l0,-1.934c0,-3.56 2.897,-6.456 6.457,-6.456c2.383,0 4.532,1.281 5.667,3.36l3.82,1.985c0.241,0.125 0.392,0.373 0.392,0.644c0,0.27 -0.151,0.519 -0.391,0.644l-3.629,1.89l0,6.048c0,5.505 -4.069,10.078 -9.358,10.868l4.17,4.17l2.081,0c0.401,0 0.726,0.325 0.726,0.726c0,0.401 -0.325,0.726 -0.726,0.726l-11.988,0c-0.401,0 -0.726,-0.325 -0.726,-0.726c0,-0.401 0.325,-0.726 0.726,-0.726l2.353,0l-4.049,-4.048l-4.568,0c-0.03,0 -0.058,-0.003 -0.087,-0.006c-4.143,-0.05 -8.047,-1.657 -11.039,-4.556c-0.001,-0.001 -0.003,-0.003 -0.004,-0.005c-0.018,-0.017 -0.032,-0.032 -0.042,-0.046c-0.027,-0.032 -0.054,-0.066 -0.076,-0.103c-0.204,-0.346 -0.089,-0.791 0.256,-0.995Zm30.899,-5.279l0,-6.488c0,-0.002 0,-0.004 0,-0.006c0,-0.005 0,-0.011 0,-0.016c0.001,-0.01 0.001,-0.019 0.002,-0.027c0.017,-0.244 0.156,-0.474 0.389,-0.595l2.781,-1.449l-2.716,-1.412c-0.16,-0.064 -0.297,-0.183 -0.38,-0.349c-0.853,-1.713 -2.571,-2.778 -4.483,-2.778c-2.76,0 -5.005,2.246 -5.005,5.005l0,1.934c0,0.835 -0.329,1.593 -0.862,2.155c0.71,0.295 1.374,0.725 1.951,1.284c1.195,1.159 1.868,2.714 1.894,4.379c0.025,1.665 -0.599,3.239 -1.758,4.435c-1.428,1.473 -3.087,2.639 -4.898,3.466l3.548,0c5.258,0 9.537,-4.279 9.537,-9.538Zm-9.237,15.038l3.448,0l-4.049,-4.048l-3.447,0l4.048,4.048Zm-5.989,-6.223c0.167,-0.055 0.334,-0.112 0.499,-0.173l0,-1.762c0,-0.401 0.325,-0.726 0.726,-0.726c0.401,0 0.726,0.325 0.726,0.726l0,1.14c0.606,-0.3 1.192,-0.643 1.754,-1.027l0,-3.083c0,-0.401 0.325,-0.726 0.726,-0.726c0.401,0 0.726,0.325 0.726,0.726l0,1.952c0.289,-0.255 0.569,-0.521 0.84,-0.801c0.889,-0.917 1.368,-2.125 1.348,-3.402c-0.02,-1.276 -0.536,-2.469 -1.453,-3.358c-0.878,-0.852 -2.017,-1.313 -3.179,-1.349c-0.011,0.001 -0.061,0 -0.075,-0.001c-0.781,-0.011 -1.57,0.168 -2.298,0.55c-0.098,0.051 -0.312,0.181 -0.423,0.251c-0.006,0.003 -0.011,0.007 -0.017,0.01l-7.074,4.181c0.189,3.804 3.33,6.844 7.174,6.872Zm-4.567,0.719c0.077,0 0.155,0 0.233,-0.001c0.272,-0.004 0.542,-0.017 0.811,-0.036c-2.669,-1.21 -4.622,-3.732 -5.031,-6.738l-5.534,3.27c2.663,2.271 6.002,3.505 9.521,3.505Z" style="fill:#c2c2c2;fill-rule:nonzero;"/><path d="M78.63,72.991c0.145,-0.1 0.287,-0.209 0.423,-0.321c0.309,-0.256 0.767,-0.212 1.022,0.096c0.256,0.309 0.213,0.767 -0.096,1.023c-0.167,0.138 -0.342,0.27 -0.52,0.394c-0.126,0.088 -0.271,0.13 -0.414,0.13c-0.229,0 -0.455,-0.108 -0.596,-0.311c-0.229,-0.329 -0.148,-0.782 0.181,-1.011Z" style="fill:#c2c2c2;fill-rule:nonzero;"/><path d="M80.322,71.251c0.671,-1.025 1.025,-2.217 1.025,-3.445c0,-0.401 0.325,-0.726 0.726,-0.726c0.401,0 0.726,0.325 0.726,0.726c0,1.512 -0.436,2.978 -1.262,4.24c-0.14,0.213 -0.372,0.329 -0.608,0.329c-0.137,0 -0.275,-0.039 -0.397,-0.119c-0.336,-0.219 -0.43,-0.669 -0.21,-1.005Z" style="fill:#c2c2c2;fill-rule:nonzero;"/></g><g><circle cx="82.157" cy="165.383" r="0.979" style="fill:#c2c2c2;"/><path d="M53.675,179.554l14.827,-8.762c0.061,-0.038 0.345,-0.215 0.514,-0.303c0.966,-0.507 2.017,-0.74 3.054,-0.714c0.908,-0.023 1.64,-0.767 1.64,-1.681l0,-1.934c0,-3.56 2.897,-6.456 6.457,-6.456c2.383,0 4.532,1.281 5.667,3.36l3.82,1.985c0.241,0.125 0.392,0.373 0.392,0.644c0,0.27 -0.151,0.519 -0.391,0.644l-3.629,1.89l0,6.048c0,5.506 -4.069,10.078 -9.358,10.868l4.17,4.171l2.081,0c0.401,0 0.726,0.325 0.726,0.725c0,0.401 -0.325,0.726 -0.726,0.726l-11.988,0c-0.401,0 -0.726,-0.325 -0.726,-0.726c0,-0.401 0.325,-0.725 0.726,-0.725l2.353,0l-4.049,-4.049l-4.568,0c-0.03,0 -0.058,-0.002 -0.087,-0.006c-4.143,-0.05 -8.047,-1.657 -11.039,-4.556c-0.001,-0.001 -0.003,-0.003 -0.004,-0.004c-0.018,-0.018 -0.032,-0.033 -0.042,-0.047c-0.027,-0.032 -0.054,-0.066 -0.076,-0.103c-0.204,-0.345 -0.089,-0.791 0.256,-0.995Zm30.899,-5.278l0,-6.489c0,-0.002 0,-0.004 0,-0.006c0,-0.005 0,-0.011 0,-0.016c0.001,-0.01 0.001,-0.019 0.002,-0.027c0.017,-0.244 0.156,-0.474 0.389,-0.595l2.781,-1.449l-2.716,-1.412c-0.16,-0.063 -0.297,-0.183 -0.38,-0.349c-0.853,-1.713 -2.571,-2.777 -4.483,-2.777c-2.76,0 -5.005,2.245 -5.005,5.004l0,1.934c0,0.835 -0.329,1.593 -0.862,2.156c0.71,0.295 1.374,0.724 1.951,1.284c1.195,1.159 1.868,2.714 1.894,4.378c0.025,1.665 -0.599,3.24 -1.758,4.435c-1.428,1.473 -3.087,2.639 -4.898,3.466l3.548,0c5.258,0 9.537,-4.279 9.537,-9.537Zm-9.237,15.038l3.448,0l-4.049,-4.049l-3.447,0l4.048,4.049Zm-5.989,-6.224c0.167,-0.054 0.334,-0.112 0.499,-0.173l0,-1.762c0,-0.401 0.325,-0.726 0.726,-0.726c0.401,0 0.726,0.325 0.726,0.726l0,1.14c0.606,-0.3 1.192,-0.643 1.754,-1.027l0,-3.083c0,-0.401 0.325,-0.726 0.726,-0.726c0.401,0 0.726,0.325 0.726,0.726l0,1.953c0.289,-0.255 0.569,-0.522 0.84,-0.802c0.889,-0.917 1.368,-2.125 1.348,-3.402c-0.02,-1.276 -0.536,-2.469 -1.453,-3.358c-0.878,-0.852 -2.017,-1.313 -3.179,-1.348c-0.011,0 -0.061,-0.001 -0.075,-0.002c-0.781,-0.011 -1.57,0.168 -2.298,0.55c-0.098,0.051 -0.312,0.181 -0.423,0.251c-0.006,0.004 -0.011,0.007 -0.017,0.01l-7.074,4.181c0.189,3.804 3.33,6.845 7.174,6.872Zm-4.567,0.72c0.077,0 0.155,-0.001 0.233,-0.002c0.272,-0.004 0.542,-0.017 0.811,-0.035c-2.669,-1.211 -4.622,-3.733 -5.031,-6.739l-5.534,3.27c2.663,2.271 6.002,3.506 9.521,3.506Z" style="fill:#c2c2c2;fill-rule:nonzero;"/><path d="M78.63,179.46c0.145,-0.1 0.287,-0.208 0.423,-0.321c0.309,-0.256 0.767,-0.212 1.022,0.097c0.256,0.308 0.213,0.766 -0.096,1.022c-0.167,0.138 -0.342,0.271 -0.52,0.394c-0.126,0.088 -0.271,0.131 -0.414,0.131c-0.229,0 -0.455,-0.109 -0.596,-0.312c-0.229,-0.329 -0.148,-0.782 0.181,-1.011Z" style="fill:#c2c2c2;fill-rule:nonzero;"/><path d="M80.322,177.72c0.671,-1.025 1.025,-2.216 1.025,-3.444c0,-0.401 0.325,-0.726 0.726,-0.726c0.401,0 0.726,0.325 0.726,0.726c0,1.511 -0.436,2.977 -1.262,4.239c-0.14,0.213 -0.372,0.329 -0.608,0.329c-0.137,0 -0.275,-0.039 -0.397,-0.119c-0.336,-0.219 -0.43,-0.669 -0.21,-1.005Z" style="fill:#c2c2c2;fill-rule:nonzero;"/></g></g><g><g><circle cx="114.524" cy="5.679" r="0.979" style="fill:#c2c2c2;"/><path d="M143.007,19.851l-14.827,-8.763c-0.061,-0.038 -0.345,-0.214 -0.514,-0.302c-0.966,-0.508 -2.017,-0.741 -3.054,-0.715c-0.908,-0.023 -1.64,-0.767 -1.64,-1.68l0,-1.934c0,-3.561 -2.897,-6.457 -6.457,-6.457c-2.383,0 -4.532,1.281 -5.667,3.36l-3.82,1.985c-0.241,0.125 -0.392,0.373 -0.392,0.644c0,0.271 0.151,0.519 0.391,0.644l3.629,1.89l0,6.049c0,5.505 4.069,10.077 9.358,10.868l-4.17,4.17l-2.081,0c-0.401,0 -0.726,0.325 -0.726,0.726c0,0.401 0.325,0.726 0.726,0.726l11.988,0c0.401,0 0.726,-0.325 0.726,-0.726c0,-0.401 -0.326,-0.726 -0.726,-0.726l-2.353,0l4.049,-4.049l4.568,0c0.03,0 0.058,-0.002 0.087,-0.006c4.143,-0.05 8.047,-1.657 11.038,-4.556c0.002,-0.001 0.004,-0.003 0.005,-0.004c0.018,-0.018 0.032,-0.033 0.042,-0.046c0.027,-0.032 0.053,-0.066 0.076,-0.104c0.204,-0.345 0.089,-0.79 -0.256,-0.994Zm-30.899,-5.279l0,-6.489c0,-0.002 0,-0.003 0,-0.005c0,-0.006 0,-0.011 -0.001,-0.017c0,-0.01 -0.001,-0.019 -0.001,-0.027c-0.017,-0.244 -0.156,-0.474 -0.389,-0.595l-2.782,-1.449l2.717,-1.411c0.159,-0.064 0.297,-0.184 0.38,-0.35c0.853,-1.713 2.571,-2.777 4.483,-2.777c2.76,0 5.005,2.245 5.005,5.005l0,1.934c0,0.834 0.329,1.593 0.862,2.155c-0.71,0.295 -1.374,0.724 -1.951,1.284c-1.195,1.159 -1.868,2.714 -1.894,4.378c-0.026,1.665 0.599,3.24 1.757,4.435c1.429,1.473 3.088,2.64 4.899,3.466l-3.548,0c-5.259,0 -9.537,-4.278 -9.537,-9.537Zm9.236,15.038l-3.447,0l4.049,-4.049l3.447,0l-4.049,4.049Zm5.99,-6.224c-0.167,-0.054 -0.334,-0.112 -0.499,-0.172l0,-1.763c0,-0.401 -0.325,-0.726 -0.726,-0.726c-0.401,0 -0.726,0.325 -0.726,0.726l0,1.141c-0.606,-0.3 -1.192,-0.644 -1.754,-1.028l0,-3.083c0,-0.401 -0.325,-0.726 -0.726,-0.726c-0.401,0 -0.726,0.325 -0.726,0.726l0,1.953c-0.289,-0.255 -0.569,-0.522 -0.84,-0.801c-0.889,-0.917 -1.368,-2.125 -1.348,-3.402c0.02,-1.277 0.536,-2.47 1.453,-3.359c0.878,-0.852 2.016,-1.312 3.179,-1.348c0.011,0 0.061,-0.001 0.075,-0.001c0.781,-0.012 1.57,0.167 2.298,0.549c0.098,0.052 0.312,0.182 0.423,0.252c0.006,0.003 0.011,0.006 0.016,0.009l7.075,4.181c-0.189,3.805 -3.33,6.845 -7.174,6.872Zm4.567,0.72c-0.077,0 -0.155,-0.001 -0.233,-0.002c-0.272,-0.004 -0.542,-0.016 -0.811,-0.035c2.669,-1.21 4.622,-3.733 5.031,-6.739l5.534,3.27c-2.664,2.271 -6.002,3.506 -9.521,3.506Z" style="fill:#c2c2c2;fill-rule:nonzero;"/><path d="M118.052,19.757c-0.145,-0.101 -0.287,-0.209 -0.423,-0.321c-0.309,-0.256 -0.767,-0.213 -1.022,0.096c-0.256,0.309 -0.213,0.766 0.096,1.022c0.167,0.138 0.342,0.271 0.52,0.395c0.126,0.088 0.27,0.13 0.414,0.13c0.229,0 0.455,-0.109 0.596,-0.312c0.229,-0.329 0.148,-0.781 -0.181,-1.01Z" style="fill:#c2c2c2;fill-rule:nonzero;"/><path d="M116.36,18.017c-0.671,-1.026 -1.025,-2.217 -1.025,-3.445c0,-0.401 -0.325,-0.726 -0.726,-0.726c-0.401,0 -0.726,0.325 -0.726,0.726c0,1.511 0.436,2.977 1.262,4.24c0.14,0.213 0.372,0.328 0.608,0.328c0.137,0 0.275,-0.038 0.397,-0.118c0.336,-0.22 0.43,-0.67 0.21,-1.005Z" style="fill:#c2c2c2;fill-rule:nonzero;"/></g><g><circle cx="114.524" cy="112.149" r="0.979" style="fill:#c2c2c2;"/><path d="M143.007,126.32l-14.827,-8.763c-0.061,-0.038 -0.345,-0.214 -0.514,-0.302c-0.966,-0.508 -2.017,-0.741 -3.054,-0.715c-0.908,-0.023 -1.64,-0.767 -1.64,-1.68l0,-1.934c0,-3.56 -2.897,-6.457 -6.457,-6.457c-2.383,0 -4.532,1.281 -5.667,3.36l-3.82,1.985c-0.241,0.125 -0.392,0.373 -0.392,0.644c0,0.271 0.151,0.519 0.391,0.644l3.629,1.891l0,6.048c0,5.505 4.069,10.077 9.358,10.868l-4.17,4.17l-2.081,0c-0.401,0 -0.726,0.325 -0.726,0.726c0,0.401 0.325,0.726 0.726,0.726l11.988,0c0.401,0 0.726,-0.325 0.726,-0.726c0,-0.401 -0.326,-0.726 -0.726,-0.726l-2.353,0l4.049,-4.049l4.568,0c0.03,0 0.058,-0.002 0.087,-0.005c4.143,-0.051 8.047,-1.658 11.038,-4.556c0.002,-0.002 0.004,-0.004 0.005,-0.005c0.018,-0.018 0.032,-0.033 0.042,-0.046c0.027,-0.032 0.053,-0.066 0.076,-0.104c0.204,-0.345 0.089,-0.79 -0.256,-0.994Zm-30.899,-5.279l0,-6.489c0,-0.002 0,-0.003 0,-0.005c0,-0.006 0,-0.011 -0.001,-0.017c0,-0.009 -0.001,-0.018 -0.001,-0.026c-0.017,-0.245 -0.156,-0.474 -0.389,-0.596l-2.782,-1.449l2.717,-1.411c0.159,-0.064 0.297,-0.184 0.38,-0.35c0.853,-1.713 2.571,-2.777 4.483,-2.777c2.76,0 5.005,2.245 5.005,5.005l0,1.934c0,0.834 0.329,1.593 0.862,2.155c-0.71,0.295 -1.374,0.724 -1.951,1.284c-1.195,1.159 -1.868,2.714 -1.894,4.379c-0.026,1.664 0.599,3.239 1.757,4.434c1.429,1.473 3.088,2.64 4.899,3.466l-3.548,0c-5.259,0 -9.537,-4.278 -9.537,-9.537Zm9.236,15.038l-3.447,0l4.049,-4.049l3.447,0l-4.049,4.049Zm5.99,-6.224c-0.167,-0.054 -0.334,-0.112 -0.499,-0.172l0,-1.763c0,-0.401 -0.325,-0.726 -0.726,-0.726c-0.401,0 -0.726,0.325 -0.726,0.726l0,1.141c-0.606,-0.3 -1.192,-0.644 -1.754,-1.028l0,-3.082c0,-0.401 -0.325,-0.726 -0.726,-0.726c-0.401,0 -0.726,0.325 -0.726,0.726l0,1.952c-0.289,-0.255 -0.569,-0.522 -0.84,-0.801c-0.889,-0.917 -1.368,-2.125 -1.348,-3.402c0.02,-1.277 0.536,-2.47 1.453,-3.359c0.878,-0.852 2.016,-1.312 3.179,-1.348c0.011,0 0.061,0 0.075,-0.001c0.781,-0.012 1.57,0.167 2.298,0.55c0.098,0.051 0.312,0.181 0.423,0.251c0.006,0.003 0.011,0.006 0.016,0.009l7.075,4.181c-0.189,3.805 -3.33,6.845 -7.174,6.872Zm4.567,0.72c-0.077,0 -0.155,-0.001 -0.233,-0.002c-0.272,-0.004 -0.542,-0.016 -0.811,-0.035c2.669,-1.21 4.622,-3.732 5.031,-6.739l5.534,3.27c-2.664,2.272 -6.002,3.506 -9.521,3.506Z" style="fill:#c2c2c2;fill-rule:nonzero;"/><path d="M118.052,126.226c-0.145,-0.101 -0.287,-0.209 -0.423,-0.321c-0.309,-0.256 -0.767,-0.213 -1.022,0.096c-0.256,0.309 -0.213,0.767 0.096,1.022c0.167,0.138 0.342,0.271 0.52,0.395c0.126,0.088 0.27,0.13 0.414,0.13c0.229,0 0.455,-0.109 0.596,-0.312c0.229,-0.329 0.148,-0.781 -0.181,-1.01Z" style="fill:#c2c2c2;fill-rule:nonzero;"/><path d="M116.36,124.486c-0.671,-1.026 -1.025,-2.217 -1.025,-3.445c0,-0.401 -0.325,-0.726 -0.726,-0.726c-0.401,0 -0.726,0.325 -0.726,0.726c0,1.511 0.436,2.977 1.262,4.24c0.14,0.213 0.372,0.328 0.608,0.328c0.137,0 0.275,-0.038 0.397,-0.118c0.336,-0.22 0.43,-0.67 0.21,-1.005Z" style="fill:#c2c2c2;fill-rule:nonzero;"/></g><g><circle cx="114.524" cy="218.618" r="0.979" style="fill:#c2c2c2;"/><path d="M143.007,232.789l-14.827,-8.763c-0.061,-0.038 -0.345,-0.214 -0.514,-0.302c-0.966,-0.507 -2.017,-0.741 -3.054,-0.715c-0.908,-0.023 -1.64,-0.767 -1.64,-1.68l0,-1.934c0,-3.56 -2.897,-6.457 -6.457,-6.457c-2.383,0 -4.532,1.281 -5.667,3.36l-3.82,1.985c-0.241,0.125 -0.392,0.374 -0.392,0.644c0,0.271 0.151,0.519 0.391,0.644l3.629,1.891l0,6.048c0,5.505 4.069,10.077 9.358,10.868l-4.17,4.17l-2.081,0c-0.401,0 -0.726,0.325 -0.726,0.726c0,0.401 0.325,0.726 0.726,0.726l11.988,0c0.401,0 0.726,-0.325 0.726,-0.726c0,-0.401 -0.326,-0.726 -0.726,-0.726l-2.353,0l4.049,-4.049l4.568,0c0.03,0 0.058,-0.002 0.087,-0.005c4.143,-0.05 8.047,-1.658 11.038,-4.556c0.002,-0.002 0.004,-0.003 0.005,-0.005c0.018,-0.017 0.032,-0.033 0.042,-0.046c0.027,-0.032 0.053,-0.066 0.076,-0.104c0.204,-0.345 0.089,-0.79 -0.256,-0.994Zm-30.899,-5.279l0,-6.489c0,-0.002 0,-0.003 0,-0.005c0,-0.006 0,-0.011 -0.001,-0.017c0,-0.009 -0.001,-0.018 -0.001,-0.026c-0.017,-0.244 -0.156,-0.474 -0.389,-0.596l-2.782,-1.449l2.717,-1.411c0.159,-0.064 0.297,-0.184 0.38,-0.35c0.853,-1.713 2.571,-2.777 4.483,-2.777c2.76,0 5.005,2.245 5.005,5.005l0,1.934c0,0.834 0.329,1.593 0.862,2.155c-0.71,0.295 -1.374,0.724 -1.951,1.284c-1.195,1.159 -1.868,2.714 -1.894,4.379c-0.026,1.664 0.599,3.239 1.757,4.435c1.429,1.473 3.088,2.639 4.899,3.465l-3.548,0c-5.259,0 -9.537,-4.278 -9.537,-9.537Zm9.236,15.038l-3.447,0l4.049,-4.049l3.447,0l-4.049,4.049Zm5.99,-6.223c-0.167,-0.055 -0.334,-0.113 -0.499,-0.173l0,-1.763c0,-0.401 -0.325,-0.726 -0.726,-0.726c-0.401,0 -0.726,0.325 -0.726,0.726l0,1.141c-0.606,-0.3 -1.192,-0.644 -1.754,-1.028l0,-3.082c0,-0.401 -0.325,-0.726 -0.726,-0.726c-0.401,0 -0.726,0.325 -0.726,0.726l0,1.952c-0.289,-0.255 -0.569,-0.522 -0.84,-0.801c-0.889,-0.917 -1.368,-2.125 -1.348,-3.402c0.02,-1.277 0.536,-2.469 1.453,-3.358c0.878,-0.852 2.016,-1.313 3.179,-1.349c0.011,0 0.061,0 0.075,-0.001c0.781,-0.012 1.57,0.168 2.298,0.55c0.098,0.051 0.312,0.181 0.423,0.251c0.006,0.003 0.011,0.006 0.016,0.01l7.075,4.18c-0.189,3.805 -3.33,6.845 -7.174,6.873Zm4.567,0.719c-0.077,0 -0.155,0 -0.233,-0.002c-0.272,-0.004 -0.542,-0.016 -0.811,-0.035c2.669,-1.21 4.622,-3.732 5.031,-6.738l5.534,3.27c-2.664,2.271 -6.002,3.505 -9.521,3.505Z" style="fill:#c2c2c2;fill-rule:nonzero;"/><path d="M118.052,232.695c-0.145,-0.101 -0.287,-0.209 -0.423,-0.321c-0.309,-0.256 -0.767,-0.213 -1.022,0.096c-0.256,0.309 -0.213,0.767 0.096,1.022c0.167,0.138 0.342,0.271 0.52,0.395c0.126,0.088 0.27,0.13 0.414,0.13c0.229,0 0.455,-0.109 0.596,-0.311c0.229,-0.33 0.148,-0.782 -0.181,-1.011Z" style="fill:#c2c2c2;fill-rule:nonzero;"/><path d="M116.36,230.955c-0.671,-1.026 -1.025,-2.217 -1.025,-3.445c0,-0.401 -0.325,-0.726 -0.726,-0.726c-0.401,0 -0.726,0.325 -0.726,0.726c0,1.511 0.436,2.978 1.262,4.24c0.14,0.213 0.372,0.328 0.608,0.328c0.137,0 0.275,-0.038 0.397,-0.118c0.336,-0.22 0.43,-0.67 0.21,-1.005Z" style="fill:#c2c2c2;fill-rule:nonzero;"/></g><g><circle cx="135.476" cy="58.914" r="0.979" style="fill:#c2c2c2;"/><path d="M106.993,73.085l14.827,-8.762c0.061,-0.038 0.345,-0.215 0.514,-0.303c0.966,-0.507 2.017,-0.741 3.054,-0.715c0.908,-0.023 1.64,-0.767 1.64,-1.68l0,-1.934c0,-3.56 2.897,-6.456 6.457,-6.456c2.383,0 4.532,1.281 5.667,3.36l3.82,1.985c0.241,0.125 0.392,0.373 0.392,0.644c0,0.27 -0.151,0.519 -0.391,0.644l-3.629,1.89l0,6.048c0,5.505 -4.069,10.078 -9.358,10.868l4.17,4.17l2.081,0c0.401,0 0.726,0.325 0.726,0.726c0,0.401 -0.325,0.726 -0.726,0.726l-11.988,0c-0.401,0 -0.726,-0.325 -0.726,-0.726c0,-0.401 0.326,-0.726 0.726,-0.726l2.353,0l-4.049,-4.048l-4.568,0c-0.03,0 -0.058,-0.003 -0.087,-0.006c-4.143,-0.05 -8.047,-1.657 -11.038,-4.556c-0.002,-0.001 -0.004,-0.003 -0.005,-0.005c-0.018,-0.017 -0.032,-0.032 -0.042,-0.046c-0.027,-0.032 -0.053,-0.066 -0.076,-0.103c-0.204,-0.346 -0.089,-0.791 0.256,-0.995Zm30.899,-5.279l0,-6.488c0,-0.002 0,-0.004 0,-0.006c0,-0.005 0,-0.011 0.001,-0.016c0,-0.01 0.001,-0.019 0.001,-0.027c0.017,-0.244 0.156,-0.474 0.389,-0.595l2.782,-1.449l-2.717,-1.412c-0.159,-0.064 -0.297,-0.183 -0.38,-0.349c-0.853,-1.713 -2.571,-2.778 -4.483,-2.778c-2.76,0 -5.005,2.246 -5.005,5.005l0,1.934c0,0.835 -0.329,1.593 -0.862,2.155c0.71,0.295 1.374,0.725 1.951,1.284c1.195,1.159 1.868,2.714 1.894,4.379c0.026,1.665 -0.599,3.239 -1.757,4.435c-1.429,1.473 -3.088,2.639 -4.899,3.466l3.548,0c5.259,0 9.537,-4.279 9.537,-9.538Zm-9.236,15.038l3.447,0l-4.049,-4.048l-3.447,0l4.049,4.048Zm-5.99,-6.223c0.167,-0.055 0.334,-0.112 0.499,-0.173l0,-1.762c0,-0.401 0.325,-0.726 0.726,-0.726c0.401,0 0.726,0.325 0.726,0.726l0,1.14c0.606,-0.3 1.192,-0.643 1.754,-1.027l0,-3.083c0,-0.401 0.325,-0.726 0.726,-0.726c0.401,0 0.726,0.325 0.726,0.726l0,1.952c0.289,-0.255 0.569,-0.521 0.84,-0.801c0.889,-0.917 1.368,-2.125 1.348,-3.402c-0.02,-1.276 -0.536,-2.469 -1.453,-3.358c-0.878,-0.852 -2.016,-1.313 -3.179,-1.349c-0.011,0.001 -0.061,0 -0.075,-0.001c-0.781,-0.011 -1.57,0.168 -2.298,0.55c-0.098,0.051 -0.312,0.181 -0.423,0.251c-0.006,0.003 -0.011,0.007 -0.016,0.01l-7.075,4.181c0.189,3.804 3.33,6.844 7.174,6.872Zm-4.567,0.719c0.077,0 0.155,0 0.233,-0.001c0.272,-0.004 0.542,-0.017 0.811,-0.036c-2.669,-1.21 -4.622,-3.732 -5.031,-6.738l-5.534,3.27c2.664,2.271 6.002,3.505 9.521,3.505Z" style="fill:#c2c2c2;fill-rule:nonzero;"/><path d="M131.948,72.991c0.145,-0.1 0.287,-0.209 0.423,-0.321c0.309,-0.256 0.767,-0.212 1.022,0.096c0.256,0.309 0.213,0.767 -0.096,1.023c-0.167,0.138 -0.342,0.27 -0.52,0.394c-0.126,0.088 -0.27,0.13 -0.414,0.13c-0.229,0 -0.455,-0.108 -0.596,-0.311c-0.229,-0.329 -0.148,-0.782 0.181,-1.011Z" style="fill:#c2c2c2;fill-rule:nonzero;"/><path d="M133.64,71.251c0.671,-1.025 1.025,-2.217 1.025,-3.445c0,-0.401 0.325,-0.726 0.726,-0.726c0.401,0 0.726,0.325 0.726,0.726c0,1.512 -0.436,2.978 -1.262,4.24c-0.14,0.213 -0.372,0.329 -0.608,0.329c-0.137,0 -0.275,-0.039 -0.397,-0.119c-0.336,-0.219 -0.43,-0.669 -0.21,-1.005Z" style="fill:#c2c2c2;fill-rule:nonzero;"/></g><g><circle cx="135.476" cy="165.383" r="0.979" style="fill:#c2c2c2;"/><path d="M106.993,179.554l14.827,-8.762c0.061,-0.038 0.345,-0.215 0.514,-0.303c0.966,-0.507 2.017,-0.74 3.054,-0.714c0.908,-0.023 1.64,-0.767 1.64,-1.681l0,-1.934c0,-3.56 2.897,-6.456 6.457,-6.456c2.383,0 4.532,1.281 5.667,3.36l3.82,1.985c0.241,0.125 0.392,0.373 0.392,0.644c0,0.27 -0.151,0.519 -0.391,0.644l-3.629,1.89l0,6.048c0,5.506 -4.069,10.078 -9.358,10.868l4.17,4.171l2.081,0c0.401,0 0.726,0.325 0.726,0.725c0,0.401 -0.325,0.726 -0.726,0.726l-11.988,0c-0.401,0 -0.726,-0.325 -0.726,-0.726c0,-0.401 0.326,-0.725 0.726,-0.725l2.353,0l-4.049,-4.049l-4.568,0c-0.03,0 -0.058,-0.002 -0.087,-0.006c-4.143,-0.05 -8.047,-1.657 -11.038,-4.556c-0.002,-0.001 -0.004,-0.003 -0.005,-0.004c-0.018,-0.018 -0.032,-0.033 -0.042,-0.047c-0.027,-0.032 -0.053,-0.066 -0.076,-0.103c-0.204,-0.345 -0.089,-0.791 0.256,-0.995Zm30.899,-5.278l0,-6.489c0,-0.002 0,-0.004 0,-0.006c0,-0.005 0,-0.011 0.001,-0.016c0,-0.01 0.001,-0.019 0.001,-0.027c0.017,-0.244 0.156,-0.474 0.389,-0.595l2.782,-1.449l-2.717,-1.412c-0.159,-0.063 -0.297,-0.183 -0.38,-0.349c-0.853,-1.713 -2.571,-2.777 -4.483,-2.777c-2.76,0 -5.005,2.245 -5.005,5.004l0,1.934c0,0.835 -0.329,1.593 -0.862,2.156c0.71,0.295 1.374,0.724 1.951,1.284c1.195,1.159 1.868,2.714 1.894,4.378c0.026,1.665 -0.599,3.24 -1.757,4.435c-1.429,1.473 -3.088,2.639 -4.899,3.466l3.548,0c5.259,0 9.537,-4.279 9.537,-9.537Zm-9.236,15.038l3.447,0l-4.049,-4.049l-3.447,0l4.049,4.049Zm-5.99,-6.224c0.167,-0.054 0.334,-0.112 0.499,-0.173l0,-1.762c0,-0.401 0.325,-0.726 0.726,-0.726c0.401,0 0.726,0.325 0.726,0.726l0,1.14c0.606,-0.3 1.192,-0.643 1.754,-1.027l0,-3.083c0,-0.401 0.325,-0.726 0.726,-0.726c0.401,0 0.726,0.325 0.726,0.726l0,1.953c0.289,-0.255 0.569,-0.522 0.84,-0.802c0.889,-0.917 1.368,-2.125 1.348,-3.402c-0.02,-1.276 -0.536,-2.469 -1.453,-3.358c-0.878,-0.852 -2.016,-1.313 -3.179,-1.348c-0.011,0 -0.061,-0.001 -0.075,-0.002c-0.781,-0.011 -1.57,0.168 -2.298,0.55c-0.098,0.051 -0.312,0.181 -0.423,0.251c-0.006,0.004 -0.011,0.007 -0.016,0.01l-7.075,4.181c0.189,3.804 3.33,6.845 7.174,6.872Zm-4.567,0.72c0.077,0 0.155,-0.001 0.233,-0.002c0.272,-0.004 0.542,-0.017 0.811,-0.035c-2.669,-1.211 -4.622,-3.733 -5.031,-6.739l-5.534,3.27c2.664,2.271 6.002,3.506 9.521,3.506Z" style="fill:#c2c2c2;fill-rule:nonzero;"/><path d="M131.948,179.46c0.145,-0.1 0.287,-0.208 0.423,-0.321c0.309,-0.256 0.767,-0.212 1.022,0.097c0.256,0.308 0.213,0.766 -0.096,1.022c-0.167,0.138 -0.342,0.271 -0.52,0.394c-0.126,0.088 -0.27,0.131 -0.414,0.131c-0.229,0 -0.455,-0.109 -0.596,-0.312c-0.229,-0.329 -0.148,-0.782 0.181,-1.011Z" style="fill:#c2c2c2;fill-rule:nonzero;"/><path d="M133.64,177.72c0.671,-1.025 1.025,-2.216 1.025,-3.444c0,-0.401 0.325,-0.726 0.726,-0.726c0.401,0 0.726,0.325 0.726,0.726c0,1.511 -0.436,2.977 -1.262,4.239c-0.14,0.213 -0.372,0.329 -0.608,0.329c-0.137,0 -0.275,-0.039 -0.397,-0.119c-0.336,-0.219 -0.43,-0.669 -0.21,-1.005Z" style="fill:#c2c2c2;fill-rule:nonzero;"/></g></g><g><g><circle cx="167.843" cy="5.679" r="0.979" style="fill:#c2c2c2;"/><path d="M196.325,19.851l-14.827,-8.763c-0.061,-0.038 -0.345,-0.214 -0.514,-0.302c-0.966,-0.508 -2.017,-0.741 -3.054,-0.715c-0.908,-0.023 -1.64,-0.767 -1.64,-1.68l0,-1.934c0,-3.561 -2.897,-6.457 -6.457,-6.457c-2.383,0 -4.532,1.281 -5.667,3.36l-3.82,1.985c-0.241,0.125 -0.392,0.373 -0.392,0.644c0,0.271 0.151,0.519 0.391,0.644l3.629,1.89l0,6.049c0,5.505 4.069,10.077 9.358,10.868l-4.17,4.17l-2.081,0c-0.401,0 -0.726,0.325 -0.726,0.726c0,0.401 0.325,0.726 0.726,0.726l11.988,0c0.401,0 0.726,-0.325 0.726,-0.726c0,-0.401 -0.325,-0.726 -0.726,-0.726l-2.353,0l4.049,-4.049l4.568,0c0.03,0 0.058,-0.002 0.087,-0.006c4.143,-0.05 8.047,-1.657 11.039,-4.556c0.001,-0.001 0.003,-0.003 0.004,-0.004c0.018,-0.018 0.032,-0.033 0.042,-0.046c0.027,-0.032 0.054,-0.066 0.076,-0.104c0.204,-0.345 0.089,-0.79 -0.256,-0.994Zm-30.899,-5.279l0,-6.489c0,-0.002 0,-0.003 0,-0.005c0,-0.006 0,-0.011 0,-0.017c-0.001,-0.01 -0.001,-0.019 -0.002,-0.027c-0.017,-0.244 -0.156,-0.474 -0.389,-0.595l-2.781,-1.449l2.716,-1.411c0.16,-0.064 0.297,-0.184 0.38,-0.35c0.853,-1.713 2.571,-2.777 4.483,-2.777c2.76,0 5.005,2.245 5.005,5.005l0,1.934c0,0.834 0.329,1.593 0.862,2.155c-0.71,0.295 -1.374,0.724 -1.951,1.284c-1.195,1.159 -1.868,2.714 -1.894,4.378c-0.025,1.665 0.599,3.24 1.758,4.435c1.428,1.473 3.087,2.64 4.898,3.466l-3.548,0c-5.258,0 -9.537,-4.278 -9.537,-9.537Zm9.237,15.038l-3.448,0l4.049,-4.049l3.447,0l-4.048,4.049Zm5.989,-6.224c-0.167,-0.054 -0.334,-0.112 -0.499,-0.172l0,-1.763c0,-0.401 -0.325,-0.726 -0.726,-0.726c-0.401,0 -0.726,0.325 -0.726,0.726l0,1.141c-0.606,-0.3 -1.192,-0.644 -1.754,-1.028l0,-3.083c0,-0.401 -0.325,-0.726 -0.726,-0.726c-0.401,0 -0.726,0.325 -0.726,0.726l0,1.953c-0.289,-0.255 -0.569,-0.522 -0.84,-0.801c-0.889,-0.917 -1.368,-2.125 -1.348,-3.402c0.02,-1.277 0.536,-2.47 1.453,-3.359c0.878,-0.852 2.017,-1.312 3.179,-1.348c0.011,0 0.061,-0.001 0.075,-0.001c0.781,-0.012 1.57,0.167 2.298,0.549c0.098,0.052 0.312,0.182 0.423,0.252c0.006,0.003 0.011,0.006 0.017,0.009l7.074,4.181c-0.189,3.805 -3.33,6.845 -7.174,6.872Zm4.567,0.72c-0.077,0 -0.155,-0.001 -0.233,-0.002c-0.272,-0.004 -0.542,-0.016 -0.811,-0.035c2.669,-1.21 4.622,-3.733 5.031,-6.739l5.534,3.27c-2.663,2.271 -6.002,3.506 -9.521,3.506Z" style="fill:#c2c2c2;fill-rule:nonzero;"/><path d="M171.37,19.757c-0.145,-0.101 -0.287,-0.209 -0.423,-0.321c-0.309,-0.256 -0.767,-0.213 -1.022,0.096c-0.256,0.309 -0.213,0.766 0.096,1.022c0.167,0.138 0.342,0.271 0.52,0.395c0.126,0.088 0.271,0.13 0.414,0.13c0.229,0 0.455,-0.109 0.596,-0.312c0.229,-0.329 0.148,-0.781 -0.181,-1.01Z" style="fill:#c2c2c2;fill-rule:nonzero;"/><path d="M169.678,18.017c-0.671,-1.026 -1.025,-2.217 -1.025,-3.445c0,-0.401 -0.325,-0.726 -0.726,-0.726c-0.401,0 -0.726,0.325 -0.726,0.726c0,1.511 0.436,2.977 1.262,4.24c0.14,0.213 0.372,0.328 0.608,0.328c0.137,0 0.275,-0.038 0.397,-0.118c0.336,-0.22 0.43,-0.67 0.21,-1.005Z" style="fill:#c2c2c2;fill-rule:nonzero;"/></g><g><circle cx="167.843" cy="112.149" r="0.979" style="fill:#c2c2c2;"/><path d="M196.325,126.32l-14.827,-8.763c-0.061,-0.038 -0.345,-0.214 -0.514,-0.302c-0.966,-0.508 -2.017,-0.741 -3.054,-0.715c-0.908,-0.023 -1.64,-0.767 -1.64,-1.68l0,-1.934c0,-3.56 -2.897,-6.457 -6.457,-6.457c-2.383,0 -4.532,1.281 -5.667,3.36l-3.82,1.985c-0.241,0.125 -0.392,0.373 -0.392,0.644c0,0.271 0.151,0.519 0.391,0.644l3.629,1.891l0,6.048c0,5.505 4.069,10.077 9.358,10.868l-4.17,4.17l-2.081,0c-0.401,0 -0.726,0.325 -0.726,0.726c0,0.401 0.325,0.726 0.726,0.726l11.988,0c0.401,0 0.726,-0.325 0.726,-0.726c0,-0.401 -0.325,-0.726 -0.726,-0.726l-2.353,0l4.049,-4.049l4.568,0c0.03,0 0.058,-0.002 0.087,-0.005c4.143,-0.051 8.047,-1.658 11.039,-4.556c0.001,-0.002 0.003,-0.004 0.004,-0.005c0.018,-0.018 0.032,-0.033 0.042,-0.046c0.027,-0.032 0.054,-0.066 0.076,-0.104c0.204,-0.345 0.089,-0.79 -0.256,-0.994Zm-30.899,-5.279l0,-6.489c0,-0.002 0,-0.003 0,-0.005c0,-0.006 0,-0.011 0,-0.017c-0.001,-0.009 -0.001,-0.018 -0.002,-0.026c-0.017,-0.245 -0.156,-0.474 -0.389,-0.596l-2.781,-1.449l2.716,-1.411c0.16,-0.064 0.297,-0.184 0.38,-0.35c0.853,-1.713 2.571,-2.777 4.483,-2.777c2.76,0 5.005,2.245 5.005,5.005l0,1.934c0,0.834 0.329,1.593 0.862,2.155c-0.71,0.295 -1.374,0.724 -1.951,1.284c-1.195,1.159 -1.868,2.714 -1.894,4.379c-0.025,1.664 0.599,3.239 1.758,4.434c1.428,1.473 3.087,2.64 4.898,3.466l-3.548,0c-5.258,0 -9.537,-4.278 -9.537,-9.537Zm9.237,15.038l-3.448,0l4.049,-4.049l3.447,0l-4.048,4.049Zm5.989,-6.224c-0.167,-0.054 -0.334,-0.112 -0.499,-0.172l0,-1.763c0,-0.401 -0.325,-0.726 -0.726,-0.726c-0.401,0 -0.726,0.325 -0.726,0.726l0,1.141c-0.606,-0.3 -1.192,-0.644 -1.754,-1.028l0,-3.082c0,-0.401 -0.325,-0.726 -0.726,-0.726c-0.401,0 -0.726,0.325 -0.726,0.726l0,1.952c-0.289,-0.255 -0.569,-0.522 -0.84,-0.801c-0.889,-0.917 -1.368,-2.125 -1.348,-3.402c0.02,-1.277 0.536,-2.47 1.453,-3.359c0.878,-0.852 2.017,-1.312 3.179,-1.348c0.011,0 0.061,0 0.075,-0.001c0.781,-0.012 1.57,0.167 2.298,0.55c0.098,0.051 0.312,0.181 0.423,0.251c0.006,0.003 0.011,0.006 0.017,0.009l7.074,4.181c-0.189,3.805 -3.33,6.845 -7.174,6.872Zm4.567,0.72c-0.077,0 -0.155,-0.001 -0.233,-0.002c-0.272,-0.004 -0.542,-0.016 -0.811,-0.035c2.669,-1.21 4.622,-3.732 5.031,-6.739l5.534,3.27c-2.663,2.272 -6.002,3.506 -9.521,3.506Z" style="fill:#c2c2c2;fill-rule:nonzero;"/><path d="M171.37,126.226c-0.145,-0.101 -0.287,-0.209 -0.423,-0.321c-0.309,-0.256 -0.767,-0.213 -1.022,0.096c-0.256,0.309 -0.213,0.767 0.096,1.022c0.167,0.138 0.342,0.271 0.52,0.395c0.126,0.088 0.271,0.13 0.414,0.13c0.229,0 0.455,-0.109 0.596,-0.312c0.229,-0.329 0.148,-0.781 -0.181,-1.01Z" style="fill:#c2c2c2;fill-rule:nonzero;"/><path d="M169.678,124.486c-0.671,-1.026 -1.025,-2.217 -1.025,-3.445c0,-0.401 -0.325,-0.726 -0.726,-0.726c-0.401,0 -0.726,0.325 -0.726,0.726c0,1.511 0.436,2.977 1.262,4.24c0.14,0.213 0.372,0.328 0.608,0.328c0.137,0 0.275,-0.038 0.397,-0.118c0.336,-0.22 0.43,-0.67 0.21,-1.005Z" style="fill:#c2c2c2;fill-rule:nonzero;"/></g><g><circle cx="167.843" cy="218.618" r="0.979" style="fill:#c2c2c2;"/><path d="M196.325,232.789l-14.827,-8.763c-0.061,-0.038 -0.345,-0.214 -0.514,-0.302c-0.966,-0.507 -2.017,-0.741 -3.054,-0.715c-0.908,-0.023 -1.64,-0.767 -1.64,-1.68l0,-1.934c0,-3.56 -2.897,-6.457 -6.457,-6.457c-2.383,0 -4.532,1.281 -5.667,3.36l-3.82,1.985c-0.241,0.125 -0.392,0.374 -0.392,0.644c0,0.271 0.151,0.519 0.391,0.644l3.629,1.891l0,6.048c0,5.505 4.069,10.077 9.358,10.868l-4.17,4.17l-2.081,0c-0.401,0 -0.726,0.325 -0.726,0.726c0,0.401 0.325,0.726 0.726,0.726l11.988,0c0.401,0 0.726,-0.325 0.726,-0.726c0,-0.401 -0.325,-0.726 -0.726,-0.726l-2.353,0l4.049,-4.049l4.568,0c0.03,0 0.058,-0.002 0.087,-0.005c4.143,-0.05 8.047,-1.658 11.039,-4.556c0.001,-0.002 0.003,-0.003 0.004,-0.005c0.018,-0.017 0.032,-0.033 0.042,-0.046c0.027,-0.032 0.054,-0.066 0.076,-0.104c0.204,-0.345 0.089,-0.79 -0.256,-0.994Zm-30.899,-5.279l0,-6.489c0,-0.002 0,-0.003 0,-0.005c0,-0.006 0,-0.011 0,-0.017c-0.001,-0.009 -0.001,-0.018 -0.002,-0.026c-0.017,-0.244 -0.156,-0.474 -0.389,-0.596l-2.781,-1.449l2.716,-1.411c0.16,-0.064 0.297,-0.184 0.38,-0.35c0.853,-1.713 2.571,-2.777 4.483,-2.777c2.76,0 5.005,2.245 5.005,5.005l0,1.934c0,0.834 0.329,1.593 0.862,2.155c-0.71,0.295 -1.374,0.724 -1.951,1.284c-1.195,1.159 -1.868,2.714 -1.894,4.379c-0.025,1.664 0.599,3.239 1.758,4.435c1.428,1.473 3.087,2.639 4.898,3.465l-3.548,0c-5.258,0 -9.537,-4.278 -9.537,-9.537Zm9.237,15.038l-3.448,0l4.049,-4.049l3.447,0l-4.048,4.049Zm5.989,-6.223c-0.167,-0.055 -0.334,-0.113 -0.499,-0.173l0,-1.763c0,-0.401 -0.325,-0.726 -0.726,-0.726c-0.401,0 -0.726,0.325 -0.726,0.726l0,1.141c-0.606,-0.3 -1.192,-0.644 -1.754,-1.028l0,-3.082c0,-0.401 -0.325,-0.726 -0.726,-0.726c-0.401,0 -0.726,0.325 -0.726,0.726l0,1.952c-0.289,-0.255 -0.569,-0.522 -0.84,-0.801c-0.889,-0.917 -1.368,-2.125 -1.348,-3.402c0.02,-1.277 0.536,-2.469 1.453,-3.358c0.878,-0.852 2.017,-1.313 3.179,-1.349c0.011,0 0.061,0 0.075,-0.001c0.781,-0.012 1.57,0.168 2.298,0.55c0.098,0.051 0.312,0.181 0.423,0.251c0.006,0.003 0.011,0.006 0.017,0.01l7.074,4.18c-0.189,3.805 -3.33,6.845 -7.174,6.873Zm4.567,0.719c-0.077,0 -0.155,0 -0.233,-0.002c-0.272,-0.004 -0.542,-0.016 -0.811,-0.035c2.669,-1.21 4.622,-3.732 5.031,-6.738l5.534,3.27c-2.663,2.271 -6.002,3.505 -9.521,3.505Z" style="fill:#c2c2c2;fill-rule:nonzero;"/><path d="M171.37,232.695c-0.145,-0.101 -0.287,-0.209 -0.423,-0.321c-0.309,-0.256 -0.767,-0.213 -1.022,0.096c-0.256,0.309 -0.213,0.767 0.096,1.022c0.167,0.138 0.342,0.271 0.52,0.395c0.126,0.088 0.271,0.13 0.414,0.13c0.229,0 0.455,-0.109 0.596,-0.311c0.229,-0.33 0.148,-0.782 -0.181,-1.011Z" style="fill:#c2c2c2;fill-rule:nonzero;"/><path d="M169.678,230.955c-0.671,-1.026 -1.025,-2.217 -1.025,-3.445c0,-0.401 -0.325,-0.726 -0.726,-0.726c-0.401,0 -0.726,0.325 -0.726,0.726c0,1.511 0.436,2.978 1.262,4.24c0.14,0.213 0.372,0.328 0.608,0.328c0.137,0 0.275,-0.038 0.397,-0.118c0.336,-0.22 0.43,-0.67 0.21,-1.005Z" style="fill:#c2c2c2;fill-rule:nonzero;"/></g><g><circle cx="188.794" cy="58.914" r="0.979" style="fill:#c2c2c2;"/><path d="M160.311,73.085l14.827,-8.762c0.061,-0.038 0.345,-0.215 0.514,-0.303c0.966,-0.507 2.017,-0.741 3.055,-0.715c0.907,-0.023 1.639,-0.767 1.639,-1.68l0,-1.934c0,-3.56 2.897,-6.456 6.457,-6.456c2.383,0 4.532,1.281 5.667,3.36l3.821,1.985c0.24,0.125 0.391,0.373 0.391,0.644c0,0.27 -0.151,0.519 -0.391,0.644l-3.629,1.89l0,6.048c0,5.505 -4.069,10.078 -9.358,10.868l4.17,4.17l2.081,0c0.401,0 0.726,0.325 0.726,0.726c0,0.401 -0.325,0.726 -0.726,0.726l-11.987,0c-0.401,0 -0.726,-0.325 -0.726,-0.726c0,-0.401 0.325,-0.726 0.726,-0.726l2.352,0l-4.049,-4.048l-4.568,0c-0.029,0 -0.058,-0.003 -0.087,-0.006c-4.143,-0.05 -8.047,-1.657 -11.038,-4.556c-0.002,-0.001 -0.004,-0.003 -0.005,-0.005c-0.018,-0.017 -0.032,-0.032 -0.042,-0.046c-0.027,-0.032 -0.053,-0.066 -0.076,-0.103c-0.204,-0.346 -0.089,-0.791 0.256,-0.995Zm30.899,-5.279l0,-6.488c0,-0.002 0,-0.004 0,-0.006c0,-0.005 0,-0.011 0.001,-0.016c0,-0.01 0.001,-0.019 0.001,-0.027c0.017,-0.244 0.156,-0.474 0.389,-0.595l2.782,-1.449l-2.717,-1.412c-0.159,-0.064 -0.297,-0.183 -0.38,-0.349c-0.853,-1.713 -2.57,-2.778 -4.483,-2.778c-2.76,0 -5.005,2.246 -5.005,5.005l0,1.934c0,0.835 -0.328,1.593 -0.862,2.155c0.71,0.295 1.374,0.725 1.951,1.284c1.195,1.159 1.868,2.714 1.894,4.379c0.026,1.665 -0.598,3.239 -1.757,4.435c-1.428,1.473 -3.088,2.639 -4.899,3.466l3.548,0c5.259,0 9.537,-4.279 9.537,-9.538Zm-9.236,15.038l3.447,0l-4.049,-4.048l-3.447,0l4.049,4.048Zm-5.99,-6.223c0.168,-0.055 0.334,-0.112 0.499,-0.173l0,-1.762c0,-0.401 0.325,-0.726 0.726,-0.726c0.401,0 0.726,0.325 0.726,0.726l0,1.14c0.606,-0.3 1.192,-0.643 1.754,-1.027l0,-3.083c0,-0.401 0.325,-0.726 0.726,-0.726c0.401,0 0.726,0.325 0.726,0.726l0,1.952c0.289,-0.255 0.569,-0.521 0.84,-0.801c0.889,-0.917 1.368,-2.125 1.348,-3.402c-0.02,-1.276 -0.536,-2.469 -1.453,-3.358c-0.878,-0.852 -2.016,-1.313 -3.179,-1.349c-0.011,0.001 -0.061,0 -0.075,-0.001c-0.781,-0.011 -1.57,0.168 -2.297,0.55c-0.099,0.051 -0.313,0.181 -0.424,0.251c-0.006,0.003 -0.011,0.007 -0.016,0.01l-7.075,4.181c0.189,3.804 3.33,6.844 7.174,6.872Zm-4.567,0.719c0.077,0 0.155,0 0.233,-0.001c0.272,-0.004 0.542,-0.017 0.811,-0.036c-2.669,-1.21 -4.622,-3.732 -5.031,-6.738l-5.533,3.27c2.663,2.271 6.001,3.505 9.52,3.505Z" style="fill:#c2c2c2;fill-rule:nonzero;"/><path d="M185.266,72.991c0.145,-0.1 0.287,-0.209 0.423,-0.321c0.309,-0.256 0.767,-0.212 1.022,0.096c0.256,0.309 0.213,0.767 -0.096,1.023c-0.167,0.138 -0.342,0.27 -0.52,0.394c-0.126,0.088 -0.27,0.13 -0.413,0.13c-0.23,0 -0.456,-0.108 -0.597,-0.311c-0.229,-0.329 -0.148,-0.782 0.181,-1.011Z" style="fill:#c2c2c2;fill-rule:nonzero;"/><path d="M186.958,71.251c0.671,-1.025 1.026,-2.217 1.026,-3.445c0,-0.401 0.325,-0.726 0.725,-0.726c0.401,0 0.726,0.325 0.726,0.726c0,1.512 -0.436,2.978 -1.262,4.24c-0.139,0.213 -0.371,0.329 -0.608,0.329c-0.136,0 -0.274,-0.039 -0.397,-0.119c-0.336,-0.219 -0.43,-0.669 -0.21,-1.005Z" style="fill:#c2c2c2;fill-rule:nonzero;"/></g><g><circle cx="188.794" cy="165.383" r="0.979" style="fill:#c2c2c2;"/><path d="M160.311,179.554l14.827,-8.762c0.061,-0.038 0.345,-0.215 0.514,-0.303c0.966,-0.507 2.017,-0.74 3.055,-0.714c0.907,-0.023 1.639,-0.767 1.639,-1.681l0,-1.934c0,-3.56 2.897,-6.456 6.457,-6.456c2.383,0 4.532,1.281 5.667,3.36l3.821,1.985c0.24,0.125 0.391,0.373 0.391,0.644c0,0.27 -0.151,0.519 -0.391,0.644l-3.629,1.89l0,6.048c0,5.506 -4.069,10.078 -9.358,10.868l4.17,4.171l2.081,0c0.401,0 0.726,0.325 0.726,0.725c0,0.401 -0.325,0.726 -0.726,0.726l-11.987,0c-0.401,0 -0.726,-0.325 -0.726,-0.726c0,-0.401 0.325,-0.725 0.726,-0.725l2.352,0l-4.049,-4.049l-4.568,0c-0.029,0 -0.058,-0.002 -0.087,-0.006c-4.143,-0.05 -8.047,-1.657 -11.038,-4.556c-0.002,-0.001 -0.004,-0.003 -0.005,-0.004c-0.018,-0.018 -0.032,-0.033 -0.042,-0.047c-0.027,-0.032 -0.053,-0.066 -0.076,-0.103c-0.204,-0.345 -0.089,-0.791 0.256,-0.995Zm30.899,-5.278l0,-6.489c0,-0.002 0,-0.004 0,-0.006c0,-0.005 0,-0.011 0.001,-0.016c0,-0.01 0.001,-0.019 0.001,-0.027c0.017,-0.244 0.156,-0.474 0.389,-0.595l2.782,-1.449l-2.717,-1.412c-0.159,-0.063 -0.297,-0.183 -0.38,-0.349c-0.853,-1.713 -2.57,-2.777 -4.483,-2.777c-2.76,0 -5.005,2.245 -5.005,5.004l0,1.934c0,0.835 -0.328,1.593 -0.862,2.156c0.71,0.295 1.374,0.724 1.951,1.284c1.195,1.159 1.868,2.714 1.894,4.378c0.026,1.665 -0.598,3.24 -1.757,4.435c-1.428,1.473 -3.088,2.639 -4.899,3.466l3.548,0c5.259,0 9.537,-4.279 9.537,-9.537Zm-9.236,15.038l3.447,0l-4.049,-4.049l-3.447,0l4.049,4.049Zm-5.99,-6.224c0.168,-0.054 0.334,-0.112 0.499,-0.173l0,-1.762c0,-0.401 0.325,-0.726 0.726,-0.726c0.401,0 0.726,0.325 0.726,0.726l0,1.14c0.606,-0.3 1.192,-0.643 1.754,-1.027l0,-3.083c0,-0.401 0.325,-0.726 0.726,-0.726c0.401,0 0.726,0.325 0.726,0.726l0,1.953c0.289,-0.255 0.569,-0.522 0.84,-0.802c0.889,-0.917 1.368,-2.125 1.348,-3.402c-0.02,-1.276 -0.536,-2.469 -1.453,-3.358c-0.878,-0.852 -2.016,-1.313 -3.179,-1.348c-0.011,0 -0.061,-0.001 -0.075,-0.002c-0.781,-0.011 -1.57,0.168 -2.297,0.55c-0.099,0.051 -0.313,0.181 -0.424,0.251c-0.006,0.004 -0.011,0.007 -0.016,0.01l-7.075,4.181c0.189,3.804 3.33,6.845 7.174,6.872Zm-4.567,0.72c0.077,0 0.155,-0.001 0.233,-0.002c0.272,-0.004 0.542,-0.017 0.811,-0.035c-2.669,-1.211 -4.622,-3.733 -5.031,-6.739l-5.533,3.27c2.663,2.271 6.001,3.506 9.52,3.506Z" style="fill:#c2c2c2;fill-rule:nonzero;"/><path d="M185.266,179.46c0.145,-0.1 0.287,-0.208 0.423,-0.321c0.309,-0.256 0.767,-0.212 1.022,0.097c0.256,0.308 0.213,0.766 -0.096,1.022c-0.167,0.138 -0.342,0.271 -0.52,0.394c-0.126,0.088 -0.27,0.131 -0.413,0.131c-0.23,0 -0.456,-0.109 -0.597,-0.312c-0.229,-0.329 -0.148,-0.782 0.181,-1.011Z" style="fill:#c2c2c2;fill-rule:nonzero;"/><path d="M186.958,177.72c0.671,-1.025 1.026,-2.216 1.026,-3.444c0,-0.401 0.325,-0.726 0.725,-0.726c0.401,0 0.726,0.325 0.726,0.726c0,1.511 -0.436,2.977 -1.262,4.239c-0.139,0.213 -0.371,0.329 -0.608,0.329c-0.136,0 -0.274,-0.039 -0.397,-0.119c-0.336,-0.219 -0.43,-0.669 -0.21,-1.005Z" style="fill:#c2c2c2;fill-rule:nonzero;"/></g></g><g><g><circle cx="221.161" cy="5.679" r="0.979" style="fill:#c2c2c2;"/><path d="M249.643,19.851l-14.827,-8.763c-0.061,-0.038 -0.345,-0.214 -0.514,-0.302c-0.966,-0.508 -2.017,-0.741 -3.054,-0.715c-0.908,-0.023 -1.64,-0.767 -1.64,-1.68l0,-1.934c0,-3.561 -2.896,-6.457 -6.457,-6.457c-2.383,0 -4.532,1.281 -5.667,3.36l-3.82,1.985c-0.241,0.125 -0.391,0.373 -0.392,0.644c0,0.271 0.151,0.519 0.391,0.644l3.629,1.89l0,6.049c0,5.505 4.069,10.077 9.358,10.868l-4.17,4.17l-2.081,0c-0.401,0 -0.726,0.325 -0.726,0.726c0,0.401 0.325,0.726 0.726,0.726l11.988,0c0.401,0 0.726,-0.325 0.726,-0.726c0,-0.401 -0.325,-0.726 -0.726,-0.726l-2.353,0l4.049,-4.049l4.568,0c0.03,0 0.059,-0.002 0.087,-0.006c4.143,-0.05 8.047,-1.657 11.039,-4.556c0.001,-0.001 0.003,-0.003 0.004,-0.004c0.018,-0.018 0.032,-0.033 0.042,-0.046c0.028,-0.032 0.054,-0.066 0.076,-0.104c0.204,-0.345 0.089,-0.79 -0.256,-0.994Zm-30.899,-5.279l0,-6.489c0,-0.002 0,-0.003 0,-0.005c0,-0.006 0,-0.011 0,-0.017c-0.001,-0.01 -0.001,-0.019 -0.002,-0.027c-0.017,-0.244 -0.156,-0.474 -0.388,-0.595l-2.782,-1.449l2.716,-1.411c0.16,-0.064 0.298,-0.184 0.38,-0.35c0.853,-1.713 2.571,-2.777 4.483,-2.777c2.76,0 5.005,2.245 5.005,5.005l0,1.934c0,0.834 0.329,1.593 0.862,2.155c-0.71,0.295 -1.373,0.724 -1.951,1.284c-1.195,1.159 -1.868,2.714 -1.894,4.378c-0.025,1.665 0.599,3.24 1.758,4.435c1.428,1.473 3.087,2.64 4.898,3.466l-3.548,0c-5.258,0 -9.537,-4.278 -9.537,-9.537Zm9.237,15.038l-3.448,0l4.049,-4.049l3.447,0l-4.048,4.049Zm5.989,-6.224c-0.167,-0.054 -0.333,-0.112 -0.499,-0.172l0,-1.763c0,-0.401 -0.325,-0.726 -0.726,-0.726c-0.401,0 -0.726,0.325 -0.726,0.726l0,1.141c-0.606,-0.3 -1.192,-0.644 -1.754,-1.028l0,-3.083c0,-0.401 -0.325,-0.726 -0.726,-0.726c-0.401,0 -0.726,0.325 -0.726,0.726l0,1.953c-0.288,-0.255 -0.569,-0.522 -0.84,-0.801c-0.889,-0.917 -1.367,-2.125 -1.348,-3.402c0.02,-1.277 0.536,-2.47 1.453,-3.359c0.879,-0.852 2.017,-1.312 3.179,-1.348c0.011,0 0.061,-0.001 0.075,-0.001c0.781,-0.012 1.57,0.167 2.298,0.549c0.098,0.052 0.312,0.182 0.424,0.252c0.005,0.003 0.01,0.006 0.016,0.009l7.074,4.181c-0.189,3.805 -3.33,6.845 -7.174,6.872Zm4.567,0.72c-0.077,0 -0.155,-0.001 -0.233,-0.002c-0.272,-0.004 -0.542,-0.016 -0.811,-0.035c2.67,-1.21 4.622,-3.733 5.032,-6.739l5.533,3.27c-2.663,2.271 -6.002,3.506 -9.521,3.506Z" style="fill:#c2c2c2;fill-rule:nonzero;"/><path d="M224.688,19.757c-0.145,-0.101 -0.287,-0.209 -0.423,-0.321c-0.309,-0.256 -0.766,-0.213 -1.022,0.096c-0.256,0.309 -0.213,0.766 0.096,1.022c0.167,0.138 0.342,0.271 0.52,0.395c0.126,0.088 0.271,0.13 0.414,0.13c0.229,0 0.455,-0.109 0.596,-0.312c0.229,-0.329 0.148,-0.781 -0.181,-1.01Z" style="fill:#c2c2c2;fill-rule:nonzero;"/><path d="M222.996,18.017c-0.67,-1.026 -1.025,-2.217 -1.025,-3.445c0,-0.401 -0.325,-0.726 -0.726,-0.726c-0.401,0 -0.726,0.325 -0.726,0.726c0,1.511 0.437,2.977 1.262,4.24c0.14,0.213 0.372,0.328 0.609,0.328c0.136,0 0.274,-0.038 0.396,-0.118c0.336,-0.22 0.43,-0.67 0.21,-1.005Z" style="fill:#c2c2c2;fill-rule:nonzero;"/></g><g><circle cx="221.161" cy="112.149" r="0.979" style="fill:#c2c2c2;"/><path d="M249.643,126.32l-14.827,-8.763c-0.061,-0.038 -0.345,-0.214 -0.514,-0.302c-0.966,-0.508 -2.017,-0.741 -3.054,-0.715c-0.908,-0.023 -1.64,-0.767 -1.64,-1.68l0,-1.934c0,-3.56 -2.896,-6.457 -6.457,-6.457c-2.383,0 -4.532,1.281 -5.667,3.36l-3.82,1.985c-0.241,0.125 -0.391,0.373 -0.392,0.644c0,0.271 0.151,0.519 0.391,0.644l3.629,1.891l0,6.048c0,5.505 4.069,10.077 9.358,10.868l-4.17,4.17l-2.081,0c-0.401,0 -0.726,0.325 -0.726,0.726c0,0.401 0.325,0.726 0.726,0.726l11.988,0c0.401,0 0.726,-0.325 0.726,-0.726c0,-0.401 -0.325,-0.726 -0.726,-0.726l-2.353,0l4.049,-4.049l4.568,0c0.03,0 0.059,-0.002 0.087,-0.005c4.143,-0.051 8.047,-1.658 11.039,-4.556c0.001,-0.002 0.003,-0.004 0.004,-0.005c0.018,-0.018 0.032,-0.033 0.042,-0.046c0.028,-0.032 0.054,-0.066 0.076,-0.104c0.204,-0.345 0.089,-0.79 -0.256,-0.994Zm-30.899,-5.279l0,-6.489c0,-0.002 0,-0.003 0,-0.005c0,-0.006 0,-0.011 0,-0.017c-0.001,-0.009 -0.001,-0.018 -0.002,-0.026c-0.017,-0.245 -0.156,-0.474 -0.388,-0.596l-2.782,-1.449l2.716,-1.411c0.16,-0.064 0.298,-0.184 0.38,-0.35c0.853,-1.713 2.571,-2.777 4.483,-2.777c2.76,0 5.005,2.245 5.005,5.005l0,1.934c0,0.834 0.329,1.593 0.862,2.155c-0.71,0.295 -1.373,0.724 -1.951,1.284c-1.195,1.159 -1.868,2.714 -1.894,4.379c-0.025,1.664 0.599,3.239 1.758,4.434c1.428,1.473 3.087,2.64 4.898,3.466l-3.548,0c-5.258,0 -9.537,-4.278 -9.537,-9.537Zm9.237,15.038l-3.448,0l4.049,-4.049l3.447,0l-4.048,4.049Zm5.989,-6.224c-0.167,-0.054 -0.333,-0.112 -0.499,-0.172l0,-1.763c0,-0.401 -0.325,-0.726 -0.726,-0.726c-0.401,0 -0.726,0.325 -0.726,0.726l0,1.141c-0.606,-0.3 -1.192,-0.644 -1.754,-1.028l0,-3.082c0,-0.401 -0.325,-0.726 -0.726,-0.726c-0.401,0 -0.726,0.325 -0.726,0.726l0,1.952c-0.288,-0.255 -0.569,-0.522 -0.84,-0.801c-0.889,-0.917 -1.367,-2.125 -1.348,-3.402c0.02,-1.277 0.536,-2.47 1.453,-3.359c0.879,-0.852 2.017,-1.312 3.179,-1.348c0.011,0 0.061,0 0.075,-0.001c0.781,-0.012 1.57,0.167 2.298,0.55c0.098,0.051 0.312,0.181 0.424,0.251c0.005,0.003 0.01,0.006 0.016,0.009l7.074,4.181c-0.189,3.805 -3.33,6.845 -7.174,6.872Zm4.567,0.72c-0.077,0 -0.155,-0.001 -0.233,-0.002c-0.272,-0.004 -0.542,-0.016 -0.811,-0.035c2.67,-1.21 4.622,-3.732 5.032,-6.739l5.533,3.27c-2.663,2.272 -6.002,3.506 -9.521,3.506Z" style="fill:#c2c2c2;fill-rule:nonzero;"/><path d="M224.688,126.226c-0.145,-0.101 -0.287,-0.209 -0.423,-0.321c-0.309,-0.256 -0.766,-0.213 -1.022,0.096c-0.256,0.309 -0.213,0.767 0.096,1.022c0.167,0.138 0.342,0.271 0.52,0.395c0.126,0.088 0.271,0.13 0.414,0.13c0.229,0 0.455,-0.109 0.596,-0.312c0.229,-0.329 0.148,-0.781 -0.181,-1.01Z" style="fill:#c2c2c2;fill-rule:nonzero;"/><path d="M222.996,124.486c-0.67,-1.026 -1.025,-2.217 -1.025,-3.445c0,-0.401 -0.325,-0.726 -0.726,-0.726c-0.401,0 -0.726,0.325 -0.726,0.726c0,1.511 0.437,2.977 1.262,4.24c0.14,0.213 0.372,0.328 0.609,0.328c0.136,0 0.274,-0.038 0.396,-0.118c0.336,-0.22 0.43,-0.67 0.21,-1.005Z" style="fill:#c2c2c2;fill-rule:nonzero;"/></g><g><circle cx="221.161" cy="218.618" r="0.979" style="fill:#c2c2c2;"/><path d="M249.643,232.789l-14.827,-8.763c-0.061,-0.038 -0.345,-0.214 -0.514,-0.302c-0.966,-0.507 -2.017,-0.741 -3.054,-0.715c-0.908,-0.023 -1.64,-0.767 -1.64,-1.68l0,-1.934c0,-3.56 -2.896,-6.457 -6.457,-6.457c-2.383,0 -4.532,1.281 -5.667,3.36l-3.82,1.985c-0.241,0.125 -0.391,0.374 -0.392,0.644c0,0.271 0.151,0.519 0.391,0.644l3.629,1.891l0,6.048c0,5.505 4.069,10.077 9.358,10.868l-4.17,4.17l-2.081,0c-0.401,0 -0.726,0.325 -0.726,0.726c0,0.401 0.325,0.726 0.726,0.726l11.988,0c0.401,0 0.726,-0.325 0.726,-0.726c0,-0.401 -0.325,-0.726 -0.726,-0.726l-2.353,0l4.049,-4.049l4.568,0c0.03,0 0.059,-0.002 0.087,-0.005c4.143,-0.05 8.047,-1.658 11.039,-4.556c0.001,-0.002 0.003,-0.003 0.004,-0.005c0.018,-0.017 0.032,-0.033 0.042,-0.046c0.028,-0.032 0.054,-0.066 0.076,-0.104c0.204,-0.345 0.089,-0.79 -0.256,-0.994Zm-30.899,-5.279l0,-6.489c0,-0.002 0,-0.003 0,-0.005c0,-0.006 0,-0.011 0,-0.017c-0.001,-0.009 -0.001,-0.018 -0.002,-0.026c-0.017,-0.244 -0.156,-0.474 -0.388,-0.596l-2.782,-1.449l2.716,-1.411c0.16,-0.064 0.298,-0.184 0.38,-0.35c0.853,-1.713 2.571,-2.777 4.483,-2.777c2.76,0 5.005,2.245 5.005,5.005l0,1.934c0,0.834 0.329,1.593 0.862,2.155c-0.71,0.295 -1.373,0.724 -1.951,1.284c-1.195,1.159 -1.868,2.714 -1.894,4.379c-0.025,1.664 0.599,3.239 1.758,4.435c1.428,1.473 3.087,2.639 4.898,3.465l-3.548,0c-5.258,0 -9.537,-4.278 -9.537,-9.537Zm9.237,15.038l-3.448,0l4.049,-4.049l3.447,0l-4.048,4.049Zm5.989,-6.223c-0.167,-0.055 -0.333,-0.113 -0.499,-0.173l0,-1.763c0,-0.401 -0.325,-0.726 -0.726,-0.726c-0.401,0 -0.726,0.325 -0.726,0.726l0,1.141c-0.606,-0.3 -1.192,-0.644 -1.754,-1.028l0,-3.082c0,-0.401 -0.325,-0.726 -0.726,-0.726c-0.401,0 -0.726,0.325 -0.726,0.726l0,1.952c-0.288,-0.255 -0.569,-0.522 -0.84,-0.801c-0.889,-0.917 -1.367,-2.125 -1.348,-3.402c0.02,-1.277 0.536,-2.469 1.453,-3.358c0.879,-0.852 2.017,-1.313 3.179,-1.349c0.011,0 0.061,0 0.075,-0.001c0.781,-0.012 1.57,0.168 2.298,0.55c0.098,0.051 0.312,0.181 0.424,0.251c0.005,0.003 0.01,0.006 0.016,0.01l7.074,4.18c-0.189,3.805 -3.33,6.845 -7.174,6.873Zm4.567,0.719c-0.077,0 -0.155,0 -0.233,-0.002c-0.272,-0.004 -0.542,-0.016 -0.811,-0.035c2.67,-1.21 4.622,-3.732 5.032,-6.738l5.533,3.27c-2.663,2.271 -6.002,3.505 -9.521,3.505Z" style="fill:#c2c2c2;fill-rule:nonzero;"/><path d="M224.688,232.695c-0.145,-0.101 -0.287,-0.209 -0.423,-0.321c-0.309,-0.256 -0.766,-0.213 -1.022,0.096c-0.256,0.309 -0.213,0.767 0.096,1.022c0.167,0.138 0.342,0.271 0.52,0.395c0.126,0.088 0.271,0.13 0.414,0.13c0.229,0 0.455,-0.109 0.596,-0.311c0.229,-0.33 0.148,-0.782 -0.181,-1.011Z" style="fill:#c2c2c2;fill-rule:nonzero;"/><path d="M222.996,230.955c-0.67,-1.026 -1.025,-2.217 -1.025,-3.445c0,-0.401 -0.325,-0.726 -0.726,-0.726c-0.401,0 -0.726,0.325 -0.726,0.726c0,1.511 0.437,2.978 1.262,4.24c0.14,0.213 0.372,0.328 0.609,0.328c0.136,0 0.274,-0.038 0.396,-0.118c0.336,-0.22 0.43,-0.67 0.21,-1.005Z" style="fill:#c2c2c2;fill-rule:nonzero;"/></g><g><circle cx="242.112" cy="58.914" r="0.979" style="fill:#c2c2c2;"/><path d="M213.629,73.085l14.828,-8.762c0.06,-0.038 0.344,-0.215 0.514,-0.303c0.966,-0.507 2.016,-0.741 3.054,-0.715c0.907,-0.023 1.639,-0.767 1.639,-1.68l0,-1.934c0,-3.56 2.897,-6.456 6.458,-6.456c2.383,0 4.531,1.281 5.666,3.36l3.821,1.985c0.24,0.125 0.391,0.373 0.391,0.644c0,0.27 -0.15,0.519 -0.391,0.644l-3.629,1.89l0,6.048c0,5.505 -4.069,10.078 -9.357,10.868l4.169,4.17l2.081,0c0.401,0 0.726,0.325 0.726,0.726c0,0.401 -0.325,0.726 -0.726,0.726l-11.987,0c-0.401,0 -0.726,-0.325 -0.726,-0.726c0,-0.401 0.325,-0.726 0.726,-0.726l2.352,0l-4.048,-4.048l-4.569,0c-0.029,0 -0.058,-0.003 -0.087,-0.006c-4.143,-0.05 -8.047,-1.657 -11.038,-4.556c-0.002,-0.001 -0.003,-0.003 -0.005,-0.005c-0.018,-0.017 -0.032,-0.032 -0.042,-0.046c-0.027,-0.032 -0.053,-0.066 -0.075,-0.103c-0.204,-0.346 -0.09,-0.791 0.255,-0.995Zm30.899,-5.279l0,-6.488c0,-0.002 0,-0.004 0,-0.006c0,-0.005 0,-0.011 0.001,-0.016c0,-0.01 0.001,-0.019 0.002,-0.027c0.016,-0.244 0.155,-0.474 0.388,-0.595l2.782,-1.449l-2.717,-1.412c-0.159,-0.064 -0.297,-0.183 -0.38,-0.349c-0.853,-1.713 -2.57,-2.778 -4.482,-2.778c-2.76,0 -5.006,2.246 -5.006,5.005l0,1.934c0,0.835 -0.328,1.593 -0.862,2.155c0.71,0.295 1.374,0.725 1.951,1.284c1.196,1.159 1.868,2.714 1.894,4.379c0.026,1.665 -0.598,3.239 -1.757,4.435c-1.428,1.473 -3.088,2.639 -4.899,3.466l3.548,0c5.259,0 9.537,-4.279 9.537,-9.538Zm-9.236,15.038l3.447,0l-4.049,-4.048l-3.447,0l4.049,4.048Zm-5.99,-6.223c0.168,-0.055 0.334,-0.112 0.499,-0.173l0,-1.762c0,-0.401 0.325,-0.726 0.726,-0.726c0.401,0 0.726,0.325 0.726,0.726l0,1.14c0.606,-0.3 1.192,-0.643 1.754,-1.027l0,-3.083c0,-0.401 0.325,-0.726 0.726,-0.726c0.401,0 0.726,0.325 0.726,0.726l0,1.952c0.289,-0.255 0.569,-0.521 0.84,-0.801c0.889,-0.917 1.368,-2.125 1.348,-3.402c-0.02,-1.276 -0.536,-2.469 -1.452,-3.358c-0.879,-0.852 -2.017,-1.313 -3.18,-1.349c-0.011,0.001 -0.061,0 -0.075,-0.001c-0.78,-0.011 -1.57,0.168 -2.297,0.55c-0.099,0.051 -0.313,0.181 -0.424,0.251c-0.005,0.003 -0.011,0.007 -0.016,0.01l-7.075,4.181c0.189,3.804 3.33,6.844 7.174,6.872Zm-4.567,0.719c0.078,0 0.156,0 0.233,-0.001c0.272,-0.004 0.542,-0.017 0.812,-0.036c-2.67,-1.21 -4.623,-3.732 -5.032,-6.738l-5.533,3.27c2.663,2.271 6.001,3.505 9.52,3.505Z" style="fill:#c2c2c2;fill-rule:nonzero;"/><path d="M238.584,72.991c0.145,-0.1 0.288,-0.209 0.423,-0.321c0.309,-0.256 0.767,-0.212 1.022,0.096c0.256,0.309 0.213,0.767 -0.096,1.023c-0.167,0.138 -0.341,0.27 -0.519,0.394c-0.127,0.088 -0.271,0.13 -0.414,0.13c-0.23,0 -0.456,-0.108 -0.597,-0.311c-0.229,-0.329 -0.148,-0.782 0.181,-1.011Z" style="fill:#c2c2c2;fill-rule:nonzero;"/><path d="M240.276,71.251c0.671,-1.025 1.026,-2.217 1.026,-3.445c0,-0.401 0.325,-0.726 0.726,-0.726c0.401,0 0.725,0.325 0.725,0.726c0,1.512 -0.436,2.978 -1.262,4.24c-0.139,0.213 -0.371,0.329 -0.608,0.329c-0.136,0 -0.274,-0.039 -0.397,-0.119c-0.335,-0.219 -0.429,-0.669 -0.21,-1.005Z" style="fill:#c2c2c2;fill-rule:nonzero;"/></g><g><circle cx="242.112" cy="165.383" r="0.979" style="fill:#c2c2c2;"/><path d="M213.629,179.554l14.828,-8.762c0.06,-0.038 0.344,-0.215 0.514,-0.303c0.966,-0.507 2.016,-0.74 3.054,-0.714c0.907,-0.023 1.639,-0.767 1.639,-1.681l0,-1.934c0,-3.56 2.897,-6.456 6.458,-6.456c2.383,0 4.531,1.281 5.666,3.36l3.821,1.985c0.24,0.125 0.391,0.373 0.391,0.644c0,0.27 -0.15,0.519 -0.391,0.644l-3.629,1.89l0,6.048c0,5.506 -4.069,10.078 -9.357,10.868l4.169,4.171l2.081,0c0.401,0 0.726,0.325 0.726,0.725c0,0.401 -0.325,0.726 -0.726,0.726l-11.987,0c-0.401,0 -0.726,-0.325 -0.726,-0.726c0,-0.401 0.325,-0.725 0.726,-0.725l2.352,0l-4.048,-4.049l-4.569,0c-0.029,0 -0.058,-0.002 -0.087,-0.006c-4.143,-0.05 -8.047,-1.657 -11.038,-4.556c-0.002,-0.001 -0.003,-0.003 -0.005,-0.004c-0.018,-0.018 -0.032,-0.033 -0.042,-0.047c-0.027,-0.032 -0.053,-0.066 -0.075,-0.103c-0.204,-0.345 -0.09,-0.791 0.255,-0.995Zm30.899,-5.278l0,-6.489c0,-0.002 0,-0.004 0,-0.006c0,-0.005 0,-0.011 0.001,-0.016c0,-0.01 0.001,-0.019 0.002,-0.027c0.016,-0.244 0.155,-0.474 0.388,-0.595l2.782,-1.449l-2.717,-1.412c-0.159,-0.063 -0.297,-0.183 -0.38,-0.349c-0.853,-1.713 -2.57,-2.777 -4.482,-2.777c-2.76,0 -5.006,2.245 -5.006,5.004l0,1.934c0,0.835 -0.328,1.593 -0.862,2.156c0.71,0.295 1.374,0.724 1.951,1.284c1.196,1.159 1.868,2.714 1.894,4.378c0.026,1.665 -0.598,3.24 -1.757,4.435c-1.428,1.473 -3.088,2.639 -4.899,3.466l3.548,0c5.259,0 9.537,-4.279 9.537,-9.537Zm-9.236,15.038l3.447,0l-4.049,-4.049l-3.447,0l4.049,4.049Zm-5.99,-6.224c0.168,-0.054 0.334,-0.112 0.499,-0.173l0,-1.762c0,-0.401 0.325,-0.726 0.726,-0.726c0.401,0 0.726,0.325 0.726,0.726l0,1.14c0.606,-0.3 1.192,-0.643 1.754,-1.027l0,-3.083c0,-0.401 0.325,-0.726 0.726,-0.726c0.401,0 0.726,0.325 0.726,0.726l0,1.953c0.289,-0.255 0.569,-0.522 0.84,-0.802c0.889,-0.917 1.368,-2.125 1.348,-3.402c-0.02,-1.276 -0.536,-2.469 -1.452,-3.358c-0.879,-0.852 -2.017,-1.313 -3.18,-1.348c-0.011,0 -0.061,-0.001 -0.075,-0.002c-0.78,-0.011 -1.57,0.168 -2.297,0.55c-0.099,0.051 -0.313,0.181 -0.424,0.251c-0.005,0.004 -0.011,0.007 -0.016,0.01l-7.075,4.181c0.189,3.804 3.33,6.845 7.174,6.872Zm-4.567,0.72c0.078,0 0.156,-0.001 0.233,-0.002c0.272,-0.004 0.542,-0.017 0.812,-0.035c-2.67,-1.211 -4.623,-3.733 -5.032,-6.739l-5.533,3.27c2.663,2.271 6.001,3.506 9.52,3.506Z" style="fill:#c2c2c2;fill-rule:nonzero;"/><path d="M238.584,179.46c0.145,-0.1 0.288,-0.208 0.423,-0.321c0.309,-0.256 0.767,-0.212 1.022,0.097c0.256,0.308 0.213,0.766 -0.096,1.022c-0.167,0.138 -0.341,0.271 -0.519,0.394c-0.127,0.088 -0.271,0.131 -0.414,0.131c-0.23,0 -0.456,-0.109 -0.597,-0.312c-0.229,-0.329 -0.148,-0.782 0.181,-1.011Z" style="fill:#c2c2c2;fill-rule:nonzero;"/><path d="M240.276,177.72c0.671,-1.025 1.026,-2.216 1.026,-3.444c0,-0.401 0.325,-0.726 0.726,-0.726c0.401,0 0.725,0.325 0.725,0.726c0,1.511 -0.436,2.977 -1.262,4.239c-0.139,0.213 -0.371,0.329 -0.608,0.329c-0.136,0 -0.274,-0.039 -0.397,-0.119c-0.335,-0.219 -0.429,-0.669 -0.21,-1.005Z" style="fill:#c2c2c2;fill-rule:nonzero;"/></g></g></svg>