<?xml version="1.0" encoding="UTF-8" standalone="no"?><!DOCTYPE svg PUBLIC "-//W3C//DTD SVG 1.1//EN" "http://www.w3.org/Graphics/SVG/1.1/DTD/svg11.dtd"><svg width="100%" height="100%" viewBox="0 0 260 216" version="1.1" xmlns="http://www.w3.org/2000/svg" xmlns:xlink="http://www.w3.org/1999/xlink" xml:space="preserve" style="fill-rule:evenodd;clip-rule:evenodd;stroke-linejoin:round;stroke-miterlimit:1.41421;"><g><path d="M238.459,20.741c0,2.607 0.948,4.978 2.726,6.874c1.659,1.778 3.793,2.963 6.045,3.318l-0.474,7.823l-0.712,0c-0.355,0 -0.592,0.237 -0.592,0.592c0,0.356 0.237,0.593 0.592,0.593l5.571,0c0.355,0 0.592,-0.237 0.592,-0.593c0,-0.355 -0.237,-0.592 -0.592,-0.592l-0.711,0l-0.474,-7.823c4.977,-0.711 8.77,-5.096 8.77,-10.192c0,-4.03 -1.067,-9.126 -2.844,-13.156c-2.134,-4.859 -4.741,-7.466 -7.467,-7.466c-2.726,0 -5.333,2.607 -7.467,7.466c-1.778,4.03 -2.963,9.126 -2.963,13.156Zm9.719,18.015l0.711,-12.563l0.711,12.563l-1.422,0Zm-8.415,-18.015c0,-3.793 1.067,-8.771 2.726,-12.682c1.896,-4.266 4.148,-6.755 6.281,-6.755c2.134,0 4.386,2.489 6.282,6.755c1.659,3.911 2.726,8.889 2.726,12.682c0,4.385 -3.2,8.178 -7.585,8.889l-0.356,-6.4l3.437,-3.437c0.237,-0.237 0.237,-0.712 0,-0.949c-0.237,-0.237 -0.711,-0.237 -0.948,0l-2.607,2.608l-0.356,-7.111c0,-0.356 -0.356,-0.593 -0.593,-0.593c-0.355,0 -0.592,0.237 -0.592,0.593l-0.237,4.503l-0.711,-0.711c-0.237,-0.237 -0.711,-0.237 -0.949,0c-0.237,0.237 -0.237,0.711 0,0.948l1.541,1.541l-0.118,2.845l-2.489,-2.489c-0.237,-0.237 -0.711,-0.237 -0.948,0c-0.237,0.237 -0.237,0.711 0,0.948l3.318,3.318l-0.237,4.386c-2.015,-0.356 -3.792,-1.304 -5.215,-2.845c-1.54,-1.659 -2.37,-3.792 -2.37,-6.044Z" style="fill:#b2b2b2;fill-rule:nonzero;"/><path d="M113.185,7.467c-2.133,-4.86 -4.741,-7.467 -7.466,-7.467c-2.726,0 -5.334,2.607 -7.467,7.467c-1.778,4.148 -2.845,9.126 -2.845,13.155c0,5.097 3.793,9.482 8.771,10.193l-0.474,7.822l-0.711,0c-0.356,0 -0.593,0.237 -0.593,0.593c0,0.355 0.237,0.592 0.593,0.592l5.57,0c0.356,0 0.593,-0.237 0.593,-0.592c0,-0.356 -0.237,-0.593 -0.593,-0.593l-0.711,0l-0.474,-7.822c2.37,-0.356 4.503,-1.541 6.044,-3.319c1.778,-1.896 2.726,-4.385 2.726,-6.874c-0.118,-3.911 -1.185,-9.007 -2.963,-13.155Zm-8.178,31.289l0.712,-12.563l0.711,12.563l-1.423,0Zm7.467,-11.971c-1.422,1.541 -3.2,2.489 -5.215,2.845l-0.237,-4.386l3.319,-3.318c0.237,-0.237 0.237,-0.711 0,-0.948c-0.237,-0.237 -0.711,-0.237 -0.948,0l-2.489,2.489l-0.237,-2.845l1.54,-1.541c0.237,-0.237 0.237,-0.711 0,-0.948c-0.237,-0.237 -0.711,-0.237 -0.948,0l-0.592,0.711l-0.237,-4.503c0,-0.356 -0.356,-0.593 -0.593,-0.593c-0.356,0 -0.593,0.237 -0.593,0.593l-0.355,7.111l-2.608,-2.608c-0.237,-0.237 -0.711,-0.237 -0.948,0c-0.237,0.237 -0.237,0.712 0,0.949l3.437,3.437l-0.474,6.4c-4.385,-0.711 -7.585,-4.504 -7.585,-8.889c0,-3.793 1.067,-8.771 2.726,-12.682c1.896,-4.266 4.148,-6.755 6.282,-6.755c2.133,0 4.385,2.489 6.281,6.755c1.659,3.911 2.726,8.889 2.726,12.682c0,2.252 -0.83,4.385 -2.252,6.044Z" style="fill:#b2b2b2;fill-rule:nonzero;"/><path d="M143.052,20.741c0,2.607 0.948,4.978 2.726,6.874c1.659,1.778 3.792,2.963 6.044,3.318l-0.474,7.823l-0.711,0c-0.356,0 -0.593,0.237 -0.593,0.592c0,0.356 0.237,0.593 0.593,0.593l5.57,0c0.356,0 0.593,-0.237 0.593,-0.593c0,-0.355 -0.237,-0.592 -0.593,-0.592l-0.711,0l-0.474,-7.823c4.978,-0.711 8.771,-5.096 8.771,-10.192c0,-4.03 -1.067,-9.126 -2.845,-13.156c-2.133,-4.859 -4.741,-7.466 -7.467,-7.466c-2.725,0 -5.333,2.607 -7.466,7.466c-1.778,4.03 -2.963,9.126 -2.963,13.156Zm9.718,18.015l0.711,-12.563l0.712,12.563l-1.423,0Zm-8.414,-18.015c0,-3.793 1.066,-8.771 2.725,-12.682c1.897,-4.266 4.149,-6.755 6.282,-6.755c2.133,0 4.385,2.489 6.281,6.755c1.66,3.911 2.726,8.889 2.726,12.682c0,4.385 -3.2,8.178 -7.585,8.889l-0.355,-6.4l3.437,-3.437c0.237,-0.237 0.237,-0.712 0,-0.949c-0.237,-0.237 -0.711,-0.237 -0.948,0l-2.608,2.608l-0.355,-7.111c0,-0.356 -0.356,-0.593 -0.593,-0.593c-0.356,0 -0.593,0.237 -0.593,0.593l-0.237,4.503l-0.711,-0.711c-0.237,-0.237 -0.711,-0.237 -0.948,0c-0.237,0.237 -0.237,0.711 0,0.948l1.541,1.541l-0.119,2.845l-2.489,-2.489c-0.237,-0.237 -0.711,-0.237 -0.948,0c-0.237,0.237 -0.237,0.711 0,0.948l3.319,3.318l-0.237,4.386c-2.015,-0.356 -3.793,-1.304 -5.215,-2.845c-1.541,-1.659 -2.37,-3.792 -2.37,-6.044Z" style="fill:#b2b2b2;fill-rule:nonzero;"/><path d="M208.593,7.467c-2.134,-4.86 -4.741,-7.467 -7.467,-7.467c-2.726,0 -5.333,2.607 -7.467,7.467c-1.778,4.148 -2.844,9.126 -2.844,13.155c0,5.097 3.792,9.482 8.77,10.193l-0.474,7.822l-0.711,0c-0.356,0 -0.593,0.237 -0.593,0.593c0,0.355 0.237,0.592 0.593,0.592l5.57,0c0.356,0 0.593,-0.237 0.593,-0.592c0,-0.356 -0.237,-0.593 -0.593,-0.593l-0.711,0l-0.474,-7.822c2.371,-0.356 4.504,-1.541 6.045,-3.319c1.777,-1.896 2.726,-4.385 2.726,-6.874c-0.119,-3.911 -1.186,-9.007 -2.963,-13.155Zm-8.178,31.289l0.711,-12.563l0.711,12.563l-1.422,0Zm7.466,-11.971c-1.422,1.541 -3.2,2.489 -5.214,2.845l-0.237,-4.386l3.318,-3.318c0.237,-0.237 0.237,-0.711 0,-0.948c-0.237,-0.237 -0.711,-0.237 -0.948,0l-2.489,2.489l-0.118,-2.845l1.54,-1.541c0.237,-0.237 0.237,-0.711 0,-0.948c-0.237,-0.237 -0.711,-0.237 -0.948,0l-0.711,0.711l-0.237,-4.503c0,-0.356 -0.356,-0.593 -0.593,-0.593c-0.237,0 -0.592,0.237 -0.592,0.593l-0.356,7.111l-2.607,-2.608c-0.237,-0.237 -0.711,-0.237 -0.948,0c-0.237,0.237 -0.237,0.712 0,0.949l3.437,3.437l-0.356,6.4c-4.385,-0.711 -7.585,-4.504 -7.585,-8.889c0,-3.793 1.067,-8.771 2.726,-12.682c1.896,-4.266 4.148,-6.755 6.281,-6.755c2.134,0 4.386,2.489 6.282,6.755c1.659,3.911 2.726,8.889 2.726,12.682c-0.119,2.252 -0.948,4.385 -2.371,6.044Z" style="fill:#b2b2b2;fill-rule:nonzero;"/><path d="M47.644,20.741c0,2.607 0.949,4.978 2.726,6.874c1.66,1.778 3.793,2.963 6.045,3.318l-0.474,7.823l-0.711,0c-0.356,0 -0.593,0.237 -0.593,0.592c0,0.356 0.237,0.593 0.593,0.593l5.57,0c0.356,0 0.593,-0.237 0.593,-0.593c0,-0.355 -0.237,-0.592 -0.593,-0.592l-0.711,0l-0.474,-7.823c4.978,-0.711 8.77,-5.096 8.77,-10.192c0,-4.03 -1.066,-9.126 -2.844,-13.156c-2.134,-4.978 -4.86,-7.585 -7.467,-7.585c-2.726,0 -5.333,2.607 -7.467,7.467c-1.777,4.148 -2.963,9.244 -2.963,13.274Zm9.719,18.015l0.711,-12.563l0.711,12.563l-1.422,0Zm-8.415,-18.015c0,-3.793 1.067,-8.771 2.726,-12.682c1.896,-4.266 4.148,-6.755 6.282,-6.755c2.133,0 4.385,2.489 6.281,6.755c1.659,3.911 2.726,8.889 2.726,12.682c0,4.385 -3.2,8.178 -7.585,8.889l-0.356,-6.4l3.437,-3.437c0.237,-0.237 0.237,-0.712 0,-0.949c-0.237,-0.237 -0.711,-0.237 -0.948,0l-2.607,2.608l-0.356,-7.111c0,-0.356 -0.355,-0.593 -0.592,-0.593c-0.237,0 -0.593,0.237 -0.593,0.593l-0.237,4.503l-0.711,-0.711c-0.237,-0.237 -0.711,-0.237 -0.948,0c-0.237,0.237 -0.237,0.711 0,0.948l1.54,1.541l-0.118,2.845l-2.489,-2.489c-0.237,-0.237 -0.711,-0.237 -0.948,0c-0.237,0.237 -0.237,0.711 0,0.948l3.318,3.318l-0.237,4.386c-2.014,-0.356 -3.792,-1.304 -5.214,-2.845c-1.541,-1.659 -2.371,-3.792 -2.371,-6.044Z" style="fill:#b2b2b2;fill-rule:nonzero;"/><path d="M17.778,7.467c-2.134,-4.86 -4.741,-7.467 -7.467,-7.467c-2.726,0 -5.333,2.607 -7.467,7.467c-1.777,4.148 -2.844,9.244 -2.844,13.274c0,5.096 3.793,9.481 8.77,10.192l-0.474,7.823l-0.711,0c-0.355,0 -0.592,0.237 -0.592,0.592c0,0.356 0.237,0.593 0.592,0.593l5.452,0c0.356,0 0.593,-0.237 0.593,-0.593c0,-0.355 -0.237,-0.592 -0.593,-0.592l-0.711,0l-0.474,-7.823c2.37,-0.355 4.504,-1.54 6.044,-3.318c1.778,-1.896 2.726,-4.385 2.726,-6.874c0,-4.03 -1.066,-9.126 -2.844,-13.274Zm-8.178,31.289l0.711,-12.563l0.711,12.563l-1.422,0Zm7.467,-11.971c-1.423,1.541 -3.2,2.489 -5.215,2.845l-0.237,-4.386l3.318,-3.318c0.237,-0.237 0.237,-0.711 0,-0.948c-0.237,-0.237 -0.711,-0.237 -0.948,0l-2.489,2.489l-0.118,-2.845l1.541,-1.541c0.237,-0.237 0.237,-0.711 0,-0.948c-0.238,-0.237 -0.712,-0.237 -0.949,0l-0.711,0.711l-0.237,-4.503c0,-0.356 -0.355,-0.593 -0.592,-0.593c-0.356,0 -0.593,0.237 -0.593,0.593l-0.356,7.111l-2.607,-2.608c-0.237,-0.237 -0.711,-0.237 -0.948,0c-0.237,0.237 -0.237,0.712 0,0.949l3.437,3.437l-0.474,6.4c-4.385,-0.711 -7.585,-4.504 -7.585,-8.889c0,-3.793 1.066,-8.771 2.726,-12.682c1.896,-4.266 4.148,-6.755 6.281,-6.755c2.133,0 4.385,2.489 6.282,6.755c1.659,3.911 2.726,8.889 2.726,12.682c0,2.252 -0.83,4.385 -2.252,6.044Z" style="fill:#b2b2b2;fill-rule:nonzero;"/></g><g><path d="M42.667,36.869c-2.134,-4.859 -4.741,-7.467 -7.467,-7.467c-2.726,0 -5.333,2.608 -7.467,7.467c-1.777,4.148 -2.844,9.126 -2.844,13.156c0,5.096 3.792,9.481 8.77,10.192l-0.474,7.823l-0.711,0c-0.355,0 -0.593,0.237 -0.593,0.592c0,0.356 0.238,0.593 0.593,0.593l5.452,0c0.355,0 0.593,-0.237 0.593,-0.593c0,-0.355 -0.238,-0.592 -0.593,-0.592l-0.711,0l-0.474,-7.704c2.37,-0.356 4.503,-1.541 6.044,-3.319c1.778,-1.896 2.726,-4.385 2.726,-6.874c0,-4.148 -1.067,-9.126 -2.844,-13.274Zm-8.178,31.171l0.711,-12.563l0.711,12.563l-1.422,0Zm7.467,-11.852c-1.423,1.54 -3.2,2.489 -5.215,2.844l-0.237,-4.504l3.318,-3.318c0.237,-0.237 0.237,-0.711 0,-0.948c-0.237,-0.237 -0.711,-0.237 -0.948,0l-2.489,2.489l-0.118,-2.845l1.54,-1.541c0.237,-0.237 0.237,-0.711 0,-0.948c-0.237,-0.237 -0.711,-0.237 -0.948,0l-0.711,0.711l-0.237,-4.266c0,-0.356 -0.355,-0.593 -0.592,-0.593c-0.238,0 -0.593,0.237 -0.593,0.593l-0.356,7.111l-2.607,-2.608c-0.237,-0.237 -0.711,-0.237 -0.948,0c-0.237,0.237 -0.237,0.712 0,0.949l3.437,3.437l-0.356,6.4c-4.385,-0.711 -7.585,-4.504 -7.585,-8.889c0,-3.793 1.067,-8.771 2.726,-12.682c1.896,-4.266 4.148,-6.755 6.282,-6.755c2.133,0 4.385,2.489 6.281,6.755c1.659,3.911 2.726,8.889 2.726,12.682c-0.119,2.015 -0.948,4.266 -2.37,5.926Z" style="fill:#b2b2b2;fill-rule:nonzero;"/><path d="M138.074,36.869c-2.133,-4.859 -4.741,-7.467 -7.467,-7.467c-2.726,0 -5.333,2.608 -7.466,7.467c-1.778,4.148 -2.845,9.126 -2.845,13.156c0,5.096 3.793,9.481 8.771,10.192l-0.474,7.823l-0.712,0c-0.355,0 -0.592,0.237 -0.592,0.592c0,0.356 0.237,0.593 0.592,0.593l5.571,0c0.355,0 0.592,-0.237 0.592,-0.593c0,-0.355 -0.237,-0.592 -0.592,-0.592l-0.711,0l-0.474,-7.823c2.37,-0.355 4.503,-1.54 6.044,-3.318c1.778,-1.897 2.726,-4.385 2.726,-6.874c-0.118,-4.03 -1.185,-9.008 -2.963,-13.156Zm-8.178,31.171l0.711,-12.563l0.712,12.563l-1.423,0Zm7.467,-11.852c-1.422,1.54 -3.2,2.489 -5.215,2.844l-0.237,-4.385l3.319,-3.319c0.237,-0.237 0.237,-0.711 0,-0.948c-0.237,-0.237 -0.711,-0.237 -0.949,0l-2.488,2.489l-0.119,-2.844l1.541,-1.541c0.237,-0.237 0.237,-0.711 0,-0.948c-0.237,-0.237 -0.711,-0.237 -0.948,0l-0.711,0.711l-0.237,-4.504c0,-0.355 -0.356,-0.592 -0.593,-0.592c-0.356,0 -0.593,0.237 -0.593,0.592l-0.355,7.111l-2.608,-2.607c-0.237,-0.237 -0.711,-0.237 -0.948,0c-0.237,0.237 -0.237,0.711 0,0.948l3.437,3.437l-0.355,6.4c-4.385,-0.711 -7.585,-4.504 -7.585,-8.889c0,-3.792 1.066,-8.77 2.725,-12.681c1.897,-4.267 4.149,-6.756 6.282,-6.756c2.133,0 4.385,2.489 6.281,6.756c1.66,3.911 2.726,8.889 2.726,12.681c-0.118,2.134 -0.948,4.385 -2.37,6.045Z" style="fill:#b2b2b2;fill-rule:nonzero;"/><path d="M167.941,50.025c0,2.607 0.948,4.977 2.726,6.874c1.659,1.778 3.792,2.963 6.044,3.318l-0.474,7.823l-0.711,0c-0.356,0 -0.593,0.237 -0.593,0.592c0,0.356 0.237,0.593 0.593,0.593l5.57,0c0.356,0 0.593,-0.237 0.593,-0.593c0,-0.355 -0.237,-0.592 -0.593,-0.592l-0.711,0l-0.474,-7.823c4.978,-0.711 8.77,-5.096 8.77,-10.192c0,-4.03 -1.066,-9.126 -2.844,-13.156c-2.133,-4.859 -4.741,-7.467 -7.467,-7.467c-2.726,0 -5.333,2.608 -7.466,7.467c-1.778,4.148 -2.963,9.126 -2.963,13.156Zm9.718,18.015l0.711,-12.563l0.711,12.563l-1.422,0Zm-8.415,-18.015c0,-3.793 1.067,-8.771 2.726,-12.682c1.897,-4.266 4.149,-6.755 6.282,-6.755c2.133,0 4.385,2.489 6.281,6.755c1.66,3.911 2.726,8.889 2.726,12.682c0,4.385 -3.2,8.177 -7.585,8.889l-0.355,-6.4l3.437,-3.437c0.237,-0.237 0.237,-0.712 0,-0.949c-0.237,-0.237 -0.712,-0.237 -0.949,0l-2.607,2.608l-0.356,-7.111c0,-0.356 -0.355,-0.593 -0.592,-0.593c-0.356,0 -0.593,0.237 -0.593,0.593l-0.237,4.503l-0.711,-0.711c-0.237,-0.237 -0.711,-0.237 -0.948,0c-0.237,0.237 -0.237,0.711 0,0.948l1.541,1.541l-0.119,2.845l-2.489,-2.489c-0.237,-0.237 -0.711,-0.237 -0.948,0c-0.237,0.237 -0.237,0.711 0,0.948l3.319,3.318l-0.237,4.386c-2.015,-0.356 -3.793,-1.304 -5.215,-2.845c-1.541,-1.541 -2.371,-3.792 -2.371,-6.044Z" style="fill:#b2b2b2;fill-rule:nonzero;"/><path d="M233.481,36.869c-2.133,-4.859 -4.74,-7.467 -7.466,-7.467c-2.726,0 -5.334,2.608 -7.467,7.467c-1.778,4.148 -2.844,9.126 -2.844,13.156c0,5.096 3.792,9.481 8.77,10.192l-0.474,7.823l-0.711,0c-0.356,0 -0.593,0.237 -0.593,0.592c0,0.356 0.237,0.593 0.593,0.593l5.57,0c0.356,0 0.593,-0.237 0.593,-0.593c0,-0.355 -0.237,-0.592 -0.593,-0.592l-0.711,0l-0.474,-7.823c2.37,-0.355 4.504,-1.54 6.045,-3.318c1.777,-1.897 2.725,-4.385 2.725,-6.874c-0.118,-4.03 -1.185,-9.008 -2.963,-13.156Zm-8.177,31.171l0.711,-12.563l0.711,12.563l-1.422,0Zm7.466,-11.852c-1.422,1.54 -3.2,2.489 -5.214,2.844l-0.237,-4.385l3.318,-3.319c0.237,-0.237 0.237,-0.711 0,-0.948c-0.237,-0.237 -0.711,-0.237 -0.948,0l-2.489,2.489l-0.119,-2.844l1.541,-1.541c0.237,-0.237 0.237,-0.711 0,-0.948c-0.237,-0.237 -0.711,-0.237 -0.948,0l-0.711,0.711l-0.237,-4.504c0,-0.355 -0.356,-0.592 -0.593,-0.592c-0.237,0 -0.592,0.237 -0.592,0.592l-0.356,7.111l-2.607,-2.607c-0.237,-0.237 -0.711,-0.237 -0.948,0c-0.237,0.237 -0.237,0.711 0,0.948l3.437,3.437l-0.356,6.4c-4.385,-0.711 -7.585,-4.504 -7.585,-8.889c0,-3.792 1.067,-8.77 2.726,-12.681c1.896,-4.267 4.148,-6.756 6.281,-6.756c2.134,0 4.386,2.489 6.282,6.756c1.659,3.911 2.726,8.889 2.726,12.681c-0.119,2.134 -0.948,4.385 -2.371,6.045Z" style="fill:#b2b2b2;fill-rule:nonzero;"/><path d="M72.533,50.025c0,2.607 0.948,4.977 2.726,6.874c1.66,1.778 3.793,2.963 6.045,3.318l-0.474,7.823l-0.711,0c-0.356,0 -0.593,0.237 -0.593,0.592c0,0.356 0.237,0.593 0.593,0.593l5.57,0c0.355,0 0.592,-0.237 0.592,-0.593c0,-0.355 -0.237,-0.592 -0.592,-0.592l-0.711,0l-0.474,-7.823c4.977,-0.711 8.77,-5.096 8.77,-10.192c0,-4.03 -1.067,-9.126 -2.844,-13.156c-2.134,-4.859 -4.741,-7.467 -7.467,-7.467c-2.726,0 -5.333,2.608 -7.467,7.467c-1.777,4.148 -2.963,9.126 -2.963,13.156Zm9.719,18.015l0.711,-12.445l0.711,12.563l-1.422,-0.118Zm-8.415,-18.015c0,-3.793 1.067,-8.771 2.726,-12.682c1.896,-4.266 4.148,-6.755 6.281,-6.755c2.134,0 4.386,2.489 6.282,6.755c1.659,3.911 2.726,8.889 2.726,12.682c0,4.385 -3.2,8.177 -7.585,8.889l-0.356,-6.4l3.437,-3.437c0.237,-0.237 0.237,-0.712 0,-0.949c-0.237,-0.237 -0.711,-0.237 -0.948,0l-2.607,2.608l-0.356,-7.111c0,-0.356 -0.356,-0.593 -0.593,-0.593c-0.355,0 -0.592,0.237 -0.592,0.593l-0.237,4.503l-0.711,-0.711c-0.237,-0.237 -0.711,-0.237 -0.948,0c-0.237,0.237 -0.237,0.711 0,0.948l1.54,1.541l-0.118,2.963l-2.489,-2.489c-0.237,-0.237 -0.711,-0.237 -0.948,0c-0.237,0.237 -0.237,0.711 0,0.948l3.318,3.319l-0.237,4.385c-2.015,-0.355 -3.792,-1.304 -5.215,-2.844c-1.54,-1.66 -2.37,-3.911 -2.37,-6.163Z" style="fill:#b2b2b2;fill-rule:nonzero;"/></g><g><path d="M238.459,138.114c0,2.607 0.948,4.977 2.726,6.874c1.659,1.777 3.793,2.963 6.045,3.318l-0.474,7.822l-0.712,0c-0.355,0 -0.592,0.237 -0.592,0.593c0,0.356 0.237,0.593 0.592,0.593l5.571,0c0.355,0 0.592,-0.237 0.592,-0.593c0,-0.356 -0.237,-0.593 -0.592,-0.593l-0.711,0l-0.474,-7.822c4.977,-0.711 8.77,-5.096 8.77,-10.192c0,-4.03 -1.067,-9.126 -2.844,-13.156c-2.134,-4.859 -4.741,-7.467 -7.467,-7.467c-2.726,0 -5.333,2.608 -7.467,7.467c-1.778,4.03 -2.963,9.126 -2.963,13.156Zm9.719,18.014l0.711,-12.563l0.711,12.563l-1.422,0Zm-8.415,-18.014c0,-3.793 1.067,-8.771 2.726,-12.682c1.896,-4.267 4.148,-6.755 6.281,-6.755c2.134,0 4.386,2.488 6.282,6.755c1.659,3.911 2.726,8.889 2.726,12.682c0,4.385 -3.2,8.177 -7.585,8.888l-0.356,-6.4l3.437,-3.437c0.237,-0.237 0.237,-0.711 0,-0.948c-0.237,-0.237 -0.711,-0.237 -0.948,0l-2.607,2.608l-0.356,-7.111c0,-0.356 -0.356,-0.593 -0.593,-0.593c-0.355,0 -0.592,0.237 -0.592,0.593l-0.237,4.503l-0.711,-0.711c-0.237,-0.237 -0.711,-0.237 -0.949,0c-0.237,0.237 -0.237,0.711 0,0.948l1.541,1.541l-0.118,2.845l-2.489,-2.489c-0.237,-0.237 -0.711,-0.237 -0.948,0c-0.237,0.237 -0.237,0.711 0,0.948l3.318,3.318l-0.237,4.385c-2.015,-0.355 -3.792,-1.303 -5.215,-2.844c-1.54,-1.659 -2.37,-3.793 -2.37,-6.044Z" style="fill:#b2b2b2;fill-rule:nonzero;"/><path d="M113.185,124.84c-2.133,-4.86 -4.741,-7.467 -7.466,-7.467c-2.726,0 -5.334,2.607 -7.467,7.467c-1.778,4.148 -2.845,9.125 -2.845,13.155c0,5.096 3.793,9.482 8.771,10.193l-0.474,7.822l-0.711,0c-0.356,0 -0.593,0.237 -0.593,0.592c0,0.356 0.237,0.593 0.593,0.593l5.57,0c0.356,0 0.593,-0.237 0.593,-0.593c0,-0.355 -0.237,-0.592 -0.593,-0.592l-0.711,0l-0.474,-7.822c2.37,-0.356 4.503,-1.541 6.044,-3.319c1.778,-1.896 2.726,-4.385 2.726,-6.874c-0.118,-3.911 -1.185,-9.007 -2.963,-13.155Zm-8.178,31.288l0.712,-12.563l0.711,12.563l-1.423,0Zm7.467,-11.97c-1.422,1.541 -3.2,2.489 -5.215,2.844l-0.237,-4.385l3.319,-3.318c0.237,-0.237 0.237,-0.711 0,-0.948c-0.237,-0.237 -0.711,-0.237 -0.948,0l-2.489,2.489l-0.237,-2.845l1.54,-1.541c0.237,-0.237 0.237,-0.711 0,-0.948c-0.237,-0.237 -0.711,-0.237 -0.948,0l-0.592,0.711l-0.237,-4.503c0,-0.356 -0.356,-0.593 -0.593,-0.593c-0.356,0 -0.593,0.237 -0.593,0.593l-0.355,7.111l-2.608,-2.608c-0.237,-0.237 -0.711,-0.237 -0.948,0c-0.237,0.237 -0.237,0.711 0,0.948l3.437,3.437l-0.474,6.4c-4.385,-0.711 -7.585,-4.503 -7.585,-8.888c0,-3.793 1.067,-8.771 2.726,-12.682c1.896,-4.267 4.148,-6.755 6.282,-6.755c2.133,0 4.385,2.488 6.281,6.755c1.659,3.911 2.726,8.889 2.726,12.682c0,2.251 -0.83,4.385 -2.252,6.044Z" style="fill:#b2b2b2;fill-rule:nonzero;"/><path d="M143.052,138.114c0,2.607 0.948,4.977 2.726,6.874c1.659,1.777 3.792,2.963 6.044,3.318l-0.474,7.822l-0.711,0c-0.356,0 -0.593,0.237 -0.593,0.593c0,0.356 0.237,0.593 0.593,0.593l5.57,0c0.356,0 0.593,-0.237 0.593,-0.593c0,-0.356 -0.237,-0.593 -0.593,-0.593l-0.711,0l-0.474,-7.822c4.978,-0.711 8.771,-5.096 8.771,-10.192c0,-4.03 -1.067,-9.126 -2.845,-13.156c-2.133,-4.859 -4.741,-7.467 -7.467,-7.467c-2.725,0 -5.333,2.608 -7.466,7.467c-1.778,4.03 -2.963,9.126 -2.963,13.156Zm9.718,18.014l0.711,-12.563l0.712,12.563l-1.423,0Zm-8.414,-18.014c0,-3.793 1.066,-8.771 2.725,-12.682c1.897,-4.267 4.149,-6.755 6.282,-6.755c2.133,0 4.385,2.488 6.281,6.755c1.66,3.911 2.726,8.889 2.726,12.682c0,4.385 -3.2,8.177 -7.585,8.888l-0.355,-6.4l3.437,-3.437c0.237,-0.237 0.237,-0.711 0,-0.948c-0.237,-0.237 -0.711,-0.237 -0.948,0l-2.608,2.608l-0.355,-7.111c0,-0.356 -0.356,-0.593 -0.593,-0.593c-0.356,0 -0.593,0.237 -0.593,0.593l-0.237,4.503l-0.711,-0.711c-0.237,-0.237 -0.711,-0.237 -0.948,0c-0.237,0.237 -0.237,0.711 0,0.948l1.541,1.541l-0.119,2.845l-2.489,-2.489c-0.237,-0.237 -0.711,-0.237 -0.948,0c-0.237,0.237 -0.237,0.711 0,0.948l3.319,3.318l-0.237,4.385c-2.015,-0.355 -3.793,-1.303 -5.215,-2.844c-1.541,-1.659 -2.37,-3.793 -2.37,-6.044Z" style="fill:#b2b2b2;fill-rule:nonzero;"/><path d="M208.593,124.84c-2.134,-4.86 -4.741,-7.467 -7.467,-7.467c-2.726,0 -5.333,2.607 -7.467,7.467c-1.778,4.148 -2.844,9.125 -2.844,13.155c0,5.096 3.792,9.482 8.77,10.193l-0.474,7.822l-0.711,0c-0.356,0 -0.593,0.237 -0.593,0.592c0,0.356 0.237,0.593 0.593,0.593l5.57,0c0.356,0 0.593,-0.237 0.593,-0.593c0,-0.355 -0.237,-0.592 -0.593,-0.592l-0.711,0l-0.474,-7.822c2.371,-0.356 4.504,-1.541 6.045,-3.319c1.777,-1.896 2.726,-4.385 2.726,-6.874c-0.119,-3.911 -1.186,-9.007 -2.963,-13.155Zm-8.178,31.288l0.711,-12.563l0.711,12.563l-1.422,0Zm7.466,-11.97c-1.422,1.541 -3.2,2.489 -5.214,2.844l-0.237,-4.385l3.318,-3.318c0.237,-0.237 0.237,-0.711 0,-0.948c-0.237,-0.237 -0.711,-0.237 -0.948,0l-2.489,2.489l-0.118,-2.845l1.54,-1.541c0.237,-0.237 0.237,-0.711 0,-0.948c-0.237,-0.237 -0.711,-0.237 -0.948,0l-0.711,0.711l-0.237,-4.503c0,-0.356 -0.356,-0.593 -0.593,-0.593c-0.237,0 -0.592,0.237 -0.592,0.593l-0.356,7.111l-2.607,-2.608c-0.237,-0.237 -0.711,-0.237 -0.948,0c-0.237,0.237 -0.237,0.711 0,0.948l3.437,3.437l-0.356,6.4c-4.385,-0.711 -7.585,-4.503 -7.585,-8.888c0,-3.793 1.067,-8.771 2.726,-12.682c1.896,-4.267 4.148,-6.755 6.281,-6.755c2.134,0 4.386,2.488 6.282,6.755c1.659,3.911 2.726,8.889 2.726,12.682c-0.119,2.251 -0.948,4.385 -2.371,6.044Z" style="fill:#b2b2b2;fill-rule:nonzero;"/><path d="M47.644,138.114c0,2.607 0.949,4.977 2.726,6.874c1.66,1.777 3.793,2.963 6.045,3.318l-0.474,7.822l-0.711,0c-0.356,0 -0.593,0.237 -0.593,0.593c0,0.356 0.237,0.593 0.593,0.593l5.57,0c0.356,0 0.593,-0.237 0.593,-0.593c0,-0.356 -0.237,-0.593 -0.593,-0.593l-0.711,0l-0.474,-7.822c4.978,-0.711 8.77,-5.096 8.77,-10.192c0,-4.03 -1.066,-9.126 -2.844,-13.156c-2.134,-4.978 -4.86,-7.585 -7.467,-7.585c-2.726,0 -5.333,2.607 -7.467,7.467c-1.777,4.148 -2.963,9.244 -2.963,13.274Zm9.719,18.014l0.711,-12.563l0.711,12.563l-1.422,0Zm-8.415,-18.014c0,-3.793 1.067,-8.771 2.726,-12.682c1.896,-4.267 4.148,-6.755 6.282,-6.755c2.133,0 4.385,2.488 6.281,6.755c1.659,3.911 2.726,8.889 2.726,12.682c0,4.385 -3.2,8.177 -7.585,8.888l-0.356,-6.4l3.437,-3.437c0.237,-0.237 0.237,-0.711 0,-0.948c-0.237,-0.237 -0.711,-0.237 -0.948,0l-2.607,2.608l-0.356,-7.111c0,-0.356 -0.355,-0.593 -0.592,-0.593c-0.237,0 -0.593,0.237 -0.593,0.593l-0.237,4.503l-0.711,-0.711c-0.237,-0.237 -0.711,-0.237 -0.948,0c-0.237,0.237 -0.237,0.711 0,0.948l1.54,1.541l-0.118,2.845l-2.489,-2.489c-0.237,-0.237 -0.711,-0.237 -0.948,0c-0.237,0.237 -0.237,0.711 0,0.948l3.318,3.318l-0.237,4.385c-2.014,-0.355 -3.792,-1.303 -5.214,-2.844c-1.541,-1.659 -2.371,-3.793 -2.371,-6.044Z" style="fill:#b2b2b2;fill-rule:nonzero;"/><path d="M17.778,124.84c-2.134,-4.86 -4.741,-7.467 -7.467,-7.467c-2.726,0 -5.333,2.607 -7.467,7.467c-1.777,4.148 -2.844,9.244 -2.844,13.274c0,5.096 3.793,9.481 8.77,10.192l-0.474,7.822l-0.711,0c-0.355,0 -0.592,0.237 -0.592,0.593c0,0.356 0.237,0.593 0.592,0.593l5.452,0c0.356,0 0.593,-0.237 0.593,-0.593c0,-0.356 -0.237,-0.593 -0.593,-0.593l-0.711,0l-0.474,-7.822c2.37,-0.355 4.504,-1.541 6.044,-3.318c1.778,-1.897 2.726,-4.386 2.726,-6.874c0,-4.03 -1.066,-9.126 -2.844,-13.274Zm-8.178,31.288l0.711,-12.563l0.711,12.563l-1.422,0Zm7.467,-11.97c-1.423,1.541 -3.2,2.489 -5.215,2.844l-0.237,-4.385l3.318,-3.318c0.237,-0.237 0.237,-0.711 0,-0.948c-0.237,-0.237 -0.711,-0.237 -0.948,0l-2.489,2.489l-0.118,-2.845l1.541,-1.541c0.237,-0.237 0.237,-0.711 0,-0.948c-0.238,-0.237 -0.712,-0.237 -0.949,0l-0.711,0.711l-0.237,-4.503c0,-0.356 -0.355,-0.593 -0.592,-0.593c-0.356,0 -0.593,0.237 -0.593,0.593l-0.356,7.111l-2.607,-2.608c-0.237,-0.237 -0.711,-0.237 -0.948,0c-0.237,0.237 -0.237,0.711 0,0.948l3.437,3.437l-0.474,6.4c-4.385,-0.711 -7.585,-4.503 -7.585,-8.888c0,-3.793 1.066,-8.771 2.726,-12.682c1.896,-4.267 4.148,-6.755 6.281,-6.755c2.133,0 4.385,2.488 6.282,6.755c1.659,3.911 2.726,8.889 2.726,12.682c0,2.251 -0.83,4.385 -2.252,6.044Z" style="fill:#b2b2b2;fill-rule:nonzero;"/></g><g><path d="M238.459,196.8c0,2.607 0.948,4.978 2.726,6.874c1.659,1.778 3.793,2.963 6.045,3.319l-0.474,7.822l-0.712,0c-0.355,0 -0.592,0.237 -0.592,0.592c0,0.356 0.237,0.593 0.592,0.593l5.571,0c0.355,0 0.592,-0.237 0.592,-0.593c0,-0.355 -0.237,-0.592 -0.592,-0.592l-0.711,0l-0.474,-7.822c4.977,-0.712 8.77,-5.097 8.77,-10.193c0,-4.03 -1.067,-9.126 -2.844,-13.156c-2.134,-4.859 -4.741,-7.466 -7.467,-7.466c-2.726,0 -5.333,2.607 -7.467,7.466c-1.778,4.03 -2.963,9.126 -2.963,13.156Zm9.719,18.015l0.711,-12.563l0.711,12.563l-1.422,0Zm-8.415,-18.015c0,-3.793 1.067,-8.77 2.726,-12.681c1.896,-4.267 4.148,-6.756 6.281,-6.756c2.134,0 4.386,2.489 6.282,6.756c1.659,3.911 2.726,8.888 2.726,12.681c0,4.385 -3.2,8.178 -7.585,8.889l-0.356,-6.4l3.437,-3.437c0.237,-0.237 0.237,-0.711 0,-0.948c-0.237,-0.237 -0.711,-0.237 -0.948,0l-2.607,2.607l-0.356,-7.111c0,-0.356 -0.356,-0.593 -0.593,-0.593c-0.355,0 -0.592,0.237 -0.592,0.593l-0.237,4.504l-0.711,-0.711c-0.237,-0.237 -0.711,-0.237 -0.949,0c-0.237,0.237 -0.237,0.711 0,0.948l1.541,1.54l-0.118,2.845l-2.489,-2.489c-0.237,-0.237 -0.711,-0.237 -0.948,0c-0.237,0.237 -0.237,0.711 0,0.948l3.318,3.319l-0.237,4.385c-2.015,-0.356 -3.792,-1.304 -5.215,-2.845c-1.54,-1.659 -2.37,-3.792 -2.37,-6.044Z" style="fill:#b2b2b2;fill-rule:nonzero;"/><path d="M113.185,183.526c-2.133,-4.859 -4.741,-7.467 -7.466,-7.467c-2.726,0 -5.334,2.608 -7.467,7.467c-1.778,4.148 -2.845,9.126 -2.845,13.155c0,5.097 3.793,9.482 8.771,10.193l-0.474,7.822l-0.711,0c-0.356,0 -0.593,0.237 -0.593,0.593c0,0.355 0.237,0.592 0.593,0.592l5.57,0c0.356,0 0.593,-0.237 0.593,-0.592c0,-0.356 -0.237,-0.593 -0.593,-0.593l-0.711,0l-0.474,-7.822c2.37,-0.355 4.503,-1.541 6.044,-3.318c1.778,-1.897 2.726,-4.386 2.726,-6.875c-0.118,-3.911 -1.185,-9.007 -2.963,-13.155Zm-8.178,31.289l0.712,-12.563l0.711,12.563l-1.423,0Zm7.467,-11.971c-1.422,1.541 -3.2,2.489 -5.215,2.845l-0.237,-4.385l3.319,-3.319c0.237,-0.237 0.237,-0.711 0,-0.948c-0.237,-0.237 -0.711,-0.237 -0.948,0l-2.489,2.489l-0.237,-2.845l1.54,-1.54c0.237,-0.237 0.237,-0.711 0,-0.948c-0.237,-0.237 -0.711,-0.237 -0.948,0l-0.592,0.711l-0.237,-4.504c0,-0.356 -0.356,-0.593 -0.593,-0.593c-0.356,0 -0.593,0.237 -0.593,0.593l-0.355,7.111l-2.608,-2.607c-0.237,-0.237 -0.711,-0.237 -0.948,0c-0.237,0.237 -0.237,0.711 0,0.948l3.437,3.437l-0.474,6.4c-4.385,-0.711 -7.585,-4.504 -7.585,-8.889c0,-3.793 1.067,-8.77 2.726,-12.681c1.896,-4.267 4.148,-6.756 6.282,-6.756c2.133,0 4.385,2.489 6.281,6.756c1.659,3.911 2.726,8.888 2.726,12.681c0,2.252 -0.83,4.385 -2.252,6.044Z" style="fill:#b2b2b2;fill-rule:nonzero;"/><path d="M143.052,196.8c0,2.607 0.948,4.978 2.726,6.874c1.659,1.778 3.792,2.963 6.044,3.319l-0.474,7.822l-0.711,0c-0.356,0 -0.593,0.237 -0.593,0.592c0,0.356 0.237,0.593 0.593,0.593l5.57,0c0.356,0 0.593,-0.237 0.593,-0.593c0,-0.355 -0.237,-0.592 -0.593,-0.592l-0.711,0l-0.474,-7.822c4.978,-0.712 8.771,-5.097 8.771,-10.193c0,-4.03 -1.067,-9.126 -2.845,-13.156c-2.133,-4.859 -4.741,-7.466 -7.467,-7.466c-2.725,0 -5.333,2.607 -7.466,7.466c-1.778,4.03 -2.963,9.126 -2.963,13.156Zm9.718,18.015l0.711,-12.563l0.712,12.563l-1.423,0Zm-8.414,-18.015c0,-3.793 1.066,-8.77 2.725,-12.681c1.897,-4.267 4.149,-6.756 6.282,-6.756c2.133,0 4.385,2.489 6.281,6.756c1.66,3.911 2.726,8.888 2.726,12.681c0,4.385 -3.2,8.178 -7.585,8.889l-0.355,-6.4l3.437,-3.437c0.237,-0.237 0.237,-0.711 0,-0.948c-0.237,-0.237 -0.711,-0.237 -0.948,0l-2.608,2.607l-0.355,-7.111c0,-0.356 -0.356,-0.593 -0.593,-0.593c-0.356,0 -0.593,0.237 -0.593,0.593l-0.237,4.504l-0.711,-0.711c-0.237,-0.237 -0.711,-0.237 -0.948,0c-0.237,0.237 -0.237,0.711 0,0.948l1.541,1.54l-0.119,2.845l-2.489,-2.489c-0.237,-0.237 -0.711,-0.237 -0.948,0c-0.237,0.237 -0.237,0.711 0,0.948l3.319,3.319l-0.237,4.385c-2.015,-0.356 -3.793,-1.304 -5.215,-2.845c-1.541,-1.659 -2.37,-3.792 -2.37,-6.044Z" style="fill:#b2b2b2;fill-rule:nonzero;"/><path d="M208.593,183.526c-2.134,-4.859 -4.741,-7.467 -7.467,-7.467c-2.726,0 -5.333,2.608 -7.467,7.467c-1.778,4.148 -2.844,9.126 -2.844,13.155c0,5.097 3.792,9.482 8.77,10.193l-0.474,7.822l-0.711,0c-0.356,0 -0.593,0.237 -0.593,0.593c0,0.355 0.237,0.592 0.593,0.592l5.57,0c0.356,0 0.593,-0.237 0.593,-0.592c0,-0.356 -0.237,-0.593 -0.593,-0.593l-0.711,0l-0.474,-7.822c2.371,-0.355 4.504,-1.541 6.045,-3.318c1.777,-1.897 2.726,-4.386 2.726,-6.875c-0.119,-3.911 -1.186,-9.007 -2.963,-13.155Zm-8.178,31.289l0.711,-12.563l0.711,12.563l-1.422,0Zm7.466,-11.971c-1.422,1.541 -3.2,2.489 -5.214,2.845l-0.237,-4.385l3.318,-3.319c0.237,-0.237 0.237,-0.711 0,-0.948c-0.237,-0.237 -0.711,-0.237 -0.948,0l-2.489,2.489l-0.118,-2.845l1.54,-1.54c0.237,-0.237 0.237,-0.711 0,-0.948c-0.237,-0.237 -0.711,-0.237 -0.948,0l-0.711,0.711l-0.237,-4.504c0,-0.356 -0.356,-0.593 -0.593,-0.593c-0.237,0 -0.592,0.237 -0.592,0.593l-0.356,7.111l-2.607,-2.607c-0.237,-0.237 -0.711,-0.237 -0.948,0c-0.237,0.237 -0.237,0.711 0,0.948l3.437,3.437l-0.356,6.4c-4.385,-0.711 -7.585,-4.504 -7.585,-8.889c0,-3.793 1.067,-8.77 2.726,-12.681c1.896,-4.267 4.148,-6.756 6.281,-6.756c2.134,0 4.386,2.489 6.282,6.756c1.659,3.911 2.726,8.888 2.726,12.681c-0.119,2.252 -0.948,4.385 -2.371,6.044Z" style="fill:#b2b2b2;fill-rule:nonzero;"/><path d="M47.644,196.8c0,2.607 0.949,4.978 2.726,6.874c1.66,1.778 3.793,2.963 6.045,3.319l-0.474,7.822l-0.711,0c-0.356,0 -0.593,0.237 -0.593,0.592c0,0.356 0.237,0.593 0.593,0.593l5.57,0c0.356,0 0.593,-0.237 0.593,-0.593c0,-0.355 -0.237,-0.592 -0.593,-0.592l-0.711,0l-0.474,-7.822c4.978,-0.712 8.77,-5.097 8.77,-10.193c0,-4.03 -1.066,-9.126 -2.844,-13.156c-2.134,-4.977 -4.86,-7.585 -7.467,-7.585c-2.726,0 -5.333,2.608 -7.467,7.467c-1.777,4.148 -2.963,9.244 -2.963,13.274Zm9.719,18.015l0.711,-12.563l0.711,12.563l-1.422,0Zm-8.415,-18.015c0,-3.793 1.067,-8.77 2.726,-12.681c1.896,-4.267 4.148,-6.756 6.282,-6.756c2.133,0 4.385,2.489 6.281,6.756c1.659,3.911 2.726,8.888 2.726,12.681c0,4.385 -3.2,8.178 -7.585,8.889l-0.356,-6.4l3.437,-3.437c0.237,-0.237 0.237,-0.711 0,-0.948c-0.237,-0.237 -0.711,-0.237 -0.948,0l-2.607,2.607l-0.356,-7.111c0,-0.356 -0.355,-0.593 -0.592,-0.593c-0.237,0 -0.593,0.237 -0.593,0.593l-0.237,4.504l-0.711,-0.711c-0.237,-0.237 -0.711,-0.237 -0.948,0c-0.237,0.237 -0.237,0.711 0,0.948l1.54,1.54l-0.118,2.845l-2.489,-2.489c-0.237,-0.237 -0.711,-0.237 -0.948,0c-0.237,0.237 -0.237,0.711 0,0.948l3.318,3.319l-0.237,4.385c-2.014,-0.356 -3.792,-1.304 -5.214,-2.845c-1.541,-1.659 -2.371,-3.792 -2.371,-6.044Z" style="fill:#b2b2b2;fill-rule:nonzero;"/><path d="M17.778,183.526c-2.134,-4.859 -4.741,-7.467 -7.467,-7.467c-2.726,0 -5.333,2.608 -7.467,7.467c-1.777,4.148 -2.844,9.244 -2.844,13.274c0,5.096 3.793,9.481 8.77,10.193l-0.474,7.822l-0.711,0c-0.355,0 -0.592,0.237 -0.592,0.592c0,0.356 0.237,0.593 0.592,0.593l5.452,0c0.356,0 0.593,-0.237 0.593,-0.593c0,-0.355 -0.237,-0.592 -0.593,-0.592l-0.711,0l-0.474,-7.822c2.37,-0.356 4.504,-1.541 6.044,-3.319c1.778,-1.896 2.726,-4.385 2.726,-6.874c0,-4.03 -1.066,-9.126 -2.844,-13.274Zm-8.178,31.289l0.711,-12.563l0.711,12.563l-1.422,0Zm7.467,-11.971c-1.423,1.541 -3.2,2.489 -5.215,2.845l-0.237,-4.385l3.318,-3.319c0.237,-0.237 0.237,-0.711 0,-0.948c-0.237,-0.237 -0.711,-0.237 -0.948,0l-2.489,2.489l-0.118,-2.845l1.541,-1.54c0.237,-0.237 0.237,-0.711 0,-0.948c-0.238,-0.237 -0.712,-0.237 -0.949,0l-0.711,0.711l-0.237,-4.504c0,-0.356 -0.355,-0.593 -0.592,-0.593c-0.356,0 -0.593,0.237 -0.593,0.593l-0.356,7.111l-2.607,-2.607c-0.237,-0.237 -0.711,-0.237 -0.948,0c-0.237,0.237 -0.237,0.711 0,0.948l3.437,3.437l-0.474,6.4c-4.385,-0.711 -7.585,-4.504 -7.585,-8.889c0,-3.793 1.066,-8.77 2.726,-12.681c1.896,-4.267 4.148,-6.756 6.281,-6.756c2.133,0 4.385,2.489 6.282,6.756c1.659,3.911 2.726,8.888 2.726,12.681c0,2.252 -0.83,4.385 -2.252,6.044Z" style="fill:#b2b2b2;fill-rule:nonzero;"/></g><g><path d="M42.667,154.242c-2.134,-4.859 -4.741,-7.467 -7.467,-7.467c-2.726,0 -5.333,2.608 -7.467,7.467c-1.777,4.148 -2.844,9.126 -2.844,13.156c0,5.096 3.792,9.481 8.77,10.192l-0.474,7.822l-0.711,0c-0.355,0 -0.593,0.237 -0.593,0.593c0,0.355 0.238,0.593 0.593,0.593l5.452,0c0.355,0 0.593,-0.238 0.593,-0.593c0,-0.356 -0.238,-0.593 -0.593,-0.593l-0.711,0l-0.474,-7.703c2.37,-0.356 4.503,-1.541 6.044,-3.319c1.778,-1.896 2.726,-4.385 2.726,-6.874c0,-4.148 -1.067,-9.126 -2.844,-13.274Zm-8.178,31.17l0.711,-12.563l0.711,12.563l-1.422,0Zm7.467,-11.852c-1.423,1.541 -3.2,2.489 -5.215,2.845l-0.237,-4.504l3.318,-3.318c0.237,-0.237 0.237,-0.711 0,-0.948c-0.237,-0.237 -0.711,-0.237 -0.948,0l-2.489,2.488l-0.118,-2.844l1.54,-1.541c0.237,-0.237 0.237,-0.711 0,-0.948c-0.237,-0.237 -0.711,-0.237 -0.948,0l-0.711,0.711l-0.237,-4.266c0,-0.356 -0.355,-0.593 -0.592,-0.593c-0.238,0 -0.593,0.237 -0.593,0.593l-0.356,7.111l-2.607,-2.608c-0.237,-0.237 -0.711,-0.237 -0.948,0c-0.237,0.237 -0.237,0.711 0,0.948l3.437,3.437l-0.356,6.4c-4.385,-0.711 -7.585,-4.503 -7.585,-8.888c0,-3.793 1.067,-8.771 2.726,-12.682c1.896,-4.267 4.148,-6.755 6.282,-6.755c2.133,0 4.385,2.488 6.281,6.755c1.659,3.911 2.726,8.889 2.726,12.682c-0.119,2.014 -0.948,4.266 -2.37,5.925Z" style="fill:#b2b2b2;fill-rule:nonzero;"/><path d="M138.074,154.242c-2.133,-4.859 -4.741,-7.467 -7.467,-7.467c-2.726,0 -5.333,2.608 -7.466,7.467c-1.778,4.148 -2.845,9.126 -2.845,13.156c0,5.096 3.793,9.481 8.771,10.192l-0.474,7.822l-0.712,0c-0.355,0 -0.592,0.237 -0.592,0.593c0,0.355 0.237,0.593 0.592,0.593l5.571,0c0.355,0 0.592,-0.238 0.592,-0.593c0,-0.356 -0.237,-0.593 -0.592,-0.593l-0.711,0l-0.474,-7.822c2.37,-0.355 4.503,-1.541 6.044,-3.318c1.778,-1.897 2.726,-4.386 2.726,-6.874c-0.118,-4.03 -1.185,-9.008 -2.963,-13.156Zm-8.178,31.17l0.711,-12.563l0.712,12.563l-1.423,0Zm7.467,-11.852c-1.422,1.541 -3.2,2.489 -5.215,2.845l-0.237,-4.385l3.319,-3.319c0.237,-0.237 0.237,-0.711 0,-0.948c-0.237,-0.237 -0.711,-0.237 -0.949,0l-2.488,2.489l-0.119,-2.844l1.541,-1.541c0.237,-0.237 0.237,-0.711 0,-0.948c-0.237,-0.237 -0.711,-0.237 -0.948,0l-0.711,0.711l-0.237,-4.504c0,-0.356 -0.356,-0.593 -0.593,-0.593c-0.356,0 -0.593,0.237 -0.593,0.593l-0.355,7.111l-2.608,-2.607c-0.237,-0.237 -0.711,-0.237 -0.948,0c-0.237,0.237 -0.237,0.711 0,0.948l3.437,3.437l-0.355,6.4c-4.385,-0.711 -7.585,-4.504 -7.585,-8.889c0,-3.793 1.066,-8.77 2.725,-12.681c1.897,-4.267 4.149,-6.756 6.282,-6.756c2.133,0 4.385,2.489 6.281,6.756c1.66,3.911 2.726,8.888 2.726,12.681c-0.118,2.133 -0.948,4.385 -2.37,6.044Z" style="fill:#b2b2b2;fill-rule:nonzero;"/><path d="M167.941,167.398c0,2.607 0.948,4.977 2.726,6.874c1.659,1.777 3.792,2.963 6.044,3.318l-0.474,7.822l-0.711,0c-0.356,0 -0.593,0.237 -0.593,0.593c0,0.355 0.237,0.593 0.593,0.593l5.57,0c0.356,0 0.593,-0.238 0.593,-0.593c0,-0.356 -0.237,-0.593 -0.593,-0.593l-0.711,0l-0.474,-7.822c4.978,-0.711 8.77,-5.096 8.77,-10.192c0,-4.03 -1.066,-9.126 -2.844,-13.156c-2.133,-4.859 -4.741,-7.467 -7.467,-7.467c-2.726,0 -5.333,2.608 -7.466,7.467c-1.778,4.148 -2.963,9.126 -2.963,13.156Zm9.718,18.014l0.711,-12.563l0.711,12.563l-1.422,0Zm-8.415,-18.014c0,-3.793 1.067,-8.771 2.726,-12.682c1.897,-4.267 4.149,-6.756 6.282,-6.756c2.133,0 4.385,2.489 6.281,6.756c1.66,3.911 2.726,8.889 2.726,12.682c0,4.385 -3.2,8.177 -7.585,8.888l-0.355,-6.4l3.437,-3.437c0.237,-0.237 0.237,-0.711 0,-0.948c-0.237,-0.237 -0.712,-0.237 -0.949,0l-2.607,2.608l-0.356,-7.111c0,-0.356 -0.355,-0.593 -0.592,-0.593c-0.356,0 -0.593,0.237 -0.593,0.593l-0.237,4.503l-0.711,-0.711c-0.237,-0.237 -0.711,-0.237 -0.948,0c-0.237,0.237 -0.237,0.711 0,0.948l1.541,1.541l-0.119,2.844l-2.489,-2.488c-0.237,-0.237 -0.711,-0.237 -0.948,0c-0.237,0.237 -0.237,0.711 0,0.948l3.319,3.318l-0.237,4.385c-2.015,-0.355 -3.793,-1.303 -5.215,-2.844c-1.541,-1.541 -2.371,-3.793 -2.371,-6.044Z" style="fill:#b2b2b2;fill-rule:nonzero;"/><path d="M233.481,154.242c-2.133,-4.859 -4.74,-7.467 -7.466,-7.467c-2.726,0 -5.334,2.608 -7.467,7.467c-1.778,4.148 -2.844,9.126 -2.844,13.156c0,5.096 3.792,9.481 8.77,10.192l-0.474,7.822l-0.711,0c-0.356,0 -0.593,0.237 -0.593,0.593c0,0.355 0.237,0.593 0.593,0.593l5.57,0c0.356,0 0.593,-0.238 0.593,-0.593c0,-0.356 -0.237,-0.593 -0.593,-0.593l-0.711,0l-0.474,-7.822c2.37,-0.355 4.504,-1.541 6.045,-3.318c1.777,-1.897 2.725,-4.386 2.725,-6.874c-0.118,-4.03 -1.185,-9.008 -2.963,-13.156Zm-8.177,31.17l0.711,-12.563l0.711,12.563l-1.422,0Zm7.466,-11.852c-1.422,1.541 -3.2,2.489 -5.214,2.845l-0.237,-4.385l3.318,-3.319c0.237,-0.237 0.237,-0.711 0,-0.948c-0.237,-0.237 -0.711,-0.237 -0.948,0l-2.489,2.489l-0.119,-2.844l1.541,-1.541c0.237,-0.237 0.237,-0.711 0,-0.948c-0.237,-0.237 -0.711,-0.237 -0.948,0l-0.711,0.711l-0.237,-4.504c0,-0.356 -0.356,-0.593 -0.593,-0.593c-0.237,0 -0.592,0.237 -0.592,0.593l-0.356,7.111l-2.607,-2.607c-0.237,-0.237 -0.711,-0.237 -0.948,0c-0.237,0.237 -0.237,0.711 0,0.948l3.437,3.437l-0.356,6.4c-4.385,-0.711 -7.585,-4.504 -7.585,-8.889c0,-3.793 1.067,-8.77 2.726,-12.681c1.896,-4.267 4.148,-6.756 6.281,-6.756c2.134,0 4.386,2.489 6.282,6.756c1.659,3.911 2.726,8.888 2.726,12.681c-0.119,2.133 -0.948,4.385 -2.371,6.044Z" style="fill:#b2b2b2;fill-rule:nonzero;"/><path d="M72.533,167.398c0,2.607 0.948,4.977 2.726,6.874c1.66,1.777 3.793,2.963 6.045,3.318l-0.474,7.822l-0.711,0c-0.356,0 -0.593,0.237 -0.593,0.593c0,0.355 0.237,0.593 0.593,0.593l5.57,0c0.355,0 0.592,-0.238 0.592,-0.593c0,-0.356 -0.237,-0.593 -0.592,-0.593l-0.711,0l-0.474,-7.822c4.977,-0.711 8.77,-5.096 8.77,-10.192c0,-4.03 -1.067,-9.126 -2.844,-13.156c-2.134,-4.859 -4.741,-7.467 -7.467,-7.467c-2.726,0 -5.333,2.608 -7.467,7.467c-1.777,4.148 -2.963,9.126 -2.963,13.156Zm9.719,18.014l0.711,-12.444l0.711,12.563l-1.422,-0.119Zm-8.415,-18.014c0,-3.793 1.067,-8.771 2.726,-12.682c1.896,-4.267 4.148,-6.756 6.281,-6.756c2.134,0 4.386,2.489 6.282,6.756c1.659,3.911 2.726,8.889 2.726,12.682c0,4.385 -3.2,8.177 -7.585,8.888l-0.356,-6.4l3.437,-3.437c0.237,-0.237 0.237,-0.711 0,-0.948c-0.237,-0.237 -0.711,-0.237 -0.948,0l-2.607,2.608l-0.356,-7.111c0,-0.356 -0.356,-0.593 -0.593,-0.593c-0.355,0 -0.592,0.237 -0.592,0.593l-0.237,4.503l-0.711,-0.711c-0.237,-0.237 -0.711,-0.237 -0.948,0c-0.237,0.237 -0.237,0.711 0,0.948l1.54,1.541l-0.118,2.963l-2.489,-2.489c-0.237,-0.237 -0.711,-0.237 -0.948,0c-0.237,0.237 -0.237,0.711 0,0.948l3.318,3.319l-0.237,4.385c-2.015,-0.356 -3.792,-1.304 -5.215,-2.845c-1.54,-1.659 -2.37,-3.911 -2.37,-6.162Z" style="fill:#b2b2b2;fill-rule:nonzero;"/></g><g><path d="M238.459,79.427c0,2.608 0.948,4.978 2.726,6.874c1.659,1.778 3.793,2.963 6.045,3.319l-0.474,7.822l-0.712,0c-0.355,0 -0.592,0.237 -0.592,0.593c0,0.355 0.237,0.592 0.592,0.592l5.571,0c0.355,0 0.592,-0.237 0.592,-0.592c0,-0.356 -0.237,-0.593 -0.592,-0.593l-0.711,0l-0.474,-7.822c4.977,-0.711 8.77,-5.097 8.77,-10.193c0,-4.029 -1.067,-9.126 -2.844,-13.155c-2.134,-4.86 -4.741,-7.467 -7.467,-7.467c-2.726,0 -5.333,2.607 -7.467,7.467c-1.778,4.029 -2.963,9.126 -2.963,13.155Zm9.719,18.015l0.711,-12.563l0.711,12.563l-1.422,0Zm-8.415,-18.015c0,-3.792 1.067,-8.77 2.726,-12.681c1.896,-4.267 4.148,-6.756 6.281,-6.756c2.134,0 4.386,2.489 6.282,6.756c1.659,3.911 2.726,8.889 2.726,12.681c0,4.385 -3.2,8.178 -7.585,8.889l-0.356,-6.4l3.437,-3.437c0.237,-0.237 0.237,-0.711 0,-0.948c-0.237,-0.237 -0.711,-0.237 -0.948,0l-2.607,2.607l-0.356,-7.111c0,-0.355 -0.356,-0.592 -0.593,-0.592c-0.355,0 -0.592,0.237 -0.592,0.592l-0.237,4.504l-0.711,-0.711c-0.237,-0.237 -0.711,-0.237 -0.949,0c-0.237,0.237 -0.237,0.711 0,0.948l1.541,1.541l-0.118,2.844l-2.489,-2.489c-0.237,-0.237 -0.711,-0.237 -0.948,0c-0.237,0.237 -0.237,0.711 0,0.948l3.318,3.319l-0.237,4.385c-2.015,-0.356 -3.792,-1.304 -5.215,-2.844c-1.54,-1.66 -2.37,-3.793 -2.37,-6.045Z" style="fill:#b2b2b2;fill-rule:nonzero;"/><path d="M113.185,66.153c-2.133,-4.859 -4.741,-7.467 -7.466,-7.467c-2.726,0 -5.334,2.608 -7.467,7.467c-1.778,4.148 -2.845,9.126 -2.845,13.156c0,5.096 3.793,9.481 8.771,10.192l-0.474,7.822l-0.711,0c-0.356,0 -0.593,0.237 -0.593,0.593c0,0.356 0.237,0.593 0.593,0.593l5.57,0c0.356,0 0.593,-0.237 0.593,-0.593c0,-0.356 -0.237,-0.593 -0.593,-0.593l-0.711,0l-0.474,-7.822c2.37,-0.355 4.503,-1.541 6.044,-3.318c1.778,-1.897 2.726,-4.385 2.726,-6.874c-0.118,-3.911 -1.185,-9.008 -2.963,-13.156Zm-8.178,31.289l0.712,-12.563l0.711,12.563l-1.423,0Zm7.467,-11.97c-1.422,1.54 -3.2,2.488 -5.215,2.844l-0.237,-4.385l3.319,-3.319c0.237,-0.237 0.237,-0.711 0,-0.948c-0.237,-0.237 -0.711,-0.237 -0.948,0l-2.489,2.489l-0.237,-2.844l1.54,-1.541c0.237,-0.237 0.237,-0.711 0,-0.948c-0.237,-0.237 -0.711,-0.237 -0.948,0l-0.592,0.711l-0.237,-4.504c0,-0.355 -0.356,-0.592 -0.593,-0.592c-0.356,0 -0.593,0.237 -0.593,0.592l-0.355,7.111l-2.608,-2.607c-0.237,-0.237 -0.711,-0.237 -0.948,0c-0.237,0.237 -0.237,0.711 0,0.948l3.437,3.437l-0.474,6.4c-4.385,-0.711 -7.585,-4.504 -7.585,-8.889c0,-3.792 1.067,-8.77 2.726,-12.681c1.896,-4.267 4.148,-6.756 6.282,-6.756c2.133,0 4.385,2.489 6.281,6.756c1.659,3.911 2.726,8.889 2.726,12.681c0,2.252 -0.83,4.385 -2.252,6.045Z" style="fill:#b2b2b2;fill-rule:nonzero;"/><path d="M143.052,79.427c0,2.608 0.948,4.978 2.726,6.874c1.659,1.778 3.792,2.963 6.044,3.319l-0.474,7.822l-0.711,0c-0.356,0 -0.593,0.237 -0.593,0.593c0,0.355 0.237,0.592 0.593,0.592l5.57,0c0.356,0 0.593,-0.237 0.593,-0.592c0,-0.356 -0.237,-0.593 -0.593,-0.593l-0.711,0l-0.474,-7.822c4.978,-0.711 8.771,-5.097 8.771,-10.193c0,-4.029 -1.067,-9.126 -2.845,-13.155c-2.133,-4.86 -4.741,-7.467 -7.467,-7.467c-2.725,0 -5.333,2.607 -7.466,7.467c-1.778,4.029 -2.963,9.126 -2.963,13.155Zm9.718,18.015l0.711,-12.563l0.712,12.563l-1.423,0Zm-8.414,-18.015c0,-3.792 1.066,-8.77 2.725,-12.681c1.897,-4.267 4.149,-6.756 6.282,-6.756c2.133,0 4.385,2.489 6.281,6.756c1.66,3.911 2.726,8.889 2.726,12.681c0,4.385 -3.2,8.178 -7.585,8.889l-0.355,-6.4l3.437,-3.437c0.237,-0.237 0.237,-0.711 0,-0.948c-0.237,-0.237 -0.711,-0.237 -0.948,0l-2.608,2.607l-0.355,-7.111c0,-0.355 -0.356,-0.592 -0.593,-0.592c-0.356,0 -0.593,0.237 -0.593,0.592l-0.237,4.504l-0.711,-0.711c-0.237,-0.237 -0.711,-0.237 -0.948,0c-0.237,0.237 -0.237,0.711 0,0.948l1.541,1.541l-0.119,2.844l-2.489,-2.489c-0.237,-0.237 -0.711,-0.237 -0.948,0c-0.237,0.237 -0.237,0.711 0,0.948l3.319,3.319l-0.237,4.385c-2.015,-0.356 -3.793,-1.304 -5.215,-2.844c-1.541,-1.66 -2.37,-3.793 -2.37,-6.045Z" style="fill:#b2b2b2;fill-rule:nonzero;"/><path d="M208.593,66.153c-2.134,-4.859 -4.741,-7.467 -7.467,-7.467c-2.726,0 -5.333,2.608 -7.467,7.467c-1.778,4.148 -2.844,9.126 -2.844,13.156c0,5.096 3.792,9.481 8.77,10.192l-0.474,7.822l-0.711,0c-0.356,0 -0.593,0.237 -0.593,0.593c0,0.356 0.237,0.593 0.593,0.593l5.57,0c0.356,0 0.593,-0.237 0.593,-0.593c0,-0.356 -0.237,-0.593 -0.593,-0.593l-0.711,0l-0.474,-7.822c2.371,-0.355 4.504,-1.541 6.045,-3.318c1.777,-1.897 2.726,-4.385 2.726,-6.874c-0.119,-3.911 -1.186,-9.008 -2.963,-13.156Zm-8.178,31.289l0.711,-12.563l0.711,12.563l-1.422,0Zm7.466,-11.97c-1.422,1.54 -3.2,2.488 -5.214,2.844l-0.237,-4.385l3.318,-3.319c0.237,-0.237 0.237,-0.711 0,-0.948c-0.237,-0.237 -0.711,-0.237 -0.948,0l-2.489,2.489l-0.118,-2.844l1.54,-1.541c0.237,-0.237 0.237,-0.711 0,-0.948c-0.237,-0.237 -0.711,-0.237 -0.948,0l-0.711,0.711l-0.237,-4.504c0,-0.355 -0.356,-0.592 -0.593,-0.592c-0.237,0 -0.592,0.237 -0.592,0.592l-0.356,7.111l-2.607,-2.607c-0.237,-0.237 -0.711,-0.237 -0.948,0c-0.237,0.237 -0.237,0.711 0,0.948l3.437,3.437l-0.356,6.4c-4.385,-0.711 -7.585,-4.504 -7.585,-8.889c0,-3.792 1.067,-8.77 2.726,-12.681c1.896,-4.267 4.148,-6.756 6.281,-6.756c2.134,0 4.386,2.489 6.282,6.756c1.659,3.911 2.726,8.889 2.726,12.681c-0.119,2.252 -0.948,4.385 -2.371,6.045Z" style="fill:#b2b2b2;fill-rule:nonzero;"/><path d="M47.644,79.427c0,2.608 0.949,4.978 2.726,6.874c1.66,1.778 3.793,2.963 6.045,3.319l-0.474,7.822l-0.711,0c-0.356,0 -0.593,0.237 -0.593,0.593c0,0.355 0.237,0.592 0.593,0.592l5.57,0c0.356,0 0.593,-0.237 0.593,-0.592c0,-0.356 -0.237,-0.593 -0.593,-0.593l-0.711,0l-0.474,-7.822c4.978,-0.711 8.77,-5.097 8.77,-10.193c0,-4.029 -1.066,-9.126 -2.844,-13.155c-2.134,-4.978 -4.86,-7.586 -7.467,-7.586c-2.726,0 -5.333,2.608 -7.467,7.467c-1.777,4.148 -2.963,9.245 -2.963,13.274Zm9.719,18.015l0.711,-12.563l0.711,12.563l-1.422,0Zm-8.415,-18.015c0,-3.792 1.067,-8.77 2.726,-12.681c1.896,-4.267 4.148,-6.756 6.282,-6.756c2.133,0 4.385,2.489 6.281,6.756c1.659,3.911 2.726,8.889 2.726,12.681c0,4.385 -3.2,8.178 -7.585,8.889l-0.356,-6.4l3.437,-3.437c0.237,-0.237 0.237,-0.711 0,-0.948c-0.237,-0.237 -0.711,-0.237 -0.948,0l-2.607,2.607l-0.356,-7.111c0,-0.355 -0.355,-0.592 -0.592,-0.592c-0.237,0 -0.593,0.237 -0.593,0.592l-0.237,4.504l-0.711,-0.711c-0.237,-0.237 -0.711,-0.237 -0.948,0c-0.237,0.237 -0.237,0.711 0,0.948l1.54,1.541l-0.118,2.844l-2.489,-2.489c-0.237,-0.237 -0.711,-0.237 -0.948,0c-0.237,0.237 -0.237,0.711 0,0.948l3.318,3.319l-0.237,4.385c-2.014,-0.356 -3.792,-1.304 -5.214,-2.844c-1.541,-1.66 -2.371,-3.793 -2.371,-6.045Z" style="fill:#b2b2b2;fill-rule:nonzero;"/><path d="M17.778,66.153c-2.134,-4.859 -4.741,-7.467 -7.467,-7.467c-2.726,0 -5.333,2.608 -7.467,7.467c-1.777,4.148 -2.844,9.245 -2.844,13.274c0,5.096 3.793,9.482 8.77,10.193l-0.474,7.822l-0.711,0c-0.355,0 -0.592,0.237 -0.592,0.593c0,0.355 0.237,0.592 0.592,0.592l5.452,0c0.356,0 0.593,-0.237 0.593,-0.592c0,-0.356 -0.237,-0.593 -0.593,-0.593l-0.711,0l-0.474,-7.822c2.37,-0.356 4.504,-1.541 6.044,-3.319c1.778,-1.896 2.726,-4.385 2.726,-6.874c0,-4.029 -1.066,-9.126 -2.844,-13.274Zm-8.178,31.289l0.711,-12.563l0.711,12.563l-1.422,0Zm7.467,-11.97c-1.423,1.54 -3.2,2.488 -5.215,2.844l-0.237,-4.385l3.318,-3.319c0.237,-0.237 0.237,-0.711 0,-0.948c-0.237,-0.237 -0.711,-0.237 -0.948,0l-2.489,2.489l-0.118,-2.844l1.541,-1.541c0.237,-0.237 0.237,-0.711 0,-0.948c-0.238,-0.237 -0.712,-0.237 -0.949,0l-0.711,0.711l-0.237,-4.504c0,-0.355 -0.355,-0.592 -0.592,-0.592c-0.356,0 -0.593,0.237 -0.593,0.592l-0.356,7.111l-2.607,-2.607c-0.237,-0.237 -0.711,-0.237 -0.948,0c-0.237,0.237 -0.237,0.711 0,0.948l3.437,3.437l-0.474,6.4c-4.385,-0.711 -7.585,-4.504 -7.585,-8.889c0,-3.792 1.066,-8.77 2.726,-12.681c1.896,-4.267 4.148,-6.756 6.281,-6.756c2.133,0 4.385,2.489 6.282,6.756c1.659,3.911 2.726,8.889 2.726,12.681c0,2.252 -0.83,4.385 -2.252,6.045Z" style="fill:#b2b2b2;fill-rule:nonzero;"/></g><g><path d="M42.667,95.556c-2.134,-4.86 -4.741,-7.467 -7.467,-7.467c-2.726,0 -5.333,2.607 -7.467,7.467c-1.777,4.148 -2.844,9.125 -2.844,13.155c0,5.096 3.792,9.482 8.77,10.193l-0.474,7.822l-0.711,0c-0.355,0 -0.593,0.237 -0.593,0.593c0,0.355 0.238,0.592 0.593,0.592l5.452,0c0.355,0 0.593,-0.237 0.593,-0.592c0,-0.356 -0.238,-0.593 -0.593,-0.593l-0.711,0l-0.474,-7.704c2.37,-0.355 4.503,-1.541 6.044,-3.318c1.778,-1.897 2.726,-4.385 2.726,-6.874c0,-4.149 -1.067,-9.126 -2.844,-13.274Zm-8.178,31.17l0.711,-12.563l0.711,12.563l-1.422,0Zm7.467,-11.852c-1.423,1.541 -3.2,2.489 -5.215,2.845l-0.237,-4.504l3.318,-3.319c0.237,-0.237 0.237,-0.711 0,-0.948c-0.237,-0.237 -0.711,-0.237 -0.948,0l-2.489,2.489l-0.118,-2.844l1.54,-1.541c0.237,-0.237 0.237,-0.711 0,-0.948c-0.237,-0.237 -0.711,-0.237 -0.948,0l-0.711,0.711l-0.237,-4.267c0,-0.355 -0.355,-0.592 -0.592,-0.592c-0.238,0 -0.593,0.237 -0.593,0.592l-0.356,7.111l-2.607,-2.607c-0.237,-0.237 -0.711,-0.237 -0.948,0c-0.237,0.237 -0.237,0.711 0,0.948l3.437,3.437l-0.356,6.4c-4.385,-0.711 -7.585,-4.504 -7.585,-8.889c0,-3.792 1.067,-8.77 2.726,-12.681c1.896,-4.267 4.148,-6.756 6.282,-6.756c2.133,0 4.385,2.489 6.281,6.756c1.659,3.911 2.726,8.889 2.726,12.681c-0.119,2.015 -0.948,4.267 -2.37,5.926Z" style="fill:#b2b2b2;fill-rule:nonzero;"/><path d="M138.074,95.556c-2.133,-4.86 -4.741,-7.467 -7.467,-7.467c-2.726,0 -5.333,2.607 -7.466,7.467c-1.778,4.148 -2.845,9.125 -2.845,13.155c0,5.096 3.793,9.482 8.771,10.193l-0.474,7.822l-0.712,0c-0.355,0 -0.592,0.237 -0.592,0.593c0,0.355 0.237,0.592 0.592,0.592l5.571,0c0.355,0 0.592,-0.237 0.592,-0.592c0,-0.356 -0.237,-0.593 -0.592,-0.593l-0.711,0l-0.474,-7.822c2.37,-0.356 4.503,-1.541 6.044,-3.319c1.778,-1.896 2.726,-4.385 2.726,-6.874c-0.118,-4.03 -1.185,-9.007 -2.963,-13.155Zm-8.178,31.17l0.711,-12.563l0.712,12.563l-1.423,0Zm7.467,-11.852c-1.422,1.541 -3.2,2.489 -5.215,2.845l-0.237,-4.386l3.319,-3.318c0.237,-0.237 0.237,-0.711 0,-0.948c-0.237,-0.237 -0.711,-0.237 -0.949,0l-2.488,2.489l-0.119,-2.845l1.541,-1.541c0.237,-0.237 0.237,-0.711 0,-0.948c-0.237,-0.237 -0.711,-0.237 -0.948,0l-0.711,0.711l-0.237,-4.503c0,-0.356 -0.356,-0.593 -0.593,-0.593c-0.356,0 -0.593,0.237 -0.593,0.593l-0.355,7.111l-2.608,-2.608c-0.237,-0.237 -0.711,-0.237 -0.948,0c-0.237,0.237 -0.237,0.711 0,0.948l3.437,3.438l-0.355,6.4c-4.385,-0.712 -7.585,-4.504 -7.585,-8.889c0,-3.793 1.066,-8.771 2.725,-12.682c1.897,-4.267 4.149,-6.755 6.282,-6.755c2.133,0 4.385,2.488 6.281,6.755c1.66,3.911 2.726,8.889 2.726,12.682c-0.118,2.133 -0.948,4.385 -2.37,6.044Z" style="fill:#b2b2b2;fill-rule:nonzero;"/><path d="M167.941,108.711c0,2.608 0.948,4.978 2.726,6.874c1.659,1.778 3.792,2.963 6.044,3.319l-0.474,7.822l-0.711,0c-0.356,0 -0.593,0.237 -0.593,0.593c0,0.355 0.237,0.592 0.593,0.592l5.57,0c0.356,0 0.593,-0.237 0.593,-0.592c0,-0.356 -0.237,-0.593 -0.593,-0.593l-0.711,0l-0.474,-7.822c4.978,-0.711 8.77,-5.097 8.77,-10.193c0,-4.03 -1.066,-9.126 -2.844,-13.155c-2.133,-4.86 -4.741,-7.467 -7.467,-7.467c-2.726,0 -5.333,2.607 -7.466,7.467c-1.778,4.148 -2.963,9.125 -2.963,13.155Zm9.718,18.015l0.711,-12.563l0.711,12.563l-1.422,0Zm-8.415,-18.015c0,-3.792 1.067,-8.77 2.726,-12.681c1.897,-4.267 4.149,-6.756 6.282,-6.756c2.133,0 4.385,2.489 6.281,6.756c1.66,3.911 2.726,8.889 2.726,12.681c0,4.385 -3.2,8.178 -7.585,8.889l-0.355,-6.4l3.437,-3.437c0.237,-0.237 0.237,-0.711 0,-0.948c-0.237,-0.237 -0.712,-0.237 -0.949,0l-2.607,2.607l-0.356,-7.111c0,-0.355 -0.355,-0.592 -0.592,-0.592c-0.356,0 -0.593,0.237 -0.593,0.592l-0.237,4.504l-0.711,-0.711c-0.237,-0.237 -0.711,-0.237 -0.948,0c-0.237,0.237 -0.237,0.711 0,0.948l1.541,1.541l-0.119,2.844l-2.489,-2.489c-0.237,-0.237 -0.711,-0.237 -0.948,0c-0.237,0.237 -0.237,0.711 0,0.948l3.319,3.319l-0.237,4.385c-2.015,-0.356 -3.793,-1.304 -5.215,-2.844c-1.541,-1.541 -2.371,-3.793 -2.371,-6.045Z" style="fill:#b2b2b2;fill-rule:nonzero;"/><path d="M233.481,95.556c-2.133,-4.86 -4.74,-7.467 -7.466,-7.467c-2.726,0 -5.334,2.607 -7.467,7.467c-1.778,4.148 -2.844,9.125 -2.844,13.155c0,5.096 3.792,9.482 8.77,10.193l-0.474,7.822l-0.711,0c-0.356,0 -0.593,0.237 -0.593,0.593c0,0.355 0.237,0.592 0.593,0.592l5.57,0c0.356,0 0.593,-0.237 0.593,-0.592c0,-0.356 -0.237,-0.593 -0.593,-0.593l-0.711,0l-0.474,-7.822c2.37,-0.356 4.504,-1.541 6.045,-3.319c1.777,-1.896 2.725,-4.385 2.725,-6.874c-0.118,-4.03 -1.185,-9.007 -2.963,-13.155Zm-8.177,31.17l0.711,-12.563l0.711,12.563l-1.422,0Zm7.466,-11.852c-1.422,1.541 -3.2,2.489 -5.214,2.845l-0.237,-4.386l3.318,-3.318c0.237,-0.237 0.237,-0.711 0,-0.948c-0.237,-0.237 -0.711,-0.237 -0.948,0l-2.489,2.489l-0.119,-2.845l1.541,-1.541c0.237,-0.237 0.237,-0.711 0,-0.948c-0.237,-0.237 -0.711,-0.237 -0.948,0l-0.711,0.711l-0.237,-4.503c0,-0.356 -0.356,-0.593 -0.593,-0.593c-0.237,0 -0.592,0.237 -0.592,0.593l-0.356,7.111l-2.607,-2.608c-0.237,-0.237 -0.711,-0.237 -0.948,0c-0.237,0.237 -0.237,0.711 0,0.948l3.437,3.438l-0.356,6.4c-4.385,-0.712 -7.585,-4.504 -7.585,-8.889c0,-3.793 1.067,-8.771 2.726,-12.682c1.896,-4.267 4.148,-6.755 6.281,-6.755c2.134,0 4.386,2.488 6.282,6.755c1.659,3.911 2.726,8.889 2.726,12.682c-0.119,2.133 -0.948,4.385 -2.371,6.044Z" style="fill:#b2b2b2;fill-rule:nonzero;"/><path d="M72.533,108.711c0,2.608 0.948,4.978 2.726,6.874c1.66,1.778 3.793,2.963 6.045,3.319l-0.474,7.822l-0.711,0c-0.356,0 -0.593,0.237 -0.593,0.593c0,0.355 0.237,0.592 0.593,0.592l5.57,0c0.355,0 0.592,-0.237 0.592,-0.592c0,-0.356 -0.237,-0.593 -0.592,-0.593l-0.711,0l-0.474,-7.822c4.977,-0.711 8.77,-5.097 8.77,-10.193c0,-4.03 -1.067,-9.126 -2.844,-13.155c-2.134,-4.86 -4.741,-7.467 -7.467,-7.467c-2.726,0 -5.333,2.607 -7.467,7.467c-1.777,4.148 -2.963,9.125 -2.963,13.155Zm9.719,18.015l0.711,-12.445l0.711,12.563l-1.422,-0.118Zm-8.415,-18.015c0,-3.792 1.067,-8.77 2.726,-12.681c1.896,-4.267 4.148,-6.756 6.281,-6.756c2.134,0 4.386,2.489 6.282,6.756c1.659,3.911 2.726,8.889 2.726,12.681c0,4.385 -3.2,8.178 -7.585,8.889l-0.356,-6.4l3.437,-3.437c0.237,-0.237 0.237,-0.711 0,-0.948c-0.237,-0.237 -0.711,-0.237 -0.948,0l-2.607,2.607l-0.356,-7.111c0,-0.355 -0.356,-0.592 -0.593,-0.592c-0.355,0 -0.592,0.237 -0.592,0.592l-0.237,4.504l-0.711,-0.711c-0.237,-0.237 -0.711,-0.237 -0.948,0c-0.237,0.237 -0.237,0.711 0,0.948l1.54,1.541l-0.118,2.963l-2.489,-2.489c-0.237,-0.237 -0.711,-0.237 -0.948,0c-0.237,0.237 -0.237,0.711 0,0.948l3.318,3.318l-0.237,4.386c-2.015,-0.356 -3.792,-1.304 -5.215,-2.845c-1.54,-1.659 -2.37,-3.911 -2.37,-6.163Z" style="fill:#b2b2b2;fill-rule:nonzero;"/></g></svg>