<?xml version="1.0" encoding="UTF-8" standalone="no"?><!DOCTYPE svg PUBLIC "-//W3C//DTD SVG 1.1//EN" "http://www.w3.org/Graphics/SVG/1.1/DTD/svg11.dtd"><svg width="100%" height="100%" viewBox="0 0 260 216" version="1.1" xmlns="http://www.w3.org/2000/svg" xmlns:xlink="http://www.w3.org/1999/xlink" xml:space="preserve" style="fill-rule:evenodd;clip-rule:evenodd;stroke-linejoin:round;stroke-miterlimit:1.41421;"><g><path d="M96.9,16.7c-1.4,-3.5 -3.7,-6.5 -6.6,-8.7c-3,-2.2 -6.5,-3.6 -10.2,-3.8l-7.6,-3.9c-0.5,-0.2 -0.8,-0.3 -1.2,-0.3c-1.4,0 -2.5,1.2 -2.5,2.8c0,1 0.5,1.9 1,2.9c0.1,0.1 0.1,0.3 0.2,0.4c-3.2,1.6 -5.9,4.1 -7.9,7.1l-5.1,-3.2c0,0 -0.1,0 -0.1,-0.1c-0.3,-0.1 -0.5,-0.2 -0.8,-0.2c-1.1,0 -2,0.9 -2,2.2c0,1.4 1.6,3.9 2.4,5c-0.8,1.1 -2.4,3.6 -2.4,5c0,1.2 0.8,2.2 2,2.2c0.3,0 0.6,-0.1 0.8,-0.2c0,0 0.1,0 0.1,-0.1l5.2,-3.2c1.9,3 4.6,5.5 7.8,7.1c-0.1,0.1 -0.1,0.2 -0.2,0.3c-0.5,1 -1,1.8 -1,2.8c0,1.6 1.1,2.8 2.5,2.8c0.3,0 0.7,-0.1 1,-0.2l7.1,-3.6c7.7,-0.4 14.5,-5.3 17.4,-12.6c0.2,-0.2 0.2,-0.4 0.1,-0.5Zm-10.8,9.9c-2.2,-2.3 -3.5,-5.9 -3.5,-9.9c0,-1.8 0.3,-3.5 0.8,-5.2c0.1,-0.4 -0.1,-0.9 -0.5,-1c-0.4,-0.1 -0.9,0.1 -1,0.5c-0.6,1.8 -0.9,3.7 -0.9,5.6c0,4.1 1.3,7.9 3.5,10.5c-1.7,0.6 -3.4,0.9 -5.2,1c-0.1,0 -0.2,0 -0.3,0.1l-7.3,3.8c-0.1,0.1 -0.3,0.1 -0.4,0.1c-0.5,0 -0.9,-0.5 -0.9,-1.2c0,-0.6 0.3,-1.2 0.8,-2.1c0.2,-0.3 0.3,-0.7 0.5,-1.1c0.1,-0.2 0.1,-0.4 0,-0.6c-0.1,-0.2 -0.2,-0.4 -0.4,-0.4c-3.4,-1.6 -6.3,-4.1 -8.2,-7.5c-0.1,-0.2 -0.3,-0.3 -0.5,-0.4c-0.1,0 -0.1,0 -0.2,0c-0.1,0 -0.3,0 -0.4,0.1l-5.8,3.6c-0.1,0 -0.1,0 -0.2,0c-0.2,0 -0.4,-0.2 -0.4,-0.6c0,-0.9 1.4,-3.2 2.4,-4.6c0.2,-0.3 0.2,-0.7 0,-0.9c-1,-1.4 -2.4,-3.7 -2.4,-4.6c0,-0.3 0.2,-0.6 0.4,-0.6c0,0 0.1,0 0.2,0l5.8,3.6c0.2,0.1 0.4,0.1 0.6,0.1c0.2,0 0.4,-0.2 0.5,-0.4c1.9,-3.3 4.9,-6 8.3,-7.5c0.2,-0.1 0.3,-0.3 0.4,-0.5c0.1,-0.2 0.1,-0.4 0,-0.6c-0.2,-0.4 -0.4,-0.8 -0.6,-1.2c-0.5,-0.9 -0.8,-1.5 -0.8,-2.2c0,-0.7 0.4,-1.2 0.9,-1.2c0.1,0 0.3,0 0.4,0.1l7.7,3.9c0.1,0 0.2,0.1 0.3,0.1c1.5,0.1 3,0.4 4.5,0.9c-0.4,0.5 -0.7,1 -1.1,1.5c-0.1,0.7 0,1.2 0.4,1.4c0.1,0.1 0.3,0.1 0.4,0.1c0.3,0 0.5,-0.1 0.7,-0.4c0.4,-0.6 0.8,-1.2 1.3,-1.7c1.2,0.5 2.4,1.2 3.5,2c2.7,2 4.7,4.7 6,7.7c-1.9,4.4 -5.3,7.8 -9.3,9.7Z" style="fill:#b2b2b2;fill-rule:nonzero;"/><path d="M88.2,12.2c-1.3,0 -2.4,1.1 -2.4,2.4c0,1.3 1.1,2.4 2.4,2.4c1.3,0 2.4,-1.1 2.4,-2.4c0,-1.3 -1.1,-2.4 -2.4,-2.4Zm0,3.1c-0.4,0 -0.8,-0.3 -0.8,-0.8c0,-0.5 0.3,-0.8 0.8,-0.8c0.5,0 0.8,0.3 0.8,0.8c0,0.5 -0.3,0.8 -0.8,0.8Z" style="fill:#b2b2b2;fill-rule:nonzero;"/></g><g><path d="M151,16.7c-1.4,-3.5 -3.7,-6.5 -6.6,-8.7c-3,-2.2 -6.5,-3.6 -10.2,-3.8l-7.6,-3.9c-0.3,-0.1 -0.7,-0.2 -1,-0.2c-1.4,0 -2.5,1.2 -2.5,2.8c0,1 0.5,1.9 1,2.9c0.1,0.1 0.1,0.3 0.2,0.4c-3.2,1.6 -5.9,4.1 -7.9,7.1l-5.2,-3.2c0,0 -0.1,0 -0.1,-0.1c-0.3,-0.1 -0.5,-0.2 -0.8,-0.2c-1.1,0 -2,0.9 -2,2.2c0,1.4 1.6,3.9 2.4,5c-0.8,1.1 -2.4,3.6 -2.4,5c0,1.2 0.8,2.2 2,2.2c0.3,0 0.6,-0.1 0.8,-0.2c0,0 0.1,0 0.1,-0.1l5.2,-3.2c1.9,3 4.6,5.5 7.8,7.1c-0.1,0.1 -0.1,0.2 -0.2,0.3c-0.5,1 -1,1.8 -1,2.8c0,1.6 1.1,2.8 2.5,2.8c0.3,0 0.7,-0.1 1,-0.2l7.1,-3.6c7.7,-0.4 14.5,-5.3 17.4,-12.6c0.1,-0.3 0.1,-0.5 0,-0.6Zm-10.9,9.9c-2.2,-2.3 -3.5,-5.9 -3.5,-9.9c0,-1.8 0.3,-3.5 0.8,-5.2c0.1,-0.4 -0.1,-0.9 -0.5,-1c-0.4,-0.1 -0.9,0.1 -1,0.5c-0.6,1.8 -0.9,3.7 -0.9,5.6c0,4.1 1.3,7.9 3.5,10.5c-1.7,0.6 -3.4,0.9 -5.2,1c-0.1,0 -0.2,0 -0.3,0.1l-7.2,3.7c-0.1,0.1 -0.3,0.1 -0.4,0.1c-0.5,0 -0.9,-0.5 -0.9,-1.2c0,-0.6 0.3,-1.2 0.8,-2.1c0.2,-0.3 0.3,-0.7 0.5,-1.1c0.1,-0.2 0.1,-0.4 0,-0.6c-0.1,-0.2 -0.2,-0.4 -0.4,-0.4c-3.4,-1.6 -6.3,-4.1 -8.2,-7.5c-0.1,-0.2 -0.3,-0.3 -0.5,-0.4c-0.1,0 -0.1,0 -0.2,0c-0.1,0 -0.3,0 -0.4,0.1l-5.8,3.6c-0.1,0 -0.1,0 -0.2,0c-0.2,0 -0.4,-0.2 -0.4,-0.6c0,-0.9 1.4,-3.2 2.4,-4.6c0.2,-0.3 0.2,-0.7 0,-0.9c-1,-1.4 -2.4,-3.7 -2.4,-4.6c0,-0.3 0.2,-0.6 0.4,-0.6c0,0 0.1,0 0.2,0l5.8,3.6c0.2,0.1 0.4,0.1 0.6,0.1c0.2,0 0.4,-0.2 0.5,-0.4c1.9,-3.3 4.9,-6 8.3,-7.5c0.2,-0.1 0.3,-0.3 0.4,-0.5c0.1,-0.2 0.1,-0.4 0,-0.6c-0.2,-0.4 -0.4,-0.8 -0.6,-1.2c-0.5,-0.9 -0.8,-1.5 -0.8,-2.2c0,-0.7 0.4,-1.2 0.9,-1.2c0.1,0 0.3,0 0.4,0.1l7.7,3.9c0.1,0 0.2,0.1 0.3,0.1c1.5,0.1 3,0.4 4.5,0.9c-0.4,0.5 -0.7,1 -1.1,1.5c-0.2,0.4 -0.1,0.9 0.3,1.1c0.1,0.1 0.3,0.1 0.4,0.1c0.3,0 0.5,-0.1 0.7,-0.4c0.4,-0.6 0.8,-1.2 1.3,-1.7c1.2,0.5 2.4,1.2 3.5,2c2.7,2 4.7,4.7 6,7.7c-1.8,4.8 -5.2,8.2 -9.3,10.1Z" style="fill:#b2b2b2;fill-rule:nonzero;"/><path d="M142.3,12.2c-1.3,0 -2.4,1.1 -2.4,2.4c0,1.3 1.1,2.4 2.4,2.4c1.3,0 2.4,-1.1 2.4,-2.4c0,-1.3 -1.1,-2.4 -2.4,-2.4Zm0,3.1c-0.4,0 -0.8,-0.3 -0.8,-0.8c0,-0.5 0.3,-0.8 0.8,-0.8c0.4,0 0.8,0.3 0.8,0.8c0,0.5 -0.4,0.8 -0.8,0.8Z" style="fill:#b2b2b2;fill-rule:nonzero;"/></g><g><path d="M205.1,16.7c-1.4,-3.5 -3.7,-6.5 -6.6,-8.7c-3,-2.2 -6.5,-3.6 -10.2,-3.8l-7.6,-3.9c-0.3,-0.1 -0.7,-0.2 -1,-0.2c-1.4,0 -2.5,1.2 -2.5,2.8c0,1 0.5,1.9 1,2.9c0.1,0.1 0.1,0.3 0.2,0.4c-3.2,1.6 -5.9,4.1 -7.9,7.1l-5.2,-3.2c0,0 -0.1,0 -0.1,-0.1c-0.3,-0.1 -0.5,-0.2 -0.8,-0.2c-1.1,0 -2,0.9 -2,2.2c0,1.4 1.6,3.9 2.4,5c-0.8,1.1 -2.4,3.6 -2.4,5c0,1.2 0.8,2.2 2,2.2c0.3,0 0.6,-0.1 0.8,-0.2c0,0 0.1,0 0.1,-0.1l5.2,-3.2c1.9,3 4.6,5.5 7.8,7.1c-0.1,0.1 -0.1,0.2 -0.2,0.3c-0.5,1 -1,1.8 -1,2.8c0,1.6 1.1,2.8 2.5,2.8c0.3,0 0.7,-0.1 1,-0.2l7.1,-3.6c7.7,-0.4 14.5,-5.3 17.4,-12.6c0,-0.3 0,-0.5 0,-0.6Zm-10.9,9.9c-2.2,-2.3 -3.5,-5.9 -3.5,-9.9c0,-1.8 0.3,-3.5 0.8,-5.2c0.1,-0.4 -0.1,-0.9 -0.5,-1c-0.4,-0.1 -0.9,0.1 -1,0.5c-0.6,1.8 -0.9,3.7 -0.9,5.6c0,4.1 1.3,7.9 3.5,10.5c-1.7,0.6 -3.4,0.9 -5.2,1c-0.1,0 -0.2,0 -0.3,0.1l-7.2,3.7c-0.1,0.1 -0.3,0.1 -0.4,0.1c-0.5,0 -0.9,-0.5 -0.9,-1.2c0,-0.6 0.3,-1.2 0.8,-2.1c0.2,-0.3 0.3,-0.7 0.5,-1.1c0.1,-0.2 0.1,-0.4 0,-0.6c-0.1,-0.2 -0.2,-0.4 -0.4,-0.4c-3.4,-1.6 -6.3,-4.1 -8.2,-7.5c-0.1,-0.2 -0.3,-0.3 -0.5,-0.4c-0.1,0 -0.1,0 -0.2,0c-0.1,0 -0.3,0 -0.4,0.1l-5.8,3.6c-0.1,0 -0.1,0 -0.2,0c-0.2,0 -0.4,-0.2 -0.4,-0.6c0,-0.9 1.4,-3.2 2.4,-4.6c0.2,-0.3 0.2,-0.7 0,-0.9c-1,-1.4 -2.4,-3.7 -2.4,-4.6c0,-0.3 0.2,-0.6 0.4,-0.6c0,0 0.1,0 0.2,0l5.8,3.6c0.2,0.1 0.4,0.1 0.6,0.1c0.2,0 0.4,-0.2 0.5,-0.4c1.9,-3.3 4.9,-6 8.3,-7.5c0.2,-0.1 0.3,-0.3 0.4,-0.5c0.1,-0.2 0.1,-0.4 0,-0.6c-0.2,-0.4 -0.4,-0.8 -0.6,-1.2c-0.5,-0.9 -0.8,-1.5 -0.8,-2.2c0,-0.7 0.4,-1.2 0.9,-1.2c0.1,0 0.3,0 0.4,0.1l7.7,3.9c0.1,0 0.2,0.1 0.3,0.1c1.5,0.1 3,0.4 4.5,0.9c-0.4,0.5 -0.7,1 -1.1,1.5c-0.2,0.4 -0.1,0.9 0.3,1.1c0.1,0.1 0.3,0.1 0.4,0.1c0.3,0 0.5,-0.1 0.7,-0.4c0.4,-0.6 0.8,-1.2 1.3,-1.7c1.2,0.5 2.4,1.2 3.5,2c2.7,2 4.7,4.7 6,7.7c-1.8,4.8 -5.2,8.2 -9.3,10.1Z" style="fill:#b2b2b2;fill-rule:nonzero;"/><path d="M196.4,12.2c-1.3,0 -2.4,1.1 -2.4,2.4c0,1.3 1.1,2.4 2.4,2.4c1.3,0 2.4,-1.1 2.4,-2.4c0,-1.3 -1.1,-2.4 -2.4,-2.4Zm0,3.1c-0.4,0 -0.8,-0.3 -0.8,-0.8c0,-0.5 0.3,-0.8 0.8,-0.8c0.5,0 0.8,0.3 0.8,0.8c0,0.5 -0.4,0.8 -0.8,0.8Z" style="fill:#b2b2b2;fill-rule:nonzero;"/></g><g><path d="M259.1,16.7c-1.4,-3.5 -3.7,-6.5 -6.6,-8.7c-3,-2.2 -6.5,-3.6 -10.2,-3.8l-7.6,-3.9c-0.3,-0.1 -0.7,-0.2 -1,-0.2c-1.4,0 -2.5,1.2 -2.5,2.8c0,1 0.5,1.9 1,2.9c0.1,0.1 0.1,0.3 0.2,0.4c-3.2,1.6 -5.9,4.1 -7.9,7.1l-5.2,-3.2c0,0 -0.1,0 -0.1,-0.1c-0.3,-0.1 -0.5,-0.2 -0.8,-0.2c-1.1,0 -2,0.9 -2,2.2c0,1.4 1.6,3.9 2.4,5c-0.8,1.1 -2.4,3.6 -2.4,5c0,1.2 0.8,2.2 2,2.2c0.3,0 0.6,-0.1 0.8,-0.2c0,0 0.1,0 0.1,-0.1l5.2,-3.2c1.9,3 4.6,5.5 7.8,7.1c-0.1,0.1 -0.1,0.2 -0.2,0.3c-0.5,1 -1,1.8 -1,2.8c0,1.6 1.1,2.8 2.5,2.8c0.3,0 0.7,-0.1 1,-0.2l7.1,-3.6c7.7,-0.4 14.5,-5.3 17.4,-12.6c0.1,-0.3 0.1,-0.5 0,-0.6Zm-10.8,9.9c-2.2,-2.3 -3.5,-5.9 -3.5,-9.9c0,-1.8 0.3,-3.5 0.8,-5.2c0.1,-0.4 -0.1,-0.9 -0.5,-1c-0.4,-0.1 -0.9,0.1 -1,0.5c-0.6,1.8 -0.9,3.7 -0.9,5.6c0,4.1 1.3,7.9 3.5,10.5c-1.7,0.6 -3.4,0.9 -5.2,1c-0.1,0 -0.2,0 -0.3,0.1l-7.2,3.8c-0.1,0.1 -0.3,0.1 -0.4,0.1c-0.5,0 -0.9,-0.5 -0.9,-1.2c0,-0.6 0.3,-1.2 0.8,-2.1c0.2,-0.3 0.3,-0.7 0.5,-1.1c0.1,-0.2 0.1,-0.4 0,-0.6c-0.1,-0.2 -0.2,-0.4 -0.4,-0.4c-3.4,-1.6 -6.3,-4.1 -8.2,-7.5c-0.1,-0.2 -0.3,-0.3 -0.5,-0.4c-0.1,0 -0.1,0 -0.2,0c-0.1,0 -0.3,0 -0.4,0.1l-5.8,3.6c-0.1,0 -0.1,0 -0.2,0c-0.2,0 -0.4,-0.2 -0.4,-0.6c0,-0.9 1.4,-3.2 2.4,-4.6c0.2,-0.3 0.2,-0.7 0,-0.9c-1,-1.4 -2.4,-3.7 -2.4,-4.6c0,-0.3 0.2,-0.6 0.4,-0.6c0,0 0.1,0 0.2,0l5.8,3.6c0.2,0.1 0.4,0.1 0.6,0.1c0.2,0 0.4,-0.2 0.5,-0.4c1.9,-3.3 4.9,-6 8.3,-7.5c0.2,-0.1 0.3,-0.3 0.4,-0.5c0.1,-0.2 0.1,-0.4 0,-0.6c-0.2,-0.4 -0.4,-0.8 -0.6,-1.2c-0.5,-0.9 -0.8,-1.5 -0.8,-2.2c0,-0.7 0.4,-1.2 0.9,-1.2c0.1,0 0.3,0 0.4,0.1l7.7,3.9c0.1,0 0.2,0.1 0.3,0.1c1.5,0.1 3,0.4 4.5,0.9c-0.4,0.5 -0.7,1 -1.1,1.5c-0.2,0.4 -0.1,0.9 0.3,1.1c0.1,0.1 0.3,0.1 0.4,0.1c0.3,0 0.5,-0.1 0.7,-0.4c0.4,-0.6 0.8,-1.2 1.3,-1.7c1.2,0.5 2.4,1.2 3.5,2c2.7,2 4.7,4.7 6,7.7c-1.9,4.7 -5.2,8.1 -9.3,10Z" style="fill:#b2b2b2;fill-rule:nonzero;"/><path d="M250.5,12.2c-1.3,0 -2.4,1.1 -2.4,2.4c0,1.3 1.1,2.4 2.4,2.4c1.3,0 2.4,-1.1 2.4,-2.4c0,-1.3 -1.1,-2.4 -2.4,-2.4Zm0,3.1c-0.4,0 -0.8,-0.3 -0.8,-0.8c0,-0.5 0.3,-0.8 0.8,-0.8c0.5,0 0.8,0.3 0.8,0.8c0,0.5 -0.4,0.8 -0.8,0.8Z" style="fill:#b2b2b2;fill-rule:nonzero;"/></g><g><path d="M189.3,47.6c2.9,7.3 9.7,12.2 17.4,12.6l7.1,3.6c0.3,0.1 0.7,0.2 1,0.2c1.4,0 2.5,-1.2 2.5,-2.8c0,-1 -0.4,-1.8 -1,-2.8c-0.1,-0.1 -0.1,-0.2 -0.2,-0.3c3.2,-1.6 5.8,-4 7.8,-7.1l5.2,3.2c0,0 0.1,0 0.1,0.1c0.3,0.1 0.5,0.2 0.8,0.2c1.1,0 2,-0.9 2,-2.2c0,-1.4 -1.6,-3.9 -2.4,-5c0.8,-1.1 2.4,-3.6 2.4,-5c0,-1.2 -0.8,-2.2 -2,-2.2c-0.3,0 -0.6,0.1 -0.8,0.2c0,0 -0.1,0 -0.1,0.1l-5.2,3.2c-1.9,-3 -4.7,-5.5 -7.9,-7.1c0.1,-0.1 0.1,-0.3 0.2,-0.4c0.5,-1 1,-1.9 1,-2.9c0,-1.6 -1.1,-2.8 -2.5,-2.8c-0.3,0 -0.7,0.1 -1,0.2l-7.6,3.9c-3.7,0.3 -7.2,1.6 -10.2,3.8c-3,2.2 -5.3,5.2 -6.6,8.7c0,0.2 0,0.4 0,0.6Zm1.6,-0.3c1.3,-3.1 3.3,-5.8 6,-7.7c1.1,-0.8 2.2,-1.5 3.5,-2c0.5,0.5 0.9,1.1 1.3,1.7c0.1,0.3 0.4,0.4 0.7,0.4c0.1,0 0.3,0 0.4,-0.1c0.4,-0.2 0.5,-0.7 0.3,-1.1c-0.3,-0.6 -0.7,-1.1 -1.1,-1.5c1.4,-0.5 3,-0.8 4.5,-0.9c0.1,0 0.2,0 0.3,-0.1l7.7,-3.9c0.1,-0.1 0.3,-0.1 0.4,-0.1c0.5,0 0.9,0.5 0.9,1.2c0,0.6 -0.3,1.3 -0.8,2.2c-0.2,0.3 -0.4,0.7 -0.6,1.2c-0.1,0.2 -0.1,0.4 0,0.6c0.1,0.2 0.2,0.4 0.4,0.5c3.4,1.5 6.4,4.2 8.3,7.5c0.1,0.2 0.3,0.3 0.5,0.4c0.2,0.1 0.4,0 0.6,-0.1l5.8,-3.6c0.1,0 0.1,0 0.2,0c0.2,0 0.4,0.2 0.4,0.6c0,0.9 -1.4,3.2 -2.4,4.6c-0.2,0.3 -0.2,0.7 0,0.9c1,1.4 2.4,3.7 2.4,4.6c0,0.3 -0.2,0.6 -0.4,0.6c0,0 -0.1,0 -0.2,0l-5.8,-3.6c-0.1,-0.1 -0.3,-0.1 -0.4,-0.1c-0.1,0 -0.1,0 -0.2,0c-0.2,0.1 -0.4,0.2 -0.5,0.4c-1.9,3.3 -4.8,5.9 -8.2,7.5c-0.2,0.1 -0.3,0.2 -0.4,0.4c-0.1,0.2 -0.1,0.4 0,0.6c0.2,0.4 0.4,0.7 0.5,1.1c0.5,0.9 0.8,1.5 0.8,2.1c0,0.7 -0.4,1.2 -0.9,1.2c-0.1,0 -0.3,0 -0.4,-0.1l-7.2,-3.7c-0.1,-0.1 -0.2,-0.1 -0.3,-0.1c-1.8,-0.1 -3.5,-0.4 -5.2,-1c2.2,-2.6 3.5,-6.4 3.5,-10.5c0,-2 -0.3,-3.9 -0.9,-5.6c-0.1,-0.4 -0.6,-0.6 -1,-0.5c-0.4,0.1 -0.6,0.6 -0.5,1c0.5,1.6 0.8,3.4 0.8,5.2c0,3.9 -1.3,7.6 -3.5,9.9c-4.1,-2.3 -7.5,-5.7 -9.3,-10.1Z" style="fill:#b2b2b2;fill-rule:nonzero;"/><path d="M195.7,44.9c0,1.3 1.1,2.4 2.4,2.4c1.3,0 2.4,-1.1 2.4,-2.4c0,-1.3 -1.1,-2.4 -2.4,-2.4c-1.4,0.1 -2.4,1.1 -2.4,2.4Zm1.5,0c0,-0.4 0.3,-0.8 0.8,-0.8c0.4,0 0.8,0.3 0.8,0.8c0,0.5 -0.3,0.8 -0.8,0.8c-0.4,0 -0.8,-0.3 -0.8,-0.8Z" style="fill:#b2b2b2;fill-rule:nonzero;"/></g><g><path d="M135.3,47.6c2.9,7.3 9.7,12.2 17.4,12.6l7.1,3.6c0.3,0.1 0.7,0.2 1,0.2c1.4,0 2.5,-1.2 2.5,-2.8c0,-1 -0.4,-1.8 -1,-2.8c-0.1,-0.1 -0.1,-0.2 -0.2,-0.3c3.2,-1.6 5.8,-4 7.8,-7.1l5.2,3.2c0,0 0.1,0 0.1,0.1c0.3,0.1 0.5,0.2 0.8,0.2c1.1,0 2,-0.9 2,-2.2c0,-1.4 -1.6,-3.9 -2.4,-5c0.8,-1.1 2.4,-3.6 2.4,-5c0,-1.2 -0.8,-2.2 -2,-2.2c-0.3,0 -0.6,0.1 -0.8,0.2c0,0 -0.1,0 -0.1,0.1l-5.2,3.2c-1.9,-3 -4.7,-5.5 -7.9,-7.1c0.1,-0.1 0.1,-0.3 0.2,-0.4c0.5,-1 1,-1.9 1,-2.9c0,-1.6 -1.1,-2.8 -2.5,-2.8c-0.3,0 -0.7,0.1 -1,0.2l-7.6,3.9c-3.7,0.3 -7.2,1.6 -10.2,3.8c-3,2.2 -5.3,5.2 -6.6,8.7c-0.1,0.2 -0.1,0.4 0,0.6Zm1.6,-0.3c1.3,-3.1 3.3,-5.8 6,-7.7c1.1,-0.8 2.2,-1.5 3.5,-2c0.5,0.5 0.9,1.1 1.3,1.7c0.1,0.3 0.4,0.4 0.7,0.4c0.1,0 0.3,0 0.4,-0.1c0.4,-0.2 0.5,-0.7 0.3,-1.1c-0.3,-0.6 -0.7,-1.1 -1.1,-1.5c1.4,-0.5 3,-0.8 4.5,-0.9c0.1,0 0.2,0 0.3,-0.1l7.7,-3.9c0.1,-0.1 0.3,-0.1 0.4,-0.1c0.5,0 0.9,0.5 0.9,1.2c0,0.6 -0.3,1.3 -0.8,2.2c-0.2,0.3 -0.4,0.7 -0.6,1.2c-0.1,0.2 -0.1,0.4 0,0.6c0.1,0.2 0.2,0.4 0.4,0.5c3.4,1.5 6.4,4.2 8.3,7.5c0.1,0.2 0.3,0.3 0.5,0.4c0.2,0.1 0.4,0 0.6,-0.1l5.8,-3.6c0.1,0 0.1,0 0.2,0c0.2,0 0.4,0.2 0.4,0.6c0,0.9 -1.4,3.2 -2.4,4.6c-0.2,0.3 -0.2,0.7 0,0.9c1,1.4 2.4,3.7 2.4,4.6c0,0.3 -0.2,0.6 -0.4,0.6c0,0 -0.1,0 -0.2,0l-5.8,-3.6c-0.1,-0.1 -0.3,-0.1 -0.4,-0.1c-0.1,0 -0.1,0 -0.2,0c-0.2,0.1 -0.4,0.2 -0.5,0.4c-1.9,3.3 -4.8,5.9 -8.2,7.5c-0.2,0.1 -0.3,0.2 -0.4,0.4c-0.1,0.2 -0.1,0.4 0,0.6c0.2,0.4 0.4,0.7 0.5,1.1c0.5,0.9 0.8,1.5 0.8,2.1c0,0.7 -0.4,1.2 -0.9,1.2c-0.1,0 -0.3,0 -0.4,-0.1l-7.2,-3.7c-0.1,-0.1 -0.2,-0.1 -0.3,-0.1c-1.8,-0.1 -3.5,-0.4 -5.2,-1c2.2,-2.6 3.5,-6.4 3.5,-10.5c0,-2 -0.3,-3.9 -0.9,-5.6c-0.1,-0.4 -0.6,-0.6 -1,-0.5c-0.4,0.1 -0.6,0.6 -0.5,1c0.5,1.6 0.8,3.4 0.8,5.2c0,3.9 -1.3,7.6 -3.5,9.9c-4.2,-2.3 -7.5,-5.7 -9.3,-10.1Z" style="fill:#b2b2b2;fill-rule:nonzero;"/><path d="M141.6,44.9c0,1.3 1.1,2.4 2.4,2.4c1.3,0 2.4,-1.1 2.4,-2.4c0,-1.3 -1.1,-2.4 -2.4,-2.4c-1.4,0.1 -2.4,1.1 -2.4,2.4Zm1.6,0c0,-0.4 0.3,-0.8 0.8,-0.8c0.5,0 0.8,0.3 0.8,0.8c0,0.5 -0.3,0.8 -0.8,0.8c-0.5,0 -0.8,-0.3 -0.8,-0.8Z" style="fill:#b2b2b2;fill-rule:nonzero;"/></g><g><path d="M81.2,47.6c2.9,7.3 9.7,12.2 17.4,12.6l7.1,3.6c0.3,0.1 0.7,0.2 1,0.2c1.4,0 2.5,-1.2 2.5,-2.8c0,-1 -0.4,-1.8 -1,-2.8c-0.1,-0.1 -0.1,-0.2 -0.2,-0.3c3.2,-1.6 5.8,-4 7.8,-7.1l5.2,3.2c0,0 0.1,0 0.1,0.1c0.3,0.1 0.5,0.2 0.8,0.2c1.1,0 2,-0.9 2,-2.2c0,-1.4 -1.6,-3.9 -2.4,-5c0.8,-1.1 2.4,-3.6 2.4,-5c0,-1.2 -0.8,-2.2 -2,-2.2c-0.3,0 -0.6,0.1 -0.8,0.2c0,0 -0.1,0 -0.1,0.1l-5.2,3.2c-1.9,-3 -4.7,-5.5 -7.9,-7.1c0.1,-0.1 0.1,-0.3 0.2,-0.4c0.5,-1 1,-1.9 1,-2.9c0,-1.6 -1.1,-2.8 -2.5,-2.8c-0.3,0 -0.7,0.1 -1,0.2l-7.6,3.9c-3.7,0.3 -7.2,1.6 -10.2,3.8c-3,2.2 -5.3,5.2 -6.6,8.7c-0.1,0.2 -0.1,0.4 0,0.6Zm1.6,-0.3c1.3,-3.1 3.3,-5.8 6,-7.7c1.1,-0.8 2.2,-1.5 3.5,-2c0.5,0.5 0.9,1.1 1.3,1.7c0.1,0.3 0.4,0.4 0.7,0.4c0.1,0 0.3,0 0.4,-0.1c0.4,-0.2 0.5,-0.7 0.3,-1.1c-0.3,-0.6 -0.7,-1.1 -1.1,-1.5c1.4,-0.5 3,-0.8 4.5,-0.9c0.1,0 0.2,0 0.3,-0.1l7.7,-3.9c0.1,-0.1 0.3,-0.1 0.4,-0.1c0.5,0 0.9,0.5 0.9,1.2c0,0.6 -0.3,1.3 -0.8,2.2c-0.2,0.3 -0.4,0.7 -0.6,1.2c-0.1,0.2 -0.1,0.4 0,0.6c0.1,0.2 0.2,0.4 0.4,0.5c3.4,1.5 6.4,4.2 8.3,7.5c0.1,0.2 0.3,0.3 0.5,0.4c0.2,0.1 0.4,0 0.6,-0.1l5.8,-3.6c0.1,0 0.1,0 0.2,0c0.2,0 0.4,0.2 0.4,0.6c0,0.9 -1.4,3.2 -2.4,4.6c-0.2,0.3 -0.2,0.7 0,0.9c1,1.4 2.4,3.7 2.4,4.6c0,0.3 -0.2,0.6 -0.4,0.6c0,0 -0.1,0 -0.2,0l-5.8,-3.6c-0.1,-0.1 -0.3,-0.1 -0.4,-0.1c-0.1,0 -0.1,0 -0.2,0c-0.2,0.1 -0.4,0.2 -0.5,0.4c-1.9,3.3 -4.8,5.9 -8.2,7.5c-0.2,0.1 -0.3,0.2 -0.4,0.4c-0.1,0.2 -0.1,0.4 0,0.6c0.2,0.4 0.4,0.7 0.5,1.1c0.5,0.9 0.8,1.5 0.8,2.1c0,0.7 -0.4,1.2 -0.9,1.2c-0.1,0 -0.3,0 -0.4,-0.1l-7.2,-3.7c-0.1,-0.1 -0.2,-0.1 -0.3,-0.1c-1.8,-0.1 -3.5,-0.4 -5.2,-1c2.2,-2.6 3.5,-6.4 3.5,-10.5c0,-2 -0.3,-3.9 -0.9,-5.6c-0.1,-0.4 -0.6,-0.6 -1,-0.5c-0.4,0.1 -0.6,0.6 -0.5,1c0.5,1.6 0.8,3.4 0.8,5.2c0,3.9 -1.3,7.6 -3.5,9.9c-4.2,-2.3 -7.5,-5.7 -9.3,-10.1Z" style="fill:#b2b2b2;fill-rule:nonzero;"/><path d="M87.5,44.9c0,1.3 1.1,2.4 2.4,2.4c1.3,0 2.4,-1.1 2.4,-2.4c0,-1.3 -1.1,-2.4 -2.4,-2.4c-1.3,0.1 -2.4,1.1 -2.4,2.4Zm1.6,0c0,-0.4 0.3,-0.8 0.8,-0.8c0.5,0 0.8,0.3 0.8,0.8c0,0.5 -0.3,0.8 -0.8,0.8c-0.5,0 -0.8,-0.3 -0.8,-0.8Z" style="fill:#b2b2b2;fill-rule:nonzero;"/></g><path d="M27.1,47.6c2.9,7.3 9.7,12.2 17.4,12.6l7.1,3.6c0.3,0.1 0.7,0.2 1,0.2c1.4,0 2.5,-1.2 2.5,-2.8c0,-1 -0.4,-1.8 -1,-2.8c-0.1,-0.1 -0.1,-0.2 -0.2,-0.3c3.2,-1.6 5.8,-4 7.8,-7.1l5.2,3.2c0,0 0.1,0 0.1,0.1c0.3,0.1 0.5,0.2 0.8,0.2c1.1,0 2,-0.9 2,-2.2c0,-1.4 -1.6,-3.9 -2.4,-5c0.8,-1.1 2.4,-3.6 2.4,-5c0,-1.2 -0.8,-2.2 -2,-2.2c-0.3,0 -0.6,0.1 -0.8,0.2c0,0 -0.1,0 -0.1,0.1l-5.2,3.2c-1.9,-3 -4.7,-5.5 -7.9,-7.1c0.1,-0.1 0.1,-0.3 0.2,-0.4c0.5,-1 1,-1.9 1,-2.9c0,-1.6 -1.1,-2.8 -2.5,-2.8c-0.3,0 -0.7,0.1 -1,0.2l-7.6,3.9c-3.7,0.3 -7.2,1.6 -10.2,3.8c-3,2.2 -5.3,5.2 -6.6,8.7c-0.1,0.2 -0.1,0.4 0,0.6Zm1.6,-0.3c1.3,-3.1 3.3,-5.8 6,-7.7c1.1,-0.8 2.2,-1.5 3.5,-2c0.5,0.5 0.9,1.1 1.3,1.7c0.1,0.3 0.4,0.4 0.7,0.4c0.1,0 0.3,0 0.4,-0.1c0.4,-0.2 0.5,-0.7 0.3,-1.1c-0.3,-0.6 -0.7,-1.1 -1.1,-1.5c1.4,-0.5 3,-0.8 4.5,-0.9c0.1,0 0.2,0 0.3,-0.1l7.7,-3.9c0.1,-0.1 0.3,-0.1 0.4,-0.1c0.5,0 0.9,0.5 0.9,1.2c0,0.6 -0.3,1.3 -0.8,2.2c-0.2,0.3 -0.4,0.7 -0.6,1.2c-0.1,0.2 -0.1,0.4 0,0.6c0.1,0.2 0.2,0.4 0.4,0.5c3.4,1.5 6.4,4.2 8.3,7.5c0.1,0.2 0.3,0.3 0.5,0.4c0.2,0.1 0.4,0 0.6,-0.1l5.8,-3.6c0.1,0 0.1,0 0.2,0c0.2,0 0.4,0.2 0.4,0.6c0,0.9 -1.4,3.2 -2.4,4.6c-0.2,0.3 -0.2,0.7 0,0.9c1,1.4 2.4,3.7 2.4,4.6c0,0.3 -0.2,0.6 -0.4,0.6c0,0 -0.1,0 -0.2,0l-5.8,-3.9c-0.1,-0.1 -0.3,-0.1 -0.4,-0.1c-0.1,0 -0.1,0 -0.2,0c-0.2,0.1 -0.4,0.2 -0.5,0.4c-1.9,3.3 -4.8,5.9 -8.2,7.5c-0.2,0.1 -0.3,0.2 -0.4,0.4c-0.1,0.2 -0.1,0.4 0,0.6c0.2,0.4 0.4,0.7 0.5,1.1c0.5,0.9 0.8,1.5 0.8,2.1c0,0.7 -0.4,1.2 -0.9,1.2c-0.1,0 -0.3,0 -0.4,-0.1l-7.3,-3.7c-0.1,-0.1 -0.2,-0.1 -0.3,-0.1c-1.8,-0.1 -3.5,-0.4 -5.2,-1c2.2,-2.6 3.5,-6.4 3.5,-10.5c0,-2 -0.3,-3.9 -0.9,-5.6c-0.1,-0.4 -0.6,-0.6 -1,-0.5c-0.4,0.1 -0.6,0.6 -0.5,1c0.5,1.6 0.8,3.4 0.8,5.2c0,3.9 -1.3,7.6 -3.5,9.9c-4.1,-2 -7.4,-5.4 -9.2,-9.8Z" style="fill:#b2b2b2;fill-rule:nonzero;"/><path d="M33.4,44.9c0,1.3 1.1,2.4 2.4,2.4c1.3,0 2.4,-1.1 2.4,-2.4c0,-1.3 -1.1,-2.4 -2.4,-2.4c-1.3,0.1 -2.4,1.1 -2.4,2.4Zm1.6,0c0,-0.4 0.3,-0.8 0.8,-0.8c0.4,0 0.8,0.3 0.8,0.8c0,0.5 -0.3,0.8 -0.8,0.8c-0.5,0 -0.8,-0.3 -0.8,-0.8Z" style="fill:#b2b2b2;fill-rule:nonzero;"/><rect x="51" y="64.2" width="6.3" height="1.6" style="fill:#b2b2b2;"/><g><g><path d="M42.8,16.7c-1.4,-3.5 -3.7,-6.5 -6.6,-8.7c-3,-2.2 -6.5,-3.6 -10.2,-3.8l-7.6,-3.9c-0.4,-0.2 -0.8,-0.3 -1.1,-0.3c-1.4,0 -2.5,1.2 -2.5,2.8c0,1 0.5,1.9 1,2.9c0.1,0.1 0.1,0.3 0.2,0.4c-3.2,1.6 -5.9,4.1 -7.9,7.1l-5.2,-3.2c0,0 -0.1,0 -0.1,-0.1c-0.3,-0.1 -0.6,-0.2 -0.8,-0.2c-1.1,0 -2,0.9 -2,2.2c0,1.4 1.6,3.9 2.4,5c-0.8,1.2 -2.4,3.6 -2.4,5.1c0,1.2 0.8,2.2 2,2.2c0.3,0 0.6,-0.1 0.8,-0.2c0,0 0.1,0 0.1,-0.1l5.2,-3.2c1.9,3 4.6,5.5 7.8,7.1c-0.1,0.1 -0.1,0.2 -0.2,0.3c-0.5,1 -1,1.8 -1,2.8c0,1.6 1.1,2.8 2.5,2.8c0.3,0 0.7,-0.1 1,-0.2l7.1,-3.6c7.7,-0.4 14.5,-5.3 17.4,-12.6c0.2,-0.3 0.2,-0.5 0.1,-0.6Zm-10.8,9.9c-2.2,-2.3 -3.5,-5.9 -3.5,-9.9c0,-1.8 0.3,-3.5 0.8,-5.2c0.1,-0.4 -0.1,-0.9 -0.5,-1c-0.4,-0.1 -0.9,0.1 -1,0.5c-0.6,1.8 -0.9,3.7 -0.9,5.6c0,4.1 1.3,7.9 3.5,10.5c-1.7,0.6 -3.4,0.9 -5.2,1c-0.1,0 -0.2,0 -0.3,0.1l-7.2,3.8c-0.1,0.1 -0.3,0.1 -0.4,0.1c-0.5,0 -0.9,-0.5 -0.9,-1.2c0,-0.6 0.3,-1.2 0.8,-2.1c0.2,-0.3 0.3,-0.7 0.5,-1.1c0.1,-0.2 0.1,-0.4 0,-0.6c-0.1,-0.2 -0.2,-0.4 -0.4,-0.4c-3.4,-1.6 -6.3,-4.1 -8.2,-7.5c-0.1,-0.2 -0.3,-0.3 -0.5,-0.4c-0.1,0 -0.1,0 -0.2,0c-0.1,0 -0.3,0 -0.4,0.1l-5.8,3.6c-0.1,0 -0.1,0 -0.2,0c-0.2,0 -0.4,-0.2 -0.4,-0.6c0,-0.9 1.4,-3.2 2.4,-4.6c0.2,-0.3 0.2,-0.7 0,-0.9c-1,-1.4 -2.4,-3.7 -2.4,-4.6c0,-0.3 0.2,-0.6 0.4,-0.6c0,0 0.1,0 0.2,0l5.8,3.6c0.1,0.2 0.3,0.3 0.6,0.2c0.3,-0.1 0.4,-0.2 0.5,-0.4c1.9,-3.3 4.9,-6 8.3,-7.5c0.2,-0.1 0.3,-0.3 0.4,-0.5c0.1,-0.2 0.1,-0.4 0,-0.6c-0.2,-0.4 -0.4,-0.8 -0.6,-1.2c-0.5,-0.9 -0.8,-1.5 -0.8,-2.2c0,-0.7 0.4,-1.2 0.9,-1.2c0.1,0 0.3,0 0.4,0.1l7.7,3.9c0.1,0 0.2,0.1 0.3,0.1c1.5,0.1 3,0.4 4.5,0.9c-0.4,0.5 -0.7,1 -1.1,1.5c-0.2,0.6 -0.1,1.1 0.3,1.3c0.1,0.1 0.3,0.1 0.4,0.1c0.3,0 0.5,-0.1 0.7,-0.4c0.4,-0.6 0.8,-1.2 1.3,-1.7c1.2,0.5 2.4,1.2 3.5,2c2.7,2 4.7,4.7 6,7.7c-1.9,4.4 -5.2,7.8 -9.3,9.7Z" style="fill:#b2b2b2;fill-rule:nonzero;"/><path d="M34.1,12.2c-1.3,0 -2.4,1.1 -2.4,2.4c0,1.3 1.1,2.4 2.4,2.4c1.3,0 2.4,-1.1 2.4,-2.4c0,-1.3 -1.1,-2.4 -2.4,-2.4Zm0,3.1c-0.4,0 -0.8,-0.3 -0.8,-0.8c0,-0.5 0.3,-0.8 0.8,-0.8c0.4,0 0.8,0.3 0.8,0.8c0,0.5 -0.3,0.8 -0.8,0.8Z" style="fill:#b2b2b2;fill-rule:nonzero;"/></g><g><path d="M42.8,77.4c-1.4,-3.5 -3.7,-6.5 -6.6,-8.7c-3,-2.2 -6.5,-3.6 -10.2,-3.8l-7.7,-3.9c-0.3,-0.1 -0.7,-0.2 -1,-0.2c-1.4,0 -2.5,1.2 -2.5,2.8c0,1 0.5,1.9 1,2.9c0.1,0.1 0.1,0.3 0.2,0.4c-3.2,1.6 -5.9,4.1 -7.9,7.1l-5.2,-3.2c0,0 -0.1,0 -0.1,-0.1c-0.3,-0.1 -0.5,-0.2 -0.8,-0.2c-1.1,0 -2,0.9 -2,2.2c0,1.4 1.6,3.9 2.4,5c-0.8,1.1 -2.4,3.6 -2.4,5c0,1.2 0.8,2.2 2,2.2c0.3,0 0.6,-0.1 0.8,-0.2c0,0 0.1,0 0.1,-0.1l5.2,-3.2c1.9,3 4.6,5.5 7.8,7.1c-0.1,0.1 -0.1,0.2 -0.2,0.3c-0.5,1 -1,1.8 -1,2.8c0,1.6 1.1,2.8 2.5,2.8c0.3,0 0.7,-0.1 1,-0.2l7.1,-3.6c7.7,-0.4 14.5,-5.3 17.4,-12.6c0.2,-0.2 0.2,-0.4 0.1,-0.6Zm-10.8,10c-2.2,-2.3 -3.5,-5.9 -3.5,-9.9c0,-1.8 0.3,-3.5 0.8,-5.2c0.1,-0.4 -0.1,-0.9 -0.5,-1c-0.4,-0.1 -0.9,0.1 -1,0.5c-0.6,1.8 -0.9,3.7 -0.9,5.6c0,4.1 1.3,7.9 3.5,10.5c-1.7,0.6 -3.4,0.9 -5.2,1c-0.1,0 -0.2,0 -0.3,0.1l-7.2,3.7c-0.1,0.1 -0.3,0.1 -0.4,0.1c-0.5,0 -0.9,-0.5 -0.9,-1.2c0,-0.6 0.3,-1.2 0.8,-2.1c0.2,-0.3 0.3,-0.7 0.5,-1.1c0.1,-0.2 0.1,-0.4 0,-0.6c-0.1,-0.2 -0.2,-0.4 -0.4,-0.4c-3.5,-1.5 -6.3,-4.1 -8.3,-7.4c-0.1,-0.2 -0.3,-0.3 -0.5,-0.4c-0.1,0 -0.1,0 -0.2,0c-0.1,0 -0.3,0 -0.4,0.1l-5.8,3.6c-0.1,0 -0.1,0 -0.2,0c-0.2,0 -0.4,-0.2 -0.4,-0.6c0,-0.9 1.4,-3.2 2.4,-4.6c0.2,-0.3 0.2,-0.7 0,-0.9c-1,-1.4 -2.4,-3.7 -2.4,-4.6c0,-0.3 0.2,-0.6 0.4,-0.6c0,0 0.1,0 0.2,0l5.8,3.6c0.2,0.1 0.4,0.1 0.6,0.1c0.2,0 0.4,-0.2 0.5,-0.4c1.9,-3.3 4.9,-6 8.3,-7.5c0.2,-0.1 0.3,-0.3 0.4,-0.5c0.1,-0.2 0.1,-0.4 0,-0.6c-0.2,-0.4 -0.4,-0.8 -0.6,-1.2c-0.5,-0.9 -0.8,-1.5 -0.8,-2.2c0,-0.7 0.4,-1.2 0.9,-1.2c0.1,0 0.3,0 0.4,0.1l7.7,3.9c0.1,0 0.2,0.1 0.3,0.1c1.5,0.1 3,0.4 4.5,0.9c-0.4,0.5 -0.7,1 -1.1,1.5c-0.2,0.4 -0.1,0.9 0.3,1.1c0.1,0.1 0.3,0.1 0.4,0.1c0.3,0 0.5,-0.1 0.7,-0.4c0.4,-0.6 0.8,-1.2 1.3,-1.7c1.2,0.5 2.4,1.2 3.5,2c2.7,2 4.7,4.7 6,7.7c-1.8,4.7 -5.1,8.1 -9.2,10Z" style="fill:#b2b2b2;fill-rule:nonzero;"/><path d="M34.1,73c-1.3,0 -2.4,1.1 -2.4,2.4c0,1.3 1.1,2.4 2.4,2.4c1.3,0 2.4,-1.1 2.4,-2.4c0,-1.3 -1.1,-2.4 -2.4,-2.4Zm0,3.1c-0.4,0 -0.8,-0.3 -0.8,-0.8c0,-0.5 0.3,-0.8 0.8,-0.8c0.4,0 0.8,0.3 0.8,0.8c0,0.5 -0.3,0.8 -0.8,0.8Z" style="fill:#b2b2b2;fill-rule:nonzero;"/></g></g><g><path d="M96.9,77.4c-1.4,-3.5 -3.7,-6.5 -6.6,-8.7c-3,-2.2 -6.5,-3.6 -10.2,-3.8l-7.7,-3.9c-0.3,-0.1 -0.7,-0.2 -1,-0.2c-1.4,0 -2.5,1.2 -2.5,2.8c0,1 0.5,1.9 1,2.9c0.1,0.1 0.1,0.3 0.2,0.4c-3.2,1.6 -5.9,4.1 -7.9,7.1l-5.2,-3.3c0,0 -0.1,0 -0.1,-0.1c-0.3,-0.1 -0.5,-0.2 -0.8,-0.2c-1.1,0 -2,0.9 -2,2.2c0,1.4 1.6,3.9 2.4,5c-0.8,1.1 -2.4,3.6 -2.4,5c0,1.2 0.8,2.2 2,2.2c0.3,0 0.6,-0.1 0.8,-0.2c0,0 0.1,0 0.1,-0.1l5.2,-3.2c1.9,3 4.6,5.5 7.8,7.1c-0.1,0.1 -0.1,0.2 -0.2,0.3c-0.5,1 -1,1.8 -1,2.8c0,1.6 1.1,2.8 2.5,2.8c0.3,0 0.7,-0.1 1,-0.2l7.1,-3.6c7.8,-0.3 14.6,-5.2 17.5,-12.5c0.1,-0.2 0.1,-0.4 0,-0.6Zm-10.8,10c-2.2,-2.3 -3.5,-5.9 -3.5,-9.9c0,-1.8 0.3,-3.5 0.8,-5.2c0.1,-0.4 -0.1,-0.9 -0.5,-1c-0.4,-0.1 -0.9,0.1 -1,0.5c-0.6,1.8 -0.9,3.7 -0.9,5.6c0,4.1 1.3,7.9 3.5,10.5c-1.7,0.6 -3.4,0.9 -5.2,1c-0.1,0 -0.2,0 -0.3,0.1l-7.2,3.7c-0.1,0.1 -0.3,0.1 -0.4,0.1c-0.5,0 -0.9,-0.5 -0.9,-1.2c0,-0.6 0.3,-1.2 0.8,-2.1c0.2,-0.3 0.3,-0.7 0.5,-1.1c0.1,-0.2 0.1,-0.4 0,-0.6c-0.1,-0.2 -0.2,-0.4 -0.4,-0.4c-3.4,-1.6 -6.3,-4.1 -8.2,-7.5c-0.1,-0.2 -0.3,-0.3 -0.5,-0.4c-0.1,0 -0.1,0 -0.2,0c-0.1,0 -0.3,0 -0.4,0.1l-5.8,3.6c-0.1,0 -0.1,0 -0.2,0c-0.2,0 -0.4,-0.2 -0.4,-0.6c0,-0.9 1.4,-3.2 2.4,-4.6c0.2,-0.3 0.2,-0.7 0,-0.9c-1,-1.4 -2.4,-3.7 -2.4,-4.6c0,-0.3 0.2,-0.6 0.4,-0.6c0,0 0.1,0 0.2,0l5.8,3.6c0.2,0.1 0.4,0.1 0.6,0.1c0.2,0 0.4,-0.2 0.5,-0.4c1.9,-3.3 4.9,-6 8.3,-7.5c0.2,-0.1 0.3,-0.3 0.4,-0.5c0.1,-0.2 0.1,-0.4 0,-0.6c-0.2,-0.4 -0.4,-0.8 -0.6,-1.2c-0.5,-0.9 -0.8,-1.5 -0.8,-2.2c0,-0.7 0.4,-1.2 0.9,-1.2c0.1,0 0.3,0 0.4,0.1l7.7,3.9c0.1,0 0.2,0.1 0.3,0.1c1.5,0.1 3,0.4 4.5,0.9c-0.4,0.5 -0.7,1 -1.1,1.5c-0.2,0.4 -0.1,0.9 0.3,1.1c0.1,0.1 0.3,0.1 0.4,0.1c0.3,0 0.5,-0.1 0.7,-0.4c0.4,-0.6 0.8,-1.2 1.3,-1.7c1.2,0.5 2.4,1.2 3.5,2c2.7,2 4.7,4.7 6,7.7c-1.9,4.8 -5.3,8.2 -9.3,10.1Z" style="fill:#b2b2b2;fill-rule:nonzero;"/><path d="M88.2,73c-1.3,0 -2.4,1.1 -2.4,2.4c0,1.3 1.1,2.4 2.4,2.4c1.3,0 2.4,-1.1 2.4,-2.4c0,-1.3 -1.1,-2.4 -2.4,-2.4Zm0,3.1c-0.4,0 -0.8,-0.3 -0.8,-0.8c0,-0.5 0.3,-0.8 0.8,-0.8c0.5,0 0.8,0.3 0.8,0.8c0,0.5 -0.3,0.8 -0.8,0.8Z" style="fill:#b2b2b2;fill-rule:nonzero;"/></g><g><path d="M151,77.4c-1.4,-3.5 -3.7,-6.5 -6.6,-8.7c-3,-2.2 -6.5,-3.6 -10.2,-3.8l-7.6,-3.9c-0.3,-0.1 -0.7,-0.2 -1,-0.2c-1.4,0 -2.5,1.2 -2.5,2.8c0,1 0.5,1.9 1,2.9c0.1,0.1 0.1,0.3 0.2,0.4c-3.2,1.6 -5.9,4.1 -7.9,7.1l-5.2,-3.2c0,0 -0.1,0 -0.1,-0.1c-0.3,-0.1 -0.5,-0.2 -0.8,-0.2c-1.1,0 -2,0.9 -2,2.2c0,1.4 1.6,3.9 2.4,5c-0.8,1.1 -2.4,3.6 -2.4,5c0,1.2 0.8,2.2 2,2.2c0.3,0 0.6,-0.1 0.8,-0.2c0,0 0.1,0 0.1,-0.1l5.2,-3.2c1.9,3 4.6,5.5 7.8,7.1c-0.1,0.1 -0.1,0.2 -0.2,0.3c-0.5,1 -1,1.8 -1,2.8c0,1.6 1.1,2.8 2.5,2.8c0.3,0 0.7,-0.1 1,-0.2l7.1,-3.6c7.7,-0.4 14.5,-5.3 17.4,-12.6c0.1,-0.2 0.1,-0.4 0,-0.6Zm-10.9,10c-2.2,-2.3 -3.5,-5.9 -3.5,-9.9c0,-1.8 0.3,-3.5 0.8,-5.2c0.1,-0.4 -0.1,-0.9 -0.5,-1c-0.4,-0.1 -0.9,0.1 -1,0.5c-0.6,1.8 -0.9,3.7 -0.9,5.6c0,4.1 1.3,7.9 3.5,10.5c-1.7,0.6 -3.4,0.9 -5.2,1c-0.1,0 -0.2,0 -0.3,0.1l-7.2,3.7c-0.1,0.1 -0.3,0.1 -0.4,0.1c-0.5,0 -0.9,-0.5 -0.9,-1.2c0,-0.6 0.3,-1.2 0.8,-2.1c0.2,-0.3 0.3,-0.7 0.5,-1.1c0.1,-0.2 0.1,-0.4 0,-0.6c-0.1,-0.2 -0.2,-0.4 -0.4,-0.4c-3.4,-1.6 -6.3,-4.1 -8.2,-7.5c-0.1,-0.2 -0.3,-0.3 -0.5,-0.4c-0.1,0 -0.1,0 -0.2,0c-0.1,0 -0.3,0 -0.4,0.1l-5.8,3.6c-0.1,0 -0.1,0 -0.2,0c-0.2,0 -0.4,-0.2 -0.4,-0.6c0,-0.9 1.4,-3.2 2.4,-4.6c0.2,-0.3 0.2,-0.7 0,-0.9c-1,-1.4 -2.4,-3.7 -2.4,-4.6c0,-0.3 0.2,-0.6 0.4,-0.6c0,0 0.1,0 0.2,0l5.8,3.6c0.2,0.1 0.4,0.1 0.6,0.1c0.2,0 0.4,-0.2 0.5,-0.4c1.9,-3.3 4.9,-6 8.3,-7.5c0.2,-0.1 0.3,-0.3 0.4,-0.5c0.1,-0.2 0.1,-0.4 0,-0.6c-0.2,-0.4 -0.4,-0.8 -0.6,-1.2c-0.5,-0.9 -0.8,-1.5 -0.8,-2.2c0,-0.7 0.4,-1.2 0.9,-1.2c0.1,0 0.3,0 0.4,0.1l7.7,3.9c0.1,0 0.2,0.1 0.3,0.1c1.5,0.1 3,0.4 4.5,0.9c-0.4,0.5 -0.7,1 -1.1,1.5c-0.2,0.4 -0.1,0.9 0.3,1.1c0.1,0.1 0.3,0.1 0.4,0.1c0.3,0 0.5,-0.1 0.7,-0.4c0.4,-0.6 0.8,-1.2 1.3,-1.7c1.2,0.5 2.4,1.2 3.5,2c2.7,2 4.7,4.7 6,7.7c-1.8,4.8 -5.2,8.2 -9.3,10.1Z" style="fill:#b2b2b2;fill-rule:nonzero;"/><path d="M142.3,73c-1.3,0 -2.4,1.1 -2.4,2.4c0,1.3 1.1,2.4 2.4,2.4c1.3,0 2.4,-1.1 2.4,-2.4c0,-1.3 -1.1,-2.4 -2.4,-2.4Zm0,3.1c-0.4,0 -0.8,-0.3 -0.8,-0.8c0,-0.5 0.3,-0.8 0.8,-0.8c0.4,0 0.8,0.3 0.8,0.8c0,0.5 -0.4,0.8 -0.8,0.8Z" style="fill:#b2b2b2;fill-rule:nonzero;"/></g><g><path d="M205.1,77.4c-1.4,-3.5 -3.7,-6.5 -6.6,-8.7c-3,-2.2 -6.5,-3.6 -10.2,-3.8l-7.6,-3.9c-0.3,-0.1 -0.7,-0.2 -1,-0.2c-1.4,0 -2.5,1.2 -2.5,2.8c0,1 0.5,1.9 1,2.9c0.1,0.1 0.1,0.3 0.2,0.4c-3.2,1.6 -5.9,4.1 -7.9,7.1l-5.2,-3.2c0,0 -0.1,0 -0.1,-0.1c-0.3,-0.1 -0.5,-0.2 -0.8,-0.2c-1.1,0 -2,0.9 -2,2.2c0,1.4 1.6,3.9 2.4,5c-0.8,1.1 -2.4,3.6 -2.4,5c0,1.2 0.8,2.2 2,2.2c0.3,0 0.6,-0.1 0.8,-0.2c0,0 0.1,0 0.1,-0.1l5.2,-3.2c1.9,3 4.6,5.5 7.8,7.1c-0.1,0.1 -0.1,0.2 -0.2,0.3c-0.5,1 -1,1.8 -1,2.8c0,1.6 1.1,2.8 2.5,2.8c0.3,0 0.7,-0.1 1,-0.2l7.1,-3.6c7.7,-0.4 14.5,-5.3 17.4,-12.6c0,-0.2 0,-0.4 0,-0.6Zm-10.9,10c-2.2,-2.3 -3.5,-5.9 -3.5,-9.9c0,-1.8 0.3,-3.5 0.8,-5.2c0.1,-0.4 -0.1,-0.9 -0.5,-1c-0.4,-0.1 -0.9,0.1 -1,0.5c-0.6,1.8 -0.9,3.7 -0.9,5.6c0,4.1 1.3,7.9 3.5,10.5c-1.7,0.6 -3.4,0.9 -5.2,1c-0.1,0 -0.2,0 -0.3,0.1l-7.2,3.7c-0.1,0.1 -0.3,0.1 -0.4,0.1c-0.5,0 -0.9,-0.5 -0.9,-1.2c0,-0.6 0.3,-1.2 0.8,-2.1c0.2,-0.3 0.3,-0.7 0.5,-1.1c0.1,-0.2 0.1,-0.4 0,-0.6c-0.1,-0.2 -0.2,-0.4 -0.4,-0.4c-3.4,-1.6 -6.3,-4.1 -8.2,-7.5c-0.1,-0.2 -0.3,-0.3 -0.5,-0.4c-0.1,0 -0.1,0 -0.2,0c-0.1,0 -0.3,0 -0.4,0.1l-5.8,3.6c-0.1,0 -0.1,0 -0.2,0c-0.2,0 -0.4,-0.2 -0.4,-0.6c0,-0.9 1.4,-3.2 2.4,-4.6c0.2,-0.3 0.2,-0.7 0,-0.9c-1,-1.4 -2.4,-3.7 -2.4,-4.6c0,-0.3 0.2,-0.6 0.4,-0.6c0,0 0.1,0 0.2,0l5.8,3.6c0.2,0.1 0.4,0.1 0.6,0.1c0.2,0 0.4,-0.2 0.5,-0.4c1.9,-3.3 4.9,-6 8.3,-7.5c0.2,-0.1 0.3,-0.3 0.4,-0.5c0.1,-0.2 0.1,-0.4 0,-0.6c-0.2,-0.4 -0.4,-0.8 -0.6,-1.2c-0.5,-0.9 -0.8,-1.5 -0.8,-2.2c0,-0.7 0.4,-1.2 0.9,-1.2c0.1,0 0.3,0 0.4,0.1l7.7,3.9c0.1,0 0.2,0.1 0.3,0.1c1.5,0.1 3,0.4 4.5,0.9c-0.4,0.5 -0.7,1 -1.1,1.5c-0.2,0.4 -0.1,0.9 0.3,1.1c0.1,0.1 0.3,0.1 0.4,0.1c0.3,0 0.5,-0.1 0.7,-0.4c0.4,-0.6 0.8,-1.2 1.3,-1.7c1.2,0.5 2.4,1.2 3.5,2c2.7,2 4.7,4.7 6,7.7c-1.8,4.8 -5.2,8.2 -9.3,10.1Z" style="fill:#b2b2b2;fill-rule:nonzero;"/><path d="M196.4,73c-1.3,0 -2.4,1.1 -2.4,2.4c0,1.3 1.1,2.4 2.4,2.4c1.3,0 2.4,-1.1 2.4,-2.4c0,-1.3 -1.1,-2.4 -2.4,-2.4Zm0,3.1c-0.4,0 -0.8,-0.3 -0.8,-0.8c0,-0.5 0.3,-0.8 0.8,-0.8c0.5,0 0.8,0.3 0.8,0.8c0,0.5 -0.4,0.8 -0.8,0.8Z" style="fill:#b2b2b2;fill-rule:nonzero;"/></g><g><path d="M259.1,77.4c-1.4,-3.5 -3.7,-6.5 -6.6,-8.7c-3,-2.2 -6.5,-3.6 -10.2,-3.8l-7.6,-3.9c-0.3,-0.1 -0.7,-0.2 -1,-0.2c-1.4,0 -2.5,1.2 -2.5,2.8c0,1 0.5,1.9 1,2.9c0.1,0.1 0.1,0.3 0.2,0.4c-3.2,1.6 -5.9,4.1 -7.9,7.1l-5.2,-3.2c0,0 -0.1,0 -0.1,-0.1c-0.3,-0.1 -0.5,-0.2 -0.8,-0.2c-1.1,0 -2,0.9 -2,2.2c0,1.4 1.6,3.9 2.4,5c-0.8,1.1 -2.4,3.6 -2.4,5c0,1.2 0.8,2.2 2,2.2c0.3,0 0.6,-0.1 0.8,-0.2c0,0 0.1,0 0.1,-0.1l5.2,-3.2c1.9,3 4.6,5.5 7.8,7.1c-0.1,0.1 -0.1,0.2 -0.2,0.3c-0.5,1 -1,1.8 -1,2.8c0,1.6 1.1,2.8 2.5,2.8c0.3,0 0.7,-0.1 1,-0.2l7.1,-3.6c7.7,-0.4 14.5,-5.3 17.4,-12.6c0.1,-0.2 0.1,-0.4 0,-0.6Zm-10.8,10c-2.2,-2.3 -3.5,-5.9 -3.5,-9.9c0,-1.8 0.3,-3.5 0.8,-5.2c0.1,-0.4 -0.1,-0.9 -0.5,-1c-0.4,-0.1 -0.9,0.1 -1,0.5c-0.6,1.8 -0.9,3.7 -0.9,5.6c0,4.1 1.3,7.9 3.5,10.5c-1.7,0.6 -3.4,0.9 -5.2,1c-0.1,0 -0.2,0 -0.3,0.1l-7.2,3.7c-0.1,0.1 -0.3,0.1 -0.4,0.1c-0.5,0 -0.9,-0.5 -0.9,-1.2c0,-0.6 0.3,-1.2 0.8,-2.1c0.2,-0.3 0.3,-0.7 0.5,-1.1c0.1,-0.2 0.1,-0.4 0,-0.6c-0.1,-0.2 -0.2,-0.4 -0.4,-0.4c-3.4,-1.6 -6.3,-4.1 -8.2,-7.5c-0.1,-0.2 -0.3,-0.3 -0.5,-0.4c-0.1,0 -0.1,0 -0.2,0c-0.1,0 -0.3,0 -0.4,0.1l-5.8,3.6c-0.1,0 -0.1,0 -0.2,0c-0.2,0 -0.4,-0.2 -0.4,-0.6c0,-0.9 1.4,-3.2 2.4,-4.6c0.2,-0.3 0.2,-0.7 0,-0.9c-1,-1.4 -2.4,-3.7 -2.4,-4.6c0,-0.3 0.2,-0.6 0.4,-0.6c0,0 0.1,0 0.2,0l5.8,3.6c0.2,0.1 0.4,0.1 0.6,0.1c0.2,0 0.4,-0.2 0.5,-0.4c1.9,-3.3 4.9,-6 8.3,-7.5c0.2,-0.1 0.3,-0.3 0.4,-0.5c0.1,-0.2 0.1,-0.4 0,-0.6c-0.2,-0.4 -0.4,-0.8 -0.6,-1.2c-0.5,-0.9 -0.8,-1.5 -0.8,-2.2c0,-0.7 0.4,-1.2 0.9,-1.2c0.1,0 0.3,0 0.4,0.1l7.7,3.9c0.1,0 0.2,0.1 0.3,0.1c1.5,0.1 3,0.4 4.5,0.9c-0.4,0.5 -0.7,1 -1.1,1.5c-0.2,0.4 -0.1,0.9 0.3,1.1c0.1,0.1 0.3,0.1 0.4,0.1c0.3,0 0.5,-0.1 0.7,-0.4c0.4,-0.6 0.8,-1.2 1.3,-1.7c1.2,0.5 2.4,1.2 3.5,2c2.7,2 4.7,4.7 6,7.7c-1.9,4.8 -5.2,8.2 -9.3,10.1Z" style="fill:#b2b2b2;fill-rule:nonzero;"/><path d="M250.5,73c-1.3,0 -2.4,1.1 -2.4,2.4c0,1.3 1.1,2.4 2.4,2.4c1.3,0 2.4,-1.1 2.4,-2.4c0,-1.3 -1.1,-2.4 -2.4,-2.4Zm0,3.1c-0.4,0 -0.8,-0.3 -0.8,-0.8c0,-0.5 0.3,-0.8 0.8,-0.8c0.5,0 0.8,0.3 0.8,0.8c0,0.5 -0.4,0.8 -0.8,0.8Z" style="fill:#b2b2b2;fill-rule:nonzero;"/></g><g><path d="M189.3,108.4c2.9,7.3 9.7,12.2 17.4,12.6l7.1,3.6c0.3,0.1 0.7,0.2 1,0.2c1.4,0 2.5,-1.2 2.5,-2.8c0,-1 -0.4,-1.8 -1,-2.8c-0.1,-0.1 -0.1,-0.2 -0.2,-0.3c3.2,-1.6 5.8,-4 7.8,-7.1l5.2,3.2c0,0 0.1,0 0.1,0.1c0.3,0.1 0.5,0.2 0.8,0.2c1.1,0 2,-0.9 2,-2.2c0,-1.4 -1.6,-3.9 -2.4,-5c0.8,-1.1 2.4,-3.6 2.4,-5c0,-1.2 -0.8,-2.2 -2,-2.2c-0.3,0 -0.6,0.1 -0.8,0.2c0,0 -0.1,0 -0.1,0.1l-5.2,3.2c-1.9,-3 -4.7,-5.5 -7.9,-7.1c0.1,-0.1 0.1,-0.3 0.2,-0.4c0.5,-1 1,-1.9 1,-2.9c0,-1.6 -1.1,-2.8 -2.5,-2.8c-0.3,0 -0.7,0.1 -1,0.2l-7.6,3.9c-3.7,0.3 -7.2,1.6 -10.2,3.8c-3,2.2 -5.3,5.2 -6.6,8.7c0,0.2 0,0.4 0,0.6Zm1.6,-0.3c1.3,-3.1 3.3,-5.8 6,-7.7c1.1,-0.8 2.2,-1.5 3.5,-2c0.5,0.5 0.9,1.1 1.3,1.7c0.1,0.3 0.4,0.4 0.7,0.4c0.1,0 0.3,0 0.4,-0.1c0.4,-0.2 0.5,-0.7 0.3,-1.1c-0.3,-0.6 -0.7,-1.1 -1.1,-1.5c1.4,-0.5 3,-0.8 4.5,-0.9c0.1,0 0.2,0 0.3,-0.1l7.7,-3.9c0.1,-0.1 0.3,-0.1 0.4,-0.1c0.5,0 0.9,0.5 0.9,1.2c0,0.6 -0.3,1.3 -0.8,2.2c-0.2,0.3 -0.4,0.7 -0.6,1.2c-0.1,0.2 -0.1,0.4 0,0.6c0.1,0.2 0.2,0.4 0.4,0.5c3.4,1.5 6.4,4.2 8.3,7.5c0.1,0.2 0.3,0.3 0.5,0.4c0.2,0.1 0.4,0 0.6,-0.1l5.8,-3.6c0.1,0 0.1,0 0.2,0c0.2,0 0.4,0.2 0.4,0.6c0,0.9 -1.4,3.2 -2.4,4.6c-0.2,0.3 -0.2,0.7 0,0.9c1,1.4 2.4,3.7 2.4,4.6c0,0.3 -0.2,0.6 -0.4,0.6c0,0 -0.1,0 -0.2,0l-5.8,-3.6c-0.1,-0.1 -0.3,-0.1 -0.4,-0.1c-0.1,0 -0.1,0 -0.2,0c-0.2,0.1 -0.4,0.2 -0.5,0.4c-1.9,3.3 -4.8,5.9 -8.2,7.5c-0.2,0.1 -0.3,0.2 -0.4,0.4c-0.1,0.2 -0.1,0.4 0,0.6c0.2,0.4 0.4,0.7 0.5,1.1c0.5,0.9 0.8,1.5 0.8,2.1c0,0.7 -0.4,1.2 -0.9,1.2c-0.1,0 -0.3,0 -0.4,-0.1l-7.2,-3.7c-0.1,-0.1 -0.2,-0.1 -0.3,-0.1c-1.8,-0.1 -3.5,-0.4 -5.2,-1c2.2,-2.6 3.5,-6.4 3.5,-10.5c0,-2 -0.3,-3.9 -0.9,-5.6c-0.1,-0.4 -0.6,-0.6 -1,-0.5c-0.4,0.1 -0.6,0.6 -0.5,1c0.5,1.6 0.8,3.4 0.8,5.2c0,3.9 -1.3,7.6 -3.5,9.9c-4.1,-2.3 -7.5,-5.7 -9.3,-10.1Z" style="fill:#b2b2b2;fill-rule:nonzero;"/><path d="M195.7,105.7c0,1.3 1.1,2.4 2.4,2.4c1.3,0 2.4,-1.1 2.4,-2.4c0,-1.3 -1.1,-2.4 -2.4,-2.4c-1.4,0 -2.4,1.1 -2.4,2.4Zm1.5,0c0,-0.4 0.3,-0.8 0.8,-0.8c0.4,0 0.8,0.3 0.8,0.8c0,0.5 -0.3,0.8 -0.8,0.8c-0.4,0 -0.8,-0.4 -0.8,-0.8Z" style="fill:#b2b2b2;fill-rule:nonzero;"/></g><g><path d="M135.3,108.4c2.9,7.3 9.7,12.2 17.4,12.6l7.1,3.6c0.3,0.1 0.7,0.2 1,0.2c1.4,0 2.5,-1.2 2.5,-2.8c0,-1 -0.4,-1.8 -1,-2.8c-0.1,-0.1 -0.1,-0.2 -0.2,-0.3c3.2,-1.6 5.8,-4 7.8,-7.1l5.2,3.2c0,0 0.1,0 0.1,0.1c0.3,0.1 0.5,0.2 0.8,0.2c1.1,0 2,-0.9 2,-2.2c0,-1.4 -1.6,-3.9 -2.4,-5c0.8,-1.1 2.4,-3.6 2.4,-5c0,-1.2 -0.8,-2.2 -2,-2.2c-0.3,0 -0.6,0.1 -0.8,0.2c0,0 -0.1,0 -0.1,0.1l-5.2,3.2c-1.9,-3 -4.7,-5.5 -7.9,-7.1c0.1,-0.1 0.1,-0.3 0.2,-0.4c0.5,-1 1,-1.9 1,-2.9c0,-1.6 -1.1,-2.8 -2.5,-2.8c-0.3,0 -0.7,0.1 -1,0.2l-7.6,3.9c-3.7,0.3 -7.2,1.6 -10.2,3.8c-3,2.2 -5.3,5.2 -6.6,8.7c-0.1,0.2 -0.1,0.4 0,0.6Zm1.6,-0.3c1.3,-3.1 3.3,-5.8 6,-7.7c1.1,-0.8 2.2,-1.5 3.5,-2c0.5,0.5 0.9,1.1 1.3,1.7c0.1,0.3 0.4,0.4 0.7,0.4c0.1,0 0.3,0 0.4,-0.1c0.4,-0.2 0.5,-0.7 0.3,-1.1c-0.3,-0.6 -0.7,-1.1 -1.1,-1.5c1.4,-0.5 3,-0.8 4.5,-0.9c0.1,0 0.2,0 0.3,-0.1l7.7,-3.9c0.1,-0.1 0.3,-0.1 0.4,-0.1c0.5,0 0.9,0.5 0.9,1.2c0,0.6 -0.3,1.3 -0.8,2.2c-0.2,0.3 -0.4,0.7 -0.6,1.2c-0.1,0.2 -0.1,0.4 0,0.6c0.1,0.2 0.2,0.4 0.4,0.5c3.4,1.5 6.4,4.2 8.3,7.5c0.1,0.2 0.3,0.3 0.5,0.4c0.2,0.1 0.4,0 0.6,-0.1l5.8,-3.6c0.1,0 0.1,0 0.2,0c0.2,0 0.4,0.2 0.4,0.6c0,0.9 -1.4,3.2 -2.4,4.6c-0.2,0.3 -0.2,0.7 0,0.9c1,1.4 2.4,3.7 2.4,4.6c0,0.3 -0.2,0.6 -0.4,0.6c0,0 -0.1,0 -0.2,0l-5.8,-3.6c-0.1,-0.1 -0.3,-0.1 -0.4,-0.1c-0.1,0 -0.1,0 -0.2,0c-0.2,0.1 -0.4,0.2 -0.5,0.4c-1.9,3.3 -4.8,5.9 -8.2,7.5c-0.2,0.1 -0.3,0.2 -0.4,0.4c-0.1,0.2 -0.1,0.4 0,0.6c0.2,0.4 0.4,0.7 0.5,1.1c0.5,0.9 0.8,1.5 0.8,2.1c0,0.7 -0.4,1.2 -0.9,1.2c-0.1,0 -0.3,0 -0.4,-0.1l-7.2,-3.7c-0.1,-0.1 -0.2,-0.1 -0.3,-0.1c-1.8,-0.1 -3.5,-0.4 -5.2,-1c2.2,-2.6 3.5,-6.4 3.5,-10.5c0,-2 -0.3,-3.9 -0.9,-5.6c-0.1,-0.4 -0.6,-0.6 -1,-0.5c-0.4,0.1 -0.6,0.6 -0.5,1c0.5,1.6 0.8,3.4 0.8,5.2c0,3.9 -1.3,7.6 -3.5,9.9c-4.2,-2.3 -7.5,-5.7 -9.3,-10.1Z" style="fill:#b2b2b2;fill-rule:nonzero;"/><path d="M141.6,105.7c0,1.3 1.1,2.4 2.4,2.4c1.3,0 2.4,-1.1 2.4,-2.4c0,-1.3 -1.1,-2.4 -2.4,-2.4c-1.4,0 -2.4,1.1 -2.4,2.4Zm1.6,0c0,-0.4 0.3,-0.8 0.8,-0.8c0.5,0 0.8,0.3 0.8,0.8c0,0.5 -0.3,0.8 -0.8,0.8c-0.5,0 -0.8,-0.4 -0.8,-0.8Z" style="fill:#b2b2b2;fill-rule:nonzero;"/></g><g><path d="M81.2,108.4c2.9,7.3 9.7,12.2 17.4,12.6l7.1,3.6c0.3,0.1 0.7,0.2 1,0.2c1.4,0 2.5,-1.2 2.5,-2.8c0,-1 -0.4,-1.8 -1,-2.8c-0.1,-0.1 -0.1,-0.2 -0.2,-0.3c3.2,-1.6 5.8,-4 7.8,-7.1l5.2,3.2c0,0 0.1,0 0.1,0.1c0.3,0.1 0.5,0.2 0.8,0.2c1.1,0 2,-0.9 2,-2.2c0,-1.4 -1.6,-3.9 -2.4,-5c0.8,-1.1 2.4,-3.6 2.4,-5c0,-1.2 -0.8,-2.2 -2,-2.2c-0.3,0 -0.6,0.1 -0.8,0.2c0,0 -0.1,0 -0.1,0.1l-5.2,3.2c-1.9,-3 -4.7,-5.5 -7.9,-7.1c0.1,-0.1 0.1,-0.3 0.2,-0.4c0.5,-1 1,-1.9 1,-2.9c0,-1.6 -1.1,-2.8 -2.5,-2.8c-0.3,0 -0.7,0.1 -1,0.2l-7.6,3.9c-3.7,0.3 -7.2,1.6 -10.2,3.8c-3,2.2 -5.3,5.2 -6.6,8.7c-0.1,0.2 -0.1,0.4 0,0.6Zm1.6,-0.3c1.3,-3.1 3.3,-5.8 6,-7.7c1.1,-0.8 2.2,-1.5 3.5,-2c0.5,0.5 0.9,1.1 1.3,1.7c0.1,0.3 0.4,0.4 0.7,0.4c0.1,0 0.3,0 0.4,-0.1c0.4,-0.2 0.5,-0.7 0.3,-1.1c-0.3,-0.6 -0.7,-1.1 -1.1,-1.5c1.4,-0.5 3,-0.8 4.5,-0.9c0.1,0 0.2,0 0.3,-0.1l7.7,-3.9c0.1,-0.1 0.3,-0.1 0.4,-0.1c0.5,0 0.9,0.5 0.9,1.2c0,0.6 -0.3,1.3 -0.8,2.2c-0.2,0.3 -0.4,0.7 -0.6,1.2c-0.1,0.2 -0.1,0.4 0,0.6c0.1,0.2 0.2,0.4 0.4,0.5c3.4,1.5 6.4,4.2 8.3,7.5c0.1,0.2 0.3,0.3 0.5,0.4c0.2,0.1 0.4,0 0.6,-0.1l5.8,-3.6c0.1,0 0.1,0 0.2,0c0.2,0 0.4,0.2 0.4,0.6c0,0.9 -1.4,3.2 -2.4,4.6c-0.2,0.3 -0.2,0.7 0,0.9c1,1.4 2.4,3.7 2.4,4.6c0,0.3 -0.2,0.6 -0.4,0.6c0,0 -0.1,0 -0.2,0l-5.8,-3.6c-0.1,-0.1 -0.3,-0.1 -0.4,-0.1c-0.1,0 -0.1,0 -0.2,0c-0.2,0.1 -0.4,0.2 -0.5,0.4c-1.9,3.3 -4.8,5.9 -8.2,7.5c-0.2,0.1 -0.3,0.2 -0.4,0.4c-0.1,0.2 -0.1,0.4 0,0.6c0.2,0.4 0.4,0.7 0.5,1.1c0.5,0.9 0.8,1.5 0.8,2.1c0,0.7 -0.4,1.2 -0.9,1.2c-0.1,0 -0.3,0 -0.4,-0.1l-7.2,-3.7c-0.1,-0.1 -0.2,-0.1 -0.3,-0.1c-1.8,-0.1 -3.5,-0.4 -5.2,-1c2.2,-2.6 3.5,-6.4 3.5,-10.5c0,-2 -0.3,-3.9 -0.9,-5.6c-0.1,-0.4 -0.6,-0.6 -1,-0.5c-0.4,0.1 -0.6,0.6 -0.5,1c0.5,1.6 0.8,3.4 0.8,5.2c0,3.9 -1.3,7.6 -3.5,9.9c-4.2,-2.3 -7.5,-5.7 -9.3,-10.1Z" style="fill:#b2b2b2;fill-rule:nonzero;"/><path d="M87.5,105.7c0,1.3 1.1,2.4 2.4,2.4c1.3,0 2.4,-1.1 2.4,-2.4c0,-1.3 -1.1,-2.4 -2.4,-2.4c-1.3,0 -2.4,1.1 -2.4,2.4Zm1.6,0c0,-0.4 0.3,-0.8 0.8,-0.8c0.5,0 0.8,0.3 0.8,0.8c0,0.5 -0.3,0.8 -0.8,0.8c-0.5,0 -0.8,-0.4 -0.8,-0.8Z" style="fill:#b2b2b2;fill-rule:nonzero;"/></g><g><path d="M27.1,108.4c2.9,7.3 9.7,12.2 17.4,12.6l7.1,3.6c0.3,0.1 0.7,0.2 1,0.2c1.4,0 2.5,-1.2 2.5,-2.8c0,-1 -0.4,-1.8 -1,-2.8c-0.1,-0.1 -0.1,-0.2 -0.2,-0.3c3.2,-1.6 5.8,-4 7.8,-7.1l5.2,3.2c0,0 0.1,0 0.1,0.1c0.3,0.1 0.5,0.2 0.8,0.2c1.1,0 2,-0.9 2,-2.2c0,-1.4 -1.6,-3.9 -2.4,-5c0.8,-1.1 2.4,-3.6 2.4,-5c0,-1.2 -0.8,-2.2 -2,-2.2c-0.3,0 -0.6,0.1 -0.8,0.2c0,0 -0.1,0 -0.1,0.1l-5.2,3.2c-1.9,-3 -4.7,-5.5 -7.9,-7.1c0.1,-0.1 0.1,-0.3 0.2,-0.4c0.5,-1 1,-1.9 1,-2.9c0,-1.6 -1.1,-2.8 -2.5,-2.8c-0.3,0 -0.7,0.1 -1,0.2l-7.6,3.9c-3.7,0.3 -7.2,1.6 -10.2,3.8c-3,2.2 -5.3,5.2 -6.6,8.7c-0.1,0.2 -0.1,0.4 0,0.6Zm1.6,-0.3c1.3,-3.1 3.3,-5.8 6,-7.7c1.1,-0.8 2.2,-1.5 3.5,-2c0.5,0.5 0.9,1.1 1.3,1.7c0.1,0.3 0.4,0.4 0.7,0.4c0.1,0 0.3,0 0.4,-0.1c0.4,-0.2 0.5,-0.7 0.3,-1.1c-0.3,-0.6 -0.7,-1.1 -1.1,-1.5c1.4,-0.5 3,-0.8 4.5,-0.9c0.1,0 0.2,0 0.3,-0.1l7.7,-3.9c0.1,-0.1 0.3,-0.1 0.4,-0.1c0.5,0 0.9,0.5 0.9,1.2c0,0.6 -0.3,1.3 -0.8,2.2c-0.2,0.3 -0.4,0.7 -0.6,1.2c-0.1,0.2 -0.1,0.4 0,0.6c0.1,0.2 0.2,0.4 0.4,0.5c3.4,1.5 6.4,4.2 8.3,7.5c0.1,0.2 0.3,0.3 0.5,0.4c0.2,0.1 0.4,0 0.6,-0.1l5.8,-3.6c0.1,0 0.1,0 0.2,0c0.2,0 0.4,0.2 0.4,0.6c0,0.9 -1.4,3.2 -2.4,4.6c-0.2,0.3 -0.2,0.7 0,0.9c1,1.4 2.4,3.7 2.4,4.6c0,0.3 -0.2,0.6 -0.4,0.6c0,0 -0.1,0 -0.2,0l-5.8,-3.6c-0.1,-0.1 -0.3,-0.1 -0.4,-0.1c-0.1,0 -0.1,0 -0.2,0c-0.2,0.1 -0.4,0.2 -0.5,0.4c-1.9,3.3 -4.8,5.9 -8.2,7.5c-0.2,0.1 -0.3,0.2 -0.4,0.4c-0.1,0.2 -0.1,0.4 0,0.6c0.2,0.4 0.4,0.7 0.5,1.1c0.5,0.9 0.8,1.5 0.8,2.1c0,0.7 -0.4,1.2 -0.9,1.2c-0.1,0 -0.3,0 -0.4,-0.1l-7.2,-3.7c-0.1,-0.1 -0.2,-0.1 -0.3,-0.1c-1.8,-0.1 -3.5,-0.4 -5.2,-1c2.2,-2.6 3.5,-6.4 3.5,-10.5c0,-2 -0.3,-3.9 -0.9,-5.6c-0.1,-0.4 -0.6,-0.6 -1,-0.5c-0.4,0.1 -0.6,0.6 -0.5,1c0.5,1.6 0.8,3.4 0.8,5.2c0,3.9 -1.3,7.6 -3.5,9.9c-4.2,-2.3 -7.5,-5.7 -9.3,-10.1Z" style="fill:#b2b2b2;fill-rule:nonzero;"/><path d="M33.4,105.7c0,1.3 1.1,2.4 2.4,2.4c1.3,0 2.4,-1.1 2.4,-2.4c0,-1.3 -1.1,-2.4 -2.4,-2.4c-1.3,0 -2.4,1.1 -2.4,2.4Zm1.6,0c0,-0.4 0.3,-0.8 0.8,-0.8c0.4,0 0.8,0.3 0.8,0.8c0,0.5 -0.3,0.8 -0.8,0.8c-0.5,0 -0.8,-0.4 -0.8,-0.8Z" style="fill:#b2b2b2;fill-rule:nonzero;"/></g><rect x="51" y="128.4" width="6.3" height="1.6" style="fill:#b2b2b2;"/><g><path d="M96.9,138.2c-1.4,-3.5 -3.7,-6.5 -6.6,-8.7c-3,-2.2 -6.5,-3.6 -10.2,-3.8l-7.6,-3.9c-0.3,-0.1 -0.7,-0.2 -1,-0.2c-1.4,0 -2.5,1.2 -2.5,2.8c0,1 0.5,1.9 1,2.9c0.1,0.1 0.1,0.3 0.2,0.4c-3.2,1.6 -5.9,4.1 -7.9,7.1l-5.2,-3.2c0,0 -0.1,0 -0.1,-0.1c-0.3,-0.1 -0.5,-0.2 -0.8,-0.2c-1.1,0 -2,0.9 -2,2.2c0,1.4 1.6,3.9 2.4,5c-0.8,1.1 -2.4,3.6 -2.4,5c0,1.2 0.8,2.2 2,2.2c0.3,0 0.6,-0.1 0.8,-0.2c0,0 0.1,0 0.1,-0.1l5.2,-3.2c1.9,3 4.6,5.5 7.8,7.1c-0.1,0.1 -0.1,0.2 -0.2,0.3c-0.5,1 -1,1.8 -1,2.8c0,1.6 1.1,2.8 2.5,2.8c0.3,0 0.7,-0.1 1,-0.2l7.1,-3.6c7.7,-0.4 14.5,-5.3 17.4,-12.6c0.1,-0.2 0.1,-0.4 0,-0.6Zm-10.8,10c-2.2,-2.3 -3.5,-5.9 -3.5,-9.9c0,-1.8 0.3,-3.5 0.8,-5.2c0.1,-0.4 -0.1,-0.9 -0.5,-1c-0.4,-0.1 -0.9,0.1 -1,0.5c-0.6,1.8 -0.9,3.7 -0.9,5.6c0,4.1 1.3,7.9 3.5,10.5c-1.7,0.6 -3.4,0.9 -5.2,1c-0.1,0 -0.2,0 -0.3,0.1l-7.2,3.7c-0.1,0.1 -0.3,0.1 -0.4,0.1c-0.5,0 -0.9,-0.5 -0.9,-1.2c0,-0.6 0.3,-1.2 0.8,-2.1c0.2,-0.3 0.3,-0.7 0.5,-1.1c0.1,-0.2 0.1,-0.4 0,-0.6c-0.1,-0.2 -0.2,-0.4 -0.4,-0.4c-3.4,-1.6 -6.3,-4.1 -8.2,-7.5c-0.1,-0.2 -0.3,-0.3 -0.5,-0.4c-0.1,0 -0.1,0 -0.2,0c-0.1,0 -0.3,0 -0.4,0.1l-5.8,3.6c-0.1,0 -0.1,0 -0.2,0c-0.2,0 -0.4,-0.2 -0.4,-0.6c0,-0.9 1.4,-3.2 2.4,-4.6c0.2,-0.3 0.2,-0.7 0,-0.9c-1,-1.4 -2.4,-3.7 -2.4,-4.6c0,-0.3 0.2,-0.6 0.4,-0.6c0,0 0.1,0 0.2,0l5.8,3.6c0.2,0.1 0.4,0.1 0.6,0.1c0.2,-0.1 0.4,-0.2 0.5,-0.4c1.9,-3.3 4.9,-6 8.3,-7.5c0.2,-0.1 0.3,-0.3 0.4,-0.5c0.1,-0.2 0.1,-0.4 0,-0.6c-0.2,-0.4 -0.4,-0.8 -0.6,-1.2c-0.5,-0.9 -0.8,-1.5 -0.8,-2.2c0,-0.7 0.4,-1.2 0.9,-1.2c0.1,0 0.3,0 0.4,0.1l7.7,3.9c0.1,0 0.2,0.1 0.3,0.1c1.5,0.1 3,0.4 4.5,0.9c-0.4,0.5 -0.7,1 -1.1,1.5c-0.2,0.4 -0.1,0.9 0.3,1.1c0.1,0.1 0.3,0.1 0.4,0.1c0.3,0 0.5,-0.1 0.7,-0.4c0.4,-0.6 0.8,-1.2 1.3,-1.7c1.2,0.5 2.4,1.2 3.5,2c2.7,2 4.7,4.7 6,7.7c-1.9,4.8 -5.3,8.2 -9.3,10.1Z" style="fill:#b2b2b2;fill-rule:nonzero;"/><path d="M88.2,133.7c-1.3,0 -2.4,1.1 -2.4,2.4c0,1.3 1.1,2.4 2.4,2.4c1.3,0 2.4,-1.1 2.4,-2.4c0,-1.3 -1.1,-2.4 -2.4,-2.4Zm0,3.2c-0.4,0 -0.8,-0.3 -0.8,-0.8c0,-0.4 0.3,-0.8 0.8,-0.8c0.5,0 0.8,0.3 0.8,0.8c0,0.4 -0.3,0.8 -0.8,0.8Z" style="fill:#b2b2b2;fill-rule:nonzero;"/></g><g><path d="M151,138.2c-1.4,-3.5 -3.7,-6.5 -6.6,-8.7c-3,-2.2 -6.5,-3.6 -10.2,-3.8l-7.6,-3.9c-0.3,-0.1 -0.7,-0.2 -1,-0.2c-1.4,0 -2.5,1.2 -2.5,2.8c0,1 0.5,1.9 1,2.9c0.1,0.1 0.1,0.3 0.2,0.4c-3.2,1.6 -5.9,4.1 -7.9,7.1l-5.2,-3.2c0,0 -0.1,0 -0.1,-0.1c-0.3,-0.1 -0.5,-0.2 -0.8,-0.2c-1.1,0 -2,0.9 -2,2.2c0,1.4 1.6,3.9 2.4,5c-0.8,1.1 -2.4,3.6 -2.4,5c0,1.2 0.8,2.2 2,2.2c0.3,0 0.6,-0.1 0.8,-0.2c0,0 0.1,0 0.1,-0.1l5.2,-3.2c1.9,3 4.6,5.5 7.8,7.1c-0.1,0.1 -0.1,0.2 -0.2,0.3c-0.5,1 -1,1.8 -1,2.8c0,1.6 1.1,2.8 2.5,2.8c0.3,0 0.7,-0.1 1,-0.2l7.1,-3.6c7.7,-0.4 14.5,-5.3 17.4,-12.6c0.1,-0.2 0.1,-0.4 0,-0.6Zm-10.9,10c-2.2,-2.3 -3.5,-5.9 -3.5,-9.9c0,-1.8 0.3,-3.5 0.8,-5.2c0.1,-0.4 -0.1,-0.9 -0.5,-1c-0.4,-0.1 -0.9,0.1 -1,0.5c-0.6,1.8 -0.9,3.7 -0.9,5.6c0,4.1 1.3,7.9 3.5,10.5c-1.7,0.6 -3.4,0.9 -5.2,1c-0.1,0 -0.2,0 -0.3,0.1l-7.2,3.7c-0.1,0.1 -0.3,0.1 -0.4,0.1c-0.5,0 -0.9,-0.5 -0.9,-1.2c0,-0.6 0.3,-1.2 0.8,-2.1c0.2,-0.3 0.3,-0.7 0.5,-1.1c0.1,-0.2 0.1,-0.4 0,-0.6c-0.1,-0.2 -0.2,-0.4 -0.4,-0.4c-3.4,-1.6 -6.3,-4.1 -8.2,-7.5c-0.1,-0.2 -0.3,-0.3 -0.5,-0.4c-0.1,0 -0.1,0 -0.2,0c-0.1,0 -0.3,0 -0.4,0.1l-5.8,3.6c-0.1,0 -0.1,0 -0.2,0c-0.2,0 -0.4,-0.2 -0.4,-0.6c0,-0.9 1.4,-3.2 2.4,-4.6c0.2,-0.3 0.2,-0.7 0,-0.9c-1,-1.4 -2.4,-3.7 -2.4,-4.6c0,-0.3 0.2,-0.6 0.4,-0.6c0,0 0.1,0 0.2,0l5.8,3.6c0.2,0.1 0.4,0.1 0.6,0.1c0.2,-0.1 0.4,-0.2 0.5,-0.4c1.9,-3.3 4.9,-6 8.3,-7.5c0.2,-0.1 0.3,-0.3 0.4,-0.5c0.1,-0.2 0.1,-0.4 0,-0.6c-0.2,-0.4 -0.4,-0.8 -0.6,-1.2c-0.5,-0.9 -0.8,-1.5 -0.8,-2.2c0,-0.7 0.4,-1.2 0.9,-1.2c0.1,0 0.3,0 0.4,0.1l7.7,3.9c0.1,0 0.2,0.1 0.3,0.1c1.5,0.1 3,0.4 4.5,0.9c-0.4,0.5 -0.7,1 -1.1,1.5c-0.2,0.4 -0.1,0.9 0.3,1.1c0.1,0.1 0.3,0.1 0.4,0.1c0.3,0 0.5,-0.1 0.7,-0.4c0.4,-0.6 0.8,-1.2 1.3,-1.7c1.2,0.5 2.4,1.2 3.5,2c2.7,2 4.7,4.7 6,7.7c-1.8,4.8 -5.2,8.2 -9.3,10.1Z" style="fill:#b2b2b2;fill-rule:nonzero;"/><path d="M142.3,133.7c-1.3,0 -2.4,1.1 -2.4,2.4c0,1.3 1.1,2.4 2.4,2.4c1.3,0 2.4,-1.1 2.4,-2.4c0,-1.3 -1.1,-2.4 -2.4,-2.4Zm0,3.2c-0.4,0 -0.8,-0.3 -0.8,-0.8c0,-0.4 0.3,-0.8 0.8,-0.8c0.4,0 0.8,0.3 0.8,0.8c0,0.4 -0.4,0.8 -0.8,0.8Z" style="fill:#b2b2b2;fill-rule:nonzero;"/></g><g><path d="M205.1,138.2c-1.4,-3.5 -3.7,-6.5 -6.6,-8.7c-3,-2.2 -6.5,-3.6 -10.2,-3.8l-7.6,-3.9c-0.3,-0.1 -0.7,-0.2 -1,-0.2c-1.4,0 -2.5,1.2 -2.5,2.8c0,1 0.5,1.9 1,2.9c0.1,0.1 0.1,0.3 0.2,0.4c-3.2,1.6 -5.9,4.1 -7.9,7.1l-5.2,-3.2c0,0 -0.1,0 -0.1,-0.1c-0.3,-0.1 -0.5,-0.2 -0.8,-0.2c-1.1,0 -2,0.9 -2,2.2c0,1.4 1.6,3.9 2.4,5c-0.8,1.1 -2.4,3.6 -2.4,5c0,1.2 0.8,2.2 2,2.2c0.3,0 0.6,-0.1 0.8,-0.2c0,0 0.1,0 0.1,-0.1l5.2,-3.2c1.9,3 4.6,5.5 7.8,7.1c-0.1,0.1 -0.1,0.2 -0.2,0.3c-0.5,1 -1,1.8 -1,2.8c0,1.6 1.1,2.8 2.5,2.8c0.3,0 0.7,-0.1 1,-0.2l7.1,-3.6c7.7,-0.4 14.5,-5.3 17.4,-12.6c0,-0.2 0,-0.4 0,-0.6Zm-10.9,10c-2.2,-2.3 -3.5,-5.9 -3.5,-9.9c0,-1.8 0.3,-3.5 0.8,-5.2c0.1,-0.4 -0.1,-0.9 -0.5,-1c-0.4,-0.1 -0.9,0.1 -1,0.5c-0.6,1.8 -0.9,3.7 -0.9,5.6c0,4.1 1.3,7.9 3.5,10.5c-1.7,0.6 -3.4,0.9 -5.2,1c-0.1,0 -0.2,0 -0.3,0.1l-7.2,3.7c-0.1,0.1 -0.3,0.1 -0.4,0.1c-0.5,0 -0.9,-0.5 -0.9,-1.2c0,-0.6 0.3,-1.2 0.8,-2.1c0.2,-0.3 0.3,-0.7 0.5,-1.1c0.1,-0.2 0.1,-0.4 0,-0.6c-0.1,-0.2 -0.2,-0.4 -0.4,-0.4c-3.4,-1.6 -6.3,-4.1 -8.2,-7.5c-0.1,-0.2 -0.3,-0.3 -0.5,-0.4c-0.1,0 -0.1,0 -0.2,0c-0.1,0 -0.3,0 -0.4,0.1l-5.8,3.6c-0.1,0 -0.1,0 -0.2,0c-0.2,0 -0.4,-0.2 -0.4,-0.6c0,-0.9 1.4,-3.2 2.4,-4.6c0.2,-0.3 0.2,-0.7 0,-0.9c-1,-1.4 -2.4,-3.7 -2.4,-4.6c0,-0.3 0.2,-0.6 0.4,-0.6c0,0 0.1,0 0.2,0l5.8,3.6c0.2,0.1 0.4,0.1 0.6,0.1c0.2,-0.1 0.4,-0.2 0.5,-0.4c1.9,-3.3 4.9,-6 8.3,-7.5c0.2,-0.1 0.3,-0.3 0.4,-0.5c0.1,-0.2 0.1,-0.4 0,-0.6c-0.2,-0.4 -0.4,-0.8 -0.6,-1.2c-0.5,-0.9 -0.8,-1.5 -0.8,-2.2c0,-0.7 0.4,-1.2 0.9,-1.2c0.1,0 0.3,0 0.4,0.1l7.7,3.9c0.1,0 0.2,0.1 0.3,0.1c1.5,0.1 3,0.4 4.5,0.9c-0.4,0.5 -0.7,1 -1.1,1.5c-0.2,0.4 -0.1,0.9 0.3,1.1c0.1,0.1 0.3,0.1 0.4,0.1c0.3,0 0.5,-0.1 0.7,-0.4c0.4,-0.6 0.8,-1.2 1.3,-1.7c1.2,0.5 2.4,1.2 3.5,2c2.7,2 4.7,4.7 6,7.7c-1.8,4.8 -5.2,8.2 -9.3,10.1Z" style="fill:#b2b2b2;fill-rule:nonzero;"/><path d="M196.4,133.7c-1.3,0 -2.4,1.1 -2.4,2.4c0,1.3 1.1,2.4 2.4,2.4c1.3,0 2.4,-1.1 2.4,-2.4c0,-1.3 -1.1,-2.4 -2.4,-2.4Zm0,3.2c-0.4,0 -0.8,-0.3 -0.8,-0.8c0,-0.4 0.3,-0.8 0.8,-0.8c0.5,0 0.8,0.3 0.8,0.8c0,0.4 -0.4,0.8 -0.8,0.8Z" style="fill:#b2b2b2;fill-rule:nonzero;"/></g><g><path d="M259.1,138.2c-1.4,-3.5 -3.7,-6.5 -6.6,-8.7c-3,-2.2 -6.5,-3.6 -10.2,-3.8l-7.6,-3.9c-0.3,-0.1 -0.7,-0.2 -1,-0.2c-1.4,0 -2.5,1.2 -2.5,2.8c0,1 0.5,1.9 1,2.9c0.1,0.1 0.1,0.3 0.2,0.4c-3.2,1.6 -5.9,4.1 -7.9,7.1l-5.2,-3.2c0,0 -0.1,0 -0.1,-0.1c-0.3,-0.1 -0.5,-0.2 -0.8,-0.2c-1.1,0 -2,0.9 -2,2.2c0,1.4 1.6,3.9 2.4,5c-0.8,1.1 -2.4,3.6 -2.4,5c0,1.2 0.8,2.2 2,2.2c0.3,0 0.6,-0.1 0.8,-0.2c0,0 0.1,0 0.1,-0.1l5.2,-3.2c1.9,3 4.6,5.5 7.8,7.1c-0.1,0.1 -0.1,0.2 -0.2,0.3c-0.5,1 -1,1.8 -1,2.8c0,1.6 1.1,2.8 2.5,2.8c0.3,0 0.7,-0.1 1,-0.2l7.1,-3.6c7.7,-0.4 14.5,-5.3 17.4,-12.6c0.1,-0.2 0.1,-0.4 0,-0.6Zm-10.8,10c-2.2,-2.3 -3.5,-5.9 -3.5,-9.9c0,-1.8 0.3,-3.5 0.8,-5.2c0.1,-0.4 -0.1,-0.9 -0.5,-1c-0.4,-0.1 -0.9,0.1 -1,0.5c-0.6,1.8 -0.9,3.7 -0.9,5.6c0,4.1 1.3,7.9 3.5,10.5c-1.7,0.6 -3.4,0.9 -5.2,1c-0.1,0 -0.2,0 -0.3,0.1l-7.2,3.7c-0.1,0.1 -0.3,0.1 -0.4,0.1c-0.5,0 -0.9,-0.5 -0.9,-1.2c0,-0.6 0.3,-1.2 0.8,-2.1c0.2,-0.3 0.3,-0.7 0.5,-1.1c0.1,-0.2 0.1,-0.4 0,-0.6c-0.1,-0.2 -0.2,-0.4 -0.4,-0.4c-3.4,-1.6 -6.3,-4.1 -8.2,-7.5c-0.1,-0.2 -0.3,-0.3 -0.5,-0.4c-0.1,0 -0.1,0 -0.2,0c-0.1,0 -0.3,0 -0.4,0.1l-5.8,3.6c-0.1,0 -0.1,0 -0.2,0c-0.2,0 -0.4,-0.2 -0.4,-0.6c0,-0.9 1.4,-3.2 2.4,-4.6c0.2,-0.3 0.2,-0.7 0,-0.9c-1,-1.4 -2.4,-3.7 -2.4,-4.6c0,-0.3 0.2,-0.6 0.4,-0.6c0,0 0.1,0 0.2,0l5.8,3.6c0.2,0.1 0.4,0.1 0.6,0.1c0.2,-0.1 0.4,-0.2 0.5,-0.4c1.9,-3.3 4.9,-6 8.3,-7.5c0.2,-0.1 0.3,-0.3 0.4,-0.5c0.1,-0.2 0.1,-0.4 0,-0.6c-0.2,-0.4 -0.4,-0.8 -0.6,-1.2c-0.5,-0.9 -0.8,-1.5 -0.8,-2.2c0,-0.7 0.4,-1.2 0.9,-1.2c0.1,0 0.3,0 0.4,0.1l7.7,3.9c0.1,0 0.2,0.1 0.3,0.1c1.5,0.1 3,0.4 4.5,0.9c-0.4,0.5 -0.7,1 -1.1,1.5c-0.2,0.4 -0.1,0.9 0.3,1.1c0.1,0.1 0.3,0.1 0.4,0.1c0.3,0 0.5,-0.1 0.7,-0.4c0.4,-0.6 0.8,-1.2 1.3,-1.7c1.2,0.5 2.4,1.2 3.5,2c2.7,2 4.7,4.7 6,7.7c-1.9,4.8 -5.2,8.2 -9.3,10.1Z" style="fill:#b2b2b2;fill-rule:nonzero;"/><path d="M250.5,133.7c-1.3,0 -2.4,1.1 -2.4,2.4c0,1.3 1.1,2.4 2.4,2.4c1.3,0 2.4,-1.1 2.4,-2.4c0,-1.3 -1.1,-2.4 -2.4,-2.4Zm0,3.2c-0.4,0 -0.8,-0.3 -0.8,-0.8c0,-0.4 0.3,-0.8 0.8,-0.8c0.5,0 0.8,0.3 0.8,0.8c-0.1,0.4 -0.4,0.8 -0.8,0.8Z" style="fill:#b2b2b2;fill-rule:nonzero;"/></g><g><g><path d="M42.8,138.2c-1.4,-3.5 -3.7,-6.5 -6.6,-8.7c-3,-2.2 -6.5,-3.6 -10.2,-3.8l-7.6,-3.9c-0.3,-0.1 -0.7,-0.2 -1,-0.2c-1.4,0 -2.5,1.2 -2.5,2.8c0,1 0.5,1.9 1,2.9c0.1,0.1 0.1,0.3 0.2,0.4c-3.2,1.6 -5.9,4.1 -7.9,7.1l-5.2,-3.2c0,0 -0.1,0 -0.1,-0.1c-0.3,-0.1 -0.5,-0.2 -0.8,-0.2c-1.1,0 -2,0.9 -2,2.2c0,1.4 1.6,3.9 2.4,5c-0.8,1.1 -2.4,3.6 -2.4,5c0,1.2 0.8,2.2 2,2.2c0.3,0 0.6,-0.1 0.8,-0.2c0,0 0.1,0 0.1,-0.1l5.2,-3.2c1.9,3 4.6,5.5 7.8,7.1c-0.1,0.1 -0.1,0.2 -0.2,0.3c-0.5,1 -1,1.8 -1,2.8c0,1.6 1.1,2.8 2.5,2.8c0.3,0 0.7,-0.1 1,-0.2l7.1,-3.6c7.7,-0.4 14.5,-5.3 17.4,-12.6c0.1,-0.2 0.1,-0.4 0,-0.6Zm-10.8,10c-2.2,-2.3 -3.5,-5.9 -3.5,-9.9c0,-1.8 0.3,-3.5 0.8,-5.2c0.1,-0.4 -0.1,-0.9 -0.5,-1c-0.4,-0.1 -0.9,0.1 -1,0.5c-0.6,1.8 -0.9,3.7 -0.9,5.6c0,4.1 1.3,7.9 3.5,10.5c-1.7,0.6 -3.4,0.9 -5.2,1c-0.1,0 -0.2,0 -0.3,0.1l-7.2,3.7c-0.1,0.1 -0.3,0.1 -0.4,0.1c-0.5,0 -0.9,-0.5 -0.9,-1.2c0,-0.6 0.3,-1.2 0.8,-2.1c0.2,-0.3 0.3,-0.7 0.5,-1.1c0.1,-0.2 0.1,-0.4 0,-0.6c-0.1,-0.2 -0.2,-0.4 -0.4,-0.4c-3.4,-1.6 -6.3,-4.1 -8.2,-7.5c-0.1,-0.2 -0.3,-0.3 -0.5,-0.4c-0.1,0 -0.1,0 -0.2,0c-0.1,0 -0.3,0 -0.4,0.1l-5.8,3.6c-0.1,0 -0.1,0 -0.2,0c-0.2,0 -0.4,-0.2 -0.4,-0.6c0,-0.9 1.4,-3.2 2.4,-4.6c0.2,-0.3 0.2,-0.7 0,-0.9c-1,-1.4 -2.4,-3.7 -2.4,-4.6c0,-0.3 0.2,-0.6 0.4,-0.6c0,0 0.1,0 0.2,0l5.8,3.6c0.2,0.1 0.4,0.1 0.6,0.1c0.2,-0.1 0.4,-0.2 0.5,-0.4c1.9,-3.3 4.9,-6 8.3,-7.5c0.2,-0.1 0.3,-0.3 0.4,-0.5c0.1,-0.2 0.1,-0.4 0,-0.6c-0.2,-0.4 -0.4,-0.8 -0.6,-1.2c-0.5,-0.9 -0.8,-1.5 -0.8,-2.2c0,-0.7 0.4,-1.2 0.9,-1.2c0.1,0 0.3,0 0.4,0.1l7.7,3.9c0.1,0 0.2,0.1 0.3,0.1c1.5,0.1 3,0.4 4.5,0.9c-0.4,0.5 -0.7,1 -1.1,1.5c-0.2,0.4 -0.1,0.9 0.3,1.1c0.1,0.1 0.3,0.1 0.4,0.1c0.3,0 0.5,-0.1 0.7,-0.4c0.4,-0.6 0.8,-1.2 1.3,-1.7c1.2,0.5 2.4,1.2 3.5,2c2.7,2 4.7,4.7 6,7.7c-1.9,4.8 -5.2,8.2 -9.3,10.1Z" style="fill:#b2b2b2;fill-rule:nonzero;"/><path d="M34.1,133.7c-1.3,0 -2.4,1.1 -2.4,2.4c0,1.3 1.1,2.4 2.4,2.4c1.3,0 2.4,-1.1 2.4,-2.4c0,-1.3 -1.1,-2.4 -2.4,-2.4Zm0,3.2c-0.4,0 -0.8,-0.3 -0.8,-0.8c0,-0.4 0.3,-0.8 0.8,-0.8c0.4,0 0.8,0.3 0.8,0.8c0,0.4 -0.3,0.8 -0.8,0.8Z" style="fill:#b2b2b2;fill-rule:nonzero;"/></g><g><path d="M42.8,199c-1.4,-3.5 -3.7,-6.5 -6.6,-8.7c-3,-2.2 -6.5,-3.6 -10.2,-3.8l-7.6,-3.9c-0.3,-0.1 -0.7,-0.2 -1,-0.2c-1.4,0 -2.5,1.2 -2.5,2.8c0,1 0.5,1.9 1,2.9c0.1,0.1 0.1,0.3 0.2,0.4c-3.2,1.6 -5.9,4.1 -7.9,7.1l-5.2,-3.2c0,0 -0.1,0 -0.1,-0.1c-0.3,-0.1 -0.5,-0.2 -0.8,-0.2c-1.1,0 -2,0.9 -2,2.2c0,1.4 1.6,3.9 2.4,5c-0.8,1.1 -2.4,3.6 -2.4,5c0,1.2 0.8,2.2 2,2.2c0.3,0 0.6,-0.1 0.8,-0.2c0,0 0.1,0 0.1,-0.1l5.2,-3.2c1.9,3 4.6,5.5 7.8,7.1c-0.1,0.1 -0.1,0.2 -0.2,0.3c-0.5,1 -1,1.8 -1,2.8c0,1.6 1.1,2.8 2.5,2.8c0.3,0 0.7,-0.1 1,-0.2l7.1,-3.6c7.7,-0.4 14.5,-5.3 17.4,-12.6c0.1,-0.2 0.1,-0.4 0,-0.6Zm-10.8,9.9c-2.2,-2.3 -3.5,-5.9 -3.5,-9.9c0,-1.8 0.3,-3.5 0.8,-5.2c0.1,-0.4 -0.1,-0.9 -0.5,-1c-0.4,-0.1 -0.9,0.1 -1,0.5c-0.6,1.8 -0.9,3.7 -0.9,5.6c0,4.1 1.3,7.9 3.5,10.5c-1.7,0.6 -3.4,0.9 -5.2,1c-0.1,0 -0.2,0 -0.3,0.1l-7.2,3.7c-0.1,0.1 -0.3,0.1 -0.4,0.1c-0.5,0 -0.9,-0.5 -0.9,-1.2c0,-0.6 0.3,-1.2 0.8,-2.1c0.2,-0.3 0.3,-0.7 0.5,-1.1c0.1,-0.2 0.1,-0.4 0,-0.6c-0.1,-0.2 -0.2,-0.4 -0.4,-0.4c-3.4,-1.6 -6.3,-4.1 -8.2,-7.5c-0.1,-0.2 -0.3,-0.3 -0.5,-0.4c-0.1,0 -0.1,0 -0.2,0c-0.1,0 -0.3,0 -0.4,0.1l-5.8,3.6c-0.1,0 -0.1,0 -0.2,0c-0.2,0 -0.4,-0.2 -0.4,-0.6c0,-0.9 1.4,-3.2 2.4,-4.6c0.2,-0.3 0.2,-0.7 0,-0.9c-1,-1.4 -2.4,-3.7 -2.4,-4.6c0,-0.3 0.2,-0.6 0.4,-0.6c0,0 0.1,0 0.2,0l5.8,3.6c0.2,0.1 0.4,0.1 0.6,0.1c0.2,-0.1 0.4,-0.2 0.5,-0.4c1.9,-3.3 4.9,-6 8.3,-7.5c0.2,-0.1 0.3,-0.3 0.4,-0.5c0.1,-0.2 0.1,-0.4 0,-0.6c-0.2,-0.4 -0.4,-0.8 -0.6,-1.2c-0.5,-0.9 -0.8,-1.5 -0.8,-2.2c0,-0.7 0.4,-1.2 0.9,-1.2c0.1,0 0.3,0 0.4,0.1l7.7,3.9c0.1,0 0.2,0.1 0.3,0.1c1.5,0.1 3,0.4 4.5,0.9c-0.4,0.5 -0.7,1 -1.1,1.5c-0.2,0.4 -0.1,0.9 0.3,1.1c0.1,0.1 0.3,0.1 0.4,0.1c0.3,0 0.5,-0.1 0.7,-0.4c0.4,-0.6 0.8,-1.2 1.3,-1.7c1.2,0.5 2.4,1.2 3.5,2c2.7,2 4.7,4.7 6,7.7c-1.9,4.8 -5.2,8.2 -9.3,10.1Z" style="fill:#b2b2b2;fill-rule:nonzero;"/><path d="M34.1,194.5c-1.3,0 -2.4,1.1 -2.4,2.4c0,1.3 1.1,2.4 2.4,2.4c1.3,0 2.4,-1.1 2.4,-2.4c0,-1.3 -1.1,-2.4 -2.4,-2.4Zm0,3.1c-0.4,0 -0.8,-0.3 -0.8,-0.8c0,-0.4 0.3,-0.8 0.8,-0.8c0.4,0 0.8,0.3 0.8,0.8c0,0.5 -0.3,0.8 -0.8,0.8Z" style="fill:#b2b2b2;fill-rule:nonzero;"/></g></g><g><path d="M96.9,199c-1.4,-3.5 -3.7,-6.5 -6.6,-8.7c-3,-2.2 -6.5,-3.6 -10.2,-3.8l-7.6,-3.9c-0.3,-0.1 -0.7,-0.2 -1,-0.2c-1.4,0 -2.5,1.2 -2.5,2.8c0,1 0.5,1.9 1,2.9c0.1,0.1 0.1,0.3 0.2,0.4c-3.2,1.6 -5.9,4.1 -7.9,7.1l-5.2,-3.2c0,0 -0.1,0 -0.1,-0.1c-0.3,-0.1 -0.5,-0.2 -0.8,-0.2c-1.1,0 -2,0.9 -2,2.2c0,1.4 1.6,3.9 2.4,5c-0.8,1.1 -2.4,3.6 -2.4,5c0,1.2 0.8,2.2 2,2.2c0.3,0 0.6,-0.1 0.8,-0.2c0,0 0.1,0 0.1,-0.1l5.2,-3.2c1.9,3 4.6,5.5 7.8,7.1c-0.1,0.1 -0.1,0.2 -0.2,0.3c-0.5,1 -1,1.8 -1,2.8c0,1.6 1.1,2.8 2.5,2.8c0.3,0 0.7,-0.1 1,-0.2l7.1,-3.6c7.7,-0.4 14.5,-5.3 17.4,-12.6c0.1,-0.2 0.1,-0.4 0,-0.6Zm-10.8,9.9c-2.2,-2.3 -3.5,-5.9 -3.5,-9.9c0,-1.8 0.3,-3.5 0.8,-5.2c0.1,-0.4 -0.1,-0.9 -0.5,-1c-0.4,-0.1 -0.9,0.1 -1,0.5c-0.6,1.8 -0.9,3.7 -0.9,5.6c0,4.1 1.3,7.9 3.5,10.5c-1.7,0.6 -3.4,0.9 -5.2,1c-0.1,0 -0.2,0 -0.3,0.1l-7.2,3.7c-0.1,0.1 -0.3,0.1 -0.4,0.1c-0.5,0 -0.9,-0.5 -0.9,-1.2c0,-0.6 0.3,-1.2 0.8,-2.1c0.2,-0.3 0.3,-0.7 0.5,-1.1c0.1,-0.2 0.1,-0.4 0,-0.6c-0.1,-0.2 -0.2,-0.4 -0.4,-0.4c-3.4,-1.6 -6.3,-4.1 -8.2,-7.5c-0.1,-0.2 -0.3,-0.3 -0.5,-0.4c-0.1,0 -0.1,0 -0.2,0c-0.1,0 -0.3,0 -0.4,0.1l-5.8,3.6c-0.1,0 -0.1,0 -0.2,0c-0.2,0 -0.4,-0.2 -0.4,-0.6c0,-0.9 1.4,-3.2 2.4,-4.6c0.2,-0.3 0.2,-0.7 0,-0.9c-1,-1.4 -2.4,-3.7 -2.4,-4.6c0,-0.3 0.2,-0.6 0.4,-0.6c0,0 0.1,0 0.2,0l5.8,3.6c0.2,0.1 0.4,0.1 0.6,0.1c0.2,-0.1 0.4,-0.2 0.5,-0.4c1.9,-3.3 4.9,-6 8.3,-7.5c0.2,-0.1 0.3,-0.3 0.4,-0.5c0.1,-0.2 0.1,-0.4 0,-0.6c-0.2,-0.4 -0.4,-0.8 -0.6,-1.2c-0.5,-0.9 -0.8,-1.5 -0.8,-2.2c0,-0.7 0.4,-1.2 0.9,-1.2c0.1,0 0.3,0 0.4,0.1l7.7,3.9c0.1,0 0.2,0.1 0.3,0.1c1.5,0.1 3,0.4 4.5,0.9c-0.4,0.5 -0.7,1 -1.1,1.5c-0.2,0.4 -0.1,0.9 0.3,1.1c0.1,0.1 0.3,0.1 0.4,0.1c0.3,0 0.5,-0.1 0.7,-0.4c0.4,-0.6 0.8,-1.2 1.3,-1.7c1.2,0.5 2.4,1.2 3.5,2c2.7,2 4.7,4.7 6,7.7c-1.9,4.8 -5.3,8.2 -9.3,10.1Z" style="fill:#b2b2b2;fill-rule:nonzero;"/><path d="M88.2,194.5c-1.3,0 -2.4,1.1 -2.4,2.4c0,1.3 1.1,2.4 2.4,2.4c1.3,0 2.4,-1.1 2.4,-2.4c0,-1.3 -1.1,-2.4 -2.4,-2.4Zm0,3.1c-0.4,0 -0.8,-0.3 -0.8,-0.8c0,-0.4 0.3,-0.8 0.8,-0.8c0.5,0 0.8,0.3 0.8,0.8c0,0.5 -0.3,0.8 -0.8,0.8Z" style="fill:#b2b2b2;fill-rule:nonzero;"/></g><g><path d="M151,199c-1.4,-3.5 -3.7,-6.5 -6.6,-8.7c-3,-2.2 -6.5,-3.6 -10.2,-3.8l-7.6,-3.9c-0.3,-0.1 -0.7,-0.2 -1,-0.2c-1.4,0 -2.5,1.2 -2.5,2.8c0,1 0.5,1.9 1,2.9c0.1,0.1 0.1,0.3 0.2,0.4c-3.2,1.6 -5.9,4.1 -7.9,7.1l-5.2,-3.2c0,0 -0.1,0 -0.1,-0.1c-0.3,-0.1 -0.5,-0.2 -0.8,-0.2c-1.1,0 -2,0.9 -2,2.2c0,1.4 1.6,3.9 2.4,5c-0.8,1.1 -2.4,3.6 -2.4,5c0,1.2 0.8,2.2 2,2.2c0.3,0 0.6,-0.1 0.8,-0.2c0,0 0.1,0 0.1,-0.1l5.2,-3.2c1.9,3 4.6,5.5 7.8,7.1c-0.1,0.1 -0.1,0.2 -0.2,0.3c-0.5,1 -1,1.8 -1,2.8c0,1.6 1.1,2.8 2.5,2.8c0.3,0 0.7,-0.1 1,-0.2l7.1,-3.6c7.7,-0.4 14.5,-5.3 17.4,-12.6c0.1,-0.2 0.1,-0.4 0,-0.6Zm-10.9,9.9c-2.2,-2.3 -3.5,-5.9 -3.5,-9.9c0,-1.8 0.3,-3.5 0.8,-5.2c0.1,-0.4 -0.1,-0.9 -0.5,-1c-0.4,-0.1 -0.9,0.1 -1,0.5c-0.6,1.8 -0.9,3.7 -0.9,5.6c0,4.1 1.3,7.9 3.5,10.5c-1.7,0.6 -3.4,0.9 -5.2,1c-0.1,0 -0.2,0 -0.3,0.1l-7.2,3.7c-0.1,0.1 -0.3,0.1 -0.4,0.1c-0.5,0 -0.9,-0.5 -0.9,-1.2c0,-0.6 0.3,-1.2 0.8,-2.1c0.2,-0.3 0.3,-0.7 0.5,-1.1c0.1,-0.2 0.1,-0.4 0,-0.6c-0.1,-0.2 -0.2,-0.4 -0.4,-0.4c-3.4,-1.6 -6.3,-4.1 -8.2,-7.5c-0.1,-0.2 -0.3,-0.3 -0.5,-0.4c-0.1,0 -0.1,0 -0.2,0c-0.1,0 -0.3,0 -0.4,0.1l-5.8,3.6c-0.1,0 -0.1,0 -0.2,0c-0.2,0 -0.4,-0.2 -0.4,-0.6c0,-0.9 1.4,-3.2 2.4,-4.6c0.2,-0.3 0.2,-0.7 0,-0.9c-1,-1.4 -2.4,-3.7 -2.4,-4.6c0,-0.3 0.2,-0.6 0.4,-0.6c0,0 0.1,0 0.2,0l5.8,3.6c0.2,0.1 0.4,0.1 0.6,0.1c0.2,-0.1 0.4,-0.2 0.5,-0.4c1.9,-3.3 4.9,-6 8.3,-7.5c0.2,-0.1 0.3,-0.3 0.4,-0.5c0.1,-0.2 0.1,-0.4 0,-0.6c-0.2,-0.4 -0.4,-0.8 -0.6,-1.2c-0.5,-0.9 -0.8,-1.5 -0.8,-2.2c0,-0.7 0.4,-1.2 0.9,-1.2c0.1,0 0.3,0 0.4,0.1l7.7,3.9c0.1,0 0.2,0.1 0.3,0.1c1.5,0.1 3,0.4 4.5,0.9c-0.4,0.5 -0.7,1 -1.1,1.5c-0.2,0.4 -0.1,0.9 0.3,1.1c0.1,0.1 0.3,0.1 0.4,0.1c0.3,0 0.5,-0.1 0.7,-0.4c0.4,-0.6 0.8,-1.2 1.3,-1.7c1.2,0.5 2.4,1.2 3.5,2c2.7,2 4.7,4.7 6,7.7c-1.8,4.8 -5.2,8.2 -9.3,10.1Z" style="fill:#b2b2b2;fill-rule:nonzero;"/><path d="M142.3,194.5c-1.3,0 -2.4,1.1 -2.4,2.4c0,1.3 1.1,2.4 2.4,2.4c1.3,0 2.4,-1.1 2.4,-2.4c0,-1.3 -1.1,-2.4 -2.4,-2.4Zm0,3.1c-0.4,0 -0.8,-0.3 -0.8,-0.8c0,-0.4 0.3,-0.8 0.8,-0.8c0.4,0 0.8,0.3 0.8,0.8c0,0.5 -0.4,0.8 -0.8,0.8Z" style="fill:#b2b2b2;fill-rule:nonzero;"/></g><g><path d="M205.1,199c-1.4,-3.5 -3.7,-6.5 -6.6,-8.7c-3,-2.2 -6.5,-3.6 -10.2,-3.8l-7.6,-3.9c-0.3,-0.1 -0.7,-0.2 -1,-0.2c-1.4,0 -2.5,1.2 -2.5,2.8c0,1 0.5,1.9 1,2.9c0.1,0.1 0.1,0.3 0.2,0.4c-3.2,1.6 -5.9,4.1 -7.9,7.1l-5.2,-3.2c0,0 -0.1,0 -0.1,-0.1c-0.3,-0.1 -0.5,-0.2 -0.8,-0.2c-1.1,0 -2,0.9 -2,2.2c0,1.4 1.6,3.9 2.4,5c-0.8,1.1 -2.4,3.6 -2.4,5c0,1.2 0.8,2.2 2,2.2c0.3,0 0.6,-0.1 0.8,-0.2c0,0 0.1,0 0.1,-0.1l5.2,-3.2c1.9,3 4.6,5.5 7.8,7.1c-0.1,0.1 -0.1,0.2 -0.2,0.3c-0.5,1 -1,1.8 -1,2.8c0,1.6 1.1,2.8 2.5,2.8c0.3,0 0.7,-0.1 1,-0.2l7.1,-3.6c7.7,-0.4 14.5,-5.3 17.4,-12.6c0,-0.2 0,-0.4 0,-0.6Zm-10.9,9.9c-2.2,-2.3 -3.5,-5.9 -3.5,-9.9c0,-1.8 0.3,-3.5 0.8,-5.2c0.1,-0.4 -0.1,-0.9 -0.5,-1c-0.4,-0.1 -0.9,0.1 -1,0.5c-0.6,1.8 -0.9,3.7 -0.9,5.6c0,4.1 1.3,7.9 3.5,10.5c-1.7,0.6 -3.4,0.9 -5.2,1c-0.1,0 -0.2,0 -0.3,0.1l-7.2,3.7c-0.1,0.1 -0.3,0.1 -0.4,0.1c-0.5,0 -0.9,-0.5 -0.9,-1.2c0,-0.6 0.3,-1.2 0.8,-2.1c0.2,-0.3 0.3,-0.7 0.5,-1.1c0.1,-0.2 0.1,-0.4 0,-0.6c-0.1,-0.2 -0.2,-0.4 -0.4,-0.4c-3.4,-1.6 -6.3,-4.1 -8.2,-7.5c-0.1,-0.2 -0.3,-0.3 -0.5,-0.4c-0.1,0 -0.1,0 -0.2,0c-0.1,0 -0.3,0 -0.4,0.1l-5.8,3.6c-0.1,0 -0.1,0 -0.2,0c-0.2,0 -0.4,-0.2 -0.4,-0.6c0,-0.9 1.4,-3.2 2.4,-4.6c0.2,-0.3 0.2,-0.7 0,-0.9c-1,-1.4 -2.4,-3.7 -2.4,-4.6c0,-0.3 0.2,-0.6 0.4,-0.6c0,0 0.1,0 0.2,0l5.8,3.6c0.2,0.1 0.4,0.1 0.6,0.1c0.2,-0.1 0.4,-0.2 0.5,-0.4c1.9,-3.3 4.9,-6 8.3,-7.5c0.2,-0.1 0.3,-0.3 0.4,-0.5c0.1,-0.2 0.1,-0.4 0,-0.6c-0.2,-0.4 -0.4,-0.8 -0.6,-1.2c-0.5,-0.9 -0.8,-1.5 -0.8,-2.2c0,-0.7 0.4,-1.2 0.9,-1.2c0.1,0 0.3,0 0.4,0.1l7.7,3.9c0.1,0 0.2,0.1 0.3,0.1c1.5,0.1 3,0.4 4.5,0.9c-0.4,0.5 -0.7,1 -1.1,1.5c-0.2,0.4 -0.1,0.9 0.3,1.1c0.1,0.1 0.3,0.1 0.4,0.1c0.3,0 0.5,-0.1 0.7,-0.4c0.4,-0.6 0.8,-1.2 1.3,-1.7c1.2,0.5 2.4,1.2 3.5,2c2.7,2 4.7,4.7 6,7.7c-1.8,4.8 -5.2,8.2 -9.3,10.1Z" style="fill:#b2b2b2;fill-rule:nonzero;"/><path d="M196.4,194.5c-1.3,0 -2.4,1.1 -2.4,2.4c0,1.3 1.1,2.4 2.4,2.4c1.3,0 2.4,-1.1 2.4,-2.4c0,-1.3 -1.1,-2.4 -2.4,-2.4Zm0,3.1c-0.4,0 -0.8,-0.3 -0.8,-0.8c0,-0.4 0.3,-0.8 0.8,-0.8c0.5,0 0.8,0.3 0.8,0.8c0,0.5 -0.4,0.8 -0.8,0.8Z" style="fill:#b2b2b2;fill-rule:nonzero;"/></g><g><path d="M259.1,199c-1.4,-3.5 -3.7,-6.5 -6.6,-8.7c-3,-2.2 -6.5,-3.6 -10.2,-3.8l-7.6,-3.9c-0.3,-0.1 -0.7,-0.2 -1,-0.2c-1.4,0 -2.5,1.2 -2.5,2.8c0,1 0.5,1.9 1,2.9c0.1,0.1 0.1,0.3 0.2,0.4c-3.2,1.6 -5.9,4.1 -7.9,7.1l-5.2,-3.2c0,0 -0.1,0 -0.1,-0.1c-0.3,-0.1 -0.5,-0.2 -0.8,-0.2c-1.1,0 -2,0.9 -2,2.2c0,1.4 1.6,3.9 2.4,5c-0.8,1.1 -2.4,3.6 -2.4,5c0,1.2 0.8,2.2 2,2.2c0.3,0 0.6,-0.1 0.8,-0.2c0,0 0.1,0 0.1,-0.1l5.2,-3.2c1.9,3 4.6,5.5 7.8,7.1c-0.1,0.1 -0.1,0.2 -0.2,0.3c-0.5,1 -1,1.8 -1,2.8c0,1.6 1.1,2.8 2.5,2.8c0.3,0 0.7,-0.1 1,-0.2l7.1,-3.6c7.7,-0.4 14.5,-5.3 17.4,-12.6c0.1,-0.2 0.1,-0.4 0,-0.6Zm-10.8,9.9c-2.2,-2.3 -3.5,-5.9 -3.5,-9.9c0,-1.8 0.3,-3.5 0.8,-5.2c0.1,-0.4 -0.1,-0.9 -0.5,-1c-0.4,-0.1 -0.9,0.1 -1,0.5c-0.6,1.8 -0.9,3.7 -0.9,5.6c0,4.1 1.3,7.9 3.5,10.5c-1.7,0.6 -3.4,0.9 -5.2,1c-0.1,0 -0.2,0 -0.3,0.1l-7.2,3.7c-0.1,0.1 -0.3,0.1 -0.4,0.1c-0.5,0 -0.9,-0.5 -0.9,-1.2c0,-0.6 0.3,-1.2 0.8,-2.1c0.2,-0.3 0.3,-0.7 0.5,-1.1c0.1,-0.2 0.1,-0.4 0,-0.6c-0.1,-0.2 -0.2,-0.4 -0.4,-0.4c-3.4,-1.6 -6.3,-4.1 -8.2,-7.5c-0.1,-0.2 -0.3,-0.3 -0.5,-0.4c-0.1,0 -0.1,0 -0.2,0c-0.1,0 -0.3,0 -0.4,0.1l-5.8,3.6c-0.1,0 -0.1,0 -0.2,0c-0.2,0 -0.4,-0.2 -0.4,-0.6c0,-0.9 1.4,-3.2 2.4,-4.6c0.2,-0.3 0.2,-0.7 0,-0.9c-1,-1.4 -2.4,-3.7 -2.4,-4.6c0,-0.3 0.2,-0.6 0.4,-0.6c0,0 0.1,0 0.2,0l5.8,3.6c0.2,0.1 0.4,0.1 0.6,0.1c0.2,-0.1 0.4,-0.2 0.5,-0.4c1.9,-3.3 4.9,-6 8.3,-7.5c0.2,-0.1 0.3,-0.3 0.4,-0.5c0.1,-0.2 0.1,-0.4 0,-0.6c-0.2,-0.4 -0.4,-0.8 -0.6,-1.2c-0.5,-0.9 -0.8,-1.5 -0.8,-2.2c0,-0.7 0.4,-1.2 0.9,-1.2c0.1,0 0.3,0 0.4,0.1l7.7,3.9c0.1,0 0.2,0.1 0.3,0.1c1.5,0.1 3,0.4 4.5,0.9c-0.4,0.5 -0.7,1 -1.1,1.5c-0.2,0.4 -0.1,0.9 0.3,1.1c0.1,0.1 0.3,0.1 0.4,0.1c0.3,0 0.5,-0.1 0.7,-0.4c0.4,-0.6 0.8,-1.2 1.3,-1.7c1.2,0.5 2.4,1.2 3.5,2c2.7,2 4.7,4.7 6,7.7c-1.9,4.8 -5.2,8.2 -9.3,10.1Z" style="fill:#b2b2b2;fill-rule:nonzero;"/><path d="M250.5,194.5c-1.3,0 -2.4,1.1 -2.4,2.4c0,1.3 1.1,2.4 2.4,2.4c1.3,0 2.4,-1.1 2.4,-2.4c0,-1.3 -1.1,-2.4 -2.4,-2.4Zm0,3.1c-0.4,0 -0.8,-0.3 -0.8,-0.8c0,-0.4 0.3,-0.8 0.8,-0.8c0.5,0 0.8,0.3 0.8,0.8c-0.1,0.5 -0.4,0.8 -0.8,0.8Z" style="fill:#b2b2b2;fill-rule:nonzero;"/></g><g><path d="M189.3,169.2c2.9,7.3 9.7,12.2 17.4,12.6l7.1,3.6c0.3,0.1 0.7,0.2 1,0.2c1.4,0 2.5,-1.2 2.5,-2.8c0,-1 -0.4,-1.8 -1,-2.8c-0.1,-0.1 -0.1,-0.2 -0.2,-0.3c3.2,-1.6 5.8,-4 7.8,-7.1l5.2,3.2c0,0 0.1,0 0.1,0.1c0.3,0.1 0.5,0.2 0.8,0.2c1.1,0 2,-0.9 2,-2.2c0,-1.4 -1.6,-3.9 -2.4,-5c0.8,-1.1 2.4,-3.6 2.4,-5c0,-1.2 -0.8,-2.2 -2,-2.2c-0.3,0 -0.6,0.1 -0.8,0.2c0,0 -0.1,0 -0.1,0.1l-5.2,3.2c-1.9,-3 -4.7,-5.5 -7.9,-7.1c0.1,-0.1 0.1,-0.3 0.2,-0.4c0.5,-1 1,-1.9 1,-2.9c0,-1.6 -1.1,-2.8 -2.5,-2.8c-0.3,0 -0.7,0.1 -1,0.2l-7.6,3.9c-3.7,0.3 -7.2,1.6 -10.2,3.8c-3,2.2 -5.3,5.2 -6.6,8.7c0,0.2 0,0.4 0,0.6Zm1.6,-0.3c1.3,-3.1 3.3,-5.8 6,-7.7c1.1,-0.8 2.2,-1.5 3.5,-2c0.5,0.5 0.9,1.1 1.3,1.7c0.1,0.3 0.4,0.4 0.7,0.4c0.1,0 0.3,0 0.4,-0.1c0.4,-0.2 0.5,-0.7 0.3,-1.1c-0.3,-0.6 -0.7,-1.1 -1.1,-1.5c1.4,-0.5 3,-0.8 4.5,-0.9c0.1,0 0.2,0 0.3,-0.1l7.7,-3.9c0.1,-0.1 0.3,-0.1 0.4,-0.1c0.5,0 0.9,0.5 0.9,1.2c0,0.6 -0.3,1.3 -0.8,2.2c-0.2,0.3 -0.4,0.7 -0.6,1.2c-0.1,0.2 -0.1,0.4 0,0.6c0.1,0.2 0.2,0.4 0.4,0.5c3.4,1.5 6.4,4.2 8.3,7.5c0.1,0.2 0.3,0.3 0.5,0.4c0.2,0.1 0.4,0 0.6,-0.1l5.8,-3.6c0.1,0 0.1,0 0.2,0c0.2,0 0.4,0.2 0.4,0.6c0,0.9 -1.4,3.2 -2.4,4.6c-0.2,0.3 -0.2,0.7 0,0.9c1,1.4 2.4,3.7 2.4,4.6c0,0.3 -0.2,0.6 -0.4,0.6c0,0 -0.1,0 -0.2,0l-5.8,-3.6c-0.1,-0.1 -0.3,-0.1 -0.4,-0.1c-0.1,0 -0.1,0 -0.2,0c-0.2,0.1 -0.4,0.2 -0.5,0.4c-1.9,3.3 -4.8,5.9 -8.2,7.5c-0.2,0.1 -0.3,0.2 -0.4,0.4c-0.1,0.2 -0.1,0.4 0,0.6c0.2,0.4 0.4,0.7 0.5,1.1c0.5,0.9 0.8,1.5 0.8,2.1c0,0.7 -0.4,1.2 -0.9,1.2c-0.1,0 -0.3,0 -0.4,-0.1l-7.2,-3.7c-0.1,-0.1 -0.2,-0.1 -0.3,-0.1c-1.8,-0.1 -3.5,-0.4 -5.2,-1c2.2,-2.6 3.5,-6.4 3.5,-10.5c0,-2 -0.3,-3.9 -0.9,-5.6c-0.1,-0.4 -0.6,-0.6 -1,-0.5c-0.4,0.1 -0.6,0.6 -0.5,1c0.5,1.6 0.8,3.4 0.8,5.2c0,3.9 -1.3,7.6 -3.5,9.9c-4.1,-2.3 -7.5,-5.8 -9.3,-10.1Z" style="fill:#b2b2b2;fill-rule:nonzero;"/><path d="M195.7,166.5c0,1.3 1.1,2.4 2.4,2.4c1.3,0 2.4,-1.1 2.4,-2.4c0,-1.3 -1.1,-2.4 -2.4,-2.4c-1.4,0 -2.4,1.1 -2.4,2.4Zm1.5,0c0,-0.4 0.3,-0.8 0.8,-0.8c0.4,0 0.8,0.3 0.8,0.8c0,0.4 -0.3,0.8 -0.8,0.8c-0.4,-0.1 -0.8,-0.4 -0.8,-0.8Z" style="fill:#b2b2b2;fill-rule:nonzero;"/></g><g><path d="M135.3,169.2c2.9,7.3 9.7,12.2 17.4,12.6l7.1,3.6c0.3,0.1 0.7,0.2 1,0.2c1.4,0 2.5,-1.2 2.5,-2.8c0,-1 -0.4,-1.8 -1,-2.8c-0.1,-0.1 -0.1,-0.2 -0.2,-0.3c3.2,-1.6 5.8,-4 7.8,-7.1l5.2,3.2c0,0 0.1,0 0.1,0.1c0.3,0.1 0.5,0.2 0.8,0.2c1.1,0 2,-0.9 2,-2.2c0,-1.4 -1.6,-3.9 -2.4,-5c0.8,-1.1 2.4,-3.6 2.4,-5c0,-1.2 -0.8,-2.2 -2,-2.2c-0.3,0 -0.6,0.1 -0.8,0.2c0,0 -0.1,0 -0.1,0.1l-5.2,3.2c-1.9,-3 -4.7,-5.5 -7.9,-7.1c0.1,-0.1 0.1,-0.3 0.2,-0.4c0.5,-1 1,-1.9 1,-2.9c0,-1.6 -1.1,-2.8 -2.5,-2.8c-0.3,0 -0.7,0.1 -1,0.2l-7.6,3.9c-3.7,0.3 -7.2,1.6 -10.2,3.8c-3,2.2 -5.3,5.2 -6.6,8.7c-0.1,0.2 -0.1,0.4 0,0.6Zm1.6,-0.3c1.3,-3.1 3.3,-5.8 6,-7.7c1.1,-0.8 2.2,-1.5 3.5,-2c0.5,0.5 0.9,1.1 1.3,1.7c0.1,0.3 0.4,0.4 0.7,0.4c0.1,0 0.3,0 0.4,-0.1c0.4,-0.2 0.5,-0.7 0.3,-1.1c-0.3,-0.6 -0.7,-1.1 -1.1,-1.5c1.4,-0.5 3,-0.8 4.5,-0.9c0.1,0 0.2,0 0.3,-0.1l7.7,-3.9c0.1,-0.1 0.3,-0.1 0.4,-0.1c0.5,0 0.9,0.5 0.9,1.2c0,0.6 -0.3,1.3 -0.8,2.2c-0.2,0.3 -0.4,0.7 -0.6,1.2c-0.1,0.2 -0.1,0.4 0,0.6c0.1,0.2 0.2,0.4 0.4,0.5c3.4,1.5 6.4,4.2 8.3,7.5c0.1,0.2 0.3,0.3 0.5,0.4c0.2,0.1 0.4,0 0.6,-0.1l5.8,-3.6c0.1,0 0.1,0 0.2,0c0.2,0 0.4,0.2 0.4,0.6c0,0.9 -1.4,3.2 -2.4,4.6c-0.2,0.3 -0.2,0.7 0,0.9c1,1.4 2.4,3.7 2.4,4.6c0,0.3 -0.2,0.6 -0.4,0.6c0,0 -0.1,0 -0.2,0l-5.8,-3.6c-0.1,-0.1 -0.3,-0.1 -0.4,-0.1c-0.1,0 -0.1,0 -0.2,0c-0.2,0.1 -0.4,0.2 -0.5,0.4c-1.9,3.3 -4.8,5.9 -8.2,7.5c-0.2,0.1 -0.3,0.2 -0.4,0.4c-0.1,0.2 -0.1,0.4 0,0.6c0.2,0.4 0.4,0.7 0.5,1.1c0.5,0.9 0.8,1.5 0.8,2.1c0,0.7 -0.4,1.2 -0.9,1.2c-0.1,0 -0.3,0 -0.4,-0.1l-7.2,-3.7c-0.1,-0.1 -0.2,-0.1 -0.3,-0.1c-1.8,-0.1 -3.5,-0.4 -5.2,-1c2.2,-2.6 3.5,-6.4 3.5,-10.5c0,-2 -0.3,-3.9 -0.9,-5.6c-0.1,-0.4 -0.6,-0.6 -1,-0.5c-0.4,0.1 -0.6,0.6 -0.5,1c0.5,1.6 0.8,3.4 0.8,5.2c0,3.9 -1.3,7.6 -3.5,9.9c-4.2,-2.3 -7.5,-5.8 -9.3,-10.1Z" style="fill:#b2b2b2;fill-rule:nonzero;"/><path d="M141.6,166.5c0,1.3 1.1,2.4 2.4,2.4c1.3,0 2.4,-1.1 2.4,-2.4c0,-1.3 -1.1,-2.4 -2.4,-2.4c-1.4,0 -2.4,1.1 -2.4,2.4Zm1.6,0c0,-0.4 0.3,-0.8 0.8,-0.8c0.5,0 0.8,0.3 0.8,0.8c0,0.4 -0.3,0.8 -0.8,0.8c-0.5,-0.1 -0.8,-0.4 -0.8,-0.8Z" style="fill:#b2b2b2;fill-rule:nonzero;"/></g><g><path d="M81.2,169.2c2.9,7.3 9.7,12.2 17.4,12.6l7.1,3.6c0.3,0.1 0.7,0.2 1,0.2c1.4,0 2.5,-1.2 2.5,-2.8c0,-1 -0.4,-1.8 -1,-2.8c-0.1,-0.1 -0.1,-0.2 -0.2,-0.3c3.2,-1.6 5.8,-4 7.8,-7.1l5.2,3.2c0,0 0.1,0 0.1,0.1c0.3,0.1 0.5,0.2 0.8,0.2c1.1,0 2,-0.9 2,-2.2c0,-1.4 -1.6,-3.9 -2.4,-5c0.8,-1.1 2.4,-3.6 2.4,-5c0,-1.2 -0.8,-2.2 -2,-2.2c-0.3,0 -0.6,0.1 -0.8,0.2c0,0 -0.1,0 -0.1,0.1l-5.2,3.2c-1.9,-3 -4.7,-5.5 -7.9,-7.1c0.1,-0.1 0.1,-0.3 0.2,-0.4c0.5,-1 1,-1.9 1,-2.9c0,-1.6 -1.1,-2.8 -2.5,-2.8c-0.3,0 -0.7,0.1 -1,0.2l-7.6,3.8c-3.7,0.3 -7.2,1.6 -10.2,3.8c-3,2.2 -5.3,5.2 -6.6,8.7c-0.1,0.3 -0.1,0.5 0,0.7Zm1.6,-0.3c1.3,-3.1 3.3,-5.8 6,-7.7c1.1,-0.8 2.2,-1.5 3.5,-2c0.5,0.5 0.9,1.1 1.3,1.7c0.1,0.3 0.4,0.4 0.7,0.4c0.1,0 0.3,0 0.4,-0.1c0.4,-0.2 0.5,-0.7 0.3,-1.1c-0.3,-0.6 -0.7,-1.1 -1.1,-1.5c1.4,-0.5 3,-0.8 4.5,-0.9c0.1,0 0.2,0 0.3,-0.1l7.7,-3.9c0.1,-0.1 0.3,-0.1 0.4,-0.1c0.5,0 0.9,0.5 0.9,1.2c0,0.6 -0.3,1.3 -0.8,2.2c-0.2,0.3 -0.4,0.7 -0.6,1.2c-0.1,0.2 -0.1,0.4 0,0.6c0.1,0.2 0.2,0.4 0.4,0.5c3.4,1.5 6.4,4.2 8.3,7.5c0.1,0.2 0.3,0.3 0.5,0.4c0.2,0.1 0.4,0 0.6,-0.1l5.8,-3.6c0.1,0 0.1,0 0.2,0c0.2,0 0.4,0.2 0.4,0.6c0,0.9 -1.4,3.2 -2.4,4.6c-0.2,0.3 -0.2,0.7 0,0.9c1,1.4 2.4,3.7 2.4,4.6c0,0.3 -0.2,0.6 -0.4,0.6c0,0 -0.1,0 -0.2,0l-5.8,-3.6c-0.1,-0.1 -0.3,-0.1 -0.4,-0.1c-0.1,0 -0.1,0 -0.2,0c-0.2,0.1 -0.4,0.2 -0.5,0.4c-1.9,3.3 -4.8,5.9 -8.2,7.5c-0.2,0.1 -0.3,0.2 -0.4,0.4c-0.1,0.2 -0.1,0.4 0,0.6c0.2,0.4 0.4,0.7 0.5,1.1c0.5,0.9 0.8,1.5 0.8,2.1c0,0.7 -0.4,1.2 -0.9,1.2c-0.1,0 -0.3,0 -0.4,-0.1l-7.2,-3.7c-0.1,-0.1 -0.2,-0.1 -0.3,-0.1c-1.8,-0.1 -3.5,-0.4 -5.2,-1c2.2,-2.6 3.5,-6.4 3.5,-10.5c0,-2 -0.3,-3.9 -0.9,-5.6c-0.1,-0.4 -0.6,-0.6 -1,-0.5c-0.4,0.1 -0.6,0.6 -0.5,1c0.5,1.6 0.8,3.4 0.8,5.2c0,3.9 -1.3,7.6 -3.5,9.9c-4.2,-2.3 -7.5,-5.8 -9.3,-10.1Z" style="fill:#b2b2b2;fill-rule:nonzero;"/><path d="M87.5,166.5c0,1.3 1.1,2.4 2.4,2.4c1.3,0 2.4,-1.1 2.4,-2.4c0,-1.3 -1.1,-2.4 -2.4,-2.4c-1.3,0 -2.4,1.1 -2.4,2.4Zm1.6,0c0,-0.4 0.3,-0.8 0.8,-0.8c0.5,0 0.8,0.3 0.8,0.8c0,0.4 -0.3,0.8 -0.8,0.8c-0.5,-0.1 -0.8,-0.4 -0.8,-0.8Z" style="fill:#b2b2b2;fill-rule:nonzero;"/></g><path d="M27.1,169.2c2.9,7.3 9.7,12.2 17.4,12.6l7.1,3.6c0.3,0.1 0.7,0.2 1,0.2c1.4,0 2.5,-1.2 2.5,-2.8c0,-1 -0.4,-1.8 -1,-2.8c-0.1,-0.1 -0.1,-0.2 -0.2,-0.3c3.2,-1.6 5.8,-4 7.8,-7.1l5.2,3.2c0,0 0.1,0 0.1,0.1c0.3,0.1 0.5,0.2 0.8,0.2c1.1,0 2,-0.9 2,-2.2c0,-1.4 -1.6,-3.9 -2.4,-5c0.8,-1.1 2.4,-3.6 2.4,-5c0,-1.2 -0.8,-2.2 -2,-2.2c-0.3,0 -0.6,0.1 -0.8,0.2c0,0 -0.1,0 -0.1,0.1l-5.2,3.2c-1.9,-3 -4.7,-5.5 -7.9,-7.1c0.1,-0.1 0.1,-0.3 0.2,-0.4c0.5,-1 1,-1.9 1,-2.9c0,-1.6 -1.1,-2.8 -2.5,-2.8c-0.3,0 -0.7,0.1 -1,0.2l-7.6,3.9c-3.7,0.3 -7.2,1.6 -10.2,3.8c-3,2.2 -5.3,5.2 -6.6,8.7c-0.1,0.2 -0.1,0.4 0,0.6Zm1.6,-0.3c1.3,-3.1 3.3,-5.8 6,-7.7c1.1,-0.8 2.2,-1.5 3.5,-2c0.5,0.5 0.9,1.1 1.3,1.7c0.1,0.3 0.4,0.4 0.7,0.4c0.1,0 0.3,0 0.4,-0.1c0.4,-0.2 0.5,-0.7 0.3,-1.1c-0.3,-0.6 -0.7,-1.1 -1.1,-1.5c1.4,-0.5 3,-0.8 4.5,-0.9c0.1,0 0.2,0 0.3,-0.1l7.7,-3.9c0.1,-0.1 0.3,-0.1 0.4,-0.1c0.5,0 0.9,0.5 0.9,1.2c0,0.6 -0.3,1.3 -0.8,2.2c-0.2,0.3 -0.4,0.7 -0.6,1.2c-0.1,0.2 -0.1,0.4 0,0.6c0.1,0.2 0.2,0.4 0.4,0.5c3.4,1.5 6.4,4.2 8.3,7.5c0.1,0.2 0.3,0.3 0.5,0.4c0.2,0.1 0.4,0 0.6,-0.1l5.8,-3.6c0.1,0 0.1,0 0.2,0c0.2,0 0.4,0.2 0.4,0.6c0,0.9 -1.4,3.2 -2.4,4.6c-0.2,0.3 -0.2,0.7 0,0.9c1,1.4 2.4,3.7 2.4,4.6c0,0.3 -0.2,0.6 -0.4,0.6c0,0 -0.1,0 -0.2,0l-5.8,-3.6c-0.1,-0.1 -0.3,-0.1 -0.4,-0.1c-0.1,0 -0.1,0 -0.2,0c-0.2,0.1 -0.4,0.2 -0.5,0.4c-1.9,3.3 -4.8,5.9 -8.2,7.5c-0.2,0.1 -0.3,0.2 -0.4,0.4c-0.1,0.2 -0.1,0.4 0,0.6c0.2,0.4 0.4,0.7 0.5,1.1c0.5,0.9 0.8,1.5 0.8,2.1c0,0.7 -0.4,1.2 -0.9,1.2c-0.1,0 -0.3,0 -0.4,-0.1l-7.2,-3.7c-0.1,-0.1 -0.2,-0.1 -0.3,-0.1c-1.8,-0.1 -3.5,-0.4 -5.2,-1c2.2,-2.6 3.5,-6.4 3.5,-10.5c0,-2 -0.3,-3.9 -0.9,-5.6c-0.1,-0.4 -0.6,-0.6 -1,-0.5c-0.4,0.1 -0.6,0.6 -0.5,1c0.5,1.6 0.8,3.4 0.8,5.2c0,3.9 -1.3,7.6 -3.5,9.9c-4.2,-2.3 -7.5,-5.8 -9.3,-10.1Z" style="fill:#b2b2b2;fill-rule:nonzero;"/><path d="M33.4,166.5c0,1.3 1.1,2.4 2.4,2.4c1.3,0 2.4,-1.1 2.4,-2.4c0,-1.3 -1.1,-2.4 -2.4,-2.4c-1.3,0 -2.4,1.1 -2.4,2.4Zm1.6,0c0,-0.4 0.3,-0.8 0.8,-0.8c0.4,0 0.8,0.3 0.8,0.8c0,0.4 -0.3,0.8 -0.8,0.8c-0.5,-0.1 -0.8,-0.4 -0.8,-0.8Z" style="fill:#b2b2b2;fill-rule:nonzero;"/><rect x="51" y="192.6" width="6.3" height="1.6" style="fill:#b2b2b2;"/></svg>