<?xml version="1.0" encoding="UTF-8" standalone="no"?><!DOCTYPE svg PUBLIC "-//W3C//DTD SVG 1.1//EN" "http://www.w3.org/Graphics/SVG/1.1/DTD/svg11.dtd"><svg width="100%" height="100%" viewBox="0 0 300 220" version="1.1" xmlns="http://www.w3.org/2000/svg" xmlns:xlink="http://www.w3.org/1999/xlink" xml:space="preserve" style="fill-rule:evenodd;clip-rule:evenodd;stroke-linejoin:round;stroke-miterlimit:1.41421;"><g><path d="M29.708,34.623l-9.78,0c-0.133,0 -0.255,-0.071 -0.322,-0.186l-4.783,-8.284l-9.562,0c-0.132,0 -0.255,-0.071 -0.321,-0.186l-4.89,-8.47c-0.067,-0.115 -0.067,-0.256 0,-0.371l4.89,-8.47c0.066,-0.115 0.189,-0.186 0.321,-0.186l9.562,0l4.783,-8.285c0.067,-0.114 0.189,-0.185 0.322,-0.185l9.78,0c0.133,0 0.255,0.071 0.322,0.185l4.89,8.471c0.066,0.115 0.066,0.256 0,0.371l-4.783,8.284l4.783,8.285c0.066,0.115 0.066,0.256 0,0.371l-4.89,8.47c-0.067,0.115 -0.189,0.186 -0.322,0.186Zm-9.566,-0.742l9.352,0l4.676,-8.099l-4.676,-8.1l-9.348,0l-4.678,8.103l4.674,8.096Zm-14.667,-8.47l9.348,0l4.676,-8.1l-4.676,-8.099l-9.348,0l-4.676,8.099l4.676,8.1Zm14.671,-8.471l9.348,0l4.676,-8.099l-4.676,-8.099l-9.352,0l-4.674,8.095l4.678,8.103Zm0.977,15.54c-0.128,0 -0.253,-0.066 -0.322,-0.185l-3.695,-6.401c-0.067,-0.115 -0.067,-0.256 0,-0.371l3.695,-6.401c0.103,-0.178 0.329,-0.239 0.507,-0.136c0.177,0.102 0.238,0.329 0.136,0.507l-3.589,6.215l3.589,6.216c0.102,0.178 0.041,0.404 -0.136,0.507c-0.058,0.034 -0.122,0.049 -0.185,0.049Zm-14.725,-8.296c-0.128,0 -0.253,-0.066 -0.322,-0.185l-3.754,-6.502c-0.066,-0.115 -0.066,-0.256 0,-0.371l3.754,-6.502c0.067,-0.115 0.189,-0.186 0.322,-0.186l7.507,0c0.205,0 0.371,0.167 0.371,0.371c0,0.205 -0.166,0.371 -0.371,0.371l-7.293,0l-3.54,6.131l3.647,6.317c0.102,0.177 0.042,0.404 -0.136,0.507c-0.058,0.033 -0.122,0.049 -0.185,0.049Zm11.028,-14.972c-0.063,0 -0.126,-0.016 -0.185,-0.05c-0.177,-0.102 -0.238,-0.329 -0.136,-0.506l3.696,-6.402c0.066,-0.114 0.189,-0.185 0.321,-0.185l7.392,0c0.204,0 0.371,0.166 0.371,0.371c0,0.205 -0.167,0.371 -0.371,0.371l-7.177,0l-3.589,6.216c-0.069,0.119 -0.193,0.185 -0.322,0.185Z" style="fill:#b2b2b2;fill-rule:nonzero;"/><path d="M29.708,127.311l-9.78,0c-0.133,0 -0.255,-0.07 -0.322,-0.185l-4.783,-8.285l-9.562,0c-0.132,0 -0.255,-0.07 -0.321,-0.185l-4.89,-8.471c-0.067,-0.114 -0.067,-0.256 0,-0.37l4.89,-8.471c0.066,-0.115 0.189,-0.185 0.321,-0.185l9.562,0l4.783,-8.285c0.067,-0.115 0.189,-0.185 0.322,-0.185l9.78,0c0.133,0 0.255,0.07 0.322,0.185l4.89,8.47c0.066,0.115 0.066,0.256 0,0.371l-4.783,8.285l4.783,8.285c0.066,0.115 0.066,0.256 0,0.371l-4.89,8.47c-0.067,0.115 -0.189,0.185 -0.322,0.185Zm-9.566,-0.742l9.352,0l4.676,-8.099l-4.676,-8.099l-9.348,0l-4.678,8.103l4.674,8.095Zm-14.667,-8.47l9.348,0l4.676,-8.099l-4.676,-8.099l-9.348,0l-4.676,8.099l4.676,8.099Zm14.671,-8.47l9.348,0l4.676,-8.099l-4.676,-8.099l-9.352,0l-4.674,8.095l4.678,8.103Zm0.977,15.54c-0.128,0 -0.253,-0.066 -0.322,-0.185l-3.695,-6.401c-0.067,-0.115 -0.067,-0.257 0,-0.371l3.695,-6.402c0.103,-0.177 0.329,-0.238 0.507,-0.135c0.177,0.102 0.238,0.329 0.136,0.506l-3.589,6.216l3.589,6.216c0.102,0.177 0.041,0.404 -0.136,0.506c-0.058,0.034 -0.122,0.05 -0.185,0.05Zm-14.725,-8.296c-0.128,0 -0.253,-0.067 -0.322,-0.186l-3.754,-6.502c-0.066,-0.114 -0.066,-0.256 0,-0.37l3.754,-6.502c0.067,-0.115 0.189,-0.186 0.322,-0.186l7.507,0c0.205,0 0.371,0.166 0.371,0.371c0,0.205 -0.166,0.371 -0.371,0.371l-7.293,0l-3.54,6.131l3.647,6.316c0.102,0.178 0.042,0.405 -0.136,0.507c-0.058,0.034 -0.122,0.05 -0.185,0.05Zm11.028,-14.972c-0.063,0 -0.126,-0.016 -0.185,-0.05c-0.177,-0.102 -0.238,-0.329 -0.136,-0.507l3.696,-6.401c0.066,-0.115 0.189,-0.185 0.321,-0.185l7.392,0c0.204,0 0.371,0.166 0.371,0.371c0,0.204 -0.167,0.371 -0.371,0.371l-7.177,0l-3.589,6.215c-0.069,0.119 -0.193,0.186 -0.322,0.186Z" style="fill:#b2b2b2;fill-rule:nonzero;"/><path d="M29.708,220l-9.78,0c-0.133,0 -0.255,-0.071 -0.322,-0.185l-4.783,-8.285l-9.562,0c-0.132,0 -0.255,-0.071 -0.321,-0.186l-4.89,-8.47c-0.067,-0.115 -0.067,-0.256 0,-0.371l4.89,-8.47c0.066,-0.115 0.189,-0.186 0.321,-0.186l9.562,0l4.783,-8.284c0.067,-0.115 0.189,-0.186 0.322,-0.186l9.78,0c0.133,0 0.255,0.071 0.322,0.186l4.89,8.47c0.066,0.115 0.066,0.256 0,0.371l-4.783,8.285l4.783,8.284c0.066,0.115 0.066,0.256 0,0.371l-4.89,8.471c-0.067,0.114 -0.189,0.185 -0.322,0.185Zm-9.566,-0.742l9.352,0l4.676,-8.099l-4.676,-8.099l-9.348,0l-4.678,8.103l4.674,8.095Zm-14.667,-8.47l9.348,0l4.676,-8.099l-4.676,-8.1l-9.348,0l-4.676,8.1l4.676,8.099Zm14.671,-8.47l9.348,0l4.676,-8.1l-4.676,-8.099l-9.352,0l-4.674,8.096l4.678,8.103Zm0.977,15.54c-0.128,0 -0.253,-0.067 -0.322,-0.186l-3.695,-6.401c-0.067,-0.115 -0.067,-0.256 0,-0.371l3.695,-6.401c0.103,-0.177 0.329,-0.239 0.507,-0.136c0.177,0.103 0.238,0.33 0.136,0.507l-3.589,6.216l3.589,6.215c0.102,0.178 0.041,0.405 -0.136,0.507c-0.058,0.034 -0.122,0.05 -0.185,0.05Zm-14.725,-8.296c-0.128,0 -0.253,-0.067 -0.322,-0.186l-3.754,-6.502c-0.066,-0.115 -0.066,-0.256 0,-0.371l3.754,-6.502c0.067,-0.115 0.189,-0.185 0.322,-0.185l7.507,0c0.205,0 0.371,0.166 0.371,0.371c0,0.204 -0.166,0.371 -0.371,0.371l-7.293,0l-3.54,6.131l3.647,6.316c0.102,0.178 0.042,0.404 -0.136,0.507c-0.058,0.034 -0.122,0.05 -0.185,0.05Zm11.028,-14.972c-0.063,0 -0.126,-0.016 -0.185,-0.05c-0.177,-0.103 -0.238,-0.33 -0.136,-0.507l3.696,-6.401c0.066,-0.115 0.189,-0.186 0.321,-0.186l7.392,0c0.204,0 0.371,0.166 0.371,0.371c0,0.205 -0.167,0.371 -0.371,0.371l-7.177,0l-3.589,6.216c-0.069,0.119 -0.193,0.186 -0.322,0.186Z" style="fill:#b2b2b2;fill-rule:nonzero;"/><path d="M5.261,80.967l9.781,0c0.132,0 0.255,-0.071 0.321,-0.185l4.783,-8.285l9.562,0c0.133,0 0.255,-0.071 0.322,-0.186l4.89,-8.47c0.066,-0.115 0.066,-0.256 0,-0.371l-4.89,-8.47c-0.067,-0.115 -0.189,-0.185 -0.322,-0.185l-9.562,0l-4.783,-8.285c-0.066,-0.115 -0.189,-0.186 -0.321,-0.186l-9.781,0c-0.133,0 -0.255,0.071 -0.321,0.186l-4.89,8.47c-0.067,0.115 -0.067,0.256 0,0.371l4.783,8.285l-4.783,8.284c-0.067,0.115 -0.067,0.257 0,0.371l4.89,8.471c0.066,0.114 0.188,0.185 0.321,0.185Zm9.567,-0.742l-9.353,0l-4.676,-8.099l4.676,-8.099l9.348,0l4.678,8.103l-4.673,8.095Zm14.666,-8.47l-9.348,0l-4.676,-8.099l4.676,-8.1l9.348,0l4.676,8.1l-4.676,8.099Zm-14.671,-8.47l-9.348,0l-4.676,-8.1l4.676,-8.099l9.353,0l4.673,8.096l-4.678,8.103Zm-0.976,15.54c0.128,0 0.252,-0.067 0.321,-0.186l3.696,-6.401c0.066,-0.115 0.066,-0.256 0,-0.371l-3.696,-6.401c-0.102,-0.177 -0.329,-0.238 -0.507,-0.136c-0.177,0.103 -0.238,0.33 -0.135,0.507l3.588,6.216l-3.588,6.215c-0.103,0.178 -0.042,0.405 0.135,0.507c0.059,0.034 0.123,0.05 0.186,0.05Zm14.724,-8.296c0.129,0 0.253,-0.067 0.322,-0.186l3.754,-6.502c0.066,-0.115 0.066,-0.256 0,-0.371l-3.754,-6.502c-0.066,-0.115 -0.189,-0.185 -0.321,-0.185l-7.508,0c-0.205,0 -0.371,0.166 -0.371,0.371c0,0.205 0.166,0.371 0.371,0.371l7.294,0l3.539,6.131l-3.647,6.316c-0.102,0.178 -0.041,0.404 0.136,0.507c0.059,0.034 0.123,0.05 0.185,0.05Zm-11.028,-14.972c0.063,0 0.127,-0.016 0.185,-0.05c0.178,-0.103 0.238,-0.329 0.136,-0.507l-3.696,-6.401c-0.066,-0.115 -0.188,-0.186 -0.321,-0.186l-7.391,0c-0.205,0 -0.371,0.167 -0.371,0.371c0,0.205 0.166,0.371 0.371,0.371l7.177,0l3.588,6.216c0.069,0.119 0.194,0.186 0.322,0.186Z" style="fill:#b2b2b2;fill-rule:nonzero;"/><path d="M5.261,173.656l9.781,0c0.132,0 0.255,-0.071 0.321,-0.186l4.783,-8.285l9.562,0c0.133,0 0.255,-0.07 0.322,-0.185l4.89,-8.47c0.066,-0.115 0.066,-0.256 0,-0.371l-4.89,-8.47c-0.067,-0.115 -0.189,-0.186 -0.322,-0.186l-9.562,0l-4.783,-8.285c-0.066,-0.114 -0.189,-0.185 -0.321,-0.185l-9.781,0c-0.133,0 -0.255,0.071 -0.321,0.185l-4.89,8.471c-0.067,0.114 -0.067,0.256 0,0.371l4.783,8.284l-4.783,8.285c-0.067,0.115 -0.067,0.256 0,0.371l4.89,8.47c0.066,0.115 0.188,0.186 0.321,0.186Zm9.567,-0.742l-9.353,0l-4.676,-8.099l4.676,-8.1l9.348,0l4.678,8.103l-4.673,8.096Zm14.666,-8.47l-9.348,0l-4.676,-8.1l4.676,-8.099l9.348,0l4.676,8.099l-4.676,8.1Zm-14.671,-8.471l-9.348,0l-4.676,-8.099l4.676,-8.099l9.353,0l4.673,8.095l-4.678,8.103Zm-0.976,15.54c0.128,0 0.252,-0.066 0.321,-0.185l3.696,-6.401c0.066,-0.115 0.066,-0.256 0,-0.371l-3.696,-6.401c-0.102,-0.178 -0.329,-0.239 -0.507,-0.136c-0.177,0.102 -0.238,0.329 -0.135,0.507l3.588,6.215l-3.588,6.216c-0.103,0.177 -0.042,0.404 0.135,0.507c0.059,0.033 0.123,0.049 0.186,0.049Zm14.724,-8.296c0.129,0 0.253,-0.066 0.322,-0.185l3.754,-6.502c0.066,-0.115 0.066,-0.256 0,-0.371l-3.754,-6.502c-0.066,-0.115 -0.189,-0.186 -0.321,-0.186l-7.508,0c-0.205,0 -0.371,0.167 -0.371,0.371c0,0.205 0.166,0.371 0.371,0.371l7.294,0l3.539,6.131l-3.647,6.317c-0.102,0.177 -0.041,0.404 0.136,0.507c0.059,0.033 0.123,0.049 0.185,0.049Zm-11.028,-14.972c0.063,0 0.127,-0.016 0.185,-0.05c0.178,-0.102 0.238,-0.329 0.136,-0.506l-3.696,-6.402c-0.066,-0.114 -0.188,-0.185 -0.321,-0.185l-7.391,0c-0.205,0 -0.371,0.166 -0.371,0.371c0,0.205 0.166,0.371 0.371,0.371l7.177,0l3.588,6.216c0.069,0.119 0.194,0.185 0.322,0.185Z" style="fill:#b2b2b2;fill-rule:nonzero;"/></g><g><path d="M73.88,34.623l-9.781,0c-0.132,0 -0.255,-0.071 -0.321,-0.186l-4.783,-8.284l-9.562,0c-0.133,0 -0.255,-0.071 -0.321,-0.186l-4.891,-8.47c-0.066,-0.115 -0.066,-0.256 0,-0.371l4.891,-8.47c0.066,-0.115 0.188,-0.186 0.321,-0.186l9.562,0l4.783,-8.285c0.066,-0.114 0.189,-0.185 0.321,-0.185l9.781,0c0.133,0 0.255,0.071 0.321,0.185l4.891,8.471c0.066,0.115 0.066,0.256 0,0.371l-4.784,8.284l4.784,8.285c0.066,0.115 0.066,0.256 0,0.371l-4.891,8.47c-0.066,0.115 -0.188,0.186 -0.321,0.186Zm-9.566,-0.742l9.352,0l4.676,-8.099l-4.676,-8.1l-9.348,0l-4.678,8.103l4.674,8.096Zm-14.667,-8.47l9.348,0l4.676,-8.1l-4.676,-8.099l-9.348,0l-4.676,8.099l4.676,8.1Zm14.671,-8.471l9.348,0l4.676,-8.099l-4.676,-8.099l-9.352,0l-4.674,8.095l4.678,8.103Zm0.977,15.54c-0.129,0 -0.253,-0.066 -0.322,-0.185l-3.696,-6.401c-0.066,-0.115 -0.066,-0.256 0,-0.371l3.696,-6.401c0.103,-0.178 0.329,-0.239 0.507,-0.136c0.177,0.102 0.238,0.329 0.136,0.507l-3.589,6.215l3.589,6.216c0.102,0.178 0.041,0.404 -0.136,0.507c-0.059,0.034 -0.123,0.049 -0.185,0.049Zm-14.725,-8.296c-0.128,0 -0.253,-0.066 -0.322,-0.185l-3.754,-6.502c-0.066,-0.115 -0.066,-0.256 0,-0.371l3.754,-6.502c0.066,-0.115 0.189,-0.186 0.321,-0.186l7.508,0c0.205,0 0.371,0.167 0.371,0.371c0,0.205 -0.166,0.371 -0.371,0.371l-7.293,0l-3.54,6.131l3.647,6.317c0.102,0.177 0.041,0.404 -0.136,0.507c-0.059,0.033 -0.122,0.049 -0.185,0.049Zm11.028,-14.972c-0.063,0 -0.127,-0.016 -0.185,-0.05c-0.178,-0.102 -0.238,-0.329 -0.136,-0.506l3.696,-6.402c0.066,-0.114 0.189,-0.185 0.321,-0.185l7.391,0c0.205,0 0.371,0.166 0.371,0.371c0,0.205 -0.166,0.371 -0.371,0.371l-7.177,0l-3.588,6.216c-0.069,0.119 -0.194,0.185 -0.322,0.185Z" style="fill:#b2b2b2;fill-rule:nonzero;"/><path d="M73.88,127.311l-9.781,0c-0.132,0 -0.255,-0.07 -0.321,-0.185l-4.783,-8.285l-9.562,0c-0.133,0 -0.255,-0.07 -0.321,-0.185l-4.891,-8.471c-0.066,-0.114 -0.066,-0.256 0,-0.37l4.891,-8.471c0.066,-0.115 0.188,-0.185 0.321,-0.185l9.562,0l4.783,-8.285c0.066,-0.115 0.189,-0.185 0.321,-0.185l9.781,0c0.133,0 0.255,0.07 0.321,0.185l4.891,8.47c0.066,0.115 0.066,0.256 0,0.371l-4.784,8.285l4.784,8.285c0.066,0.115 0.066,0.256 0,0.371l-4.891,8.47c-0.066,0.115 -0.188,0.185 -0.321,0.185Zm-9.566,-0.742l9.352,0l4.676,-8.099l-4.676,-8.099l-9.348,0l-4.678,8.103l4.674,8.095Zm-14.667,-8.47l9.348,0l4.676,-8.099l-4.676,-8.099l-9.348,0l-4.676,8.099l4.676,8.099Zm14.671,-8.47l9.348,0l4.676,-8.099l-4.676,-8.099l-9.352,0l-4.674,8.095l4.678,8.103Zm0.977,15.54c-0.129,0 -0.253,-0.066 -0.322,-0.185l-3.696,-6.401c-0.066,-0.115 -0.066,-0.257 0,-0.371l3.696,-6.402c0.103,-0.177 0.329,-0.238 0.507,-0.135c0.177,0.102 0.238,0.329 0.136,0.506l-3.589,6.216l3.589,6.216c0.102,0.177 0.041,0.404 -0.136,0.506c-0.059,0.034 -0.123,0.05 -0.185,0.05Zm-14.725,-8.296c-0.128,0 -0.253,-0.067 -0.322,-0.186l-3.754,-6.502c-0.066,-0.114 -0.066,-0.256 0,-0.37l3.754,-6.502c0.066,-0.115 0.189,-0.186 0.321,-0.186l7.508,0c0.205,0 0.371,0.166 0.371,0.371c0,0.205 -0.166,0.371 -0.371,0.371l-7.293,0l-3.54,6.131l3.647,6.316c0.102,0.178 0.041,0.405 -0.136,0.507c-0.059,0.034 -0.122,0.05 -0.185,0.05Zm11.028,-14.972c-0.063,0 -0.127,-0.016 -0.185,-0.05c-0.178,-0.102 -0.238,-0.329 -0.136,-0.507l3.696,-6.401c0.066,-0.115 0.189,-0.185 0.321,-0.185l7.391,0c0.205,0 0.371,0.166 0.371,0.371c0,0.204 -0.166,0.371 -0.371,0.371l-7.177,0l-3.588,6.215c-0.069,0.119 -0.194,0.186 -0.322,0.186Z" style="fill:#b2b2b2;fill-rule:nonzero;"/><path d="M73.88,220l-9.781,0c-0.132,0 -0.255,-0.071 -0.321,-0.185l-4.783,-8.285l-9.562,0c-0.133,0 -0.255,-0.071 -0.321,-0.186l-4.891,-8.47c-0.066,-0.115 -0.066,-0.256 0,-0.371l4.891,-8.47c0.066,-0.115 0.188,-0.186 0.321,-0.186l9.562,0l4.783,-8.284c0.066,-0.115 0.189,-0.186 0.321,-0.186l9.781,0c0.133,0 0.255,0.071 0.321,0.186l4.891,8.47c0.066,0.115 0.066,0.256 0,0.371l-4.784,8.285l4.784,8.284c0.066,0.115 0.066,0.256 0,0.371l-4.891,8.471c-0.066,0.114 -0.188,0.185 -0.321,0.185Zm-9.566,-0.742l9.352,0l4.676,-8.099l-4.676,-8.099l-9.348,0l-4.678,8.103l4.674,8.095Zm-14.667,-8.47l9.348,0l4.676,-8.099l-4.676,-8.1l-9.348,0l-4.676,8.1l4.676,8.099Zm14.671,-8.47l9.348,0l4.676,-8.1l-4.676,-8.099l-9.352,0l-4.674,8.096l4.678,8.103Zm0.977,15.54c-0.129,0 -0.253,-0.067 -0.322,-0.186l-3.696,-6.401c-0.066,-0.115 -0.066,-0.256 0,-0.371l3.696,-6.401c0.103,-0.177 0.329,-0.239 0.507,-0.136c0.177,0.103 0.238,0.33 0.136,0.507l-3.589,6.216l3.589,6.215c0.102,0.178 0.041,0.405 -0.136,0.507c-0.059,0.034 -0.123,0.05 -0.185,0.05Zm-14.725,-8.296c-0.128,0 -0.253,-0.067 -0.322,-0.186l-3.754,-6.502c-0.066,-0.115 -0.066,-0.256 0,-0.371l3.754,-6.502c0.066,-0.115 0.189,-0.185 0.321,-0.185l7.508,0c0.205,0 0.371,0.166 0.371,0.371c0,0.204 -0.166,0.371 -0.371,0.371l-7.293,0l-3.54,6.131l3.647,6.316c0.102,0.178 0.041,0.404 -0.136,0.507c-0.059,0.034 -0.122,0.05 -0.185,0.05Zm11.028,-14.972c-0.063,0 -0.127,-0.016 -0.185,-0.05c-0.178,-0.103 -0.238,-0.33 -0.136,-0.507l3.696,-6.401c0.066,-0.115 0.189,-0.186 0.321,-0.186l7.391,0c0.205,0 0.371,0.166 0.371,0.371c0,0.205 -0.166,0.371 -0.371,0.371l-7.177,0l-3.588,6.216c-0.069,0.119 -0.194,0.186 -0.322,0.186Z" style="fill:#b2b2b2;fill-rule:nonzero;"/><path d="M49.433,80.967l9.78,0c0.133,0 0.255,-0.071 0.322,-0.185l4.783,-8.285l9.562,0c0.132,0 0.255,-0.071 0.321,-0.186l4.89,-8.47c0.067,-0.115 0.067,-0.256 0,-0.371l-4.89,-8.47c-0.066,-0.115 -0.189,-0.185 -0.321,-0.185l-9.562,0l-4.783,-8.285c-0.067,-0.115 -0.189,-0.186 -0.322,-0.186l-9.78,0c-0.133,0 -0.255,0.071 -0.322,0.186l-4.89,8.47c-0.066,0.115 -0.066,0.256 0,0.371l4.783,8.285l-4.783,8.284c-0.066,0.115 -0.066,0.257 0,0.371l4.89,8.471c0.067,0.114 0.189,0.185 0.322,0.185Zm9.566,-0.742l-9.352,0l-4.676,-8.099l4.676,-8.099l9.348,0l4.678,8.103l-4.674,8.095Zm14.667,-8.47l-9.348,0l-4.676,-8.099l4.676,-8.1l9.348,0l4.676,8.1l-4.676,8.099Zm-14.671,-8.47l-9.348,0l-4.676,-8.1l4.676,-8.099l9.352,0l4.674,8.096l-4.678,8.103Zm-0.977,15.54c0.128,0 0.253,-0.067 0.322,-0.186l3.696,-6.401c0.066,-0.115 0.066,-0.256 0,-0.371l-3.696,-6.401c-0.103,-0.177 -0.329,-0.238 -0.507,-0.136c-0.177,0.103 -0.238,0.33 -0.136,0.507l3.589,6.216l-3.589,6.215c-0.102,0.178 -0.041,0.405 0.136,0.507c0.059,0.034 0.123,0.05 0.185,0.05Zm14.725,-8.296c0.128,0 0.253,-0.067 0.322,-0.186l3.754,-6.502c0.066,-0.115 0.066,-0.256 0,-0.371l-3.754,-6.502c-0.066,-0.115 -0.189,-0.185 -0.321,-0.185l-7.508,0c-0.205,0 -0.371,0.166 -0.371,0.371c0,0.205 0.166,0.371 0.371,0.371l7.293,0l3.54,6.131l-3.647,6.316c-0.102,0.178 -0.041,0.404 0.136,0.507c0.058,0.034 0.122,0.05 0.185,0.05Zm-11.028,-14.972c0.063,0 0.127,-0.016 0.185,-0.05c0.177,-0.103 0.238,-0.329 0.136,-0.507l-3.696,-6.401c-0.066,-0.115 -0.189,-0.186 -0.321,-0.186l-7.391,0c-0.205,0 -0.371,0.167 -0.371,0.371c0,0.205 0.166,0.371 0.371,0.371l7.177,0l3.588,6.216c0.069,0.119 0.194,0.186 0.322,0.186Z" style="fill:#b2b2b2;fill-rule:nonzero;"/><path d="M49.433,173.656l9.78,0c0.133,0 0.255,-0.071 0.322,-0.186l4.783,-8.285l9.562,0c0.132,0 0.255,-0.07 0.321,-0.185l4.89,-8.47c0.067,-0.115 0.067,-0.256 0,-0.371l-4.89,-8.47c-0.066,-0.115 -0.189,-0.186 -0.321,-0.186l-9.562,0l-4.783,-8.285c-0.067,-0.114 -0.189,-0.185 -0.322,-0.185l-9.78,0c-0.133,0 -0.255,0.071 -0.322,0.185l-4.89,8.471c-0.066,0.114 -0.066,0.256 0,0.371l4.783,8.284l-4.783,8.285c-0.066,0.115 -0.066,0.256 0,0.371l4.89,8.47c0.067,0.115 0.189,0.186 0.322,0.186Zm9.566,-0.742l-9.352,0l-4.676,-8.099l4.676,-8.1l9.348,0l4.678,8.103l-4.674,8.096Zm14.667,-8.47l-9.348,0l-4.676,-8.1l4.676,-8.099l9.348,0l4.676,8.099l-4.676,8.1Zm-14.671,-8.471l-9.348,0l-4.676,-8.099l4.676,-8.099l9.352,0l4.674,8.095l-4.678,8.103Zm-0.977,15.54c0.128,0 0.253,-0.066 0.322,-0.185l3.696,-6.401c0.066,-0.115 0.066,-0.256 0,-0.371l-3.696,-6.401c-0.103,-0.178 -0.329,-0.239 -0.507,-0.136c-0.177,0.102 -0.238,0.329 -0.136,0.507l3.589,6.215l-3.589,6.216c-0.102,0.177 -0.041,0.404 0.136,0.507c0.059,0.033 0.123,0.049 0.185,0.049Zm14.725,-8.296c0.128,0 0.253,-0.066 0.322,-0.185l3.754,-6.502c0.066,-0.115 0.066,-0.256 0,-0.371l-3.754,-6.502c-0.066,-0.115 -0.189,-0.186 -0.321,-0.186l-7.508,0c-0.205,0 -0.371,0.167 -0.371,0.371c0,0.205 0.166,0.371 0.371,0.371l7.293,0l3.54,6.131l-3.647,6.317c-0.102,0.177 -0.041,0.404 0.136,0.507c0.058,0.033 0.122,0.049 0.185,0.049Zm-11.028,-14.972c0.063,0 0.127,-0.016 0.185,-0.05c0.177,-0.102 0.238,-0.329 0.136,-0.506l-3.696,-6.402c-0.066,-0.114 -0.189,-0.185 -0.321,-0.185l-7.391,0c-0.205,0 -0.371,0.166 -0.371,0.371c0,0.205 0.166,0.371 0.371,0.371l7.177,0l3.588,6.216c0.069,0.119 0.194,0.185 0.322,0.185Z" style="fill:#b2b2b2;fill-rule:nonzero;"/></g><g><path d="M118.052,34.623l-9.781,0c-0.132,0 -0.255,-0.071 -0.321,-0.186l-4.783,-8.284l-9.562,0c-0.133,0 -0.255,-0.071 -0.322,-0.186l-4.89,-8.47c-0.066,-0.115 -0.066,-0.256 0,-0.371l4.89,-8.47c0.067,-0.115 0.189,-0.186 0.322,-0.186l9.562,0l4.783,-8.285c0.066,-0.114 0.189,-0.185 0.321,-0.185l9.781,0c0.133,0 0.255,0.071 0.321,0.185l4.89,8.471c0.066,0.115 0.066,0.256 0,0.371l-4.783,8.284l4.783,8.285c0.066,0.115 0.066,0.256 0,0.371l-4.89,8.47c-0.066,0.115 -0.188,0.186 -0.321,0.186Zm-9.567,-0.742l9.353,0l4.676,-8.099l-4.676,-8.1l-9.348,0l-4.678,8.103l4.673,8.096Zm-14.666,-8.47l9.348,0l4.676,-8.1l-4.676,-8.099l-9.348,0l-4.676,8.099l4.676,8.1Zm14.671,-8.471l9.348,0l4.676,-8.099l-4.676,-8.099l-9.353,0l-4.673,8.095l4.678,8.103Zm0.976,15.54c-0.128,0 -0.252,-0.066 -0.321,-0.185l-3.696,-6.401c-0.066,-0.115 -0.066,-0.256 0,-0.371l3.696,-6.401c0.102,-0.178 0.328,-0.239 0.507,-0.136c0.177,0.102 0.238,0.329 0.135,0.507l-3.588,6.215l3.588,6.216c0.103,0.178 0.042,0.404 -0.135,0.507c-0.059,0.034 -0.123,0.049 -0.186,0.049Zm-14.724,-8.296c-0.129,0 -0.253,-0.066 -0.322,-0.185l-3.754,-6.502c-0.066,-0.115 -0.066,-0.256 0,-0.371l3.754,-6.502c0.066,-0.115 0.189,-0.186 0.321,-0.186l7.508,0c0.205,0 0.371,0.167 0.371,0.371c0,0.205 -0.166,0.371 -0.371,0.371l-7.294,0l-3.539,6.131l3.646,6.317c0.103,0.177 0.042,0.404 -0.135,0.507c-0.059,0.033 -0.123,0.049 -0.185,0.049Zm11.028,-14.972c-0.063,0 -0.127,-0.016 -0.185,-0.05c-0.178,-0.102 -0.238,-0.329 -0.136,-0.506l3.696,-6.402c0.066,-0.114 0.188,-0.185 0.321,-0.185l7.391,0c0.205,0 0.371,0.166 0.371,0.371c0,0.205 -0.166,0.371 -0.371,0.371l-7.177,0l-3.588,6.216c-0.069,0.119 -0.194,0.185 -0.322,0.185Z" style="fill:#b2b2b2;fill-rule:nonzero;"/><path d="M118.052,127.311l-9.781,0c-0.132,0 -0.255,-0.07 -0.321,-0.185l-4.783,-8.285l-9.562,0c-0.133,0 -0.255,-0.07 -0.322,-0.185l-4.89,-8.471c-0.066,-0.114 -0.066,-0.256 0,-0.37l4.89,-8.471c0.067,-0.115 0.189,-0.185 0.322,-0.185l9.562,0l4.783,-8.285c0.066,-0.115 0.189,-0.185 0.321,-0.185l9.781,0c0.133,0 0.255,0.07 0.321,0.185l4.89,8.47c0.066,0.115 0.066,0.256 0,0.371l-4.783,8.285l4.783,8.285c0.066,0.115 0.066,0.256 0,0.371l-4.89,8.47c-0.066,0.115 -0.188,0.185 -0.321,0.185Zm-9.567,-0.742l9.353,0l4.676,-8.099l-4.676,-8.099l-9.348,0l-4.678,8.103l4.673,8.095Zm-14.666,-8.47l9.348,0l4.676,-8.099l-4.676,-8.099l-9.348,0l-4.676,8.099l4.676,8.099Zm14.671,-8.47l9.348,0l4.676,-8.099l-4.676,-8.099l-9.353,0l-4.673,8.095l4.678,8.103Zm0.976,15.54c-0.128,0 -0.252,-0.066 -0.321,-0.185l-3.696,-6.401c-0.066,-0.115 -0.066,-0.257 0,-0.371l3.696,-6.402c0.102,-0.177 0.328,-0.238 0.507,-0.135c0.177,0.102 0.238,0.329 0.135,0.506l-3.588,6.216l3.588,6.216c0.103,0.177 0.042,0.404 -0.135,0.506c-0.059,0.034 -0.123,0.05 -0.186,0.05Zm-14.724,-8.296c-0.129,0 -0.253,-0.067 -0.322,-0.186l-3.754,-6.502c-0.066,-0.114 -0.066,-0.256 0,-0.37l3.754,-6.502c0.066,-0.115 0.189,-0.186 0.321,-0.186l7.508,0c0.205,0 0.371,0.166 0.371,0.371c0,0.205 -0.166,0.371 -0.371,0.371l-7.294,0l-3.539,6.131l3.646,6.316c0.103,0.178 0.042,0.405 -0.135,0.507c-0.059,0.034 -0.123,0.05 -0.185,0.05Zm11.028,-14.972c-0.063,0 -0.127,-0.016 -0.185,-0.05c-0.178,-0.102 -0.238,-0.329 -0.136,-0.507l3.696,-6.401c0.066,-0.115 0.188,-0.185 0.321,-0.185l7.391,0c0.205,0 0.371,0.166 0.371,0.371c0,0.204 -0.166,0.371 -0.371,0.371l-7.177,0l-3.588,6.215c-0.069,0.119 -0.194,0.186 -0.322,0.186Z" style="fill:#b2b2b2;fill-rule:nonzero;"/><path d="M118.052,220l-9.781,0c-0.132,0 -0.255,-0.071 -0.321,-0.185l-4.783,-8.285l-9.562,0c-0.133,0 -0.255,-0.071 -0.322,-0.186l-4.89,-8.47c-0.066,-0.115 -0.066,-0.256 0,-0.371l4.89,-8.47c0.067,-0.115 0.189,-0.186 0.322,-0.186l9.562,0l4.783,-8.284c0.066,-0.115 0.189,-0.186 0.321,-0.186l9.781,0c0.133,0 0.255,0.071 0.321,0.186l4.89,8.47c0.066,0.115 0.066,0.256 0,0.371l-4.783,8.285l4.783,8.284c0.066,0.115 0.066,0.256 0,0.371l-4.89,8.471c-0.066,0.114 -0.188,0.185 -0.321,0.185Zm-9.567,-0.742l9.353,0l4.676,-8.099l-4.676,-8.099l-9.348,0l-4.678,8.103l4.673,8.095Zm-14.666,-8.47l9.348,0l4.676,-8.099l-4.676,-8.1l-9.348,0l-4.676,8.1l4.676,8.099Zm14.671,-8.47l9.348,0l4.676,-8.1l-4.676,-8.099l-9.353,0l-4.673,8.096l4.678,8.103Zm0.976,15.54c-0.128,0 -0.252,-0.067 -0.321,-0.186l-3.696,-6.401c-0.066,-0.115 -0.066,-0.256 0,-0.371l3.696,-6.401c0.102,-0.177 0.328,-0.239 0.507,-0.136c0.177,0.103 0.238,0.33 0.135,0.507l-3.588,6.216l3.588,6.215c0.103,0.178 0.042,0.405 -0.135,0.507c-0.059,0.034 -0.123,0.05 -0.186,0.05Zm-14.724,-8.296c-0.129,0 -0.253,-0.067 -0.322,-0.186l-3.754,-6.502c-0.066,-0.115 -0.066,-0.256 0,-0.371l3.754,-6.502c0.066,-0.115 0.189,-0.185 0.321,-0.185l7.508,0c0.205,0 0.371,0.166 0.371,0.371c0,0.204 -0.166,0.371 -0.371,0.371l-7.294,0l-3.539,6.131l3.646,6.316c0.103,0.178 0.042,0.404 -0.135,0.507c-0.059,0.034 -0.123,0.05 -0.185,0.05Zm11.028,-14.972c-0.063,0 -0.127,-0.016 -0.185,-0.05c-0.178,-0.103 -0.238,-0.33 -0.136,-0.507l3.696,-6.401c0.066,-0.115 0.188,-0.186 0.321,-0.186l7.391,0c0.205,0 0.371,0.166 0.371,0.371c0,0.205 -0.166,0.371 -0.371,0.371l-7.177,0l-3.588,6.216c-0.069,0.119 -0.194,0.186 -0.322,0.186Z" style="fill:#b2b2b2;fill-rule:nonzero;"/><path d="M93.605,80.967l9.78,0c0.133,0 0.255,-0.071 0.321,-0.185l4.784,-8.285l9.562,0c0.132,0 0.255,-0.071 0.321,-0.186l4.89,-8.47c0.066,-0.115 0.066,-0.256 0,-0.371l-4.89,-8.47c-0.066,-0.115 -0.189,-0.185 -0.321,-0.185l-9.562,0l-4.784,-8.285c-0.066,-0.115 -0.188,-0.186 -0.321,-0.186l-9.78,0c-0.133,0 -0.256,0.071 -0.322,0.186l-4.89,8.47c-0.066,0.115 -0.066,0.256 0,0.371l4.783,8.285l-4.783,8.284c-0.066,0.115 -0.066,0.257 0,0.371l4.89,8.471c0.066,0.114 0.189,0.185 0.322,0.185Zm9.566,-0.742l-9.352,0l-4.676,-8.099l4.676,-8.099l9.348,0l4.678,8.103l-4.674,8.095Zm14.667,-8.47l-9.348,0l-4.676,-8.099l4.676,-8.1l9.348,0l4.675,8.1l-4.675,8.099Zm-14.671,-8.47l-9.348,0l-4.676,-8.1l4.676,-8.099l9.352,0l4.674,8.096l-4.678,8.103Zm-0.977,15.54c0.128,0 0.253,-0.067 0.322,-0.186l3.695,-6.401c0.067,-0.115 0.067,-0.256 0,-0.371l-3.695,-6.401c-0.103,-0.177 -0.329,-0.238 -0.507,-0.136c-0.178,0.103 -0.238,0.33 -0.136,0.507l3.589,6.216l-3.589,6.215c-0.102,0.178 -0.042,0.405 0.136,0.507c0.058,0.034 0.122,0.05 0.185,0.05Zm14.725,-8.296c0.128,0 0.253,-0.067 0.322,-0.186l3.754,-6.502c0.066,-0.115 0.066,-0.256 0,-0.371l-3.754,-6.502c-0.067,-0.115 -0.189,-0.185 -0.322,-0.185l-7.508,0c-0.204,0 -0.371,0.166 -0.371,0.371c0,0.205 0.167,0.371 0.371,0.371l7.294,0l3.54,6.131l-3.647,6.316c-0.102,0.178 -0.042,0.404 0.136,0.507c0.058,0.034 0.122,0.05 0.185,0.05Zm-11.028,-14.972c0.062,0 0.126,-0.016 0.185,-0.05c0.177,-0.103 0.238,-0.329 0.135,-0.507l-3.695,-6.401c-0.066,-0.115 -0.189,-0.186 -0.321,-0.186l-7.392,0c-0.205,0 -0.371,0.167 -0.371,0.371c0,0.205 0.166,0.371 0.371,0.371l7.177,0l3.589,6.216c0.069,0.119 0.193,0.186 0.322,0.186Z" style="fill:#b2b2b2;fill-rule:nonzero;"/><path d="M93.605,173.656l9.78,0c0.133,0 0.255,-0.071 0.321,-0.186l4.784,-8.285l9.562,0c0.132,0 0.255,-0.07 0.321,-0.185l4.89,-8.47c0.066,-0.115 0.066,-0.256 0,-0.371l-4.89,-8.47c-0.066,-0.115 -0.189,-0.186 -0.321,-0.186l-9.562,0l-4.784,-8.285c-0.066,-0.114 -0.188,-0.185 -0.321,-0.185l-9.78,0c-0.133,0 -0.256,0.071 -0.322,0.185l-4.89,8.471c-0.066,0.114 -0.066,0.256 0,0.371l4.783,8.284l-4.783,8.285c-0.066,0.115 -0.066,0.256 0,0.371l4.89,8.47c0.066,0.115 0.189,0.186 0.322,0.186Zm9.566,-0.742l-9.352,0l-4.676,-8.099l4.676,-8.1l9.348,0l4.678,8.103l-4.674,8.096Zm14.667,-8.47l-9.348,0l-4.676,-8.1l4.676,-8.099l9.348,0l4.675,8.099l-4.675,8.1Zm-14.671,-8.471l-9.348,0l-4.676,-8.099l4.676,-8.099l9.352,0l4.674,8.095l-4.678,8.103Zm-0.977,15.54c0.128,0 0.253,-0.066 0.322,-0.185l3.695,-6.401c0.067,-0.115 0.067,-0.256 0,-0.371l-3.695,-6.401c-0.103,-0.178 -0.329,-0.239 -0.507,-0.136c-0.178,0.102 -0.238,0.329 -0.136,0.507l3.589,6.215l-3.589,6.216c-0.102,0.177 -0.042,0.404 0.136,0.507c0.058,0.033 0.122,0.049 0.185,0.049Zm14.725,-8.296c0.128,0 0.253,-0.066 0.322,-0.185l3.754,-6.502c0.066,-0.115 0.066,-0.256 0,-0.371l-3.754,-6.502c-0.067,-0.115 -0.189,-0.186 -0.322,-0.186l-7.508,0c-0.204,0 -0.371,0.167 -0.371,0.371c0,0.205 0.167,0.371 0.371,0.371l7.294,0l3.54,6.131l-3.647,6.317c-0.102,0.177 -0.042,0.404 0.136,0.507c0.058,0.033 0.122,0.049 0.185,0.049Zm-11.028,-14.972c0.062,0 0.126,-0.016 0.185,-0.05c0.177,-0.102 0.238,-0.329 0.135,-0.506l-3.695,-6.402c-0.066,-0.114 -0.189,-0.185 -0.321,-0.185l-7.392,0c-0.205,0 -0.371,0.166 -0.371,0.371c0,0.205 0.166,0.371 0.371,0.371l7.177,0l3.589,6.216c0.069,0.119 0.193,0.185 0.322,0.185Z" style="fill:#b2b2b2;fill-rule:nonzero;"/></g><g><path d="M162.224,34.623l-9.781,0c-0.133,0 -0.255,-0.071 -0.321,-0.186l-4.783,-8.284l-9.563,0c-0.132,0 -0.255,-0.071 -0.321,-0.186l-4.89,-8.47c-0.066,-0.115 -0.066,-0.256 0,-0.371l4.89,-8.47c0.066,-0.115 0.189,-0.186 0.321,-0.186l9.563,0l4.783,-8.285c0.066,-0.114 0.189,-0.185 0.321,-0.185l9.781,0c0.132,0 0.255,0.071 0.321,0.185l4.89,8.471c0.066,0.115 0.066,0.256 0,0.371l-4.783,8.284l4.783,8.285c0.066,0.115 0.066,0.256 0,0.371l-4.89,8.47c-0.066,0.115 -0.189,0.186 -0.321,0.186Zm-9.567,-0.742l9.352,0l4.676,-8.099l-4.676,-8.1l-9.348,0l-4.678,8.103l4.674,8.096Zm-14.666,-8.47l9.348,0l4.676,-8.1l-4.676,-8.099l-9.348,0l-4.676,8.099l4.676,8.1Zm14.67,-8.471l9.348,0l4.676,-8.099l-4.676,-8.099l-9.352,0l-4.674,8.095l4.678,8.103Zm0.977,15.54c-0.128,0 -0.253,-0.066 -0.321,-0.185l-3.696,-6.401c-0.066,-0.115 -0.066,-0.256 0,-0.371l3.696,-6.401c0.102,-0.178 0.328,-0.239 0.506,-0.136c0.178,0.102 0.238,0.329 0.136,0.507l-3.589,6.215l3.589,6.216c0.102,0.178 0.042,0.404 -0.136,0.507c-0.058,0.034 -0.122,0.049 -0.185,0.049Zm-14.725,-8.296c-0.128,0 -0.253,-0.066 -0.321,-0.185l-3.754,-6.502c-0.067,-0.115 -0.067,-0.256 0,-0.371l3.754,-6.502c0.066,-0.115 0.188,-0.186 0.321,-0.186l7.508,0c0.205,0 0.371,0.167 0.371,0.371c0,0.205 -0.166,0.371 -0.371,0.371l-7.294,0l-3.54,6.131l3.647,6.317c0.103,0.177 0.042,0.404 -0.136,0.507c-0.058,0.033 -0.122,0.049 -0.185,0.049Zm11.029,-14.972c-0.063,0 -0.127,-0.016 -0.185,-0.05c-0.178,-0.102 -0.239,-0.329 -0.136,-0.506l3.695,-6.402c0.067,-0.114 0.189,-0.185 0.322,-0.185l7.391,0c0.205,0 0.371,0.166 0.371,0.371c0,0.205 -0.166,0.371 -0.371,0.371l-7.177,0l-3.589,6.216c-0.068,0.119 -0.193,0.185 -0.321,0.185Z" style="fill:#b2b2b2;fill-rule:nonzero;"/><path d="M162.224,127.311l-9.781,0c-0.133,0 -0.255,-0.07 -0.321,-0.185l-4.783,-8.285l-9.563,0c-0.132,0 -0.255,-0.07 -0.321,-0.185l-4.89,-8.471c-0.066,-0.114 -0.066,-0.256 0,-0.37l4.89,-8.471c0.066,-0.115 0.189,-0.185 0.321,-0.185l9.563,0l4.783,-8.285c0.066,-0.115 0.189,-0.185 0.321,-0.185l9.781,0c0.132,0 0.255,0.07 0.321,0.185l4.89,8.47c0.066,0.115 0.066,0.256 0,0.371l-4.783,8.285l4.783,8.285c0.066,0.115 0.066,0.256 0,0.371l-4.89,8.47c-0.066,0.115 -0.189,0.185 -0.321,0.185Zm-9.567,-0.742l9.352,0l4.676,-8.099l-4.676,-8.099l-9.348,0l-4.678,8.103l4.674,8.095Zm-14.666,-8.47l9.348,0l4.676,-8.099l-4.676,-8.099l-9.348,0l-4.676,8.099l4.676,8.099Zm14.67,-8.47l9.348,0l4.676,-8.099l-4.676,-8.099l-9.352,0l-4.674,8.095l4.678,8.103Zm0.977,15.54c-0.128,0 -0.253,-0.066 -0.321,-0.185l-3.696,-6.401c-0.066,-0.115 -0.066,-0.257 0,-0.371l3.696,-6.402c0.102,-0.177 0.328,-0.238 0.506,-0.135c0.178,0.102 0.238,0.329 0.136,0.506l-3.589,6.216l3.589,6.216c0.102,0.177 0.042,0.404 -0.136,0.506c-0.058,0.034 -0.122,0.05 -0.185,0.05Zm-14.725,-8.296c-0.128,0 -0.253,-0.067 -0.321,-0.186l-3.754,-6.502c-0.067,-0.114 -0.067,-0.256 0,-0.37l3.754,-6.502c0.066,-0.115 0.188,-0.186 0.321,-0.186l7.508,0c0.205,0 0.371,0.166 0.371,0.371c0,0.205 -0.166,0.371 -0.371,0.371l-7.294,0l-3.54,6.131l3.647,6.316c0.103,0.178 0.042,0.405 -0.136,0.507c-0.058,0.034 -0.122,0.05 -0.185,0.05Zm11.029,-14.972c-0.063,0 -0.127,-0.016 -0.185,-0.05c-0.178,-0.102 -0.239,-0.329 -0.136,-0.507l3.695,-6.401c0.067,-0.115 0.189,-0.185 0.322,-0.185l7.391,0c0.205,0 0.371,0.166 0.371,0.371c0,0.204 -0.166,0.371 -0.371,0.371l-7.177,0l-3.589,6.215c-0.068,0.119 -0.193,0.186 -0.321,0.186Z" style="fill:#b2b2b2;fill-rule:nonzero;"/><path d="M162.224,220l-9.781,0c-0.133,0 -0.255,-0.071 -0.321,-0.185l-4.783,-8.285l-9.563,0c-0.132,0 -0.255,-0.071 -0.321,-0.186l-4.89,-8.47c-0.066,-0.115 -0.066,-0.256 0,-0.371l4.89,-8.47c0.066,-0.115 0.189,-0.186 0.321,-0.186l9.563,0l4.783,-8.284c0.066,-0.115 0.189,-0.186 0.321,-0.186l9.781,0c0.132,0 0.255,0.071 0.321,0.186l4.89,8.47c0.066,0.115 0.066,0.256 0,0.371l-4.783,8.285l4.783,8.284c0.066,0.115 0.066,0.256 0,0.371l-4.89,8.471c-0.066,0.114 -0.189,0.185 -0.321,0.185Zm-9.567,-0.742l9.352,0l4.676,-8.099l-4.676,-8.099l-9.348,0l-4.678,8.103l4.674,8.095Zm-14.666,-8.47l9.348,0l4.676,-8.099l-4.676,-8.1l-9.348,0l-4.676,8.1l4.676,8.099Zm14.67,-8.47l9.348,0l4.676,-8.1l-4.676,-8.099l-9.352,0l-4.674,8.096l4.678,8.103Zm0.977,15.54c-0.128,0 -0.253,-0.067 -0.321,-0.186l-3.696,-6.401c-0.066,-0.115 -0.066,-0.256 0,-0.371l3.696,-6.401c0.102,-0.177 0.328,-0.239 0.506,-0.136c0.178,0.103 0.238,0.33 0.136,0.507l-3.589,6.216l3.589,6.215c0.102,0.178 0.042,0.405 -0.136,0.507c-0.058,0.034 -0.122,0.05 -0.185,0.05Zm-14.725,-8.296c-0.128,0 -0.253,-0.067 -0.321,-0.186l-3.754,-6.502c-0.067,-0.115 -0.067,-0.256 0,-0.371l3.754,-6.502c0.066,-0.115 0.188,-0.185 0.321,-0.185l7.508,0c0.205,0 0.371,0.166 0.371,0.371c0,0.204 -0.166,0.371 -0.371,0.371l-7.294,0l-3.54,6.131l3.647,6.316c0.103,0.178 0.042,0.404 -0.136,0.507c-0.058,0.034 -0.122,0.05 -0.185,0.05Zm11.029,-14.972c-0.063,0 -0.127,-0.016 -0.185,-0.05c-0.178,-0.103 -0.239,-0.33 -0.136,-0.507l3.695,-6.401c0.067,-0.115 0.189,-0.186 0.322,-0.186l7.391,0c0.205,0 0.371,0.166 0.371,0.371c0,0.205 -0.166,0.371 -0.371,0.371l-7.177,0l-3.589,6.216c-0.068,0.119 -0.193,0.186 -0.321,0.186Z" style="fill:#b2b2b2;fill-rule:nonzero;"/><path d="M137.776,80.967l9.781,0c0.133,0 0.255,-0.071 0.321,-0.185l4.783,-8.285l9.563,0c0.132,0 0.255,-0.071 0.321,-0.186l4.89,-8.47c0.066,-0.115 0.066,-0.256 0,-0.371l-4.89,-8.47c-0.066,-0.115 -0.189,-0.185 -0.321,-0.185l-9.563,0l-4.783,-8.285c-0.066,-0.115 -0.189,-0.186 -0.321,-0.186l-9.781,0c-0.132,0 -0.255,0.071 -0.321,0.186l-4.89,8.47c-0.066,0.115 -0.066,0.256 0,0.371l4.783,8.285l-4.783,8.284c-0.066,0.115 -0.066,0.257 0,0.371l4.89,8.471c0.066,0.114 0.189,0.185 0.321,0.185Zm9.567,-0.742l-9.352,0l-4.676,-8.099l4.676,-8.099l9.348,0l4.678,8.103l-4.674,8.095Zm14.666,-8.47l-9.348,0l-4.676,-8.099l4.676,-8.1l9.348,0l4.676,8.1l-4.676,8.099Zm-14.67,-8.47l-9.348,0l-4.676,-8.1l4.676,-8.099l9.352,0l4.674,8.096l-4.678,8.103Zm-0.977,15.54c0.128,0 0.253,-0.067 0.321,-0.186l3.696,-6.401c0.066,-0.115 0.066,-0.256 0,-0.371l-3.696,-6.401c-0.102,-0.177 -0.328,-0.238 -0.506,-0.136c-0.178,0.103 -0.238,0.33 -0.136,0.507l3.589,6.216l-3.589,6.215c-0.102,0.178 -0.042,0.405 0.136,0.507c0.058,0.034 0.122,0.05 0.185,0.05Zm14.725,-8.296c0.128,0 0.253,-0.067 0.321,-0.186l3.754,-6.502c0.067,-0.115 0.067,-0.256 0,-0.371l-3.754,-6.502c-0.066,-0.115 -0.188,-0.185 -0.321,-0.185l-7.508,0c-0.205,0 -0.371,0.166 -0.371,0.371c0,0.205 0.166,0.371 0.371,0.371l7.294,0l3.54,6.131l-3.647,6.316c-0.103,0.178 -0.042,0.404 0.136,0.507c0.058,0.034 0.122,0.05 0.185,0.05Zm-11.029,-14.972c0.063,0 0.127,-0.016 0.185,-0.05c0.178,-0.103 0.239,-0.329 0.136,-0.507l-3.695,-6.401c-0.067,-0.115 -0.189,-0.186 -0.322,-0.186l-7.391,0c-0.205,0 -0.371,0.167 -0.371,0.371c0,0.205 0.166,0.371 0.371,0.371l7.177,0l3.589,6.216c0.068,0.119 0.193,0.186 0.321,0.186Z" style="fill:#b2b2b2;fill-rule:nonzero;"/><path d="M137.776,173.656l9.781,0c0.133,0 0.255,-0.071 0.321,-0.186l4.783,-8.285l9.563,0c0.132,0 0.255,-0.07 0.321,-0.185l4.89,-8.47c0.066,-0.115 0.066,-0.256 0,-0.371l-4.89,-8.47c-0.066,-0.115 -0.189,-0.186 -0.321,-0.186l-9.563,0l-4.783,-8.285c-0.066,-0.114 -0.189,-0.185 -0.321,-0.185l-9.781,0c-0.132,0 -0.255,0.071 -0.321,0.185l-4.89,8.471c-0.066,0.114 -0.066,0.256 0,0.371l4.783,8.284l-4.783,8.285c-0.066,0.115 -0.066,0.256 0,0.371l4.89,8.47c0.066,0.115 0.189,0.186 0.321,0.186Zm9.567,-0.742l-9.352,0l-4.676,-8.099l4.676,-8.1l9.348,0l4.678,8.103l-4.674,8.096Zm14.666,-8.47l-9.348,0l-4.676,-8.1l4.676,-8.099l9.348,0l4.676,8.099l-4.676,8.1Zm-14.67,-8.471l-9.348,0l-4.676,-8.099l4.676,-8.099l9.352,0l4.674,8.095l-4.678,8.103Zm-0.977,15.54c0.128,0 0.253,-0.066 0.321,-0.185l3.696,-6.401c0.066,-0.115 0.066,-0.256 0,-0.371l-3.696,-6.401c-0.102,-0.178 -0.328,-0.239 -0.506,-0.136c-0.178,0.102 -0.238,0.329 -0.136,0.507l3.589,6.215l-3.589,6.216c-0.102,0.177 -0.042,0.404 0.136,0.507c0.058,0.033 0.122,0.049 0.185,0.049Zm14.725,-8.296c0.128,0 0.253,-0.066 0.321,-0.185l3.754,-6.502c0.067,-0.115 0.067,-0.256 0,-0.371l-3.754,-6.502c-0.066,-0.115 -0.188,-0.186 -0.321,-0.186l-7.508,0c-0.205,0 -0.371,0.167 -0.371,0.371c0,0.205 0.166,0.371 0.371,0.371l7.294,0l3.54,6.131l-3.647,6.317c-0.103,0.177 -0.042,0.404 0.136,0.507c0.058,0.033 0.122,0.049 0.185,0.049Zm-11.029,-14.972c0.063,0 0.127,-0.016 0.185,-0.05c0.178,-0.102 0.239,-0.329 0.136,-0.506l-3.695,-6.402c-0.067,-0.114 -0.189,-0.185 -0.322,-0.185l-7.391,0c-0.205,0 -0.371,0.166 -0.371,0.371c0,0.205 0.166,0.371 0.371,0.371l7.177,0l3.589,6.216c0.068,0.119 0.193,0.185 0.321,0.185Z" style="fill:#b2b2b2;fill-rule:nonzero;"/></g><g><path d="M206.395,34.623l-9.78,0c-0.133,0 -0.255,-0.071 -0.321,-0.186l-4.784,-8.284l-9.562,0c-0.132,0 -0.255,-0.071 -0.321,-0.186l-4.89,-8.47c-0.066,-0.115 -0.066,-0.256 0,-0.371l4.89,-8.47c0.066,-0.115 0.189,-0.186 0.321,-0.186l9.562,0l4.784,-8.285c0.066,-0.114 0.188,-0.185 0.321,-0.185l9.78,0c0.133,0 0.256,0.071 0.322,0.185l4.89,8.471c0.066,0.115 0.066,0.256 0,0.371l-4.783,8.284l4.783,8.285c0.066,0.115 0.066,0.256 0,0.371l-4.89,8.47c-0.066,0.115 -0.189,0.186 -0.322,0.186Zm-9.566,-0.742l9.352,0l4.676,-8.099l-4.676,-8.1l-9.348,0l-4.678,8.103l4.674,8.096Zm-14.667,-8.47l9.348,0l4.676,-8.1l-4.676,-8.099l-9.348,0l-4.675,8.099l4.675,8.1Zm14.671,-8.471l9.348,0l4.676,-8.099l-4.676,-8.099l-9.352,0l-4.674,8.095l4.678,8.103Zm0.977,15.54c-0.128,0 -0.253,-0.066 -0.322,-0.185l-3.695,-6.401c-0.067,-0.115 -0.067,-0.256 0,-0.371l3.695,-6.401c0.103,-0.178 0.329,-0.239 0.507,-0.136c0.178,0.102 0.238,0.329 0.136,0.507l-3.589,6.215l3.589,6.216c0.102,0.178 0.042,0.404 -0.136,0.507c-0.058,0.034 -0.122,0.049 -0.185,0.049Zm-14.725,-8.296c-0.128,0 -0.253,-0.066 -0.322,-0.185l-3.754,-6.502c-0.066,-0.115 -0.066,-0.256 0,-0.371l3.754,-6.502c0.067,-0.115 0.189,-0.186 0.322,-0.186l7.508,0c0.204,0 0.371,0.167 0.371,0.371c0,0.205 -0.167,0.371 -0.371,0.371l-7.294,0l-3.54,6.131l3.647,6.317c0.102,0.177 0.042,0.404 -0.136,0.507c-0.058,0.033 -0.122,0.049 -0.185,0.049Zm11.028,-14.972c-0.062,0 -0.126,-0.016 -0.185,-0.05c-0.177,-0.102 -0.238,-0.329 -0.135,-0.506l3.695,-6.402c0.066,-0.114 0.189,-0.185 0.321,-0.185l7.392,0c0.205,0 0.371,0.166 0.371,0.371c0,0.205 -0.166,0.371 -0.371,0.371l-7.177,0l-3.589,6.216c-0.069,0.119 -0.193,0.185 -0.322,0.185Z" style="fill:#b2b2b2;fill-rule:nonzero;"/><path d="M206.395,127.311l-9.78,0c-0.133,0 -0.255,-0.07 -0.321,-0.185l-4.784,-8.285l-9.562,0c-0.132,0 -0.255,-0.07 -0.321,-0.185l-4.89,-8.471c-0.066,-0.114 -0.066,-0.256 0,-0.37l4.89,-8.471c0.066,-0.115 0.189,-0.185 0.321,-0.185l9.562,0l4.784,-8.285c0.066,-0.115 0.188,-0.185 0.321,-0.185l9.78,0c0.133,0 0.256,0.07 0.322,0.185l4.89,8.47c0.066,0.115 0.066,0.256 0,0.371l-4.783,8.285l4.783,8.285c0.066,0.115 0.066,0.256 0,0.371l-4.89,8.47c-0.066,0.115 -0.189,0.185 -0.322,0.185Zm-9.566,-0.742l9.352,0l4.676,-8.099l-4.676,-8.099l-9.348,0l-4.678,8.103l4.674,8.095Zm-14.667,-8.47l9.348,0l4.676,-8.099l-4.676,-8.099l-9.348,0l-4.675,8.099l4.675,8.099Zm14.671,-8.47l9.348,0l4.676,-8.099l-4.676,-8.099l-9.352,0l-4.674,8.095l4.678,8.103Zm0.977,15.54c-0.128,0 -0.253,-0.066 -0.322,-0.185l-3.695,-6.401c-0.067,-0.115 -0.067,-0.257 0,-0.371l3.695,-6.402c0.103,-0.177 0.329,-0.238 0.507,-0.135c0.178,0.102 0.238,0.329 0.136,0.506l-3.589,6.216l3.589,6.216c0.102,0.177 0.042,0.404 -0.136,0.506c-0.058,0.034 -0.122,0.05 -0.185,0.05Zm-14.725,-8.296c-0.128,0 -0.253,-0.067 -0.322,-0.186l-3.754,-6.502c-0.066,-0.114 -0.066,-0.256 0,-0.37l3.754,-6.502c0.067,-0.115 0.189,-0.186 0.322,-0.186l7.508,0c0.204,0 0.371,0.166 0.371,0.371c0,0.205 -0.167,0.371 -0.371,0.371l-7.294,0l-3.54,6.131l3.647,6.316c0.102,0.178 0.042,0.405 -0.136,0.507c-0.058,0.034 -0.122,0.05 -0.185,0.05Zm11.028,-14.972c-0.062,0 -0.126,-0.016 -0.185,-0.05c-0.177,-0.102 -0.238,-0.329 -0.135,-0.507l3.695,-6.401c0.066,-0.115 0.189,-0.185 0.321,-0.185l7.392,0c0.205,0 0.371,0.166 0.371,0.371c0,0.204 -0.166,0.371 -0.371,0.371l-7.177,0l-3.589,6.215c-0.069,0.119 -0.193,0.186 -0.322,0.186Z" style="fill:#b2b2b2;fill-rule:nonzero;"/><path d="M206.395,220l-9.78,0c-0.133,0 -0.255,-0.071 -0.321,-0.185l-4.784,-8.285l-9.562,0c-0.132,0 -0.255,-0.071 -0.321,-0.186l-4.89,-8.47c-0.066,-0.115 -0.066,-0.256 0,-0.371l4.89,-8.47c0.066,-0.115 0.189,-0.186 0.321,-0.186l9.562,0l4.784,-8.284c0.066,-0.115 0.188,-0.186 0.321,-0.186l9.78,0c0.133,0 0.256,0.071 0.322,0.186l4.89,8.47c0.066,0.115 0.066,0.256 0,0.371l-4.783,8.285l4.783,8.284c0.066,0.115 0.066,0.256 0,0.371l-4.89,8.471c-0.066,0.114 -0.189,0.185 -0.322,0.185Zm-9.566,-0.742l9.352,0l4.676,-8.099l-4.676,-8.099l-9.348,0l-4.678,8.103l4.674,8.095Zm-14.667,-8.47l9.348,0l4.676,-8.099l-4.676,-8.1l-9.348,0l-4.675,8.1l4.675,8.099Zm14.671,-8.47l9.348,0l4.676,-8.1l-4.676,-8.099l-9.352,0l-4.674,8.096l4.678,8.103Zm0.977,15.54c-0.128,0 -0.253,-0.067 -0.322,-0.186l-3.695,-6.401c-0.067,-0.115 -0.067,-0.256 0,-0.371l3.695,-6.401c0.103,-0.177 0.329,-0.239 0.507,-0.136c0.178,0.103 0.238,0.33 0.136,0.507l-3.589,6.216l3.589,6.215c0.102,0.178 0.042,0.405 -0.136,0.507c-0.058,0.034 -0.122,0.05 -0.185,0.05Zm-14.725,-8.296c-0.128,0 -0.253,-0.067 -0.322,-0.186l-3.754,-6.502c-0.066,-0.115 -0.066,-0.256 0,-0.371l3.754,-6.502c0.067,-0.115 0.189,-0.185 0.322,-0.185l7.508,0c0.204,0 0.371,0.166 0.371,0.371c0,0.204 -0.167,0.371 -0.371,0.371l-7.294,0l-3.54,6.131l3.647,6.316c0.102,0.178 0.042,0.404 -0.136,0.507c-0.058,0.034 -0.122,0.05 -0.185,0.05Zm11.028,-14.972c-0.062,0 -0.126,-0.016 -0.185,-0.05c-0.177,-0.103 -0.238,-0.33 -0.135,-0.507l3.695,-6.401c0.066,-0.115 0.189,-0.186 0.321,-0.186l7.392,0c0.205,0 0.371,0.166 0.371,0.371c0,0.205 -0.166,0.371 -0.371,0.371l-7.177,0l-3.589,6.216c-0.069,0.119 -0.193,0.186 -0.322,0.186Z" style="fill:#b2b2b2;fill-rule:nonzero;"/><path d="M181.948,80.967l9.781,0c0.132,0 0.255,-0.071 0.321,-0.185l4.783,-8.285l9.562,0c0.133,0 0.255,-0.071 0.322,-0.186l4.89,-8.47c0.066,-0.115 0.066,-0.256 0,-0.371l-4.89,-8.47c-0.067,-0.115 -0.189,-0.185 -0.322,-0.185l-9.562,0l-4.783,-8.285c-0.066,-0.115 -0.189,-0.186 -0.321,-0.186l-9.781,0c-0.133,0 -0.255,0.071 -0.321,0.186l-4.89,8.47c-0.066,0.115 -0.066,0.256 0,0.371l4.783,8.285l-4.783,8.284c-0.066,0.115 -0.066,0.257 0,0.371l4.89,8.471c0.066,0.114 0.188,0.185 0.321,0.185Zm9.567,-0.742l-9.353,0l-4.676,-8.099l4.676,-8.099l9.348,0l4.678,8.103l-4.673,8.095Zm14.666,-8.47l-9.348,0l-4.676,-8.099l4.676,-8.1l9.348,0l4.676,8.1l-4.676,8.099Zm-14.671,-8.47l-9.348,0l-4.676,-8.1l4.676,-8.099l9.353,0l4.673,8.096l-4.678,8.103Zm-0.976,15.54c0.128,0 0.252,-0.067 0.321,-0.186l3.696,-6.401c0.066,-0.115 0.066,-0.256 0,-0.371l-3.696,-6.401c-0.102,-0.177 -0.328,-0.238 -0.507,-0.136c-0.177,0.103 -0.238,0.33 -0.135,0.507l3.588,6.216l-3.588,6.215c-0.103,0.178 -0.042,0.405 0.135,0.507c0.059,0.034 0.123,0.05 0.186,0.05Zm14.724,-8.296c0.129,0 0.253,-0.067 0.322,-0.186l3.754,-6.502c0.066,-0.115 0.066,-0.256 0,-0.371l-3.754,-6.502c-0.066,-0.115 -0.189,-0.185 -0.321,-0.185l-7.508,0c-0.205,0 -0.371,0.166 -0.371,0.371c0,0.205 0.166,0.371 0.371,0.371l7.294,0l3.539,6.131l-3.646,6.316c-0.103,0.178 -0.042,0.404 0.135,0.507c0.059,0.034 0.123,0.05 0.185,0.05Zm-11.028,-14.972c0.063,0 0.127,-0.016 0.185,-0.05c0.178,-0.103 0.238,-0.329 0.136,-0.507l-3.696,-6.401c-0.066,-0.115 -0.188,-0.186 -0.321,-0.186l-7.391,0c-0.205,0 -0.371,0.167 -0.371,0.371c0,0.205 0.166,0.371 0.371,0.371l7.177,0l3.588,6.216c0.069,0.119 0.194,0.186 0.322,0.186Z" style="fill:#b2b2b2;fill-rule:nonzero;"/><path d="M181.948,173.656l9.781,0c0.132,0 0.255,-0.071 0.321,-0.186l4.783,-8.285l9.562,0c0.133,0 0.255,-0.07 0.322,-0.185l4.89,-8.47c0.066,-0.115 0.066,-0.256 0,-0.371l-4.89,-8.47c-0.067,-0.115 -0.189,-0.186 -0.322,-0.186l-9.562,0l-4.783,-8.285c-0.066,-0.114 -0.189,-0.185 -0.321,-0.185l-9.781,0c-0.133,0 -0.255,0.071 -0.321,0.185l-4.89,8.471c-0.066,0.114 -0.066,0.256 0,0.371l4.783,8.284l-4.783,8.285c-0.066,0.115 -0.066,0.256 0,0.371l4.89,8.47c0.066,0.115 0.188,0.186 0.321,0.186Zm9.567,-0.742l-9.353,0l-4.676,-8.099l4.676,-8.1l9.348,0l4.678,8.103l-4.673,8.096Zm14.666,-8.47l-9.348,0l-4.676,-8.1l4.676,-8.099l9.348,0l4.676,8.099l-4.676,8.1Zm-14.671,-8.471l-9.348,0l-4.676,-8.099l4.676,-8.099l9.353,0l4.673,8.095l-4.678,8.103Zm-0.976,15.54c0.128,0 0.252,-0.066 0.321,-0.185l3.696,-6.401c0.066,-0.115 0.066,-0.256 0,-0.371l-3.696,-6.401c-0.102,-0.178 -0.328,-0.239 -0.507,-0.136c-0.177,0.102 -0.238,0.329 -0.135,0.507l3.588,6.215l-3.588,6.216c-0.103,0.177 -0.042,0.404 0.135,0.507c0.059,0.033 0.123,0.049 0.186,0.049Zm14.724,-8.296c0.129,0 0.253,-0.066 0.322,-0.185l3.754,-6.502c0.066,-0.115 0.066,-0.256 0,-0.371l-3.754,-6.502c-0.066,-0.115 -0.189,-0.186 -0.321,-0.186l-7.508,0c-0.205,0 -0.371,0.167 -0.371,0.371c0,0.205 0.166,0.371 0.371,0.371l7.294,0l3.539,6.131l-3.646,6.317c-0.103,0.177 -0.042,0.404 0.135,0.507c0.059,0.033 0.123,0.049 0.185,0.049Zm-11.028,-14.972c0.063,0 0.127,-0.016 0.185,-0.05c0.178,-0.102 0.238,-0.329 0.136,-0.506l-3.696,-6.402c-0.066,-0.114 -0.188,-0.185 -0.321,-0.185l-7.391,0c-0.205,0 -0.371,0.166 -0.371,0.371c0,0.205 0.166,0.371 0.371,0.371l7.177,0l3.588,6.216c0.069,0.119 0.194,0.185 0.322,0.185Z" style="fill:#b2b2b2;fill-rule:nonzero;"/></g><g><path d="M250.567,34.623l-9.78,0c-0.133,0 -0.255,-0.071 -0.322,-0.186l-4.783,-8.284l-9.562,0c-0.132,0 -0.255,-0.071 -0.321,-0.186l-4.89,-8.47c-0.067,-0.115 -0.067,-0.256 0,-0.371l4.89,-8.47c0.066,-0.115 0.189,-0.186 0.321,-0.186l9.562,0l4.783,-8.285c0.067,-0.114 0.189,-0.185 0.322,-0.185l9.78,0c0.133,0 0.255,0.071 0.322,0.185l4.89,8.471c0.066,0.115 0.066,0.256 0,0.371l-4.783,8.284l4.783,8.285c0.066,0.115 0.066,0.256 0,0.371l-4.89,8.47c-0.067,0.115 -0.189,0.186 -0.322,0.186Zm-9.566,-0.742l9.352,0l4.676,-8.099l-4.676,-8.1l-9.348,0l-4.678,8.103l4.674,8.096Zm-14.667,-8.47l9.348,0l4.676,-8.1l-4.676,-8.099l-9.348,0l-4.676,8.099l4.676,8.1Zm14.671,-8.471l9.348,0l4.676,-8.099l-4.676,-8.099l-9.352,0l-4.674,8.095l4.678,8.103Zm0.977,15.54c-0.128,0 -0.253,-0.066 -0.322,-0.185l-3.696,-6.401c-0.066,-0.115 -0.066,-0.256 0,-0.371l3.696,-6.401c0.103,-0.178 0.329,-0.239 0.507,-0.136c0.177,0.102 0.238,0.329 0.136,0.507l-3.589,6.215l3.589,6.216c0.102,0.178 0.041,0.404 -0.136,0.507c-0.059,0.034 -0.123,0.049 -0.185,0.049Zm-14.725,-8.296c-0.128,0 -0.253,-0.066 -0.322,-0.185l-3.754,-6.502c-0.066,-0.115 -0.066,-0.256 0,-0.371l3.754,-6.502c0.066,-0.115 0.189,-0.186 0.321,-0.186l7.508,0c0.205,0 0.371,0.167 0.371,0.371c0,0.205 -0.166,0.371 -0.371,0.371l-7.293,0l-3.54,6.131l3.647,6.317c0.102,0.177 0.041,0.404 -0.136,0.507c-0.058,0.033 -0.122,0.049 -0.185,0.049Zm11.028,-14.972c-0.063,0 -0.127,-0.016 -0.185,-0.05c-0.177,-0.102 -0.238,-0.329 -0.136,-0.506l3.696,-6.402c0.066,-0.114 0.189,-0.185 0.321,-0.185l7.391,0c0.205,0 0.371,0.166 0.371,0.371c0,0.205 -0.166,0.371 -0.371,0.371l-7.177,0l-3.588,6.216c-0.069,0.119 -0.194,0.185 -0.322,0.185Z" style="fill:#b2b2b2;fill-rule:nonzero;"/><path d="M250.567,127.311l-9.78,0c-0.133,0 -0.255,-0.07 -0.322,-0.185l-4.783,-8.285l-9.562,0c-0.132,0 -0.255,-0.07 -0.321,-0.185l-4.89,-8.471c-0.067,-0.114 -0.067,-0.256 0,-0.37l4.89,-8.471c0.066,-0.115 0.189,-0.185 0.321,-0.185l9.562,0l4.783,-8.285c0.067,-0.115 0.189,-0.185 0.322,-0.185l9.78,0c0.133,0 0.255,0.07 0.322,0.185l4.89,8.47c0.066,0.115 0.066,0.256 0,0.371l-4.783,8.285l4.783,8.285c0.066,0.115 0.066,0.256 0,0.371l-4.89,8.47c-0.067,0.115 -0.189,0.185 -0.322,0.185Zm-9.566,-0.742l9.352,0l4.676,-8.099l-4.676,-8.099l-9.348,0l-4.678,8.103l4.674,8.095Zm-14.667,-8.47l9.348,0l4.676,-8.099l-4.676,-8.099l-9.348,0l-4.676,8.099l4.676,8.099Zm14.671,-8.47l9.348,0l4.676,-8.099l-4.676,-8.099l-9.352,0l-4.674,8.095l4.678,8.103Zm0.977,15.54c-0.128,0 -0.253,-0.066 -0.322,-0.185l-3.696,-6.401c-0.066,-0.115 -0.066,-0.257 0,-0.371l3.696,-6.402c0.103,-0.177 0.329,-0.238 0.507,-0.135c0.177,0.102 0.238,0.329 0.136,0.506l-3.589,6.216l3.589,6.216c0.102,0.177 0.041,0.404 -0.136,0.506c-0.059,0.034 -0.123,0.05 -0.185,0.05Zm-14.725,-8.296c-0.128,0 -0.253,-0.067 -0.322,-0.186l-3.754,-6.502c-0.066,-0.114 -0.066,-0.256 0,-0.37l3.754,-6.502c0.066,-0.115 0.189,-0.186 0.321,-0.186l7.508,0c0.205,0 0.371,0.166 0.371,0.371c0,0.205 -0.166,0.371 -0.371,0.371l-7.293,0l-3.54,6.131l3.647,6.316c0.102,0.178 0.041,0.405 -0.136,0.507c-0.058,0.034 -0.122,0.05 -0.185,0.05Zm11.028,-14.972c-0.063,0 -0.127,-0.016 -0.185,-0.05c-0.177,-0.102 -0.238,-0.329 -0.136,-0.507l3.696,-6.401c0.066,-0.115 0.189,-0.185 0.321,-0.185l7.391,0c0.205,0 0.371,0.166 0.371,0.371c0,0.204 -0.166,0.371 -0.371,0.371l-7.177,0l-3.588,6.215c-0.069,0.119 -0.194,0.186 -0.322,0.186Z" style="fill:#b2b2b2;fill-rule:nonzero;"/><path d="M250.567,220l-9.78,0c-0.133,0 -0.255,-0.071 -0.322,-0.185l-4.783,-8.285l-9.562,0c-0.132,0 -0.255,-0.071 -0.321,-0.186l-4.89,-8.47c-0.067,-0.115 -0.067,-0.256 0,-0.371l4.89,-8.47c0.066,-0.115 0.189,-0.186 0.321,-0.186l9.562,0l4.783,-8.284c0.067,-0.115 0.189,-0.186 0.322,-0.186l9.78,0c0.133,0 0.255,0.071 0.322,0.186l4.89,8.47c0.066,0.115 0.066,0.256 0,0.371l-4.783,8.285l4.783,8.284c0.066,0.115 0.066,0.256 0,0.371l-4.89,8.471c-0.067,0.114 -0.189,0.185 -0.322,0.185Zm-9.566,-0.742l9.352,0l4.676,-8.099l-4.676,-8.099l-9.348,0l-4.678,8.103l4.674,8.095Zm-14.667,-8.47l9.348,0l4.676,-8.099l-4.676,-8.1l-9.348,0l-4.676,8.1l4.676,8.099Zm14.671,-8.47l9.348,0l4.676,-8.1l-4.676,-8.099l-9.352,0l-4.674,8.096l4.678,8.103Zm0.977,15.54c-0.128,0 -0.253,-0.067 -0.322,-0.186l-3.696,-6.401c-0.066,-0.115 -0.066,-0.256 0,-0.371l3.696,-6.401c0.103,-0.177 0.329,-0.239 0.507,-0.136c0.177,0.103 0.238,0.33 0.136,0.507l-3.589,6.216l3.589,6.215c0.102,0.178 0.041,0.405 -0.136,0.507c-0.059,0.034 -0.123,0.05 -0.185,0.05Zm-14.725,-8.296c-0.128,0 -0.253,-0.067 -0.322,-0.186l-3.754,-6.502c-0.066,-0.115 -0.066,-0.256 0,-0.371l3.754,-6.502c0.066,-0.115 0.189,-0.185 0.321,-0.185l7.508,0c0.205,0 0.371,0.166 0.371,0.371c0,0.204 -0.166,0.371 -0.371,0.371l-7.293,0l-3.54,6.131l3.647,6.316c0.102,0.178 0.041,0.404 -0.136,0.507c-0.058,0.034 -0.122,0.05 -0.185,0.05Zm11.028,-14.972c-0.063,0 -0.127,-0.016 -0.185,-0.05c-0.177,-0.103 -0.238,-0.33 -0.136,-0.507l3.696,-6.401c0.066,-0.115 0.189,-0.186 0.321,-0.186l7.391,0c0.205,0 0.371,0.166 0.371,0.371c0,0.205 -0.166,0.371 -0.371,0.371l-7.177,0l-3.588,6.216c-0.069,0.119 -0.194,0.186 -0.322,0.186Z" style="fill:#b2b2b2;fill-rule:nonzero;"/><path d="M226.12,80.967l9.781,0c0.132,0 0.255,-0.071 0.321,-0.185l4.783,-8.285l9.562,0c0.133,0 0.255,-0.071 0.321,-0.186l4.891,-8.47c0.066,-0.115 0.066,-0.256 0,-0.371l-4.891,-8.47c-0.066,-0.115 -0.188,-0.185 -0.321,-0.185l-9.562,0l-4.783,-8.285c-0.066,-0.115 -0.189,-0.186 -0.321,-0.186l-9.781,0c-0.133,0 -0.255,0.071 -0.321,0.186l-4.891,8.47c-0.066,0.115 -0.066,0.256 0,0.371l4.784,8.285l-4.784,8.284c-0.066,0.115 -0.066,0.257 0,0.371l4.891,8.471c0.066,0.114 0.188,0.185 0.321,0.185Zm9.566,-0.742l-9.352,0l-4.676,-8.099l4.676,-8.099l9.348,0l4.678,8.103l-4.674,8.095Zm14.667,-8.47l-9.348,0l-4.676,-8.099l4.676,-8.1l9.348,0l4.676,8.1l-4.676,8.099Zm-14.671,-8.47l-9.348,0l-4.676,-8.1l4.676,-8.099l9.352,0l4.674,8.096l-4.678,8.103Zm-0.977,15.54c0.129,0 0.253,-0.067 0.322,-0.186l3.696,-6.401c0.066,-0.115 0.066,-0.256 0,-0.371l-3.696,-6.401c-0.103,-0.177 -0.329,-0.238 -0.507,-0.136c-0.177,0.103 -0.238,0.33 -0.136,0.507l3.589,6.216l-3.589,6.215c-0.102,0.178 -0.041,0.405 0.136,0.507c0.059,0.034 0.123,0.05 0.185,0.05Zm14.725,-8.296c0.128,0 0.253,-0.067 0.322,-0.186l3.754,-6.502c0.066,-0.115 0.066,-0.256 0,-0.371l-3.754,-6.502c-0.066,-0.115 -0.189,-0.185 -0.321,-0.185l-7.508,0c-0.205,0 -0.371,0.166 -0.371,0.371c0,0.205 0.166,0.371 0.371,0.371l7.293,0l3.54,6.131l-3.647,6.316c-0.102,0.178 -0.041,0.404 0.136,0.507c0.059,0.034 0.122,0.05 0.185,0.05Zm-11.028,-14.972c0.063,0 0.127,-0.016 0.185,-0.05c0.178,-0.103 0.238,-0.329 0.136,-0.507l-3.696,-6.401c-0.066,-0.115 -0.189,-0.186 -0.321,-0.186l-7.391,0c-0.205,0 -0.371,0.167 -0.371,0.371c0,0.205 0.166,0.371 0.371,0.371l7.177,0l3.588,6.216c0.069,0.119 0.194,0.186 0.322,0.186Z" style="fill:#b2b2b2;fill-rule:nonzero;"/><path d="M226.12,173.656l9.781,0c0.132,0 0.255,-0.071 0.321,-0.186l4.783,-8.285l9.562,0c0.133,0 0.255,-0.07 0.321,-0.185l4.891,-8.47c0.066,-0.115 0.066,-0.256 0,-0.371l-4.891,-8.47c-0.066,-0.115 -0.188,-0.186 -0.321,-0.186l-9.562,0l-4.783,-8.285c-0.066,-0.114 -0.189,-0.185 -0.321,-0.185l-9.781,0c-0.133,0 -0.255,0.071 -0.321,0.185l-4.891,8.471c-0.066,0.114 -0.066,0.256 0,0.371l4.784,8.284l-4.784,8.285c-0.066,0.115 -0.066,0.256 0,0.371l4.891,8.47c0.066,0.115 0.188,0.186 0.321,0.186Zm9.566,-0.742l-9.352,0l-4.676,-8.099l4.676,-8.1l9.348,0l4.678,8.103l-4.674,8.096Zm14.667,-8.47l-9.348,0l-4.676,-8.1l4.676,-8.099l9.348,0l4.676,8.099l-4.676,8.1Zm-14.671,-8.471l-9.348,0l-4.676,-8.099l4.676,-8.099l9.352,0l4.674,8.095l-4.678,8.103Zm-0.977,15.54c0.129,0 0.253,-0.066 0.322,-0.185l3.696,-6.401c0.066,-0.115 0.066,-0.256 0,-0.371l-3.696,-6.401c-0.103,-0.178 -0.329,-0.239 -0.507,-0.136c-0.177,0.102 -0.238,0.329 -0.136,0.507l3.589,6.215l-3.589,6.216c-0.102,0.177 -0.041,0.404 0.136,0.507c0.059,0.033 0.123,0.049 0.185,0.049Zm14.725,-8.296c0.128,0 0.253,-0.066 0.322,-0.185l3.754,-6.502c0.066,-0.115 0.066,-0.256 0,-0.371l-3.754,-6.502c-0.066,-0.115 -0.189,-0.186 -0.321,-0.186l-7.508,0c-0.205,0 -0.371,0.167 -0.371,0.371c0,0.205 0.166,0.371 0.371,0.371l7.293,0l3.54,6.131l-3.647,6.317c-0.102,0.177 -0.041,0.404 0.136,0.507c0.059,0.033 0.122,0.049 0.185,0.049Zm-11.028,-14.972c0.063,0 0.127,-0.016 0.185,-0.05c0.178,-0.102 0.238,-0.329 0.136,-0.506l-3.696,-6.402c-0.066,-0.114 -0.189,-0.185 -0.321,-0.185l-7.391,0c-0.205,0 -0.371,0.166 -0.371,0.371c0,0.205 0.166,0.371 0.371,0.371l7.177,0l3.588,6.216c0.069,0.119 0.194,0.185 0.322,0.185Z" style="fill:#b2b2b2;fill-rule:nonzero;"/></g><g><path d="M294.739,34.623l-9.781,0c-0.132,0 -0.255,-0.071 -0.321,-0.186l-4.783,-8.284l-9.562,0c-0.133,0 -0.255,-0.071 -0.322,-0.186l-4.89,-8.47c-0.066,-0.115 -0.066,-0.256 0,-0.371l4.89,-8.47c0.067,-0.115 0.189,-0.186 0.322,-0.186l9.562,0l4.783,-8.285c0.066,-0.114 0.189,-0.185 0.321,-0.185l9.781,0c0.133,0 0.255,0.071 0.321,0.185l4.89,8.471c0.067,0.115 0.067,0.256 0,0.371l-4.783,8.284l4.783,8.285c0.067,0.115 0.067,0.256 0,0.371l-4.89,8.47c-0.066,0.115 -0.188,0.186 -0.321,0.186Zm-9.567,-0.742l9.353,0l4.676,-8.099l-4.676,-8.1l-9.348,0l-4.678,8.103l4.673,8.096Zm-14.666,-8.47l9.348,0l4.676,-8.1l-4.676,-8.099l-9.348,0l-4.676,8.099l4.676,8.1Zm14.671,-8.471l9.348,0l4.676,-8.099l-4.676,-8.099l-9.353,0l-4.673,8.095l4.678,8.103Zm0.976,15.54c-0.128,0 -0.252,-0.066 -0.321,-0.185l-3.696,-6.401c-0.066,-0.115 -0.066,-0.256 0,-0.371l3.696,-6.401c0.102,-0.178 0.329,-0.239 0.507,-0.136c0.177,0.102 0.238,0.329 0.135,0.507l-3.588,6.215l3.588,6.216c0.103,0.178 0.042,0.404 -0.135,0.507c-0.059,0.034 -0.123,0.049 -0.186,0.049Zm-14.724,-8.296c-0.129,0 -0.253,-0.066 -0.322,-0.185l-3.754,-6.502c-0.066,-0.115 -0.066,-0.256 0,-0.371l3.754,-6.502c0.066,-0.115 0.189,-0.186 0.321,-0.186l7.508,0c0.205,0 0.371,0.167 0.371,0.371c0,0.205 -0.166,0.371 -0.371,0.371l-7.294,0l-3.539,6.131l3.647,6.317c0.102,0.177 0.041,0.404 -0.136,0.507c-0.059,0.033 -0.123,0.049 -0.185,0.049Zm11.028,-14.972c-0.063,0 -0.127,-0.016 -0.185,-0.05c-0.178,-0.102 -0.238,-0.329 -0.136,-0.506l3.696,-6.402c0.066,-0.114 0.188,-0.185 0.321,-0.185l7.391,0c0.205,0 0.371,0.166 0.371,0.371c0,0.205 -0.166,0.371 -0.371,0.371l-7.177,0l-3.588,6.216c-0.069,0.119 -0.194,0.185 -0.322,0.185Z" style="fill:#b2b2b2;fill-rule:nonzero;"/><path d="M294.739,127.311l-9.781,0c-0.132,0 -0.255,-0.07 -0.321,-0.185l-4.783,-8.285l-9.562,0c-0.133,0 -0.255,-0.07 -0.322,-0.185l-4.89,-8.471c-0.066,-0.114 -0.066,-0.256 0,-0.37l4.89,-8.471c0.067,-0.115 0.189,-0.185 0.322,-0.185l9.562,0l4.783,-8.285c0.066,-0.115 0.189,-0.185 0.321,-0.185l9.781,0c0.133,0 0.255,0.07 0.321,0.185l4.89,8.47c0.067,0.115 0.067,0.256 0,0.371l-4.783,8.285l4.783,8.285c0.067,0.115 0.067,0.256 0,0.371l-4.89,8.47c-0.066,0.115 -0.188,0.185 -0.321,0.185Zm-9.567,-0.742l9.353,0l4.676,-8.099l-4.676,-8.099l-9.348,0l-4.678,8.103l4.673,8.095Zm-14.666,-8.47l9.348,0l4.676,-8.099l-4.676,-8.099l-9.348,0l-4.676,8.099l4.676,8.099Zm14.671,-8.47l9.348,0l4.676,-8.099l-4.676,-8.099l-9.353,0l-4.673,8.095l4.678,8.103Zm0.976,15.54c-0.128,0 -0.252,-0.066 -0.321,-0.185l-3.696,-6.401c-0.066,-0.115 -0.066,-0.257 0,-0.371l3.696,-6.402c0.102,-0.177 0.329,-0.238 0.507,-0.135c0.177,0.102 0.238,0.329 0.135,0.506l-3.588,6.216l3.588,6.216c0.103,0.177 0.042,0.404 -0.135,0.506c-0.059,0.034 -0.123,0.05 -0.186,0.05Zm-14.724,-8.296c-0.129,0 -0.253,-0.067 -0.322,-0.186l-3.754,-6.502c-0.066,-0.114 -0.066,-0.256 0,-0.37l3.754,-6.502c0.066,-0.115 0.189,-0.186 0.321,-0.186l7.508,0c0.205,0 0.371,0.166 0.371,0.371c0,0.205 -0.166,0.371 -0.371,0.371l-7.294,0l-3.539,6.131l3.647,6.316c0.102,0.178 0.041,0.405 -0.136,0.507c-0.059,0.034 -0.123,0.05 -0.185,0.05Zm11.028,-14.972c-0.063,0 -0.127,-0.016 -0.185,-0.05c-0.178,-0.102 -0.238,-0.329 -0.136,-0.507l3.696,-6.401c0.066,-0.115 0.188,-0.185 0.321,-0.185l7.391,0c0.205,0 0.371,0.166 0.371,0.371c0,0.204 -0.166,0.371 -0.371,0.371l-7.177,0l-3.588,6.215c-0.069,0.119 -0.194,0.186 -0.322,0.186Z" style="fill:#b2b2b2;fill-rule:nonzero;"/><path d="M294.739,220l-9.781,0c-0.132,0 -0.255,-0.071 -0.321,-0.185l-4.783,-8.285l-9.562,0c-0.133,0 -0.255,-0.071 -0.322,-0.186l-4.89,-8.47c-0.066,-0.115 -0.066,-0.256 0,-0.371l4.89,-8.47c0.067,-0.115 0.189,-0.186 0.322,-0.186l9.562,0l4.783,-8.284c0.066,-0.115 0.189,-0.186 0.321,-0.186l9.781,0c0.133,0 0.255,0.071 0.321,0.186l4.89,8.47c0.067,0.115 0.067,0.256 0,0.371l-4.783,8.285l4.783,8.284c0.067,0.115 0.067,0.256 0,0.371l-4.89,8.471c-0.066,0.114 -0.188,0.185 -0.321,0.185Zm-9.567,-0.742l9.353,0l4.676,-8.099l-4.676,-8.099l-9.348,0l-4.678,8.103l4.673,8.095Zm-14.666,-8.47l9.348,0l4.676,-8.099l-4.676,-8.1l-9.348,0l-4.676,8.1l4.676,8.099Zm14.671,-8.47l9.348,0l4.676,-8.1l-4.676,-8.099l-9.353,0l-4.673,8.096l4.678,8.103Zm0.976,15.54c-0.128,0 -0.252,-0.067 -0.321,-0.186l-3.696,-6.401c-0.066,-0.115 -0.066,-0.256 0,-0.371l3.696,-6.401c0.102,-0.177 0.329,-0.239 0.507,-0.136c0.177,0.103 0.238,0.33 0.135,0.507l-3.588,6.216l3.588,6.215c0.103,0.178 0.042,0.405 -0.135,0.507c-0.059,0.034 -0.123,0.05 -0.186,0.05Zm-14.724,-8.296c-0.129,0 -0.253,-0.067 -0.322,-0.186l-3.754,-6.502c-0.066,-0.115 -0.066,-0.256 0,-0.371l3.754,-6.502c0.066,-0.115 0.189,-0.185 0.321,-0.185l7.508,0c0.205,0 0.371,0.166 0.371,0.371c0,0.204 -0.166,0.371 -0.371,0.371l-7.294,0l-3.539,6.131l3.647,6.316c0.102,0.178 0.041,0.404 -0.136,0.507c-0.059,0.034 -0.123,0.05 -0.185,0.05Zm11.028,-14.972c-0.063,0 -0.127,-0.016 -0.185,-0.05c-0.178,-0.103 -0.238,-0.33 -0.136,-0.507l3.696,-6.401c0.066,-0.115 0.188,-0.186 0.321,-0.186l7.391,0c0.205,0 0.371,0.166 0.371,0.371c0,0.205 -0.166,0.371 -0.371,0.371l-7.177,0l-3.588,6.216c-0.069,0.119 -0.194,0.186 -0.322,0.186Z" style="fill:#b2b2b2;fill-rule:nonzero;"/><path d="M270.292,80.967l9.78,0c0.133,0 0.255,-0.071 0.322,-0.185l4.783,-8.285l9.562,0c0.132,0 0.255,-0.071 0.321,-0.186l4.89,-8.47c0.067,-0.115 0.067,-0.256 0,-0.371l-4.89,-8.47c-0.066,-0.115 -0.189,-0.185 -0.321,-0.185l-9.562,0l-4.783,-8.285c-0.067,-0.115 -0.189,-0.186 -0.322,-0.186l-9.78,0c-0.133,0 -0.255,0.071 -0.322,0.186l-4.89,8.47c-0.066,0.115 -0.066,0.256 0,0.371l4.783,8.285l-4.783,8.284c-0.066,0.115 -0.066,0.257 0,0.371l4.89,8.471c0.067,0.114 0.189,0.185 0.322,0.185Zm9.566,-0.742l-9.352,0l-4.676,-8.099l4.676,-8.099l9.348,0l4.678,8.103l-4.674,8.095Zm14.667,-8.47l-9.348,0l-4.676,-8.099l4.676,-8.1l9.348,0l4.676,8.1l-4.676,8.099Zm-14.671,-8.47l-9.348,0l-4.676,-8.1l4.676,-8.099l9.352,0l4.674,8.096l-4.678,8.103Zm-0.977,15.54c0.128,0 0.253,-0.067 0.322,-0.186l3.695,-6.401c0.067,-0.115 0.067,-0.256 0,-0.371l-3.695,-6.401c-0.103,-0.177 -0.329,-0.238 -0.507,-0.136c-0.177,0.103 -0.238,0.33 -0.136,0.507l3.589,6.216l-3.589,6.215c-0.102,0.178 -0.041,0.405 0.136,0.507c0.058,0.034 0.122,0.05 0.185,0.05Zm14.725,-8.296c0.128,0 0.253,-0.067 0.322,-0.186l3.754,-6.502c0.066,-0.115 0.066,-0.256 0,-0.371l-3.754,-6.502c-0.067,-0.115 -0.189,-0.185 -0.322,-0.185l-7.507,0c-0.205,0 -0.371,0.166 -0.371,0.371c0,0.205 0.166,0.371 0.371,0.371l7.293,0l3.54,6.131l-3.647,6.316c-0.102,0.178 -0.042,0.404 0.136,0.507c0.058,0.034 0.122,0.05 0.185,0.05Zm-11.028,-14.972c0.063,0 0.126,-0.016 0.185,-0.05c0.177,-0.103 0.238,-0.329 0.136,-0.507l-3.696,-6.401c-0.066,-0.115 -0.189,-0.186 -0.321,-0.186l-7.392,0c-0.204,0 -0.371,0.167 -0.371,0.371c0,0.205 0.167,0.371 0.371,0.371l7.177,0l3.589,6.216c0.069,0.119 0.193,0.186 0.322,0.186Z" style="fill:#b2b2b2;fill-rule:nonzero;"/><path d="M270.292,173.656l9.78,0c0.133,0 0.255,-0.071 0.322,-0.186l4.783,-8.285l9.562,0c0.132,0 0.255,-0.07 0.321,-0.185l4.89,-8.47c0.067,-0.115 0.067,-0.256 0,-0.371l-4.89,-8.47c-0.066,-0.115 -0.189,-0.186 -0.321,-0.186l-9.562,0l-4.783,-8.285c-0.067,-0.114 -0.189,-0.185 -0.322,-0.185l-9.78,0c-0.133,0 -0.255,0.071 -0.322,0.185l-4.89,8.471c-0.066,0.114 -0.066,0.256 0,0.371l4.783,8.284l-4.783,8.285c-0.066,0.115 -0.066,0.256 0,0.371l4.89,8.47c0.067,0.115 0.189,0.186 0.322,0.186Zm9.566,-0.742l-9.352,0l-4.676,-8.099l4.676,-8.1l9.348,0l4.678,8.103l-4.674,8.096Zm14.667,-8.47l-9.348,0l-4.676,-8.1l4.676,-8.099l9.348,0l4.676,8.099l-4.676,8.1Zm-14.671,-8.471l-9.348,0l-4.676,-8.099l4.676,-8.099l9.352,0l4.674,8.095l-4.678,8.103Zm-0.977,15.54c0.128,0 0.253,-0.066 0.322,-0.185l3.695,-6.401c0.067,-0.115 0.067,-0.256 0,-0.371l-3.695,-6.401c-0.103,-0.178 -0.329,-0.239 -0.507,-0.136c-0.177,0.102 -0.238,0.329 -0.136,0.507l3.589,6.215l-3.589,6.216c-0.102,0.177 -0.041,0.404 0.136,0.507c0.058,0.033 0.122,0.049 0.185,0.049Zm14.725,-8.296c0.128,0 0.253,-0.066 0.322,-0.185l3.754,-6.502c0.066,-0.115 0.066,-0.256 0,-0.371l-3.754,-6.502c-0.067,-0.115 -0.189,-0.186 -0.322,-0.186l-7.507,0c-0.205,0 -0.371,0.167 -0.371,0.371c0,0.205 0.166,0.371 0.371,0.371l7.293,0l3.54,6.131l-3.647,6.317c-0.102,0.177 -0.042,0.404 0.136,0.507c0.058,0.033 0.122,0.049 0.185,0.049Zm-11.028,-14.972c0.063,0 0.126,-0.016 0.185,-0.05c0.177,-0.102 0.238,-0.329 0.136,-0.506l-3.696,-6.402c-0.066,-0.114 -0.189,-0.185 -0.321,-0.185l-7.392,0c-0.204,0 -0.371,0.166 -0.371,0.371c0,0.205 0.167,0.371 0.371,0.371l7.177,0l3.589,6.216c0.069,0.119 0.193,0.185 0.322,0.185Z" style="fill:#b2b2b2;fill-rule:nonzero;"/></g></svg>