<?xml version="1.0" encoding="UTF-8" standalone="no"?><!DOCTYPE svg PUBLIC "-//W3C//DTD SVG 1.1//EN" "http://www.w3.org/Graphics/SVG/1.1/DTD/svg11.dtd"><svg width="100%" height="100%" viewBox="0 0 241 180" version="1.1" xmlns="http://www.w3.org/2000/svg" xmlns:xlink="http://www.w3.org/1999/xlink" xml:space="preserve" style="fill-rule:evenodd;clip-rule:evenodd;stroke-linejoin:round;stroke-miterlimit:1.41421;"><g><g><path d="M9.613,0.063c-0.17,-0.092 -0.377,-0.083 -0.538,0.024c-4.387,2.925 -9.075,8.265 -9.075,14.479c0,6.789 3.141,11.162 8.844,12.382l0,3.746c0,0.287 0.232,0.52 0.52,0.52c0.288,0 0.52,-0.233 0.52,-0.52l0,-8.546l5.985,-3.49c0.248,-0.146 0.332,-0.464 0.187,-0.712c-0.144,-0.248 -0.463,-0.332 -0.711,-0.187l-5.461,3.185l0,-3.986l6.49,-3.494c0.252,-0.136 0.348,-0.452 0.211,-0.705c-0.136,-0.253 -0.452,-0.348 -0.705,-0.211l-5.996,3.229l0,-4.024l4.933,-2.713c0.252,-0.139 0.344,-0.455 0.205,-0.707c-0.138,-0.252 -0.455,-0.344 -0.706,-0.205l-4.432,2.437l0,-6.923c0,-0.288 -0.232,-0.521 -0.52,-0.521c-0.288,0 -0.52,0.233 -0.52,0.521l0,6.923l-4.432,-2.437c-0.251,-0.139 -0.567,-0.047 -0.706,0.205c-0.139,0.252 -0.047,0.568 0.206,0.706l4.932,2.713l0,4.024l-5.996,-3.228c-0.253,-0.137 -0.569,-0.042 -0.705,0.211c-0.136,0.253 -0.041,0.569 0.212,0.704l6.489,3.495l0,3.986l-5.46,-3.186c-0.248,-0.144 -0.567,-0.06 -0.712,0.188c-0.145,0.248 -0.061,0.566 0.187,0.711l5.985,3.491l0,3.736c-5.104,-1.18 -7.804,-5.074 -7.804,-11.318c0,-5.682 4.265,-10.626 8.351,-13.436c5.277,2.987 8.297,7.868 8.297,13.436c0,5.615 -2.22,9.392 -6.421,10.92c-0.27,0.099 -0.409,0.397 -0.311,0.667c0.098,0.27 0.398,0.411 0.667,0.311c4.648,-1.692 7.105,-5.806 7.105,-11.898c0,-6.057 -3.322,-11.343 -9.115,-14.503Z" style="fill:#b2b2b2;"/><path d="M46.572,0.063c-0.169,-0.092 -0.376,-0.083 -0.537,0.024c-4.387,2.925 -9.076,8.265 -9.076,14.479c0,6.789 3.141,11.162 8.844,12.382l0,3.746c0,0.287 0.233,0.52 0.521,0.52c0.287,0 0.52,-0.233 0.52,-0.52l0,-8.546l5.985,-3.49c0.248,-0.146 0.331,-0.464 0.187,-0.712c-0.145,-0.248 -0.464,-0.332 -0.712,-0.187l-5.46,3.185l0,-3.986l6.489,-3.494c0.253,-0.136 0.348,-0.452 0.212,-0.705c-0.136,-0.253 -0.452,-0.348 -0.705,-0.211l-5.996,3.229l0,-4.024l4.932,-2.713c0.252,-0.139 0.344,-0.455 0.206,-0.707c-0.139,-0.252 -0.456,-0.344 -0.706,-0.205l-4.432,2.437l0,-6.923c0,-0.288 -0.233,-0.521 -0.52,-0.521c-0.288,0 -0.521,0.233 -0.521,0.521l0,6.923l-4.431,-2.437c-0.251,-0.139 -0.568,-0.047 -0.706,0.205c-0.139,0.252 -0.047,0.568 0.205,0.706l4.932,2.713l0,4.024l-5.996,-3.228c-0.253,-0.137 -0.568,-0.042 -0.705,0.211c-0.136,0.253 -0.041,0.569 0.212,0.704l6.489,3.495l0,3.986l-5.46,-3.186c-0.248,-0.144 -0.566,-0.06 -0.712,0.188c-0.144,0.248 -0.06,0.566 0.188,0.711l5.984,3.491l0,3.736c-5.104,-1.18 -7.803,-5.074 -7.803,-11.318c0,-5.682 4.264,-10.626 8.351,-13.436c5.277,2.987 8.296,7.868 8.296,13.436c0,5.615 -2.22,9.392 -6.42,10.92c-0.27,0.099 -0.41,0.397 -0.311,0.667c0.098,0.27 0.398,0.411 0.667,0.311c4.648,-1.692 7.105,-5.806 7.105,-11.898c0,-6.057 -3.322,-11.343 -9.116,-14.503Z" style="fill:#b2b2b2;"/><path d="M83.532,0.063c-0.17,-0.092 -0.377,-0.083 -0.538,0.024c-4.387,2.925 -9.075,8.265 -9.075,14.479c0,6.789 3.141,11.162 8.844,12.382l0,3.746c0,0.287 0.232,0.52 0.52,0.52c0.288,0 0.52,-0.233 0.52,-0.52l0,-8.546l5.985,-3.49c0.248,-0.146 0.332,-0.464 0.187,-0.712c-0.144,-0.248 -0.463,-0.332 -0.711,-0.187l-5.461,3.185l0,-3.986l6.49,-3.494c0.252,-0.136 0.348,-0.452 0.211,-0.705c-0.136,-0.253 -0.452,-0.348 -0.705,-0.211l-5.996,3.229l0,-4.024l4.933,-2.713c0.252,-0.139 0.344,-0.455 0.205,-0.707c-0.138,-0.252 -0.455,-0.344 -0.706,-0.205l-4.432,2.437l0,-6.923c0,-0.288 -0.232,-0.521 -0.52,-0.521c-0.288,0 -0.52,0.233 -0.52,0.521l0,6.923l-4.432,-2.437c-0.251,-0.139 -0.568,-0.047 -0.706,0.205c-0.139,0.252 -0.047,0.568 0.206,0.706l4.932,2.713l0,4.024l-5.996,-3.228c-0.253,-0.137 -0.569,-0.042 -0.705,0.211c-0.137,0.253 -0.041,0.569 0.212,0.704l6.489,3.495l0,3.986l-5.46,-3.186c-0.248,-0.144 -0.567,-0.06 -0.712,0.188c-0.145,0.248 -0.061,0.566 0.187,0.711l5.985,3.491l0,3.736c-5.104,-1.18 -7.804,-5.074 -7.804,-11.318c0,-5.682 4.265,-10.626 8.351,-13.436c5.277,2.987 8.297,7.868 8.297,13.436c0,5.615 -2.221,9.392 -6.421,10.92c-0.27,0.099 -0.409,0.397 -0.311,0.667c0.098,0.27 0.398,0.411 0.667,0.311c4.648,-1.692 7.105,-5.806 7.105,-11.898c0,-6.057 -3.322,-11.343 -9.115,-14.503Z" style="fill:#b2b2b2;"/><path d="M120.491,0.063c-0.169,-0.092 -0.376,-0.083 -0.537,0.024c-4.387,2.925 -9.076,8.265 -9.076,14.479c0,6.789 3.141,11.162 8.844,12.382l0,3.746c0,0.287 0.233,0.52 0.52,0.52c0.288,0 0.521,-0.233 0.521,-0.52l0,-8.546l5.984,-3.49c0.249,-0.146 0.332,-0.464 0.188,-0.712c-0.145,-0.248 -0.464,-0.332 -0.712,-0.187l-5.46,3.185l0,-3.986l6.489,-3.494c0.253,-0.136 0.348,-0.452 0.212,-0.705c-0.137,-0.253 -0.452,-0.348 -0.705,-0.211l-5.996,3.229l0,-4.024l4.932,-2.713c0.252,-0.139 0.344,-0.455 0.205,-0.707c-0.138,-0.252 -0.455,-0.344 -0.705,-0.205l-4.432,2.437l0,-6.923c0,-0.288 -0.233,-0.521 -0.521,-0.521c-0.287,0 -0.52,0.233 -0.52,0.521l0,6.923l-4.432,-2.437c-0.25,-0.139 -0.567,-0.047 -0.706,0.205c-0.138,0.252 -0.046,0.568 0.206,0.706l4.932,2.713l0,4.024l-5.996,-3.228c-0.253,-0.137 -0.568,-0.042 -0.705,0.211c-0.136,0.253 -0.041,0.569 0.212,0.704l6.489,3.495l0,3.986l-5.46,-3.186c-0.248,-0.144 -0.567,-0.06 -0.712,0.188c-0.144,0.248 -0.061,0.566 0.188,0.711l5.984,3.491l0,3.736c-5.104,-1.18 -7.803,-5.074 -7.803,-11.318c0,-5.682 4.264,-10.626 8.351,-13.436c5.277,2.987 8.296,7.868 8.296,13.436c0,5.615 -2.22,9.392 -6.42,10.92c-0.27,0.099 -0.41,0.397 -0.312,0.667c0.099,0.27 0.398,0.411 0.667,0.311c4.649,-1.692 7.106,-5.806 7.106,-11.898c0,-6.057 -3.323,-11.343 -9.116,-14.503Z" style="fill:#b2b2b2;"/><path d="M157.451,0.063c-0.17,-0.092 -0.377,-0.083 -0.538,0.024c-4.387,2.925 -9.075,8.265 -9.075,14.479c0,6.789 3.14,11.162 8.844,12.382l0,3.746c0,0.287 0.232,0.52 0.52,0.52c0.288,0 0.52,-0.233 0.52,-0.52l0,-8.546l5.985,-3.49c0.248,-0.146 0.332,-0.464 0.187,-0.712c-0.144,-0.248 -0.463,-0.332 -0.712,-0.187l-5.46,3.185l0,-3.986l6.489,-3.494c0.253,-0.136 0.349,-0.452 0.212,-0.705c-0.136,-0.253 -0.452,-0.348 -0.705,-0.211l-5.996,3.229l0,-4.024l4.932,-2.713c0.253,-0.139 0.345,-0.455 0.206,-0.707c-0.138,-0.252 -0.455,-0.344 -0.706,-0.205l-4.432,2.437l0,-6.923c0,-0.288 -0.232,-0.521 -0.52,-0.521c-0.288,0 -0.52,0.233 -0.52,0.521l0,6.923l-4.432,-2.437c-0.251,-0.139 -0.568,-0.047 -0.706,0.205c-0.139,0.252 -0.047,0.568 0.205,0.706l4.933,2.713l0,4.024l-5.996,-3.228c-0.253,-0.137 -0.569,-0.042 -0.705,0.211c-0.137,0.253 -0.041,0.569 0.211,0.704l6.49,3.495l0,3.986l-5.461,-3.186c-0.247,-0.144 -0.566,-0.06 -0.711,0.188c-0.145,0.248 -0.061,0.566 0.187,0.711l5.985,3.491l0,3.736c-5.104,-1.18 -7.804,-5.074 -7.804,-11.318c0,-5.682 4.265,-10.626 8.351,-13.436c5.277,2.987 8.297,7.868 8.297,13.436c0,5.615 -2.221,9.392 -6.421,10.92c-0.27,0.099 -0.409,0.397 -0.311,0.667c0.098,0.27 0.398,0.411 0.667,0.311c4.648,-1.692 7.105,-5.806 7.105,-11.898c0,-6.057 -3.322,-11.343 -9.115,-14.503Z" style="fill:#b2b2b2;"/><path d="M194.41,0.063c-0.17,-0.092 -0.377,-0.083 -0.537,0.024c-4.387,2.925 -9.076,8.265 -9.076,14.479c0,6.789 3.141,11.162 8.844,12.382l0,3.746c0,0.287 0.233,0.52 0.52,0.52c0.288,0 0.521,-0.233 0.521,-0.52l0,-8.546l5.984,-3.49c0.248,-0.146 0.332,-0.464 0.188,-0.712c-0.145,-0.248 -0.464,-0.332 -0.712,-0.187l-5.46,3.185l0,-3.986l6.489,-3.494c0.253,-0.136 0.348,-0.452 0.212,-0.705c-0.137,-0.253 -0.452,-0.348 -0.705,-0.211l-5.996,3.229l0,-4.024l4.932,-2.713c0.252,-0.139 0.344,-0.455 0.205,-0.707c-0.138,-0.252 -0.455,-0.344 -0.706,-0.205l-4.431,2.437l0,-6.923c0,-0.288 -0.233,-0.521 -0.521,-0.521c-0.287,0 -0.52,0.233 -0.52,0.521l0,6.923l-4.432,-2.437c-0.25,-0.139 -0.567,-0.047 -0.706,0.205c-0.138,0.252 -0.046,0.568 0.206,0.706l4.932,2.713l0,4.024l-5.996,-3.228c-0.253,-0.137 -0.569,-0.042 -0.705,0.211c-0.136,0.253 -0.041,0.569 0.212,0.704l6.489,3.495l0,3.986l-5.46,-3.186c-0.248,-0.144 -0.567,-0.06 -0.712,0.188c-0.144,0.248 -0.061,0.566 0.187,0.711l5.985,3.491l0,3.736c-5.104,-1.18 -7.803,-5.074 -7.803,-11.318c0,-5.682 4.264,-10.626 8.35,-13.436c5.278,2.987 8.297,7.868 8.297,13.436c0,5.615 -2.22,9.392 -6.421,10.92c-0.27,0.099 -0.409,0.397 -0.311,0.667c0.099,0.27 0.398,0.411 0.667,0.311c4.648,-1.692 7.106,-5.806 7.106,-11.898c0,-6.057 -3.323,-11.343 -9.116,-14.503Z" style="fill:#b2b2b2;"/><path d="M231.37,0.063c-0.17,-0.092 -0.377,-0.083 -0.538,0.024c-4.387,2.925 -9.075,8.265 -9.075,14.479c0,6.789 3.14,11.162 8.844,12.382l0,3.746c0,0.287 0.232,0.52 0.52,0.52c0.288,0 0.52,-0.233 0.52,-0.52l0,-8.546l5.985,-3.49c0.248,-0.146 0.332,-0.464 0.187,-0.712c-0.145,-0.248 -0.463,-0.332 -0.712,-0.187l-5.46,3.185l0,-3.986l6.489,-3.494c0.253,-0.136 0.348,-0.452 0.212,-0.705c-0.136,-0.253 -0.452,-0.348 -0.705,-0.211l-5.996,3.229l0,-4.024l4.932,-2.713c0.253,-0.139 0.345,-0.455 0.206,-0.707c-0.139,-0.252 -0.455,-0.344 -0.706,-0.205l-4.432,2.437l0,-6.923c0,-0.288 -0.232,-0.521 -0.52,-0.521c-0.288,0 -0.52,0.233 -0.52,0.521l0,6.923l-4.432,-2.437c-0.251,-0.139 -0.568,-0.047 -0.706,0.205c-0.139,0.252 -0.047,0.568 0.205,0.706l4.933,2.713l0,4.024l-5.996,-3.228c-0.253,-0.137 -0.569,-0.042 -0.705,0.211c-0.137,0.253 -0.042,0.569 0.211,0.704l6.49,3.495l0,3.986l-5.461,-3.186c-0.247,-0.144 -0.566,-0.06 -0.711,0.188c-0.145,0.248 -0.061,0.566 0.187,0.711l5.985,3.491l0,3.736c-5.104,-1.18 -7.804,-5.074 -7.804,-11.318c0,-5.682 4.265,-10.626 8.351,-13.436c5.277,2.987 8.297,7.868 8.297,13.436c0,5.615 -2.221,9.392 -6.421,10.92c-0.27,0.099 -0.41,0.397 -0.311,0.667c0.098,0.27 0.398,0.411 0.667,0.311c4.648,-1.692 7.105,-5.806 7.105,-11.898c0,-6.057 -3.322,-11.343 -9.115,-14.503Z" style="fill:#b2b2b2;"/></g><g><path d="M212.392,50.189c0.17,0.093 0.377,0.083 0.538,-0.024c4.387,-2.924 9.075,-8.264 9.075,-14.479c0,-6.788 -3.14,-11.162 -8.844,-12.382l0,-3.745c0,-0.287 -0.232,-0.52 -0.52,-0.52c-0.288,0 -0.52,0.233 -0.52,0.52l0,8.545l-5.985,3.491c-0.248,0.145 -0.332,0.464 -0.187,0.712c0.145,0.248 0.463,0.331 0.712,0.187l5.46,-3.185l0,3.986l-6.489,3.494c-0.253,0.136 -0.348,0.452 -0.212,0.705c0.136,0.252 0.452,0.348 0.705,0.211l5.996,-3.229l0,4.024l-4.932,2.713c-0.253,0.139 -0.345,0.455 -0.206,0.707c0.138,0.251 0.455,0.343 0.706,0.205l4.432,-2.438l0,6.924c0,0.287 0.232,0.52 0.52,0.52c0.288,0 0.52,-0.233 0.52,-0.52l0,-6.924l4.432,2.438c0.251,0.139 0.568,0.046 0.706,-0.205c0.139,-0.252 0.047,-0.568 -0.205,-0.707l-4.933,-2.713l0,-4.024l5.996,3.229c0.253,0.137 0.569,0.042 0.705,-0.211c0.137,-0.253 0.041,-0.569 -0.211,-0.705l-6.49,-3.494l0,-3.986l5.461,3.185c0.247,0.144 0.566,0.061 0.711,-0.187c0.145,-0.248 0.061,-0.567 -0.187,-0.712l-5.985,-3.49l0,-3.736c5.104,1.18 7.804,5.074 7.804,11.317c0,5.683 -4.265,10.627 -8.351,13.436c-5.277,-2.987 -8.297,-7.868 -8.297,-13.436c0,-5.614 2.221,-9.391 6.421,-10.92c0.27,-0.098 0.409,-0.397 0.311,-0.667c-0.098,-0.269 -0.398,-0.41 -0.667,-0.31c-4.648,1.691 -7.105,5.806 -7.105,11.897c0,6.057 3.322,11.343 9.115,14.503Z" style="fill:#b2b2b2;"/><path d="M175.433,50.189c0.17,0.093 0.377,0.083 0.537,-0.024c4.388,-2.924 9.076,-8.264 9.076,-14.479c0,-6.788 -3.141,-11.162 -8.844,-12.382l0,-3.745c0,-0.287 -0.233,-0.52 -0.52,-0.52c-0.288,0 -0.521,0.233 -0.521,0.52l0,8.545l-5.984,3.491c-0.248,0.145 -0.332,0.464 -0.188,0.712c0.145,0.248 0.464,0.331 0.712,0.187l5.461,-3.185l0,3.986l-6.49,3.494c-0.253,0.136 -0.348,0.452 -0.212,0.705c0.137,0.252 0.452,0.348 0.705,0.211l5.997,-3.229l0,4.024l-4.933,2.713c-0.252,0.139 -0.344,0.455 -0.205,0.707c0.138,0.251 0.455,0.343 0.706,0.205l4.431,-2.438l0,6.924c0,0.287 0.233,0.52 0.521,0.52c0.287,0 0.52,-0.233 0.52,-0.52l0,-6.924l4.432,2.438c0.25,0.139 0.567,0.046 0.706,-0.205c0.139,-0.252 0.046,-0.568 -0.206,-0.707l-4.932,-2.713l0,-4.024l5.996,3.229c0.253,0.137 0.569,0.042 0.705,-0.211c0.136,-0.253 0.041,-0.569 -0.212,-0.705l-6.489,-3.494l0,-3.986l5.46,3.185c0.248,0.144 0.567,0.061 0.712,-0.187c0.144,-0.248 0.061,-0.567 -0.187,-0.712l-5.985,-3.49l0,-3.736c5.104,1.18 7.803,5.074 7.803,11.317c0,5.683 -4.264,10.627 -8.35,13.436c-5.278,-2.987 -8.297,-7.868 -8.297,-13.436c0,-5.614 2.22,-9.391 6.421,-10.92c0.27,-0.098 0.409,-0.397 0.311,-0.667c-0.099,-0.269 -0.398,-0.41 -0.667,-0.31c-4.648,1.691 -7.105,5.806 -7.105,11.897c0,6.057 3.322,11.343 9.115,14.503Z" style="fill:#b2b2b2;"/><path d="M138.474,50.189c0.169,0.093 0.376,0.083 0.537,-0.024c4.387,-2.924 9.075,-8.264 9.075,-14.479c0,-6.788 -3.14,-11.162 -8.844,-12.382l0,-3.745c0,-0.287 -0.232,-0.52 -0.52,-0.52c-0.287,0 -0.52,0.233 -0.52,0.52l0,8.545l-5.985,3.491c-0.248,0.145 -0.332,0.464 -0.187,0.712c0.145,0.248 0.464,0.331 0.712,0.187l5.46,-3.185l0,3.986l-6.489,3.494c-0.253,0.136 -0.348,0.452 -0.212,0.705c0.136,0.252 0.452,0.348 0.705,0.211l5.996,-3.229l0,4.024l-4.932,2.713c-0.253,0.139 -0.345,0.455 -0.206,0.707c0.139,0.251 0.455,0.343 0.706,0.205l4.432,-2.438l0,6.924c0,0.287 0.233,0.52 0.52,0.52c0.288,0 0.52,-0.233 0.52,-0.52l0,-6.924l4.432,2.438c0.251,0.139 0.568,0.046 0.706,-0.205c0.139,-0.252 0.047,-0.568 -0.205,-0.707l-4.933,-2.713l0,-4.024l5.997,3.229c0.252,0.137 0.568,0.042 0.704,-0.211c0.137,-0.253 0.042,-0.569 -0.211,-0.705l-6.49,-3.494l0,-3.986l5.461,3.185c0.247,0.144 0.566,0.061 0.711,-0.187c0.145,-0.248 0.061,-0.567 -0.187,-0.712l-5.985,-3.49l0,-3.736c5.104,1.18 7.804,5.074 7.804,11.317c0,5.683 -4.264,10.627 -8.351,13.436c-5.277,-2.987 -8.297,-7.868 -8.297,-13.436c0,-5.614 2.221,-9.391 6.421,-10.92c0.27,-0.098 0.41,-0.397 0.311,-0.667c-0.098,-0.269 -0.398,-0.41 -0.667,-0.31c-4.648,1.691 -7.105,5.806 -7.105,11.897c0,6.057 3.322,11.343 9.116,14.503Z" style="fill:#b2b2b2;"/><path d="M101.514,50.189c0.17,0.093 0.377,0.083 0.537,-0.024c4.388,-2.924 9.076,-8.264 9.076,-14.479c0,-6.788 -3.141,-11.162 -8.844,-12.382l0,-3.745c0,-0.287 -0.233,-0.52 -0.52,-0.52c-0.288,0 -0.52,0.233 -0.52,0.52l0,8.545l-5.985,3.491c-0.248,0.145 -0.332,0.464 -0.187,0.712c0.144,0.248 0.463,0.331 0.711,0.187l5.461,-3.185l0,3.986l-6.49,3.494c-0.253,0.136 -0.348,0.452 -0.211,0.705c0.136,0.252 0.452,0.348 0.704,0.211l5.997,-3.229l0,4.024l-4.933,2.713c-0.252,0.139 -0.344,0.455 -0.205,0.707c0.138,0.251 0.455,0.343 0.706,0.205l4.432,-2.438l0,6.924c0,0.287 0.232,0.52 0.52,0.52c0.287,0 0.52,-0.233 0.52,-0.52l0,-6.924l4.432,2.438c0.251,0.139 0.567,0.046 0.706,-0.205c0.139,-0.252 0.047,-0.568 -0.206,-0.707l-4.932,-2.713l0,-4.024l5.996,3.229c0.253,0.137 0.569,0.042 0.705,-0.211c0.136,-0.253 0.041,-0.569 -0.212,-0.705l-6.489,-3.494l0,-3.986l5.46,3.185c0.248,0.144 0.567,0.061 0.712,-0.187c0.145,-0.248 0.061,-0.567 -0.187,-0.712l-5.985,-3.49l0,-3.736c5.104,1.18 7.803,5.074 7.803,11.317c0,5.683 -4.264,10.627 -8.35,13.436c-5.278,-2.987 -8.297,-7.868 -8.297,-13.436c0,-5.614 2.22,-9.391 6.421,-10.92c0.27,-0.098 0.409,-0.397 0.311,-0.667c-0.099,-0.269 -0.398,-0.41 -0.667,-0.31c-4.648,1.691 -7.105,5.806 -7.105,11.897c0,6.057 3.322,11.343 9.115,14.503Z" style="fill:#b2b2b2;"/><path d="M64.555,50.189c0.169,0.093 0.376,0.083 0.537,-0.024c4.387,-2.924 9.075,-8.264 9.075,-14.479c0,-6.788 -3.14,-11.162 -8.843,-12.382l0,-3.745c0,-0.287 -0.233,-0.52 -0.521,-0.52c-0.287,0 -0.52,0.233 -0.52,0.52l0,8.545l-5.985,3.491c-0.248,0.145 -0.331,0.464 -0.187,0.712c0.145,0.248 0.464,0.331 0.712,0.187l5.46,-3.185l0,3.986l-6.489,3.494c-0.253,0.136 -0.348,0.452 -0.212,0.705c0.136,0.252 0.452,0.348 0.705,0.211l5.996,-3.229l0,4.024l-4.932,2.713c-0.252,0.139 -0.345,0.455 -0.206,0.707c0.139,0.251 0.456,0.343 0.706,0.205l4.432,-2.438l0,6.924c0,0.287 0.233,0.52 0.52,0.52c0.288,0 0.521,-0.233 0.521,-0.52l0,-6.924l4.431,2.438c0.251,0.139 0.568,0.046 0.706,-0.205c0.139,-0.252 0.047,-0.568 -0.205,-0.707l-4.933,-2.713l0,-4.024l5.997,3.229c0.252,0.137 0.568,0.042 0.705,-0.211c0.136,-0.253 0.041,-0.569 -0.212,-0.705l-6.49,-3.494l0,-3.986l5.461,3.185c0.247,0.144 0.566,0.061 0.712,-0.187c0.144,-0.248 0.06,-0.567 -0.188,-0.712l-5.984,-3.49l0,-3.736c5.104,1.18 7.803,5.074 7.803,11.317c0,5.683 -4.264,10.627 -8.351,13.436c-5.277,-2.987 -8.296,-7.868 -8.296,-13.436c0,-5.614 2.22,-9.391 6.42,-10.92c0.27,-0.098 0.41,-0.397 0.311,-0.667c-0.098,-0.269 -0.398,-0.41 -0.667,-0.31c-4.648,1.691 -7.105,5.806 -7.105,11.897c0,6.057 3.322,11.343 9.116,14.503Z" style="fill:#b2b2b2;"/><path d="M27.595,50.189c0.17,0.093 0.377,0.083 0.538,-0.024c4.387,-2.924 9.075,-8.264 9.075,-14.479c0,-6.788 -3.141,-11.162 -8.844,-12.382l0,-3.745c0,-0.287 -0.232,-0.52 -0.52,-0.52c-0.288,0 -0.52,0.233 -0.52,0.52l0,8.545l-5.985,3.491c-0.248,0.145 -0.332,0.464 -0.187,0.712c0.144,0.248 0.463,0.331 0.711,0.187l5.461,-3.185l0,3.986l-6.49,3.494c-0.252,0.136 -0.348,0.452 -0.211,0.705c0.136,0.252 0.452,0.348 0.705,0.211l5.996,-3.229l0,4.024l-4.933,2.713c-0.252,0.139 -0.344,0.455 -0.205,0.707c0.138,0.251 0.455,0.343 0.706,0.205l4.432,-2.438l0,6.924c0,0.287 0.232,0.52 0.52,0.52c0.288,0 0.52,-0.233 0.52,-0.52l0,-6.924l4.432,2.438c0.251,0.139 0.567,0.046 0.706,-0.205c0.139,-0.252 0.047,-0.568 -0.206,-0.707l-4.932,-2.713l0,-4.024l5.996,3.229c0.253,0.137 0.569,0.042 0.705,-0.211c0.136,-0.253 0.041,-0.569 -0.212,-0.705l-6.489,-3.494l0,-3.986l5.46,3.185c0.248,0.144 0.567,0.061 0.712,-0.187c0.145,-0.248 0.061,-0.567 -0.187,-0.712l-5.985,-3.49l0,-3.736c5.104,1.18 7.804,5.074 7.804,11.317c0,5.683 -4.265,10.627 -8.351,13.436c-5.277,-2.987 -8.297,-7.868 -8.297,-13.436c0,-5.614 2.22,-9.391 6.421,-10.92c0.27,-0.098 0.409,-0.397 0.311,-0.667c-0.098,-0.269 -0.398,-0.41 -0.667,-0.31c-4.648,1.691 -7.105,5.806 -7.105,11.897c0,6.057 3.322,11.343 9.115,14.503Z" style="fill:#b2b2b2;"/></g></g><g><g><path d="M9.613,43.313c-0.17,-0.093 -0.377,-0.084 -0.538,0.024c-4.387,2.924 -9.075,8.264 -9.075,14.479c0,6.788 3.141,11.162 8.844,12.382l0,3.745c0,0.287 0.232,0.52 0.52,0.52c0.288,0 0.52,-0.233 0.52,-0.52l0,-8.546l5.985,-3.49c0.248,-0.146 0.332,-0.464 0.187,-0.712c-0.144,-0.248 -0.463,-0.331 -0.711,-0.187l-5.461,3.185l0,-3.986l6.49,-3.494c0.252,-0.136 0.348,-0.452 0.211,-0.705c-0.136,-0.253 -0.452,-0.348 -0.705,-0.211l-5.996,3.229l0,-4.024l4.933,-2.713c0.252,-0.139 0.344,-0.455 0.205,-0.707c-0.138,-0.252 -0.455,-0.344 -0.706,-0.205l-4.432,2.438l0,-6.924c0,-0.287 -0.232,-0.521 -0.52,-0.521c-0.288,0 -0.52,0.234 -0.52,0.521l0,6.923l-4.432,-2.437c-0.251,-0.139 -0.567,-0.047 -0.706,0.205c-0.139,0.252 -0.047,0.568 0.206,0.707l4.932,2.713l0,4.023l-5.996,-3.228c-0.253,-0.137 -0.569,-0.042 -0.705,0.211c-0.136,0.253 -0.041,0.569 0.212,0.705l6.489,3.494l0,3.986l-5.46,-3.185c-0.248,-0.145 -0.567,-0.061 -0.712,0.187c-0.145,0.248 -0.061,0.566 0.187,0.712l5.985,3.49l0,3.736c-5.104,-1.18 -7.804,-5.074 -7.804,-11.318c0,-5.682 4.265,-10.626 8.351,-13.436c5.277,2.988 8.297,7.868 8.297,13.436c0,5.615 -2.22,9.392 -6.421,10.921c-0.27,0.098 -0.409,0.397 -0.311,0.667c0.098,0.269 0.398,0.41 0.667,0.31c4.648,-1.692 7.105,-5.806 7.105,-11.897c0,-6.057 -3.322,-11.344 -9.115,-14.503Z" style="fill:#b2b2b2;"/><path d="M46.572,43.313c-0.169,-0.093 -0.376,-0.084 -0.537,0.024c-4.387,2.924 -9.076,8.264 -9.076,14.479c0,6.788 3.141,11.162 8.844,12.382l0,3.745c0,0.287 0.233,0.52 0.521,0.52c0.287,0 0.52,-0.233 0.52,-0.52l0,-8.546l5.985,-3.49c0.248,-0.146 0.331,-0.464 0.187,-0.712c-0.145,-0.248 -0.464,-0.331 -0.712,-0.187l-5.46,3.185l0,-3.986l6.489,-3.494c0.253,-0.136 0.348,-0.452 0.212,-0.705c-0.136,-0.253 -0.452,-0.348 -0.705,-0.211l-5.996,3.229l0,-4.024l4.932,-2.713c0.252,-0.139 0.344,-0.455 0.206,-0.707c-0.139,-0.252 -0.456,-0.344 -0.706,-0.205l-4.432,2.438l0,-6.924c0,-0.287 -0.233,-0.521 -0.52,-0.521c-0.288,0 -0.521,0.234 -0.521,0.521l0,6.923l-4.431,-2.437c-0.251,-0.139 -0.568,-0.047 -0.706,0.205c-0.139,0.252 -0.047,0.568 0.205,0.707l4.932,2.713l0,4.023l-5.996,-3.228c-0.253,-0.137 -0.568,-0.042 -0.705,0.211c-0.136,0.253 -0.041,0.569 0.212,0.705l6.489,3.494l0,3.986l-5.46,-3.185c-0.248,-0.145 -0.566,-0.061 -0.712,0.187c-0.144,0.248 -0.06,0.566 0.188,0.712l5.984,3.49l0,3.736c-5.104,-1.18 -7.803,-5.074 -7.803,-11.318c0,-5.682 4.264,-10.626 8.351,-13.436c5.277,2.988 8.296,7.868 8.296,13.436c0,5.615 -2.22,9.392 -6.42,10.921c-0.27,0.098 -0.41,0.397 -0.311,0.667c0.098,0.269 0.398,0.41 0.667,0.31c4.648,-1.692 7.105,-5.806 7.105,-11.897c0,-6.057 -3.322,-11.344 -9.116,-14.503Z" style="fill:#b2b2b2;"/><path d="M83.532,43.313c-0.17,-0.093 -0.377,-0.084 -0.538,0.024c-4.387,2.924 -9.075,8.264 -9.075,14.479c0,6.788 3.141,11.162 8.844,12.382l0,3.745c0,0.287 0.232,0.52 0.52,0.52c0.288,0 0.52,-0.233 0.52,-0.52l0,-8.546l5.985,-3.49c0.248,-0.146 0.332,-0.464 0.187,-0.712c-0.144,-0.248 -0.463,-0.331 -0.711,-0.187l-5.461,3.185l0,-3.986l6.49,-3.494c0.252,-0.136 0.348,-0.452 0.211,-0.705c-0.136,-0.253 -0.452,-0.348 -0.705,-0.211l-5.996,3.229l0,-4.024l4.933,-2.713c0.252,-0.139 0.344,-0.455 0.205,-0.707c-0.138,-0.252 -0.455,-0.344 -0.706,-0.205l-4.432,2.438l0,-6.924c0,-0.287 -0.232,-0.521 -0.52,-0.521c-0.288,0 -0.52,0.234 -0.52,0.521l0,6.923l-4.432,-2.437c-0.251,-0.139 -0.568,-0.047 -0.706,0.205c-0.139,0.252 -0.047,0.568 0.206,0.707l4.932,2.713l0,4.023l-5.996,-3.228c-0.253,-0.137 -0.569,-0.042 -0.705,0.211c-0.137,0.253 -0.041,0.569 0.212,0.705l6.489,3.494l0,3.986l-5.46,-3.185c-0.248,-0.145 -0.567,-0.061 -0.712,0.187c-0.145,0.248 -0.061,0.566 0.187,0.712l5.985,3.49l0,3.736c-5.104,-1.18 -7.804,-5.074 -7.804,-11.318c0,-5.682 4.265,-10.626 8.351,-13.436c5.277,2.988 8.297,7.868 8.297,13.436c0,5.615 -2.221,9.392 -6.421,10.921c-0.27,0.098 -0.409,0.397 -0.311,0.667c0.098,0.269 0.398,0.41 0.667,0.31c4.648,-1.692 7.105,-5.806 7.105,-11.897c0,-6.057 -3.322,-11.344 -9.115,-14.503Z" style="fill:#b2b2b2;"/><path d="M120.491,43.313c-0.169,-0.093 -0.376,-0.084 -0.537,0.024c-4.387,2.924 -9.076,8.264 -9.076,14.479c0,6.788 3.141,11.162 8.844,12.382l0,3.745c0,0.287 0.233,0.52 0.52,0.52c0.288,0 0.521,-0.233 0.521,-0.52l0,-8.546l5.984,-3.49c0.249,-0.146 0.332,-0.464 0.188,-0.712c-0.145,-0.248 -0.464,-0.331 -0.712,-0.187l-5.46,3.185l0,-3.986l6.489,-3.494c0.253,-0.136 0.348,-0.452 0.212,-0.705c-0.137,-0.253 -0.452,-0.348 -0.705,-0.211l-5.996,3.229l0,-4.024l4.932,-2.713c0.252,-0.139 0.344,-0.455 0.205,-0.707c-0.138,-0.252 -0.455,-0.344 -0.705,-0.205l-4.432,2.438l0,-6.924c0,-0.287 -0.233,-0.521 -0.521,-0.521c-0.287,0 -0.52,0.234 -0.52,0.521l0,6.923l-4.432,-2.437c-0.25,-0.139 -0.567,-0.047 -0.706,0.205c-0.138,0.252 -0.046,0.568 0.206,0.707l4.932,2.713l0,4.023l-5.996,-3.228c-0.253,-0.137 -0.568,-0.042 -0.705,0.211c-0.136,0.253 -0.041,0.569 0.212,0.705l6.489,3.494l0,3.986l-5.46,-3.185c-0.248,-0.145 -0.567,-0.061 -0.712,0.187c-0.144,0.248 -0.061,0.566 0.188,0.712l5.984,3.49l0,3.736c-5.104,-1.18 -7.803,-5.074 -7.803,-11.318c0,-5.682 4.264,-10.626 8.351,-13.436c5.277,2.988 8.296,7.868 8.296,13.436c0,5.615 -2.22,9.392 -6.42,10.921c-0.27,0.098 -0.41,0.397 -0.312,0.667c0.099,0.269 0.398,0.41 0.667,0.31c4.649,-1.692 7.106,-5.806 7.106,-11.897c0,-6.057 -3.323,-11.344 -9.116,-14.503Z" style="fill:#b2b2b2;"/><path d="M157.451,43.313c-0.17,-0.093 -0.377,-0.084 -0.538,0.024c-4.387,2.924 -9.075,8.264 -9.075,14.479c0,6.788 3.14,11.162 8.844,12.382l0,3.745c0,0.287 0.232,0.52 0.52,0.52c0.288,0 0.52,-0.233 0.52,-0.52l0,-8.546l5.985,-3.49c0.248,-0.146 0.332,-0.464 0.187,-0.712c-0.144,-0.248 -0.463,-0.331 -0.712,-0.187l-5.46,3.185l0,-3.986l6.489,-3.494c0.253,-0.136 0.349,-0.452 0.212,-0.705c-0.136,-0.253 -0.452,-0.348 -0.705,-0.211l-5.996,3.229l0,-4.024l4.932,-2.713c0.253,-0.139 0.345,-0.455 0.206,-0.707c-0.138,-0.252 -0.455,-0.344 -0.706,-0.205l-4.432,2.438l0,-6.924c0,-0.287 -0.232,-0.521 -0.52,-0.521c-0.288,0 -0.52,0.234 -0.52,0.521l0,6.923l-4.432,-2.437c-0.251,-0.139 -0.568,-0.047 -0.706,0.205c-0.139,0.252 -0.047,0.568 0.205,0.707l4.933,2.713l0,4.023l-5.996,-3.228c-0.253,-0.137 -0.569,-0.042 -0.705,0.211c-0.137,0.253 -0.041,0.569 0.211,0.705l6.49,3.494l0,3.986l-5.461,-3.185c-0.247,-0.145 -0.566,-0.061 -0.711,0.187c-0.145,0.248 -0.061,0.566 0.187,0.712l5.985,3.49l0,3.736c-5.104,-1.18 -7.804,-5.074 -7.804,-11.318c0,-5.682 4.265,-10.626 8.351,-13.436c5.277,2.988 8.297,7.868 8.297,13.436c0,5.615 -2.221,9.392 -6.421,10.921c-0.27,0.098 -0.409,0.397 -0.311,0.667c0.098,0.269 0.398,0.41 0.667,0.31c4.648,-1.692 7.105,-5.806 7.105,-11.897c0,-6.057 -3.322,-11.344 -9.115,-14.503Z" style="fill:#b2b2b2;"/><path d="M194.41,43.313c-0.17,-0.093 -0.377,-0.084 -0.537,0.024c-4.387,2.924 -9.076,8.264 -9.076,14.479c0,6.788 3.141,11.162 8.844,12.382l0,3.745c0,0.287 0.233,0.52 0.52,0.52c0.288,0 0.521,-0.233 0.521,-0.52l0,-8.546l5.984,-3.49c0.248,-0.146 0.332,-0.464 0.188,-0.712c-0.145,-0.248 -0.464,-0.331 -0.712,-0.187l-5.46,3.185l0,-3.986l6.489,-3.494c0.253,-0.136 0.348,-0.452 0.212,-0.705c-0.137,-0.253 -0.452,-0.348 -0.705,-0.211l-5.996,3.229l0,-4.024l4.932,-2.713c0.252,-0.139 0.344,-0.455 0.205,-0.707c-0.138,-0.252 -0.455,-0.344 -0.706,-0.205l-4.431,2.438l0,-6.924c0,-0.287 -0.233,-0.521 -0.521,-0.521c-0.287,0 -0.52,0.234 -0.52,0.521l0,6.923l-4.432,-2.437c-0.25,-0.139 -0.567,-0.047 -0.706,0.205c-0.138,0.252 -0.046,0.568 0.206,0.707l4.932,2.713l0,4.023l-5.996,-3.228c-0.253,-0.137 -0.569,-0.042 -0.705,0.211c-0.136,0.253 -0.041,0.569 0.212,0.705l6.489,3.494l0,3.986l-5.46,-3.185c-0.248,-0.145 -0.567,-0.061 -0.712,0.187c-0.144,0.248 -0.061,0.566 0.187,0.712l5.985,3.49l0,3.736c-5.104,-1.18 -7.803,-5.074 -7.803,-11.318c0,-5.682 4.264,-10.626 8.35,-13.436c5.278,2.988 8.297,7.868 8.297,13.436c0,5.615 -2.22,9.392 -6.421,10.921c-0.27,0.098 -0.409,0.397 -0.311,0.667c0.099,0.269 0.398,0.41 0.667,0.31c4.648,-1.692 7.106,-5.806 7.106,-11.897c0,-6.057 -3.323,-11.344 -9.116,-14.503Z" style="fill:#b2b2b2;"/><path d="M231.37,43.313c-0.17,-0.093 -0.377,-0.084 -0.538,0.024c-4.387,2.924 -9.075,8.264 -9.075,14.479c0,6.788 3.14,11.162 8.844,12.382l0,3.745c0,0.287 0.232,0.52 0.52,0.52c0.288,0 0.52,-0.233 0.52,-0.52l0,-8.546l5.985,-3.49c0.248,-0.146 0.332,-0.464 0.187,-0.712c-0.145,-0.248 -0.463,-0.331 -0.712,-0.187l-5.46,3.185l0,-3.986l6.489,-3.494c0.253,-0.136 0.348,-0.452 0.212,-0.705c-0.136,-0.253 -0.452,-0.348 -0.705,-0.211l-5.996,3.229l0,-4.024l4.932,-2.713c0.253,-0.139 0.345,-0.455 0.206,-0.707c-0.139,-0.252 -0.455,-0.344 -0.706,-0.205l-4.432,2.438l0,-6.924c0,-0.287 -0.232,-0.521 -0.52,-0.521c-0.288,0 -0.52,0.234 -0.52,0.521l0,6.923l-4.432,-2.437c-0.251,-0.139 -0.568,-0.047 -0.706,0.205c-0.139,0.252 -0.047,0.568 0.205,0.707l4.933,2.713l0,4.023l-5.996,-3.228c-0.253,-0.137 -0.569,-0.042 -0.705,0.211c-0.137,0.253 -0.042,0.569 0.211,0.705l6.49,3.494l0,3.986l-5.461,-3.185c-0.247,-0.145 -0.566,-0.061 -0.711,0.187c-0.145,0.248 -0.061,0.566 0.187,0.712l5.985,3.49l0,3.736c-5.104,-1.18 -7.804,-5.074 -7.804,-11.318c0,-5.682 4.265,-10.626 8.351,-13.436c5.277,2.988 8.297,7.868 8.297,13.436c0,5.615 -2.221,9.392 -6.421,10.921c-0.27,0.098 -0.41,0.397 -0.311,0.667c0.098,0.269 0.398,0.41 0.667,0.31c4.648,-1.692 7.105,-5.806 7.105,-11.897c0,-6.057 -3.322,-11.344 -9.115,-14.503Z" style="fill:#b2b2b2;"/></g><g><path d="M212.392,93.438c0.17,0.093 0.377,0.084 0.538,-0.024c4.387,-2.924 9.075,-8.264 9.075,-14.479c0,-6.788 -3.14,-11.162 -8.844,-12.382l0,-3.745c0,-0.287 -0.232,-0.52 -0.52,-0.52c-0.288,0 -0.52,0.233 -0.52,0.52l0,8.546l-5.985,3.49c-0.248,0.145 -0.332,0.464 -0.187,0.712c0.145,0.248 0.463,0.331 0.712,0.187l5.46,-3.185l0,3.986l-6.489,3.494c-0.253,0.136 -0.348,0.452 -0.212,0.705c0.136,0.252 0.452,0.348 0.705,0.211l5.996,-3.229l0,4.024l-4.932,2.713c-0.253,0.139 -0.345,0.455 -0.206,0.707c0.138,0.251 0.455,0.344 0.706,0.205l4.432,-2.438l0,6.924c0,0.287 0.232,0.52 0.52,0.52c0.288,0 0.52,-0.233 0.52,-0.52l0,-6.924l4.432,2.438c0.251,0.139 0.568,0.047 0.706,-0.205c0.139,-0.252 0.047,-0.568 -0.205,-0.707l-4.933,-2.713l0,-4.024l5.996,3.229c0.253,0.137 0.569,0.042 0.705,-0.211c0.137,-0.253 0.041,-0.569 -0.211,-0.705l-6.49,-3.494l0,-3.986l5.461,3.185c0.247,0.145 0.566,0.061 0.711,-0.187c0.145,-0.248 0.061,-0.566 -0.187,-0.712l-5.985,-3.49l0,-3.736c5.104,1.18 7.804,5.074 7.804,11.317c0,5.683 -4.265,10.627 -8.351,13.436c-5.277,-2.987 -8.297,-7.867 -8.297,-13.436c0,-5.614 2.221,-9.391 6.421,-10.92c0.27,-0.098 0.409,-0.397 0.311,-0.667c-0.098,-0.269 -0.398,-0.41 -0.667,-0.31c-4.648,1.691 -7.105,5.806 -7.105,11.897c0,6.057 3.322,11.343 9.115,14.503Z" style="fill:#b2b2b2;"/><path d="M175.433,93.438c0.17,0.093 0.377,0.084 0.537,-0.024c4.388,-2.924 9.076,-8.264 9.076,-14.479c0,-6.788 -3.141,-11.162 -8.844,-12.382l0,-3.745c0,-0.287 -0.233,-0.52 -0.52,-0.52c-0.288,0 -0.521,0.233 -0.521,0.52l0,8.546l-5.984,3.49c-0.248,0.145 -0.332,0.464 -0.188,0.712c0.145,0.248 0.464,0.331 0.712,0.187l5.461,-3.185l0,3.986l-6.49,3.494c-0.253,0.136 -0.348,0.452 -0.212,0.705c0.137,0.252 0.452,0.348 0.705,0.211l5.997,-3.229l0,4.024l-4.933,2.713c-0.252,0.139 -0.344,0.455 -0.205,0.707c0.138,0.251 0.455,0.344 0.706,0.205l4.431,-2.438l0,6.924c0,0.287 0.233,0.52 0.521,0.52c0.287,0 0.52,-0.233 0.52,-0.52l0,-6.924l4.432,2.438c0.25,0.139 0.567,0.047 0.706,-0.205c0.139,-0.252 0.046,-0.568 -0.206,-0.707l-4.932,-2.713l0,-4.024l5.996,3.229c0.253,0.137 0.569,0.042 0.705,-0.211c0.136,-0.253 0.041,-0.569 -0.212,-0.705l-6.489,-3.494l0,-3.986l5.46,3.185c0.248,0.145 0.567,0.061 0.712,-0.187c0.144,-0.248 0.061,-0.566 -0.187,-0.712l-5.985,-3.49l0,-3.736c5.104,1.18 7.803,5.074 7.803,11.317c0,5.683 -4.264,10.627 -8.35,13.436c-5.278,-2.987 -8.297,-7.867 -8.297,-13.436c0,-5.614 2.22,-9.391 6.421,-10.92c0.27,-0.098 0.409,-0.397 0.311,-0.667c-0.099,-0.269 -0.398,-0.41 -0.667,-0.31c-4.648,1.691 -7.105,5.806 -7.105,11.897c0,6.057 3.322,11.343 9.115,14.503Z" style="fill:#b2b2b2;"/><path d="M138.474,93.438c0.169,0.093 0.376,0.084 0.537,-0.024c4.387,-2.924 9.075,-8.264 9.075,-14.479c0,-6.788 -3.14,-11.162 -8.844,-12.382l0,-3.745c0,-0.287 -0.232,-0.52 -0.52,-0.52c-0.287,0 -0.52,0.233 -0.52,0.52l0,8.546l-5.985,3.49c-0.248,0.145 -0.332,0.464 -0.187,0.712c0.145,0.248 0.464,0.331 0.712,0.187l5.46,-3.185l0,3.986l-6.489,3.494c-0.253,0.136 -0.348,0.452 -0.212,0.705c0.136,0.252 0.452,0.348 0.705,0.211l5.996,-3.229l0,4.024l-4.932,2.713c-0.253,0.139 -0.345,0.455 -0.206,0.707c0.139,0.251 0.455,0.344 0.706,0.205l4.432,-2.438l0,6.924c0,0.287 0.233,0.52 0.52,0.52c0.288,0 0.52,-0.233 0.52,-0.52l0,-6.924l4.432,2.438c0.251,0.139 0.568,0.047 0.706,-0.205c0.139,-0.252 0.047,-0.568 -0.205,-0.707l-4.933,-2.713l0,-4.024l5.997,3.229c0.252,0.137 0.568,0.042 0.704,-0.211c0.137,-0.253 0.042,-0.569 -0.211,-0.705l-6.49,-3.494l0,-3.986l5.461,3.185c0.247,0.145 0.566,0.061 0.711,-0.187c0.145,-0.248 0.061,-0.566 -0.187,-0.712l-5.985,-3.49l0,-3.736c5.104,1.18 7.804,5.074 7.804,11.317c0,5.683 -4.264,10.627 -8.351,13.436c-5.277,-2.987 -8.297,-7.867 -8.297,-13.436c0,-5.614 2.221,-9.391 6.421,-10.92c0.27,-0.098 0.41,-0.397 0.311,-0.667c-0.098,-0.269 -0.398,-0.41 -0.667,-0.31c-4.648,1.691 -7.105,5.806 -7.105,11.897c0,6.057 3.322,11.343 9.116,14.503Z" style="fill:#b2b2b2;"/><path d="M101.514,93.438c0.17,0.093 0.377,0.084 0.537,-0.024c4.388,-2.924 9.076,-8.264 9.076,-14.479c0,-6.788 -3.141,-11.162 -8.844,-12.382l0,-3.745c0,-0.287 -0.233,-0.52 -0.52,-0.52c-0.288,0 -0.52,0.233 -0.52,0.52l0,8.546l-5.985,3.49c-0.248,0.145 -0.332,0.464 -0.187,0.712c0.144,0.248 0.463,0.331 0.711,0.187l5.461,-3.185l0,3.986l-6.49,3.494c-0.253,0.136 -0.348,0.452 -0.211,0.705c0.136,0.252 0.452,0.348 0.704,0.211l5.997,-3.229l0,4.024l-4.933,2.713c-0.252,0.139 -0.344,0.455 -0.205,0.707c0.138,0.251 0.455,0.344 0.706,0.205l4.432,-2.438l0,6.924c0,0.287 0.232,0.52 0.52,0.52c0.287,0 0.52,-0.233 0.52,-0.52l0,-6.924l4.432,2.438c0.251,0.139 0.567,0.047 0.706,-0.205c0.139,-0.252 0.047,-0.568 -0.206,-0.707l-4.932,-2.713l0,-4.024l5.996,3.229c0.253,0.137 0.569,0.042 0.705,-0.211c0.136,-0.253 0.041,-0.569 -0.212,-0.705l-6.489,-3.494l0,-3.986l5.46,3.185c0.248,0.145 0.567,0.061 0.712,-0.187c0.145,-0.248 0.061,-0.566 -0.187,-0.712l-5.985,-3.49l0,-3.736c5.104,1.18 7.803,5.074 7.803,11.317c0,5.683 -4.264,10.627 -8.35,13.436c-5.278,-2.987 -8.297,-7.867 -8.297,-13.436c0,-5.614 2.22,-9.391 6.421,-10.92c0.27,-0.098 0.409,-0.397 0.311,-0.667c-0.099,-0.269 -0.398,-0.41 -0.667,-0.31c-4.648,1.691 -7.105,5.806 -7.105,11.897c0,6.057 3.322,11.343 9.115,14.503Z" style="fill:#b2b2b2;"/><path d="M64.555,93.438c0.169,0.093 0.376,0.084 0.537,-0.024c4.387,-2.924 9.075,-8.264 9.075,-14.479c0,-6.788 -3.14,-11.162 -8.843,-12.382l0,-3.745c0,-0.287 -0.233,-0.52 -0.521,-0.52c-0.287,0 -0.52,0.233 -0.52,0.52l0,8.546l-5.985,3.49c-0.248,0.145 -0.331,0.464 -0.187,0.712c0.145,0.248 0.464,0.331 0.712,0.187l5.46,-3.185l0,3.986l-6.489,3.494c-0.253,0.136 -0.348,0.452 -0.212,0.705c0.136,0.252 0.452,0.348 0.705,0.211l5.996,-3.229l0,4.024l-4.932,2.713c-0.252,0.139 -0.345,0.455 -0.206,0.707c0.139,0.251 0.456,0.344 0.706,0.205l4.432,-2.438l0,6.924c0,0.287 0.233,0.52 0.52,0.52c0.288,0 0.521,-0.233 0.521,-0.52l0,-6.924l4.431,2.438c0.251,0.139 0.568,0.047 0.706,-0.205c0.139,-0.252 0.047,-0.568 -0.205,-0.707l-4.933,-2.713l0,-4.024l5.997,3.229c0.252,0.137 0.568,0.042 0.705,-0.211c0.136,-0.253 0.041,-0.569 -0.212,-0.705l-6.49,-3.494l0,-3.986l5.461,3.185c0.247,0.145 0.566,0.061 0.712,-0.187c0.144,-0.248 0.06,-0.566 -0.188,-0.712l-5.984,-3.49l0,-3.736c5.104,1.18 7.803,5.074 7.803,11.317c0,5.683 -4.264,10.627 -8.351,13.436c-5.277,-2.987 -8.296,-7.867 -8.296,-13.436c0,-5.614 2.22,-9.391 6.42,-10.92c0.27,-0.098 0.41,-0.397 0.311,-0.667c-0.098,-0.269 -0.398,-0.41 -0.667,-0.31c-4.648,1.691 -7.105,5.806 -7.105,11.897c0,6.057 3.322,11.343 9.116,14.503Z" style="fill:#b2b2b2;"/><path d="M27.595,93.438c0.17,0.093 0.377,0.084 0.538,-0.024c4.387,-2.924 9.075,-8.264 9.075,-14.479c0,-6.788 -3.141,-11.162 -8.844,-12.382l0,-3.745c0,-0.287 -0.232,-0.52 -0.52,-0.52c-0.288,0 -0.52,0.233 -0.52,0.52l0,8.546l-5.985,3.49c-0.248,0.145 -0.332,0.464 -0.187,0.712c0.144,0.248 0.463,0.331 0.711,0.187l5.461,-3.185l0,3.986l-6.49,3.494c-0.252,0.136 -0.348,0.452 -0.211,0.705c0.136,0.252 0.452,0.348 0.705,0.211l5.996,-3.229l0,4.024l-4.933,2.713c-0.252,0.139 -0.344,0.455 -0.205,0.707c0.138,0.251 0.455,0.344 0.706,0.205l4.432,-2.438l0,6.924c0,0.287 0.232,0.52 0.52,0.52c0.288,0 0.52,-0.233 0.52,-0.52l0,-6.924l4.432,2.438c0.251,0.139 0.567,0.047 0.706,-0.205c0.139,-0.252 0.047,-0.568 -0.206,-0.707l-4.932,-2.713l0,-4.024l5.996,3.229c0.253,0.137 0.569,0.042 0.705,-0.211c0.136,-0.253 0.041,-0.569 -0.212,-0.705l-6.489,-3.494l0,-3.986l5.46,3.185c0.248,0.145 0.567,0.061 0.712,-0.187c0.145,-0.248 0.061,-0.566 -0.187,-0.712l-5.985,-3.49l0,-3.736c5.104,1.18 7.804,5.074 7.804,11.317c0,5.683 -4.265,10.627 -8.351,13.436c-5.277,-2.987 -8.297,-7.867 -8.297,-13.436c0,-5.614 2.22,-9.391 6.421,-10.92c0.27,-0.098 0.409,-0.397 0.311,-0.667c-0.098,-0.269 -0.398,-0.41 -0.667,-0.31c-4.648,1.691 -7.105,5.806 -7.105,11.897c0,6.057 3.322,11.343 9.115,14.503Z" style="fill:#b2b2b2;"/></g></g><g><g><path d="M9.613,86.562c-0.17,-0.093 -0.377,-0.084 -0.538,0.024c-4.387,2.924 -9.075,8.264 -9.075,14.479c0,6.788 3.141,11.162 8.844,12.382l0,3.745c0,0.287 0.232,0.52 0.52,0.52c0.288,0 0.52,-0.233 0.52,-0.52l0,-8.546l5.985,-3.49c0.248,-0.145 0.332,-0.464 0.187,-0.712c-0.144,-0.248 -0.463,-0.331 -0.711,-0.187l-5.461,3.185l0,-3.986l6.49,-3.494c0.252,-0.136 0.348,-0.452 0.211,-0.705c-0.136,-0.252 -0.452,-0.348 -0.705,-0.211l-5.996,3.229l0,-4.024l4.933,-2.713c0.252,-0.139 0.344,-0.455 0.205,-0.707c-0.138,-0.251 -0.455,-0.344 -0.706,-0.205l-4.432,2.438l0,-6.924c0,-0.287 -0.232,-0.52 -0.52,-0.52c-0.288,0 -0.52,0.233 -0.52,0.52l0,6.924l-4.432,-2.438c-0.251,-0.139 -0.567,-0.047 -0.706,0.205c-0.139,0.252 -0.047,0.568 0.206,0.707l4.932,2.713l0,4.024l-5.996,-3.229c-0.253,-0.137 -0.569,-0.042 -0.705,0.211c-0.136,0.253 -0.041,0.569 0.212,0.705l6.489,3.494l0,3.986l-5.46,-3.185c-0.248,-0.145 -0.567,-0.061 -0.712,0.187c-0.145,0.248 -0.061,0.566 0.187,0.712l5.985,3.49l0,3.736c-5.104,-1.18 -7.804,-5.074 -7.804,-11.317c0,-5.683 4.265,-10.627 8.351,-13.436c5.277,2.987 8.297,7.867 8.297,13.436c0,5.614 -2.22,9.391 -6.421,10.92c-0.27,0.098 -0.409,0.397 -0.311,0.667c0.098,0.269 0.398,0.41 0.667,0.31c4.648,-1.691 7.105,-5.806 7.105,-11.897c0,-6.057 -3.322,-11.343 -9.115,-14.503Z" style="fill:#b2b2b2;"/><path d="M46.572,86.562c-0.169,-0.093 -0.376,-0.084 -0.537,0.024c-4.387,2.924 -9.076,8.264 -9.076,14.479c0,6.788 3.141,11.162 8.844,12.382l0,3.745c0,0.287 0.233,0.52 0.521,0.52c0.287,0 0.52,-0.233 0.52,-0.52l0,-8.546l5.985,-3.49c0.248,-0.145 0.331,-0.464 0.187,-0.712c-0.145,-0.248 -0.464,-0.331 -0.712,-0.187l-5.46,3.185l0,-3.986l6.489,-3.494c0.253,-0.136 0.348,-0.452 0.212,-0.705c-0.136,-0.252 -0.452,-0.348 -0.705,-0.211l-5.996,3.229l0,-4.024l4.932,-2.713c0.252,-0.139 0.344,-0.455 0.206,-0.707c-0.139,-0.251 -0.456,-0.344 -0.706,-0.205l-4.432,2.438l0,-6.924c0,-0.287 -0.233,-0.52 -0.52,-0.52c-0.288,0 -0.521,0.233 -0.521,0.52l0,6.924l-4.431,-2.438c-0.251,-0.139 -0.568,-0.047 -0.706,0.205c-0.139,0.252 -0.047,0.568 0.205,0.707l4.932,2.713l0,4.024l-5.996,-3.229c-0.253,-0.137 -0.568,-0.042 -0.705,0.211c-0.136,0.253 -0.041,0.569 0.212,0.705l6.489,3.494l0,3.986l-5.46,-3.185c-0.248,-0.145 -0.566,-0.061 -0.712,0.187c-0.144,0.248 -0.06,0.566 0.188,0.712l5.984,3.49l0,3.736c-5.104,-1.18 -7.803,-5.074 -7.803,-11.317c0,-5.683 4.264,-10.627 8.351,-13.436c5.277,2.987 8.296,7.867 8.296,13.436c0,5.614 -2.22,9.391 -6.42,10.92c-0.27,0.098 -0.41,0.397 -0.311,0.667c0.098,0.269 0.398,0.41 0.667,0.31c4.648,-1.691 7.105,-5.806 7.105,-11.897c0,-6.057 -3.322,-11.343 -9.116,-14.503Z" style="fill:#b2b2b2;"/><path d="M83.532,86.562c-0.17,-0.093 -0.377,-0.084 -0.538,0.024c-4.387,2.924 -9.075,8.264 -9.075,14.479c0,6.788 3.141,11.162 8.844,12.382l0,3.745c0,0.287 0.232,0.52 0.52,0.52c0.288,0 0.52,-0.233 0.52,-0.52l0,-8.546l5.985,-3.49c0.248,-0.145 0.332,-0.464 0.187,-0.712c-0.144,-0.248 -0.463,-0.331 -0.711,-0.187l-5.461,3.185l0,-3.986l6.49,-3.494c0.252,-0.136 0.348,-0.452 0.211,-0.705c-0.136,-0.252 -0.452,-0.348 -0.705,-0.211l-5.996,3.229l0,-4.024l4.933,-2.713c0.252,-0.139 0.344,-0.455 0.205,-0.707c-0.138,-0.251 -0.455,-0.344 -0.706,-0.205l-4.432,2.438l0,-6.924c0,-0.287 -0.232,-0.52 -0.52,-0.52c-0.288,0 -0.52,0.233 -0.52,0.52l0,6.924l-4.432,-2.438c-0.251,-0.139 -0.568,-0.047 -0.706,0.205c-0.139,0.252 -0.047,0.568 0.206,0.707l4.932,2.713l0,4.024l-5.996,-3.229c-0.253,-0.137 -0.569,-0.042 -0.705,0.211c-0.137,0.253 -0.041,0.569 0.212,0.705l6.489,3.494l0,3.986l-5.46,-3.185c-0.248,-0.145 -0.567,-0.061 -0.712,0.187c-0.145,0.248 -0.061,0.566 0.187,0.712l5.985,3.49l0,3.736c-5.104,-1.18 -7.804,-5.074 -7.804,-11.317c0,-5.683 4.265,-10.627 8.351,-13.436c5.277,2.987 8.297,7.867 8.297,13.436c0,5.614 -2.221,9.391 -6.421,10.92c-0.27,0.098 -0.409,0.397 -0.311,0.667c0.098,0.269 0.398,0.41 0.667,0.31c4.648,-1.691 7.105,-5.806 7.105,-11.897c0,-6.057 -3.322,-11.343 -9.115,-14.503Z" style="fill:#b2b2b2;"/><path d="M120.491,86.562c-0.169,-0.093 -0.376,-0.084 -0.537,0.024c-4.387,2.924 -9.076,8.264 -9.076,14.479c0,6.788 3.141,11.162 8.844,12.382l0,3.745c0,0.287 0.233,0.52 0.52,0.52c0.288,0 0.521,-0.233 0.521,-0.52l0,-8.546l5.984,-3.49c0.249,-0.145 0.332,-0.464 0.188,-0.712c-0.145,-0.248 -0.464,-0.331 -0.712,-0.187l-5.46,3.185l0,-3.986l6.489,-3.494c0.253,-0.136 0.348,-0.452 0.212,-0.705c-0.137,-0.252 -0.452,-0.348 -0.705,-0.211l-5.996,3.229l0,-4.024l4.932,-2.713c0.252,-0.139 0.344,-0.455 0.205,-0.707c-0.138,-0.251 -0.455,-0.344 -0.705,-0.205l-4.432,2.438l0,-6.924c0,-0.287 -0.233,-0.52 -0.521,-0.52c-0.287,0 -0.52,0.233 -0.52,0.52l0,6.924l-4.432,-2.438c-0.25,-0.139 -0.567,-0.047 -0.706,0.205c-0.138,0.252 -0.046,0.568 0.206,0.707l4.932,2.713l0,4.024l-5.996,-3.229c-0.253,-0.137 -0.568,-0.042 -0.705,0.211c-0.136,0.253 -0.041,0.569 0.212,0.705l6.489,3.494l0,3.986l-5.46,-3.185c-0.248,-0.145 -0.567,-0.061 -0.712,0.187c-0.144,0.248 -0.061,0.566 0.188,0.712l5.984,3.49l0,3.736c-5.104,-1.18 -7.803,-5.074 -7.803,-11.317c0,-5.683 4.264,-10.627 8.351,-13.436c5.277,2.987 8.296,7.867 8.296,13.436c0,5.614 -2.22,9.391 -6.42,10.92c-0.27,0.098 -0.41,0.397 -0.312,0.667c0.099,0.269 0.398,0.41 0.667,0.31c4.649,-1.691 7.106,-5.806 7.106,-11.897c0,-6.057 -3.323,-11.343 -9.116,-14.503Z" style="fill:#b2b2b2;"/><path d="M157.451,86.562c-0.17,-0.093 -0.377,-0.084 -0.538,0.024c-4.387,2.924 -9.075,8.264 -9.075,14.479c0,6.788 3.14,11.162 8.844,12.382l0,3.745c0,0.287 0.232,0.52 0.52,0.52c0.288,0 0.52,-0.233 0.52,-0.52l0,-8.546l5.985,-3.49c0.248,-0.145 0.332,-0.464 0.187,-0.712c-0.144,-0.248 -0.463,-0.331 -0.712,-0.187l-5.46,3.185l0,-3.986l6.489,-3.494c0.253,-0.136 0.349,-0.452 0.212,-0.705c-0.136,-0.252 -0.452,-0.348 -0.705,-0.211l-5.996,3.229l0,-4.024l4.932,-2.713c0.253,-0.139 0.345,-0.455 0.206,-0.707c-0.138,-0.251 -0.455,-0.344 -0.706,-0.205l-4.432,2.438l0,-6.924c0,-0.287 -0.232,-0.52 -0.52,-0.52c-0.288,0 -0.52,0.233 -0.52,0.52l0,6.924l-4.432,-2.438c-0.251,-0.139 -0.568,-0.047 -0.706,0.205c-0.139,0.252 -0.047,0.568 0.205,0.707l4.933,2.713l0,4.024l-5.996,-3.229c-0.253,-0.137 -0.569,-0.042 -0.705,0.211c-0.137,0.253 -0.041,0.569 0.211,0.705l6.49,3.494l0,3.986l-5.461,-3.185c-0.247,-0.145 -0.566,-0.061 -0.711,0.187c-0.145,0.248 -0.061,0.566 0.187,0.712l5.985,3.49l0,3.736c-5.104,-1.18 -7.804,-5.074 -7.804,-11.317c0,-5.683 4.265,-10.627 8.351,-13.436c5.277,2.987 8.297,7.867 8.297,13.436c0,5.614 -2.221,9.391 -6.421,10.92c-0.27,0.098 -0.409,0.397 -0.311,0.667c0.098,0.269 0.398,0.41 0.667,0.31c4.648,-1.691 7.105,-5.806 7.105,-11.897c0,-6.057 -3.322,-11.343 -9.115,-14.503Z" style="fill:#b2b2b2;"/><path d="M194.41,86.562c-0.17,-0.093 -0.377,-0.084 -0.537,0.024c-4.387,2.924 -9.076,8.264 -9.076,14.479c0,6.788 3.141,11.162 8.844,12.382l0,3.745c0,0.287 0.233,0.52 0.52,0.52c0.288,0 0.521,-0.233 0.521,-0.52l0,-8.546l5.984,-3.49c0.248,-0.145 0.332,-0.464 0.188,-0.712c-0.145,-0.248 -0.464,-0.331 -0.712,-0.187l-5.46,3.185l0,-3.986l6.489,-3.494c0.253,-0.136 0.348,-0.452 0.212,-0.705c-0.137,-0.252 -0.452,-0.348 -0.705,-0.211l-5.996,3.229l0,-4.024l4.932,-2.713c0.252,-0.139 0.344,-0.455 0.205,-0.707c-0.138,-0.251 -0.455,-0.344 -0.706,-0.205l-4.431,2.438l0,-6.924c0,-0.287 -0.233,-0.52 -0.521,-0.52c-0.287,0 -0.52,0.233 -0.52,0.52l0,6.924l-4.432,-2.438c-0.25,-0.139 -0.567,-0.047 -0.706,0.205c-0.138,0.252 -0.046,0.568 0.206,0.707l4.932,2.713l0,4.024l-5.996,-3.229c-0.253,-0.137 -0.569,-0.042 -0.705,0.211c-0.136,0.253 -0.041,0.569 0.212,0.705l6.489,3.494l0,3.986l-5.46,-3.185c-0.248,-0.145 -0.567,-0.061 -0.712,0.187c-0.144,0.248 -0.061,0.566 0.187,0.712l5.985,3.49l0,3.736c-5.104,-1.18 -7.803,-5.074 -7.803,-11.317c0,-5.683 4.264,-10.627 8.35,-13.436c5.278,2.987 8.297,7.867 8.297,13.436c0,5.614 -2.22,9.391 -6.421,10.92c-0.27,0.098 -0.409,0.397 -0.311,0.667c0.099,0.269 0.398,0.41 0.667,0.31c4.648,-1.691 7.106,-5.806 7.106,-11.897c0,-6.057 -3.323,-11.343 -9.116,-14.503Z" style="fill:#b2b2b2;"/><path d="M231.37,86.562c-0.17,-0.093 -0.377,-0.084 -0.538,0.024c-4.387,2.924 -9.075,8.264 -9.075,14.479c0,6.788 3.14,11.162 8.844,12.382l0,3.745c0,0.287 0.232,0.52 0.52,0.52c0.288,0 0.52,-0.233 0.52,-0.52l0,-8.546l5.985,-3.49c0.248,-0.145 0.332,-0.464 0.187,-0.712c-0.145,-0.248 -0.463,-0.331 -0.712,-0.187l-5.46,3.185l0,-3.986l6.489,-3.494c0.253,-0.136 0.348,-0.452 0.212,-0.705c-0.136,-0.252 -0.452,-0.348 -0.705,-0.211l-5.996,3.229l0,-4.024l4.932,-2.713c0.253,-0.139 0.345,-0.455 0.206,-0.707c-0.139,-0.251 -0.455,-0.344 -0.706,-0.205l-4.432,2.438l0,-6.924c0,-0.287 -0.232,-0.52 -0.52,-0.52c-0.288,0 -0.52,0.233 -0.52,0.52l0,6.924l-4.432,-2.438c-0.251,-0.139 -0.568,-0.047 -0.706,0.205c-0.139,0.252 -0.047,0.568 0.205,0.707l4.933,2.713l0,4.024l-5.996,-3.229c-0.253,-0.137 -0.569,-0.042 -0.705,0.211c-0.137,0.253 -0.042,0.569 0.211,0.705l6.49,3.494l0,3.986l-5.461,-3.185c-0.247,-0.145 -0.566,-0.061 -0.711,0.187c-0.145,0.248 -0.061,0.566 0.187,0.712l5.985,3.49l0,3.736c-5.104,-1.18 -7.804,-5.074 -7.804,-11.317c0,-5.683 4.265,-10.627 8.351,-13.436c5.277,2.987 8.297,7.867 8.297,13.436c0,5.614 -2.221,9.391 -6.421,10.92c-0.27,0.098 -0.41,0.397 -0.311,0.667c0.098,0.269 0.398,0.41 0.667,0.31c4.648,-1.691 7.105,-5.806 7.105,-11.897c0,-6.057 -3.322,-11.343 -9.115,-14.503Z" style="fill:#b2b2b2;"/></g><g><path d="M212.392,136.687c0.17,0.093 0.377,0.084 0.538,-0.024c4.387,-2.924 9.075,-8.264 9.075,-14.479c0,-6.788 -3.14,-11.162 -8.844,-12.382l0,-3.745c0,-0.287 -0.232,-0.52 -0.52,-0.52c-0.288,0 -0.52,0.233 -0.52,0.52l0,8.546l-5.985,3.49c-0.248,0.146 -0.332,0.464 -0.187,0.712c0.145,0.248 0.463,0.331 0.712,0.187l5.46,-3.185l0,3.986l-6.489,3.494c-0.253,0.136 -0.348,0.452 -0.212,0.705c0.136,0.253 0.452,0.348 0.705,0.211l5.996,-3.229l0,4.024l-4.932,2.713c-0.253,0.139 -0.345,0.455 -0.206,0.707c0.138,0.252 0.455,0.344 0.706,0.205l4.432,-2.438l0,6.924c0,0.287 0.232,0.521 0.52,0.521c0.288,0 0.52,-0.234 0.52,-0.521l0,-6.923l4.432,2.437c0.251,0.139 0.568,0.047 0.706,-0.205c0.139,-0.252 0.047,-0.568 -0.205,-0.707l-4.933,-2.713l0,-4.023l5.996,3.228c0.253,0.137 0.569,0.042 0.705,-0.211c0.137,-0.253 0.041,-0.569 -0.211,-0.705l-6.49,-3.494l0,-3.986l5.461,3.185c0.247,0.145 0.566,0.061 0.711,-0.187c0.145,-0.248 0.061,-0.566 -0.187,-0.712l-5.985,-3.49l0,-3.736c5.104,1.18 7.804,5.074 7.804,11.318c0,5.682 -4.265,10.626 -8.351,13.436c-5.277,-2.988 -8.297,-7.868 -8.297,-13.436c0,-5.615 2.221,-9.392 6.421,-10.921c0.27,-0.098 0.409,-0.397 0.311,-0.667c-0.098,-0.269 -0.398,-0.41 -0.667,-0.31c-4.648,1.692 -7.105,5.806 -7.105,11.897c0,6.057 3.322,11.344 9.115,14.503Z" style="fill:#b2b2b2;"/><path d="M175.433,136.687c0.17,0.093 0.377,0.084 0.537,-0.024c4.388,-2.924 9.076,-8.264 9.076,-14.479c0,-6.788 -3.141,-11.162 -8.844,-12.382l0,-3.745c0,-0.287 -0.233,-0.52 -0.52,-0.52c-0.288,0 -0.521,0.233 -0.521,0.52l0,8.546l-5.984,3.49c-0.248,0.146 -0.332,0.464 -0.188,0.712c0.145,0.248 0.464,0.331 0.712,0.187l5.461,-3.185l0,3.986l-6.49,3.494c-0.253,0.136 -0.348,0.452 -0.212,0.705c0.137,0.253 0.452,0.348 0.705,0.211l5.997,-3.229l0,4.024l-4.933,2.713c-0.252,0.139 -0.344,0.455 -0.205,0.707c0.138,0.252 0.455,0.344 0.706,0.205l4.431,-2.438l0,6.924c0,0.287 0.233,0.521 0.521,0.521c0.287,0 0.52,-0.234 0.52,-0.521l0,-6.923l4.432,2.437c0.25,0.139 0.567,0.047 0.706,-0.205c0.139,-0.252 0.046,-0.568 -0.206,-0.707l-4.932,-2.713l0,-4.023l5.996,3.228c0.253,0.137 0.569,0.042 0.705,-0.211c0.136,-0.253 0.041,-0.569 -0.212,-0.705l-6.489,-3.494l0,-3.986l5.46,3.185c0.248,0.145 0.567,0.061 0.712,-0.187c0.144,-0.248 0.061,-0.566 -0.187,-0.712l-5.985,-3.49l0,-3.736c5.104,1.18 7.803,5.074 7.803,11.318c0,5.682 -4.264,10.626 -8.35,13.436c-5.278,-2.988 -8.297,-7.868 -8.297,-13.436c0,-5.615 2.22,-9.392 6.421,-10.921c0.27,-0.098 0.409,-0.397 0.311,-0.667c-0.099,-0.269 -0.398,-0.41 -0.667,-0.31c-4.648,1.692 -7.105,5.806 -7.105,11.897c0,6.057 3.322,11.344 9.115,14.503Z" style="fill:#b2b2b2;"/><path d="M138.474,136.687c0.169,0.093 0.376,0.084 0.537,-0.024c4.387,-2.924 9.075,-8.264 9.075,-14.479c0,-6.788 -3.14,-11.162 -8.844,-12.382l0,-3.745c0,-0.287 -0.232,-0.52 -0.52,-0.52c-0.287,0 -0.52,0.233 -0.52,0.52l0,8.546l-5.985,3.49c-0.248,0.146 -0.332,0.464 -0.187,0.712c0.145,0.248 0.464,0.331 0.712,0.187l5.46,-3.185l0,3.986l-6.489,3.494c-0.253,0.136 -0.348,0.452 -0.212,0.705c0.136,0.253 0.452,0.348 0.705,0.211l5.996,-3.229l0,4.024l-4.932,2.713c-0.253,0.139 -0.345,0.455 -0.206,0.707c0.139,0.252 0.455,0.344 0.706,0.205l4.432,-2.438l0,6.924c0,0.287 0.233,0.521 0.52,0.521c0.288,0 0.52,-0.234 0.52,-0.521l0,-6.923l4.432,2.437c0.251,0.139 0.568,0.047 0.706,-0.205c0.139,-0.252 0.047,-0.568 -0.205,-0.707l-4.933,-2.713l0,-4.023l5.997,3.228c0.252,0.137 0.568,0.042 0.704,-0.211c0.137,-0.253 0.042,-0.569 -0.211,-0.705l-6.49,-3.494l0,-3.986l5.461,3.185c0.247,0.145 0.566,0.061 0.711,-0.187c0.145,-0.248 0.061,-0.566 -0.187,-0.712l-5.985,-3.49l0,-3.736c5.104,1.18 7.804,5.074 7.804,11.318c0,5.682 -4.264,10.626 -8.351,13.436c-5.277,-2.988 -8.297,-7.868 -8.297,-13.436c0,-5.615 2.221,-9.392 6.421,-10.921c0.27,-0.098 0.41,-0.397 0.311,-0.667c-0.098,-0.269 -0.398,-0.41 -0.667,-0.31c-4.648,1.692 -7.105,5.806 -7.105,11.897c0,6.057 3.322,11.344 9.116,14.503Z" style="fill:#b2b2b2;"/><path d="M101.514,136.687c0.17,0.093 0.377,0.084 0.537,-0.024c4.388,-2.924 9.076,-8.264 9.076,-14.479c0,-6.788 -3.141,-11.162 -8.844,-12.382l0,-3.745c0,-0.287 -0.233,-0.52 -0.52,-0.52c-0.288,0 -0.52,0.233 -0.52,0.52l0,8.546l-5.985,3.49c-0.248,0.146 -0.332,0.464 -0.187,0.712c0.144,0.248 0.463,0.331 0.711,0.187l5.461,-3.185l0,3.986l-6.49,3.494c-0.253,0.136 -0.348,0.452 -0.211,0.705c0.136,0.253 0.452,0.348 0.704,0.211l5.997,-3.229l0,4.024l-4.933,2.713c-0.252,0.139 -0.344,0.455 -0.205,0.707c0.138,0.252 0.455,0.344 0.706,0.205l4.432,-2.438l0,6.924c0,0.287 0.232,0.521 0.52,0.521c0.287,0 0.52,-0.234 0.52,-0.521l0,-6.923l4.432,2.437c0.251,0.139 0.567,0.047 0.706,-0.205c0.139,-0.252 0.047,-0.568 -0.206,-0.707l-4.932,-2.713l0,-4.023l5.996,3.228c0.253,0.137 0.569,0.042 0.705,-0.211c0.136,-0.253 0.041,-0.569 -0.212,-0.705l-6.489,-3.494l0,-3.986l5.46,3.185c0.248,0.145 0.567,0.061 0.712,-0.187c0.145,-0.248 0.061,-0.566 -0.187,-0.712l-5.985,-3.49l0,-3.736c5.104,1.18 7.803,5.074 7.803,11.318c0,5.682 -4.264,10.626 -8.35,13.436c-5.278,-2.988 -8.297,-7.868 -8.297,-13.436c0,-5.615 2.22,-9.392 6.421,-10.921c0.27,-0.098 0.409,-0.397 0.311,-0.667c-0.099,-0.269 -0.398,-0.41 -0.667,-0.31c-4.648,1.692 -7.105,5.806 -7.105,11.897c0,6.057 3.322,11.344 9.115,14.503Z" style="fill:#b2b2b2;"/><path d="M64.555,136.687c0.169,0.093 0.376,0.084 0.537,-0.024c4.387,-2.924 9.075,-8.264 9.075,-14.479c0,-6.788 -3.14,-11.162 -8.843,-12.382l0,-3.745c0,-0.287 -0.233,-0.52 -0.521,-0.52c-0.287,0 -0.52,0.233 -0.52,0.52l0,8.546l-5.985,3.49c-0.248,0.146 -0.331,0.464 -0.187,0.712c0.145,0.248 0.464,0.331 0.712,0.187l5.46,-3.185l0,3.986l-6.489,3.494c-0.253,0.136 -0.348,0.452 -0.212,0.705c0.136,0.253 0.452,0.348 0.705,0.211l5.996,-3.229l0,4.024l-4.932,2.713c-0.252,0.139 -0.345,0.455 -0.206,0.707c0.139,0.252 0.456,0.344 0.706,0.205l4.432,-2.438l0,6.924c0,0.287 0.233,0.521 0.52,0.521c0.288,0 0.521,-0.234 0.521,-0.521l0,-6.923l4.431,2.437c0.251,0.139 0.568,0.047 0.706,-0.205c0.139,-0.252 0.047,-0.568 -0.205,-0.707l-4.933,-2.713l0,-4.023l5.997,3.228c0.252,0.137 0.568,0.042 0.705,-0.211c0.136,-0.253 0.041,-0.569 -0.212,-0.705l-6.49,-3.494l0,-3.986l5.461,3.185c0.247,0.145 0.566,0.061 0.712,-0.187c0.144,-0.248 0.06,-0.566 -0.188,-0.712l-5.984,-3.49l0,-3.736c5.104,1.18 7.803,5.074 7.803,11.318c0,5.682 -4.264,10.626 -8.351,13.436c-5.277,-2.988 -8.296,-7.868 -8.296,-13.436c0,-5.615 2.22,-9.392 6.42,-10.921c0.27,-0.098 0.41,-0.397 0.311,-0.667c-0.098,-0.269 -0.398,-0.41 -0.667,-0.31c-4.648,1.692 -7.105,5.806 -7.105,11.897c0,6.057 3.322,11.344 9.116,14.503Z" style="fill:#b2b2b2;"/><path d="M27.595,136.687c0.17,0.093 0.377,0.084 0.538,-0.024c4.387,-2.924 9.075,-8.264 9.075,-14.479c0,-6.788 -3.141,-11.162 -8.844,-12.382l0,-3.745c0,-0.287 -0.232,-0.52 -0.52,-0.52c-0.288,0 -0.52,0.233 -0.52,0.52l0,8.546l-5.985,3.49c-0.248,0.146 -0.332,0.464 -0.187,0.712c0.144,0.248 0.463,0.331 0.711,0.187l5.461,-3.185l0,3.986l-6.49,3.494c-0.252,0.136 -0.348,0.452 -0.211,0.705c0.136,0.253 0.452,0.348 0.705,0.211l5.996,-3.229l0,4.024l-4.933,2.713c-0.252,0.139 -0.344,0.455 -0.205,0.707c0.138,0.252 0.455,0.344 0.706,0.205l4.432,-2.438l0,6.924c0,0.287 0.232,0.521 0.52,0.521c0.288,0 0.52,-0.234 0.52,-0.521l0,-6.923l4.432,2.437c0.251,0.139 0.567,0.047 0.706,-0.205c0.139,-0.252 0.047,-0.568 -0.206,-0.707l-4.932,-2.713l0,-4.023l5.996,3.228c0.253,0.137 0.569,0.042 0.705,-0.211c0.136,-0.253 0.041,-0.569 -0.212,-0.705l-6.489,-3.494l0,-3.986l5.46,3.185c0.248,0.145 0.567,0.061 0.712,-0.187c0.145,-0.248 0.061,-0.566 -0.187,-0.712l-5.985,-3.49l0,-3.736c5.104,1.18 7.804,5.074 7.804,11.318c0,5.682 -4.265,10.626 -8.351,13.436c-5.277,-2.988 -8.297,-7.868 -8.297,-13.436c0,-5.615 2.22,-9.392 6.421,-10.921c0.27,-0.098 0.409,-0.397 0.311,-0.667c-0.098,-0.269 -0.398,-0.41 -0.667,-0.31c-4.648,1.692 -7.105,5.806 -7.105,11.897c0,6.057 3.322,11.344 9.115,14.503Z" style="fill:#b2b2b2;"/></g></g><g><g><path d="M9.613,129.811c-0.17,-0.093 -0.377,-0.083 -0.538,0.024c-4.387,2.924 -9.075,8.264 -9.075,14.479c0,6.788 3.141,11.162 8.844,12.382l0,3.745c0,0.287 0.232,0.52 0.52,0.52c0.288,0 0.52,-0.233 0.52,-0.52l0,-8.545l5.985,-3.491c0.248,-0.145 0.332,-0.464 0.187,-0.712c-0.144,-0.248 -0.463,-0.331 -0.711,-0.187l-5.461,3.185l0,-3.986l6.49,-3.494c0.252,-0.136 0.348,-0.452 0.211,-0.705c-0.136,-0.252 -0.452,-0.348 -0.705,-0.211l-5.996,3.229l0,-4.024l4.933,-2.713c0.252,-0.139 0.344,-0.455 0.205,-0.707c-0.138,-0.251 -0.455,-0.343 -0.706,-0.205l-4.432,2.438l0,-6.924c0,-0.287 -0.232,-0.52 -0.52,-0.52c-0.288,0 -0.52,0.233 -0.52,0.52l0,6.924l-4.432,-2.438c-0.251,-0.139 -0.567,-0.046 -0.706,0.205c-0.139,0.252 -0.047,0.568 0.206,0.707l4.932,2.713l0,4.024l-5.996,-3.229c-0.253,-0.137 -0.569,-0.042 -0.705,0.211c-0.136,0.253 -0.041,0.569 0.212,0.705l6.489,3.494l0,3.986l-5.46,-3.185c-0.248,-0.144 -0.567,-0.061 -0.712,0.187c-0.145,0.248 -0.061,0.567 0.187,0.712l5.985,3.49l0,3.736c-5.104,-1.18 -7.804,-5.074 -7.804,-11.317c0,-5.683 4.265,-10.627 8.351,-13.436c5.277,2.987 8.297,7.868 8.297,13.436c0,5.614 -2.22,9.391 -6.421,10.92c-0.27,0.098 -0.409,0.397 -0.311,0.667c0.098,0.269 0.398,0.41 0.667,0.31c4.648,-1.691 7.105,-5.806 7.105,-11.897c0,-6.057 -3.322,-11.343 -9.115,-14.503Z" style="fill:#b2b2b2;"/><path d="M46.572,129.811c-0.169,-0.093 -0.376,-0.083 -0.537,0.024c-4.387,2.924 -9.076,8.264 -9.076,14.479c0,6.788 3.141,11.162 8.844,12.382l0,3.745c0,0.287 0.233,0.52 0.521,0.52c0.287,0 0.52,-0.233 0.52,-0.52l0,-8.545l5.985,-3.491c0.248,-0.145 0.331,-0.464 0.187,-0.712c-0.145,-0.248 -0.464,-0.331 -0.712,-0.187l-5.46,3.185l0,-3.986l6.489,-3.494c0.253,-0.136 0.348,-0.452 0.212,-0.705c-0.136,-0.252 -0.452,-0.348 -0.705,-0.211l-5.996,3.229l0,-4.024l4.932,-2.713c0.252,-0.139 0.344,-0.455 0.206,-0.707c-0.139,-0.251 -0.456,-0.343 -0.706,-0.205l-4.432,2.438l0,-6.924c0,-0.287 -0.233,-0.52 -0.52,-0.52c-0.288,0 -0.521,0.233 -0.521,0.52l0,6.924l-4.431,-2.438c-0.251,-0.139 -0.568,-0.046 -0.706,0.205c-0.139,0.252 -0.047,0.568 0.205,0.707l4.932,2.713l0,4.024l-5.996,-3.229c-0.253,-0.137 -0.568,-0.042 -0.705,0.211c-0.136,0.253 -0.041,0.569 0.212,0.705l6.489,3.494l0,3.986l-5.46,-3.185c-0.248,-0.144 -0.566,-0.061 -0.712,0.187c-0.144,0.248 -0.06,0.567 0.188,0.712l5.984,3.49l0,3.736c-5.104,-1.18 -7.803,-5.074 -7.803,-11.317c0,-5.683 4.264,-10.627 8.351,-13.436c5.277,2.987 8.296,7.868 8.296,13.436c0,5.614 -2.22,9.391 -6.42,10.92c-0.27,0.098 -0.41,0.397 -0.311,0.667c0.098,0.269 0.398,0.41 0.667,0.31c4.648,-1.691 7.105,-5.806 7.105,-11.897c0,-6.057 -3.322,-11.343 -9.116,-14.503Z" style="fill:#b2b2b2;"/><path d="M83.532,129.811c-0.17,-0.093 -0.377,-0.083 -0.538,0.024c-4.387,2.924 -9.075,8.264 -9.075,14.479c0,6.788 3.141,11.162 8.844,12.382l0,3.745c0,0.287 0.232,0.52 0.52,0.52c0.288,0 0.52,-0.233 0.52,-0.52l0,-8.545l5.985,-3.491c0.248,-0.145 0.332,-0.464 0.187,-0.712c-0.144,-0.248 -0.463,-0.331 -0.711,-0.187l-5.461,3.185l0,-3.986l6.49,-3.494c0.252,-0.136 0.348,-0.452 0.211,-0.705c-0.136,-0.252 -0.452,-0.348 -0.705,-0.211l-5.996,3.229l0,-4.024l4.933,-2.713c0.252,-0.139 0.344,-0.455 0.205,-0.707c-0.138,-0.251 -0.455,-0.343 -0.706,-0.205l-4.432,2.438l0,-6.924c0,-0.287 -0.232,-0.52 -0.52,-0.52c-0.288,0 -0.52,0.233 -0.52,0.52l0,6.924l-4.432,-2.438c-0.251,-0.139 -0.568,-0.046 -0.706,0.205c-0.139,0.252 -0.047,0.568 0.206,0.707l4.932,2.713l0,4.024l-5.996,-3.229c-0.253,-0.137 -0.569,-0.042 -0.705,0.211c-0.137,0.253 -0.041,0.569 0.212,0.705l6.489,3.494l0,3.986l-5.46,-3.185c-0.248,-0.144 -0.567,-0.061 -0.712,0.187c-0.145,0.248 -0.061,0.567 0.187,0.712l5.985,3.49l0,3.736c-5.104,-1.18 -7.804,-5.074 -7.804,-11.317c0,-5.683 4.265,-10.627 8.351,-13.436c5.277,2.987 8.297,7.868 8.297,13.436c0,5.614 -2.221,9.391 -6.421,10.92c-0.27,0.098 -0.409,0.397 -0.311,0.667c0.098,0.269 0.398,0.41 0.667,0.31c4.648,-1.691 7.105,-5.806 7.105,-11.897c0,-6.057 -3.322,-11.343 -9.115,-14.503Z" style="fill:#b2b2b2;"/><path d="M120.491,129.811c-0.169,-0.093 -0.376,-0.083 -0.537,0.024c-4.387,2.924 -9.076,8.264 -9.076,14.479c0,6.788 3.141,11.162 8.844,12.382l0,3.745c0,0.287 0.233,0.52 0.52,0.52c0.288,0 0.521,-0.233 0.521,-0.52l0,-8.545l5.984,-3.491c0.249,-0.145 0.332,-0.464 0.188,-0.712c-0.145,-0.248 -0.464,-0.331 -0.712,-0.187l-5.46,3.185l0,-3.986l6.489,-3.494c0.253,-0.136 0.348,-0.452 0.212,-0.705c-0.137,-0.252 -0.452,-0.348 -0.705,-0.211l-5.996,3.229l0,-4.024l4.932,-2.713c0.252,-0.139 0.344,-0.455 0.205,-0.707c-0.138,-0.251 -0.455,-0.343 -0.705,-0.205l-4.432,2.438l0,-6.924c0,-0.287 -0.233,-0.52 -0.521,-0.52c-0.287,0 -0.52,0.233 -0.52,0.52l0,6.924l-4.432,-2.438c-0.25,-0.139 -0.567,-0.046 -0.706,0.205c-0.138,0.252 -0.046,0.568 0.206,0.707l4.932,2.713l0,4.024l-5.996,-3.229c-0.253,-0.137 -0.568,-0.042 -0.705,0.211c-0.136,0.253 -0.041,0.569 0.212,0.705l6.489,3.494l0,3.986l-5.46,-3.185c-0.248,-0.144 -0.567,-0.061 -0.712,0.187c-0.144,0.248 -0.061,0.567 0.188,0.712l5.984,3.49l0,3.736c-5.104,-1.18 -7.803,-5.074 -7.803,-11.317c0,-5.683 4.264,-10.627 8.351,-13.436c5.277,2.987 8.296,7.868 8.296,13.436c0,5.614 -2.22,9.391 -6.42,10.92c-0.27,0.098 -0.41,0.397 -0.312,0.667c0.099,0.269 0.398,0.41 0.667,0.31c4.649,-1.691 7.106,-5.806 7.106,-11.897c0,-6.057 -3.323,-11.343 -9.116,-14.503Z" style="fill:#b2b2b2;"/><path d="M157.451,129.811c-0.17,-0.093 -0.377,-0.083 -0.538,0.024c-4.387,2.924 -9.075,8.264 -9.075,14.479c0,6.788 3.14,11.162 8.844,12.382l0,3.745c0,0.287 0.232,0.52 0.52,0.52c0.288,0 0.52,-0.233 0.52,-0.52l0,-8.545l5.985,-3.491c0.248,-0.145 0.332,-0.464 0.187,-0.712c-0.144,-0.248 -0.463,-0.331 -0.712,-0.187l-5.46,3.185l0,-3.986l6.489,-3.494c0.253,-0.136 0.349,-0.452 0.212,-0.705c-0.136,-0.252 -0.452,-0.348 -0.705,-0.211l-5.996,3.229l0,-4.024l4.932,-2.713c0.253,-0.139 0.345,-0.455 0.206,-0.707c-0.138,-0.251 -0.455,-0.343 -0.706,-0.205l-4.432,2.438l0,-6.924c0,-0.287 -0.232,-0.52 -0.52,-0.52c-0.288,0 -0.52,0.233 -0.52,0.52l0,6.924l-4.432,-2.438c-0.251,-0.139 -0.568,-0.046 -0.706,0.205c-0.139,0.252 -0.047,0.568 0.205,0.707l4.933,2.713l0,4.024l-5.996,-3.229c-0.253,-0.137 -0.569,-0.042 -0.705,0.211c-0.137,0.253 -0.041,0.569 0.211,0.705l6.49,3.494l0,3.986l-5.461,-3.185c-0.247,-0.144 -0.566,-0.061 -0.711,0.187c-0.145,0.248 -0.061,0.567 0.187,0.712l5.985,3.49l0,3.736c-5.104,-1.18 -7.804,-5.074 -7.804,-11.317c0,-5.683 4.265,-10.627 8.351,-13.436c5.277,2.987 8.297,7.868 8.297,13.436c0,5.614 -2.221,9.391 -6.421,10.92c-0.27,0.098 -0.409,0.397 -0.311,0.667c0.098,0.269 0.398,0.41 0.667,0.31c4.648,-1.691 7.105,-5.806 7.105,-11.897c0,-6.057 -3.322,-11.343 -9.115,-14.503Z" style="fill:#b2b2b2;"/><path d="M194.41,129.811c-0.17,-0.093 -0.377,-0.083 -0.537,0.024c-4.387,2.924 -9.076,8.264 -9.076,14.479c0,6.788 3.141,11.162 8.844,12.382l0,3.745c0,0.287 0.233,0.52 0.52,0.52c0.288,0 0.521,-0.233 0.521,-0.52l0,-8.545l5.984,-3.491c0.248,-0.145 0.332,-0.464 0.188,-0.712c-0.145,-0.248 -0.464,-0.331 -0.712,-0.187l-5.46,3.185l0,-3.986l6.489,-3.494c0.253,-0.136 0.348,-0.452 0.212,-0.705c-0.137,-0.252 -0.452,-0.348 -0.705,-0.211l-5.996,3.229l0,-4.024l4.932,-2.713c0.252,-0.139 0.344,-0.455 0.205,-0.707c-0.138,-0.251 -0.455,-0.343 -0.706,-0.205l-4.431,2.438l0,-6.924c0,-0.287 -0.233,-0.52 -0.521,-0.52c-0.287,0 -0.52,0.233 -0.52,0.52l0,6.924l-4.432,-2.438c-0.25,-0.139 -0.567,-0.046 -0.706,0.205c-0.138,0.252 -0.046,0.568 0.206,0.707l4.932,2.713l0,4.024l-5.996,-3.229c-0.253,-0.137 -0.569,-0.042 -0.705,0.211c-0.136,0.253 -0.041,0.569 0.212,0.705l6.489,3.494l0,3.986l-5.46,-3.185c-0.248,-0.144 -0.567,-0.061 -0.712,0.187c-0.144,0.248 -0.061,0.567 0.187,0.712l5.985,3.49l0,3.736c-5.104,-1.18 -7.803,-5.074 -7.803,-11.317c0,-5.683 4.264,-10.627 8.35,-13.436c5.278,2.987 8.297,7.868 8.297,13.436c0,5.614 -2.22,9.391 -6.421,10.92c-0.27,0.098 -0.409,0.397 -0.311,0.667c0.099,0.269 0.398,0.41 0.667,0.31c4.648,-1.691 7.106,-5.806 7.106,-11.897c0,-6.057 -3.323,-11.343 -9.116,-14.503Z" style="fill:#b2b2b2;"/><path d="M231.37,129.811c-0.17,-0.093 -0.377,-0.083 -0.538,0.024c-4.387,2.924 -9.075,8.264 -9.075,14.479c0,6.788 3.14,11.162 8.844,12.382l0,3.745c0,0.287 0.232,0.52 0.52,0.52c0.288,0 0.52,-0.233 0.52,-0.52l0,-8.545l5.985,-3.491c0.248,-0.145 0.332,-0.464 0.187,-0.712c-0.145,-0.248 -0.463,-0.331 -0.712,-0.187l-5.46,3.185l0,-3.986l6.489,-3.494c0.253,-0.136 0.348,-0.452 0.212,-0.705c-0.136,-0.252 -0.452,-0.348 -0.705,-0.211l-5.996,3.229l0,-4.024l4.932,-2.713c0.253,-0.139 0.345,-0.455 0.206,-0.707c-0.139,-0.251 -0.455,-0.343 -0.706,-0.205l-4.432,2.438l0,-6.924c0,-0.287 -0.232,-0.52 -0.52,-0.52c-0.288,0 -0.52,0.233 -0.52,0.52l0,6.924l-4.432,-2.438c-0.251,-0.139 -0.568,-0.046 -0.706,0.205c-0.139,0.252 -0.047,0.568 0.205,0.707l4.933,2.713l0,4.024l-5.996,-3.229c-0.253,-0.137 -0.569,-0.042 -0.705,0.211c-0.137,0.253 -0.042,0.569 0.211,0.705l6.49,3.494l0,3.986l-5.461,-3.185c-0.247,-0.144 -0.566,-0.061 -0.711,0.187c-0.145,0.248 -0.061,0.567 0.187,0.712l5.985,3.49l0,3.736c-5.104,-1.18 -7.804,-5.074 -7.804,-11.317c0,-5.683 4.265,-10.627 8.351,-13.436c5.277,2.987 8.297,7.868 8.297,13.436c0,5.614 -2.221,9.391 -6.421,10.92c-0.27,0.098 -0.41,0.397 -0.311,0.667c0.098,0.269 0.398,0.41 0.667,0.31c4.648,-1.691 7.105,-5.806 7.105,-11.897c0,-6.057 -3.322,-11.343 -9.115,-14.503Z" style="fill:#b2b2b2;"/></g><g><path d="M212.392,179.937c0.17,0.092 0.377,0.083 0.538,-0.024c4.387,-2.925 9.075,-8.265 9.075,-14.479c0,-6.789 -3.14,-11.162 -8.844,-12.382l0,-3.746c0,-0.287 -0.232,-0.52 -0.52,-0.52c-0.288,0 -0.52,0.233 -0.52,0.52l0,8.546l-5.985,3.49c-0.248,0.146 -0.332,0.464 -0.187,0.712c0.145,0.248 0.463,0.332 0.712,0.187l5.46,-3.185l0,3.986l-6.489,3.494c-0.253,0.136 -0.348,0.452 -0.212,0.705c0.136,0.253 0.452,0.348 0.705,0.211l5.996,-3.229l0,4.024l-4.932,2.713c-0.253,0.139 -0.345,0.455 -0.206,0.707c0.138,0.252 0.455,0.344 0.706,0.205l4.432,-2.437l0,6.923c0,0.288 0.232,0.521 0.52,0.521c0.288,0 0.52,-0.233 0.52,-0.521l0,-6.923l4.432,2.437c0.251,0.139 0.568,0.047 0.706,-0.205c0.139,-0.252 0.047,-0.568 -0.205,-0.706l-4.933,-2.713l0,-4.024l5.996,3.228c0.253,0.137 0.569,0.042 0.705,-0.211c0.137,-0.253 0.041,-0.569 -0.211,-0.704l-6.49,-3.495l0,-3.986l5.461,3.186c0.247,0.144 0.566,0.06 0.711,-0.188c0.145,-0.248 0.061,-0.566 -0.187,-0.711l-5.985,-3.491l0,-3.736c5.104,1.18 7.804,5.074 7.804,11.318c0,5.682 -4.265,10.626 -8.351,13.436c-5.277,-2.987 -8.297,-7.868 -8.297,-13.436c0,-5.615 2.221,-9.392 6.421,-10.92c0.27,-0.099 0.409,-0.397 0.311,-0.667c-0.098,-0.27 -0.398,-0.411 -0.667,-0.311c-4.648,1.692 -7.105,5.806 -7.105,11.898c0,6.057 3.322,11.343 9.115,14.503Z" style="fill:#b2b2b2;"/><path d="M175.433,179.937c0.17,0.092 0.377,0.083 0.537,-0.024c4.388,-2.925 9.076,-8.265 9.076,-14.479c0,-6.789 -3.141,-11.162 -8.844,-12.382l0,-3.746c0,-0.287 -0.233,-0.52 -0.52,-0.52c-0.288,0 -0.521,0.233 -0.521,0.52l0,8.546l-5.984,3.49c-0.248,0.146 -0.332,0.464 -0.188,0.712c0.145,0.248 0.464,0.332 0.712,0.187l5.461,-3.185l0,3.986l-6.49,3.494c-0.253,0.136 -0.348,0.452 -0.212,0.705c0.137,0.253 0.452,0.348 0.705,0.211l5.997,-3.229l0,4.024l-4.933,2.713c-0.252,0.139 -0.344,0.455 -0.205,0.707c0.138,0.252 0.455,0.344 0.706,0.205l4.431,-2.437l0,6.923c0,0.288 0.233,0.521 0.521,0.521c0.287,0 0.52,-0.233 0.52,-0.521l0,-6.923l4.432,2.437c0.25,0.139 0.567,0.047 0.706,-0.205c0.139,-0.252 0.046,-0.568 -0.206,-0.706l-4.932,-2.713l0,-4.024l5.996,3.228c0.253,0.137 0.569,0.042 0.705,-0.211c0.136,-0.253 0.041,-0.569 -0.212,-0.704l-6.489,-3.495l0,-3.986l5.46,3.186c0.248,0.144 0.567,0.06 0.712,-0.188c0.144,-0.248 0.061,-0.566 -0.187,-0.711l-5.985,-3.491l0,-3.736c5.104,1.18 7.803,5.074 7.803,11.318c0,5.682 -4.264,10.626 -8.35,13.436c-5.278,-2.987 -8.297,-7.868 -8.297,-13.436c0,-5.615 2.22,-9.392 6.421,-10.92c0.27,-0.099 0.409,-0.397 0.311,-0.667c-0.099,-0.27 -0.398,-0.411 -0.667,-0.311c-4.648,1.692 -7.105,5.806 -7.105,11.898c0,6.057 3.322,11.343 9.115,14.503Z" style="fill:#b2b2b2;"/><path d="M138.474,179.937c0.169,0.092 0.376,0.083 0.537,-0.024c4.387,-2.925 9.075,-8.265 9.075,-14.479c0,-6.789 -3.14,-11.162 -8.844,-12.382l0,-3.746c0,-0.287 -0.232,-0.52 -0.52,-0.52c-0.287,0 -0.52,0.233 -0.52,0.52l0,8.546l-5.985,3.49c-0.248,0.146 -0.332,0.464 -0.187,0.712c0.145,0.248 0.464,0.332 0.712,0.187l5.46,-3.185l0,3.986l-6.489,3.494c-0.253,0.136 -0.348,0.452 -0.212,0.705c0.136,0.253 0.452,0.348 0.705,0.211l5.996,-3.229l0,4.024l-4.932,2.713c-0.253,0.139 -0.345,0.455 -0.206,0.707c0.139,0.252 0.455,0.344 0.706,0.205l4.432,-2.437l0,6.923c0,0.288 0.233,0.521 0.52,0.521c0.288,0 0.52,-0.233 0.52,-0.521l0,-6.923l4.432,2.437c0.251,0.139 0.568,0.047 0.706,-0.205c0.139,-0.252 0.047,-0.568 -0.205,-0.706l-4.933,-2.713l0,-4.024l5.997,3.228c0.252,0.137 0.568,0.042 0.704,-0.211c0.137,-0.253 0.042,-0.569 -0.211,-0.704l-6.49,-3.495l0,-3.986l5.461,3.186c0.247,0.144 0.566,0.06 0.711,-0.188c0.145,-0.248 0.061,-0.566 -0.187,-0.711l-5.985,-3.491l0,-3.736c5.104,1.18 7.804,5.074 7.804,11.318c0,5.682 -4.264,10.626 -8.351,13.436c-5.277,-2.987 -8.297,-7.868 -8.297,-13.436c0,-5.615 2.221,-9.392 6.421,-10.92c0.27,-0.099 0.41,-0.397 0.311,-0.667c-0.098,-0.27 -0.398,-0.411 -0.667,-0.311c-4.648,1.692 -7.105,5.806 -7.105,11.898c0,6.057 3.322,11.343 9.116,14.503Z" style="fill:#b2b2b2;"/><path d="M101.514,179.937c0.17,0.092 0.377,0.083 0.537,-0.024c4.388,-2.925 9.076,-8.265 9.076,-14.479c0,-6.789 -3.141,-11.162 -8.844,-12.382l0,-3.746c0,-0.287 -0.233,-0.52 -0.52,-0.52c-0.288,0 -0.52,0.233 -0.52,0.52l0,8.546l-5.985,3.49c-0.248,0.146 -0.332,0.464 -0.187,0.712c0.144,0.248 0.463,0.332 0.711,0.187l5.461,-3.185l0,3.986l-6.49,3.494c-0.253,0.136 -0.348,0.452 -0.211,0.705c0.136,0.253 0.452,0.348 0.704,0.211l5.997,-3.229l0,4.024l-4.933,2.713c-0.252,0.139 -0.344,0.455 -0.205,0.707c0.138,0.252 0.455,0.344 0.706,0.205l4.432,-2.437l0,6.923c0,0.288 0.232,0.521 0.52,0.521c0.287,0 0.52,-0.233 0.52,-0.521l0,-6.923l4.432,2.437c0.251,0.139 0.567,0.047 0.706,-0.205c0.139,-0.252 0.047,-0.568 -0.206,-0.706l-4.932,-2.713l0,-4.024l5.996,3.228c0.253,0.137 0.569,0.042 0.705,-0.211c0.136,-0.253 0.041,-0.569 -0.212,-0.704l-6.489,-3.495l0,-3.986l5.46,3.186c0.248,0.144 0.567,0.06 0.712,-0.188c0.145,-0.248 0.061,-0.566 -0.187,-0.711l-5.985,-3.491l0,-3.736c5.104,1.18 7.803,5.074 7.803,11.318c0,5.682 -4.264,10.626 -8.35,13.436c-5.278,-2.987 -8.297,-7.868 -8.297,-13.436c0,-5.615 2.22,-9.392 6.421,-10.92c0.27,-0.099 0.409,-0.397 0.311,-0.667c-0.099,-0.27 -0.398,-0.411 -0.667,-0.311c-4.648,1.692 -7.105,5.806 -7.105,11.898c0,6.057 3.322,11.343 9.115,14.503Z" style="fill:#b2b2b2;"/><path d="M64.555,179.937c0.169,0.092 0.376,0.083 0.537,-0.024c4.387,-2.925 9.075,-8.265 9.075,-14.479c0,-6.789 -3.14,-11.162 -8.843,-12.382l0,-3.746c0,-0.287 -0.233,-0.52 -0.521,-0.52c-0.287,0 -0.52,0.233 -0.52,0.52l0,8.546l-5.985,3.49c-0.248,0.146 -0.331,0.464 -0.187,0.712c0.145,0.248 0.464,0.332 0.712,0.187l5.46,-3.185l0,3.986l-6.489,3.494c-0.253,0.136 -0.348,0.452 -0.212,0.705c0.136,0.253 0.452,0.348 0.705,0.211l5.996,-3.229l0,4.024l-4.932,2.713c-0.252,0.139 -0.345,0.455 -0.206,0.707c0.139,0.252 0.456,0.344 0.706,0.205l4.432,-2.437l0,6.923c0,0.288 0.233,0.521 0.52,0.521c0.288,0 0.521,-0.233 0.521,-0.521l0,-6.923l4.431,2.437c0.251,0.139 0.568,0.047 0.706,-0.205c0.139,-0.252 0.047,-0.568 -0.205,-0.706l-4.933,-2.713l0,-4.024l5.997,3.228c0.252,0.137 0.568,0.042 0.705,-0.211c0.136,-0.253 0.041,-0.569 -0.212,-0.704l-6.49,-3.495l0,-3.986l5.461,3.186c0.247,0.144 0.566,0.06 0.712,-0.188c0.144,-0.248 0.06,-0.566 -0.188,-0.711l-5.984,-3.491l0,-3.736c5.104,1.18 7.803,5.074 7.803,11.318c0,5.682 -4.264,10.626 -8.351,13.436c-5.277,-2.987 -8.296,-7.868 -8.296,-13.436c0,-5.615 2.22,-9.392 6.42,-10.92c0.27,-0.099 0.41,-0.397 0.311,-0.667c-0.098,-0.27 -0.398,-0.411 -0.667,-0.311c-4.648,1.692 -7.105,5.806 -7.105,11.898c0,6.057 3.322,11.343 9.116,14.503Z" style="fill:#b2b2b2;"/><path d="M27.595,179.937c0.17,0.092 0.377,0.083 0.538,-0.024c4.387,-2.925 9.075,-8.265 9.075,-14.479c0,-6.789 -3.141,-11.162 -8.844,-12.382l0,-3.746c0,-0.287 -0.232,-0.52 -0.52,-0.52c-0.288,0 -0.52,0.233 -0.52,0.52l0,8.546l-5.985,3.49c-0.248,0.146 -0.332,0.464 -0.187,0.712c0.144,0.248 0.463,0.332 0.711,0.187l5.461,-3.185l0,3.986l-6.49,3.494c-0.252,0.136 -0.348,0.452 -0.211,0.705c0.136,0.253 0.452,0.348 0.705,0.211l5.996,-3.229l0,4.024l-4.933,2.713c-0.252,0.139 -0.344,0.455 -0.205,0.707c0.138,0.252 0.455,0.344 0.706,0.205l4.432,-2.437l0,6.923c0,0.288 0.232,0.521 0.52,0.521c0.288,0 0.52,-0.233 0.52,-0.521l0,-6.923l4.432,2.437c0.251,0.139 0.567,0.047 0.706,-0.205c0.139,-0.252 0.047,-0.568 -0.206,-0.706l-4.932,-2.713l0,-4.024l5.996,3.228c0.253,0.137 0.569,0.042 0.705,-0.211c0.136,-0.253 0.041,-0.569 -0.212,-0.704l-6.489,-3.495l0,-3.986l5.46,3.186c0.248,0.144 0.567,0.06 0.712,-0.188c0.145,-0.248 0.061,-0.566 -0.187,-0.711l-5.985,-3.491l0,-3.736c5.104,1.18 7.804,5.074 7.804,11.318c0,5.682 -4.265,10.626 -8.351,13.436c-5.277,-2.987 -8.297,-7.868 -8.297,-13.436c0,-5.615 2.22,-9.392 6.421,-10.92c0.27,-0.099 0.409,-0.397 0.311,-0.667c-0.098,-0.27 -0.398,-0.411 -0.667,-0.311c-4.648,1.692 -7.105,5.806 -7.105,11.898c0,6.057 3.322,11.343 9.115,14.503Z" style="fill:#b2b2b2;"/></g></g></svg>