<?xml version="1.0" encoding="UTF-8" standalone="no"?><!DOCTYPE svg PUBLIC "-//W3C//DTD SVG 1.1//EN" "http://www.w3.org/Graphics/SVG/1.1/DTD/svg11.dtd"><svg width="100%" height="100%" viewBox="0 0 260 216" version="1.1" xmlns="http://www.w3.org/2000/svg" xmlns:xlink="http://www.w3.org/1999/xlink" xml:space="preserve" style="fill-rule:evenodd;clip-rule:evenodd;stroke-linejoin:round;stroke-miterlimit:1.41421;"><g id="Layer_3"><g><g><path d="M43,16.3l-26.7,26.7c-0.2,0.2 -0.5,0.2 -0.8,0l-15.3,-15.3c-0.2,-0.2 -0.2,-0.5 0,-0.8l26.7,-26.7c0.2,-0.2 0.5,-0.2 0.8,0l15.3,15.3c0.3,0.2 0.3,0.6 0,0.8Zm-27.1,25.6l26,-26l-14.6,-14.6l-26,26l14.6,14.6Z" style="fill:#b2b2b2;fill-rule:nonzero;"/><path d="M30.8,4.1c-1.9,1.9 -5.1,1.9 -7.1,0c-0.2,-0.2 -0.2,-0.5 0,-0.8c0.2,-0.2 0.5,-0.2 0.8,0c1.5,1.5 4,1.5 5.6,0c0.2,-0.2 0.5,-0.2 0.8,0c0.1,0.2 0.1,0.6 -0.1,0.8Z" style="fill:#b2b2b2;fill-rule:nonzero;"/><path d="M39.9,19.4c-0.2,0.2 -0.5,0.2 -0.8,0c-1.9,-1.9 -1.9,-5.1 0,-7.1c0.2,-0.2 0.5,-0.2 0.8,0c0.3,0.2 0.2,0.5 0,0.8c-1.5,1.5 -1.5,4 0,5.6c0.2,0.2 0.2,0.5 0,0.7Z" style="fill:#b2b2b2;fill-rule:nonzero;"/><path d="M4.1,30.8c-0.2,0.2 -0.5,0.2 -0.8,0c-0.2,-0.2 -0.2,-0.5 0,-0.8c1.5,-1.5 1.5,-4 0,-5.6c-0.2,-0.2 -0.2,-0.5 0,-0.8c0.2,-0.2 0.5,-0.2 0.8,0c1.9,2.1 1.9,5.3 0,7.2Z" style="fill:#b2b2b2;fill-rule:nonzero;"/><path d="M19.4,39.9c-0.2,0.2 -0.5,0.2 -0.8,0c-1.5,-1.5 -4,-1.5 -5.6,0c-0.2,0.2 -0.5,0.2 -0.8,0c-0.2,-0.2 -0.2,-0.5 0,-0.8c1.9,-1.9 5.1,-1.9 7.1,0c0.4,0.2 0.4,0.6 0.1,0.8Z" style="fill:#b2b2b2;fill-rule:nonzero;"/></g><path d="M26.2,19.5c-0.4,0.1 -0.6,0.4 -0.4,0.8c0.6,1.5 0.3,3.1 -0.7,4.1c-1,1 -2.4,1.3 -3.8,0.9l2.1,-2.1c0.3,-0.3 0.3,-0.6 0,-0.9c-0.3,-0.3 -0.6,-0.3 -0.9,0l-2.5,2.5c-0.3,-0.2 -0.6,-0.4 -0.9,-0.7c-0.2,-0.2 -0.5,-0.5 -0.6,-0.8l2.4,-2.4c0.3,-0.3 0.3,-0.6 0,-0.9c-0.3,-0.3 -0.6,-0.3 -0.9,0l-2.1,2.1c-0.4,-1.4 -0.2,-2.9 0.9,-3.9c1,-1 2.6,-1.3 4.1,-0.7c0.4,0 0.6,-0.1 0.8,-0.4c0,-0.4 -0.1,-0.6 -0.4,-0.8c-2,-0.8 -4.1,-0.4 -5.4,1c-1.6,1.6 -1.8,3.9 -0.9,5.9l-1,1c-0.3,0.3 -0.3,0.6 0,0.9c0.3,0.3 0.6,0.3 0.9,0l0.8,-0.8c0.2,0.2 0.4,0.5 0.6,0.7c0.3,0.3 0.6,0.6 1,0.8l-0.8,0.8c-0.3,0.3 -0.3,0.6 0,0.9c0.3,0.3 0.6,0.3 0.9,0l1.1,-1.1c1.9,0.7 4.1,0.4 5.5,-1c1.3,-1.3 1.8,-3.4 1.2,-5.3c-0.3,-0.6 -0.7,-0.7 -1,-0.6Z" style="fill:#b2b2b2;fill-rule:nonzero;"/></g><g><g><path d="M156.5,64.8l-26.7,-26.8c-0.2,-0.2 -0.2,-0.5 0,-0.8l15.4,-15.4c0.2,-0.2 0.5,-0.2 0.8,0l26.8,26.8c0.2,0.2 0.2,0.5 0,0.8l-15.4,15.4c-0.3,0.2 -0.7,0.2 -0.9,0Zm-25.6,-27.2l26,26l14.6,-14.6l-26,-26l-14.6,14.6Z" style="fill:#b2b2b2;fill-rule:nonzero;"/><path d="M168.7,52.5c-1.9,-1.9 -1.9,-5.1 0,-7.1c0.2,-0.2 0.5,-0.2 0.8,0c0.3,0.2 0.2,0.5 0,0.8c-1.5,1.5 -1.5,4 0,5.6c0.2,0.2 0.2,0.5 0,0.8c-0.2,0.3 -0.6,0.1 -0.8,-0.1Z" style="fill:#b2b2b2;fill-rule:nonzero;"/><path d="M153.4,61.6c-0.2,-0.2 -0.2,-0.5 0,-0.8c1.9,-1.9 5.1,-1.9 7.1,0c0.2,0.2 0.2,0.5 0,0.8c-0.2,0.2 -0.5,0.2 -0.8,0c-1.5,-1.5 -4,-1.5 -5.6,0c-0.2,0.2 -0.5,0.2 -0.7,0Z" style="fill:#b2b2b2;fill-rule:nonzero;"/><path d="M142,25.8c-0.2,-0.2 -0.2,-0.5 0,-0.8c0.2,-0.2 0.5,-0.2 0.8,0c1.5,1.5 4,1.5 5.6,0c0.2,-0.2 0.5,-0.2 0.8,0c0.3,0.2 0.2,0.5 0,0.8c-2.1,1.9 -5.3,1.9 -7.2,0Z" style="fill:#b2b2b2;fill-rule:nonzero;"/><path d="M132.9,41.2c-0.2,-0.2 -0.2,-0.5 0,-0.8c1.5,-1.5 1.5,-4 0,-5.6c-0.2,-0.2 -0.2,-0.5 0,-0.8c0.2,-0.3 0.5,-0.2 0.8,0c1.9,1.9 1.9,5.1 0,7.1c-0.2,0.3 -0.6,0.3 -0.8,0.1Z" style="fill:#b2b2b2;fill-rule:nonzero;"/></g><path d="M153.3,47.9c-0.1,-0.4 -0.4,-0.6 -0.8,-0.4c-1.5,0.6 -3.1,0.3 -4.1,-0.7c-1,-1 -1.3,-2.4 -0.9,-3.8l2.1,2.1c0.3,0.3 0.6,0.3 0.9,0c0.3,-0.3 0.3,-0.6 0,-0.9l-2.4,-2.4c0.2,-0.3 0.4,-0.6 0.7,-0.9c0.2,-0.2 0.5,-0.5 0.8,-0.6l2.4,2.4c0.3,0.3 0.6,0.3 0.9,0c0.3,-0.3 0.3,-0.6 0,-0.9l-2.1,-2.1c1.4,-0.4 2.9,-0.2 3.9,0.9c1,1 1.3,2.6 0.7,4.1c0,0.4 0.1,0.6 0.4,0.8c0.4,0 0.6,-0.1 0.8,-0.4c0.8,-2 0.4,-4.1 -1,-5.4c-1.6,-1.6 -3.9,-1.8 -5.9,-0.9l-1,-1c-0.3,-0.3 -0.6,-0.3 -0.9,0c-0.3,0.3 -0.3,0.6 0,0.9l0.8,0.8c-0.2,0.2 -0.5,0.4 -0.7,0.6c-0.3,0.3 -0.6,0.6 -0.8,1l-0.8,-0.8c-0.3,-0.3 -0.6,-0.3 -0.9,0c-0.3,0.3 -0.3,0.6 0,0.9l1.1,1.1c-0.7,1.9 -0.4,4.1 1,5.5c1.3,1.3 3.4,1.8 5.3,1.2c0.5,-0.4 0.6,-0.8 0.5,-1.1Z" style="fill:#b2b2b2;fill-rule:nonzero;"/></g><g><g><path d="M215.8,16.3l-26.7,26.7c-0.2,0.2 -0.5,0.2 -0.8,0l-15.3,-15.3c-0.2,-0.2 -0.2,-0.5 0,-0.8l26.8,-26.8c0.2,-0.2 0.5,-0.2 0.8,0l15.4,15.4c0.1,0.2 0.1,0.6 -0.2,0.8Zm-27.1,25.6l26,-26l-14.6,-14.6l-26,26l14.6,14.6Z" style="fill:#b2b2b2;fill-rule:nonzero;"/><path d="M203.6,4.1c-1.9,1.9 -5.1,1.9 -7.1,0c-0.2,-0.2 -0.2,-0.5 0,-0.8c0.2,-0.2 0.5,-0.2 0.8,0c1.5,1.5 4,1.5 5.6,0c0.2,-0.2 0.5,-0.2 0.8,0c0.1,0.2 0.1,0.6 -0.1,0.8Z" style="fill:#b2b2b2;fill-rule:nonzero;"/><path d="M212.7,19.4c-0.2,0.2 -0.5,0.2 -0.8,0c-1.9,-1.9 -1.9,-5.1 0,-7.1c0.2,-0.2 0.5,-0.2 0.8,0c0.3,0.2 0.2,0.5 0,0.8c-1.5,1.5 -1.5,4 0,5.6c0.2,0.2 0.2,0.5 0,0.7Z" style="fill:#b2b2b2;fill-rule:nonzero;"/><path d="M176.9,30.8c-0.2,0.2 -0.5,0.2 -0.8,0c-0.3,-0.2 -0.2,-0.5 0,-0.8c1.5,-1.5 1.5,-4 0,-5.6c-0.2,-0.2 -0.2,-0.5 0,-0.8c0.2,-0.3 0.5,-0.2 0.8,0c1.9,2.1 1.9,5.3 0,7.2Z" style="fill:#b2b2b2;fill-rule:nonzero;"/><path d="M192.2,39.9c-0.2,0.2 -0.5,0.2 -0.8,0c-1.5,-1.5 -4,-1.5 -5.6,0c-0.2,0.2 -0.5,0.2 -0.8,0c-0.2,-0.2 -0.2,-0.5 0,-0.8c1.9,-1.9 5.1,-1.9 7.1,0c0.4,0.2 0.4,0.6 0.1,0.8Z" style="fill:#b2b2b2;fill-rule:nonzero;"/></g><path d="M199,19.5c-0.4,0.1 -0.6,0.4 -0.4,0.8c0.6,1.5 0.3,3.1 -0.7,4.1c-1,1 -2.4,1.3 -3.8,0.9l2.1,-2.1c0.3,-0.3 0.3,-0.6 0,-0.9c-0.3,-0.3 -0.6,-0.3 -0.9,0l-2.4,2.4c-0.3,-0.2 -0.6,-0.4 -0.9,-0.7c-0.2,-0.2 -0.5,-0.5 -0.6,-0.8l2.4,-2.4c0.3,-0.3 0.3,-0.6 0,-0.9c-0.3,-0.3 -0.6,-0.3 -0.9,0l-2.1,2.1c-0.4,-1.4 -0.2,-2.9 0.9,-3.9c1,-1 2.6,-1.3 4.1,-0.7c0.4,0 0.6,-0.1 0.8,-0.4c0,-0.4 -0.1,-0.6 -0.4,-0.8c-2,-0.8 -4.1,-0.4 -5.4,1c-1.6,1.6 -1.8,3.9 -0.9,5.9l-1,1c-0.3,0.3 -0.3,0.6 0,0.9c0.3,0.3 0.6,0.3 0.9,0l0.8,-0.8c0.2,0.2 0.4,0.5 0.6,0.7c0.3,0.3 0.6,0.6 1,0.8l-0.8,0.8c-0.3,0.3 -0.3,0.6 0,0.9c0.3,0.3 0.6,0.3 0.9,0l1.1,-1.1c1.9,0.7 4.1,0.4 5.5,-1c1.3,-1.3 1.8,-3.4 1.2,-5.3c-0.4,-0.5 -0.8,-0.6 -1.1,-0.5Z" style="fill:#b2b2b2;fill-rule:nonzero;"/></g><g><g><path d="M70.1,64.6l-26.7,-26.7c-0.2,-0.2 -0.2,-0.5 0,-0.8l15.4,-15.4c0.2,-0.2 0.5,-0.2 0.8,0l26.8,26.8c0.2,0.2 0.2,0.5 0,0.8l-15.5,15.3c-0.2,0.3 -0.6,0.3 -0.8,0Zm-25.6,-27.1l26,26l14.6,-14.6l-26,-26l-14.6,14.6Z" style="fill:#b2b2b2;fill-rule:nonzero;"/><path d="M82.3,52.4c-1.9,-1.9 -1.9,-5.1 0,-7.1c0.2,-0.2 0.5,-0.2 0.8,0c0.2,0.2 0.2,0.5 0,0.8c-1.5,1.5 -1.5,4 0,5.6c0.2,0.2 0.2,0.5 0,0.8c-0.2,0.1 -0.6,0.1 -0.8,-0.1Z" style="fill:#b2b2b2;fill-rule:nonzero;"/><path d="M67,61.5c-0.2,-0.2 -0.2,-0.5 0,-0.8c1.9,-1.9 5.1,-1.9 7.1,0c0.2,0.2 0.2,0.5 0,0.8c-0.2,0.3 -0.5,0.2 -0.8,0c-1.5,-1.5 -4,-1.5 -5.6,0c-0.2,0.2 -0.5,0.2 -0.7,0Z" style="fill:#b2b2b2;fill-rule:nonzero;"/><path d="M55.6,25.7c-0.2,-0.2 -0.2,-0.5 0,-0.8c0.2,-0.2 0.5,-0.2 0.8,0c1.5,1.5 4,1.5 5.6,0c0.2,-0.2 0.5,-0.2 0.8,0c0.2,0.2 0.2,0.5 0,0.8c-2.1,1.9 -5.3,1.9 -7.2,0Z" style="fill:#b2b2b2;fill-rule:nonzero;"/><path d="M46.5,41c-0.2,-0.2 -0.2,-0.5 0,-0.8c1.5,-1.5 1.5,-4 0,-5.6c-0.2,-0.2 -0.2,-0.5 0,-0.8c0.2,-0.3 0.5,-0.2 0.8,0c1.9,1.9 1.9,5.1 0,7.1c-0.2,0.4 -0.6,0.4 -0.8,0.1Z" style="fill:#b2b2b2;fill-rule:nonzero;"/></g><path d="M66.9,47.8c-0.1,-0.4 -0.4,-0.6 -0.8,-0.4c-1.5,0.6 -3.1,0.3 -4.1,-0.7c-1,-1 -1.3,-2.4 -0.9,-3.8l2.1,2.1c0.3,0.3 0.6,0.3 0.9,0c0.3,-0.3 0.3,-0.6 0,-0.9l-2.4,-2.4c0.2,-0.3 0.4,-0.6 0.7,-0.9c0.2,-0.2 0.5,-0.5 0.8,-0.6l2.4,2.4c0.3,0.3 0.6,0.3 0.9,0c0.3,-0.3 0.3,-0.6 0,-0.9l-2.1,-2.1c1.4,-0.4 2.9,-0.2 3.9,0.9c1,1 1.3,2.6 0.7,4.1c0,0.4 0.1,0.6 0.4,0.8c0.4,0 0.6,-0.1 0.8,-0.4c0.8,-2 0.4,-4.1 -1,-5.4c-1.6,-1.6 -3.9,-1.8 -5.9,-0.9l-1,-1c-0.3,-0.3 -0.6,-0.3 -0.9,0c-0.3,0.3 -0.3,0.6 0,0.9l0.8,0.8c-0.2,0.2 -0.5,0.4 -0.7,0.6c-0.3,0.3 -0.6,0.6 -0.8,1l-0.8,-0.8c-0.3,-0.3 -0.6,-0.3 -0.9,0c-0.3,0.3 -0.3,0.6 0,0.9l1.1,1.1c-0.7,1.9 -0.4,4.1 1,5.5c1.3,1.3 3.4,1.8 5.3,1.2c0.5,-0.4 0.6,-0.8 0.5,-1.1Z" style="fill:#b2b2b2;fill-rule:nonzero;"/></g><g><g><path d="M129.4,16.3l-26.7,26.7c-0.2,0.2 -0.5,0.2 -0.8,0l-15.3,-15.3c-0.2,-0.2 -0.2,-0.5 0,-0.8l26.8,-26.8c0.2,-0.2 0.5,-0.2 0.8,0l15.4,15.4c0.1,0.2 0.1,0.6 -0.2,0.8Zm-27.1,25.6l26,-26l-14.6,-14.6l-26,26l14.6,14.6Z" style="fill:#b2b2b2;fill-rule:nonzero;"/><path d="M117.2,4.1c-1.9,1.9 -5.1,1.9 -7.1,0c-0.2,-0.2 -0.2,-0.5 0,-0.8c0.2,-0.2 0.5,-0.2 0.8,0c1.5,1.5 4,1.5 5.6,0c0.2,-0.2 0.5,-0.2 0.8,0c0.1,0.2 0.1,0.6 -0.1,0.8Z" style="fill:#b2b2b2;fill-rule:nonzero;"/><path d="M126.3,19.4c-0.2,0.2 -0.5,0.2 -0.8,0c-1.9,-1.9 -1.9,-5.1 0,-7.1c0.2,-0.2 0.5,-0.2 0.8,0c0.2,0.2 0.2,0.5 0,0.8c-1.5,1.5 -1.5,4 0,5.6c0.2,0.2 0.2,0.5 0,0.7Z" style="fill:#b2b2b2;fill-rule:nonzero;"/><path d="M90.5,30.8c-0.2,0.2 -0.5,0.2 -0.8,0c-0.2,-0.2 -0.2,-0.5 0,-0.8c1.5,-1.5 1.5,-4 0,-5.6c-0.2,-0.2 -0.2,-0.5 0,-0.8c0.2,-0.2 0.5,-0.2 0.8,0c1.9,2.1 1.9,5.3 0,7.2Z" style="fill:#b2b2b2;fill-rule:nonzero;"/><path d="M105.8,39.9c-0.2,0.2 -0.5,0.2 -0.8,0c-1.5,-1.5 -4,-1.5 -5.6,0c-0.2,0.2 -0.5,0.2 -0.8,0c-0.2,-0.2 -0.2,-0.5 0,-0.8c1.9,-1.9 5.1,-1.9 7.1,0c0.4,0.2 0.4,0.6 0.1,0.8Z" style="fill:#b2b2b2;fill-rule:nonzero;"/></g><path d="M112.6,19.5c-0.4,0.1 -0.6,0.4 -0.4,0.8c0.6,1.5 0.3,3.1 -0.7,4.1c-1,1 -2.4,1.3 -3.8,0.9l2.1,-2.1c0.3,-0.3 0.3,-0.6 0,-0.9c-0.3,-0.3 -0.6,-0.3 -0.9,0l-2.4,2.4c-0.3,-0.2 -0.6,-0.4 -0.9,-0.7c-0.2,-0.2 -0.5,-0.5 -0.6,-0.8l2.4,-2.4c0.3,-0.3 0.3,-0.6 0,-0.9c-0.3,-0.3 -0.6,-0.3 -0.9,0l-2.1,2.1c-0.4,-1.4 -0.2,-2.9 0.9,-3.9c1,-1 2.6,-1.3 4.1,-0.7c0.4,0 0.6,-0.1 0.8,-0.4c0,-0.4 -0.1,-0.6 -0.4,-0.8c-2,-0.8 -4.1,-0.4 -5.4,1c-1.6,1.6 -1.8,3.9 -0.9,5.9l-1,1c-0.3,0.3 -0.3,0.6 0,0.9c0.3,0.3 0.6,0.3 0.9,0l0.8,-0.8c0.2,0.2 0.4,0.5 0.6,0.7c0.3,0.3 0.6,0.6 1,0.8l-0.8,0.8c-0.3,0.3 -0.3,0.6 0,0.9c0.3,0.3 0.6,0.3 0.9,0l1.1,-1.1c1.9,0.7 4.1,0.4 5.5,-1c1.3,-1.3 1.8,-3.4 1.2,-5.3c-0.4,-0.5 -0.8,-0.6 -1.1,-0.5Z" style="fill:#b2b2b2;fill-rule:nonzero;"/></g><g><g><path d="M43,66.7l-26.7,26.7c-0.2,0.2 -0.5,0.2 -0.8,0l-15.3,-15.4c-0.2,-0.2 -0.2,-0.5 0,-0.8l26.8,-26.8c0.2,-0.2 0.5,-0.2 0.8,0l15.2,15.5c0.3,0.2 0.3,0.5 0,0.8Zm-27.1,25.6l26,-26l-14.6,-14.7l-26,26l14.6,14.7Z" style="fill:#b2b2b2;fill-rule:nonzero;"/><path d="M30.8,54.4c-1.9,1.9 -5.1,1.9 -7.1,0c-0.2,-0.2 -0.2,-0.5 0,-0.8c0.2,-0.2 0.5,-0.2 0.8,0c1.5,1.5 4,1.5 5.6,0c0.2,-0.2 0.5,-0.2 0.8,0c0.3,0.2 0.1,0.6 -0.1,0.8Z" style="fill:#b2b2b2;fill-rule:nonzero;"/><path d="M39.9,69.8c-0.2,0.2 -0.5,0.2 -0.8,0c-1.9,-1.9 -1.9,-5.1 0,-7.1c0.2,-0.2 0.5,-0.2 0.8,0c0.2,0.2 0.2,0.5 0,0.8c-1.5,1.5 -1.5,4 0,5.6c0.2,0.2 0.2,0.5 0,0.7Z" style="fill:#b2b2b2;fill-rule:nonzero;"/><path d="M4.1,81.2c-0.2,0.2 -0.5,0.2 -0.8,0c-0.2,-0.2 -0.2,-0.5 0,-0.8c1.5,-1.5 1.5,-4 0,-5.6c-0.2,-0.2 -0.2,-0.5 0,-0.8c0.2,-0.2 0.5,-0.2 0.8,0c1.9,2.1 1.9,5.2 0,7.2Z" style="fill:#b2b2b2;fill-rule:nonzero;"/><path d="M19.4,90.3c-0.2,0.2 -0.5,0.2 -0.8,0c-1.5,-1.5 -4,-1.5 -5.6,0c-0.2,0.2 -0.5,0.2 -0.8,0c-0.2,-0.2 -0.2,-0.5 0,-0.8c1.9,-1.9 5.1,-1.9 7.1,0c0.4,0.2 0.4,0.5 0.1,0.8Z" style="fill:#b2b2b2;fill-rule:nonzero;"/></g><path d="M26.2,69.9c-0.4,0.1 -0.6,0.4 -0.4,0.8c0.6,1.5 0.3,3.1 -0.7,4.1c-1,1 -2.4,1.3 -3.8,0.9l2.1,-2.1c0.3,-0.3 0.3,-0.6 0,-0.9c-0.3,-0.3 -0.6,-0.3 -0.9,0l-2.5,2.5c-0.3,-0.2 -0.6,-0.4 -0.9,-0.7c-0.2,-0.2 -0.5,-0.5 -0.6,-0.8l2.4,-2.4c0.3,-0.3 0.3,-0.6 0,-0.9c-0.3,-0.3 -0.6,-0.3 -0.9,0l-2.1,2.1c-0.4,-1.4 -0.2,-2.9 0.9,-3.9c1,-1 2.6,-1.3 4.1,-0.7c0.4,0 0.6,-0.1 0.8,-0.4c0,-0.4 -0.1,-0.6 -0.4,-0.8c-2,-0.8 -4.1,-0.4 -5.4,1c-1.6,1.6 -1.8,3.9 -0.9,5.9l-1,1c-0.3,0.3 -0.3,0.6 0,0.9c0.3,0.3 0.6,0.3 0.9,0l0.8,-0.8c0.2,0.2 0.4,0.5 0.6,0.7c0.3,0.3 0.6,0.6 1,0.8l-0.8,0.8c-0.3,0.3 -0.3,0.6 0,0.9c0.3,0.3 0.6,0.3 0.9,0l1.1,-1.1c1.9,0.7 4.1,0.4 5.5,-1c1.3,-1.3 1.8,-3.4 1.2,-5.3c-0.3,-0.6 -0.7,-0.8 -1,-0.6Z" style="fill:#b2b2b2;fill-rule:nonzero;"/></g><g><g><path d="M156.5,115.1l-26.8,-26.8c-0.2,-0.2 -0.2,-0.5 0,-0.8l15.4,-15.4c0.2,-0.2 0.5,-0.2 0.8,0l26.7,26.9c0.2,0.2 0.2,0.5 0,0.8l-15.4,15.4c-0.1,0.1 -0.5,0.1 -0.7,-0.1Zm-25.6,-27.1l26,26l14.6,-14.6l-26,-26l-14.6,14.6Z" style="fill:#b2b2b2;fill-rule:nonzero;"/><path d="M168.7,102.9c-1.9,-1.9 -1.9,-5.1 0,-7.1c0.2,-0.2 0.5,-0.2 0.8,0c0.2,0.2 0.2,0.5 0,0.8c-1.5,1.5 -1.5,4 0,5.6c0.2,0.2 0.2,0.5 0,0.8c-0.2,0.1 -0.6,0.1 -0.8,-0.1Z" style="fill:#b2b2b2;fill-rule:nonzero;"/><path d="M153.4,112c-0.2,-0.2 -0.2,-0.5 0,-0.8c1.9,-1.9 5.1,-1.9 7.1,0c0.2,0.2 0.2,0.5 0,0.8c-0.2,0.2 -0.5,0.2 -0.8,0c-1.5,-1.5 -4,-1.5 -5.6,0c-0.2,0.2 -0.5,0.2 -0.7,0Z" style="fill:#b2b2b2;fill-rule:nonzero;"/><path d="M142,76.1c-0.2,-0.2 -0.2,-0.5 0,-0.8c0.2,-0.2 0.5,-0.2 0.8,0c1.5,1.5 4,1.5 5.6,0c0.2,-0.2 0.5,-0.2 0.8,0c0.2,0.2 0.2,0.5 0,0.8c-2.1,2 -5.3,2 -7.2,0Z" style="fill:#b2b2b2;fill-rule:nonzero;"/><path d="M132.9,91.5c-0.2,-0.2 -0.2,-0.5 0,-0.8c1.5,-1.5 1.5,-4 0,-5.6c-0.2,-0.2 -0.2,-0.5 0,-0.8c0.2,-0.2 0.5,-0.2 0.8,0c1.9,1.9 1.9,5.1 0,7.1c-0.2,0.3 -0.6,0.3 -0.8,0.1Z" style="fill:#b2b2b2;fill-rule:nonzero;"/></g><path d="M153.3,98.2c-0.1,-0.4 -0.4,-0.6 -0.8,-0.4c-1.5,0.6 -3.1,0.3 -4.1,-0.7c-1,-1 -1.3,-2.4 -0.9,-3.8l2.1,2.1c0.3,0.3 0.6,0.3 0.9,0c0.3,-0.3 0.3,-0.6 0,-0.9l-2.4,-2.4c0.2,-0.3 0.4,-0.6 0.7,-0.9c0.2,-0.2 0.5,-0.5 0.8,-0.6l2.4,2.4c0.3,0.3 0.6,0.3 0.9,0c0.3,-0.3 0.3,-0.6 0,-0.9l-2.1,-2.1c1.4,-0.4 2.9,-0.2 3.9,0.9c1,1 1.3,2.6 0.7,4.1c0,0.4 0.1,0.6 0.4,0.8c0.4,0 0.6,-0.1 0.8,-0.4c0.8,-2 0.4,-4.1 -1,-5.4c-1.6,-1.6 -3.9,-1.8 -5.9,-0.9l-1,-1c-0.3,-0.3 -0.6,-0.3 -0.9,0c-0.3,0.3 -0.3,0.6 0,0.9l0.8,0.8c-0.2,0.2 -0.5,0.4 -0.7,0.6c-0.3,0.3 -0.6,0.6 -0.8,1l-0.8,-0.8c-0.3,-0.3 -0.6,-0.3 -0.9,0c-0.3,0.3 -0.3,0.6 0,0.9l1.1,1.1c-0.7,1.9 -0.4,4.1 1,5.5c1.3,1.3 3.4,1.8 5.3,1.2c0.5,-0.3 0.6,-0.7 0.5,-1.1Z" style="fill:#b2b2b2;fill-rule:nonzero;"/></g><g><g><path d="M215.8,66.7l-26.8,26.8c-0.2,0.2 -0.5,0.2 -0.8,0l-15.2,-15.5c-0.2,-0.2 -0.2,-0.5 0,-0.8l26.8,-26.8c0.2,-0.2 0.5,-0.2 0.8,0l15.4,15.4c0.1,0.3 0.1,0.6 -0.2,0.9Zm-27.1,25.6l26,-26l-14.6,-14.6l-26,26l14.6,14.6Z" style="fill:#b2b2b2;fill-rule:nonzero;"/><path d="M203.6,54.4c-1.9,1.9 -5.1,1.9 -7.1,0c-0.2,-0.2 -0.2,-0.5 0,-0.8c0.2,-0.2 0.5,-0.2 0.8,0c1.5,1.5 4,1.5 5.6,0c0.2,-0.2 0.5,-0.2 0.8,0c0.1,0.3 0.1,0.6 -0.1,0.8Z" style="fill:#b2b2b2;fill-rule:nonzero;"/><path d="M212.7,69.8c-0.2,0.2 -0.5,0.2 -0.8,0c-1.9,-1.9 -1.9,-5.1 0,-7.1c0.2,-0.2 0.5,-0.2 0.8,0c0.2,0.2 0.2,0.5 0,0.8c-1.5,1.5 -1.5,4 0,5.6c0.2,0.2 0.2,0.5 0,0.7Z" style="fill:#b2b2b2;fill-rule:nonzero;"/><path d="M176.9,81.2c-0.2,0.2 -0.5,0.2 -0.8,0c-0.2,-0.2 -0.2,-0.5 0,-0.8c1.5,-1.5 1.5,-4 0,-5.6c-0.2,-0.2 -0.2,-0.5 0,-0.8c0.2,-0.3 0.5,-0.2 0.8,0c1.9,2.1 1.9,5.2 0,7.2Z" style="fill:#b2b2b2;fill-rule:nonzero;"/><path d="M192.2,90.3c-0.2,0.2 -0.5,0.2 -0.8,0c-1.5,-1.5 -4,-1.5 -5.6,0c-0.2,0.2 -0.5,0.2 -0.8,0c-0.2,-0.2 -0.2,-0.5 0,-0.8c1.9,-1.9 5.1,-1.9 7.1,0c0.4,0.2 0.4,0.5 0.1,0.8Z" style="fill:#b2b2b2;fill-rule:nonzero;"/></g><path d="M199,69.9c-0.4,0.1 -0.6,0.4 -0.4,0.8c0.6,1.5 0.3,3.1 -0.7,4.1c-1,1 -2.4,1.3 -3.8,0.9l2.1,-2.1c0.3,-0.3 0.3,-0.6 0,-0.9c-0.3,-0.3 -0.6,-0.3 -0.9,0l-2.4,2.4c-0.3,-0.2 -0.6,-0.4 -0.9,-0.7c-0.2,-0.2 -0.5,-0.5 -0.6,-0.8l2.4,-2.4c0.3,-0.3 0.3,-0.6 0,-0.9c-0.3,-0.3 -0.6,-0.3 -0.9,0l-2.1,2.1c-0.4,-1.4 -0.2,-2.9 0.9,-3.9c1,-1 2.6,-1.3 4.1,-0.7c0.4,0 0.6,-0.1 0.8,-0.4c0,-0.4 -0.1,-0.6 -0.4,-0.8c-2,-0.8 -4.1,-0.4 -5.4,1c-1.6,1.6 -1.8,3.9 -0.9,5.9l-1,1c-0.3,0.3 -0.3,0.6 0,0.9c0.3,0.3 0.6,0.3 0.9,0l0.8,-0.8c0.2,0.2 0.4,0.5 0.6,0.7c0.3,0.3 0.6,0.6 1,0.8l-0.8,0.8c-0.3,0.3 -0.3,0.6 0,0.9c0.3,0.3 0.6,0.3 0.9,0l1.1,-1.1c1.9,0.7 4.1,0.4 5.5,-1c1.3,-1.3 1.8,-3.4 1.2,-5.3c-0.4,-0.5 -0.8,-0.7 -1.1,-0.5Z" style="fill:#b2b2b2;fill-rule:nonzero;"/></g><g><g><path d="M70.1,115l-26.7,-26.7c-0.2,-0.2 -0.2,-0.5 0,-0.8l15.4,-15.4c0.2,-0.2 0.5,-0.2 0.8,0l26.8,26.8c0.2,0.2 0.2,0.5 0,0.8l-15.5,15.3c-0.2,0.2 -0.6,0.2 -0.8,0Zm-25.6,-27.1l26,26l14.6,-14.6l-26,-26l-14.6,14.6Z" style="fill:#b2b2b2;fill-rule:nonzero;"/><path d="M82.3,102.8c-1.9,-1.9 -1.9,-5.1 0,-7.1c0.2,-0.2 0.5,-0.2 0.8,0c0.2,0.2 0.2,0.5 0,0.8c-1.5,1.5 -1.5,4 0,5.6c0.2,0.2 0.2,0.5 0,0.8c-0.2,0.1 -0.6,0.1 -0.8,-0.1Z" style="fill:#b2b2b2;fill-rule:nonzero;"/><path d="M67,111.8c-0.2,-0.2 -0.2,-0.5 0,-0.8c1.9,-1.9 5.1,-1.9 7.1,0c0.2,0.2 0.2,0.5 0,0.8c-0.2,0.2 -0.5,0.2 -0.8,0c-1.5,-1.5 -4,-1.5 -5.6,0c-0.2,0.3 -0.5,0.3 -0.7,0Z" style="fill:#b2b2b2;fill-rule:nonzero;"/><path d="M55.6,76c-0.2,-0.2 -0.2,-0.5 0,-0.8c0.2,-0.2 0.5,-0.2 0.8,0c1.5,1.5 4,1.5 5.6,0c0.2,-0.2 0.5,-0.2 0.8,0c0.2,0.2 0.2,0.5 0,0.8c-2.1,2 -5.3,2 -7.2,0Z" style="fill:#b2b2b2;fill-rule:nonzero;"/><path d="M46.5,91.4c-0.2,-0.2 -0.2,-0.5 0,-0.8c1.5,-1.5 1.5,-4 0,-5.6c-0.2,-0.2 -0.2,-0.5 0,-0.8c0.2,-0.2 0.5,-0.2 0.8,0c1.9,1.9 1.9,5.1 0,7.1c-0.2,0.3 -0.6,0.3 -0.8,0.1Z" style="fill:#b2b2b2;fill-rule:nonzero;"/></g><path d="M66.9,98.1c-0.1,-0.4 -0.4,-0.6 -0.8,-0.4c-1.6,0.6 -3.2,0.3 -4.1,-0.7c-1,-1 -1.3,-2.4 -0.9,-3.8l2.1,2.1c0.3,0.3 0.6,0.3 0.9,0c0.3,-0.3 0.3,-0.6 0,-0.9l-2.5,-2.4c0.2,-0.3 0.4,-0.6 0.7,-0.9c0.2,-0.2 0.5,-0.5 0.8,-0.6l2.4,2.4c0.3,0.3 0.6,0.3 0.9,0c0.3,-0.3 0.3,-0.6 0,-0.9l-2.1,-2.1c1.4,-0.4 2.9,-0.2 3.9,0.9c1,1 1.3,2.6 0.7,4.1c0,0.4 0.1,0.6 0.4,0.8c0.4,0 0.6,-0.1 0.8,-0.4c0.8,-2 0.4,-4.1 -1,-5.4c-1.6,-1.6 -3.9,-1.8 -5.9,-0.9l-1,-1c-0.3,-0.3 -0.6,-0.3 -0.9,0c-0.3,0.3 -0.3,0.6 0,0.9l0.8,0.8c-0.2,0.2 -0.5,0.4 -0.7,0.6c-0.3,0.3 -0.6,0.6 -0.8,1l-0.8,-0.8c-0.3,-0.3 -0.6,-0.3 -0.9,0c-0.3,0.3 -0.3,0.6 0,0.9l1.1,1.1c-0.7,1.9 -0.4,4.1 1,5.5c1.3,1.3 3.4,1.8 5.3,1.2c0.6,-0.4 0.7,-0.7 0.6,-1.1Z" style="fill:#b2b2b2;fill-rule:nonzero;"/></g><g><g><path d="M129.4,66.7l-26.8,26.8c-0.2,0.2 -0.5,0.2 -0.8,0l-15.2,-15.5c-0.2,-0.2 -0.2,-0.5 0,-0.8l26.8,-26.8c0.2,-0.2 0.5,-0.2 0.8,0l15.4,15.4c0.1,0.3 0.1,0.6 -0.2,0.9Zm-27.1,25.6l26,-26l-14.6,-14.6l-26,26l14.6,14.6Z" style="fill:#b2b2b2;fill-rule:nonzero;"/><path d="M117.2,54.4c-1.9,1.9 -5.1,1.9 -7.1,0c-0.2,-0.2 -0.2,-0.5 0,-0.8c0.2,-0.2 0.5,-0.2 0.8,0c1.5,1.5 4,1.5 5.6,0c0.2,-0.2 0.5,-0.2 0.8,0c0.1,0.3 0.1,0.6 -0.1,0.8Z" style="fill:#b2b2b2;fill-rule:nonzero;"/><path d="M126.3,69.8c-0.2,0.2 -0.5,0.2 -0.8,0c-1.9,-1.9 -1.9,-5.1 0,-7.1c0.2,-0.2 0.5,-0.2 0.8,0c0.2,0.2 0.2,0.5 0,0.8c-1.5,1.5 -1.5,4 0,5.6c0.2,0.2 0.2,0.5 0,0.7Z" style="fill:#b2b2b2;fill-rule:nonzero;"/><path d="M90.5,81.2c-0.2,0.2 -0.5,0.2 -0.8,0c-0.2,-0.2 -0.2,-0.5 0,-0.8c1.5,-1.5 1.5,-4 0,-5.6c-0.2,-0.2 -0.2,-0.5 0,-0.8c0.2,-0.2 0.5,-0.2 0.8,0c1.9,2.1 1.9,5.2 0,7.2Z" style="fill:#b2b2b2;fill-rule:nonzero;"/><path d="M105.8,90.3c-0.2,0.2 -0.5,0.2 -0.8,0c-1.5,-1.5 -4,-1.5 -5.6,0c-0.2,0.2 -0.5,0.2 -0.8,0c-0.2,-0.2 -0.2,-0.5 0,-0.8c1.9,-1.9 5.1,-1.9 7.1,0c0.4,0.2 0.4,0.5 0.1,0.8Z" style="fill:#b2b2b2;fill-rule:nonzero;"/></g><path d="M112.6,69.9c-0.4,0.1 -0.6,0.4 -0.4,0.8c0.6,1.5 0.3,3.1 -0.7,4.1c-1,1 -2.4,1.3 -3.8,0.9l2.1,-2.1c0.3,-0.3 0.3,-0.6 0,-0.9c-0.3,-0.3 -0.6,-0.3 -0.9,0l-2.4,2.4c-0.3,-0.2 -0.6,-0.4 -0.9,-0.7c-0.2,-0.2 -0.5,-0.5 -0.6,-0.8l2.4,-2.4c0.3,-0.3 0.3,-0.6 0,-0.9c-0.3,-0.3 -0.6,-0.3 -0.9,0l-2.1,2.1c-0.4,-1.4 -0.2,-2.9 0.9,-3.9c1,-1 2.6,-1.3 4.1,-0.7c0.4,0 0.6,-0.1 0.8,-0.4c0,-0.4 -0.1,-0.6 -0.4,-0.8c-2,-0.8 -4.1,-0.4 -5.4,1c-1.6,1.6 -1.8,3.9 -0.9,5.9l-1,1c-0.3,0.3 -0.3,0.6 0,0.9c0.3,0.3 0.6,0.3 0.9,0l0.8,-0.8c0.2,0.2 0.4,0.5 0.6,0.7c0.3,0.3 0.6,0.6 1,0.8l-0.8,0.8c-0.3,0.3 -0.3,0.6 0,0.9c0.3,0.3 0.6,0.3 0.9,0l1.1,-1.1c1.9,0.7 4.1,0.4 5.5,-1c1.3,-1.3 1.8,-3.4 1.2,-5.3c-0.4,-0.5 -0.8,-0.7 -1.1,-0.5Z" style="fill:#b2b2b2;fill-rule:nonzero;"/></g><g><g><path d="M43,117l-26.8,26.8c-0.2,0.2 -0.5,0.2 -0.8,0l-15.2,-15.4c-0.2,-0.2 -0.2,-0.5 0,-0.8l26.8,-26.8c0.2,-0.2 0.5,-0.2 0.8,0l15.2,15.5c0.3,0.2 0.3,0.5 0,0.7Zm-27.1,25.6l26,-26l-14.6,-14.6l-26,26l14.6,14.6Z" style="fill:#b2b2b2;fill-rule:nonzero;"/><path d="M30.8,104.8c-1.9,1.9 -5.1,1.9 -7.1,0c-0.2,-0.2 -0.2,-0.5 0,-0.8c0.2,-0.2 0.5,-0.2 0.8,0c1.5,1.5 4,1.5 5.6,0c0.2,-0.2 0.5,-0.2 0.8,0c0.1,0.2 0.1,0.6 -0.1,0.8Z" style="fill:#b2b2b2;fill-rule:nonzero;"/><path d="M39.9,120.2c-0.2,0.2 -0.5,0.2 -0.8,0c-1.9,-1.9 -1.9,-5.1 0,-7.1c0.2,-0.2 0.5,-0.2 0.8,0c0.2,0.2 0.2,0.5 0,0.8c-1.5,1.5 -1.5,4 0,5.6c0.2,0.1 0.2,0.5 0,0.7Z" style="fill:#b2b2b2;fill-rule:nonzero;"/><path d="M4.1,131.5c-0.2,0.2 -0.5,0.2 -0.8,0c-0.2,-0.2 -0.2,-0.5 0,-0.8c1.5,-1.5 1.5,-4 0,-5.6c-0.2,-0.2 -0.2,-0.5 0,-0.8c0.2,-0.2 0.5,-0.2 0.8,0c1.9,2.1 1.9,5.3 0,7.2Z" style="fill:#b2b2b2;fill-rule:nonzero;"/><path d="M19.4,140.6c-0.2,0.2 -0.5,0.2 -0.8,0c-1.5,-1.5 -4,-1.5 -5.6,0c-0.2,0.2 -0.5,0.2 -0.8,0c-0.2,-0.2 -0.2,-0.5 0,-0.8c1.9,-1.9 5.1,-1.9 7.1,0c0.4,0.3 0.4,0.6 0.1,0.8Z" style="fill:#b2b2b2;fill-rule:nonzero;"/></g><path d="M26.2,120.3c-0.4,0.1 -0.6,0.4 -0.4,0.8c0.6,1.5 0.3,3.1 -0.7,4.1c-1,1 -2.4,1.3 -3.8,0.9l2.1,-2.1c0.3,-0.3 0.3,-0.6 0,-0.9c-0.3,-0.3 -0.6,-0.3 -0.9,0l-2.4,2.4c-0.3,-0.2 -0.6,-0.4 -0.9,-0.7c-0.2,-0.2 -0.5,-0.5 -0.6,-0.8l2.4,-2.4c0.3,-0.3 0.3,-0.6 0,-0.9c-0.3,-0.3 -0.6,-0.3 -0.9,0l-2.1,2.1c-0.4,-1.4 -0.2,-2.9 0.9,-3.9c1,-1 2.6,-1.3 4.1,-0.7c0.4,0 0.6,-0.1 0.8,-0.4c0,-0.4 -0.1,-0.6 -0.4,-0.8c-2,-0.8 -4.1,-0.4 -5.4,1c-1.6,1.6 -1.8,3.9 -0.9,5.9l-1,1c-0.3,0.3 -0.3,0.6 0,0.9c0.3,0.3 0.6,0.3 0.9,0l0.8,-0.8c0.2,0.2 0.4,0.5 0.6,0.7c0.3,0.3 0.6,0.6 1,0.8l-0.8,0.8c-0.3,0.3 -0.3,0.6 0,0.9c0.3,0.3 0.6,0.3 0.9,0l1.1,-1.1c1.9,0.7 4.1,0.4 5.5,-1c1.3,-1.3 1.8,-3.4 1.2,-5.3c-0.4,-0.5 -0.8,-0.7 -1.1,-0.5Z" style="fill:#b2b2b2;fill-rule:nonzero;"/></g><g><g><path d="M156.5,165.4l-26.8,-26.8c-0.2,-0.2 -0.2,-0.5 0,-0.8l15.4,-15.4c0.2,-0.2 0.5,-0.2 0.8,0l26.8,26.8c0.2,0.2 0.2,0.5 0,0.8l-15.4,15.4c-0.2,0.2 -0.6,0.2 -0.8,0Zm-25.6,-27.2l26,26l14.6,-14.6l-26,-26l-14.6,14.6Z" style="fill:#b2b2b2;fill-rule:nonzero;"/><path d="M168.7,153.1c-1.9,-1.9 -1.9,-5.1 0,-7.1c0.2,-0.2 0.5,-0.2 0.8,0c0.2,0.2 0.2,0.5 0,0.8c-1.5,1.5 -1.5,4 0,5.6c0.2,0.2 0.2,0.5 0,0.8c-0.2,0.3 -0.6,0.1 -0.8,-0.1Z" style="fill:#b2b2b2;fill-rule:nonzero;"/><path d="M153.4,162.2c-0.2,-0.2 -0.2,-0.5 0,-0.8c1.9,-1.9 5.1,-1.9 7.1,0c0.2,0.2 0.2,0.5 0,0.8c-0.2,0.2 -0.5,0.2 -0.8,0c-1.5,-1.5 -4,-1.5 -5.6,0c-0.2,0.2 -0.5,0.2 -0.7,0Z" style="fill:#b2b2b2;fill-rule:nonzero;"/><path d="M142,126.4c-0.2,-0.2 -0.2,-0.5 0,-0.8c0.2,-0.2 0.5,-0.2 0.8,0c1.5,1.5 4,1.5 5.6,0c0.2,-0.2 0.5,-0.2 0.8,0c0.2,0.2 0.2,0.5 0,0.8c-2.1,1.9 -5.3,1.9 -7.2,0Z" style="fill:#b2b2b2;fill-rule:nonzero;"/><path d="M132.9,141.8c-0.2,-0.2 -0.2,-0.5 0,-0.8c1.5,-1.5 1.5,-4 0,-5.6c-0.2,-0.2 -0.2,-0.5 0,-0.8c0.2,-0.3 0.5,-0.2 0.8,0c1.9,1.9 1.9,5.1 0,7.1c-0.2,0.3 -0.6,0.3 -0.8,0.1Z" style="fill:#b2b2b2;fill-rule:nonzero;"/></g><path d="M153.3,148.5c-0.1,-0.4 -0.4,-0.6 -0.8,-0.4c-1.5,0.6 -3.1,0.3 -4.1,-0.7c-1,-1 -1.3,-2.4 -0.9,-3.8l2.1,2.1c0.3,0.3 0.6,0.3 0.9,0c0.3,-0.3 0.3,-0.6 0,-0.9l-2.4,-2.4c0.2,-0.3 0.4,-0.6 0.7,-0.9c0.2,-0.2 0.5,-0.5 0.8,-0.6l2.4,2.4c0.3,0.3 0.6,0.3 0.9,0c0.3,-0.3 0.3,-0.6 0,-0.9l-2.1,-2.1c1.4,-0.4 2.9,-0.2 3.9,0.9c1,1 1.3,2.6 0.7,4.1c0,0.4 0.1,0.6 0.4,0.8c0.4,0 0.6,-0.1 0.8,-0.4c0.8,-2 0.4,-4.1 -1,-5.4c-1.6,-1.6 -3.9,-1.8 -5.9,-0.9l-1,-1c-0.3,-0.3 -0.6,-0.3 -0.9,0c-0.3,0.3 -0.3,0.6 0,0.9l0.8,0.8c-0.2,0.2 -0.5,0.4 -0.7,0.6c-0.3,0.3 -0.6,0.6 -0.8,1l-0.8,-0.8c-0.3,-0.3 -0.6,-0.3 -0.9,0c-0.3,0.3 -0.3,0.6 0,0.9l1.1,1.1c-0.7,1.9 -0.4,4.1 1,5.5c1.3,1.3 3.4,1.8 5.3,1.2c0.5,-0.4 0.6,-0.7 0.5,-1.1Z" style="fill:#b2b2b2;fill-rule:nonzero;"/></g><g><g><path d="M215.8,117l-26.8,26.8c-0.2,0.2 -0.5,0.2 -0.8,0l-15.2,-15.4c-0.2,-0.2 -0.2,-0.5 0,-0.8l26.8,-26.8c0.2,-0.2 0.5,-0.2 0.8,0l15.4,15.4c0.1,0.3 0.1,0.6 -0.2,0.8Zm-27.1,25.6l26,-26l-14.6,-14.6l-26,26l14.6,14.6Z" style="fill:#b2b2b2;fill-rule:nonzero;"/><path d="M203.6,104.8c-1.9,1.9 -5.1,1.9 -7.1,0c-0.2,-0.2 -0.2,-0.5 0,-0.8c0.2,-0.2 0.5,-0.2 0.8,0c1.5,1.5 4,1.5 5.6,0c0.2,-0.2 0.5,-0.2 0.8,0c0.1,0.2 0.1,0.6 -0.1,0.8Z" style="fill:#b2b2b2;fill-rule:nonzero;"/><path d="M212.7,120.2c-0.2,0.2 -0.5,0.2 -0.8,0c-1.9,-1.9 -1.9,-5.1 0,-7.1c0.2,-0.2 0.5,-0.2 0.8,0c0.2,0.2 0.2,0.5 0,0.8c-1.5,1.5 -1.5,4 0,5.6c0.2,0.1 0.2,0.5 0,0.7Z" style="fill:#b2b2b2;fill-rule:nonzero;"/><path d="M176.9,131.5c-0.2,0.2 -0.5,0.2 -0.8,0c-0.3,-0.2 -0.2,-0.5 0,-0.8c1.5,-1.5 1.5,-4 0,-5.6c-0.2,-0.2 -0.2,-0.5 0,-0.8c0.2,-0.2 0.5,-0.2 0.8,0c1.9,2.1 1.9,5.3 0,7.2Z" style="fill:#b2b2b2;fill-rule:nonzero;"/><path d="M192.2,140.6c-0.2,0.2 -0.5,0.2 -0.8,0c-1.5,-1.5 -4,-1.5 -5.6,0c-0.2,0.2 -0.5,0.2 -0.8,0c-0.2,-0.2 -0.2,-0.5 0,-0.8c1.9,-1.9 5.1,-1.9 7.1,0c0.4,0.3 0.4,0.6 0.1,0.8Z" style="fill:#b2b2b2;fill-rule:nonzero;"/></g><path d="M199,120.3c-0.4,0.1 -0.6,0.4 -0.4,0.8c0.6,1.5 0.3,3.1 -0.7,4.1c-1,1 -2.4,1.3 -3.8,0.9l2.1,-2.1c0.3,-0.3 0.3,-0.6 0,-0.9c-0.3,-0.3 -0.6,-0.3 -0.9,0l-2.4,2.4c-0.3,-0.2 -0.6,-0.4 -0.9,-0.7c-0.2,-0.2 -0.5,-0.5 -0.6,-0.8l2.4,-2.4c0.3,-0.3 0.3,-0.6 0,-0.9c-0.3,-0.3 -0.6,-0.3 -0.9,0l-2.1,2.1c-0.4,-1.4 -0.2,-2.9 0.9,-3.9c1,-1 2.6,-1.3 4.1,-0.7c0.4,0 0.6,-0.1 0.8,-0.4c0,-0.4 -0.1,-0.6 -0.4,-0.8c-2,-0.8 -4.1,-0.4 -5.4,1c-1.6,1.6 -1.8,3.9 -0.9,5.9l-1,1c-0.3,0.3 -0.3,0.6 0,0.9c0.3,0.3 0.6,0.3 0.9,0l0.8,-0.8c0.2,0.2 0.4,0.5 0.6,0.7c0.3,0.3 0.6,0.6 1,0.8l-0.8,0.8c-0.3,0.3 -0.3,0.6 0,0.9c0.3,0.3 0.6,0.3 0.9,0l1.1,-1.1c1.9,0.7 4.1,0.4 5.5,-1c1.3,-1.3 1.8,-3.4 1.2,-5.3c-0.4,-0.5 -0.8,-0.7 -1.1,-0.5Z" style="fill:#b2b2b2;fill-rule:nonzero;"/></g><g><g><path d="M70.1,165.4l-26.8,-26.8c-0.2,-0.2 -0.2,-0.5 0,-0.8l15.4,-15.4c0.2,-0.2 0.5,-0.2 0.8,0l26.8,26.8c0.2,0.2 0.2,0.5 0,0.8l-15.4,15.4c-0.2,0.2 -0.6,0.2 -0.8,0Zm-25.6,-27.2l26,26l14.6,-14.6l-26,-26l-14.6,14.6Z" style="fill:#b2b2b2;fill-rule:nonzero;"/><path d="M82.3,153.1c-1.9,-1.9 -1.9,-5.1 0,-7.1c0.2,-0.2 0.5,-0.2 0.8,0c0.2,0.2 0.2,0.5 0,0.8c-1.5,1.5 -1.5,4 0,5.6c0.2,0.2 0.2,0.5 0,0.8c-0.2,0.1 -0.6,0.1 -0.8,-0.1Z" style="fill:#b2b2b2;fill-rule:nonzero;"/><path d="M67,162.2c-0.2,-0.2 -0.2,-0.5 0,-0.8c1.9,-1.9 5.1,-1.9 7.1,0c0.2,0.2 0.2,0.5 0,0.8c-0.2,0.3 -0.5,0.2 -0.8,0c-1.5,-1.5 -4,-1.5 -5.6,0c-0.2,0.2 -0.5,0.2 -0.7,0Z" style="fill:#b2b2b2;fill-rule:nonzero;"/><path d="M55.6,126.4c-0.2,-0.2 -0.2,-0.5 0,-0.8c0.2,-0.2 0.5,-0.2 0.8,0c1.5,1.5 4,1.5 5.6,0c0.2,-0.2 0.5,-0.2 0.8,0c0.2,0.2 0.2,0.5 0,0.8c-2.1,1.9 -5.3,1.9 -7.2,0Z" style="fill:#b2b2b2;fill-rule:nonzero;"/><path d="M46.5,141.8c-0.2,-0.2 -0.2,-0.5 0,-0.8c1.5,-1.5 1.5,-4 0,-5.6c-0.2,-0.2 -0.2,-0.5 0,-0.8c0.2,-0.3 0.5,-0.2 0.8,0c1.9,1.9 1.9,5.1 0,7.1c-0.2,0.3 -0.6,0.3 -0.8,0.1Z" style="fill:#b2b2b2;fill-rule:nonzero;"/></g><path d="M66.9,148.5c-0.1,-0.4 -0.4,-0.6 -0.8,-0.4c-1.5,0.6 -3.1,0.3 -4.1,-0.7c-1,-1 -1.3,-2.4 -0.9,-3.8l2.1,2.1c0.3,0.3 0.6,0.3 0.9,0c0.3,-0.3 0.3,-0.6 0,-0.9l-2.4,-2.4c0.2,-0.3 0.4,-0.6 0.7,-0.9c0.2,-0.2 0.5,-0.5 0.8,-0.6l2.4,2.4c0.3,0.3 0.6,0.3 0.9,0c0.3,-0.3 0.3,-0.6 0,-0.9l-2.1,-2.1c1.4,-0.4 2.9,-0.2 3.9,0.9c1,1 1.3,2.6 0.7,4.1c0,0.4 0.1,0.6 0.4,0.8c0.4,0 0.6,-0.1 0.8,-0.4c0.8,-2 0.4,-4.1 -1,-5.4c-1.6,-1.6 -3.9,-1.8 -5.9,-0.9l-1,-1c-0.3,-0.3 -0.6,-0.3 -0.9,0c-0.3,0.3 -0.3,0.6 0,0.9l0.8,0.8c-0.2,0.2 -0.5,0.4 -0.7,0.6c-0.3,0.3 -0.6,0.6 -0.8,1l-0.8,-0.8c-0.3,-0.3 -0.6,-0.3 -0.9,0c-0.3,0.3 -0.3,0.6 0,0.9l1.1,1.1c-0.7,1.9 -0.4,4.1 1,5.5c1.3,1.3 3.4,1.8 5.3,1.2c0.5,-0.4 0.6,-0.7 0.5,-1.1Z" style="fill:#b2b2b2;fill-rule:nonzero;"/></g><g><g><path d="M129.4,117l-26.8,26.8c-0.2,0.2 -0.5,0.2 -0.8,0l-15.4,-15.4c-0.2,-0.2 -0.2,-0.5 0,-0.8l26.8,-26.8c0.2,-0.2 0.5,-0.2 0.8,0l15.4,15.4c0.3,0.3 0.3,0.6 0,0.8Zm-27.1,25.6l26,-26l-14.6,-14.6l-26,26l14.6,14.6Z" style="fill:#b2b2b2;fill-rule:nonzero;"/><path d="M117.2,104.8c-1.9,1.9 -5.1,1.9 -7.1,0c-0.2,-0.2 -0.2,-0.5 0,-0.8c0.2,-0.2 0.5,-0.2 0.8,0c1.5,1.5 4,1.5 5.6,0c0.2,-0.2 0.5,-0.2 0.8,0c0.1,0.2 0.1,0.6 -0.1,0.8Z" style="fill:#b2b2b2;fill-rule:nonzero;"/><path d="M126.3,120.2c-0.2,0.2 -0.5,0.2 -0.8,0c-1.9,-1.9 -1.9,-5.1 0,-7.1c0.2,-0.2 0.5,-0.2 0.8,0c0.2,0.2 0.2,0.5 0,0.8c-1.5,1.5 -1.5,4 0,5.6c0.2,0.1 0.2,0.5 0,0.7Z" style="fill:#b2b2b2;fill-rule:nonzero;"/><path d="M90.5,131.5c-0.2,0.2 -0.5,0.2 -0.8,0c-0.2,-0.2 -0.2,-0.5 0,-0.8c1.5,-1.5 1.5,-4 0,-5.6c-0.2,-0.2 -0.2,-0.5 0,-0.8c0.2,-0.2 0.5,-0.2 0.8,0c1.9,2.1 1.9,5.3 0,7.2Z" style="fill:#b2b2b2;fill-rule:nonzero;"/><path d="M105.8,140.6c-0.2,0.2 -0.5,0.2 -0.8,0c-1.5,-1.5 -4,-1.5 -5.6,0c-0.2,0.2 -0.5,0.2 -0.8,0c-0.2,-0.2 -0.2,-0.5 0,-0.8c1.9,-1.9 5.1,-1.9 7.1,0c0.4,0.3 0.4,0.6 0.1,0.8Z" style="fill:#b2b2b2;fill-rule:nonzero;"/></g><path d="M112.6,120.3c-0.4,0.1 -0.6,0.4 -0.4,0.8c0.6,1.5 0.3,3.1 -0.7,4.1c-1,1 -2.4,1.3 -3.8,0.9l2.1,-2.1c0.3,-0.3 0.3,-0.6 0,-0.9c-0.3,-0.3 -0.6,-0.3 -0.9,0l-2.4,2.4c-0.3,-0.2 -0.6,-0.4 -0.9,-0.7c-0.2,-0.2 -0.5,-0.5 -0.6,-0.8l2.4,-2.4c0.3,-0.3 0.3,-0.6 0,-0.9c-0.3,-0.3 -0.6,-0.3 -0.9,0l-2.1,2.1c-0.4,-1.4 -0.2,-2.9 0.9,-3.9c1,-1 2.6,-1.3 4.1,-0.7c0.4,0 0.6,-0.1 0.8,-0.4c0,-0.4 -0.1,-0.6 -0.4,-0.8c-2,-0.8 -4.1,-0.4 -5.4,1c-1.6,1.6 -1.8,3.9 -0.9,5.9l-1,1c-0.3,0.3 -0.3,0.6 0,0.9c0.3,0.3 0.6,0.3 0.9,0l0.8,-0.8c0.2,0.2 0.4,0.5 0.6,0.7c0.3,0.3 0.6,0.6 1,0.8l-0.8,0.8c-0.3,0.3 -0.3,0.6 0,0.9c0.3,0.3 0.6,0.3 0.9,0l1.1,-1.1c1.9,0.7 4.1,0.4 5.5,-1c1.3,-1.3 1.8,-3.4 1.2,-5.3c-0.4,-0.5 -0.8,-0.7 -1.1,-0.5Z" style="fill:#b2b2b2;fill-rule:nonzero;"/></g><g><g><path d="M43,167.4l-26.8,26.8c-0.2,0.2 -0.5,0.2 -0.8,0l-15.2,-15.5c-0.2,-0.2 -0.2,-0.5 0,-0.8l26.8,-26.8c0.2,-0.2 0.5,-0.2 0.8,0l15.2,15.5c0.3,0.2 0.3,0.6 0,0.8Zm-27.1,25.6l26,-26l-14.6,-14.6l-26,26l14.6,14.6Z" style="fill:#b2b2b2;fill-rule:nonzero;"/><path d="M30.8,155.1c-1.9,1.9 -5.1,1.9 -7.1,0c-0.2,-0.2 -0.2,-0.5 0,-0.8c0.2,-0.2 0.5,-0.2 0.8,0c1.5,1.5 4,1.5 5.6,0c0.2,-0.2 0.5,-0.2 0.8,0c0.3,0.2 0.1,0.6 -0.1,0.8Z" style="fill:#b2b2b2;fill-rule:nonzero;"/><path d="M39.9,170.5c-0.2,0.2 -0.5,0.2 -0.8,0c-1.9,-1.9 -1.9,-5.1 0,-7.1c0.2,-0.2 0.5,-0.2 0.8,0c0.2,0.2 0.2,0.5 0,0.8c-1.5,1.5 -1.5,4 0,5.6c0.2,0.2 0.2,0.5 0,0.7Z" style="fill:#b2b2b2;fill-rule:nonzero;"/><path d="M4.1,181.9c-0.2,0.2 -0.5,0.2 -0.8,0c-0.2,-0.2 -0.2,-0.5 0,-0.8c1.5,-1.5 1.5,-4 0,-5.6c-0.2,-0.2 -0.2,-0.5 0,-0.8c0.2,-0.2 0.5,-0.2 0.8,0c1.9,2.1 1.9,5.3 0,7.2Z" style="fill:#b2b2b2;fill-rule:nonzero;"/><path d="M19.4,191c-0.2,0.2 -0.5,0.2 -0.8,0c-1.5,-1.5 -4,-1.5 -5.6,0c-0.2,0.2 -0.5,0.2 -0.8,0c-0.3,-0.2 -0.2,-0.5 0,-0.8c1.9,-1.9 5.1,-1.9 7.1,0c0.4,0.2 0.4,0.6 0.1,0.8Z" style="fill:#b2b2b2;fill-rule:nonzero;"/></g><path d="M26.2,170.6c-0.4,0.1 -0.6,0.4 -0.4,0.8c0.6,1.5 0.3,3.1 -0.7,4.1c-1,1 -2.4,1.3 -3.8,0.9l2.1,-2.1c0.3,-0.3 0.3,-0.6 0,-0.9c-0.3,-0.3 -0.6,-0.3 -0.9,0l-2.4,2.4c-0.3,-0.2 -0.6,-0.4 -0.9,-0.7c-0.2,-0.2 -0.5,-0.5 -0.6,-0.8l2.4,-2.4c0.3,-0.3 0.3,-0.6 0,-0.9c-0.3,-0.3 -0.6,-0.3 -0.9,0l-2.1,2.1c-0.4,-1.4 -0.2,-2.9 0.9,-3.9c1,-1 2.6,-1.3 4.1,-0.7c0.4,0 0.6,-0.1 0.8,-0.4c0,-0.4 -0.1,-0.6 -0.4,-0.8c-2,-0.8 -4.1,-0.4 -5.4,1c-1.6,1.6 -1.8,3.9 -0.9,5.9l-1,1c-0.3,0.3 -0.3,0.6 0,0.9c0.3,0.3 0.6,0.3 0.9,0l0.8,-0.8c0.2,0.2 0.4,0.5 0.6,0.7c0.3,0.3 0.6,0.6 1,0.8l-0.8,0.8c-0.3,0.3 -0.3,0.6 0,0.9c0.3,0.3 0.6,0.3 0.9,0l1.1,-1.1c1.9,0.7 4.1,0.4 5.5,-1c1.3,-1.3 1.8,-3.4 1.2,-5.3c-0.4,-0.5 -0.8,-0.6 -1.1,-0.5Z" style="fill:#b2b2b2;fill-rule:nonzero;"/></g><g><g><path d="M156.5,215.8l-26.8,-26.8c-0.2,-0.2 -0.2,-0.5 0,-0.8l15.4,-15.4c0.2,-0.2 0.5,-0.2 0.8,0l26.8,26.8c0.2,0.2 0.2,0.5 0,0.8l-15.4,15.4c-0.3,0.2 -0.6,0.2 -0.8,0Zm-25.6,-27.1l26,26l14.6,-14.6l-26,-26l-14.6,14.6Z" style="fill:#b2b2b2;fill-rule:nonzero;"/><path d="M168.7,203.6c-1.9,-1.9 -1.9,-5.1 0,-7.1c0.2,-0.2 0.5,-0.2 0.8,0c0.2,0.2 0.2,0.5 0,0.8c-1.5,1.5 -1.5,4 0,5.6c0.2,0.2 0.2,0.5 0,0.8c-0.2,0.1 -0.6,0.1 -0.8,-0.1Z" style="fill:#b2b2b2;fill-rule:nonzero;"/><path d="M153.3,212.7c-0.2,-0.2 -0.2,-0.5 0,-0.8c1.9,-1.9 5.1,-1.9 7.1,0c0.2,0.2 0.2,0.5 0,0.8c-0.2,0.2 -0.5,0.2 -0.8,0c-1.5,-1.5 -4,-1.5 -5.6,0c-0.1,0.2 -0.4,0.2 -0.7,0Z" style="fill:#b2b2b2;fill-rule:nonzero;"/><path d="M142,176.9c-0.2,-0.2 -0.2,-0.5 0,-0.8c0.2,-0.3 0.5,-0.2 0.8,0c1.5,1.5 4,1.5 5.6,0c0.2,-0.2 0.5,-0.2 0.8,0c0.3,0.2 0.2,0.5 0,0.8c-2.1,1.9 -5.3,1.9 -7.2,0Z" style="fill:#b2b2b2;fill-rule:nonzero;"/><path d="M132.9,192.2c-0.2,-0.2 -0.2,-0.5 0,-0.8c1.5,-1.5 1.5,-4 0,-5.6c-0.2,-0.2 -0.2,-0.5 0,-0.8c0.2,-0.2 0.5,-0.2 0.8,0c1.9,1.9 1.9,5.1 0,7.1c-0.2,0.3 -0.6,0.3 -0.8,0.1Z" style="fill:#b2b2b2;fill-rule:nonzero;"/></g><path d="M153.2,199c-0.1,-0.4 -0.4,-0.6 -0.8,-0.4c-1.5,0.6 -3.1,0.3 -4.1,-0.7c-1,-1 -1.3,-2.4 -0.9,-3.8l2.1,2.1c0.3,0.3 0.6,0.3 0.9,0c0.3,-0.3 0.3,-0.6 0,-0.9l-2.4,-2.4c0.2,-0.3 0.4,-0.6 0.7,-0.9c0.2,-0.2 0.5,-0.5 0.8,-0.6l2.4,2.4c0.3,0.3 0.6,0.3 0.9,0c0.3,-0.3 0.3,-0.6 0,-0.9l-2.1,-2.1c1.4,-0.4 2.9,-0.2 3.9,0.9c1,1 1.3,2.6 0.7,4.1c0,0.4 0.1,0.6 0.4,0.8c0.4,0 0.6,-0.1 0.8,-0.4c0.8,-2 0.4,-4.1 -1,-5.4c-1.6,-1.6 -3.9,-1.8 -5.9,-0.9l-1,-1c-0.3,-0.3 -0.6,-0.3 -0.9,0c-0.3,0.3 -0.3,0.6 0,0.9l0.8,0.8c-0.2,0.2 -0.5,0.4 -0.7,0.6c-0.3,0.3 -0.6,0.6 -0.8,1l-0.8,-0.8c-0.3,-0.3 -0.6,-0.3 -0.9,0c-0.3,0.3 -0.3,0.6 0,0.9l1.1,1.1c-0.7,1.9 -0.4,4.1 1,5.5c1.3,1.3 3.4,1.8 5.3,1.2c0.5,-0.4 0.7,-0.8 0.5,-1.1Z" style="fill:#b2b2b2;fill-rule:nonzero;"/></g><g><g><path d="M242.9,64.8l-26.7,-26.8c-0.2,-0.2 -0.2,-0.5 0,-0.8l15.4,-15.4c0.2,-0.2 0.5,-0.2 0.8,0l26.6,26.8c0.2,0.2 0.2,0.5 0,0.8l-15.4,15.4c-0.1,0.2 -0.5,0.2 -0.7,0Zm-25.6,-27.2l26,26l14.6,-14.6l-26,-26l-14.6,14.6Z" style="fill:#b2b2b2;fill-rule:nonzero;"/><path d="M255.1,52.5c-1.9,-1.9 -1.9,-5.1 0,-7.1c0.2,-0.2 0.5,-0.2 0.8,0c0.2,0.2 0.2,0.5 0,0.8c-1.5,1.5 -1.5,4 0,5.6c0.2,0.2 0.2,0.5 0,0.8c-0.2,0.1 -0.6,0.1 -0.8,-0.1Z" style="fill:#b2b2b2;fill-rule:nonzero;"/><path d="M239.8,61.6c-0.2,-0.2 -0.2,-0.5 0,-0.8c1.9,-1.9 5.1,-1.9 7.1,0c0.2,0.2 0.2,0.5 0,0.8c-0.2,0.2 -0.5,0.2 -0.8,0c-1.5,-1.5 -4,-1.5 -5.6,0c-0.2,0.2 -0.5,0.2 -0.7,0Z" style="fill:#b2b2b2;fill-rule:nonzero;"/><path d="M228.4,25.8c-0.2,-0.2 -0.2,-0.5 0,-0.8c0.2,-0.3 0.5,-0.2 0.8,0c1.5,1.5 4,1.5 5.6,0c0.2,-0.2 0.5,-0.2 0.8,0c0.3,0.2 0.2,0.5 0,0.8c-2.1,1.9 -5.3,1.9 -7.2,0Z" style="fill:#b2b2b2;fill-rule:nonzero;"/><path d="M219.3,41.2c-0.2,-0.2 -0.2,-0.5 0,-0.8c1.5,-1.5 1.5,-4 0,-5.6c-0.2,-0.2 -0.2,-0.5 0,-0.8c0.2,-0.2 0.5,-0.2 0.8,0c1.9,1.9 1.9,5.1 0,7.1c-0.2,0.3 -0.6,0.3 -0.8,0.1Z" style="fill:#b2b2b2;fill-rule:nonzero;"/></g><path d="M239.7,47.9c-0.1,-0.4 -0.4,-0.6 -0.8,-0.4c-1.5,0.6 -3.1,0.3 -4.1,-0.7c-1,-1 -1.3,-2.4 -0.9,-3.8l2.1,2.1c0.3,0.3 0.6,0.3 0.9,0c0.3,-0.3 0.3,-0.6 0,-0.9l-2.4,-2.4c0.2,-0.3 0.4,-0.6 0.7,-0.9c0.2,-0.2 0.5,-0.5 0.8,-0.6l2.4,2.4c0.3,0.3 0.6,0.3 0.9,0c0.3,-0.3 0.3,-0.6 0,-0.9l-2.1,-2.1c1.4,-0.4 2.9,-0.2 3.9,0.9c1,1 1.3,2.6 0.7,4.1c0,0.4 0.1,0.6 0.4,0.8c0.4,0 0.6,-0.1 0.8,-0.4c0.8,-2 0.4,-4.1 -1,-5.4c-1.6,-1.6 -3.9,-1.8 -5.9,-0.9l-1,-1c-0.3,-0.3 -0.6,-0.3 -0.9,0c-0.3,0.3 -0.3,0.6 0,0.9l0.8,0.8c-0.2,0.2 -0.5,0.4 -0.7,0.6c-0.3,0.3 -0.6,0.6 -0.8,1l-0.8,-0.8c-0.3,-0.3 -0.6,-0.3 -0.9,0c-0.3,0.3 -0.3,0.6 0,0.9l1.1,1.1c-0.7,1.9 -0.4,4.1 1,5.5c1.3,1.3 3.4,1.8 5.3,1.2c0.5,-0.4 0.6,-0.8 0.5,-1.1Z" style="fill:#b2b2b2;fill-rule:nonzero;"/></g><g><g><path d="M242.9,115.1l-26.8,-26.8c-0.2,-0.2 -0.2,-0.5 0,-0.8l15.4,-15.4c0.2,-0.2 0.5,-0.2 0.8,0l26.7,26.9c0.2,0.2 0.2,0.5 0,0.8l-15.4,15.4c-0.1,0.1 -0.5,0.1 -0.7,-0.1Zm-25.6,-27.1l26,26l14.6,-14.6l-26,-26l-14.6,14.6Z" style="fill:#b2b2b2;fill-rule:nonzero;"/><path d="M255.1,102.9c-1.9,-1.9 -1.9,-5.1 0,-7.1c0.2,-0.2 0.5,-0.2 0.8,0c0.2,0.2 0.2,0.5 0,0.8c-1.5,1.5 -1.5,4 0,5.6c0.2,0.2 0.2,0.5 0,0.8c-0.2,0.1 -0.6,0.1 -0.8,-0.1Z" style="fill:#b2b2b2;fill-rule:nonzero;"/><path d="M239.8,112c-0.2,-0.2 -0.2,-0.5 0,-0.8c1.9,-1.9 5.1,-1.9 7.1,0c0.2,0.2 0.2,0.5 0,0.8c-0.2,0.2 -0.5,0.2 -0.8,0c-1.5,-1.5 -4,-1.5 -5.6,0c-0.2,0.2 -0.5,0.2 -0.7,0Z" style="fill:#b2b2b2;fill-rule:nonzero;"/><path d="M228.4,76.1c-0.2,-0.2 -0.2,-0.5 0,-0.8c0.2,-0.2 0.5,-0.2 0.8,0c1.5,1.5 4,1.5 5.6,0c0.2,-0.2 0.5,-0.2 0.8,0c0.2,0.2 0.2,0.5 0,0.8c-2.1,2 -5.3,2 -7.2,0Z" style="fill:#b2b2b2;fill-rule:nonzero;"/><path d="M219.3,91.5c-0.2,-0.2 -0.2,-0.5 0,-0.8c1.5,-1.5 1.5,-4 0,-5.6c-0.2,-0.2 -0.2,-0.5 0,-0.8c0.2,-0.2 0.5,-0.2 0.8,0c1.9,1.9 1.9,5.1 0,7.1c-0.2,0.3 -0.6,0.3 -0.8,0.1Z" style="fill:#b2b2b2;fill-rule:nonzero;"/></g><path d="M239.7,98.2c-0.1,-0.4 -0.4,-0.6 -0.8,-0.4c-1.5,0.6 -3.1,0.3 -4.1,-0.7c-1,-1 -1.3,-2.4 -0.9,-3.8l2.1,2.1c0.3,0.3 0.6,0.3 0.9,0c0.3,-0.3 0.3,-0.6 0,-0.9l-2.4,-2.4c0.2,-0.3 0.4,-0.6 0.7,-0.9c0.2,-0.2 0.5,-0.5 0.8,-0.6l2.4,2.4c0.3,0.3 0.6,0.3 0.9,0c0.3,-0.3 0.3,-0.6 0,-0.9l-2.1,-2.1c1.4,-0.4 2.9,-0.2 3.9,0.9c1,1 1.3,2.6 0.7,4.1c0,0.4 0.1,0.6 0.4,0.8c0.4,0 0.6,-0.1 0.8,-0.4c0.8,-2 0.4,-4.1 -1,-5.4c-1.6,-1.6 -3.9,-1.8 -5.9,-0.9l-1,-1c-0.3,-0.3 -0.6,-0.3 -0.9,0c-0.3,0.3 -0.3,0.6 0,0.9l0.8,0.8c-0.2,0.2 -0.5,0.4 -0.7,0.6c-0.3,0.3 -0.6,0.6 -0.8,1l-0.8,-0.8c-0.3,-0.3 -0.6,-0.3 -0.9,0c-0.3,0.3 -0.3,0.6 0,0.9l1.1,1.1c-0.7,1.9 -0.4,4.1 1,5.5c1.3,1.3 3.4,1.8 5.3,1.2c0.5,-0.3 0.6,-0.7 0.5,-1.1Z" style="fill:#b2b2b2;fill-rule:nonzero;"/></g><g><g><path d="M242.9,165.4l-26.8,-26.8c-0.2,-0.2 -0.2,-0.5 0,-0.8l15.4,-15.4c0.2,-0.2 0.5,-0.2 0.8,0l26.8,26.8c0.2,0.2 0.2,0.5 0,0.8l-15.4,15.4c-0.2,0.2 -0.6,0.2 -0.8,0Zm-25.6,-27.2l26,26l14.6,-14.6l-26,-26l-14.6,14.6Z" style="fill:#b2b2b2;fill-rule:nonzero;"/><path d="M255.1,153.1c-1.9,-1.9 -1.9,-5.1 0,-7.1c0.2,-0.2 0.5,-0.2 0.8,0c0.2,0.2 0.2,0.5 0,0.8c-1.5,1.5 -1.5,4 0,5.6c0.2,0.2 0.2,0.5 0,0.8c-0.2,0.1 -0.6,0.1 -0.8,-0.1Z" style="fill:#b2b2b2;fill-rule:nonzero;"/><path d="M239.8,162.2c-0.2,-0.2 -0.2,-0.5 0,-0.8c1.9,-1.9 5.1,-1.9 7.1,0c0.2,0.2 0.2,0.5 0,0.8c-0.2,0.2 -0.5,0.2 -0.8,0c-1.5,-1.5 -4,-1.5 -5.6,0c-0.2,0.2 -0.5,0.2 -0.7,0Z" style="fill:#b2b2b2;fill-rule:nonzero;"/><path d="M228.4,126.4c-0.2,-0.2 -0.2,-0.5 0,-0.8c0.2,-0.2 0.5,-0.2 0.8,0c1.5,1.5 4,1.5 5.6,0c0.2,-0.2 0.5,-0.2 0.8,0c0.2,0.2 0.2,0.5 0,0.8c-2.1,1.9 -5.3,1.9 -7.2,0Z" style="fill:#b2b2b2;fill-rule:nonzero;"/><path d="M219.3,141.8c-0.2,-0.2 -0.2,-0.5 0,-0.8c1.5,-1.5 1.5,-4 0,-5.6c-0.2,-0.2 -0.2,-0.5 0,-0.8c0.2,-0.2 0.5,-0.2 0.8,0c1.9,1.9 1.9,5.1 0,7.1c-0.2,0.3 -0.6,0.3 -0.8,0.1Z" style="fill:#b2b2b2;fill-rule:nonzero;"/></g><path d="M239.7,148.5c-0.1,-0.4 -0.4,-0.6 -0.8,-0.4c-1.5,0.6 -3.1,0.3 -4.1,-0.7c-1,-1 -1.3,-2.4 -0.9,-3.8l2.1,2.1c0.3,0.3 0.6,0.3 0.9,0c0.3,-0.3 0.3,-0.6 0,-0.9l-2.4,-2.4c0.2,-0.3 0.4,-0.6 0.7,-0.9c0.2,-0.2 0.5,-0.5 0.8,-0.6l2.4,2.4c0.3,0.3 0.6,0.3 0.9,0c0.3,-0.3 0.3,-0.6 0,-0.9l-2.1,-2.1c1.4,-0.4 2.9,-0.2 3.9,0.9c1,1 1.3,2.6 0.7,4.1c0,0.4 0.1,0.6 0.4,0.8c0.4,0 0.6,-0.1 0.8,-0.4c0.8,-2 0.4,-4.1 -1,-5.4c-1.6,-1.6 -3.9,-1.8 -5.9,-0.9l-1,-1c-0.3,-0.3 -0.6,-0.3 -0.9,0c-0.3,0.3 -0.3,0.6 0,0.9l0.8,0.8c-0.2,0.2 -0.5,0.4 -0.7,0.6c-0.3,0.3 -0.6,0.6 -0.8,1l-0.8,-0.8c-0.3,-0.3 -0.6,-0.3 -0.9,0c-0.3,0.3 -0.3,0.6 0,0.9l1.1,1.1c-0.7,1.9 -0.4,4.1 1,5.5c1.3,1.3 3.4,1.8 5.3,1.2c0.5,-0.4 0.6,-0.7 0.5,-1.1Z" style="fill:#b2b2b2;fill-rule:nonzero;"/></g><g><g><path d="M242.9,215.8l-26.8,-26.8c-0.2,-0.2 -0.2,-0.5 0,-0.8l15.4,-15.4c0.2,-0.2 0.5,-0.2 0.8,0l26.8,26.8c0.2,0.2 0.2,0.5 0,0.8l-15.4,15.4c-0.3,0.2 -0.6,0.2 -0.8,0Zm-25.6,-27.1l26,26l14.6,-14.6l-26,-26l-14.6,14.6Z" style="fill:#b2b2b2;fill-rule:nonzero;"/><path d="M255.1,203.6c-1.9,-1.9 -1.9,-5.1 0,-7.1c0.2,-0.2 0.5,-0.2 0.8,0c0.2,0.2 0.2,0.5 0,0.8c-1.5,1.5 -1.5,4 0,5.6c0.2,0.2 0.2,0.5 0,0.8c-0.2,0.1 -0.6,0.1 -0.8,-0.1Z" style="fill:#b2b2b2;fill-rule:nonzero;"/><path d="M239.7,212.7c-0.2,-0.2 -0.2,-0.5 0,-0.8c1.9,-1.9 5.1,-1.9 7.1,0c0.2,0.2 0.2,0.5 0,0.8c-0.2,0.2 -0.5,0.2 -0.8,0c-1.5,-1.5 -4,-1.5 -5.6,0c-0.1,0.2 -0.4,0.2 -0.7,0Z" style="fill:#b2b2b2;fill-rule:nonzero;"/><path d="M228.4,176.9c-0.2,-0.2 -0.2,-0.5 0,-0.8c0.2,-0.3 0.5,-0.2 0.8,0c1.5,1.5 4,1.5 5.6,0c0.2,-0.2 0.5,-0.2 0.8,0c0.3,0.2 0.2,0.5 0,0.8c-2.1,1.9 -5.3,1.9 -7.2,0Z" style="fill:#b2b2b2;fill-rule:nonzero;"/><path d="M219.3,192.2c-0.2,-0.2 -0.2,-0.5 0,-0.8c1.5,-1.5 1.5,-4 0,-5.6c-0.2,-0.2 -0.2,-0.5 0,-0.8c0.2,-0.2 0.5,-0.2 0.8,0c1.9,1.9 1.9,5.1 0,7.1c-0.3,0.3 -0.6,0.3 -0.8,0.1Z" style="fill:#b2b2b2;fill-rule:nonzero;"/></g><path d="M239.6,199c-0.1,-0.4 -0.4,-0.6 -0.8,-0.4c-1.5,0.6 -3.1,0.3 -4.1,-0.7c-1,-1 -1.3,-2.4 -0.9,-3.8l2.1,2.1c0.3,0.3 0.6,0.3 0.9,0c0.3,-0.3 0.3,-0.6 0,-0.9l-2.4,-2.4c0.2,-0.3 0.4,-0.6 0.7,-0.9c0.2,-0.2 0.5,-0.5 0.8,-0.6l2.4,2.4c0.3,0.3 0.6,0.3 0.9,0c0.3,-0.3 0.3,-0.6 0,-0.9l-2.1,-2.1c1.4,-0.4 2.9,-0.2 3.9,0.9c1,1 1.3,2.6 0.7,4.1c0,0.4 0.1,0.6 0.4,0.8c0.4,0 0.6,-0.1 0.8,-0.4c0.8,-2 0.4,-4.1 -1,-5.4c-1.6,-1.6 -3.9,-1.8 -5.9,-0.9l-1,-1c-0.3,-0.3 -0.6,-0.3 -0.9,0c-0.3,0.3 -0.3,0.6 0,0.9l0.8,0.8c-0.2,0.2 -0.5,0.4 -0.7,0.6c-0.3,0.3 -0.6,0.6 -0.8,1l-0.8,-0.8c-0.3,-0.3 -0.6,-0.3 -0.9,0c-0.3,0.3 -0.3,0.6 0,0.9l1.1,1.1c-0.7,1.9 -0.4,4.1 1,5.5c1.3,1.3 3.4,1.8 5.3,1.2c0.5,-0.4 0.7,-0.8 0.5,-1.1Z" style="fill:#b2b2b2;fill-rule:nonzero;"/></g><g><g><path d="M215.8,167.4l-26.8,26.8c-0.2,0.2 -0.5,0.2 -0.8,0l-15.2,-15.5c-0.2,-0.2 -0.2,-0.5 0,-0.8l26.8,-26.8c0.2,-0.2 0.5,-0.2 0.8,0l15.4,15.4c0.1,0.3 0.1,0.7 -0.2,0.9Zm-27.1,25.6l26,-26l-14.6,-14.6l-26,26l14.6,14.6Z" style="fill:#b2b2b2;fill-rule:nonzero;"/><path d="M203.6,155.1c-1.9,1.9 -5.1,1.9 -7.1,0c-0.2,-0.2 -0.2,-0.5 0,-0.8c0.2,-0.2 0.5,-0.2 0.8,0c1.5,1.5 4,1.5 5.6,0c0.2,-0.2 0.5,-0.2 0.8,0c0.1,0.3 0.1,0.6 -0.1,0.8Z" style="fill:#b2b2b2;fill-rule:nonzero;"/><path d="M212.7,170.5c-0.2,0.2 -0.5,0.2 -0.8,0c-1.9,-1.9 -1.9,-5.1 0,-7.1c0.2,-0.2 0.5,-0.2 0.8,0c0.2,0.2 0.2,0.5 0,0.8c-1.5,1.5 -1.5,4 0,5.6c0.2,0.2 0.2,0.5 0,0.7Z" style="fill:#b2b2b2;fill-rule:nonzero;"/><path d="M176.9,181.9c-0.2,0.2 -0.5,0.2 -0.8,0c-0.2,-0.2 -0.2,-0.5 0,-0.8c1.5,-1.5 1.5,-4 0,-5.6c-0.2,-0.2 -0.2,-0.5 0,-0.8c0.2,-0.3 0.5,-0.2 0.8,0c1.9,2.1 1.9,5.3 0,7.2Z" style="fill:#b2b2b2;fill-rule:nonzero;"/><path d="M192.2,191c-0.2,0.2 -0.5,0.2 -0.8,0c-1.5,-1.5 -4,-1.5 -5.6,0c-0.2,0.2 -0.5,0.2 -0.8,0c-0.2,-0.2 -0.2,-0.5 0,-0.8c1.9,-1.9 5.1,-1.9 7.1,0c0.4,0.2 0.4,0.6 0.1,0.8Z" style="fill:#b2b2b2;fill-rule:nonzero;"/></g><path d="M199,170.6c-0.4,0.1 -0.6,0.4 -0.4,0.8c0.6,1.5 0.3,3.1 -0.7,4.1c-1,1 -2.4,1.3 -3.8,0.9l2.1,-2.1c0.3,-0.3 0.3,-0.6 0,-0.9c-0.3,-0.3 -0.6,-0.3 -0.9,0l-2.4,2.4c-0.3,-0.2 -0.6,-0.4 -0.9,-0.7c-0.2,-0.2 -0.5,-0.5 -0.6,-0.8l2.4,-2.4c0.3,-0.3 0.3,-0.6 0,-0.9c-0.3,-0.3 -0.6,-0.3 -0.9,0l-2.1,2.1c-0.4,-1.4 -0.2,-2.9 0.9,-3.9c1,-1 2.6,-1.3 4.1,-0.7c0.4,0 0.6,-0.1 0.8,-0.4c0,-0.4 -0.1,-0.6 -0.4,-0.8c-2,-0.8 -4.1,-0.4 -5.4,1c-1.6,1.6 -1.8,3.9 -0.9,5.9l-1,1c-0.3,0.3 -0.3,0.6 0,0.9c0.3,0.3 0.6,0.3 0.9,0l0.8,-0.8c0.2,0.2 0.4,0.5 0.6,0.7c0.3,0.3 0.6,0.6 1,0.8l-0.8,0.8c-0.3,0.3 -0.3,0.6 0,0.9c0.3,0.3 0.6,0.3 0.9,0l1.1,-1.1c1.9,0.7 4.1,0.4 5.5,-1c1.3,-1.3 1.8,-3.4 1.2,-5.3c-0.4,-0.5 -0.8,-0.6 -1.1,-0.5Z" style="fill:#b2b2b2;fill-rule:nonzero;"/></g><g><g><path d="M70.1,215.8l-26.8,-26.8c-0.2,-0.2 -0.2,-0.5 0,-0.8l15.4,-15.2c0.2,-0.2 0.5,-0.2 0.8,0l26.8,26.8c0.2,0.2 0.2,0.5 0,0.8l-15.4,15.4c-0.3,0 -0.6,0 -0.8,-0.2Zm-25.6,-27.1l26,26l14.6,-14.6l-26,-26l-14.6,14.6Z" style="fill:#b2b2b2;fill-rule:nonzero;"/><path d="M82.3,203.6c-1.9,-1.9 -1.9,-5.1 0,-7.1c0.2,-0.2 0.5,-0.2 0.8,0c0.2,0.2 0.2,0.5 0,0.8c-1.5,1.5 -1.5,4 0,5.6c0.2,0.2 0.2,0.5 0,0.8c-0.2,0.1 -0.6,0.1 -0.8,-0.1Z" style="fill:#b2b2b2;fill-rule:nonzero;"/><path d="M66.9,212.7c-0.2,-0.2 -0.2,-0.5 0,-0.8c1.9,-1.9 5.1,-1.9 7.1,0c0.2,0.2 0.2,0.5 0,0.8c-0.2,0.2 -0.5,0.2 -0.8,0c-1.5,-1.5 -4,-1.5 -5.6,0c-0.1,0.2 -0.4,0.2 -0.7,0Z" style="fill:#b2b2b2;fill-rule:nonzero;"/><path d="M55.6,176.9c-0.2,-0.2 -0.2,-0.5 0,-0.8c0.2,-0.3 0.5,-0.2 0.8,0c1.5,1.5 4,1.5 5.6,0c0.2,-0.2 0.5,-0.2 0.8,0c0.3,0.2 0.2,0.5 0,0.8c-2.1,1.9 -5.3,1.9 -7.2,0Z" style="fill:#b2b2b2;fill-rule:nonzero;"/><path d="M46.5,192.2c-0.2,-0.2 -0.2,-0.5 0,-0.8c1.5,-1.5 1.5,-4 0,-5.6c-0.2,-0.2 -0.2,-0.5 0,-0.8c0.2,-0.2 0.5,-0.2 0.8,0c1.9,1.9 1.9,5.1 0,7.1c-0.2,0.3 -0.6,0.3 -0.8,0.1Z" style="fill:#b2b2b2;fill-rule:nonzero;"/></g><path d="M66.8,199c-0.1,-0.4 -0.4,-0.6 -0.8,-0.4c-1.5,0.6 -3.1,0.3 -4.1,-0.7c-1,-1 -1.3,-2.4 -0.9,-3.8l2.1,2.1c0.3,0.3 0.6,0.3 0.9,0c0.3,-0.3 0.3,-0.6 0,-0.9l-2.4,-2.4c0.2,-0.3 0.4,-0.6 0.7,-0.9c0.2,-0.2 0.5,-0.5 0.8,-0.6l2.4,2.4c0.3,0.3 0.6,0.3 0.9,0c0.3,-0.3 0.3,-0.6 0,-0.9l-2.1,-2.1c1.4,-0.4 2.9,-0.2 3.9,0.9c1,1 1.3,2.6 0.7,4.1c0,0.4 0.1,0.6 0.4,0.8c0.4,0 0.6,-0.1 0.8,-0.4c0.8,-2 0.4,-4.1 -1,-5.4c-1.6,-1.6 -3.9,-1.8 -5.9,-0.9l-1,-1c-0.3,-0.3 -0.6,-0.3 -0.9,0c-0.3,0.3 -0.3,0.6 0,0.9l0.8,0.8c-0.2,0.2 -0.5,0.4 -0.7,0.6c-0.3,0.3 -0.6,0.6 -0.8,1l-0.8,-0.8c-0.3,-0.3 -0.6,-0.3 -0.9,0c-0.3,0.3 -0.3,0.6 0,0.9l1.1,1.1c-0.7,1.9 -0.4,4.1 1,5.5c1.3,1.3 3.4,1.8 5.3,1.2c0.5,-0.4 0.7,-0.8 0.5,-1.1Z" style="fill:#b2b2b2;fill-rule:nonzero;"/></g><g><g><path d="M129.4,167.4l-26.8,26.8c-0.2,0.2 -0.5,0.2 -0.8,0l-15.4,-15.4c-0.2,-0.2 -0.2,-0.5 0,-0.8l26.8,-26.8c0.2,-0.2 0.5,-0.2 0.8,0l15.4,15.4c0.3,0.2 0.3,0.6 0,0.8Zm-27.1,25.6l26,-26l-14.6,-14.6l-26,26l14.6,14.6Z" style="fill:#b2b2b2;fill-rule:nonzero;"/><path d="M117.2,155.1c-1.9,1.9 -5.1,1.9 -7.1,0c-0.2,-0.2 -0.2,-0.5 0,-0.8c0.2,-0.2 0.5,-0.2 0.8,0c1.5,1.5 4,1.5 5.6,0c0.2,-0.2 0.5,-0.2 0.8,0c0.1,0.3 0.1,0.6 -0.1,0.8Z" style="fill:#b2b2b2;fill-rule:nonzero;"/><path d="M126.3,170.5c-0.2,0.2 -0.5,0.2 -0.8,0c-1.9,-1.9 -1.9,-5.1 0,-7.1c0.2,-0.2 0.5,-0.2 0.8,0c0.2,0.2 0.2,0.5 0,0.8c-1.5,1.5 -1.5,4 0,5.6c0.2,0.2 0.2,0.5 0,0.7Z" style="fill:#b2b2b2;fill-rule:nonzero;"/><path d="M90.5,181.9c-0.2,0.2 -0.5,0.2 -0.8,0c-0.2,-0.2 -0.2,-0.5 0,-0.8c1.5,-1.5 1.5,-4 0,-5.6c-0.2,-0.2 -0.2,-0.5 0,-0.8c0.2,-0.2 0.5,-0.2 0.8,0c1.9,2.1 1.9,5.3 0,7.2Z" style="fill:#b2b2b2;fill-rule:nonzero;"/><path d="M105.8,191c-0.2,0.2 -0.5,0.2 -0.8,0c-1.5,-1.5 -4,-1.5 -5.6,0c-0.2,0.2 -0.5,0.2 -0.8,0c-0.2,-0.2 -0.2,-0.5 0,-0.8c1.9,-1.9 5.1,-1.9 7.1,0c0.4,0.2 0.4,0.6 0.1,0.8Z" style="fill:#b2b2b2;fill-rule:nonzero;"/></g><path d="M112.6,170.6c-0.4,0.1 -0.6,0.4 -0.4,0.8c0.6,1.5 0.3,3.1 -0.7,4.1c-1,1 -2.4,1.3 -3.8,0.9l2.1,-2.1c0.3,-0.3 0.3,-0.6 0,-0.9c-0.3,-0.3 -0.6,-0.3 -0.9,0l-2.4,2.4c-0.3,-0.2 -0.6,-0.4 -0.9,-0.7c-0.2,-0.2 -0.5,-0.5 -0.6,-0.8l2.4,-2.4c0.3,-0.3 0.3,-0.6 0,-0.9c-0.3,-0.3 -0.6,-0.3 -0.9,0l-2.1,2.1c-0.4,-1.4 -0.2,-2.9 0.9,-3.9c1,-1 2.6,-1.3 4.1,-0.7c0.4,0 0.6,-0.1 0.8,-0.4c0,-0.4 -0.1,-0.6 -0.4,-0.8c-2,-0.8 -4.1,-0.4 -5.4,1c-1.6,1.6 -1.8,3.9 -0.9,5.9l-1,1c-0.3,0.3 -0.3,0.6 0,0.9c0.3,0.3 0.6,0.3 0.9,0l0.8,-0.8c0.2,0.2 0.4,0.5 0.6,0.7c0.3,0.3 0.6,0.6 1,0.8l-0.8,0.8c-0.3,0.3 -0.3,0.6 0,0.9c0.3,0.3 0.6,0.3 0.9,0l1.1,-1.1c1.9,0.7 4.1,0.4 5.5,-1c1.3,-1.3 1.8,-3.4 1.2,-5.3c-0.4,-0.5 -0.8,-0.6 -1.1,-0.5Z" style="fill:#b2b2b2;fill-rule:nonzero;"/></g></g></svg>