<?xml version="1.0" encoding="UTF-8" standalone="no"?><!DOCTYPE svg PUBLIC "-//W3C//DTD SVG 1.1//EN" "http://www.w3.org/Graphics/SVG/1.1/DTD/svg11.dtd"><svg width="100%" height="100%" viewBox="0 0 199 216" version="1.1" xmlns="http://www.w3.org/2000/svg" xmlns:xlink="http://www.w3.org/1999/xlink" xml:space="preserve" style="fill-rule:evenodd;clip-rule:evenodd;stroke-miterlimit:10;"><path id="Combined-Shape" d="M11.7,13.1c-3.4,0 -6.1,-2.7 -6.1,-6.1c0,-3.4 2.7,-6 6.1,-6c3.4,0 6.1,2.7 6.1,6.1c0,3.4 -2.8,6 -6.1,6Zm4.4,1.9c3.4,0 6.2,2.8 6.2,6.2l0,12.7c0,3 -2.1,5.5 -5,6.1l0,13.8c0,2.5 -2.1,4.6 -4.6,4.6l-2,0c-2.5,0 -4.6,-2.1 -4.6,-4.6l0,-13.7c-2.9,-0.6 -5,-3.1 -5,-6.1l0,-12.7c-0.1,-3.5 2.7,-6.3 6.1,-6.3l8.9,0Zm-4.4,61.1c-3.4,0 -6.1,-2.7 -6.1,-6.1c0,-3.4 2.7,-6.1 6.1,-6.1c3.4,0 6.1,2.7 6.1,6.1c0,3.4 -2.8,6.1 -6.1,6.1Zm4.4,1.9c1.7,0 3.2,0.7 4.4,1.8c1.2,1.2 1.8,2.8 1.8,4.4l0,12.7c0,3 -2.1,5.5 -5,6.1l0,13.9c0,1.2 -0.5,2.4 -1.3,3.3c-0.9,0.9 -2,1.3 -3.3,1.3l-2,0c-2.5,0 -4.6,-2.1 -4.6,-4.6l0,-13.8c-3,-0.6 -5.1,-3.2 -5,-6.2l0,-12.7c-0.1,-3.5 2.7,-6.2 6.1,-6.2l8.9,0Zm-4.4,61c-3.4,0 -6.1,-2.7 -6.1,-6.1c0,-3.4 2.7,-6.1 6.1,-6.1c3.4,0 6.1,2.7 6.1,6.1c-0.1,3.4 -2.8,6.1 -6.1,6.1Zm4.4,1.9c3.5,0 6.2,2.8 6.2,6.2l0,12.7c0,3 -2.1,5.5 -5,6.1l0,13.8c0,2.5 -2.1,4.6 -4.6,4.6l-2,0c-2.5,0 -4.6,-2.1 -4.6,-4.6l0,-13.8c-2.9,-0.6 -5,-3.1 -5,-6.1l0,-12.7c0,-3.4 2.8,-6.2 6.2,-6.2l8.8,0Zm20.7,-97.1c-3.4,0 -6.1,-2.7 -6.1,-6.1c0,-3.4 2.7,-6.1 6.1,-6.1c3.4,0 6.1,2.7 6.1,6.1c-0.1,3.4 -2.8,6.1 -6.1,6.1Zm4.4,1.9c1.7,0 3.3,0.6 4.5,1.8c1.2,1.2 1.9,2.8 1.9,4.4l0,12.7c0,3 -2.1,5.5 -5,6.1l0,13.8c0,2.5 -2.1,4.6 -4.6,4.6l-2,0c-1.3,0 -2.5,-0.4 -3.4,-1.3c-0.9,-0.9 -1.4,-2.1 -1.4,-3.3l0,-13.8c-2.9,-0.6 -5,-3.1 -5,-6.1l0,-12.7c0,-1.7 0.7,-3.3 1.9,-4.4c1.2,-1.2 2.8,-1.8 4.5,-1.8l8.6,0Zm-4.4,61c-3.4,0 -6.1,-2.7 -6.1,-6.1c0,-3.4 2.7,-6.1 6.1,-6.1c3.4,0 6.1,2.7 6.1,6.1c0,3.4 -2.8,6.1 -6.1,6.1Zm4.4,1.9c3.4,0 6.2,2.8 6.2,6.2l0,12.7c0,2.9 -2.1,5.5 -4.9,6.1l0,13.8c0,2.5 -2.1,4.6 -4.6,4.6l-2,0c-1.2,0 -2.4,-0.4 -3.3,-1.3c-0.9,-0.9 -1.4,-2 -1.4,-3.3l0,-13.8c-2.9,-0.6 -5,-3.1 -5,-6.1l0,-12.7c0,-1.7 0.7,-3.3 1.9,-4.4c1.2,-1.2 2.8,-1.8 4.5,-1.8l8.6,0Zm-4.4,61.1c-3.4,0 -6.1,-2.7 -6.1,-6.1c0,-3.4 2.7,-6.1 6.1,-6.1c3.4,0 6.1,2.7 6.1,6.1c-0.1,3.3 -2.8,6.1 -6.1,6.1Zm4.4,1.9c1.7,0 3.3,0.6 4.4,1.8c1.2,1.2 1.9,2.7 1.9,4.4l0,12.7c0,3 -2.1,5.5 -5,6.1l0,13.8c0,2.5 -2.1,4.6 -4.6,4.6l-2,0c-1.2,0 -2.5,-0.4 -3.4,-1.3c-0.9,-0.9 -1.4,-2.1 -1.4,-3.3l0,-13.8c-2.9,-0.6 -5,-3.1 -5,-6.1l0,-12.7c0,-1.7 0.7,-3.2 1.9,-4.4c1.2,-1.2 2.8,-1.8 4.4,-1.8l8.8,0Zm20.7,-158.5c-3.4,0 -6.1,-2.7 -6.1,-6.1c0,-3.4 2.7,-6 6.1,-6c3.3,0 6.1,2.7 6.1,6.1c0,3.4 -2.8,6 -6.1,6Zm4.4,1.9c1.7,0 3.3,0.6 4.4,1.8c1.1,1.2 1.8,2.8 1.9,4.4l0,12.7c0,3 -2.2,5.6 -5.2,6.1l0,13.8c0,2.5 -2.1,4.6 -4.6,4.6l-1.9,0c-1.2,0 -2.4,-0.5 -3.3,-1.3c-0.9,-0.8 -1.3,-2 -1.3,-3.3l0,-13.7c-2.9,-0.6 -5,-3.1 -5,-6.1l0,-12.7c0,-3.4 2.8,-6.2 6.2,-6.2l8.8,0l0,-0.1Zm-4.4,61.1c-3.4,0 -6.1,-2.7 -6.1,-6.1c0,-3.4 2.7,-6.1 6.1,-6.1c3.4,0 6.1,2.7 6.1,6.1c0,3.4 -2.8,6.1 -6.1,6.1Zm4.4,1.9c1.7,0 3.3,0.6 4.4,1.8c1.2,1.2 1.8,2.8 1.8,4.4l0,12.7c0,3 -2.2,5.6 -5.2,6.1l0,13.9c0,1.2 -0.5,2.4 -1.3,3.3c-0.9,0.9 -2,1.3 -3.3,1.3l-1.9,0c-2.5,0 -4.6,-2.1 -4.6,-4.6l0,-13.8c-3,-0.6 -5.1,-3.2 -5,-6.2l0,-12.7c0,-3.4 2.8,-6.2 6.2,-6.2l8.9,0Zm-4.4,61c-3.4,0 -6.1,-2.7 -6.1,-6.1c0,-3.4 2.7,-6.1 6.1,-6.1c3.4,0 6.1,2.7 6.1,6.1c0,3.4 -2.8,6.1 -6.1,6.1Zm4.4,1.9c1.7,0 3.3,0.6 4.4,1.8c1.2,1.2 1.8,2.8 1.8,4.4l0,12.7c0,3 -2.2,5.6 -5.2,6.1l0,13.8c0,2.5 -2.1,4.6 -4.6,4.6l-1.9,0c-1.2,0 -2.4,-0.5 -3.3,-1.3c-0.9,-0.8 -1.3,-2 -1.3,-3.3l0,-13.8c-2.9,-0.6 -5,-3.1 -5,-6.1l0,-12.7c0,-3.4 2.8,-6.2 6.2,-6.2l8.9,0Zm20.7,-97.1c-3.4,0 -6.1,-2.7 -6.1,-6.1c0,-3.4 2.7,-6.1 6.1,-6.1c3.4,0 6.1,2.7 6.1,6.1c0,3.4 -2.7,6.1 -6.1,6.1Zm4.4,1.9c3.4,0 6.2,2.8 6.2,6.2l0,12.7c0,3 -2.1,5.5 -5,6.1l0,13.8c0,2.5 -2.1,4.6 -4.6,4.6l-2,0c-2.5,0 -4.6,-2.1 -4.6,-4.6l0,-13.8c-2.9,-0.6 -5,-3.1 -5,-6.1l0,-12.7c0,-3.4 2.8,-6.2 6.2,-6.2l8.8,0Zm-4.4,61c-3.4,0 -6.1,-2.7 -6.1,-6.1c0,-3.4 2.7,-6.1 6.1,-6.1c3.4,0 6.1,2.7 6.1,6.1c0,3.4 -2.7,6.1 -6.1,6.1Zm4.4,1.9c3.4,0 6.2,2.8 6.2,6.2l0,12.7c0,3 -2.1,5.5 -5,6.1l0,13.8c0,2.5 -2.1,4.6 -4.6,4.6l-2,0c-2.5,0 -4.6,-2 -4.6,-4.5l0,-13.8c-2.9,-0.6 -5,-3.1 -5,-6.1l0,-12.7c0,-3.4 2.8,-6.2 6.2,-6.2l8.8,0l0,-0.1Zm-4.4,61.1c-3.4,0 -6.1,-2.7 -6.1,-6.1c0,-3.4 2.7,-6.1 6.1,-6.1c3.4,0 6.1,2.7 6.1,6.1c0,3.3 -2.7,6.1 -6.1,6.1Zm4.4,1.9c3.4,0 6.2,2.8 6.2,6.2l0,12.7c0,3 -2.1,5.5 -5,6.1l0,13.8c0,2.5 -2.1,4.6 -4.6,4.6l-2,0c-2.5,0 -4.6,-2.1 -4.6,-4.6l0,-13.8c-2.9,-0.6 -5,-3.1 -5,-6.1l0,-12.7c0,-3.4 2.8,-6.2 6.2,-6.2l8.8,0Zm20.7,-158.5c-3.4,0 -6.1,-2.7 -6.1,-6.1c0,-3.4 2.7,-6.1 6.1,-6.1c3.4,0 6.1,2.7 6.1,6.1c0,3.4 -2.7,6.1 -6.1,6.1Zm4.4,1.9c3.4,0 6.2,2.8 6.2,6.2l0,12.7c0,3 -2.1,5.5 -5,6.1l0,13.8c0,2.5 -2.1,4.6 -4.6,4.6l-2,0c-2.5,0 -4.6,-2.1 -4.6,-4.6l0,-13.7c-2.9,-0.6 -5,-3.1 -5,-6.1l0,-12.7c0,-3.4 2.8,-6.2 6.2,-6.2l8.8,0l0,-0.1Zm-4.4,61.1c-3.4,0 -6.1,-2.7 -6.1,-6.1c0,-3.4 2.7,-6.1 6.1,-6.1c3.4,0 6.1,2.7 6.1,6.1c0,3.4 -2.7,6.1 -6.1,6.1Zm4.4,1.9c1.7,0 3.2,0.7 4.4,1.8c1.2,1.2 1.8,2.8 1.8,4.4l0,12.7c0,3 -2.1,5.5 -5,6.1l0,13.9c0,1.2 -0.5,2.4 -1.3,3.3c-0.9,0.9 -2,1.3 -3.3,1.3l-2,0c-2.5,0 -4.6,-2.1 -4.6,-4.6l0,-13.8c-3,-0.6 -5.1,-3.2 -5,-6.2l0,-12.7c0,-3.4 2.8,-6.2 6.2,-6.2l8.8,0Zm-4.4,61c-3.4,0 -6.1,-2.7 -6.1,-6.1c0,-3.4 2.7,-6.1 6.1,-6.1c3.4,0 6.1,2.7 6.1,6.1c0,3.4 -2.7,6.1 -6.1,6.1Zm4.4,1.9c3.5,0 6.2,2.8 6.2,6.2l0,12.7c0,3 -2.1,5.5 -5,6.1l0,13.8c0,2.5 -2.1,4.6 -4.6,4.6l-2,0c-2.5,0 -4.6,-2.1 -4.6,-4.6l0,-13.8c-2.9,-0.6 -5,-3.1 -5,-6.1l0,-12.7c0,-3.4 2.8,-6.2 6.2,-6.2l8.8,0Zm20.7,-97.1c-3.4,0 -6.1,-2.7 -6.1,-6.1c0,-3.4 2.7,-6.1 6.1,-6.1c3.4,0 6.1,2.7 6.1,6.1c0,3.4 -2.7,6.1 -6.1,6.1Zm4.4,1.9c1.7,0 3.3,0.6 4.5,1.8c1.2,1.2 1.9,2.8 1.9,4.4l0,12.7c0,3 -2.1,5.5 -5,6.1l0,13.8c0,2.5 -2.1,4.6 -4.6,4.6l-2,0c-1.3,0 -2.5,-0.4 -3.4,-1.3c-0.9,-0.9 -1.4,-2.1 -1.4,-3.3l0,-13.8c-2.9,-0.6 -5,-3.1 -5,-6.1l0,-12.7c0,-1.7 0.7,-3.3 1.9,-4.4c1.2,-1.2 2.8,-1.8 4.5,-1.8l8.6,0Zm-4.4,61c-3.4,0 -6.1,-2.7 -6.1,-6.1c0,-3.4 2.7,-6.1 6.1,-6.1c3.4,0 6.1,2.7 6.1,6.1c0,3.4 -2.7,6.1 -6.1,6.1Zm4.4,1.9c3.4,0 6.2,2.8 6.2,6.2l0,12.7c0,2.9 -2.1,5.5 -4.9,6.1l0,13.8c0,2.5 -2.1,4.6 -4.6,4.6l-2,0c-1.2,0 -2.4,-0.4 -3.3,-1.3c-0.9,-0.9 -1.4,-2 -1.4,-3.3l0,-13.8c-2.9,-0.6 -5,-3.1 -5,-6.1l0,-12.7c0,-1.7 0.7,-3.3 1.9,-4.4c1.2,-1.2 2.8,-1.8 4.5,-1.8l8.6,0Zm-4.4,61.1c-3.4,0 -6.1,-2.7 -6.1,-6.1c0,-3.4 2.7,-6.1 6.1,-6.1c3.4,0 6.1,2.7 6.1,6.1c0,3.3 -2.7,6.1 -6.1,6.1Zm4.4,1.9c1.7,0 3.3,0.6 4.4,1.8c1.2,1.2 1.9,2.7 1.9,4.4l0,12.7c0,3 -2.1,5.5 -5,6.1l0,13.8c0,2.5 -2.1,4.6 -4.6,4.6l-2,0c-1.2,0 -2.5,-0.4 -3.4,-1.3c-0.9,-0.9 -1.4,-2.1 -1.4,-3.3l0,-13.8c-2.9,-0.6 -5,-3.1 -5,-6.1l0,-12.7c0,-1.7 0.7,-3.2 1.9,-4.4c1.2,-1.2 2.8,-1.8 4.4,-1.8l8.8,0Zm20.7,-158.5c-3.4,0 -6.1,-2.7 -6.1,-6.1c0,-3.4 2.8,-6 6.1,-6c3.3,0 6.1,2.7 6.1,6.1c0,3.4 -2.7,6 -6.1,6Zm4.4,1.9c1.7,0 3.3,0.6 4.4,1.8c1.2,1.2 1.8,2.8 1.9,4.4l0,12.7c0,3 -2.2,5.6 -5.2,6.1l0,13.8c0,2.5 -2.1,4.6 -4.6,4.6l-1.9,0c-2.5,0 -4.6,-2.1 -4.6,-4.6l0,-13.7c-2.9,-0.6 -5,-3.1 -5,-6.1l0,-12.7c0,-3.4 2.8,-6.2 6.2,-6.2l8.8,0l0,-0.1Zm-4.4,61.1c-3.4,0 -6.1,-2.7 -6.1,-6.1c0,-3.4 2.7,-6.1 6.1,-6.1c3.4,0 6.1,2.7 6.1,6.1c0,3.4 -2.7,6.1 -6.1,6.1Zm4.4,1.9c1.7,0 3.3,0.6 4.4,1.8c1.1,1.2 1.8,2.8 1.8,4.4l0,12.7c0,3 -2.2,5.6 -5.2,6.1l0,13.9c0,2.5 -2.1,4.6 -4.6,4.6l-1.9,0c-1.2,0 -2.4,-0.5 -3.3,-1.3c-0.9,-0.9 -1.3,-2 -1.3,-3.3l0,-13.8c-3,-0.6 -5.1,-3.2 -5,-6.2l0,-12.7c0,-3.4 2.8,-6.2 6.2,-6.2l8.9,0Zm-4.4,61c-3.4,0 -6.1,-2.7 -6.1,-6.1c0,-3.4 2.7,-6.1 6.1,-6.1c3.4,0 6.1,2.7 6.1,6.1c0,3.4 -2.7,6.1 -6.1,6.1Zm4.4,1.9c1.7,0 3.3,0.6 4.4,1.8c1.2,1.2 1.8,2.8 1.8,4.4l0,12.7c0,3 -2.2,5.6 -5.2,6.1l0,13.8c0,2.5 -2.1,4.6 -4.6,4.6l-1.9,0c-2.5,0 -4.6,-2.1 -4.6,-4.6l0,-13.8c-2.9,-0.6 -5,-3.1 -5,-6.1l0,-12.7c0,-3.4 2.8,-6.2 6.2,-6.2l8.9,0Zm20.7,-97.1c-3.4,0 -6.1,-2.7 -6.1,-6.1c0,-3.4 2.7,-6.1 6.1,-6.1c3.4,0 6.1,2.7 6.1,6.1c0,3.4 -2.7,6.1 -6.1,6.1Zm4.5,1.9c3.4,0 6.2,2.8 6.2,6.2l0,12.7c0,3 -2.1,5.5 -5,6.1l0,13.8c0,2.5 -2.1,4.6 -4.6,4.6l-2,0c-2.5,0 -4.6,-2.1 -4.6,-4.6l0,-13.8c-2.9,-0.6 -5,-3.1 -5,-6.1l0,-12.7c0,-3.4 2.8,-6.2 6.2,-6.2l8.8,0Zm-4.5,61c-3.4,0 -6.1,-2.7 -6.1,-6.1c0,-3.4 2.7,-6.1 6.1,-6.1c3.4,0 6.1,2.7 6.1,6.1c0,3.4 -2.7,6.1 -6.1,6.1Zm4.5,1.9c3.4,0 6.2,2.8 6.2,6.2l0,12.7c0,3 -2.1,5.5 -5,6.1l0,13.8c0,2.5 -2.1,4.6 -4.6,4.6l-2,0c-2.5,0 -4.6,-2 -4.6,-4.5l0,-13.8c-2.9,-0.6 -5,-3.1 -5,-6.1l0,-12.7c0,-3.4 2.8,-6.2 6.2,-6.2l8.8,0l0,-0.1Zm-4.5,61.1c-3.4,0 -6.1,-2.7 -6.1,-6.1c0,-3.4 2.7,-6.1 6.1,-6.1c3.4,0 6.1,2.7 6.1,6.1c0,3.3 -2.7,6.1 -6.1,6.1Zm4.5,1.9c3.4,0 6.2,2.8 6.2,6.2l0,12.7c0,3 -2.1,5.5 -5,6.1l0,13.8c0,2.5 -2.1,4.6 -4.6,4.6l-2,0c-2.5,0 -4.6,-2.1 -4.6,-4.6l0,-13.8c-2.9,-0.6 -5,-3.1 -5,-6.1l0,-12.7c0,-3.4 2.8,-6.2 6.2,-6.2l8.8,0Z" style="fill:none;stroke:#b2b2b2;stroke-width:1.5px;"/></svg>