<?xml version="1.0" encoding="UTF-8" standalone="no"?><!DOCTYPE svg PUBLIC "-//W3C//DTD SVG 1.1//EN" "http://www.w3.org/Graphics/SVG/1.1/DTD/svg11.dtd"><svg width="100%" height="100%" viewBox="0 0 250 250" version="1.1" xmlns="http://www.w3.org/2000/svg" xmlns:xlink="http://www.w3.org/1999/xlink" xml:space="preserve" style="fill-rule:evenodd;clip-rule:evenodd;stroke-linejoin:round;stroke-miterlimit:1.41421;"><g><path d="M181.425,0c3.602,0 5.546,1.082 7.108,1.951c1.303,0.725 2.163,1.204 4.23,1.204c2.067,0 2.928,-0.479 4.231,-1.204c1.562,-0.869 3.506,-1.951 7.108,-1.951c3.603,0 5.546,1.082 7.108,1.951c1.303,0.725 2.164,1.204 4.231,1.204c2.067,0 2.928,-0.479 4.231,-1.204c1.561,-0.869 3.505,-1.951 7.107,-1.951c3.603,0 5.547,1.082 7.108,1.951c1.303,0.725 2.164,1.204 4.231,1.204c2.067,0 2.928,-0.479 4.232,-1.204c1.562,-0.869 3.505,-1.951 7.108,-1.951c3.602,0 5.546,1.082 7.108,1.951c1.303,0.725 2.164,1.204 4.232,1.204c2.067,0 2.928,-0.479 4.231,-1.204c1.562,-0.869 3.506,-1.951 7.108,-1.951l0,5.916c-2.067,0 -2.928,0.479 -4.231,1.204c-1.562,0.869 -3.506,1.951 -7.108,1.951c-3.603,0 -5.547,-1.082 -7.109,-1.951c-1.303,-0.725 -2.164,-1.204 -4.231,-1.204c-2.067,0 -2.928,0.479 -4.231,1.204c-1.562,0.869 -3.506,1.951 -7.109,1.951c-3.602,0 -5.546,-1.082 -7.107,-1.951c-1.303,-0.725 -2.164,-1.204 -4.231,-1.204c-2.067,0 -2.928,0.479 -4.231,1.204c-1.562,0.869 -3.505,1.951 -7.108,1.951c-3.603,0 -5.546,-1.082 -7.108,-1.951c-1.303,-0.725 -2.164,-1.204 -4.231,-1.204c-2.067,0 -2.928,0.479 -4.231,1.204c-1.562,0.869 -3.505,1.951 -7.108,1.951c-3.602,0 -5.546,-1.082 -7.107,-1.951c-1.303,-0.725 -2.164,-1.204 -4.231,-1.204c-2.067,0 -2.929,0.479 -4.232,1.204c-1.562,0.869 -3.505,1.951 -7.108,1.951c-3.603,0 -5.547,-1.082 -7.108,-1.951c-1.303,-0.725 -2.165,-1.204 -4.232,-1.204c-2.067,0 -2.928,0.479 -4.231,1.204c-1.562,0.869 -3.506,1.951 -7.108,1.951c-3.603,0 -5.546,-1.082 -7.108,-1.951c-1.303,-0.725 -2.164,-1.204 -4.231,-1.204c-2.067,0 -2.927,0.479 -4.23,1.204c-1.562,0.869 -3.506,1.951 -7.108,1.951c-3.603,0 -5.547,-1.082 -7.108,-1.951c-1.303,-0.725 -2.164,-1.204 -4.231,-1.204c-2.067,0 -2.928,0.479 -4.231,1.204c-1.562,0.869 -3.506,1.951 -7.108,1.951c-3.602,0 -5.546,-1.082 -7.108,-1.951c-1.303,-0.725 -2.164,-1.204 -4.231,-1.204c-2.067,0 -2.928,0.479 -4.231,1.204c-1.562,0.869 -3.506,1.951 -7.108,1.951c-3.603,0 -5.547,-1.082 -7.109,-1.951c-1.303,-0.725 -2.164,-1.204 -4.231,-1.204c-2.067,0 -2.928,0.479 -4.231,1.204c-1.562,0.869 -3.506,1.951 -7.109,1.951c-3.602,0 -5.546,-1.082 -7.107,-1.951c-1.303,-0.725 -2.164,-1.204 -4.231,-1.204c-2.067,0 -2.928,0.479 -4.231,1.204c-1.562,0.869 -3.505,1.951 -7.108,1.951c-3.603,0 -5.546,-1.082 -7.108,-1.951c-1.303,-0.725 -2.164,-1.204 -4.231,-1.204c-2.066,0 -2.928,0.479 -4.231,1.204c-1.562,0.869 -3.505,1.951 -7.108,1.951c-3.602,0 -5.546,-1.082 -7.107,-1.951c-1.303,-0.725 -2.164,-1.204 -4.231,-1.204l0,-5.916c3.602,0 5.546,1.082 7.108,1.951c1.303,0.725 2.163,1.204 4.23,1.204c2.067,0 2.928,-0.479 4.231,-1.204c1.562,-0.869 3.506,-1.951 7.108,-1.951c3.603,0 5.546,1.082 7.108,1.951c1.303,0.725 2.164,1.204 4.231,1.204c2.067,0 2.928,-0.479 4.231,-1.204c1.561,-0.869 3.505,-1.951 7.107,-1.951c3.603,0 5.547,1.082 7.108,1.951c1.303,0.725 2.164,1.204 4.231,1.204c2.067,0 2.928,-0.479 4.232,-1.204c1.562,-0.869 3.505,-1.951 7.108,-1.951c3.602,0 5.546,1.082 7.108,1.951c1.303,0.725 2.164,1.204 4.232,1.204c2.067,0 2.928,-0.479 4.231,-1.204c1.562,-0.869 3.506,-1.951 7.108,-1.951c3.603,0 5.547,1.082 7.108,1.951c1.303,0.725 2.164,1.204 4.231,1.204c2.067,0 2.928,-0.479 4.231,-1.204c1.562,-0.869 3.505,-1.951 7.108,-1.951c3.602,0 5.546,1.082 7.108,1.951c1.303,0.725 2.164,1.204 4.23,1.204c2.067,0 2.928,-0.479 4.231,-1.204c1.562,-0.869 3.506,-1.951 7.108,-1.951c3.602,0 5.546,1.082 7.108,1.951c1.303,0.725 2.164,1.204 4.231,1.204c2.067,0 2.928,-0.479 4.231,-1.204c1.562,-0.869 3.506,-1.951 7.108,-1.951c3.603,0 5.547,1.082 7.108,1.951c1.304,0.725 2.165,1.204 4.232,1.204c2.067,0 2.929,-0.479 4.232,-1.204c1.562,-0.869 3.505,-1.951 7.108,-1.951Z" style="stroke:#000;stroke-width:1px;"/><path d="M181.425,24.093c3.602,0 5.546,1.082 7.108,1.951c1.303,0.725 2.163,1.204 4.23,1.204c2.067,0 2.928,-0.479 4.231,-1.204c1.562,-0.869 3.506,-1.951 7.108,-1.951c3.603,0 5.546,1.082 7.108,1.951c1.303,0.725 2.164,1.204 4.231,1.204c2.067,0 2.928,-0.479 4.231,-1.204c1.561,-0.869 3.505,-1.951 7.107,-1.951c3.603,0 5.547,1.082 7.108,1.951c1.303,0.725 2.164,1.204 4.231,1.204c2.067,0 2.928,-0.479 4.232,-1.204c1.562,-0.869 3.505,-1.951 7.108,-1.951c3.602,0 5.546,1.082 7.108,1.951c1.303,0.725 2.164,1.204 4.232,1.204c2.067,0 2.928,-0.479 4.231,-1.204c1.562,-0.869 3.506,-1.951 7.108,-1.951l0,5.916c-2.067,0 -2.928,0.479 -4.231,1.204c-1.562,0.869 -3.506,1.951 -7.108,1.951c-3.603,0 -5.547,-1.082 -7.109,-1.951c-1.303,-0.725 -2.164,-1.204 -4.231,-1.204c-2.067,0 -2.928,0.479 -4.231,1.204c-1.562,0.869 -3.506,1.951 -7.109,1.951c-3.602,0 -5.546,-1.082 -7.107,-1.951c-1.303,-0.725 -2.164,-1.204 -4.231,-1.204c-2.067,0 -2.928,0.479 -4.231,1.204c-1.562,0.869 -3.505,1.951 -7.108,1.951c-3.603,0 -5.546,-1.082 -7.108,-1.951c-1.303,-0.725 -2.164,-1.204 -4.231,-1.204c-2.067,0 -2.928,0.479 -4.231,1.204c-1.562,0.869 -3.505,1.951 -7.108,1.951c-3.602,0 -5.546,-1.082 -7.107,-1.951c-1.303,-0.725 -2.164,-1.204 -4.231,-1.204c-2.067,0 -2.929,0.479 -4.232,1.204c-1.562,0.869 -3.505,1.951 -7.108,1.951c-3.603,0 -5.547,-1.082 -7.108,-1.951c-1.303,-0.725 -2.165,-1.204 -4.232,-1.204c-2.067,0 -2.928,0.479 -4.231,1.204c-1.562,0.869 -3.506,1.951 -7.108,1.951c-3.603,0 -5.546,-1.082 -7.108,-1.951c-1.303,-0.725 -2.164,-1.204 -4.231,-1.204c-2.067,0 -2.927,0.479 -4.23,1.204c-1.562,0.869 -3.506,1.951 -7.108,1.951c-3.603,0 -5.547,-1.082 -7.108,-1.951c-1.303,-0.725 -2.164,-1.204 -4.231,-1.204c-2.067,0 -2.928,0.479 -4.231,1.204c-1.562,0.869 -3.506,1.951 -7.108,1.951c-3.602,0 -5.546,-1.082 -7.108,-1.951c-1.303,-0.725 -2.164,-1.204 -4.231,-1.204c-2.067,0 -2.928,0.479 -4.231,1.204c-1.562,0.869 -3.506,1.951 -7.108,1.951c-3.603,0 -5.547,-1.082 -7.109,-1.951c-1.303,-0.725 -2.164,-1.204 -4.231,-1.204c-2.067,0 -2.928,0.479 -4.231,1.204c-1.562,0.869 -3.506,1.951 -7.109,1.951c-3.602,0 -5.546,-1.082 -7.107,-1.951c-1.303,-0.725 -2.164,-1.204 -4.231,-1.204c-2.067,0 -2.928,0.479 -4.231,1.204c-1.562,0.869 -3.505,1.951 -7.108,1.951c-3.603,0 -5.546,-1.082 -7.108,-1.951c-1.303,-0.725 -2.164,-1.204 -4.231,-1.204c-2.066,0 -2.928,0.479 -4.231,1.204c-1.562,0.869 -3.505,1.951 -7.108,1.951c-3.602,0 -5.546,-1.082 -7.107,-1.951c-1.303,-0.725 -2.164,-1.204 -4.231,-1.204l0,-5.916c3.602,0 5.546,1.082 7.108,1.951c1.303,0.725 2.163,1.204 4.23,1.204c2.067,0 2.928,-0.479 4.231,-1.204c1.562,-0.869 3.506,-1.951 7.108,-1.951c3.603,0 5.546,1.082 7.108,1.951c1.303,0.725 2.164,1.204 4.231,1.204c2.067,0 2.928,-0.479 4.231,-1.204c1.561,-0.869 3.505,-1.951 7.107,-1.951c3.603,0 5.547,1.082 7.108,1.951c1.303,0.725 2.164,1.204 4.231,1.204c2.067,0 2.928,-0.479 4.232,-1.204c1.562,-0.869 3.505,-1.951 7.108,-1.951c3.602,0 5.546,1.082 7.108,1.951c1.303,0.725 2.164,1.204 4.232,1.204c2.067,0 2.928,-0.479 4.231,-1.204c1.562,-0.869 3.506,-1.951 7.108,-1.951c3.603,0 5.547,1.082 7.108,1.951c1.303,0.725 2.164,1.204 4.231,1.204c2.067,0 2.928,-0.479 4.231,-1.204c1.562,-0.869 3.505,-1.951 7.108,-1.951c3.602,0 5.546,1.082 7.108,1.951c1.303,0.725 2.164,1.204 4.23,1.204c2.067,0 2.928,-0.479 4.231,-1.204c1.562,-0.869 3.506,-1.951 7.108,-1.951c3.602,0 5.546,1.082 7.108,1.951c1.303,0.725 2.164,1.204 4.231,1.204c2.067,0 2.928,-0.479 4.231,-1.204c1.562,-0.869 3.506,-1.951 7.108,-1.951c3.603,0 5.547,1.082 7.108,1.951c1.304,0.725 2.165,1.204 4.232,1.204c2.067,0 2.929,-0.479 4.232,-1.204c1.562,-0.869 3.505,-1.951 7.108,-1.951Z" style="stroke:#000;stroke-width:1.5px;"/><path d="M181.425,120.464c3.602,0 5.546,1.082 7.108,1.951c1.303,0.725 2.163,1.205 4.23,1.205c2.067,0 2.928,-0.48 4.231,-1.205c1.562,-0.869 3.506,-1.951 7.108,-1.951c3.603,0 5.546,1.082 7.108,1.951c1.303,0.725 2.164,1.205 4.231,1.205c2.067,0 2.928,-0.48 4.231,-1.205c1.561,-0.869 3.505,-1.951 7.107,-1.951c3.603,0 5.547,1.082 7.108,1.951c1.303,0.725 2.164,1.205 4.231,1.205c2.067,0 2.928,-0.48 4.232,-1.205c1.562,-0.869 3.505,-1.951 7.108,-1.951c3.602,0 5.546,1.082 7.108,1.951c1.303,0.725 2.164,1.205 4.232,1.205c2.067,0 2.928,-0.48 4.231,-1.205c1.562,-0.869 3.506,-1.951 7.108,-1.951l0,5.916c-2.067,0 -2.928,0.48 -4.231,1.205c-1.562,0.869 -3.506,1.951 -7.108,1.951c-3.603,0 -5.547,-1.082 -7.109,-1.951c-1.303,-0.725 -2.164,-1.205 -4.231,-1.205c-2.067,0 -2.928,0.48 -4.231,1.205c-1.562,0.869 -3.506,1.951 -7.109,1.951c-3.602,0 -5.546,-1.082 -7.107,-1.951c-1.303,-0.725 -2.164,-1.205 -4.231,-1.205c-2.067,0 -2.928,0.479 -4.231,1.205c-1.562,0.869 -3.505,1.951 -7.108,1.951c-3.603,0 -5.546,-1.082 -7.108,-1.951c-1.303,-0.725 -2.164,-1.205 -4.231,-1.205c-2.067,0 -2.928,0.48 -4.231,1.205c-1.562,0.869 -3.505,1.951 -7.108,1.951c-3.602,0 -5.546,-1.082 -7.107,-1.951c-1.303,-0.725 -2.164,-1.205 -4.231,-1.205c-2.067,0 -2.929,0.48 -4.232,1.205c-1.562,0.869 -3.505,1.951 -7.108,1.951c-3.603,0 -5.547,-1.082 -7.108,-1.951c-1.303,-0.725 -2.165,-1.205 -4.232,-1.205c-2.067,0 -2.928,0.48 -4.231,1.205c-1.562,0.869 -3.506,1.951 -7.108,1.951c-3.603,0 -5.546,-1.082 -7.108,-1.951c-1.303,-0.725 -2.164,-1.205 -4.231,-1.205c-2.067,0 -2.927,0.479 -4.23,1.205c-1.562,0.869 -3.506,1.951 -7.108,1.951c-3.603,0 -5.547,-1.082 -7.108,-1.951c-1.303,-0.725 -2.164,-1.205 -4.231,-1.205c-2.067,0 -2.928,0.48 -4.231,1.205c-1.562,0.869 -3.506,1.951 -7.108,1.951c-3.602,0 -5.546,-1.082 -7.108,-1.951c-1.303,-0.725 -2.164,-1.205 -4.231,-1.205c-2.067,0 -2.928,0.48 -4.231,1.205c-1.562,0.869 -3.506,1.951 -7.108,1.951c-3.603,0 -5.547,-1.082 -7.109,-1.951c-1.303,-0.725 -2.164,-1.205 -4.231,-1.205c-2.067,0 -2.928,0.48 -4.231,1.205c-1.562,0.869 -3.506,1.951 -7.109,1.951c-3.602,0 -5.546,-1.082 -7.107,-1.951c-1.303,-0.725 -2.164,-1.205 -4.231,-1.205c-2.067,0 -2.928,0.479 -4.231,1.205c-1.562,0.869 -3.505,1.951 -7.108,1.951c-3.603,0 -5.546,-1.082 -7.108,-1.951c-1.303,-0.725 -2.164,-1.205 -4.231,-1.205c-2.066,0 -2.928,0.48 -4.231,1.205c-1.562,0.869 -3.505,1.951 -7.108,1.951c-3.602,0 -5.546,-1.082 -7.107,-1.951c-1.303,-0.725 -2.164,-1.205 -4.231,-1.205l0,-5.916c3.602,0 5.546,1.082 7.108,1.951c1.303,0.725 2.163,1.205 4.23,1.205c2.067,0 2.928,-0.48 4.231,-1.205c1.562,-0.869 3.506,-1.951 7.108,-1.951c3.603,0 5.546,1.082 7.108,1.951c1.303,0.725 2.164,1.205 4.231,1.205c2.067,0 2.928,-0.48 4.231,-1.205c1.561,-0.869 3.505,-1.951 7.107,-1.951c3.603,0 5.547,1.082 7.108,1.951c1.303,0.725 2.164,1.205 4.231,1.205c2.067,0 2.928,-0.48 4.232,-1.205c1.562,-0.869 3.505,-1.951 7.108,-1.951c3.602,0 5.546,1.082 7.108,1.951c1.303,0.725 2.164,1.205 4.232,1.205c2.067,0 2.928,-0.48 4.231,-1.205c1.562,-0.869 3.506,-1.951 7.108,-1.951c3.603,0 5.547,1.082 7.108,1.951c1.303,0.725 2.164,1.205 4.231,1.205c2.067,0 2.928,-0.48 4.231,-1.205c1.562,-0.869 3.505,-1.951 7.108,-1.951c3.602,0 5.546,1.082 7.108,1.951c1.303,0.725 2.164,1.205 4.23,1.205c2.067,0 2.928,-0.48 4.231,-1.205c1.562,-0.869 3.506,-1.951 7.108,-1.951c3.602,0 5.546,1.082 7.108,1.951c1.303,0.725 2.164,1.205 4.231,1.205c2.067,0 2.928,-0.48 4.231,-1.205c1.562,-0.869 3.506,-1.951 7.108,-1.951c3.603,0 5.547,1.082 7.108,1.951c1.304,0.725 2.165,1.205 4.232,1.205c2.067,0 2.929,-0.48 4.232,-1.205c1.562,-0.869 3.505,-1.951 7.108,-1.951Z" style="stroke:#000;stroke-width:1px;"/><path d="M181.425,144.557c3.602,0 5.546,1.082 7.108,1.951c1.303,0.725 2.163,1.204 4.23,1.204c2.067,0 2.928,-0.479 4.231,-1.204c1.562,-0.869 3.506,-1.951 7.108,-1.951c3.603,0 5.546,1.082 7.108,1.951c1.303,0.725 2.164,1.204 4.231,1.204c2.067,0 2.928,-0.479 4.231,-1.204c1.561,-0.869 3.505,-1.951 7.107,-1.951c3.603,0 5.547,1.082 7.108,1.951c1.303,0.725 2.164,1.204 4.231,1.204c2.067,0 2.928,-0.479 4.232,-1.204c1.562,-0.869 3.505,-1.951 7.108,-1.951c3.602,0 5.546,1.082 7.108,1.951c1.303,0.725 2.164,1.204 4.232,1.204c2.067,0 2.928,-0.479 4.231,-1.204c1.562,-0.869 3.506,-1.951 7.108,-1.951l0,5.916c-2.067,0 -2.928,0.479 -4.231,1.205c-1.562,0.869 -3.506,1.95 -7.108,1.95c-3.603,0 -5.547,-1.081 -7.109,-1.95c-1.303,-0.725 -2.164,-1.205 -4.231,-1.205c-2.067,0 -2.928,0.479 -4.231,1.205c-1.562,0.869 -3.506,1.95 -7.109,1.95c-3.602,0 -5.546,-1.081 -7.107,-1.95c-1.303,-0.725 -2.164,-1.205 -4.231,-1.205c-2.067,0 -2.928,0.479 -4.231,1.205c-1.562,0.869 -3.505,1.95 -7.108,1.95c-3.603,0 -5.546,-1.081 -7.108,-1.95c-1.303,-0.726 -2.164,-1.205 -4.231,-1.205c-2.067,0 -2.928,0.479 -4.231,1.205c-1.562,0.869 -3.505,1.95 -7.108,1.95c-3.602,0 -5.546,-1.081 -7.107,-1.95c-1.303,-0.725 -2.164,-1.205 -4.231,-1.205c-2.067,0 -2.929,0.479 -4.232,1.205c-1.562,0.869 -3.505,1.95 -7.108,1.95c-3.603,0 -5.547,-1.081 -7.108,-1.95c-1.303,-0.725 -2.165,-1.205 -4.232,-1.205c-2.067,0 -2.928,0.479 -4.231,1.205c-1.562,0.869 -3.506,1.95 -7.108,1.95c-3.603,0 -5.546,-1.081 -7.108,-1.95c-1.303,-0.725 -2.164,-1.205 -4.231,-1.205c-2.067,0 -2.927,0.479 -4.23,1.205c-1.562,0.869 -3.506,1.95 -7.108,1.95c-3.603,0 -5.547,-1.081 -7.108,-1.95c-1.303,-0.726 -2.164,-1.205 -4.231,-1.205c-2.067,0 -2.928,0.479 -4.231,1.205c-1.562,0.869 -3.506,1.95 -7.108,1.95c-3.602,0 -5.546,-1.081 -7.108,-1.95c-1.303,-0.725 -2.164,-1.205 -4.231,-1.205c-2.067,0 -2.928,0.479 -4.231,1.205c-1.562,0.869 -3.506,1.95 -7.108,1.95c-3.603,0 -5.547,-1.081 -7.109,-1.95c-1.303,-0.725 -2.164,-1.205 -4.231,-1.205c-2.067,0 -2.928,0.479 -4.231,1.205c-1.562,0.869 -3.506,1.95 -7.109,1.95c-3.602,0 -5.546,-1.081 -7.107,-1.95c-1.303,-0.725 -2.164,-1.205 -4.231,-1.205c-2.067,0 -2.928,0.479 -4.231,1.205c-1.562,0.869 -3.505,1.95 -7.108,1.95c-3.603,0 -5.546,-1.081 -7.108,-1.95c-1.303,-0.726 -2.164,-1.205 -4.231,-1.205c-2.066,0 -2.928,0.479 -4.231,1.205c-1.562,0.869 -3.505,1.95 -7.108,1.95c-3.602,0 -5.546,-1.081 -7.107,-1.95c-1.303,-0.725 -2.164,-1.205 -4.231,-1.205l0,-5.916c3.602,0 5.546,1.082 7.108,1.951c1.303,0.725 2.163,1.204 4.23,1.204c2.067,0 2.928,-0.479 4.231,-1.204c1.562,-0.869 3.506,-1.951 7.108,-1.951c3.603,0 5.546,1.082 7.108,1.951c1.303,0.725 2.164,1.204 4.231,1.204c2.067,0 2.928,-0.479 4.231,-1.204c1.561,-0.869 3.505,-1.951 7.107,-1.951c3.603,0 5.547,1.082 7.108,1.951c1.303,0.725 2.164,1.204 4.231,1.204c2.067,0 2.928,-0.479 4.232,-1.204c1.562,-0.869 3.505,-1.951 7.108,-1.951c3.602,0 5.546,1.082 7.108,1.951c1.303,0.725 2.164,1.204 4.232,1.204c2.067,0 2.928,-0.479 4.231,-1.204c1.562,-0.869 3.506,-1.951 7.108,-1.951c3.603,0 5.547,1.082 7.108,1.951c1.303,0.725 2.164,1.204 4.231,1.204c2.067,0 2.928,-0.479 4.231,-1.204c1.562,-0.869 3.505,-1.951 7.108,-1.951c3.602,0 5.546,1.082 7.108,1.951c1.303,0.725 2.164,1.204 4.23,1.204c2.067,0 2.928,-0.479 4.231,-1.204c1.562,-0.869 3.506,-1.951 7.108,-1.951c3.602,0 5.546,1.082 7.108,1.951c1.303,0.725 2.164,1.204 4.231,1.204c2.067,0 2.928,-0.479 4.231,-1.204c1.562,-0.869 3.506,-1.951 7.108,-1.951c3.603,0 5.547,1.082 7.108,1.951c1.304,0.725 2.165,1.204 4.232,1.204c2.067,0 2.929,-0.479 4.232,-1.204c1.562,-0.869 3.505,-1.951 7.108,-1.951Z" style="stroke:#000;stroke-width:1px;"/><path d="M181.425,96.372c3.602,0 5.546,1.081 7.108,1.95c1.303,0.726 2.163,1.205 4.23,1.205c2.067,0 2.928,-0.479 4.231,-1.205c1.562,-0.869 3.506,-1.95 7.108,-1.95c3.603,0 5.546,1.081 7.108,1.95c1.303,0.726 2.164,1.205 4.231,1.205c2.067,0 2.928,-0.479 4.231,-1.205c1.561,-0.869 3.505,-1.95 7.107,-1.95c3.603,0 5.547,1.081 7.108,1.95c1.303,0.726 2.164,1.205 4.231,1.205c2.067,0 2.928,-0.479 4.232,-1.205c1.562,-0.869 3.505,-1.95 7.108,-1.95c3.602,0 5.546,1.081 7.108,1.95c1.303,0.725 2.164,1.205 4.232,1.205c2.067,0 2.928,-0.479 4.231,-1.205c1.562,-0.869 3.506,-1.95 7.108,-1.95l0,5.916c-2.067,0 -2.928,0.479 -4.231,1.204c-1.562,0.869 -3.506,1.951 -7.108,1.951c-3.603,0 -5.547,-1.082 -7.109,-1.951c-1.303,-0.725 -2.164,-1.204 -4.231,-1.204c-2.067,0 -2.928,0.479 -4.231,1.204c-1.562,0.869 -3.506,1.951 -7.109,1.951c-3.602,0 -5.546,-1.082 -7.107,-1.951c-1.303,-0.725 -2.164,-1.204 -4.231,-1.204c-2.067,0 -2.928,0.478 -4.231,1.204c-1.562,0.869 -3.505,1.951 -7.108,1.951c-3.603,0 -5.546,-1.082 -7.108,-1.951c-1.303,-0.725 -2.164,-1.204 -4.231,-1.204c-2.067,0 -2.928,0.479 -4.231,1.204c-1.562,0.869 -3.505,1.951 -7.108,1.951c-3.602,0 -5.546,-1.082 -7.107,-1.951c-1.303,-0.725 -2.164,-1.204 -4.231,-1.204c-2.067,0 -2.929,0.479 -4.232,1.204c-1.562,0.869 -3.505,1.951 -7.108,1.951c-3.603,0 -5.547,-1.082 -7.108,-1.951c-1.303,-0.725 -2.165,-1.204 -4.232,-1.204c-2.067,0 -2.928,0.479 -4.231,1.204c-1.562,0.869 -3.506,1.951 -7.108,1.951c-3.603,0 -5.546,-1.082 -7.108,-1.951c-1.303,-0.725 -2.164,-1.204 -4.231,-1.204c-2.067,0 -2.927,0.478 -4.23,1.204c-1.562,0.869 -3.506,1.951 -7.108,1.951c-3.603,0 -5.547,-1.082 -7.108,-1.951c-1.303,-0.725 -2.164,-1.204 -4.231,-1.204c-2.067,0 -2.928,0.479 -4.231,1.204c-1.562,0.869 -3.506,1.951 -7.108,1.951c-3.602,0 -5.546,-1.082 -7.108,-1.951c-1.303,-0.725 -2.164,-1.204 -4.231,-1.204c-2.067,0 -2.928,0.479 -4.231,1.204c-1.562,0.869 -3.506,1.951 -7.108,1.951c-3.603,0 -5.547,-1.082 -7.109,-1.951c-1.303,-0.725 -2.164,-1.204 -4.231,-1.204c-2.067,0 -2.928,0.479 -4.231,1.204c-1.562,0.869 -3.506,1.951 -7.109,1.951c-3.602,0 -5.546,-1.082 -7.107,-1.951c-1.303,-0.725 -2.164,-1.204 -4.231,-1.204c-2.067,0 -2.928,0.478 -4.231,1.204c-1.562,0.869 -3.505,1.951 -7.108,1.951c-3.603,0 -5.546,-1.082 -7.108,-1.951c-1.303,-0.725 -2.164,-1.204 -4.231,-1.204c-2.066,0 -2.928,0.479 -4.231,1.204c-1.562,0.869 -3.505,1.951 -7.108,1.951c-3.602,0 -5.546,-1.082 -7.107,-1.951c-1.303,-0.725 -2.164,-1.204 -4.231,-1.204l0,-5.916c3.602,0 5.546,1.081 7.108,1.95c1.303,0.726 2.163,1.205 4.23,1.205c2.067,0 2.928,-0.479 4.231,-1.205c1.562,-0.869 3.506,-1.95 7.108,-1.95c3.603,0 5.546,1.081 7.108,1.95c1.303,0.726 2.164,1.205 4.231,1.205c2.067,0 2.928,-0.479 4.231,-1.205c1.561,-0.869 3.505,-1.95 7.107,-1.95c3.603,0 5.547,1.081 7.108,1.95c1.303,0.726 2.164,1.205 4.231,1.205c2.067,0 2.928,-0.479 4.232,-1.205c1.562,-0.869 3.505,-1.95 7.108,-1.95c3.602,0 5.546,1.081 7.108,1.95c1.303,0.725 2.164,1.205 4.232,1.205c2.067,0 2.928,-0.479 4.231,-1.205c1.562,-0.869 3.506,-1.95 7.108,-1.95c3.603,0 5.547,1.081 7.108,1.95c1.303,0.726 2.164,1.205 4.231,1.205c2.067,0 2.928,-0.479 4.231,-1.205c1.562,-0.869 3.505,-1.95 7.108,-1.95c3.602,0 5.546,1.081 7.108,1.95c1.303,0.726 2.164,1.205 4.23,1.205c2.067,0 2.928,-0.479 4.231,-1.205c1.562,-0.869 3.506,-1.95 7.108,-1.95c3.602,0 5.546,1.081 7.108,1.95c1.303,0.726 2.164,1.205 4.231,1.205c2.067,0 2.928,-0.479 4.231,-1.205c1.562,-0.869 3.506,-1.95 7.108,-1.95c3.603,0 5.547,1.081 7.108,1.95c1.304,0.725 2.165,1.205 4.232,1.205c2.067,0 2.929,-0.479 4.232,-1.205c1.562,-0.869 3.505,-1.95 7.108,-1.95Z" style="stroke:#000;stroke-width:1px;"/><path d="M181.425,72.279c3.602,0 5.546,1.081 7.108,1.951c1.303,0.725 2.163,1.204 4.23,1.204c2.067,0 2.928,-0.479 4.231,-1.204c1.562,-0.87 3.506,-1.951 7.108,-1.951c3.603,0 5.546,1.081 7.108,1.951c1.303,0.725 2.164,1.204 4.231,1.204c2.067,0 2.928,-0.479 4.231,-1.204c1.561,-0.87 3.505,-1.951 7.107,-1.951c3.603,0 5.547,1.081 7.108,1.951c1.303,0.725 2.164,1.204 4.231,1.204c2.067,0 2.928,-0.479 4.232,-1.204c1.562,-0.87 3.505,-1.951 7.108,-1.951c3.602,0 5.546,1.081 7.108,1.951c1.303,0.725 2.164,1.204 4.232,1.204c2.067,0 2.928,-0.479 4.231,-1.204c1.562,-0.87 3.506,-1.951 7.108,-1.951l0,5.916c-2.067,0 -2.928,0.479 -4.231,1.204c-1.562,0.869 -3.506,1.951 -7.108,1.951c-3.603,0 -5.547,-1.082 -7.109,-1.951c-1.303,-0.725 -2.164,-1.204 -4.231,-1.204c-2.067,0 -2.928,0.479 -4.231,1.204c-1.562,0.869 -3.506,1.951 -7.109,1.951c-3.602,0 -5.546,-1.082 -7.107,-1.951c-1.303,-0.725 -2.164,-1.204 -4.231,-1.204c-2.067,0 -2.928,0.479 -4.231,1.204c-1.562,0.869 -3.505,1.951 -7.108,1.951c-3.603,0 -5.546,-1.082 -7.108,-1.951c-1.303,-0.725 -2.164,-1.204 -4.231,-1.204c-2.067,0 -2.928,0.479 -4.231,1.204c-1.562,0.869 -3.505,1.951 -7.108,1.951c-3.602,0 -5.546,-1.082 -7.107,-1.951c-1.303,-0.725 -2.164,-1.204 -4.231,-1.204c-2.067,0 -2.929,0.479 -4.232,1.204c-1.562,0.869 -3.505,1.951 -7.108,1.951c-3.603,0 -5.547,-1.082 -7.108,-1.951c-1.303,-0.725 -2.165,-1.204 -4.232,-1.204c-2.067,0 -2.928,0.479 -4.231,1.204c-1.562,0.869 -3.506,1.951 -7.108,1.951c-3.603,0 -5.546,-1.082 -7.108,-1.951c-1.303,-0.725 -2.164,-1.204 -4.231,-1.204c-2.067,0 -2.927,0.479 -4.23,1.204c-1.562,0.869 -3.506,1.951 -7.108,1.951c-3.603,0 -5.547,-1.082 -7.108,-1.951c-1.303,-0.725 -2.164,-1.204 -4.231,-1.204c-2.067,0 -2.928,0.479 -4.231,1.204c-1.562,0.869 -3.506,1.951 -7.108,1.951c-3.602,0 -5.546,-1.082 -7.108,-1.951c-1.303,-0.725 -2.164,-1.204 -4.231,-1.204c-2.067,0 -2.928,0.479 -4.231,1.204c-1.562,0.869 -3.506,1.951 -7.108,1.951c-3.603,0 -5.547,-1.082 -7.109,-1.951c-1.303,-0.725 -2.164,-1.204 -4.231,-1.204c-2.067,0 -2.928,0.479 -4.231,1.204c-1.562,0.869 -3.506,1.951 -7.109,1.951c-3.602,0 -5.546,-1.082 -7.107,-1.951c-1.303,-0.725 -2.164,-1.204 -4.231,-1.204c-2.067,0 -2.928,0.479 -4.231,1.204c-1.562,0.869 -3.505,1.951 -7.108,1.951c-3.603,0 -5.546,-1.082 -7.108,-1.951c-1.303,-0.725 -2.164,-1.204 -4.231,-1.204c-2.066,0 -2.928,0.479 -4.231,1.204c-1.562,0.869 -3.505,1.951 -7.108,1.951c-3.602,0 -5.546,-1.082 -7.107,-1.951c-1.303,-0.725 -2.164,-1.204 -4.231,-1.204l0,-5.916c3.602,0 5.546,1.081 7.108,1.951c1.303,0.725 2.163,1.204 4.23,1.204c2.067,0 2.928,-0.479 4.231,-1.204c1.562,-0.87 3.506,-1.951 7.108,-1.951c3.603,0 5.546,1.081 7.108,1.951c1.303,0.725 2.164,1.204 4.231,1.204c2.067,0 2.928,-0.479 4.231,-1.204c1.561,-0.87 3.505,-1.951 7.107,-1.951c3.603,0 5.547,1.081 7.108,1.951c1.303,0.725 2.164,1.204 4.231,1.204c2.067,0 2.928,-0.479 4.232,-1.204c1.562,-0.87 3.505,-1.951 7.108,-1.951c3.602,0 5.546,1.081 7.108,1.951c1.303,0.725 2.164,1.204 4.232,1.204c2.067,0 2.928,-0.479 4.231,-1.204c1.562,-0.87 3.506,-1.951 7.108,-1.951c3.603,0 5.547,1.081 7.108,1.951c1.303,0.725 2.164,1.204 4.231,1.204c2.067,0 2.928,-0.479 4.231,-1.204c1.562,-0.87 3.505,-1.951 7.108,-1.951c3.602,0 5.546,1.081 7.108,1.951c1.303,0.725 2.164,1.204 4.23,1.204c2.067,0 2.928,-0.479 4.231,-1.204c1.562,-0.87 3.506,-1.951 7.108,-1.951c3.602,0 5.546,1.081 7.108,1.951c1.303,0.725 2.164,1.204 4.231,1.204c2.067,0 2.928,-0.479 4.231,-1.204c1.562,-0.87 3.506,-1.951 7.108,-1.951c3.603,0 5.547,1.081 7.108,1.951c1.304,0.725 2.165,1.204 4.232,1.204c2.067,0 2.929,-0.479 4.232,-1.204c1.562,-0.87 3.505,-1.951 7.108,-1.951Z" style="stroke:#000;stroke-width:1px;"/><path d="M181.425,48.186c3.602,0 5.546,1.082 7.108,1.951c1.303,0.725 2.163,1.204 4.23,1.204c2.067,0 2.928,-0.479 4.231,-1.204c1.562,-0.87 3.506,-1.951 7.108,-1.951c3.603,0 5.546,1.081 7.108,1.951c1.303,0.725 2.164,1.204 4.231,1.204c2.067,0 2.928,-0.479 4.231,-1.204c1.561,-0.87 3.505,-1.951 7.107,-1.951c3.603,0 5.547,1.081 7.108,1.951c1.303,0.725 2.164,1.204 4.231,1.204c2.067,0 2.928,-0.479 4.232,-1.204c1.562,-0.87 3.505,-1.951 7.108,-1.951c3.602,0 5.546,1.082 7.108,1.951c1.303,0.725 2.164,1.204 4.232,1.204c2.067,0 2.928,-0.479 4.231,-1.204c1.562,-0.87 3.506,-1.951 7.108,-1.951l0,5.916c-2.067,0 -2.928,0.479 -4.231,1.204c-1.562,0.869 -3.506,1.951 -7.108,1.951c-3.603,0 -5.547,-1.082 -7.109,-1.951c-1.303,-0.725 -2.164,-1.204 -4.231,-1.204c-2.067,0 -2.928,0.479 -4.231,1.204c-1.562,0.869 -3.506,1.951 -7.109,1.951c-3.602,0 -5.546,-1.082 -7.107,-1.951c-1.303,-0.725 -2.164,-1.204 -4.231,-1.204c-2.067,0 -2.928,0.479 -4.231,1.204c-1.562,0.869 -3.505,1.951 -7.108,1.951c-3.603,0 -5.546,-1.082 -7.108,-1.951c-1.303,-0.725 -2.164,-1.204 -4.231,-1.204c-2.067,0 -2.928,0.479 -4.231,1.204c-1.562,0.869 -3.505,1.951 -7.108,1.951c-3.602,0 -5.546,-1.082 -7.107,-1.951c-1.303,-0.725 -2.164,-1.204 -4.231,-1.204c-2.067,0 -2.929,0.479 -4.232,1.204c-1.562,0.869 -3.505,1.951 -7.108,1.951c-3.603,0 -5.547,-1.082 -7.108,-1.951c-1.303,-0.725 -2.165,-1.204 -4.232,-1.204c-2.067,0 -2.928,0.479 -4.231,1.204c-1.562,0.869 -3.506,1.951 -7.108,1.951c-3.603,0 -5.546,-1.082 -7.108,-1.951c-1.303,-0.725 -2.164,-1.204 -4.231,-1.204c-2.067,0 -2.927,0.479 -4.23,1.204c-1.562,0.869 -3.506,1.951 -7.108,1.951c-3.603,0 -5.547,-1.082 -7.108,-1.951c-1.303,-0.725 -2.164,-1.204 -4.231,-1.204c-2.067,0 -2.928,0.479 -4.231,1.204c-1.562,0.869 -3.506,1.951 -7.108,1.951c-3.602,0 -5.546,-1.082 -7.108,-1.951c-1.303,-0.725 -2.164,-1.204 -4.231,-1.204c-2.067,0 -2.928,0.479 -4.231,1.204c-1.562,0.869 -3.506,1.951 -7.108,1.951c-3.603,0 -5.547,-1.082 -7.109,-1.951c-1.303,-0.725 -2.164,-1.204 -4.231,-1.204c-2.067,0 -2.928,0.479 -4.231,1.204c-1.562,0.869 -3.506,1.951 -7.109,1.951c-3.602,0 -5.546,-1.082 -7.107,-1.951c-1.303,-0.725 -2.164,-1.204 -4.231,-1.204c-2.067,0 -2.928,0.479 -4.231,1.204c-1.562,0.869 -3.505,1.951 -7.108,1.951c-3.603,0 -5.546,-1.082 -7.108,-1.951c-1.303,-0.725 -2.164,-1.204 -4.231,-1.204c-2.066,0 -2.928,0.479 -4.231,1.204c-1.562,0.869 -3.505,1.951 -7.108,1.951c-3.602,0 -5.546,-1.082 -7.107,-1.951c-1.303,-0.725 -2.164,-1.204 -4.231,-1.204l0,-5.916c3.602,0 5.546,1.082 7.108,1.951c1.303,0.725 2.163,1.204 4.23,1.204c2.067,0 2.928,-0.479 4.231,-1.204c1.562,-0.87 3.506,-1.951 7.108,-1.951c3.603,0 5.546,1.081 7.108,1.951c1.303,0.725 2.164,1.204 4.231,1.204c2.067,0 2.928,-0.479 4.231,-1.204c1.561,-0.87 3.505,-1.951 7.107,-1.951c3.603,0 5.547,1.081 7.108,1.951c1.303,0.725 2.164,1.204 4.231,1.204c2.067,0 2.928,-0.479 4.232,-1.204c1.562,-0.87 3.505,-1.951 7.108,-1.951c3.602,0 5.546,1.082 7.108,1.951c1.303,0.725 2.164,1.204 4.232,1.204c2.067,0 2.928,-0.479 4.231,-1.204c1.562,-0.87 3.506,-1.951 7.108,-1.951c3.603,0 5.547,1.082 7.108,1.951c1.303,0.725 2.164,1.204 4.231,1.204c2.067,0 2.928,-0.479 4.231,-1.204c1.562,-0.87 3.505,-1.951 7.108,-1.951c3.602,0 5.546,1.081 7.108,1.951c1.303,0.725 2.164,1.204 4.23,1.204c2.067,0 2.928,-0.479 4.231,-1.204c1.562,-0.87 3.506,-1.951 7.108,-1.951c3.602,0 5.546,1.081 7.108,1.951c1.303,0.725 2.164,1.204 4.231,1.204c2.067,0 2.928,-0.479 4.231,-1.204c1.562,-0.87 3.506,-1.951 7.108,-1.951c3.603,0 5.547,1.082 7.108,1.951c1.304,0.725 2.165,1.204 4.232,1.204c2.067,0 2.929,-0.479 4.232,-1.204c1.562,-0.87 3.505,-1.951 7.108,-1.951Z" style="stroke:#000;stroke-width:1px;"/><path d="M181.425,192.743c3.602,0 5.546,1.082 7.108,1.951c1.303,0.725 2.163,1.204 4.23,1.204c2.067,0 2.928,-0.479 4.231,-1.204c1.562,-0.869 3.506,-1.951 7.108,-1.951c3.603,0 5.546,1.082 7.108,1.951c1.303,0.725 2.164,1.204 4.231,1.204c2.067,0 2.928,-0.479 4.231,-1.204c1.561,-0.869 3.505,-1.951 7.107,-1.951c3.603,0 5.547,1.082 7.108,1.951c1.303,0.725 2.164,1.204 4.231,1.204c2.067,0 2.928,-0.479 4.232,-1.204c1.562,-0.869 3.505,-1.951 7.108,-1.951c3.602,0 5.546,1.082 7.108,1.951c1.303,0.725 2.164,1.204 4.232,1.204c2.067,0 2.928,-0.479 4.231,-1.204c1.562,-0.869 3.506,-1.951 7.108,-1.951l0,5.916c-2.067,0 -2.928,0.479 -4.231,1.204c-1.562,0.87 -3.506,1.951 -7.108,1.951c-3.603,0 -5.547,-1.082 -7.109,-1.951c-1.303,-0.725 -2.164,-1.204 -4.231,-1.204c-2.067,0 -2.928,0.479 -4.231,1.204c-1.562,0.87 -3.506,1.951 -7.109,1.951c-3.602,0 -5.546,-1.081 -7.107,-1.951c-1.303,-0.725 -2.164,-1.204 -4.231,-1.204c-2.067,0 -2.928,0.479 -4.231,1.204c-1.562,0.869 -3.505,1.951 -7.108,1.951c-3.603,0 -5.546,-1.081 -7.108,-1.951c-1.303,-0.725 -2.164,-1.204 -4.231,-1.204c-2.067,0 -2.928,0.479 -4.231,1.204c-1.562,0.87 -3.505,1.951 -7.108,1.951c-3.602,0 -5.546,-1.081 -7.107,-1.951c-1.303,-0.725 -2.164,-1.204 -4.231,-1.204c-2.067,0 -2.929,0.479 -4.232,1.204c-1.562,0.87 -3.505,1.951 -7.108,1.951c-3.603,0 -5.547,-1.082 -7.108,-1.951c-1.303,-0.725 -2.165,-1.204 -4.232,-1.204c-2.067,0 -2.928,0.479 -4.231,1.204c-1.562,0.87 -3.506,1.951 -7.108,1.951c-3.603,0 -5.546,-1.081 -7.108,-1.951c-1.303,-0.725 -2.164,-1.204 -4.231,-1.204c-2.067,0 -2.927,0.479 -4.23,1.204c-1.562,0.869 -3.506,1.951 -7.108,1.951c-3.603,0 -5.547,-1.081 -7.108,-1.951c-1.303,-0.725 -2.164,-1.204 -4.231,-1.204c-2.067,0 -2.928,0.479 -4.231,1.204c-1.562,0.87 -3.506,1.951 -7.108,1.951c-3.602,0 -5.546,-1.081 -7.108,-1.951c-1.303,-0.725 -2.164,-1.204 -4.231,-1.204c-2.067,0 -2.928,0.479 -4.231,1.204c-1.562,0.87 -3.506,1.951 -7.108,1.951c-3.603,0 -5.547,-1.082 -7.109,-1.951c-1.303,-0.725 -2.164,-1.204 -4.231,-1.204c-2.067,0 -2.928,0.479 -4.231,1.204c-1.562,0.87 -3.506,1.951 -7.109,1.951c-3.602,0 -5.546,-1.081 -7.107,-1.951c-1.303,-0.725 -2.164,-1.204 -4.231,-1.204c-2.067,0 -2.928,0.479 -4.231,1.204c-1.562,0.869 -3.505,1.951 -7.108,1.951c-3.603,0 -5.546,-1.081 -7.108,-1.951c-1.303,-0.725 -2.164,-1.204 -4.231,-1.204c-2.066,0 -2.928,0.479 -4.231,1.204c-1.562,0.87 -3.505,1.951 -7.108,1.951c-3.602,0 -5.546,-1.081 -7.107,-1.951c-1.303,-0.725 -2.164,-1.204 -4.231,-1.204l0,-5.916c3.602,0 5.546,1.082 7.108,1.951c1.303,0.725 2.163,1.204 4.23,1.204c2.067,0 2.928,-0.479 4.231,-1.204c1.562,-0.869 3.506,-1.951 7.108,-1.951c3.603,0 5.546,1.082 7.108,1.951c1.303,0.725 2.164,1.204 4.231,1.204c2.067,0 2.928,-0.479 4.231,-1.204c1.561,-0.869 3.505,-1.951 7.107,-1.951c3.603,0 5.547,1.082 7.108,1.951c1.303,0.725 2.164,1.204 4.231,1.204c2.067,0 2.928,-0.479 4.232,-1.204c1.562,-0.869 3.505,-1.951 7.108,-1.951c3.602,0 5.546,1.082 7.108,1.951c1.303,0.725 2.164,1.204 4.232,1.204c2.067,0 2.928,-0.479 4.231,-1.204c1.562,-0.869 3.506,-1.951 7.108,-1.951c3.603,0 5.547,1.082 7.108,1.951c1.303,0.725 2.164,1.204 4.231,1.204c2.067,0 2.928,-0.479 4.231,-1.204c1.562,-0.869 3.505,-1.951 7.108,-1.951c3.602,0 5.546,1.082 7.108,1.951c1.303,0.725 2.164,1.204 4.23,1.204c2.067,0 2.928,-0.479 4.231,-1.204c1.562,-0.869 3.506,-1.951 7.108,-1.951c3.602,0 5.546,1.082 7.108,1.951c1.303,0.725 2.164,1.204 4.231,1.204c2.067,0 2.928,-0.479 4.231,-1.204c1.562,-0.869 3.506,-1.951 7.108,-1.951c3.603,0 5.547,1.082 7.108,1.951c1.304,0.725 2.165,1.204 4.232,1.204c2.067,0 2.929,-0.479 4.232,-1.204c1.562,-0.869 3.505,-1.951 7.108,-1.951Z" style="stroke:#000;stroke-width:1px;"/><path d="M181.425,168.65c3.602,0 5.546,1.082 7.108,1.951c1.303,0.725 2.163,1.204 4.23,1.204c2.067,0 2.928,-0.479 4.231,-1.204c1.562,-0.869 3.506,-1.951 7.108,-1.951c3.603,0 5.546,1.082 7.108,1.951c1.303,0.725 2.164,1.204 4.231,1.204c2.067,0 2.928,-0.479 4.231,-1.204c1.561,-0.869 3.505,-1.951 7.107,-1.951c3.603,0 5.547,1.082 7.108,1.951c1.303,0.725 2.164,1.204 4.231,1.204c2.067,0 2.928,-0.479 4.232,-1.204c1.562,-0.869 3.505,-1.951 7.108,-1.951c3.602,0 5.546,1.082 7.108,1.951c1.303,0.725 2.164,1.204 4.232,1.204c2.067,0 2.928,-0.479 4.231,-1.204c1.562,-0.869 3.506,-1.951 7.108,-1.951l0,5.916c-2.067,0 -2.928,0.479 -4.231,1.204c-1.562,0.87 -3.506,1.951 -7.108,1.951c-3.603,0 -5.547,-1.081 -7.109,-1.951c-1.303,-0.725 -2.164,-1.204 -4.231,-1.204c-2.067,0 -2.928,0.479 -4.231,1.204c-1.562,0.87 -3.506,1.951 -7.109,1.951c-3.602,0 -5.546,-1.081 -7.107,-1.951c-1.303,-0.725 -2.164,-1.204 -4.231,-1.204c-2.067,0 -2.928,0.479 -4.231,1.204c-1.562,0.87 -3.505,1.951 -7.108,1.951c-3.603,0 -5.546,-1.081 -7.108,-1.951c-1.303,-0.725 -2.164,-1.204 -4.231,-1.204c-2.067,0 -2.928,0.479 -4.231,1.204c-1.562,0.87 -3.505,1.951 -7.108,1.951c-3.602,0 -5.546,-1.081 -7.107,-1.951c-1.303,-0.725 -2.164,-1.204 -4.231,-1.204c-2.067,0 -2.929,0.479 -4.232,1.204c-1.562,0.87 -3.505,1.951 -7.108,1.951c-3.603,0 -5.547,-1.081 -7.108,-1.951c-1.303,-0.725 -2.165,-1.204 -4.232,-1.204c-2.067,0 -2.928,0.479 -4.231,1.204c-1.562,0.87 -3.506,1.951 -7.108,1.951c-3.603,0 -5.546,-1.081 -7.108,-1.951c-1.303,-0.725 -2.164,-1.204 -4.231,-1.204c-2.067,0 -2.927,0.479 -4.23,1.204c-1.562,0.87 -3.506,1.951 -7.108,1.951c-3.603,0 -5.547,-1.081 -7.108,-1.951c-1.303,-0.725 -2.164,-1.204 -4.231,-1.204c-2.067,0 -2.928,0.479 -4.231,1.204c-1.562,0.87 -3.506,1.951 -7.108,1.951c-3.602,0 -5.546,-1.081 -7.108,-1.951c-1.303,-0.725 -2.164,-1.204 -4.231,-1.204c-2.067,0 -2.928,0.479 -4.231,1.204c-1.562,0.87 -3.506,1.951 -7.108,1.951c-3.603,0 -5.547,-1.081 -7.109,-1.951c-1.303,-0.725 -2.164,-1.204 -4.231,-1.204c-2.067,0 -2.928,0.479 -4.231,1.204c-1.562,0.87 -3.506,1.951 -7.109,1.951c-3.602,0 -5.546,-1.081 -7.107,-1.951c-1.303,-0.725 -2.164,-1.204 -4.231,-1.204c-2.067,0 -2.928,0.479 -4.231,1.204c-1.562,0.87 -3.505,1.951 -7.108,1.951c-3.603,0 -5.546,-1.081 -7.108,-1.951c-1.303,-0.725 -2.164,-1.204 -4.231,-1.204c-2.066,0 -2.928,0.479 -4.231,1.204c-1.562,0.87 -3.505,1.951 -7.108,1.951c-3.602,0 -5.546,-1.081 -7.107,-1.951c-1.303,-0.725 -2.164,-1.204 -4.231,-1.204l0,-5.916c3.602,0 5.546,1.082 7.108,1.951c1.303,0.725 2.163,1.204 4.23,1.204c2.067,0 2.928,-0.479 4.231,-1.204c1.562,-0.869 3.506,-1.951 7.108,-1.951c3.603,0 5.546,1.082 7.108,1.951c1.303,0.725 2.164,1.204 4.231,1.204c2.067,0 2.928,-0.479 4.231,-1.204c1.561,-0.869 3.505,-1.951 7.107,-1.951c3.603,0 5.547,1.082 7.108,1.951c1.303,0.725 2.164,1.204 4.231,1.204c2.067,0 2.928,-0.479 4.232,-1.204c1.562,-0.869 3.505,-1.951 7.108,-1.951c3.602,0 5.546,1.082 7.108,1.951c1.303,0.725 2.164,1.204 4.232,1.204c2.067,0 2.928,-0.479 4.231,-1.204c1.562,-0.869 3.506,-1.951 7.108,-1.951c3.603,0 5.547,1.082 7.108,1.951c1.303,0.725 2.164,1.204 4.231,1.204c2.067,0 2.928,-0.479 4.231,-1.204c1.562,-0.869 3.505,-1.951 7.108,-1.951c3.602,0 5.546,1.082 7.108,1.951c1.303,0.725 2.164,1.204 4.23,1.204c2.067,0 2.928,-0.479 4.231,-1.204c1.562,-0.869 3.506,-1.951 7.108,-1.951c3.602,0 5.546,1.082 7.108,1.951c1.303,0.725 2.164,1.204 4.231,1.204c2.067,0 2.928,-0.479 4.231,-1.204c1.562,-0.869 3.506,-1.951 7.108,-1.951c3.603,0 5.547,1.082 7.108,1.951c1.304,0.725 2.165,1.204 4.232,1.204c2.067,0 2.929,-0.479 4.232,-1.204c1.562,-0.869 3.505,-1.951 7.108,-1.951Z" style="stroke:#000;stroke-width:1px;"/><path d="M181.425,216.836c3.602,0 5.546,1.082 7.108,1.951c1.303,0.725 2.163,1.204 4.23,1.204c2.067,0 2.928,-0.479 4.231,-1.204c1.562,-0.869 3.506,-1.951 7.108,-1.951c3.603,0 5.546,1.082 7.108,1.951c1.303,0.725 2.164,1.204 4.231,1.204c2.067,0 2.928,-0.479 4.231,-1.204c1.561,-0.869 3.505,-1.951 7.107,-1.951c3.603,0 5.547,1.082 7.108,1.951c1.303,0.725 2.164,1.204 4.231,1.204c2.067,0 2.928,-0.479 4.232,-1.204c1.562,-0.869 3.505,-1.951 7.108,-1.951c3.602,0 5.546,1.082 7.108,1.951c1.303,0.725 2.164,1.204 4.232,1.204c2.067,0 2.928,-0.479 4.231,-1.204c1.562,-0.869 3.506,-1.951 7.108,-1.951l0,5.916c-2.067,0 -2.928,0.479 -4.231,1.204c-1.562,0.869 -3.506,1.951 -7.108,1.951c-3.603,0 -5.547,-1.082 -7.109,-1.951c-1.303,-0.725 -2.164,-1.204 -4.231,-1.204c-2.067,0 -2.928,0.479 -4.231,1.204c-1.562,0.869 -3.506,1.951 -7.109,1.951c-3.602,0 -5.546,-1.082 -7.107,-1.951c-1.303,-0.725 -2.164,-1.204 -4.231,-1.204c-2.067,0 -2.928,0.479 -4.231,1.204c-1.562,0.869 -3.505,1.951 -7.108,1.951c-3.603,0 -5.546,-1.082 -7.108,-1.951c-1.303,-0.725 -2.164,-1.204 -4.231,-1.204c-2.067,0 -2.928,0.479 -4.231,1.204c-1.562,0.869 -3.505,1.951 -7.108,1.951c-3.602,0 -5.546,-1.082 -7.107,-1.951c-1.303,-0.725 -2.164,-1.204 -4.231,-1.204c-2.067,0 -2.929,0.479 -4.232,1.204c-1.562,0.869 -3.505,1.951 -7.108,1.951c-3.603,0 -5.547,-1.082 -7.108,-1.951c-1.303,-0.725 -2.165,-1.204 -4.232,-1.204c-2.067,0 -2.928,0.479 -4.231,1.204c-1.562,0.869 -3.506,1.951 -7.108,1.951c-3.603,0 -5.546,-1.082 -7.108,-1.951c-1.303,-0.725 -2.164,-1.204 -4.231,-1.204c-2.067,0 -2.927,0.479 -4.23,1.204c-1.562,0.869 -3.506,1.951 -7.108,1.951c-3.603,0 -5.547,-1.082 -7.108,-1.951c-1.303,-0.725 -2.164,-1.204 -4.231,-1.204c-2.067,0 -2.928,0.479 -4.231,1.204c-1.562,0.869 -3.506,1.951 -7.108,1.951c-3.602,0 -5.546,-1.082 -7.108,-1.951c-1.303,-0.725 -2.164,-1.204 -4.231,-1.204c-2.067,0 -2.928,0.479 -4.231,1.204c-1.562,0.869 -3.506,1.951 -7.108,1.951c-3.603,0 -5.547,-1.082 -7.109,-1.951c-1.303,-0.725 -2.164,-1.204 -4.231,-1.204c-2.067,0 -2.928,0.479 -4.231,1.204c-1.562,0.869 -3.506,1.951 -7.109,1.951c-3.602,0 -5.546,-1.082 -7.107,-1.951c-1.303,-0.725 -2.164,-1.204 -4.231,-1.204c-2.067,0 -2.928,0.479 -4.231,1.204c-1.562,0.869 -3.505,1.951 -7.108,1.951c-3.603,0 -5.546,-1.082 -7.108,-1.951c-1.303,-0.725 -2.164,-1.204 -4.231,-1.204c-2.066,0 -2.928,0.479 -4.231,1.204c-1.562,0.869 -3.505,1.951 -7.108,1.951c-3.602,0 -5.546,-1.082 -7.107,-1.951c-1.303,-0.725 -2.164,-1.204 -4.231,-1.204l0,-5.916c3.602,0 5.546,1.082 7.108,1.951c1.303,0.725 2.163,1.204 4.23,1.204c2.067,0 2.928,-0.479 4.231,-1.204c1.562,-0.869 3.506,-1.951 7.108,-1.951c3.603,0 5.546,1.082 7.108,1.951c1.303,0.725 2.164,1.204 4.231,1.204c2.067,0 2.928,-0.479 4.231,-1.204c1.561,-0.869 3.505,-1.951 7.107,-1.951c3.603,0 5.547,1.082 7.108,1.951c1.303,0.725 2.164,1.204 4.231,1.204c2.067,0 2.928,-0.479 4.232,-1.204c1.562,-0.869 3.505,-1.951 7.108,-1.951c3.602,0 5.546,1.082 7.108,1.951c1.303,0.725 2.164,1.204 4.232,1.204c2.067,0 2.928,-0.479 4.231,-1.204c1.562,-0.869 3.506,-1.951 7.108,-1.951c3.603,0 5.547,1.082 7.108,1.951c1.303,0.725 2.164,1.204 4.231,1.204c2.067,0 2.928,-0.479 4.231,-1.204c1.562,-0.869 3.505,-1.951 7.108,-1.951c3.602,0 5.546,1.082 7.108,1.951c1.303,0.725 2.164,1.204 4.23,1.204c2.067,0 2.928,-0.479 4.231,-1.204c1.562,-0.869 3.506,-1.951 7.108,-1.951c3.602,0 5.546,1.082 7.108,1.951c1.303,0.725 2.164,1.204 4.231,1.204c2.067,0 2.928,-0.479 4.231,-1.204c1.562,-0.869 3.506,-1.951 7.108,-1.951c3.603,0 5.547,1.082 7.108,1.951c1.304,0.725 2.165,1.204 4.232,1.204c2.067,0 2.929,-0.479 4.232,-1.204c1.562,-0.869 3.505,-1.951 7.108,-1.951Z" style="stroke:#000;stroke-width:1px;"/><path d="M181.425,240.929c3.602,0 5.546,1.082 7.108,1.951c1.303,0.725 2.163,1.204 4.23,1.204c2.067,0 2.928,-0.479 4.231,-1.204c1.562,-0.869 3.506,-1.951 7.108,-1.951c3.603,0 5.546,1.082 7.108,1.951c1.303,0.725 2.164,1.204 4.231,1.204c2.067,0 2.928,-0.479 4.231,-1.204c1.561,-0.869 3.505,-1.951 7.107,-1.951c3.603,0 5.547,1.082 7.108,1.951c1.303,0.725 2.164,1.204 4.231,1.204c2.067,0 2.928,-0.479 4.232,-1.204c1.562,-0.869 3.505,-1.951 7.108,-1.951c3.602,0 5.546,1.082 7.108,1.951c1.303,0.725 2.164,1.204 4.232,1.204c2.067,0 2.928,-0.479 4.231,-1.204c1.562,-0.869 3.506,-1.951 7.108,-1.951l0,5.916c-2.067,0 -2.928,0.479 -4.231,1.204c-1.562,0.869 -3.506,1.951 -7.108,1.951c-3.603,0 -5.547,-1.082 -7.109,-1.951c-1.303,-0.725 -2.164,-1.204 -4.231,-1.204c-2.067,0 -2.928,0.479 -4.231,1.204c-1.562,0.869 -3.506,1.951 -7.109,1.951c-3.602,0 -5.546,-1.082 -7.107,-1.951c-1.303,-0.725 -2.164,-1.204 -4.231,-1.204c-2.067,0 -2.928,0.479 -4.231,1.204c-1.562,0.869 -3.505,1.951 -7.108,1.951c-3.603,0 -5.546,-1.082 -7.108,-1.951c-1.303,-0.725 -2.164,-1.204 -4.231,-1.204c-2.067,0 -2.928,0.479 -4.231,1.204c-1.562,0.869 -3.505,1.951 -7.108,1.951c-3.602,0 -5.546,-1.082 -7.107,-1.951c-1.303,-0.725 -2.164,-1.204 -4.231,-1.204c-2.067,0 -2.929,0.479 -4.232,1.204c-1.562,0.869 -3.505,1.951 -7.108,1.951c-3.603,0 -5.547,-1.082 -7.108,-1.951c-1.303,-0.725 -2.165,-1.204 -4.232,-1.204c-2.067,0 -2.928,0.479 -4.231,1.204c-1.562,0.869 -3.506,1.951 -7.108,1.951c-3.603,0 -5.546,-1.082 -7.108,-1.951c-1.303,-0.725 -2.164,-1.204 -4.231,-1.204c-2.067,0 -2.927,0.479 -4.23,1.204c-1.562,0.869 -3.506,1.951 -7.108,1.951c-3.603,0 -5.547,-1.082 -7.108,-1.951c-1.303,-0.725 -2.164,-1.204 -4.231,-1.204c-2.067,0 -2.928,0.479 -4.231,1.204c-1.562,0.869 -3.506,1.951 -7.108,1.951c-3.602,0 -5.546,-1.082 -7.108,-1.951c-1.303,-0.725 -2.164,-1.204 -4.231,-1.204c-2.067,0 -2.928,0.479 -4.231,1.204c-1.562,0.869 -3.506,1.951 -7.108,1.951c-3.603,0 -5.547,-1.082 -7.109,-1.951c-1.303,-0.725 -2.164,-1.204 -4.231,-1.204c-2.067,0 -2.928,0.479 -4.231,1.204c-1.562,0.869 -3.506,1.951 -7.109,1.951c-3.602,0 -5.546,-1.082 -7.107,-1.951c-1.303,-0.725 -2.164,-1.204 -4.231,-1.204c-2.067,0 -2.928,0.479 -4.231,1.204c-1.562,0.869 -3.505,1.951 -7.108,1.951c-3.603,0 -5.546,-1.082 -7.108,-1.951c-1.303,-0.725 -2.164,-1.204 -4.231,-1.204c-2.066,0 -2.928,0.479 -4.231,1.204c-1.562,0.869 -3.505,1.951 -7.108,1.951c-3.602,0 -5.546,-1.082 -7.107,-1.951c-1.303,-0.725 -2.164,-1.204 -4.231,-1.204l0,-5.916c3.602,0 5.546,1.082 7.108,1.951c1.303,0.725 2.163,1.204 4.23,1.204c2.067,0 2.928,-0.479 4.231,-1.204c1.562,-0.869 3.506,-1.951 7.108,-1.951c3.603,0 5.546,1.082 7.108,1.951c1.303,0.725 2.164,1.204 4.231,1.204c2.067,0 2.928,-0.479 4.231,-1.204c1.561,-0.869 3.505,-1.951 7.107,-1.951c3.603,0 5.547,1.082 7.108,1.951c1.303,0.725 2.164,1.204 4.231,1.204c2.067,0 2.928,-0.479 4.232,-1.204c1.562,-0.869 3.505,-1.951 7.108,-1.951c3.602,0 5.546,1.082 7.108,1.951c1.303,0.725 2.164,1.204 4.232,1.204c2.067,0 2.928,-0.479 4.231,-1.204c1.562,-0.869 3.506,-1.951 7.108,-1.951c3.603,0 5.547,1.082 7.108,1.951c1.303,0.725 2.164,1.204 4.231,1.204c2.067,0 2.928,-0.479 4.231,-1.204c1.562,-0.869 3.505,-1.951 7.108,-1.951c3.602,0 5.546,1.082 7.108,1.951c1.303,0.725 2.164,1.204 4.23,1.204c2.067,0 2.928,-0.479 4.231,-1.204c1.562,-0.869 3.506,-1.951 7.108,-1.951c3.602,0 5.546,1.082 7.108,1.951c1.303,0.725 2.164,1.204 4.231,1.204c2.067,0 2.928,-0.479 4.231,-1.204c1.562,-0.869 3.506,-1.951 7.108,-1.951c3.603,0 5.547,1.082 7.108,1.951c1.304,0.725 2.165,1.204 4.232,1.204c2.067,0 2.929,-0.479 4.232,-1.204c1.562,-0.869 3.505,-1.951 7.108,-1.951Z" style="stroke:#000;stroke-width:1px;"/></g></svg>