<?xml version="1.0" encoding="UTF-8" standalone="no"?><!DOCTYPE svg PUBLIC "-//W3C//DTD SVG 1.1//EN" "http://www.w3.org/Graphics/SVG/1.1/DTD/svg11.dtd"><svg width="100%" height="100%" viewBox="0 0 330 216" version="1.1" xmlns="http://www.w3.org/2000/svg" xmlns:xlink="http://www.w3.org/1999/xlink" xml:space="preserve" style="fill-rule:evenodd;clip-rule:evenodd;stroke-linejoin:round;stroke-miterlimit:1.41421;"><g id="Layer_4"><g><g><path d="M14.1,0.3c-0.2,-0.2 -0.4,-0.3 -0.6,-0.3c-0.2,0 -0.4,0.1 -0.6,0.3c-0.5,0.6 -12.9,15 -12.9,22.2c0,7.4 6.1,13.5 13.5,13.5c7.4,0 13.5,-6.1 13.5,-13.5c0,-7.2 -12.4,-21.6 -12.9,-22.2Zm-0.6,34.2c-6.6,0 -12,-5.4 -12,-12c0,-5.9 9.6,-17.7 12,-20.6c1.1,1.3 3.4,4.2 5.8,7.5c4.1,5.8 6.2,10.4 6.2,13.1c0,6.6 -5.4,12 -12,12Z" style="fill:#b2b2b2;fill-rule:nonzero;"/><path d="M13.5,30.7c-4.5,0 -8.2,-3.7 -8.2,-8.2c0,-0.4 -0.3,-0.8 -0.8,-0.8c-0.4,0 -0.8,0.3 -0.8,0.8c0,5.4 4.4,9.8 9.8,9.8c0.4,0 0.8,-0.3 0.8,-0.8c0,-0.4 -0.4,-0.8 -0.8,-0.8Z" style="fill:#b2b2b2;fill-rule:nonzero;"/></g><g><path d="M14.1,52.6c-0.1,-0.2 -0.3,-0.3 -0.6,-0.3c-0.3,0 -0.4,0.1 -0.6,0.3c-0.5,0.6 -12.9,15 -12.9,22.2c0,7.4 6.1,13.5 13.5,13.5c7.4,0 13.5,-6 13.5,-13.5c0,-7.2 -12.4,-21.6 -12.9,-22.2Zm-0.6,34.2c-6.6,0 -12,-5.4 -12,-12c0,-5.9 9.6,-17.7 12,-20.6c1.1,1.3 3.4,4.2 5.8,7.5c4.1,5.8 6.2,10.4 6.2,13.1c0,6.7 -5.4,12 -12,12Z" style="fill:#b2b2b2;fill-rule:nonzero;"/><path d="M13.5,83.1c-4.5,0 -8.2,-3.7 -8.2,-8.2c0,-0.4 -0.3,-0.8 -0.8,-0.8c-0.4,0 -0.8,0.3 -0.8,0.8c0,5.4 4.4,9.8 9.8,9.8c0.4,0 0.8,-0.3 0.8,-0.8c0,-0.5 -0.4,-0.8 -0.8,-0.8Z" style="fill:#b2b2b2;fill-rule:nonzero;"/></g><g><path d="M14.1,104.9c-0.1,-0.2 -0.3,-0.3 -0.6,-0.3c-0.3,0 -0.4,0.1 -0.6,0.3c-0.5,0.6 -12.9,15 -12.9,22.2c0,7.4 6.1,13.5 13.5,13.5c7.4,0 13.5,-6 13.5,-13.4c0,-7.3 -12.4,-21.7 -12.9,-22.3Zm-0.6,34.3c-6.6,0 -12,-5.4 -12,-12c0,-5.9 9.6,-17.7 12,-20.6c1.1,1.3 3.4,4.2 5.8,7.5c4.1,5.8 6.2,10.4 6.2,13.1c0,6.6 -5.4,12 -12,12Z" style="fill:#b2b2b2;fill-rule:nonzero;"/><path d="M13.5,135.4c-4.5,0 -8.2,-3.7 -8.2,-8.2c0,-0.4 -0.3,-0.8 -0.8,-0.8c-0.4,0 -0.8,0.3 -0.8,0.8c0,5.4 4.4,9.8 9.8,9.8c0.4,0 0.8,-0.3 0.8,-0.8c0,-0.4 -0.4,-0.8 -0.8,-0.8Z" style="fill:#b2b2b2;fill-rule:nonzero;"/></g><g><path d="M14.1,157.3c-0.1,-0.2 -0.3,-0.3 -0.6,-0.3c-0.3,0 -0.4,0.1 -0.6,0.3c-0.5,0.6 -12.9,15 -12.9,22.2c0,7.4 6.1,13.5 13.5,13.5c7.4,0 13.5,-6.1 13.5,-13.5c0,-7.2 -12.4,-21.6 -12.9,-22.2Zm-0.6,34.2c-6.6,0 -12,-5.4 -12,-12c0,-5.9 9.6,-17.7 12,-20.6c1.1,1.3 3.4,4.2 5.8,7.5c4.1,5.8 6.2,10.4 6.2,13.1c0,6.6 -5.4,12 -12,12Z" style="fill:#b2b2b2;fill-rule:nonzero;"/><path d="M13.5,187.7c-4.5,0 -8.2,-3.7 -8.2,-8.2c0,-0.4 -0.3,-0.8 -0.8,-0.8c-0.4,0 -0.8,0.3 -0.8,0.8c0,5.4 4.4,9.8 9.8,9.8c0.4,0 0.8,-0.3 0.8,-0.8c0,-0.4 -0.4,-0.8 -0.8,-0.8Z" style="fill:#b2b2b2;fill-rule:nonzero;"/></g><g><path d="M41.1,22c-0.1,-0.2 -0.3,-0.3 -0.6,-0.3c-0.3,0 -0.4,0.1 -0.6,0.3c-0.5,0.6 -12.9,15 -12.9,22.2c0,7.4 6.1,13.5 13.5,13.5c7.4,0 13.5,-6 13.5,-13.5c0,-7.2 -12.4,-21.6 -12.9,-22.2Zm-0.6,34.2c-6.6,0 -12,-5.4 -12,-12c0,-5.9 9.6,-17.7 12,-20.6c1.1,1.3 3.4,4.2 5.8,7.5c4.1,5.8 6.2,10.4 6.2,13.1c0,6.7 -5.4,12 -12,12Z" style="fill:#b2b2b2;fill-rule:nonzero;"/><path d="M40.5,52.5c-4.5,0 -8.2,-3.7 -8.2,-8.2c0,-0.4 -0.3,-0.8 -0.8,-0.8c-0.4,0 -0.8,0.3 -0.8,0.8c0,5.4 4.4,9.8 9.8,9.8c0.4,0 0.8,-0.3 0.8,-0.8c0,-0.5 -0.4,-0.8 -0.8,-0.8Z" style="fill:#b2b2b2;fill-rule:nonzero;"/></g><g><path d="M41.1,74.3c-0.1,-0.2 -0.3,-0.3 -0.6,-0.3c-0.3,0 -0.4,0.1 -0.6,0.3c-0.5,0.7 -12.9,15 -12.9,22.3c0,7.4 6.1,13.5 13.5,13.5c7.4,0 13.5,-6.1 13.5,-13.5c0,-7.3 -12.4,-21.6 -12.9,-22.3Zm-0.6,34.3c-6.6,0 -12,-5.4 -12,-12c0,-5.9 9.6,-17.7 12,-20.6c1.1,1.3 3.4,4.2 5.8,7.5c4.1,5.8 6.2,10.4 6.2,13.1c0,6.6 -5.4,12 -12,12Z" style="fill:#b2b2b2;fill-rule:nonzero;"/><path d="M40.5,104.8c-4.5,0 -8.2,-3.7 -8.2,-8.2c0,-0.4 -0.3,-0.8 -0.8,-0.8c-0.4,0 -0.8,0.3 -0.8,0.8c0,5.4 4.4,9.8 9.8,9.8c0.4,0 0.8,-0.3 0.8,-0.8c0,-0.4 -0.4,-0.8 -0.8,-0.8Z" style="fill:#b2b2b2;fill-rule:nonzero;"/></g><g><path d="M41.1,126.7c-0.1,-0.2 -0.3,-0.3 -0.6,-0.3c-0.3,0 -0.4,0.1 -0.6,0.3c-0.5,0.6 -12.9,15 -12.9,22.2c0,7.4 6.1,13.5 13.5,13.5c7.4,0 13.5,-6 13.5,-13.5c0,-7.2 -12.4,-21.6 -12.9,-22.2Zm-0.6,34.2c-6.6,0 -12,-5.4 -12,-12c0,-5.9 9.6,-17.7 12,-20.6c1.1,1.3 3.4,4.2 5.8,7.5c4.1,5.8 6.2,10.4 6.2,13.1c0,6.6 -5.4,12 -12,12Z" style="fill:#b2b2b2;fill-rule:nonzero;"/><path d="M40.5,157.2c-4.5,0 -8.2,-3.7 -8.2,-8.2c0,-0.4 -0.3,-0.8 -0.8,-0.8c-0.4,0 -0.8,0.3 -0.8,0.8c0,5.4 4.4,9.8 9.8,9.8c0.4,0 0.8,-0.3 0.8,-0.8c0,-0.5 -0.4,-0.8 -0.8,-0.8Z" style="fill:#b2b2b2;fill-rule:nonzero;"/></g><g><path d="M41.1,179c-0.1,-0.2 -0.3,-0.3 -0.6,-0.3c-0.3,0 -0.4,0.1 -0.6,0.3c-0.5,0.6 -12.9,15 -12.9,22.2c0,7.4 6.1,13.5 13.5,13.5c7.4,0 13.5,-6 13.5,-13.5c0,-7.2 -12.4,-21.6 -12.9,-22.2Zm-0.6,34.2c-6.6,0 -12,-5.4 -12,-12c0,-5.9 9.6,-17.7 12,-20.6c1.1,1.3 3.4,4.2 5.8,7.5c4.1,5.8 6.2,10.4 6.2,13.1c0,6.7 -5.4,12 -12,12Z" style="fill:#b2b2b2;fill-rule:nonzero;"/><path d="M40.5,209.5c-4.5,0 -8.2,-3.7 -8.2,-8.2c0,-0.4 -0.3,-0.8 -0.8,-0.8c-0.4,0 -0.8,0.3 -0.8,0.8c0,5.4 4.4,9.8 9.8,9.8c0.4,0 0.8,-0.3 0.8,-0.8c0,-0.5 -0.4,-0.8 -0.8,-0.8Z" style="fill:#b2b2b2;fill-rule:nonzero;"/></g></g><g><g><path d="M179.7,0.3c-0.1,-0.2 -0.3,-0.3 -0.6,-0.3c-0.3,0 -0.4,0.1 -0.6,0.3c-0.5,0.6 -12.9,15 -12.9,22.2c0,7.4 6.1,13.5 13.5,13.5c7.4,0 13.5,-6.1 13.5,-13.5c0,-7.2 -12.4,-21.6 -12.9,-22.2Zm-0.6,34.2c-6.6,0 -12,-5.4 -12,-12c0,-5.9 9.6,-17.7 12,-20.6c1.1,1.3 3.4,4.2 5.8,7.5c4.1,5.8 6.2,10.4 6.2,13.1c0,6.6 -5.4,12 -12,12Z" style="fill:#b2b2b2;fill-rule:nonzero;"/><path d="M179.1,30.7c-4.5,0 -8.2,-3.7 -8.2,-8.2c0,-0.4 -0.3,-0.8 -0.8,-0.8c-0.4,0 -0.8,0.3 -0.8,0.8c0,5.4 4.4,9.8 9.8,9.8c0.4,0 0.8,-0.3 0.8,-0.8c0,-0.4 -0.4,-0.8 -0.8,-0.8Z" style="fill:#b2b2b2;fill-rule:nonzero;"/></g><g><path d="M179.7,52.6c-0.1,-0.2 -0.3,-0.3 -0.6,-0.3c-0.3,0 -0.4,0.1 -0.6,0.3c-0.5,0.6 -12.9,15 -12.9,22.2c0,7.4 6.1,13.5 13.5,13.5c7.4,0 13.5,-6 13.5,-13.5c0,-7.2 -12.4,-21.6 -12.9,-22.2Zm-0.6,34.2c-6.6,0 -12,-5.4 -12,-12c0,-5.9 9.6,-17.7 12,-20.6c1.1,1.3 3.4,4.2 5.8,7.5c4.1,5.8 6.2,10.4 6.2,13.1c0,6.7 -5.4,12 -12,12Z" style="fill:#b2b2b2;fill-rule:nonzero;"/><path d="M179.1,83.1c-4.5,0 -8.2,-3.7 -8.2,-8.2c0,-0.4 -0.3,-0.8 -0.8,-0.8c-0.4,0 -0.8,0.3 -0.8,0.8c0,5.4 4.4,9.8 9.8,9.8c0.4,0 0.8,-0.3 0.8,-0.8c0,-0.5 -0.4,-0.8 -0.8,-0.8Z" style="fill:#b2b2b2;fill-rule:nonzero;"/></g><g><path d="M179.7,104.9c-0.1,-0.2 -0.3,-0.3 -0.6,-0.3c-0.3,0 -0.4,0.1 -0.6,0.3c-0.5,0.6 -12.9,15 -12.9,22.2c0,7.4 6.1,13.5 13.5,13.5c7.4,0 13.5,-6.1 13.5,-13.5c0,-7.2 -12.4,-21.6 -12.9,-22.2Zm-0.6,34.3c-6.6,0 -12,-5.4 -12,-12c0,-5.9 9.6,-17.7 12,-20.6c1.1,1.3 3.4,4.2 5.8,7.5c4.1,5.8 6.2,10.4 6.2,13.1c0,6.6 -5.4,12 -12,12Z" style="fill:#b2b2b2;fill-rule:nonzero;"/><path d="M179.1,135.4c-4.5,0 -8.2,-3.7 -8.2,-8.2c0,-0.4 -0.3,-0.8 -0.8,-0.8c-0.4,0 -0.8,0.3 -0.8,0.8c0,5.4 4.4,9.8 9.8,9.8c0.4,0 0.8,-0.3 0.8,-0.8c0,-0.4 -0.4,-0.8 -0.8,-0.8Z" style="fill:#b2b2b2;fill-rule:nonzero;"/></g><g><path d="M179.7,157.3c-0.1,-0.2 -0.3,-0.3 -0.6,-0.3c-0.3,0 -0.4,0.1 -0.6,0.3c-0.5,0.6 -12.9,15 -12.9,22.2c0,7.4 6.1,13.5 13.5,13.5c7.4,0 13.5,-6.1 13.5,-13.5c0,-7.2 -12.4,-21.6 -12.9,-22.2Zm-0.6,34.2c-6.6,0 -12,-5.4 -12,-12c0,-5.9 9.6,-17.7 12,-20.6c1.1,1.3 3.4,4.2 5.8,7.5c4.1,5.8 6.2,10.4 6.2,13.1c0,6.6 -5.4,12 -12,12Z" style="fill:#b2b2b2;fill-rule:nonzero;"/><path d="M179.1,187.7c-4.5,0 -8.2,-3.7 -8.2,-8.2c0,-0.4 -0.3,-0.8 -0.8,-0.8c-0.4,0 -0.8,0.3 -0.8,0.8c0,5.4 4.4,9.8 9.8,9.8c0.4,0 0.8,-0.3 0.8,-0.8c0,-0.4 -0.4,-0.8 -0.8,-0.8Z" style="fill:#b2b2b2;fill-rule:nonzero;"/></g><g><path d="M206.7,22c-0.1,-0.2 -0.3,-0.3 -0.6,-0.3c-0.3,0 -0.4,0.1 -0.6,0.3c-0.5,0.6 -12.9,15 -12.9,22.2c0,7.4 6.1,13.5 13.5,13.5c7.4,0 13.5,-6 13.5,-13.5c0,-7.2 -12.4,-21.6 -12.9,-22.2Zm-0.6,34.2c-6.6,0 -12,-5.4 -12,-12c0,-5.9 9.6,-17.7 12,-20.6c1.1,1.3 3.4,4.2 5.8,7.5c4.1,5.8 6.2,10.4 6.2,13.1c0,6.7 -5.4,12 -12,12Z" style="fill:#b2b2b2;fill-rule:nonzero;"/><path d="M206.1,52.5c-4.5,0 -8.2,-3.7 -8.2,-8.2c0,-0.4 -0.3,-0.8 -0.8,-0.8c-0.4,0 -0.8,0.3 -0.8,0.8c0,5.4 4.4,9.8 9.8,9.8c0.4,0 0.8,-0.3 0.8,-0.8c0,-0.5 -0.4,-0.8 -0.8,-0.8Z" style="fill:#b2b2b2;fill-rule:nonzero;"/></g><g><path d="M206.7,74.3c-0.1,-0.2 -0.3,-0.3 -0.6,-0.3c-0.3,0 -0.4,0.1 -0.6,0.3c-0.5,0.6 -12.9,15 -12.9,22.2c0,7.4 6.1,13.5 13.5,13.5c7.4,0 13.5,-6 13.5,-13.4c0,-7.3 -12.4,-21.6 -12.9,-22.3Zm-0.6,34.3c-6.6,0 -12,-5.4 -12,-12c0,-5.9 9.6,-17.7 12,-20.6c1.1,1.3 3.4,4.2 5.8,7.5c4.1,5.8 6.2,10.4 6.2,13.1c0,6.6 -5.4,12 -12,12Z" style="fill:#b2b2b2;fill-rule:nonzero;"/><path d="M206.1,104.8c-4.5,0 -8.2,-3.7 -8.2,-8.2c0,-0.4 -0.3,-0.8 -0.8,-0.8c-0.4,0 -0.8,0.3 -0.8,0.8c0,5.4 4.4,9.8 9.8,9.8c0.4,0 0.8,-0.3 0.8,-0.8c0,-0.4 -0.4,-0.8 -0.8,-0.8Z" style="fill:#b2b2b2;fill-rule:nonzero;"/></g><g><path d="M206.7,126.7c-0.1,-0.2 -0.3,-0.3 -0.6,-0.3c-0.3,0 -0.4,0.1 -0.6,0.3c-0.5,0.6 -12.9,15 -12.9,22.2c0,7.4 6.1,13.5 13.5,13.5c7.4,0 13.5,-6.1 13.5,-13.5c0,-7.2 -12.4,-21.6 -12.9,-22.2Zm-0.6,34.2c-6.6,0 -12,-5.4 -12,-12c0,-5.9 9.6,-17.7 12,-20.6c1.1,1.3 3.4,4.2 5.8,7.5c4.1,5.8 6.2,10.4 6.2,13.1c0,6.6 -5.4,12 -12,12Z" style="fill:#b2b2b2;fill-rule:nonzero;"/><path d="M206.1,157.2c-4.5,0 -8.2,-3.7 -8.2,-8.2c0,-0.4 -0.3,-0.8 -0.8,-0.8c-0.4,0 -0.8,0.3 -0.8,0.8c0,5.4 4.4,9.8 9.8,9.8c0.4,0 0.8,-0.3 0.8,-0.8c0,-0.5 -0.4,-0.8 -0.8,-0.8Z" style="fill:#b2b2b2;fill-rule:nonzero;"/></g><g><path d="M206.7,179c-0.1,-0.2 -0.3,-0.3 -0.6,-0.3c-0.3,0 -0.4,0.1 -0.6,0.3c-0.5,0.6 -12.9,15 -12.9,22.2c0,7.4 6.1,13.5 13.5,13.5c7.4,0 13.5,-6.1 13.5,-13.5c0,-7.2 -12.4,-21.6 -12.9,-22.2Zm-0.6,34.2c-6.6,0 -12,-5.4 -12,-12c0,-5.9 9.6,-17.7 12,-20.6c1.1,1.3 3.4,4.2 5.8,7.5c4.1,5.8 6.2,10.4 6.2,13.1c0,6.7 -5.4,12 -12,12Z" style="fill:#b2b2b2;fill-rule:nonzero;"/><path d="M206.1,209.5c-4.5,0 -8.2,-3.7 -8.2,-8.2c0,-0.4 -0.3,-0.8 -0.8,-0.8c-0.4,0 -0.8,0.3 -0.8,0.8c0,5.4 4.4,9.8 9.8,9.8c0.4,0 0.8,-0.3 0.8,-0.8c0,-0.5 -0.4,-0.8 -0.8,-0.8Z" style="fill:#b2b2b2;fill-rule:nonzero;"/></g></g><g><g><path d="M234.9,0.3c-0.1,-0.2 -0.3,-0.3 -0.6,-0.3c-0.3,0 -0.4,0.1 -0.6,0.3c-0.5,0.6 -12.9,15 -12.9,22.2c0,7.4 6.1,13.5 13.5,13.5c7.4,0 13.5,-6.1 13.5,-13.5c0,-7.2 -12.4,-21.6 -12.9,-22.2Zm-0.6,34.2c-6.6,0 -12,-5.4 -12,-12c0,-5.9 9.6,-17.7 12,-20.6c1.1,1.3 3.4,4.2 5.8,7.5c4.1,5.8 6.2,10.4 6.2,13.1c0,6.6 -5.4,12 -12,12Z" style="fill:#b2b2b2;fill-rule:nonzero;"/><path d="M234.3,30.7c-4.5,0 -8.2,-3.7 -8.2,-8.2c0,-0.4 -0.3,-0.8 -0.8,-0.8c-0.4,0 -0.8,0.3 -0.8,0.8c0,5.4 4.4,9.8 9.8,9.8c0.4,0 0.8,-0.3 0.8,-0.8c0,-0.4 -0.4,-0.8 -0.8,-0.8Z" style="fill:#b2b2b2;fill-rule:nonzero;"/></g><g><path d="M234.9,52.6c-0.1,-0.2 -0.3,-0.3 -0.6,-0.3c-0.3,0 -0.4,0.1 -0.6,0.3c-0.5,0.6 -12.9,15 -12.9,22.2c0,7.4 6.1,13.5 13.5,13.5c7.4,0 13.5,-6 13.5,-13.5c0,-7.2 -12.4,-21.6 -12.9,-22.2Zm-0.6,34.2c-6.6,0 -12,-5.4 -12,-12c0,-5.9 9.6,-17.7 12,-20.6c1.1,1.3 3.4,4.2 5.8,7.5c4.1,5.8 6.2,10.4 6.2,13.1c0,6.7 -5.4,12 -12,12Z" style="fill:#b2b2b2;fill-rule:nonzero;"/><path d="M234.3,83.1c-4.5,0 -8.2,-3.7 -8.2,-8.2c0,-0.4 -0.3,-0.8 -0.8,-0.8c-0.4,0 -0.8,0.3 -0.8,0.8c0,5.4 4.4,9.8 9.8,9.8c0.4,0 0.8,-0.3 0.8,-0.8c0,-0.5 -0.4,-0.8 -0.8,-0.8Z" style="fill:#b2b2b2;fill-rule:nonzero;"/></g><g><path d="M234.9,104.9c-0.1,-0.2 -0.3,-0.3 -0.6,-0.3c-0.3,0 -0.4,0.1 -0.6,0.3c-0.5,0.6 -12.9,15 -12.9,22.2c0,7.4 6.1,13.5 13.5,13.5c7.4,0 13.5,-6.1 13.5,-13.5c0,-7.2 -12.4,-21.6 -12.9,-22.2Zm-0.6,34.3c-6.6,0 -12,-5.4 -12,-12c0,-5.9 9.6,-17.7 12,-20.6c1.1,1.3 3.4,4.2 5.8,7.5c4.1,5.8 6.2,10.4 6.2,13.1c0,6.6 -5.4,12 -12,12Z" style="fill:#b2b2b2;fill-rule:nonzero;"/><path d="M234.3,135.4c-4.5,0 -8.2,-3.7 -8.2,-8.2c0,-0.4 -0.3,-0.8 -0.8,-0.8c-0.4,0 -0.8,0.3 -0.8,0.8c0,5.4 4.4,9.8 9.8,9.8c0.4,0 0.8,-0.3 0.8,-0.8c0,-0.4 -0.4,-0.8 -0.8,-0.8Z" style="fill:#b2b2b2;fill-rule:nonzero;"/></g><g><path d="M234.9,157.3c-0.1,-0.2 -0.3,-0.3 -0.6,-0.3c-0.3,0 -0.4,0.1 -0.6,0.3c-0.5,0.6 -12.9,15 -12.9,22.2c0,7.4 6.1,13.5 13.5,13.5c7.4,0 13.5,-6.1 13.5,-13.5c0,-7.2 -12.4,-21.6 -12.9,-22.2Zm-0.6,34.2c-6.6,0 -12,-5.4 -12,-12c0,-5.9 9.6,-17.7 12,-20.6c1.1,1.3 3.4,4.2 5.8,7.5c4.1,5.8 6.2,10.4 6.2,13.1c0,6.6 -5.4,12 -12,12Z" style="fill:#b2b2b2;fill-rule:nonzero;"/><path d="M234.3,187.7c-4.5,0 -8.2,-3.7 -8.2,-8.2c0,-0.4 -0.3,-0.8 -0.8,-0.8c-0.4,0 -0.8,0.3 -0.8,0.8c0,5.4 4.4,9.8 9.8,9.8c0.4,0 0.8,-0.3 0.8,-0.8c0,-0.4 -0.4,-0.8 -0.8,-0.8Z" style="fill:#b2b2b2;fill-rule:nonzero;"/></g><g><path d="M261.9,22c-0.1,-0.2 -0.3,-0.3 -0.6,-0.3c-0.3,0 -0.4,0.1 -0.6,0.3c-0.5,0.6 -12.9,15 -12.9,22.2c0,7.4 6.1,13.5 13.5,13.5c7.4,0 13.5,-6 13.5,-13.5c0,-7.2 -12.4,-21.6 -12.9,-22.2Zm-0.6,34.2c-6.6,0 -12,-5.4 -12,-12c0,-5.9 9.6,-17.7 12,-20.6c1.1,1.3 3.4,4.2 5.8,7.5c4.1,5.8 6.2,10.4 6.2,13.1c0,6.7 -5.4,12 -12,12Z" style="fill:#b2b2b2;fill-rule:nonzero;"/><path d="M261.3,52.5c-4.5,0 -8.2,-3.7 -8.2,-8.2c0,-0.4 -0.3,-0.8 -0.8,-0.8c-0.4,0 -0.8,0.3 -0.8,0.8c0,5.4 4.4,9.8 9.8,9.8c0.4,0 0.8,-0.3 0.8,-0.8c0,-0.5 -0.4,-0.8 -0.8,-0.8Z" style="fill:#b2b2b2;fill-rule:nonzero;"/></g><g><path d="M261.9,74.3c-0.1,-0.2 -0.3,-0.3 -0.6,-0.3c-0.3,0 -0.4,0.1 -0.6,0.3c-0.5,0.6 -12.9,15 -12.9,22.2c0,7.4 6.1,13.5 13.5,13.5c7.4,0 13.5,-6 13.5,-13.4c0,-7.3 -12.4,-21.6 -12.9,-22.3Zm-0.6,34.3c-6.6,0 -12,-5.4 -12,-12c0,-5.9 9.6,-17.7 12,-20.6c1.1,1.3 3.4,4.2 5.8,7.5c4.1,5.8 6.2,10.4 6.2,13.1c0,6.6 -5.4,12 -12,12Z" style="fill:#b2b2b2;fill-rule:nonzero;"/><path d="M261.3,104.8c-4.5,0 -8.2,-3.7 -8.2,-8.2c0,-0.4 -0.3,-0.8 -0.8,-0.8c-0.4,0 -0.8,0.3 -0.8,0.8c0,5.4 4.4,9.8 9.8,9.8c0.4,0 0.8,-0.3 0.8,-0.8c0,-0.4 -0.4,-0.8 -0.8,-0.8Z" style="fill:#b2b2b2;fill-rule:nonzero;"/></g><g><path d="M261.9,126.7c-0.1,-0.2 -0.3,-0.3 -0.6,-0.3c-0.3,0 -0.4,0.1 -0.6,0.3c-0.5,0.6 -12.9,15 -12.9,22.2c0,7.4 6.1,13.5 13.5,13.5c7.4,0 13.5,-6.1 13.5,-13.5c0,-7.2 -12.4,-21.6 -12.9,-22.2Zm-0.6,34.2c-6.6,0 -12,-5.4 -12,-12c0,-5.9 9.6,-17.7 12,-20.6c1.1,1.3 3.4,4.2 5.8,7.5c4.1,5.8 6.2,10.4 6.2,13.1c0,6.6 -5.4,12 -12,12Z" style="fill:#b2b2b2;fill-rule:nonzero;"/><path d="M261.3,157.2c-4.5,0 -8.2,-3.7 -8.2,-8.2c0,-0.4 -0.3,-0.8 -0.8,-0.8c-0.4,0 -0.8,0.3 -0.8,0.8c0,5.4 4.4,9.8 9.8,9.8c0.4,0 0.8,-0.3 0.8,-0.8c0,-0.5 -0.4,-0.8 -0.8,-0.8Z" style="fill:#b2b2b2;fill-rule:nonzero;"/></g><g><path d="M261.9,179c-0.1,-0.2 -0.3,-0.3 -0.6,-0.3c-0.3,0 -0.4,0.1 -0.6,0.3c-0.5,0.6 -12.9,15 -12.9,22.2c0,7.4 6.1,13.5 13.5,13.5c7.4,0 13.5,-6.1 13.5,-13.5c0,-7.2 -12.4,-21.6 -12.9,-22.2Zm-0.6,34.2c-6.6,0 -12,-5.4 -12,-12c0,-5.9 9.6,-17.7 12,-20.6c1.1,1.3 3.4,4.2 5.8,7.5c4.1,5.8 6.2,10.4 6.2,13.1c0,6.7 -5.4,12 -12,12Z" style="fill:#b2b2b2;fill-rule:nonzero;"/><path d="M261.3,209.5c-4.5,0 -8.2,-3.7 -8.2,-8.2c0,-0.4 -0.3,-0.8 -0.8,-0.8c-0.4,0 -0.8,0.3 -0.8,0.8c0,5.4 4.4,9.8 9.8,9.8c0.4,0 0.8,-0.3 0.8,-0.8c0,-0.5 -0.4,-0.8 -0.8,-0.8Z" style="fill:#b2b2b2;fill-rule:nonzero;"/></g></g><g><g><path d="M290.1,0.95c-0.1,-0.2 -0.3,-0.3 -0.6,-0.3c-0.3,0 -0.4,0.1 -0.6,0.3c-0.5,0.6 -12.9,15 -12.9,22.2c0,7.4 6.1,13.5 13.5,13.5c7.4,0 13.5,-6.1 13.5,-13.5c0,-7.2 -12.4,-21.6 -12.9,-22.2Zm-0.6,34.2c-6.6,0 -12,-5.4 -12,-12c0,-5.9 9.6,-17.7 12,-20.6c1.1,1.3 3.4,4.2 5.8,7.5c4.1,5.8 6.2,10.4 6.2,13.1c0,6.6 -5.4,12 -12,12Z" style="fill:#b2b2b2;fill-rule:nonzero;"/><path d="M289.5,31.35c-4.5,0 -8.2,-3.7 -8.2,-8.2c0,-0.4 -0.3,-0.8 -0.8,-0.8c-0.4,0 -0.8,0.3 -0.8,0.8c0,5.4 4.4,9.8 9.8,9.8c0.4,0 0.8,-0.3 0.8,-0.8c0,-0.4 -0.4,-0.8 -0.8,-0.8Z" style="fill:#b2b2b2;fill-rule:nonzero;"/></g><g><path d="M290.1,53.25c-0.1,-0.2 -0.3,-0.3 -0.6,-0.3c-0.3,0 -0.4,0.1 -0.6,0.3c-0.5,0.6 -12.9,15 -12.9,22.2c0,7.4 6.1,13.5 13.5,13.5c7.4,0 13.5,-6 13.5,-13.5c0,-7.2 -12.4,-21.6 -12.9,-22.2Zm-0.6,34.2c-6.6,0 -12,-5.4 -12,-12c0,-5.9 9.6,-17.7 12,-20.6c1.1,1.3 3.4,4.2 5.8,7.5c4.1,5.8 6.2,10.4 6.2,13.1c0,6.7 -5.4,12 -12,12Z" style="fill:#b2b2b2;fill-rule:nonzero;"/><path d="M289.5,83.75c-4.5,0 -8.2,-3.7 -8.2,-8.2c0,-0.4 -0.3,-0.8 -0.8,-0.8c-0.4,0 -0.8,0.3 -0.8,0.8c0,5.4 4.4,9.8 9.8,9.8c0.4,0 0.8,-0.3 0.8,-0.8c0,-0.5 -0.4,-0.8 -0.8,-0.8Z" style="fill:#b2b2b2;fill-rule:nonzero;"/></g><g><path d="M290.1,105.55c-0.1,-0.2 -0.3,-0.3 -0.6,-0.3c-0.3,0 -0.4,0.1 -0.6,0.3c-0.5,0.6 -12.9,15 -12.9,22.2c0,7.4 6.1,13.5 13.5,13.5c7.4,0 13.5,-6.1 13.5,-13.5c0,-7.2 -12.4,-21.6 -12.9,-22.2Zm-0.6,34.3c-6.6,0 -12,-5.4 -12,-12c0,-5.9 9.6,-17.7 12,-20.6c1.1,1.3 3.4,4.2 5.8,7.5c4.1,5.8 6.2,10.4 6.2,13.1c0,6.6 -5.4,12 -12,12Z" style="fill:#b2b2b2;fill-rule:nonzero;"/><path d="M289.5,136.05c-4.5,0 -8.2,-3.7 -8.2,-8.2c0,-0.4 -0.3,-0.8 -0.8,-0.8c-0.4,0 -0.8,0.3 -0.8,0.8c0,5.4 4.4,9.8 9.8,9.8c0.4,0 0.8,-0.3 0.8,-0.8c0,-0.4 -0.4,-0.8 -0.8,-0.8Z" style="fill:#b2b2b2;fill-rule:nonzero;"/></g><g><path d="M290.1,157.95c-0.1,-0.2 -0.3,-0.3 -0.6,-0.3c-0.3,0 -0.4,0.1 -0.6,0.3c-0.5,0.6 -12.9,15 -12.9,22.2c0,7.4 6.1,13.5 13.5,13.5c7.4,0 13.5,-6.1 13.5,-13.5c0,-7.2 -12.4,-21.6 -12.9,-22.2Zm-0.6,34.2c-6.6,0 -12,-5.4 -12,-12c0,-5.9 9.6,-17.7 12,-20.6c1.1,1.3 3.4,4.2 5.8,7.5c4.1,5.8 6.2,10.4 6.2,13.1c0,6.6 -5.4,12 -12,12Z" style="fill:#b2b2b2;fill-rule:nonzero;"/><path d="M289.5,188.35c-4.5,0 -8.2,-3.7 -8.2,-8.2c0,-0.4 -0.3,-0.8 -0.8,-0.8c-0.4,0 -0.8,0.3 -0.8,0.8c0,5.4 4.4,9.8 9.8,9.8c0.4,0 0.8,-0.3 0.8,-0.8c0,-0.4 -0.4,-0.8 -0.8,-0.8Z" style="fill:#b2b2b2;fill-rule:nonzero;"/></g><g><path d="M317.1,22.65c-0.1,-0.2 -0.3,-0.3 -0.6,-0.3c-0.3,0 -0.4,0.1 -0.6,0.3c-0.5,0.6 -12.9,15 -12.9,22.2c0,7.4 6.1,13.5 13.5,13.5c7.4,0 13.5,-6 13.5,-13.5c0,-7.2 -12.4,-21.6 -12.9,-22.2Zm-0.6,34.2c-6.6,0 -12,-5.4 -12,-12c0,-5.9 9.6,-17.7 12,-20.6c1.1,1.3 3.4,4.2 5.8,7.5c4.1,5.8 6.2,10.4 6.2,13.1c0,6.7 -5.4,12 -12,12Z" style="fill:#b2b2b2;fill-rule:nonzero;"/><path d="M316.5,53.15c-4.5,0 -8.2,-3.7 -8.2,-8.2c0,-0.4 -0.3,-0.8 -0.8,-0.8c-0.4,0 -0.8,0.3 -0.8,0.8c0,5.4 4.4,9.8 9.8,9.8c0.4,0 0.8,-0.3 0.8,-0.8c0,-0.5 -0.4,-0.8 -0.8,-0.8Z" style="fill:#b2b2b2;fill-rule:nonzero;"/></g><g><path d="M317.1,74.95c-0.1,-0.2 -0.3,-0.3 -0.6,-0.3c-0.3,0 -0.4,0.1 -0.6,0.3c-0.5,0.6 -12.9,15 -12.9,22.2c0,7.4 6.1,13.5 13.5,13.5c7.4,0 13.5,-6 13.5,-13.4c0,-7.3 -12.4,-21.6 -12.9,-22.3Zm-0.6,34.3c-6.6,0 -12,-5.4 -12,-12c0,-5.9 9.6,-17.7 12,-20.6c1.1,1.3 3.4,4.2 5.8,7.5c4.1,5.8 6.2,10.4 6.2,13.1c0,6.6 -5.4,12 -12,12Z" style="fill:#b2b2b2;fill-rule:nonzero;"/><path d="M316.5,105.45c-4.5,0 -8.2,-3.7 -8.2,-8.2c0,-0.4 -0.3,-0.8 -0.8,-0.8c-0.4,0 -0.8,0.3 -0.8,0.8c0,5.4 4.4,9.8 9.8,9.8c0.4,0 0.8,-0.3 0.8,-0.8c0,-0.4 -0.4,-0.8 -0.8,-0.8Z" style="fill:#b2b2b2;fill-rule:nonzero;"/></g><g><path d="M317.1,127.35c-0.1,-0.2 -0.3,-0.3 -0.6,-0.3c-0.3,0 -0.4,0.1 -0.6,0.3c-0.5,0.6 -12.9,15 -12.9,22.2c0,7.4 6.1,13.5 13.5,13.5c7.4,0 13.5,-6.1 13.5,-13.5c0,-7.2 -12.4,-21.6 -12.9,-22.2Zm-0.6,34.2c-6.6,0 -12,-5.4 -12,-12c0,-5.9 9.6,-17.7 12,-20.6c1.1,1.3 3.4,4.2 5.8,7.5c4.1,5.8 6.2,10.4 6.2,13.1c0,6.6 -5.4,12 -12,12Z" style="fill:#b2b2b2;fill-rule:nonzero;"/><path d="M316.5,157.85c-4.5,0 -8.2,-3.7 -8.2,-8.2c0,-0.4 -0.3,-0.8 -0.8,-0.8c-0.4,0 -0.8,0.3 -0.8,0.8c0,5.4 4.4,9.8 9.8,9.8c0.4,0 0.8,-0.3 0.8,-0.8c0,-0.5 -0.4,-0.8 -0.8,-0.8Z" style="fill:#b2b2b2;fill-rule:nonzero;"/></g><g><path d="M317.1,179.65c-0.1,-0.2 -0.3,-0.3 -0.6,-0.3c-0.3,0 -0.4,0.1 -0.6,0.3c-0.5,0.6 -12.9,15 -12.9,22.2c0,7.4 6.1,13.5 13.5,13.5c7.4,0 13.5,-6.1 13.5,-13.5c0,-7.2 -12.4,-21.6 -12.9,-22.2Zm-0.6,34.2c-6.6,0 -12,-5.4 -12,-12c0,-5.9 9.6,-17.7 12,-20.6c1.1,1.3 3.4,4.2 5.8,7.5c4.1,5.8 6.2,10.4 6.2,13.1c0,6.7 -5.4,12 -12,12Z" style="fill:#b2b2b2;fill-rule:nonzero;"/><path d="M316.5,210.15c-4.5,0 -8.2,-3.7 -8.2,-8.2c0,-0.4 -0.3,-0.8 -0.8,-0.8c-0.4,0 -0.8,0.3 -0.8,0.8c0,5.4 4.4,9.8 9.8,9.8c0.4,0 0.8,-0.3 0.8,-0.8c0,-0.5 -0.4,-0.8 -0.8,-0.8Z" style="fill:#b2b2b2;fill-rule:nonzero;"/></g></g><g><g><path d="M124.5,0.3c-0.1,-0.2 -0.3,-0.3 -0.6,-0.3c-0.3,0 -0.4,0.1 -0.6,0.3c-0.5,0.6 -12.9,15 -12.9,22.2c0,7.4 6.1,13.5 13.5,13.5c7.4,0 13.5,-6.1 13.5,-13.5c0,-7.2 -12.4,-21.6 -12.9,-22.2Zm-0.6,34.2c-6.6,0 -12,-5.4 -12,-12c0,-5.9 9.6,-17.7 12,-20.6c1.1,1.3 3.4,4.2 5.8,7.5c4.1,5.8 6.2,10.4 6.2,13.1c0,6.6 -5.4,12 -12,12Z" style="fill:#b2b2b2;fill-rule:nonzero;"/><path d="M123.9,30.7c-4.5,0 -8.2,-3.7 -8.2,-8.2c0,-0.4 -0.3,-0.8 -0.8,-0.8c-0.4,0 -0.8,0.3 -0.8,0.8c0,5.4 4.4,9.8 9.8,9.8c0.4,0 0.8,-0.3 0.8,-0.8c0,-0.4 -0.4,-0.8 -0.8,-0.8Z" style="fill:#b2b2b2;fill-rule:nonzero;"/></g><g><path d="M124.5,52.6c-0.1,-0.2 -0.3,-0.3 -0.6,-0.3c-0.3,0 -0.4,0.1 -0.6,0.3c-0.5,0.6 -12.9,15 -12.9,22.2c0,7.4 6.1,13.5 13.5,13.5c7.4,0 13.5,-6 13.5,-13.5c0,-7.2 -12.4,-21.6 -12.9,-22.2Zm-0.6,34.2c-6.6,0 -12,-5.4 -12,-12c0,-5.9 9.6,-17.7 12,-20.6c1.1,1.3 3.4,4.2 5.8,7.5c4.1,5.8 6.2,10.4 6.2,13.1c0,6.7 -5.4,12 -12,12Z" style="fill:#b2b2b2;fill-rule:nonzero;"/><path d="M123.9,83.1c-4.5,0 -8.2,-3.7 -8.2,-8.2c0,-0.4 -0.3,-0.8 -0.8,-0.8c-0.4,0 -0.8,0.3 -0.8,0.8c0,5.4 4.4,9.8 9.8,9.8c0.4,0 0.8,-0.3 0.8,-0.8c0,-0.5 -0.4,-0.8 -0.8,-0.8Z" style="fill:#b2b2b2;fill-rule:nonzero;"/></g><g><path d="M124.5,104.9c-0.1,-0.2 -0.3,-0.3 -0.6,-0.3c-0.3,0 -0.4,0.1 -0.6,0.3c-0.5,0.6 -12.9,15 -12.9,22.2c0,7.4 6.1,13.5 13.5,13.5c7.4,0 13.5,-6.1 13.5,-13.5c0,-7.2 -12.4,-21.6 -12.9,-22.2Zm-0.6,34.3c-6.6,0 -12,-5.4 -12,-12c0,-5.9 9.6,-17.7 12,-20.6c1.1,1.3 3.4,4.2 5.8,7.5c4.1,5.8 6.2,10.4 6.2,13.1c0,6.6 -5.4,12 -12,12Z" style="fill:#b2b2b2;fill-rule:nonzero;"/><path d="M123.9,135.4c-4.5,0 -8.2,-3.7 -8.2,-8.2c0,-0.4 -0.3,-0.8 -0.8,-0.8c-0.4,0 -0.8,0.3 -0.8,0.8c0,5.4 4.4,9.8 9.8,9.8c0.4,0 0.8,-0.3 0.8,-0.8c0,-0.4 -0.4,-0.8 -0.8,-0.8Z" style="fill:#b2b2b2;fill-rule:nonzero;"/></g><g><path d="M124.5,157.3c-0.1,-0.2 -0.3,-0.3 -0.6,-0.3c-0.3,0 -0.4,0.1 -0.6,0.3c-0.5,0.6 -12.9,15 -12.9,22.2c0,7.4 6.1,13.5 13.5,13.5c7.4,0 13.5,-6.1 13.5,-13.5c0,-7.2 -12.4,-21.6 -12.9,-22.2Zm-0.6,34.2c-6.6,0 -12,-5.4 -12,-12c0,-5.9 9.6,-17.7 12,-20.6c1.1,1.3 3.4,4.2 5.8,7.5c4.1,5.8 6.2,10.4 6.2,13.1c0,6.6 -5.4,12 -12,12Z" style="fill:#b2b2b2;fill-rule:nonzero;"/><path d="M123.9,187.7c-4.5,0 -8.2,-3.7 -8.2,-8.2c0,-0.4 -0.3,-0.8 -0.8,-0.8c-0.4,0 -0.8,0.3 -0.8,0.8c0,5.4 4.4,9.8 9.8,9.8c0.4,0 0.8,-0.3 0.8,-0.8c0,-0.4 -0.4,-0.8 -0.8,-0.8Z" style="fill:#b2b2b2;fill-rule:nonzero;"/></g><g><path d="M151.5,22c-0.1,-0.2 -0.3,-0.3 -0.6,-0.3c-0.3,0 -0.4,0.1 -0.6,0.3c-0.5,0.6 -12.9,15 -12.9,22.2c0,7.4 6.1,13.5 13.5,13.5c7.4,0 13.5,-6 13.5,-13.5c0,-7.2 -12.4,-21.6 -12.9,-22.2Zm-0.6,34.2c-6.6,0 -12,-5.4 -12,-12c0,-5.9 9.6,-17.7 12,-20.6c1.1,1.3 3.4,4.2 5.8,7.5c4.1,5.8 6.2,10.4 6.2,13.1c0,6.7 -5.4,12 -12,12Z" style="fill:#b2b2b2;fill-rule:nonzero;"/><path d="M150.9,52.5c-4.5,0 -8.2,-3.7 -8.2,-8.2c0,-0.4 -0.3,-0.8 -0.8,-0.8c-0.4,0 -0.8,0.3 -0.8,0.8c0,5.4 4.4,9.8 9.8,9.8c0.4,0 0.8,-0.3 0.8,-0.8c0,-0.5 -0.4,-0.8 -0.8,-0.8Z" style="fill:#b2b2b2;fill-rule:nonzero;"/></g><g><path d="M151.5,74.3c-0.1,-0.2 -0.3,-0.3 -0.6,-0.3c-0.3,0 -0.4,0.1 -0.6,0.3c-0.5,0.6 -12.9,15 -12.9,22.2c0,7.4 6.1,13.5 13.5,13.5c7.4,0 13.5,-6 13.5,-13.4c0,-7.3 -12.4,-21.6 -12.9,-22.3Zm-0.6,34.3c-6.6,0 -12,-5.4 -12,-12c0,-5.9 9.6,-17.7 12,-20.6c1.1,1.3 3.4,4.2 5.8,7.5c4.1,5.8 6.2,10.4 6.2,13.1c0,6.6 -5.4,12 -12,12Z" style="fill:#b2b2b2;fill-rule:nonzero;"/><path d="M150.9,104.8c-4.5,0 -8.2,-3.7 -8.2,-8.2c0,-0.4 -0.3,-0.8 -0.8,-0.8c-0.4,0 -0.8,0.3 -0.8,0.8c0,5.4 4.4,9.8 9.8,9.8c0.4,0 0.8,-0.3 0.8,-0.8c0,-0.4 -0.4,-0.8 -0.8,-0.8Z" style="fill:#b2b2b2;fill-rule:nonzero;"/></g><g><path d="M151.5,126.7c-0.1,-0.2 -0.3,-0.3 -0.6,-0.3c-0.3,0 -0.4,0.1 -0.6,0.3c-0.5,0.6 -12.9,15 -12.9,22.2c0,7.4 6.1,13.5 13.5,13.5c7.4,0 13.5,-6.1 13.5,-13.5c0,-7.2 -12.4,-21.6 -12.9,-22.2Zm-0.6,34.2c-6.6,0 -12,-5.4 -12,-12c0,-5.9 9.6,-17.7 12,-20.6c1.1,1.3 3.4,4.2 5.8,7.5c4.1,5.8 6.2,10.4 6.2,13.1c0,6.6 -5.4,12 -12,12Z" style="fill:#b2b2b2;fill-rule:nonzero;"/><path d="M150.9,157.2c-4.5,0 -8.2,-3.7 -8.2,-8.2c0,-0.4 -0.3,-0.8 -0.8,-0.8c-0.4,0 -0.8,0.3 -0.8,0.8c0,5.4 4.4,9.8 9.8,9.8c0.4,0 0.8,-0.3 0.8,-0.8c0,-0.5 -0.4,-0.8 -0.8,-0.8Z" style="fill:#b2b2b2;fill-rule:nonzero;"/></g><g><path d="M151.5,179c-0.1,-0.2 -0.3,-0.3 -0.6,-0.3c-0.3,0 -0.4,0.1 -0.6,0.3c-0.5,0.6 -12.9,15 -12.9,22.2c0,7.4 6.1,13.5 13.5,13.5c7.4,0 13.5,-6.1 13.5,-13.5c0,-7.2 -12.4,-21.6 -12.9,-22.2Zm-0.6,34.2c-6.6,0 -12,-5.4 -12,-12c0,-5.9 9.6,-17.7 12,-20.6c1.1,1.3 3.4,4.2 5.8,7.5c4.1,5.8 6.2,10.4 6.2,13.1c0,6.7 -5.4,12 -12,12Z" style="fill:#b2b2b2;fill-rule:nonzero;"/><path d="M150.9,209.5c-4.5,0 -8.2,-3.7 -8.2,-8.2c0,-0.4 -0.3,-0.8 -0.8,-0.8c-0.4,0 -0.8,0.3 -0.8,0.8c0,5.4 4.4,9.8 9.8,9.8c0.4,0 0.8,-0.3 0.8,-0.8c0,-0.5 -0.4,-0.8 -0.8,-0.8Z" style="fill:#b2b2b2;fill-rule:nonzero;"/></g></g><g><g><path d="M69.3,0.3c-0.2,-0.2 -0.4,-0.3 -0.6,-0.3c-0.2,0 -0.4,0.1 -0.6,0.3c-0.5,0.6 -12.9,15 -12.9,22.2c0,7.4 6.1,13.5 13.5,13.5c7.4,0 13.5,-6.1 13.5,-13.5c0,-7.2 -12.4,-21.6 -12.9,-22.2Zm-0.6,34.2c-6.6,0 -12,-5.4 -12,-12c0,-5.9 9.6,-17.7 12,-20.6c1.1,1.3 3.4,4.2 5.8,7.5c4.1,5.8 6.2,10.4 6.2,13.1c0,6.6 -5.4,12 -12,12Z" style="fill:#b2b2b2;fill-rule:nonzero;"/><path d="M68.7,30.7c-4.5,0 -8.2,-3.7 -8.2,-8.2c0,-0.4 -0.3,-0.8 -0.8,-0.8c-0.4,0 -0.8,0.3 -0.8,0.8c0,5.4 4.4,9.8 9.8,9.8c0.4,0 0.8,-0.3 0.8,-0.8c0,-0.4 -0.4,-0.8 -0.8,-0.8Z" style="fill:#b2b2b2;fill-rule:nonzero;"/></g><g><path d="M69.3,52.6c-0.1,-0.2 -0.3,-0.3 -0.6,-0.3c-0.3,0 -0.4,0.1 -0.6,0.3c-0.5,0.6 -12.9,15 -12.9,22.2c0,7.4 6.1,13.5 13.5,13.5c7.4,0 13.5,-6 13.5,-13.5c0,-7.2 -12.4,-21.6 -12.9,-22.2Zm-0.6,34.2c-6.6,0 -12,-5.4 -12,-12c0,-5.9 9.6,-17.7 12,-20.6c1.1,1.3 3.4,4.2 5.8,7.5c4.1,5.8 6.2,10.4 6.2,13.1c0,6.7 -5.4,12 -12,12Z" style="fill:#b2b2b2;fill-rule:nonzero;"/><path d="M68.7,83.1c-4.5,0 -8.2,-3.7 -8.2,-8.2c0,-0.4 -0.3,-0.8 -0.8,-0.8c-0.4,0 -0.8,0.3 -0.8,0.8c0,5.4 4.4,9.8 9.8,9.8c0.4,0 0.8,-0.3 0.8,-0.8c0,-0.5 -0.4,-0.8 -0.8,-0.8Z" style="fill:#b2b2b2;fill-rule:nonzero;"/></g><g><path d="M69.3,104.9c-0.1,-0.2 -0.3,-0.3 -0.6,-0.3c-0.3,0 -0.4,0.1 -0.6,0.3c-0.5,0.6 -12.9,15 -12.9,22.2c0,7.4 6.1,13.5 13.5,13.5c7.4,0 13.5,-6 13.5,-13.4c0,-7.3 -12.4,-21.7 -12.9,-22.3Zm-0.6,34.3c-6.6,0 -12,-5.4 -12,-12c0,-5.9 9.6,-17.7 12,-20.6c1.1,1.3 3.4,4.2 5.8,7.5c4.1,5.8 6.2,10.4 6.2,13.1c0,6.6 -5.4,12 -12,12Z" style="fill:#b2b2b2;fill-rule:nonzero;"/><path d="M68.7,135.4c-4.5,0 -8.2,-3.7 -8.2,-8.2c0,-0.4 -0.3,-0.8 -0.8,-0.8c-0.4,0 -0.8,0.3 -0.8,0.8c0,5.4 4.4,9.8 9.8,9.8c0.4,0 0.8,-0.3 0.8,-0.8c0,-0.4 -0.4,-0.8 -0.8,-0.8Z" style="fill:#b2b2b2;fill-rule:nonzero;"/></g><g><path d="M69.3,157.3c-0.1,-0.2 -0.3,-0.3 -0.6,-0.3c-0.3,0 -0.4,0.1 -0.6,0.3c-0.5,0.6 -12.9,15 -12.9,22.2c0,7.4 6.1,13.5 13.5,13.5c7.4,0 13.5,-6.1 13.5,-13.5c0,-7.2 -12.4,-21.6 -12.9,-22.2Zm-0.6,34.2c-6.6,0 -12,-5.4 -12,-12c0,-5.9 9.6,-17.7 12,-20.6c1.1,1.3 3.4,4.2 5.8,7.5c4.1,5.8 6.2,10.4 6.2,13.1c0,6.6 -5.4,12 -12,12Z" style="fill:#b2b2b2;fill-rule:nonzero;"/><path d="M68.7,187.7c-4.5,0 -8.2,-3.7 -8.2,-8.2c0,-0.4 -0.3,-0.8 -0.8,-0.8c-0.4,0 -0.8,0.3 -0.8,0.8c0,5.4 4.4,9.8 9.8,9.8c0.4,0 0.8,-0.3 0.8,-0.8c0,-0.4 -0.4,-0.8 -0.8,-0.8Z" style="fill:#b2b2b2;fill-rule:nonzero;"/></g><g><path d="M96.3,22c-0.1,-0.2 -0.3,-0.3 -0.6,-0.3c-0.3,0 -0.4,0.1 -0.6,0.3c-0.5,0.6 -12.9,15 -12.9,22.2c0,7.4 6.1,13.5 13.5,13.5c7.4,0 13.5,-6 13.5,-13.5c0,-7.2 -12.4,-21.6 -12.9,-22.2Zm-0.6,34.2c-6.6,0 -12,-5.4 -12,-12c0,-5.9 9.6,-17.7 12,-20.6c1.1,1.3 3.4,4.2 5.8,7.5c4.1,5.8 6.2,10.4 6.2,13.1c0,6.7 -5.4,12 -12,12Z" style="fill:#b2b2b2;fill-rule:nonzero;"/><path d="M95.7,52.5c-4.5,0 -8.2,-3.7 -8.2,-8.2c0,-0.4 -0.3,-0.8 -0.8,-0.8c-0.4,0 -0.8,0.3 -0.8,0.8c0,5.4 4.4,9.8 9.8,9.8c0.4,0 0.8,-0.3 0.8,-0.8c0,-0.5 -0.4,-0.8 -0.8,-0.8Z" style="fill:#b2b2b2;fill-rule:nonzero;"/></g><g><path d="M96.3,74.3c-0.1,-0.2 -0.3,-0.3 -0.6,-0.3c-0.3,0 -0.4,0.1 -0.6,0.3c-0.5,0.7 -12.9,15 -12.9,22.3c0,7.4 6.1,13.5 13.5,13.5c7.4,0 13.5,-6.1 13.5,-13.5c0,-7.3 -12.4,-21.6 -12.9,-22.3Zm-0.6,34.3c-6.6,0 -12,-5.4 -12,-12c0,-5.9 9.6,-17.7 12,-20.6c1.1,1.3 3.4,4.2 5.8,7.5c4.1,5.8 6.2,10.4 6.2,13.1c0,6.6 -5.4,12 -12,12Z" style="fill:#b2b2b2;fill-rule:nonzero;"/><path d="M95.7,104.8c-4.5,0 -8.2,-3.7 -8.2,-8.2c0,-0.4 -0.3,-0.8 -0.8,-0.8c-0.4,0 -0.8,0.3 -0.8,0.8c0,5.4 4.4,9.8 9.8,9.8c0.4,0 0.8,-0.3 0.8,-0.8c0,-0.4 -0.4,-0.8 -0.8,-0.8Z" style="fill:#b2b2b2;fill-rule:nonzero;"/></g><g><path d="M96.3,126.7c-0.1,-0.2 -0.3,-0.3 -0.6,-0.3c-0.3,0 -0.4,0.1 -0.6,0.3c-0.5,0.6 -12.9,15 -12.9,22.2c0,7.4 6.1,13.5 13.5,13.5c7.4,0 13.5,-6.1 13.5,-13.5c0,-7.2 -12.4,-21.6 -12.9,-22.2Zm-0.6,34.2c-6.6,0 -12,-5.4 -12,-12c0,-5.9 9.6,-17.7 12,-20.6c1.1,1.3 3.4,4.2 5.8,7.5c4.1,5.8 6.2,10.4 6.2,13.1c0,6.6 -5.4,12 -12,12Z" style="fill:#b2b2b2;fill-rule:nonzero;"/><path d="M95.7,157.2c-4.5,0 -8.2,-3.7 -8.2,-8.2c0,-0.4 -0.3,-0.8 -0.8,-0.8c-0.4,0 -0.8,0.3 -0.8,0.8c0,5.4 4.4,9.8 9.8,9.8c0.4,0 0.8,-0.3 0.8,-0.8c0,-0.5 -0.4,-0.8 -0.8,-0.8Z" style="fill:#b2b2b2;fill-rule:nonzero;"/></g><g><path d="M96.3,179c-0.1,-0.2 -0.3,-0.3 -0.6,-0.3c-0.3,0 -0.4,0.1 -0.6,0.3c-0.5,0.6 -12.9,15 -12.9,22.2c0,7.4 6.1,13.5 13.5,13.5c7.4,0 13.5,-6.1 13.5,-13.5c0,-7.2 -12.4,-21.6 -12.9,-22.2Zm-0.6,34.2c-6.6,0 -12,-5.4 -12,-12c0,-5.9 9.6,-17.7 12,-20.6c1.1,1.3 3.4,4.2 5.8,7.5c4.1,5.8 6.2,10.4 6.2,13.1c0,6.7 -5.4,12 -12,12Z" style="fill:#b2b2b2;fill-rule:nonzero;"/><path d="M95.7,209.5c-4.5,0 -8.2,-3.7 -8.2,-8.2c0,-0.4 -0.3,-0.8 -0.8,-0.8c-0.4,0 -0.8,0.3 -0.8,0.8c0,5.4 4.4,9.8 9.8,9.8c0.4,0 0.8,-0.3 0.8,-0.8c0,-0.5 -0.4,-0.8 -0.8,-0.8Z" style="fill:#b2b2b2;fill-rule:nonzero;"/></g></g></g></svg>