<?xml version="1.0" encoding="iso-8859-1"?>
<!-- Generator: Adobe Illustrator 19.0.0, SVG Export Plug-In . SVG Version: 6.00 Build 0)  -->
<svg version="1.1" id="Layer_1" xmlns="http://www.w3.org/2000/svg" xmlns:xlink="http://www.w3.org/1999/xlink" x="0px" y="0px"
	 viewBox="0 0 512.002 512.002" style="enable-background:new 0 0 512.002 512.002;" xml:space="preserve">
<g>
	<g>
		<circle cx="109.966" cy="118.668" r="13.651"/>
	</g>
</g>
<g>
	<g>
		<path d="M507.029,316.221L300.327,194.065c-0.843-0.527-4.803-2.987-7.165-4.213c-13.467-7.075-28.115-10.329-42.576-9.967
			c-12.654-0.32-22.855-10.692-22.855-23.421v-26.962c0-49.631-40.382-90.009-90.021-90.009c-33.219,0-63.17,17.86-78.993,46.841
			L5.455,114.007c-3.35,1.741-5.453,5.201-5.455,8.975c-0.002,3.775,2.097,7.238,5.446,8.981l50.592,26.351v84.316
			c0,76.745,56.727,140.484,130.45,151.504l-58.13,58.135H99.352c-5.59,0-10.12,4.531-10.12,10.12c0,5.59,4.531,10.12,10.12,10.12
			h167.112c5.59,0,10.12-4.531,10.12-10.12c0-5.59-4.531-10.12-10.12-10.12h-32.797l56.442-56.442h63.687
			c0.409,0,0.81-0.031,1.207-0.079c57.755-0.699,112.186-23.104,153.884-63.512c0.023-0.021,0.045-0.044,0.066-0.065
			c0.25-0.244,0.441-0.457,0.58-0.643c0.385-0.448,0.748-0.92,1.058-1.445C513.436,325.271,511.84,319.065,507.029,316.221z
			 M76.281,242.631v-90.456c0-0.028-0.002-0.049-0.002-0.076c0-0.078-0.003-0.154-0.007-0.232c-0.005-0.134-0.014-0.258-0.025-0.37
			c-0.232-3.403-2.167-6.607-5.413-8.299l-38.782-20.2l37.871-19.675c2.223-0.891,4.145-2.559,5.297-4.874
			c11.889-23.881,35.835-38.716,62.491-38.716c38.476,0,69.78,31.298,69.78,69.769v26.962c0,11.631,4.577,22.205,12.013,30.043
			c-9.897,4.114-19.149,10.097-27.198,17.901c-16.664,16.157-26.039,37.834-26.4,61.038c-0.359,23.205,8.341,45.161,24.497,61.825
			c19.909,20.534,43.045,36.793,68.29,48.315h-49.46C135.923,375.586,76.281,315.943,76.281,242.631z M205.041,452.269h-48.057
			l56.442-56.442h48.057L205.041,452.269z M288.54,365.509c-2.336-0.759-4.653-1.565-6.957-2.407v-24.572
			c0-5.59-4.531-10.12-10.12-10.12c-5.59,0-10.12,4.531-10.12,10.12v15.901c-8.451-4.183-16.619-8.969-24.458-14.323v-42.975
			c0-5.59-4.531-10.12-10.12-10.12c-5.59,0-10.12,4.531-10.12,10.12v27.218c-4.022-3.555-7.931-7.273-11.708-11.169
			c-12.393-12.782-19.067-29.625-18.791-47.424c0.276-17.798,7.468-34.426,20.25-46.819c12.249-11.877,28.114-18.299,44.322-18.797
			c0.156,0.001,0.852-0.007,1.045-0.017c10.883-0.163,21.888,2.336,32.029,7.663c1.373,0.716,4.353,2.528,5.908,3.502
			c0.074,0.046,0.15,0.092,0.224,0.136l98.619,58.282C385.916,322.745,342.129,365.128,288.54,365.509z M352.207,375.541
			c-1.081,0-2.169-0.008-3.252-0.024c-3.788-0.058-7.558-0.229-11.309-0.491c37.216-16.871,64.437-52.032,70.144-93.94
			l77.135,45.585C447.801,358.333,401.262,375.541,352.207,375.541z"/>
	</g>
</g>
<g>
	<g>
		<path d="M159.139,314.912c-2.02-1.404-4.003-2.911-5.895-4.477c-4.308-3.567-10.686-2.963-14.249,1.342
			c-3.565,4.306-2.964,10.686,1.341,14.249c2.325,1.925,4.763,3.776,7.245,5.503c1.761,1.226,3.775,1.813,5.77,1.813
			c3.201,0,6.35-1.516,8.317-4.343C164.859,324.409,163.728,318.103,159.139,314.912z"/>
	</g>
</g>
<g>
	<g>
		<path d="M135.557,290.653c-9.352-14.294-14.297-30.901-14.297-48.022c0-5.59-4.531-10.12-10.12-10.12
			c-5.59,0-10.12,4.531-10.12,10.12c0,21.068,6.086,41.507,17.599,59.105c1.943,2.969,5.177,4.58,8.479,4.58
			c1.899,0,3.822-0.535,5.531-1.653C137.306,301.604,138.617,295.331,135.557,290.653z"/>
	</g>
</g>
<g>
</g>
<g>
</g>
<g>
</g>
<g>
</g>
<g>
</g>
<g>
</g>
<g>
</g>
<g>
</g>
<g>
</g>
<g>
</g>
<g>
</g>
<g>
</g>
<g>
</g>
<g>
</g>
<g>
</g>
</svg>
