<?xml version="1.0" encoding="UTF-8" standalone="no"?><!DOCTYPE svg PUBLIC "-//W3C//DTD SVG 1.1//EN" "http://www.w3.org/Graphics/SVG/1.1/DTD/svg11.dtd"><svg width="100%" height="100%" viewBox="0 0 400 233" version="1.1" xmlns="http://www.w3.org/2000/svg" xmlns:xlink="http://www.w3.org/1999/xlink" xml:space="preserve" style="fill-rule:evenodd;clip-rule:evenodd;stroke-linejoin:round;stroke-miterlimit:1.41421;"><g><g><circle cx="15.485" cy="11.149" r="1.922" style="fill:#c2c2c2;"/><path d="M71.397,38.967l-29.107,-17.201c-0.118,-0.074 -0.676,-0.421 -1.009,-0.593c-1.896,-0.997 -3.959,-1.455 -5.995,-1.404c-1.782,-0.045 -3.218,-1.505 -3.218,-3.298l0,-3.796c0,-6.989 -5.687,-12.675 -12.676,-12.675c-4.678,0 -8.896,2.515 -11.124,6.596l-7.5,3.897c-0.472,0.245 -0.768,0.732 -0.768,1.263c0,0.532 0.295,1.02 0.767,1.265l7.124,3.711l0,11.873c0,10.806 7.988,19.782 18.369,21.334l-8.185,8.186l-4.085,0c-0.787,0 -1.425,0.638 -1.425,1.425c0,0.787 0.638,1.425 1.425,1.425l23.532,0c0.787,0 1.425,-0.638 1.425,-1.425c0,-0.787 -0.638,-1.425 -1.425,-1.425l-4.618,0l7.948,-7.948l8.968,0c0.057,0 0.114,-0.004 0.17,-0.011c8.132,-0.099 15.797,-3.253 21.669,-8.944c0.003,-0.002 0.006,-0.006 0.009,-0.009c0.035,-0.034 0.062,-0.064 0.082,-0.09c0.054,-0.063 0.105,-0.13 0.149,-0.204c0.4,-0.677 0.176,-1.551 -0.502,-1.952Zm-60.656,-10.362l0,-12.738c0,-0.004 0,-0.007 0,-0.01c0,-0.011 0,-0.022 -0.001,-0.033c0,-0.019 -0.002,-0.036 -0.003,-0.052c-0.033,-0.479 -0.305,-0.931 -0.763,-1.169l-5.461,-2.844l5.333,-2.771c0.313,-0.125 0.584,-0.36 0.746,-0.686c1.674,-3.363 5.046,-5.452 8.8,-5.452c5.418,0 9.826,4.407 9.826,9.825l0,3.796c0,1.638 0.644,3.127 1.691,4.231c-1.393,0.579 -2.696,1.422 -3.83,2.52c-2.346,2.276 -3.666,5.328 -3.717,8.595c-0.051,3.268 1.175,6.36 3.45,8.706c2.803,2.892 6.061,5.181 9.616,6.804l-6.965,0c-10.323,0 -18.722,-8.399 -18.722,-18.722Zm18.132,29.52l-6.767,0l7.948,-7.948l6.767,0l-7.948,7.948Zm11.758,-12.217c-0.329,-0.107 -0.656,-0.221 -0.98,-0.339l0,-3.46c0,-0.787 -0.638,-1.425 -1.425,-1.425c-0.787,0 -1.425,0.638 -1.425,1.425l0,2.239c-1.19,-0.589 -2.34,-1.263 -3.444,-2.017l0,-6.052c0,-0.787 -0.638,-1.425 -1.425,-1.425c-0.787,0 -1.425,0.638 -1.425,1.425l0,3.833c-0.567,-0.5 -1.117,-1.024 -1.649,-1.573c-1.745,-1.799 -2.685,-4.171 -2.646,-6.678c0.039,-2.506 1.052,-4.847 2.852,-6.592c1.724,-1.673 3.958,-2.577 6.241,-2.647c0.022,0 0.12,-0.001 0.147,-0.003c1.532,-0.023 3.082,0.329 4.51,1.079c0.193,0.101 0.613,0.356 0.832,0.494c0.01,0.006 0.021,0.012 0.032,0.019l13.887,8.207c-0.37,7.468 -6.536,13.436 -14.082,13.49Zm8.965,1.412c-0.152,0 -0.306,-0.001 -0.458,-0.003c-0.533,-0.008 -1.064,-0.032 -1.593,-0.069c5.241,-2.376 9.074,-7.327 9.878,-13.228l10.862,6.419c-5.228,4.458 -11.781,6.881 -18.689,6.881Z" style="fill:#c2c2c2;fill-rule:nonzero;"/><path d="M22.409,38.783c-0.284,-0.198 -0.564,-0.41 -0.83,-0.63c-0.607,-0.503 -1.505,-0.418 -2.006,0.189c-0.502,0.606 -0.418,1.504 0.188,2.006c0.328,0.271 0.671,0.532 1.021,0.775c0.248,0.173 0.531,0.255 0.812,0.255c0.451,0 0.894,-0.213 1.171,-0.611c0.45,-0.647 0.29,-1.535 -0.356,-1.984Z" style="fill:#c2c2c2;fill-rule:nonzero;"/><path d="M19.088,35.367c-1.316,-2.013 -2.013,-4.351 -2.013,-6.762c0,-0.787 -0.638,-1.425 -1.425,-1.425c-0.787,0 -1.425,0.638 -1.425,1.425c0,2.966 0.857,5.845 2.478,8.323c0.274,0.418 0.729,0.645 1.194,0.645c0.268,0 0.538,-0.076 0.779,-0.233c0.659,-0.431 0.843,-1.314 0.412,-1.973Z" style="fill:#c2c2c2;fill-rule:nonzero;"/></g><g><circle cx="56.612" cy="72.124" r="1.922" style="fill:#c2c2c2;"/><path d="M0.7,99.942l29.107,-17.201c0.119,-0.074 0.676,-0.421 1.009,-0.593c1.896,-0.997 3.959,-1.455 5.995,-1.404c1.782,-0.045 3.218,-1.505 3.218,-3.298l0,-3.796c0,-6.989 5.687,-12.675 12.677,-12.675c4.677,0 8.895,2.515 11.123,6.596l7.5,3.897c0.472,0.245 0.768,0.732 0.768,1.263c0.001,0.532 -0.295,1.02 -0.767,1.265l-7.124,3.711l0,11.873c0,10.806 -7.988,19.782 -18.369,21.334l8.186,8.186l4.084,0c0.787,0 1.425,0.638 1.425,1.425c0,0.787 -0.638,1.425 -1.425,1.425l-23.532,0c-0.787,0 -1.425,-0.638 -1.425,-1.425c0,-0.787 0.638,-1.425 1.425,-1.425l4.619,0l-7.948,-7.948l-8.968,0c-0.058,0 -0.114,-0.004 -0.17,-0.011c-8.133,-0.099 -15.798,-3.253 -21.669,-8.944c-0.004,-0.002 -0.007,-0.006 -0.01,-0.009c-0.035,-0.034 -0.062,-0.064 -0.081,-0.09c-0.055,-0.063 -0.106,-0.13 -0.149,-0.204c-0.401,-0.677 -0.176,-1.551 0.501,-1.952Zm60.656,-10.362l0,-12.738c0,-0.004 0,-0.007 0,-0.01c0,-0.011 0,-0.022 0.001,-0.033c0.001,-0.019 0.002,-0.036 0.004,-0.052c0.032,-0.479 0.305,-0.931 0.762,-1.169l5.461,-2.844l-5.333,-2.771c-0.313,-0.125 -0.584,-0.36 -0.746,-0.686c-1.674,-3.363 -5.046,-5.452 -8.799,-5.452c-5.418,0 -9.827,4.407 -9.827,9.825l0,3.796c0,1.638 -0.644,3.127 -1.691,4.231c1.394,0.579 2.696,1.422 3.83,2.52c2.346,2.276 3.666,5.328 3.717,8.595c0.051,3.268 -1.174,6.36 -3.449,8.706c-2.804,2.892 -6.062,5.181 -9.617,6.804l6.965,0c10.323,0 18.722,-8.399 18.722,-18.722Zm-18.132,29.52l6.768,0l-7.948,-7.948l-6.767,0l7.947,7.948Zm-11.757,-12.217c0.329,-0.107 0.655,-0.221 0.979,-0.339l0,-3.46c0,-0.787 0.638,-1.425 1.425,-1.425c0.787,0 1.425,0.638 1.425,1.425l0,2.239c1.19,-0.589 2.341,-1.263 3.444,-2.017l0,-6.052c0,-0.787 0.638,-1.425 1.425,-1.425c0.788,0 1.425,0.638 1.425,1.425l0,3.833c0.567,-0.5 1.117,-1.024 1.649,-1.573c1.745,-1.799 2.685,-4.171 2.646,-6.678c-0.039,-2.506 -1.051,-4.847 -2.851,-6.592c-1.725,-1.673 -3.959,-2.577 -6.242,-2.647c-0.021,0 -0.119,-0.001 -0.147,-0.003c-1.532,-0.023 -3.082,0.329 -4.51,1.079c-0.193,0.101 -0.613,0.356 -0.832,0.494c-0.01,0.006 -0.021,0.012 -0.031,0.019l-13.887,8.207c0.37,7.468 6.535,13.436 14.082,13.49Zm-8.966,1.412c0.153,0 0.306,-0.001 0.458,-0.003c0.534,-0.008 1.065,-0.032 1.593,-0.069c-5.241,-2.376 -9.074,-7.327 -9.878,-13.228l-10.861,6.419c5.227,4.458 11.781,6.881 18.688,6.881Z" style="fill:#c2c2c2;fill-rule:nonzero;"/><path d="M49.688,99.758c0.285,-0.198 0.564,-0.41 0.83,-0.63c0.607,-0.503 1.505,-0.418 2.007,0.189c0.502,0.606 0.417,1.504 -0.189,2.006c-0.328,0.271 -0.671,0.532 -1.02,0.775c-0.248,0.173 -0.532,0.255 -0.813,0.255c-0.451,0 -0.894,-0.213 -1.171,-0.611c-0.449,-0.647 -0.29,-1.535 0.356,-1.984Z" style="fill:#c2c2c2;fill-rule:nonzero;"/><path d="M53.009,96.342c1.317,-2.013 2.013,-4.351 2.013,-6.762c0,-0.787 0.638,-1.425 1.425,-1.425c0.787,0 1.425,0.638 1.425,1.425c0,2.966 -0.857,5.845 -2.478,8.323c-0.274,0.418 -0.729,0.645 -1.194,0.645c-0.267,0 -0.538,-0.076 -0.779,-0.233c-0.658,-0.431 -0.843,-1.314 -0.412,-1.973Z" style="fill:#c2c2c2;fill-rule:nonzero;"/></g><g><circle cx="56.612" cy="194.074" r="1.922" style="fill:#c2c2c2;"/><path d="M0.7,221.892l29.107,-17.201c0.119,-0.074 0.676,-0.421 1.009,-0.593c1.896,-0.997 3.959,-1.455 5.995,-1.404c1.782,-0.045 3.218,-1.505 3.218,-3.298l0,-3.796c0,-6.989 5.687,-12.675 12.677,-12.675c4.677,0 8.895,2.515 11.123,6.596l7.5,3.897c0.472,0.245 0.768,0.732 0.768,1.263c0.001,0.532 -0.295,1.02 -0.767,1.265l-7.124,3.711l0,11.873c0,10.806 -7.988,19.782 -18.369,21.334l8.186,8.186l4.084,0c0.787,0 1.425,0.638 1.425,1.425c0,0.787 -0.638,1.425 -1.425,1.425l-23.532,0c-0.787,0 -1.425,-0.638 -1.425,-1.425c0,-0.787 0.638,-1.425 1.425,-1.425l4.619,0l-7.948,-7.948l-8.968,0c-0.058,0 -0.114,-0.004 -0.17,-0.011c-8.133,-0.099 -15.798,-3.253 -21.669,-8.944c-0.004,-0.002 -0.007,-0.006 -0.01,-0.009c-0.035,-0.034 -0.062,-0.064 -0.081,-0.09c-0.055,-0.063 -0.106,-0.13 -0.149,-0.204c-0.401,-0.677 -0.176,-1.551 0.501,-1.952Zm60.656,-10.362l0,-12.738c0,-0.004 0,-0.007 0,-0.01c0,-0.011 0,-0.022 0.001,-0.033c0.001,-0.019 0.002,-0.036 0.004,-0.052c0.032,-0.479 0.305,-0.931 0.762,-1.169l5.461,-2.844l-5.333,-2.771c-0.313,-0.125 -0.584,-0.36 -0.746,-0.686c-1.674,-3.363 -5.046,-5.452 -8.799,-5.452c-5.418,0 -9.827,4.407 -9.827,9.825l0,3.796c0,1.638 -0.644,3.127 -1.691,4.231c1.394,0.579 2.696,1.421 3.83,2.52c2.346,2.276 3.666,5.328 3.717,8.595c0.051,3.268 -1.174,6.36 -3.449,8.706c-2.804,2.892 -6.062,5.181 -9.617,6.804l6.965,0c10.323,0 18.722,-8.399 18.722,-18.722Zm-18.132,29.52l6.768,0l-7.948,-7.948l-6.767,0l7.947,7.948Zm-11.757,-12.217c0.329,-0.107 0.655,-0.221 0.979,-0.339l0,-3.46c0,-0.787 0.638,-1.425 1.425,-1.425c0.787,0 1.425,0.638 1.425,1.425l0,2.239c1.19,-0.589 2.341,-1.263 3.444,-2.017l0,-6.052c0,-0.787 0.638,-1.425 1.425,-1.425c0.788,0 1.425,0.638 1.425,1.425l0,3.833c0.567,-0.5 1.117,-1.024 1.649,-1.573c1.745,-1.8 2.685,-4.171 2.646,-6.678c-0.039,-2.506 -1.051,-4.847 -2.851,-6.592c-1.725,-1.673 -3.959,-2.577 -6.242,-2.647c-0.021,0 -0.119,-0.001 -0.147,-0.003c-1.532,-0.023 -3.082,0.329 -4.51,1.079c-0.193,0.101 -0.613,0.356 -0.832,0.493c-0.01,0.007 -0.021,0.013 -0.031,0.02l-13.887,8.207c0.37,7.468 6.535,13.436 14.082,13.49Zm-8.966,1.412c0.153,0 0.306,-0.001 0.458,-0.003c0.534,-0.008 1.065,-0.032 1.593,-0.069c-5.241,-2.376 -9.074,-7.327 -9.878,-13.228l-10.861,6.419c5.227,4.458 11.781,6.881 18.688,6.881Z" style="fill:#c2c2c2;fill-rule:nonzero;"/><path d="M49.688,221.708c0.285,-0.198 0.564,-0.41 0.83,-0.63c0.607,-0.503 1.505,-0.418 2.007,0.189c0.502,0.606 0.417,1.504 -0.189,2.006c-0.328,0.271 -0.671,0.532 -1.02,0.775c-0.248,0.173 -0.532,0.255 -0.813,0.255c-0.451,0 -0.894,-0.213 -1.171,-0.611c-0.449,-0.647 -0.29,-1.535 0.356,-1.984Z" style="fill:#c2c2c2;fill-rule:nonzero;"/><path d="M53.009,218.292c1.317,-2.013 2.013,-4.351 2.013,-6.762c0,-0.787 0.638,-1.425 1.425,-1.425c0.787,0 1.425,0.638 1.425,1.425c0,2.966 -0.857,5.845 -2.478,8.323c-0.274,0.418 -0.729,0.645 -1.194,0.645c-0.267,0 -0.538,-0.076 -0.779,-0.233c-0.658,-0.431 -0.843,-1.314 -0.412,-1.973Z" style="fill:#c2c2c2;fill-rule:nonzero;"/></g><g><circle cx="15.485" cy="133.099" r="1.922" style="fill:#c2c2c2;"/><path d="M71.397,160.917l-29.107,-17.201c-0.118,-0.074 -0.676,-0.421 -1.009,-0.593c-1.896,-0.997 -3.959,-1.455 -5.995,-1.404c-1.782,-0.045 -3.218,-1.505 -3.218,-3.298l0,-3.796c0,-6.989 -5.687,-12.675 -12.676,-12.675c-4.678,0 -8.896,2.515 -11.124,6.596l-7.5,3.897c-0.472,0.245 -0.768,0.732 -0.768,1.263c0,0.532 0.295,1.02 0.767,1.265l7.124,3.711l0,11.873c0,10.806 7.988,19.782 18.369,21.334l-8.185,8.186l-4.085,0c-0.787,0 -1.425,0.638 -1.425,1.425c0,0.787 0.638,1.425 1.425,1.425l23.532,0c0.787,0 1.425,-0.638 1.425,-1.425c0,-0.787 -0.638,-1.425 -1.425,-1.425l-4.618,0l7.948,-7.948l8.968,0c0.057,0 0.114,-0.004 0.17,-0.011c8.132,-0.099 15.797,-3.253 21.669,-8.944c0.003,-0.002 0.006,-0.006 0.009,-0.009c0.035,-0.034 0.062,-0.064 0.082,-0.09c0.054,-0.063 0.105,-0.13 0.149,-0.204c0.4,-0.677 0.176,-1.551 -0.502,-1.952Zm-60.656,-10.362l0,-12.738c0,-0.004 0,-0.007 0,-0.01c0,-0.011 0,-0.022 -0.001,-0.033c0,-0.019 -0.002,-0.036 -0.003,-0.052c-0.033,-0.479 -0.305,-0.931 -0.763,-1.169l-5.461,-2.844l5.333,-2.771c0.313,-0.125 0.584,-0.36 0.746,-0.686c1.674,-3.363 5.046,-5.452 8.8,-5.452c5.418,0 9.826,4.407 9.826,9.825l0,3.796c0,1.638 0.644,3.127 1.691,4.231c-1.393,0.579 -2.696,1.422 -3.83,2.52c-2.346,2.276 -3.666,5.328 -3.717,8.595c-0.051,3.268 1.175,6.36 3.45,8.706c2.803,2.892 6.061,5.181 9.616,6.804l-6.965,0c-10.323,0 -18.722,-8.399 -18.722,-18.722Zm18.132,29.52l-6.767,0l7.948,-7.948l6.767,0l-7.948,7.948Zm11.758,-12.217c-0.329,-0.107 -0.656,-0.221 -0.98,-0.339l0,-3.46c0,-0.787 -0.638,-1.425 -1.425,-1.425c-0.787,0 -1.425,0.638 -1.425,1.425l0,2.239c-1.19,-0.589 -2.34,-1.263 -3.444,-2.017l0,-6.052c0,-0.787 -0.638,-1.425 -1.425,-1.425c-0.787,0 -1.425,0.638 -1.425,1.425l0,3.833c-0.567,-0.5 -1.117,-1.024 -1.649,-1.573c-1.745,-1.799 -2.685,-4.171 -2.646,-6.678c0.039,-2.506 1.052,-4.847 2.852,-6.592c1.724,-1.673 3.958,-2.577 6.241,-2.647c0.022,0 0.12,-0.001 0.147,-0.003c1.532,-0.023 3.082,0.329 4.51,1.079c0.193,0.101 0.613,0.356 0.832,0.494c0.01,0.006 0.021,0.012 0.032,0.019l13.887,8.207c-0.37,7.468 -6.536,13.436 -14.082,13.49Zm8.965,1.412c-0.152,0 -0.306,-0.001 -0.458,-0.003c-0.533,-0.008 -1.064,-0.032 -1.593,-0.069c5.241,-2.376 9.074,-7.327 9.878,-13.228l10.862,6.419c-5.228,4.458 -11.781,6.881 -18.689,6.881Z" style="fill:#c2c2c2;fill-rule:nonzero;"/><path d="M22.409,160.733c-0.284,-0.198 -0.564,-0.41 -0.83,-0.63c-0.607,-0.503 -1.505,-0.418 -2.006,0.189c-0.502,0.606 -0.418,1.504 0.188,2.006c0.328,0.271 0.671,0.532 1.021,0.775c0.248,0.173 0.531,0.255 0.812,0.255c0.451,0 0.894,-0.213 1.171,-0.611c0.45,-0.647 0.29,-1.535 -0.356,-1.984Z" style="fill:#c2c2c2;fill-rule:nonzero;"/><path d="M19.088,157.317c-1.316,-2.013 -2.013,-4.351 -2.013,-6.762c0,-0.787 -0.638,-1.425 -1.425,-1.425c-0.787,0 -1.425,0.638 -1.425,1.425c0,2.966 0.857,5.845 2.478,8.323c0.274,0.418 0.729,0.645 1.194,0.645c0.268,0 0.538,-0.076 0.779,-0.233c0.659,-0.431 0.843,-1.314 0.412,-1.973Z" style="fill:#c2c2c2;fill-rule:nonzero;"/></g></g><g><g><circle cx="97.461" cy="11.149" r="1.922" style="fill:#c2c2c2;"/><path d="M153.373,38.967l-29.107,-17.201c-0.119,-0.074 -0.676,-0.421 -1.009,-0.593c-1.896,-0.997 -3.959,-1.455 -5.995,-1.404c-1.782,-0.045 -3.218,-1.505 -3.218,-3.298l0,-3.796c0,-6.989 -5.687,-12.675 -12.677,-12.675c-4.677,0 -8.895,2.515 -11.123,6.596l-7.5,3.897c-0.472,0.245 -0.768,0.732 -0.768,1.263c-0.001,0.532 0.295,1.02 0.767,1.265l7.124,3.711l0,11.873c0,10.806 7.988,19.782 18.369,21.334l-8.186,8.186l-4.084,0c-0.787,0 -1.425,0.638 -1.425,1.425c0,0.787 0.638,1.425 1.425,1.425l23.532,0c0.787,0 1.425,-0.638 1.425,-1.425c0,-0.787 -0.638,-1.425 -1.425,-1.425l-4.619,0l7.948,-7.948l8.968,0c0.058,0 0.114,-0.004 0.17,-0.011c8.133,-0.099 15.798,-3.253 21.669,-8.944c0.004,-0.002 0.007,-0.006 0.01,-0.009c0.035,-0.034 0.062,-0.064 0.081,-0.09c0.055,-0.063 0.106,-0.13 0.149,-0.204c0.401,-0.677 0.176,-1.551 -0.501,-1.952Zm-60.656,-10.362l0,-12.738c0,-0.004 0,-0.007 0,-0.01c0,-0.011 -0.001,-0.022 -0.001,-0.033c-0.001,-0.019 -0.002,-0.036 -0.004,-0.052c-0.032,-0.479 -0.305,-0.931 -0.762,-1.169l-5.461,-2.844l5.333,-2.771c0.313,-0.125 0.584,-0.36 0.746,-0.686c1.674,-3.363 5.046,-5.452 8.799,-5.452c5.418,0 9.826,4.407 9.826,9.825l0,3.796c0,1.638 0.645,3.127 1.692,4.231c-1.394,0.579 -2.696,1.422 -3.83,2.52c-2.346,2.276 -3.666,5.328 -3.717,8.595c-0.051,3.268 1.174,6.36 3.449,8.706c2.804,2.892 6.062,5.181 9.616,6.804l-6.964,0c-10.323,0 -18.722,-8.399 -18.722,-18.722Zm18.131,29.52l-6.767,0l7.948,-7.948l6.767,0l-7.948,7.948Zm11.758,-12.217c-0.329,-0.107 -0.655,-0.221 -0.979,-0.339l0,-3.46c0,-0.787 -0.638,-1.425 -1.425,-1.425c-0.788,0 -1.425,0.638 -1.425,1.425l0,2.239c-1.19,-0.589 -2.341,-1.263 -3.444,-2.017l0,-6.052c0,-0.787 -0.638,-1.425 -1.425,-1.425c-0.788,0 -1.426,0.638 -1.426,1.425l0,3.833c-0.566,-0.5 -1.116,-1.024 -1.648,-1.573c-1.745,-1.799 -2.685,-4.171 -2.646,-6.678c0.039,-2.506 1.051,-4.847 2.851,-6.592c1.725,-1.673 3.959,-2.577 6.241,-2.647c0.022,0 0.12,-0.001 0.148,-0.003c1.532,-0.023 3.082,0.329 4.51,1.079c0.193,0.101 0.613,0.356 0.832,0.494c0.01,0.006 0.021,0.012 0.031,0.019l13.887,8.207c-0.37,7.468 -6.536,13.436 -14.082,13.49Zm8.966,1.412c-0.153,0 -0.306,-0.001 -0.458,-0.003c-0.534,-0.008 -1.065,-0.032 -1.593,-0.069c5.241,-2.376 9.074,-7.327 9.877,-13.228l10.862,6.419c-5.227,4.458 -11.781,6.881 -18.688,6.881Z" style="fill:#c2c2c2;fill-rule:nonzero;"/><path d="M104.385,38.783c-0.285,-0.198 -0.564,-0.41 -0.83,-0.63c-0.607,-0.503 -1.505,-0.418 -2.007,0.189c-0.502,0.606 -0.417,1.504 0.189,2.006c0.327,0.271 0.671,0.532 1.02,0.775c0.248,0.173 0.532,0.255 0.813,0.255c0.45,0 0.894,-0.213 1.171,-0.611c0.449,-0.647 0.29,-1.535 -0.356,-1.984Z" style="fill:#c2c2c2;fill-rule:nonzero;"/><path d="M101.064,35.367c-1.317,-2.013 -2.013,-4.351 -2.013,-6.762c0,-0.787 -0.638,-1.425 -1.425,-1.425c-0.787,0 -1.425,0.638 -1.425,1.425c0,2.966 0.857,5.845 2.478,8.323c0.274,0.418 0.729,0.645 1.194,0.645c0.267,0 0.538,-0.076 0.779,-0.233c0.658,-0.431 0.843,-1.314 0.412,-1.973Z" style="fill:#c2c2c2;fill-rule:nonzero;"/></g><g><circle cx="138.588" cy="72.124" r="1.922" style="fill:#c2c2c2;"/><path d="M82.676,99.942l29.107,-17.201c0.118,-0.074 0.676,-0.421 1.008,-0.593c1.897,-0.997 3.959,-1.455 5.996,-1.404c1.782,-0.045 3.218,-1.505 3.218,-3.298l0,-3.796c0,-6.989 5.686,-12.675 12.676,-12.675c4.678,0 8.896,2.515 11.124,6.596l7.5,3.897c0.472,0.245 0.768,0.732 0.768,1.263c0,0.532 -0.295,1.02 -0.767,1.265l-7.124,3.711l0,11.873c0,10.806 -7.988,19.782 -18.369,21.334l8.185,8.186l4.085,0c0.787,0 1.425,0.638 1.425,1.425c0,0.787 -0.638,1.425 -1.425,1.425l-23.532,0c-0.787,0 -1.425,-0.638 -1.425,-1.425c0,-0.787 0.638,-1.425 1.425,-1.425l4.618,0l-7.948,-7.948l-8.968,0c-0.057,0 -0.114,-0.004 -0.17,-0.011c-8.132,-0.099 -15.797,-3.253 -21.669,-8.944c-0.003,-0.002 -0.006,-0.006 -0.009,-0.009c-0.035,-0.034 -0.062,-0.064 -0.082,-0.09c-0.054,-0.063 -0.105,-0.13 -0.149,-0.204c-0.4,-0.677 -0.176,-1.551 0.502,-1.952Zm60.655,-10.362l0,-12.738c0,-0.004 0.001,-0.007 0.001,-0.01c0,-0.011 0,-0.022 0.001,-0.033c0,-0.019 0.002,-0.036 0.003,-0.052c0.033,-0.479 0.305,-0.931 0.762,-1.169l5.462,-2.844l-5.333,-2.771c-0.313,-0.125 -0.584,-0.36 -0.746,-0.686c-1.674,-3.363 -5.046,-5.452 -8.8,-5.452c-5.418,0 -9.826,4.407 -9.826,9.825l0,3.796c0,1.638 -0.644,3.127 -1.691,4.231c1.393,0.579 2.696,1.422 3.829,2.52c2.347,2.276 3.667,5.328 3.718,8.595c0.051,3.268 -1.175,6.36 -3.45,8.706c-2.803,2.892 -6.061,5.181 -9.616,6.804l6.965,0c10.323,0 18.721,-8.399 18.721,-18.722Zm-18.131,29.52l6.767,0l-7.948,-7.948l-6.767,0l7.948,7.948Zm-11.758,-12.217c0.329,-0.107 0.655,-0.221 0.98,-0.339l0,-3.46c0,-0.787 0.638,-1.425 1.425,-1.425c0.787,0 1.425,0.638 1.425,1.425l0,2.239c1.19,-0.589 2.34,-1.263 3.444,-2.017l0,-6.052c0,-0.787 0.638,-1.425 1.425,-1.425c0.787,0 1.425,0.638 1.425,1.425l0,3.833c0.567,-0.5 1.117,-1.024 1.649,-1.573c1.745,-1.799 2.685,-4.171 2.646,-6.678c-0.039,-2.506 -1.052,-4.847 -2.852,-6.592c-1.724,-1.673 -3.958,-2.577 -6.241,-2.647c-0.022,0 -0.12,-0.001 -0.147,-0.003c-1.532,-0.023 -3.082,0.329 -4.51,1.079c-0.193,0.101 -0.613,0.356 -0.832,0.494c-0.01,0.006 -0.021,0.012 -0.032,0.019l-13.887,8.207c0.37,7.468 6.536,13.436 14.082,13.49Zm-8.965,1.412c0.152,0 0.305,-0.001 0.458,-0.003c0.533,-0.008 1.064,-0.032 1.592,-0.069c-5.24,-2.376 -9.073,-7.327 -9.877,-13.228l-10.862,6.419c5.228,4.458 11.781,6.881 18.689,6.881Z" style="fill:#c2c2c2;fill-rule:nonzero;"/><path d="M131.664,99.758c0.284,-0.198 0.564,-0.41 0.83,-0.63c0.607,-0.503 1.505,-0.418 2.006,0.189c0.502,0.606 0.418,1.504 -0.188,2.006c-0.328,0.271 -0.671,0.532 -1.021,0.775c-0.248,0.173 -0.531,0.255 -0.812,0.255c-0.451,0 -0.894,-0.213 -1.171,-0.611c-0.45,-0.647 -0.29,-1.535 0.356,-1.984Z" style="fill:#c2c2c2;fill-rule:nonzero;"/><path d="M134.985,96.342c1.316,-2.013 2.013,-4.351 2.013,-6.762c0,-0.787 0.638,-1.425 1.425,-1.425c0.787,0 1.425,0.638 1.425,1.425c0,2.966 -0.857,5.845 -2.478,8.323c-0.274,0.418 -0.729,0.645 -1.194,0.645c-0.268,0 -0.539,-0.076 -0.779,-0.233c-0.659,-0.431 -0.843,-1.314 -0.412,-1.973Z" style="fill:#c2c2c2;fill-rule:nonzero;"/></g><g><circle cx="138.588" cy="194.074" r="1.922" style="fill:#c2c2c2;"/><path d="M82.676,221.892l29.107,-17.201c0.118,-0.074 0.676,-0.421 1.008,-0.593c1.897,-0.997 3.959,-1.455 5.996,-1.404c1.782,-0.045 3.218,-1.505 3.218,-3.298l0,-3.796c0,-6.989 5.686,-12.675 12.676,-12.675c4.678,0 8.896,2.515 11.124,6.596l7.5,3.897c0.472,0.245 0.768,0.732 0.768,1.263c0,0.532 -0.295,1.02 -0.767,1.265l-7.124,3.711l0,11.873c0,10.806 -7.988,19.782 -18.369,21.334l8.185,8.186l4.085,0c0.787,0 1.425,0.638 1.425,1.425c0,0.787 -0.638,1.425 -1.425,1.425l-23.532,0c-0.787,0 -1.425,-0.638 -1.425,-1.425c0,-0.787 0.638,-1.425 1.425,-1.425l4.618,0l-7.948,-7.948l-8.968,0c-0.057,0 -0.114,-0.004 -0.17,-0.011c-8.132,-0.099 -15.797,-3.253 -21.669,-8.944c-0.003,-0.002 -0.006,-0.006 -0.009,-0.009c-0.035,-0.034 -0.062,-0.064 -0.082,-0.09c-0.054,-0.063 -0.105,-0.13 -0.149,-0.204c-0.4,-0.677 -0.176,-1.551 0.502,-1.952Zm60.655,-10.362l0,-12.738c0,-0.004 0.001,-0.007 0.001,-0.01c0,-0.011 0,-0.022 0.001,-0.033c0,-0.019 0.002,-0.036 0.003,-0.052c0.033,-0.479 0.305,-0.931 0.762,-1.169l5.462,-2.844l-5.333,-2.771c-0.313,-0.125 -0.584,-0.36 -0.746,-0.686c-1.674,-3.363 -5.046,-5.452 -8.8,-5.452c-5.418,0 -9.826,4.407 -9.826,9.825l0,3.796c0,1.638 -0.644,3.127 -1.691,4.231c1.393,0.579 2.696,1.421 3.829,2.52c2.347,2.276 3.667,5.328 3.718,8.595c0.051,3.268 -1.175,6.36 -3.45,8.706c-2.803,2.892 -6.061,5.181 -9.616,6.804l6.965,0c10.323,0 18.721,-8.399 18.721,-18.722Zm-18.131,29.52l6.767,0l-7.948,-7.948l-6.767,0l7.948,7.948Zm-11.758,-12.217c0.329,-0.107 0.655,-0.221 0.98,-0.339l0,-3.46c0,-0.787 0.638,-1.425 1.425,-1.425c0.787,0 1.425,0.638 1.425,1.425l0,2.239c1.19,-0.589 2.34,-1.263 3.444,-2.017l0,-6.052c0,-0.787 0.638,-1.425 1.425,-1.425c0.787,0 1.425,0.638 1.425,1.425l0,3.833c0.567,-0.5 1.117,-1.024 1.649,-1.573c1.745,-1.8 2.685,-4.171 2.646,-6.678c-0.039,-2.506 -1.052,-4.847 -2.852,-6.592c-1.724,-1.673 -3.958,-2.577 -6.241,-2.647c-0.022,0 -0.12,-0.001 -0.147,-0.003c-1.532,-0.023 -3.082,0.329 -4.51,1.079c-0.193,0.101 -0.613,0.356 -0.832,0.493c-0.01,0.007 -0.021,0.013 -0.032,0.02l-13.887,8.207c0.37,7.468 6.536,13.436 14.082,13.49Zm-8.965,1.412c0.152,0 0.305,-0.001 0.458,-0.003c0.533,-0.008 1.064,-0.032 1.592,-0.069c-5.24,-2.376 -9.073,-7.327 -9.877,-13.228l-10.862,6.419c5.228,4.458 11.781,6.881 18.689,6.881Z" style="fill:#c2c2c2;fill-rule:nonzero;"/><path d="M131.664,221.708c0.284,-0.198 0.564,-0.41 0.83,-0.63c0.607,-0.503 1.505,-0.418 2.006,0.189c0.502,0.606 0.418,1.504 -0.188,2.006c-0.328,0.271 -0.671,0.532 -1.021,0.775c-0.248,0.173 -0.531,0.255 -0.812,0.255c-0.451,0 -0.894,-0.213 -1.171,-0.611c-0.45,-0.647 -0.29,-1.535 0.356,-1.984Z" style="fill:#c2c2c2;fill-rule:nonzero;"/><path d="M134.985,218.292c1.316,-2.013 2.013,-4.351 2.013,-6.762c0,-0.787 0.638,-1.425 1.425,-1.425c0.787,0 1.425,0.638 1.425,1.425c0,2.966 -0.857,5.845 -2.478,8.323c-0.274,0.418 -0.729,0.645 -1.194,0.645c-0.268,0 -0.539,-0.076 -0.779,-0.233c-0.659,-0.431 -0.843,-1.314 -0.412,-1.973Z" style="fill:#c2c2c2;fill-rule:nonzero;"/></g><g><circle cx="97.461" cy="133.099" r="1.922" style="fill:#c2c2c2;"/><path d="M153.373,160.917l-29.107,-17.201c-0.119,-0.074 -0.676,-0.421 -1.009,-0.593c-1.896,-0.997 -3.959,-1.455 -5.995,-1.404c-1.782,-0.045 -3.218,-1.505 -3.218,-3.298l0,-3.796c0,-6.989 -5.687,-12.675 -12.677,-12.675c-4.677,0 -8.895,2.515 -11.123,6.596l-7.5,3.897c-0.472,0.245 -0.768,0.732 -0.768,1.263c-0.001,0.532 0.295,1.02 0.767,1.265l7.124,3.711l0,11.873c0,10.806 7.988,19.782 18.369,21.334l-8.186,8.186l-4.084,0c-0.787,0 -1.425,0.638 -1.425,1.425c0,0.787 0.638,1.425 1.425,1.425l23.532,0c0.787,0 1.425,-0.638 1.425,-1.425c0,-0.787 -0.638,-1.425 -1.425,-1.425l-4.619,0l7.948,-7.948l8.968,0c0.058,0 0.114,-0.004 0.17,-0.011c8.133,-0.099 15.798,-3.253 21.669,-8.944c0.004,-0.002 0.007,-0.006 0.01,-0.009c0.035,-0.034 0.062,-0.064 0.081,-0.09c0.055,-0.063 0.106,-0.13 0.149,-0.204c0.401,-0.677 0.176,-1.551 -0.501,-1.952Zm-60.656,-10.362l0,-12.738c0,-0.004 0,-0.007 0,-0.01c0,-0.011 -0.001,-0.022 -0.001,-0.033c-0.001,-0.019 -0.002,-0.036 -0.004,-0.052c-0.032,-0.479 -0.305,-0.931 -0.762,-1.169l-5.461,-2.844l5.333,-2.771c0.313,-0.125 0.584,-0.36 0.746,-0.686c1.674,-3.363 5.046,-5.452 8.799,-5.452c5.418,0 9.826,4.407 9.826,9.825l0,3.796c0,1.638 0.645,3.127 1.692,4.231c-1.394,0.579 -2.696,1.422 -3.83,2.52c-2.346,2.276 -3.666,5.328 -3.717,8.595c-0.051,3.268 1.174,6.36 3.449,8.706c2.804,2.892 6.062,5.181 9.616,6.804l-6.964,0c-10.323,0 -18.722,-8.399 -18.722,-18.722Zm18.131,29.52l-6.767,0l7.948,-7.948l6.767,0l-7.948,7.948Zm11.758,-12.217c-0.329,-0.107 -0.655,-0.221 -0.979,-0.339l0,-3.46c0,-0.787 -0.638,-1.425 -1.425,-1.425c-0.788,0 -1.425,0.638 -1.425,1.425l0,2.239c-1.19,-0.589 -2.341,-1.263 -3.444,-2.017l0,-6.052c0,-0.787 -0.638,-1.425 -1.425,-1.425c-0.788,0 -1.426,0.638 -1.426,1.425l0,3.833c-0.566,-0.5 -1.116,-1.024 -1.648,-1.573c-1.745,-1.799 -2.685,-4.171 -2.646,-6.678c0.039,-2.506 1.051,-4.847 2.851,-6.592c1.725,-1.673 3.959,-2.577 6.241,-2.647c0.022,0 0.12,-0.001 0.148,-0.003c1.532,-0.023 3.082,0.329 4.51,1.079c0.193,0.101 0.613,0.356 0.832,0.494c0.01,0.006 0.021,0.012 0.031,0.019l13.887,8.207c-0.37,7.468 -6.536,13.436 -14.082,13.49Zm8.966,1.412c-0.153,0 -0.306,-0.001 -0.458,-0.003c-0.534,-0.008 -1.065,-0.032 -1.593,-0.069c5.241,-2.376 9.074,-7.327 9.877,-13.228l10.862,6.419c-5.227,4.458 -11.781,6.881 -18.688,6.881Z" style="fill:#c2c2c2;fill-rule:nonzero;"/><path d="M104.385,160.733c-0.285,-0.198 -0.564,-0.41 -0.83,-0.63c-0.607,-0.503 -1.505,-0.418 -2.007,0.189c-0.502,0.606 -0.417,1.504 0.189,2.006c0.327,0.271 0.671,0.532 1.02,0.775c0.248,0.173 0.532,0.255 0.813,0.255c0.45,0 0.894,-0.213 1.171,-0.611c0.449,-0.647 0.29,-1.535 -0.356,-1.984Z" style="fill:#c2c2c2;fill-rule:nonzero;"/><path d="M101.064,157.317c-1.317,-2.013 -2.013,-4.351 -2.013,-6.762c0,-0.787 -0.638,-1.425 -1.425,-1.425c-0.787,0 -1.425,0.638 -1.425,1.425c0,2.966 0.857,5.845 2.478,8.323c0.274,0.418 0.729,0.645 1.194,0.645c0.267,0 0.538,-0.076 0.779,-0.233c0.658,-0.431 0.843,-1.314 0.412,-1.973Z" style="fill:#c2c2c2;fill-rule:nonzero;"/></g></g><g><g><circle cx="179.436" cy="11.149" r="1.922" style="fill:#c2c2c2;"/><path d="M235.348,38.967l-29.106,-17.201c-0.119,-0.074 -0.677,-0.421 -1.009,-0.593c-1.896,-0.997 -3.959,-1.455 -5.995,-1.404c-1.782,-0.045 -3.219,-1.505 -3.219,-3.298l0,-3.796c0,-6.989 -5.686,-12.675 -12.676,-12.675c-4.678,0 -8.895,2.515 -11.123,6.596l-7.5,3.897c-0.472,0.245 -0.768,0.732 -0.769,1.263c0,0.532 0.296,1.02 0.767,1.265l7.124,3.711l0,11.873c0,10.806 7.988,19.782 18.37,21.334l-8.186,8.186l-4.084,0c-0.788,0 -1.425,0.638 -1.425,1.425c0,0.787 0.638,1.425 1.425,1.425l23.531,0c0.788,0 1.425,-0.638 1.425,-1.425c0,-0.787 -0.638,-1.425 -1.425,-1.425l-4.618,0l7.948,-7.948l8.968,0c0.058,0 0.114,-0.004 0.17,-0.011c8.133,-0.099 15.797,-3.253 21.669,-8.944c0.003,-0.002 0.006,-0.006 0.009,-0.009c0.036,-0.034 0.063,-0.064 0.082,-0.09c0.054,-0.063 0.105,-0.13 0.149,-0.204c0.401,-0.677 0.176,-1.551 -0.502,-1.952Zm-60.655,-10.362l0,-12.738c0,-0.004 0,-0.007 0,-0.01c0,-0.011 -0.001,-0.022 -0.001,-0.033c-0.001,-0.019 -0.002,-0.036 -0.004,-0.052c-0.033,-0.479 -0.305,-0.931 -0.762,-1.169l-5.461,-2.844l5.333,-2.771c0.313,-0.125 0.583,-0.36 0.745,-0.686c1.675,-3.363 5.047,-5.452 8.8,-5.452c5.418,0 9.826,4.407 9.826,9.825l0,3.796c0,1.638 0.645,3.127 1.692,4.231c-1.394,0.579 -2.697,1.422 -3.83,2.52c-2.347,2.276 -3.667,5.328 -3.718,8.595c-0.05,3.268 1.175,6.36 3.45,8.706c2.803,2.892 6.061,5.181 9.616,6.804l-6.965,0c-10.323,0 -18.721,-8.399 -18.721,-18.722Zm18.131,29.52l-6.767,0l7.948,-7.948l6.767,0l-7.948,7.948Zm11.758,-12.217c-0.329,-0.107 -0.655,-0.221 -0.98,-0.339l0,-3.46c0,-0.787 -0.638,-1.425 -1.425,-1.425c-0.787,0 -1.425,0.638 -1.425,1.425l0,2.239c-1.19,-0.589 -2.34,-1.263 -3.444,-2.017l0,-6.052c0,-0.787 -0.638,-1.425 -1.425,-1.425c-0.787,0 -1.425,0.638 -1.425,1.425l0,3.833c-0.566,-0.5 -1.117,-1.024 -1.648,-1.573c-1.746,-1.799 -2.685,-4.171 -2.647,-6.678c0.039,-2.506 1.052,-4.847 2.852,-6.592c1.725,-1.673 3.959,-2.577 6.241,-2.647c0.022,0 0.12,-0.001 0.147,-0.003c1.533,-0.023 3.082,0.329 4.51,1.079c0.194,0.101 0.613,0.356 0.832,0.494c0.011,0.006 0.021,0.012 0.032,0.019l13.887,8.207c-0.37,7.468 -6.536,13.436 -14.082,13.49Zm8.965,1.412c-0.152,0 -0.305,-0.001 -0.458,-0.003c-0.533,-0.008 -1.064,-0.032 -1.592,-0.069c5.24,-2.376 9.074,-7.327 9.877,-13.228l10.862,6.419c-5.228,4.458 -11.781,6.881 -18.689,6.881Z" style="fill:#c2c2c2;fill-rule:nonzero;"/><path d="M186.36,38.783c-0.284,-0.198 -0.563,-0.41 -0.83,-0.63c-0.606,-0.503 -1.504,-0.418 -2.006,0.189c-0.502,0.606 -0.417,1.504 0.189,2.006c0.327,0.271 0.67,0.532 1.02,0.775c0.248,0.173 0.532,0.255 0.812,0.255c0.451,0 0.895,-0.213 1.172,-0.611c0.449,-0.647 0.29,-1.535 -0.357,-1.984Z" style="fill:#c2c2c2;fill-rule:nonzero;"/><path d="M183.04,35.367c-1.317,-2.013 -2.013,-4.351 -2.013,-6.762c0,-0.787 -0.638,-1.425 -1.425,-1.425c-0.788,0 -1.426,0.638 -1.426,1.425c0,2.966 0.857,5.845 2.479,8.323c0.273,0.418 0.729,0.645 1.194,0.645c0.267,0 0.538,-0.076 0.778,-0.233c0.659,-0.431 0.844,-1.314 0.413,-1.973Z" style="fill:#c2c2c2;fill-rule:nonzero;"/></g><g><circle cx="220.564" cy="72.124" r="1.922" style="fill:#c2c2c2;"/><path d="M164.652,99.942l29.106,-17.201c0.119,-0.074 0.677,-0.421 1.009,-0.593c1.896,-0.997 3.959,-1.455 5.995,-1.404c1.782,-0.045 3.219,-1.505 3.219,-3.298l0,-3.796c0,-6.989 5.686,-12.675 12.676,-12.675c4.678,0 8.895,2.515 11.123,6.596l7.5,3.897c0.472,0.245 0.768,0.732 0.769,1.263c0,0.532 -0.296,1.02 -0.767,1.265l-7.124,3.711l0,11.873c0,10.806 -7.988,19.782 -18.37,21.334l8.186,8.186l4.084,0c0.788,0 1.425,0.638 1.425,1.425c0,0.787 -0.638,1.425 -1.425,1.425l-23.531,0c-0.788,0 -1.425,-0.638 -1.425,-1.425c0,-0.787 0.638,-1.425 1.425,-1.425l4.618,0l-7.948,-7.948l-8.968,0c-0.058,0 -0.114,-0.004 -0.17,-0.011c-8.133,-0.099 -15.797,-3.253 -21.669,-8.944c-0.003,-0.002 -0.006,-0.006 -0.009,-0.009c-0.036,-0.034 -0.063,-0.064 -0.082,-0.09c-0.054,-0.063 -0.105,-0.13 -0.149,-0.204c-0.401,-0.677 -0.176,-1.551 0.502,-1.952Zm60.655,-10.362l0,-12.738c0,-0.004 0,-0.007 0,-0.01c0,-0.011 0.001,-0.022 0.001,-0.033c0.001,-0.019 0.002,-0.036 0.004,-0.052c0.033,-0.479 0.305,-0.931 0.762,-1.169l5.461,-2.844l-5.333,-2.771c-0.313,-0.125 -0.583,-0.36 -0.745,-0.686c-1.675,-3.363 -5.047,-5.452 -8.8,-5.452c-5.418,0 -9.826,4.407 -9.826,9.825l0,3.796c0,1.638 -0.645,3.127 -1.692,4.231c1.394,0.579 2.697,1.422 3.83,2.52c2.347,2.276 3.667,5.328 3.718,8.595c0.05,3.268 -1.175,6.36 -3.45,8.706c-2.803,2.892 -6.061,5.181 -9.616,6.804l6.965,0c10.323,0 18.721,-8.399 18.721,-18.722Zm-18.131,29.52l6.767,0l-7.948,-7.948l-6.767,0l7.948,7.948Zm-11.758,-12.217c0.329,-0.107 0.655,-0.221 0.98,-0.339l0,-3.46c0,-0.787 0.638,-1.425 1.425,-1.425c0.787,0 1.425,0.638 1.425,1.425l0,2.239c1.19,-0.589 2.34,-1.263 3.444,-2.017l0,-6.052c0,-0.787 0.638,-1.425 1.425,-1.425c0.787,0 1.425,0.638 1.425,1.425l0,3.833c0.566,-0.5 1.117,-1.024 1.648,-1.573c1.746,-1.799 2.685,-4.171 2.647,-6.678c-0.039,-2.506 -1.052,-4.847 -2.852,-6.592c-1.725,-1.673 -3.959,-2.577 -6.241,-2.647c-0.022,0 -0.12,-0.001 -0.147,-0.003c-1.533,-0.023 -3.082,0.329 -4.51,1.079c-0.194,0.101 -0.613,0.356 -0.832,0.494c-0.011,0.006 -0.021,0.012 -0.032,0.019l-13.887,8.207c0.37,7.468 6.536,13.436 14.082,13.49Zm-8.965,1.412c0.152,0 0.305,-0.001 0.458,-0.003c0.533,-0.008 1.064,-0.032 1.592,-0.069c-5.24,-2.376 -9.074,-7.327 -9.877,-13.228l-10.862,6.419c5.228,4.458 11.781,6.881 18.689,6.881Z" style="fill:#c2c2c2;fill-rule:nonzero;"/><path d="M213.64,99.758c0.284,-0.198 0.563,-0.41 0.83,-0.63c0.606,-0.503 1.504,-0.418 2.006,0.189c0.502,0.606 0.417,1.504 -0.189,2.006c-0.327,0.271 -0.67,0.532 -1.02,0.775c-0.248,0.173 -0.532,0.255 -0.812,0.255c-0.451,0 -0.895,-0.213 -1.172,-0.611c-0.449,-0.647 -0.29,-1.535 0.357,-1.984Z" style="fill:#c2c2c2;fill-rule:nonzero;"/><path d="M216.96,96.342c1.317,-2.013 2.013,-4.351 2.013,-6.762c0,-0.787 0.638,-1.425 1.425,-1.425c0.788,0 1.426,0.638 1.426,1.425c0,2.966 -0.857,5.845 -2.479,8.323c-0.273,0.418 -0.729,0.645 -1.194,0.645c-0.267,0 -0.538,-0.076 -0.778,-0.233c-0.659,-0.431 -0.844,-1.314 -0.413,-1.973Z" style="fill:#c2c2c2;fill-rule:nonzero;"/></g><g><circle cx="220.564" cy="194.074" r="1.922" style="fill:#c2c2c2;"/><path d="M164.652,221.892l29.106,-17.201c0.119,-0.074 0.677,-0.421 1.009,-0.593c1.896,-0.997 3.959,-1.455 5.995,-1.404c1.782,-0.045 3.219,-1.505 3.219,-3.298l0,-3.796c0,-6.989 5.686,-12.675 12.676,-12.675c4.678,0 8.895,2.515 11.123,6.596l7.5,3.897c0.472,0.245 0.768,0.732 0.769,1.263c0,0.532 -0.296,1.02 -0.767,1.265l-7.124,3.711l0,11.873c0,10.806 -7.988,19.782 -18.37,21.334l8.186,8.186l4.084,0c0.788,0 1.425,0.638 1.425,1.425c0,0.787 -0.638,1.425 -1.425,1.425l-23.531,0c-0.788,0 -1.425,-0.638 -1.425,-1.425c0,-0.787 0.638,-1.425 1.425,-1.425l4.618,0l-7.948,-7.948l-8.968,0c-0.058,0 -0.114,-0.004 -0.17,-0.011c-8.133,-0.099 -15.797,-3.253 -21.669,-8.944c-0.003,-0.002 -0.006,-0.006 -0.009,-0.009c-0.036,-0.034 -0.063,-0.064 -0.082,-0.09c-0.054,-0.063 -0.105,-0.13 -0.149,-0.204c-0.401,-0.677 -0.176,-1.551 0.502,-1.952Zm60.655,-10.362l0,-12.738c0,-0.004 0,-0.007 0,-0.01c0,-0.011 0.001,-0.022 0.001,-0.033c0.001,-0.019 0.002,-0.036 0.004,-0.052c0.033,-0.479 0.305,-0.931 0.762,-1.169l5.461,-2.844l-5.333,-2.771c-0.313,-0.125 -0.583,-0.36 -0.745,-0.686c-1.675,-3.363 -5.047,-5.452 -8.8,-5.452c-5.418,0 -9.826,4.407 -9.826,9.825l0,3.796c0,1.638 -0.645,3.127 -1.692,4.231c1.394,0.579 2.697,1.421 3.83,2.52c2.347,2.276 3.667,5.328 3.718,8.595c0.05,3.268 -1.175,6.36 -3.45,8.706c-2.803,2.892 -6.061,5.181 -9.616,6.804l6.965,0c10.323,0 18.721,-8.399 18.721,-18.722Zm-18.131,29.52l6.767,0l-7.948,-7.948l-6.767,0l7.948,7.948Zm-11.758,-12.217c0.329,-0.107 0.655,-0.221 0.98,-0.339l0,-3.46c0,-0.787 0.638,-1.425 1.425,-1.425c0.787,0 1.425,0.638 1.425,1.425l0,2.239c1.19,-0.589 2.34,-1.263 3.444,-2.017l0,-6.052c0,-0.787 0.638,-1.425 1.425,-1.425c0.787,0 1.425,0.638 1.425,1.425l0,3.833c0.566,-0.5 1.117,-1.024 1.648,-1.573c1.746,-1.8 2.685,-4.171 2.647,-6.678c-0.039,-2.506 -1.052,-4.847 -2.852,-6.592c-1.725,-1.673 -3.959,-2.577 -6.241,-2.647c-0.022,0 -0.12,-0.001 -0.147,-0.003c-1.533,-0.023 -3.082,0.329 -4.51,1.079c-0.194,0.101 -0.613,0.356 -0.832,0.493c-0.011,0.007 -0.021,0.013 -0.032,0.02l-13.887,8.207c0.37,7.468 6.536,13.436 14.082,13.49Zm-8.965,1.412c0.152,0 0.305,-0.001 0.458,-0.003c0.533,-0.008 1.064,-0.032 1.592,-0.069c-5.24,-2.376 -9.074,-7.327 -9.877,-13.228l-10.862,6.419c5.228,4.458 11.781,6.881 18.689,6.881Z" style="fill:#c2c2c2;fill-rule:nonzero;"/><path d="M213.64,221.708c0.284,-0.198 0.563,-0.41 0.83,-0.63c0.606,-0.503 1.504,-0.418 2.006,0.189c0.502,0.606 0.417,1.504 -0.189,2.006c-0.327,0.271 -0.67,0.532 -1.02,0.775c-0.248,0.173 -0.532,0.255 -0.812,0.255c-0.451,0 -0.895,-0.213 -1.172,-0.611c-0.449,-0.647 -0.29,-1.535 0.357,-1.984Z" style="fill:#c2c2c2;fill-rule:nonzero;"/><path d="M216.96,218.292c1.317,-2.013 2.013,-4.351 2.013,-6.762c0,-0.787 0.638,-1.425 1.425,-1.425c0.788,0 1.426,0.638 1.426,1.425c0,2.966 -0.857,5.845 -2.479,8.323c-0.273,0.418 -0.729,0.645 -1.194,0.645c-0.267,0 -0.538,-0.076 -0.778,-0.233c-0.659,-0.431 -0.844,-1.314 -0.413,-1.973Z" style="fill:#c2c2c2;fill-rule:nonzero;"/></g><g><circle cx="179.436" cy="133.099" r="1.922" style="fill:#c2c2c2;"/><path d="M235.348,160.917l-29.106,-17.201c-0.119,-0.074 -0.677,-0.421 -1.009,-0.593c-1.896,-0.997 -3.959,-1.455 -5.995,-1.404c-1.782,-0.045 -3.219,-1.505 -3.219,-3.298l0,-3.796c0,-6.989 -5.686,-12.675 -12.676,-12.675c-4.678,0 -8.895,2.515 -11.123,6.596l-7.5,3.897c-0.472,0.245 -0.768,0.732 -0.769,1.263c0,0.532 0.296,1.02 0.767,1.265l7.124,3.711l0,11.873c0,10.806 7.988,19.782 18.37,21.334l-8.186,8.186l-4.084,0c-0.788,0 -1.425,0.638 -1.425,1.425c0,0.787 0.638,1.425 1.425,1.425l23.531,0c0.788,0 1.425,-0.638 1.425,-1.425c0,-0.787 -0.638,-1.425 -1.425,-1.425l-4.618,0l7.948,-7.948l8.968,0c0.058,0 0.114,-0.004 0.17,-0.011c8.133,-0.099 15.797,-3.253 21.669,-8.944c0.003,-0.002 0.006,-0.006 0.009,-0.009c0.036,-0.034 0.063,-0.064 0.082,-0.09c0.054,-0.063 0.105,-0.13 0.149,-0.204c0.401,-0.677 0.176,-1.551 -0.502,-1.952Zm-60.655,-10.362l0,-12.738c0,-0.004 0,-0.007 0,-0.01c0,-0.011 -0.001,-0.022 -0.001,-0.033c-0.001,-0.019 -0.002,-0.036 -0.004,-0.052c-0.033,-0.479 -0.305,-0.931 -0.762,-1.169l-5.461,-2.844l5.333,-2.771c0.313,-0.125 0.583,-0.36 0.745,-0.686c1.675,-3.363 5.047,-5.452 8.8,-5.452c5.418,0 9.826,4.407 9.826,9.825l0,3.796c0,1.638 0.645,3.127 1.692,4.231c-1.394,0.579 -2.697,1.422 -3.83,2.52c-2.347,2.276 -3.667,5.328 -3.718,8.595c-0.05,3.268 1.175,6.36 3.45,8.706c2.803,2.892 6.061,5.181 9.616,6.804l-6.965,0c-10.323,0 -18.721,-8.399 -18.721,-18.722Zm18.131,29.52l-6.767,0l7.948,-7.948l6.767,0l-7.948,7.948Zm11.758,-12.217c-0.329,-0.107 -0.655,-0.221 -0.98,-0.339l0,-3.46c0,-0.787 -0.638,-1.425 -1.425,-1.425c-0.787,0 -1.425,0.638 -1.425,1.425l0,2.239c-1.19,-0.589 -2.34,-1.263 -3.444,-2.017l0,-6.052c0,-0.787 -0.638,-1.425 -1.425,-1.425c-0.787,0 -1.425,0.638 -1.425,1.425l0,3.833c-0.566,-0.5 -1.117,-1.024 -1.648,-1.573c-1.746,-1.799 -2.685,-4.171 -2.647,-6.678c0.039,-2.506 1.052,-4.847 2.852,-6.592c1.725,-1.673 3.959,-2.577 6.241,-2.647c0.022,0 0.12,-0.001 0.147,-0.003c1.533,-0.023 3.082,0.329 4.51,1.079c0.194,0.101 0.613,0.356 0.832,0.494c0.011,0.006 0.021,0.012 0.032,0.019l13.887,8.207c-0.37,7.468 -6.536,13.436 -14.082,13.49Zm8.965,1.412c-0.152,0 -0.305,-0.001 -0.458,-0.003c-0.533,-0.008 -1.064,-0.032 -1.592,-0.069c5.24,-2.376 9.074,-7.327 9.877,-13.228l10.862,6.419c-5.228,4.458 -11.781,6.881 -18.689,6.881Z" style="fill:#c2c2c2;fill-rule:nonzero;"/><path d="M186.36,160.733c-0.284,-0.198 -0.563,-0.41 -0.83,-0.63c-0.606,-0.503 -1.504,-0.418 -2.006,0.189c-0.502,0.606 -0.417,1.504 0.189,2.006c0.327,0.271 0.67,0.532 1.02,0.775c0.248,0.173 0.532,0.255 0.812,0.255c0.451,0 0.895,-0.213 1.172,-0.611c0.449,-0.647 0.29,-1.535 -0.357,-1.984Z" style="fill:#c2c2c2;fill-rule:nonzero;"/><path d="M183.04,157.317c-1.317,-2.013 -2.013,-4.351 -2.013,-6.762c0,-0.787 -0.638,-1.425 -1.425,-1.425c-0.788,0 -1.426,0.638 -1.426,1.425c0,2.966 0.857,5.845 2.479,8.323c0.273,0.418 0.729,0.645 1.194,0.645c0.267,0 0.538,-0.076 0.778,-0.233c0.659,-0.431 0.844,-1.314 0.413,-1.973Z" style="fill:#c2c2c2;fill-rule:nonzero;"/></g></g><g><g><circle cx="261.412" cy="11.149" r="1.922" style="fill:#c2c2c2;"/><path d="M317.324,38.967l-29.107,-17.201c-0.118,-0.074 -0.676,-0.421 -1.008,-0.593c-1.897,-0.997 -3.959,-1.455 -5.996,-1.404c-1.782,-0.045 -3.218,-1.505 -3.218,-3.298l0,-3.796c0,-6.989 -5.686,-12.675 -12.676,-12.675c-4.678,0 -8.896,2.515 -11.124,6.596l-7.5,3.897c-0.472,0.245 -0.768,0.732 -0.768,1.263c0,0.532 0.295,1.02 0.767,1.265l7.124,3.711l0,11.873c0,10.806 7.988,19.782 18.369,21.334l-8.185,8.186l-4.085,0c-0.787,0 -1.425,0.638 -1.425,1.425c0,0.787 0.638,1.425 1.425,1.425l23.532,0c0.787,0 1.425,-0.638 1.425,-1.425c0,-0.787 -0.638,-1.425 -1.425,-1.425l-4.618,0l7.948,-7.948l8.968,0c0.057,0 0.114,-0.004 0.17,-0.011c8.132,-0.099 15.797,-3.253 21.669,-8.944c0.003,-0.002 0.006,-0.006 0.009,-0.009c0.035,-0.034 0.062,-0.064 0.082,-0.09c0.054,-0.063 0.105,-0.13 0.149,-0.204c0.4,-0.677 0.176,-1.551 -0.502,-1.952Zm-60.655,-10.362l0,-12.738c0,-0.004 -0.001,-0.007 -0.001,-0.01c0,-0.011 0,-0.022 -0.001,-0.033c0,-0.019 -0.002,-0.036 -0.003,-0.052c-0.033,-0.479 -0.305,-0.931 -0.762,-1.169l-5.462,-2.844l5.333,-2.771c0.313,-0.125 0.584,-0.36 0.746,-0.686c1.674,-3.363 5.046,-5.452 8.8,-5.452c5.418,0 9.826,4.407 9.826,9.825l0,3.796c0,1.638 0.644,3.127 1.691,4.231c-1.393,0.579 -2.696,1.422 -3.829,2.52c-2.347,2.276 -3.667,5.328 -3.718,8.595c-0.051,3.268 1.175,6.36 3.45,8.706c2.803,2.892 6.061,5.181 9.616,6.804l-6.965,0c-10.323,0 -18.721,-8.399 -18.721,-18.722Zm18.131,29.52l-6.767,0l7.948,-7.948l6.767,0l-7.948,7.948Zm11.758,-12.217c-0.329,-0.107 -0.655,-0.221 -0.98,-0.339l0,-3.46c0,-0.787 -0.638,-1.425 -1.425,-1.425c-0.787,0 -1.425,0.638 -1.425,1.425l0,2.239c-1.19,-0.589 -2.34,-1.263 -3.444,-2.017l0,-6.052c0,-0.787 -0.638,-1.425 -1.425,-1.425c-0.787,0 -1.425,0.638 -1.425,1.425l0,3.833c-0.567,-0.5 -1.117,-1.024 -1.649,-1.573c-1.745,-1.799 -2.685,-4.171 -2.646,-6.678c0.039,-2.506 1.052,-4.847 2.852,-6.592c1.724,-1.673 3.958,-2.577 6.241,-2.647c0.022,0 0.12,-0.001 0.147,-0.003c1.532,-0.023 3.082,0.329 4.51,1.079c0.193,0.101 0.613,0.356 0.832,0.494c0.01,0.006 0.021,0.012 0.032,0.019l13.887,8.207c-0.37,7.468 -6.536,13.436 -14.082,13.49Zm8.965,1.412c-0.152,0 -0.305,-0.001 -0.458,-0.003c-0.533,-0.008 -1.064,-0.032 -1.592,-0.069c5.24,-2.376 9.073,-7.327 9.877,-13.228l10.862,6.419c-5.228,4.458 -11.781,6.881 -18.689,6.881Z" style="fill:#c2c2c2;fill-rule:nonzero;"/><path d="M268.336,38.783c-0.284,-0.198 -0.564,-0.41 -0.83,-0.63c-0.607,-0.503 -1.505,-0.418 -2.006,0.189c-0.502,0.606 -0.418,1.504 0.188,2.006c0.328,0.271 0.671,0.532 1.021,0.775c0.248,0.173 0.531,0.255 0.812,0.255c0.451,0 0.894,-0.213 1.171,-0.611c0.45,-0.647 0.29,-1.535 -0.356,-1.984Z" style="fill:#c2c2c2;fill-rule:nonzero;"/><path d="M265.015,35.367c-1.316,-2.013 -2.013,-4.351 -2.013,-6.762c0,-0.787 -0.638,-1.425 -1.425,-1.425c-0.787,0 -1.425,0.638 -1.425,1.425c0,2.966 0.857,5.845 2.478,8.323c0.274,0.418 0.729,0.645 1.194,0.645c0.268,0 0.539,-0.076 0.779,-0.233c0.659,-0.431 0.843,-1.314 0.412,-1.973Z" style="fill:#c2c2c2;fill-rule:nonzero;"/></g><g><circle cx="302.539" cy="72.124" r="1.922" style="fill:#c2c2c2;"/><path d="M246.627,99.942l29.107,-17.201c0.119,-0.074 0.676,-0.421 1.009,-0.593c1.896,-0.997 3.959,-1.455 5.995,-1.404c1.782,-0.045 3.218,-1.505 3.218,-3.298l0,-3.796c0,-6.989 5.687,-12.675 12.677,-12.675c4.677,0 8.895,2.515 11.123,6.596l7.5,3.897c0.472,0.245 0.768,0.732 0.768,1.263c0.001,0.532 -0.295,1.02 -0.767,1.265l-7.124,3.711l0,11.873c0,10.806 -7.988,19.782 -18.369,21.334l8.186,8.186l4.084,0c0.787,0 1.425,0.638 1.425,1.425c0,0.787 -0.638,1.425 -1.425,1.425l-23.532,0c-0.787,0 -1.425,-0.638 -1.425,-1.425c0,-0.787 0.638,-1.425 1.425,-1.425l4.619,0l-7.948,-7.948l-8.968,0c-0.058,0 -0.114,-0.004 -0.17,-0.011c-8.133,-0.099 -15.798,-3.253 -21.669,-8.944c-0.004,-0.002 -0.007,-0.006 -0.01,-0.009c-0.035,-0.034 -0.062,-0.064 -0.081,-0.09c-0.055,-0.063 -0.106,-0.13 -0.149,-0.204c-0.401,-0.677 -0.176,-1.551 0.501,-1.952Zm60.656,-10.362l0,-12.738c0,-0.004 0,-0.007 0,-0.01c0,-0.011 0.001,-0.022 0.001,-0.033c0.001,-0.019 0.002,-0.036 0.004,-0.052c0.032,-0.479 0.305,-0.931 0.762,-1.169l5.461,-2.844l-5.333,-2.771c-0.313,-0.125 -0.584,-0.36 -0.746,-0.686c-1.674,-3.363 -5.046,-5.452 -8.799,-5.452c-5.418,0 -9.826,4.407 -9.826,9.825l0,3.796c0,1.638 -0.645,3.127 -1.692,4.231c1.394,0.579 2.696,1.422 3.83,2.52c2.346,2.276 3.666,5.328 3.717,8.595c0.051,3.268 -1.174,6.36 -3.449,8.706c-2.804,2.892 -6.062,5.181 -9.616,6.804l6.964,0c10.323,0 18.722,-8.399 18.722,-18.722Zm-18.131,29.52l6.767,0l-7.948,-7.948l-6.767,0l7.948,7.948Zm-11.758,-12.217c0.329,-0.107 0.655,-0.221 0.979,-0.339l0,-3.46c0,-0.787 0.638,-1.425 1.425,-1.425c0.788,0 1.425,0.638 1.425,1.425l0,2.239c1.19,-0.589 2.341,-1.263 3.444,-2.017l0,-6.052c0,-0.787 0.638,-1.425 1.425,-1.425c0.788,0 1.426,0.638 1.426,1.425l0,3.833c0.566,-0.5 1.116,-1.024 1.648,-1.573c1.745,-1.799 2.685,-4.171 2.646,-6.678c-0.039,-2.506 -1.051,-4.847 -2.851,-6.592c-1.725,-1.673 -3.959,-2.577 -6.241,-2.647c-0.022,0 -0.12,-0.001 -0.148,-0.003c-1.532,-0.023 -3.082,0.329 -4.51,1.079c-0.193,0.101 -0.613,0.356 -0.832,0.494c-0.01,0.006 -0.021,0.012 -0.031,0.019l-13.887,8.207c0.37,7.468 6.536,13.436 14.082,13.49Zm-8.966,1.412c0.153,0 0.306,-0.001 0.458,-0.003c0.534,-0.008 1.065,-0.032 1.593,-0.069c-5.241,-2.376 -9.074,-7.327 -9.877,-13.228l-10.862,6.419c5.227,4.458 11.781,6.881 18.688,6.881Z" style="fill:#c2c2c2;fill-rule:nonzero;"/><path d="M295.615,99.758c0.285,-0.198 0.564,-0.41 0.83,-0.63c0.607,-0.503 1.505,-0.418 2.007,0.189c0.502,0.606 0.417,1.504 -0.189,2.006c-0.327,0.271 -0.671,0.532 -1.02,0.775c-0.248,0.173 -0.532,0.255 -0.813,0.255c-0.45,0 -0.894,-0.213 -1.171,-0.611c-0.449,-0.647 -0.29,-1.535 0.356,-1.984Z" style="fill:#c2c2c2;fill-rule:nonzero;"/><path d="M298.936,96.342c1.317,-2.013 2.013,-4.351 2.013,-6.762c0,-0.787 0.638,-1.425 1.425,-1.425c0.787,0 1.425,0.638 1.425,1.425c0,2.966 -0.857,5.845 -2.478,8.323c-0.274,0.418 -0.729,0.645 -1.194,0.645c-0.267,0 -0.538,-0.076 -0.779,-0.233c-0.658,-0.431 -0.843,-1.314 -0.412,-1.973Z" style="fill:#c2c2c2;fill-rule:nonzero;"/></g><g><circle cx="302.539" cy="194.074" r="1.922" style="fill:#c2c2c2;"/><path d="M246.627,221.892l29.107,-17.201c0.119,-0.074 0.676,-0.421 1.009,-0.593c1.896,-0.997 3.959,-1.455 5.995,-1.404c1.782,-0.045 3.218,-1.505 3.218,-3.298l0,-3.796c0,-6.989 5.687,-12.675 12.677,-12.675c4.677,0 8.895,2.515 11.123,6.596l7.5,3.897c0.472,0.245 0.768,0.732 0.768,1.263c0.001,0.532 -0.295,1.02 -0.767,1.265l-7.124,3.711l0,11.873c0,10.806 -7.988,19.782 -18.369,21.334l8.186,8.186l4.084,0c0.787,0 1.425,0.638 1.425,1.425c0,0.787 -0.638,1.425 -1.425,1.425l-23.532,0c-0.787,0 -1.425,-0.638 -1.425,-1.425c0,-0.787 0.638,-1.425 1.425,-1.425l4.619,0l-7.948,-7.948l-8.968,0c-0.058,0 -0.114,-0.004 -0.17,-0.011c-8.133,-0.099 -15.798,-3.253 -21.669,-8.944c-0.004,-0.002 -0.007,-0.006 -0.01,-0.009c-0.035,-0.034 -0.062,-0.064 -0.081,-0.09c-0.055,-0.063 -0.106,-0.13 -0.149,-0.204c-0.401,-0.677 -0.176,-1.551 0.501,-1.952Zm60.656,-10.362l0,-12.738c0,-0.004 0,-0.007 0,-0.01c0,-0.011 0.001,-0.022 0.001,-0.033c0.001,-0.019 0.002,-0.036 0.004,-0.052c0.032,-0.479 0.305,-0.931 0.762,-1.169l5.461,-2.844l-5.333,-2.771c-0.313,-0.125 -0.584,-0.36 -0.746,-0.686c-1.674,-3.363 -5.046,-5.452 -8.799,-5.452c-5.418,0 -9.826,4.407 -9.826,9.825l0,3.796c0,1.638 -0.645,3.127 -1.692,4.231c1.394,0.579 2.696,1.421 3.83,2.52c2.346,2.276 3.666,5.328 3.717,8.595c0.051,3.268 -1.174,6.36 -3.449,8.706c-2.804,2.892 -6.062,5.181 -9.616,6.804l6.964,0c10.323,0 18.722,-8.399 18.722,-18.722Zm-18.131,29.52l6.767,0l-7.948,-7.948l-6.767,0l7.948,7.948Zm-11.758,-12.217c0.329,-0.107 0.655,-0.221 0.979,-0.339l0,-3.46c0,-0.787 0.638,-1.425 1.425,-1.425c0.788,0 1.425,0.638 1.425,1.425l0,2.239c1.19,-0.589 2.341,-1.263 3.444,-2.017l0,-6.052c0,-0.787 0.638,-1.425 1.425,-1.425c0.788,0 1.426,0.638 1.426,1.425l0,3.833c0.566,-0.5 1.116,-1.024 1.648,-1.573c1.745,-1.8 2.685,-4.171 2.646,-6.678c-0.039,-2.506 -1.051,-4.847 -2.851,-6.592c-1.725,-1.673 -3.959,-2.577 -6.241,-2.647c-0.022,0 -0.12,-0.001 -0.148,-0.003c-1.532,-0.023 -3.082,0.329 -4.51,1.079c-0.193,0.101 -0.613,0.356 -0.832,0.493c-0.01,0.007 -0.021,0.013 -0.031,0.02l-13.887,8.207c0.37,7.468 6.536,13.436 14.082,13.49Zm-8.966,1.412c0.153,0 0.306,-0.001 0.458,-0.003c0.534,-0.008 1.065,-0.032 1.593,-0.069c-5.241,-2.376 -9.074,-7.327 -9.877,-13.228l-10.862,6.419c5.227,4.458 11.781,6.881 18.688,6.881Z" style="fill:#c2c2c2;fill-rule:nonzero;"/><path d="M295.615,221.708c0.285,-0.198 0.564,-0.41 0.83,-0.63c0.607,-0.503 1.505,-0.418 2.007,0.189c0.502,0.606 0.417,1.504 -0.189,2.006c-0.327,0.271 -0.671,0.532 -1.02,0.775c-0.248,0.173 -0.532,0.255 -0.813,0.255c-0.45,0 -0.894,-0.213 -1.171,-0.611c-0.449,-0.647 -0.29,-1.535 0.356,-1.984Z" style="fill:#c2c2c2;fill-rule:nonzero;"/><path d="M298.936,218.292c1.317,-2.013 2.013,-4.351 2.013,-6.762c0,-0.787 0.638,-1.425 1.425,-1.425c0.787,0 1.425,0.638 1.425,1.425c0,2.966 -0.857,5.845 -2.478,8.323c-0.274,0.418 -0.729,0.645 -1.194,0.645c-0.267,0 -0.538,-0.076 -0.779,-0.233c-0.658,-0.431 -0.843,-1.314 -0.412,-1.973Z" style="fill:#c2c2c2;fill-rule:nonzero;"/></g><g><circle cx="261.412" cy="133.099" r="1.922" style="fill:#c2c2c2;"/><path d="M317.324,160.917l-29.107,-17.201c-0.118,-0.074 -0.676,-0.421 -1.008,-0.593c-1.897,-0.997 -3.959,-1.455 -5.996,-1.404c-1.782,-0.045 -3.218,-1.505 -3.218,-3.298l0,-3.796c0,-6.989 -5.686,-12.675 -12.676,-12.675c-4.678,0 -8.896,2.515 -11.124,6.596l-7.5,3.897c-0.472,0.245 -0.768,0.732 -0.768,1.263c0,0.532 0.295,1.02 0.767,1.265l7.124,3.711l0,11.873c0,10.806 7.988,19.782 18.369,21.334l-8.185,8.186l-4.085,0c-0.787,0 -1.425,0.638 -1.425,1.425c0,0.787 0.638,1.425 1.425,1.425l23.532,0c0.787,0 1.425,-0.638 1.425,-1.425c0,-0.787 -0.638,-1.425 -1.425,-1.425l-4.618,0l7.948,-7.948l8.968,0c0.057,0 0.114,-0.004 0.17,-0.011c8.132,-0.099 15.797,-3.253 21.669,-8.944c0.003,-0.002 0.006,-0.006 0.009,-0.009c0.035,-0.034 0.062,-0.064 0.082,-0.09c0.054,-0.063 0.105,-0.13 0.149,-0.204c0.4,-0.677 0.176,-1.551 -0.502,-1.952Zm-60.655,-10.362l0,-12.738c0,-0.004 -0.001,-0.007 -0.001,-0.01c0,-0.011 0,-0.022 -0.001,-0.033c0,-0.019 -0.002,-0.036 -0.003,-0.052c-0.033,-0.479 -0.305,-0.931 -0.762,-1.169l-5.462,-2.844l5.333,-2.771c0.313,-0.125 0.584,-0.36 0.746,-0.686c1.674,-3.363 5.046,-5.452 8.8,-5.452c5.418,0 9.826,4.407 9.826,9.825l0,3.796c0,1.638 0.644,3.127 1.691,4.231c-1.393,0.579 -2.696,1.422 -3.829,2.52c-2.347,2.276 -3.667,5.328 -3.718,8.595c-0.051,3.268 1.175,6.36 3.45,8.706c2.803,2.892 6.061,5.181 9.616,6.804l-6.965,0c-10.323,0 -18.721,-8.399 -18.721,-18.722Zm18.131,29.52l-6.767,0l7.948,-7.948l6.767,0l-7.948,7.948Zm11.758,-12.217c-0.329,-0.107 -0.655,-0.221 -0.98,-0.339l0,-3.46c0,-0.787 -0.638,-1.425 -1.425,-1.425c-0.787,0 -1.425,0.638 -1.425,1.425l0,2.239c-1.19,-0.589 -2.34,-1.263 -3.444,-2.017l0,-6.052c0,-0.787 -0.638,-1.425 -1.425,-1.425c-0.787,0 -1.425,0.638 -1.425,1.425l0,3.833c-0.567,-0.5 -1.117,-1.024 -1.649,-1.573c-1.745,-1.799 -2.685,-4.171 -2.646,-6.678c0.039,-2.506 1.052,-4.847 2.852,-6.592c1.724,-1.673 3.958,-2.577 6.241,-2.647c0.022,0 0.12,-0.001 0.147,-0.003c1.532,-0.023 3.082,0.329 4.51,1.079c0.193,0.101 0.613,0.356 0.832,0.494c0.01,0.006 0.021,0.012 0.032,0.019l13.887,8.207c-0.37,7.468 -6.536,13.436 -14.082,13.49Zm8.965,1.412c-0.152,0 -0.305,-0.001 -0.458,-0.003c-0.533,-0.008 -1.064,-0.032 -1.592,-0.069c5.24,-2.376 9.073,-7.327 9.877,-13.228l10.862,6.419c-5.228,4.458 -11.781,6.881 -18.689,6.881Z" style="fill:#c2c2c2;fill-rule:nonzero;"/><path d="M268.336,160.733c-0.284,-0.198 -0.564,-0.41 -0.83,-0.63c-0.607,-0.503 -1.505,-0.418 -2.006,0.189c-0.502,0.606 -0.418,1.504 0.188,2.006c0.328,0.271 0.671,0.532 1.021,0.775c0.248,0.173 0.531,0.255 0.812,0.255c0.451,0 0.894,-0.213 1.171,-0.611c0.45,-0.647 0.29,-1.535 -0.356,-1.984Z" style="fill:#c2c2c2;fill-rule:nonzero;"/><path d="M265.015,157.317c-1.316,-2.013 -2.013,-4.351 -2.013,-6.762c0,-0.787 -0.638,-1.425 -1.425,-1.425c-0.787,0 -1.425,0.638 -1.425,1.425c0,2.966 0.857,5.845 2.478,8.323c0.274,0.418 0.729,0.645 1.194,0.645c0.268,0 0.539,-0.076 0.779,-0.233c0.659,-0.431 0.843,-1.314 0.412,-1.973Z" style="fill:#c2c2c2;fill-rule:nonzero;"/></g></g><g><g><circle cx="343.388" cy="11.149" r="1.922" style="fill:#c2c2c2;"/><path d="M399.3,38.967l-29.107,-17.201c-0.119,-0.074 -0.676,-0.421 -1.009,-0.593c-1.896,-0.997 -3.959,-1.455 -5.995,-1.404c-1.782,-0.045 -3.218,-1.505 -3.218,-3.298l0,-3.796c0,-6.989 -5.687,-12.675 -12.677,-12.675c-4.677,0 -8.895,2.515 -11.123,6.596l-7.5,3.897c-0.472,0.245 -0.768,0.732 -0.768,1.263c-0.001,0.532 0.295,1.02 0.767,1.265l7.124,3.711l0,11.873c0,10.806 7.988,19.782 18.369,21.334l-8.186,8.186l-4.084,0c-0.787,0 -1.425,0.638 -1.425,1.425c0,0.787 0.638,1.425 1.425,1.425l23.532,0c0.787,0 1.425,-0.638 1.425,-1.425c0,-0.787 -0.638,-1.425 -1.425,-1.425l-4.619,0l7.948,-7.948l8.968,0c0.058,0 0.114,-0.004 0.17,-0.011c8.133,-0.099 15.798,-3.253 21.669,-8.944c0.004,-0.002 0.007,-0.006 0.01,-0.009c0.035,-0.034 0.062,-0.064 0.081,-0.09c0.055,-0.063 0.106,-0.13 0.149,-0.204c0.401,-0.677 0.176,-1.551 -0.501,-1.952Zm-60.656,-10.362l0,-12.738c0,-0.004 0,-0.007 0,-0.01c0,-0.011 0,-0.022 -0.001,-0.033c-0.001,-0.019 -0.002,-0.036 -0.004,-0.052c-0.032,-0.479 -0.305,-0.931 -0.762,-1.169l-5.461,-2.844l5.333,-2.771c0.313,-0.125 0.584,-0.36 0.746,-0.686c1.674,-3.363 5.046,-5.452 8.799,-5.452c5.418,0 9.827,4.407 9.827,9.825l0,3.796c0,1.638 0.644,3.127 1.691,4.231c-1.394,0.579 -2.696,1.422 -3.83,2.52c-2.346,2.276 -3.666,5.328 -3.717,8.595c-0.051,3.268 1.174,6.36 3.449,8.706c2.804,2.892 6.062,5.181 9.617,6.804l-6.965,0c-10.323,0 -18.722,-8.399 -18.722,-18.722Zm18.132,29.52l-6.768,0l7.948,-7.948l6.767,0l-7.947,7.948Zm11.757,-12.217c-0.329,-0.107 -0.655,-0.221 -0.979,-0.339l0,-3.46c0,-0.787 -0.638,-1.425 -1.425,-1.425c-0.787,0 -1.425,0.638 -1.425,1.425l0,2.239c-1.19,-0.589 -2.341,-1.263 -3.444,-2.017l0,-6.052c0,-0.787 -0.638,-1.425 -1.425,-1.425c-0.788,0 -1.425,0.638 -1.425,1.425l0,3.833c-0.567,-0.5 -1.117,-1.024 -1.649,-1.573c-1.745,-1.799 -2.685,-4.171 -2.646,-6.678c0.039,-2.506 1.051,-4.847 2.851,-6.592c1.725,-1.673 3.959,-2.577 6.242,-2.647c0.021,0 0.119,-0.001 0.147,-0.003c1.532,-0.023 3.082,0.329 4.51,1.079c0.193,0.101 0.613,0.356 0.832,0.494c0.01,0.006 0.021,0.012 0.031,0.019l13.887,8.207c-0.37,7.468 -6.535,13.436 -14.082,13.49Zm8.966,1.412c-0.153,0 -0.306,-0.001 -0.458,-0.003c-0.534,-0.008 -1.065,-0.032 -1.593,-0.069c5.241,-2.376 9.074,-7.327 9.878,-13.228l10.861,6.419c-5.227,4.458 -11.781,6.881 -18.688,6.881Z" style="fill:#c2c2c2;fill-rule:nonzero;"/><path d="M350.312,38.783c-0.285,-0.198 -0.564,-0.41 -0.83,-0.63c-0.607,-0.503 -1.505,-0.418 -2.007,0.189c-0.502,0.606 -0.417,1.504 0.189,2.006c0.328,0.271 0.671,0.532 1.02,0.775c0.248,0.173 0.532,0.255 0.813,0.255c0.451,0 0.894,-0.213 1.171,-0.611c0.449,-0.647 0.29,-1.535 -0.356,-1.984Z" style="fill:#c2c2c2;fill-rule:nonzero;"/><path d="M346.991,35.367c-1.317,-2.013 -2.013,-4.351 -2.013,-6.762c0,-0.787 -0.638,-1.425 -1.425,-1.425c-0.787,0 -1.425,0.638 -1.425,1.425c0,2.966 0.857,5.845 2.478,8.323c0.274,0.418 0.729,0.645 1.194,0.645c0.267,0 0.538,-0.076 0.779,-0.233c0.658,-0.431 0.843,-1.314 0.412,-1.973Z" style="fill:#c2c2c2;fill-rule:nonzero;"/></g><g><circle cx="384.515" cy="72.124" r="1.922" style="fill:#c2c2c2;"/><path d="M328.603,99.942l29.107,-17.201c0.118,-0.074 0.676,-0.421 1.009,-0.593c1.896,-0.997 3.959,-1.455 5.995,-1.404c1.782,-0.045 3.218,-1.505 3.218,-3.298l0,-3.796c0,-6.989 5.687,-12.675 12.676,-12.675c4.678,0 8.896,2.515 11.124,6.596l7.5,3.897c0.472,0.245 0.768,0.732 0.768,1.263c0,0.532 -0.295,1.02 -0.767,1.265l-7.124,3.711l0,11.873c0,10.806 -7.988,19.782 -18.369,21.334l8.185,8.186l4.085,0c0.787,0 1.425,0.638 1.425,1.425c0,0.787 -0.638,1.425 -1.425,1.425l-23.532,0c-0.787,0 -1.425,-0.638 -1.425,-1.425c0,-0.787 0.638,-1.425 1.425,-1.425l4.618,0l-7.948,-7.948l-8.968,0c-0.057,0 -0.114,-0.004 -0.17,-0.011c-8.132,-0.099 -15.797,-3.253 -21.669,-8.944c-0.003,-0.002 -0.006,-0.006 -0.009,-0.009c-0.035,-0.034 -0.062,-0.064 -0.082,-0.09c-0.054,-0.063 -0.105,-0.13 -0.149,-0.204c-0.4,-0.677 -0.176,-1.551 0.502,-1.952Zm60.656,-10.362l0,-12.738c0,-0.004 0,-0.007 0,-0.01c0,-0.011 0,-0.022 0.001,-0.033c0,-0.019 0.002,-0.036 0.003,-0.052c0.033,-0.479 0.305,-0.931 0.763,-1.169l5.461,-2.844l-5.333,-2.771c-0.313,-0.125 -0.584,-0.36 -0.746,-0.686c-1.674,-3.363 -5.046,-5.452 -8.8,-5.452c-5.418,0 -9.826,4.407 -9.826,9.825l0,3.796c0,1.638 -0.644,3.127 -1.691,4.231c1.393,0.579 2.696,1.422 3.83,2.52c2.346,2.276 3.666,5.328 3.717,8.595c0.051,3.268 -1.175,6.36 -3.45,8.706c-2.803,2.892 -6.061,5.181 -9.616,6.804l6.965,0c10.323,0 18.722,-8.399 18.722,-18.722Zm-18.132,29.52l6.767,0l-7.948,-7.948l-6.767,0l7.948,7.948Zm-11.758,-12.217c0.329,-0.107 0.656,-0.221 0.98,-0.339l0,-3.46c0,-0.787 0.638,-1.425 1.425,-1.425c0.787,0 1.425,0.638 1.425,1.425l0,2.239c1.19,-0.589 2.34,-1.263 3.444,-2.017l0,-6.052c0,-0.787 0.638,-1.425 1.425,-1.425c0.787,0 1.425,0.638 1.425,1.425l0,3.833c0.567,-0.5 1.117,-1.024 1.649,-1.573c1.745,-1.799 2.685,-4.171 2.646,-6.678c-0.039,-2.506 -1.052,-4.847 -2.852,-6.592c-1.724,-1.673 -3.958,-2.577 -6.241,-2.647c-0.022,0 -0.12,-0.001 -0.147,-0.003c-1.532,-0.023 -3.082,0.329 -4.51,1.079c-0.193,0.101 -0.613,0.356 -0.832,0.494c-0.01,0.006 -0.021,0.012 -0.032,0.019l-13.887,8.207c0.37,7.468 6.536,13.436 14.082,13.49Zm-8.965,1.412c0.152,0 0.306,-0.001 0.458,-0.003c0.533,-0.008 1.064,-0.032 1.593,-0.069c-5.241,-2.376 -9.074,-7.327 -9.878,-13.228l-10.862,6.419c5.228,4.458 11.781,6.881 18.689,6.881Z" style="fill:#c2c2c2;fill-rule:nonzero;"/><path d="M377.591,99.758c0.284,-0.198 0.564,-0.41 0.83,-0.63c0.607,-0.503 1.505,-0.418 2.006,0.189c0.502,0.606 0.418,1.504 -0.188,2.006c-0.328,0.271 -0.671,0.532 -1.021,0.775c-0.248,0.173 -0.531,0.255 -0.812,0.255c-0.451,0 -0.894,-0.213 -1.171,-0.611c-0.45,-0.647 -0.29,-1.535 0.356,-1.984Z" style="fill:#c2c2c2;fill-rule:nonzero;"/><path d="M380.912,96.342c1.316,-2.013 2.013,-4.351 2.013,-6.762c0,-0.787 0.638,-1.425 1.425,-1.425c0.787,0 1.425,0.638 1.425,1.425c0,2.966 -0.857,5.845 -2.478,8.323c-0.274,0.418 -0.729,0.645 -1.194,0.645c-0.268,0 -0.538,-0.076 -0.779,-0.233c-0.659,-0.431 -0.843,-1.314 -0.412,-1.973Z" style="fill:#c2c2c2;fill-rule:nonzero;"/></g><g><circle cx="384.515" cy="194.074" r="1.922" style="fill:#c2c2c2;"/><path d="M328.603,221.892l29.107,-17.201c0.118,-0.074 0.676,-0.421 1.009,-0.593c1.896,-0.997 3.959,-1.455 5.995,-1.404c1.782,-0.045 3.218,-1.505 3.218,-3.298l0,-3.796c0,-6.989 5.687,-12.675 12.676,-12.675c4.678,0 8.896,2.515 11.124,6.596l7.5,3.897c0.472,0.245 0.768,0.732 0.768,1.263c0,0.532 -0.295,1.02 -0.767,1.265l-7.124,3.711l0,11.873c0,10.806 -7.988,19.782 -18.369,21.334l8.185,8.186l4.085,0c0.787,0 1.425,0.638 1.425,1.425c0,0.787 -0.638,1.425 -1.425,1.425l-23.532,0c-0.787,0 -1.425,-0.638 -1.425,-1.425c0,-0.787 0.638,-1.425 1.425,-1.425l4.618,0l-7.948,-7.948l-8.968,0c-0.057,0 -0.114,-0.004 -0.17,-0.011c-8.132,-0.099 -15.797,-3.253 -21.669,-8.944c-0.003,-0.002 -0.006,-0.006 -0.009,-0.009c-0.035,-0.034 -0.062,-0.064 -0.082,-0.09c-0.054,-0.063 -0.105,-0.13 -0.149,-0.204c-0.4,-0.677 -0.176,-1.551 0.502,-1.952Zm60.656,-10.362l0,-12.738c0,-0.004 0,-0.007 0,-0.01c0,-0.011 0,-0.022 0.001,-0.033c0,-0.019 0.002,-0.036 0.003,-0.052c0.033,-0.479 0.305,-0.931 0.763,-1.169l5.461,-2.844l-5.333,-2.771c-0.313,-0.125 -0.584,-0.36 -0.746,-0.686c-1.674,-3.363 -5.046,-5.452 -8.8,-5.452c-5.418,0 -9.826,4.407 -9.826,9.825l0,3.796c0,1.638 -0.644,3.127 -1.691,4.231c1.393,0.579 2.696,1.421 3.83,2.52c2.346,2.276 3.666,5.328 3.717,8.595c0.051,3.268 -1.175,6.36 -3.45,8.706c-2.803,2.892 -6.061,5.181 -9.616,6.804l6.965,0c10.323,0 18.722,-8.399 18.722,-18.722Zm-18.132,29.52l6.767,0l-7.948,-7.948l-6.767,0l7.948,7.948Zm-11.758,-12.217c0.329,-0.107 0.656,-0.221 0.98,-0.339l0,-3.46c0,-0.787 0.638,-1.425 1.425,-1.425c0.787,0 1.425,0.638 1.425,1.425l0,2.239c1.19,-0.589 2.34,-1.263 3.444,-2.017l0,-6.052c0,-0.787 0.638,-1.425 1.425,-1.425c0.787,0 1.425,0.638 1.425,1.425l0,3.833c0.567,-0.5 1.117,-1.024 1.649,-1.573c1.745,-1.8 2.685,-4.171 2.646,-6.678c-0.039,-2.506 -1.052,-4.847 -2.852,-6.592c-1.724,-1.673 -3.958,-2.577 -6.241,-2.647c-0.022,0 -0.12,-0.001 -0.147,-0.003c-1.532,-0.023 -3.082,0.329 -4.51,1.079c-0.193,0.101 -0.613,0.356 -0.832,0.493c-0.01,0.007 -0.021,0.013 -0.032,0.02l-13.887,8.207c0.37,7.468 6.536,13.436 14.082,13.49Zm-8.965,1.412c0.152,0 0.306,-0.001 0.458,-0.003c0.533,-0.008 1.064,-0.032 1.593,-0.069c-5.241,-2.376 -9.074,-7.327 -9.878,-13.228l-10.862,6.419c5.228,4.458 11.781,6.881 18.689,6.881Z" style="fill:#c2c2c2;fill-rule:nonzero;"/><path d="M377.591,221.708c0.284,-0.198 0.564,-0.41 0.83,-0.63c0.607,-0.503 1.505,-0.418 2.006,0.189c0.502,0.606 0.418,1.504 -0.188,2.006c-0.328,0.271 -0.671,0.532 -1.021,0.775c-0.248,0.173 -0.531,0.255 -0.812,0.255c-0.451,0 -0.894,-0.213 -1.171,-0.611c-0.45,-0.647 -0.29,-1.535 0.356,-1.984Z" style="fill:#c2c2c2;fill-rule:nonzero;"/><path d="M380.912,218.292c1.316,-2.013 2.013,-4.351 2.013,-6.762c0,-0.787 0.638,-1.425 1.425,-1.425c0.787,0 1.425,0.638 1.425,1.425c0,2.966 -0.857,5.845 -2.478,8.323c-0.274,0.418 -0.729,0.645 -1.194,0.645c-0.268,0 -0.538,-0.076 -0.779,-0.233c-0.659,-0.431 -0.843,-1.314 -0.412,-1.973Z" style="fill:#c2c2c2;fill-rule:nonzero;"/></g><g><circle cx="343.388" cy="133.099" r="1.922" style="fill:#c2c2c2;"/><path d="M399.3,160.917l-29.107,-17.201c-0.119,-0.074 -0.676,-0.421 -1.009,-0.593c-1.896,-0.997 -3.959,-1.455 -5.995,-1.404c-1.782,-0.045 -3.218,-1.505 -3.218,-3.298l0,-3.796c0,-6.989 -5.687,-12.675 -12.677,-12.675c-4.677,0 -8.895,2.515 -11.123,6.596l-7.5,3.897c-0.472,0.245 -0.768,0.732 -0.768,1.263c-0.001,0.532 0.295,1.02 0.767,1.265l7.124,3.711l0,11.873c0,10.806 7.988,19.782 18.369,21.334l-8.186,8.186l-4.084,0c-0.787,0 -1.425,0.638 -1.425,1.425c0,0.787 0.638,1.425 1.425,1.425l23.532,0c0.787,0 1.425,-0.638 1.425,-1.425c0,-0.787 -0.638,-1.425 -1.425,-1.425l-4.619,0l7.948,-7.948l8.968,0c0.058,0 0.114,-0.004 0.17,-0.011c8.133,-0.099 15.798,-3.253 21.669,-8.944c0.004,-0.002 0.007,-0.006 0.01,-0.009c0.035,-0.034 0.062,-0.064 0.081,-0.09c0.055,-0.063 0.106,-0.13 0.149,-0.204c0.401,-0.677 0.176,-1.551 -0.501,-1.952Zm-60.656,-10.362l0,-12.738c0,-0.004 0,-0.007 0,-0.01c0,-0.011 0,-0.022 -0.001,-0.033c-0.001,-0.019 -0.002,-0.036 -0.004,-0.052c-0.032,-0.479 -0.305,-0.931 -0.762,-1.169l-5.461,-2.844l5.333,-2.771c0.313,-0.125 0.584,-0.36 0.746,-0.686c1.674,-3.363 5.046,-5.452 8.799,-5.452c5.418,0 9.827,4.407 9.827,9.825l0,3.796c0,1.638 0.644,3.127 1.691,4.231c-1.394,0.579 -2.696,1.422 -3.83,2.52c-2.346,2.276 -3.666,5.328 -3.717,8.595c-0.051,3.268 1.174,6.36 3.449,8.706c2.804,2.892 6.062,5.181 9.617,6.804l-6.965,0c-10.323,0 -18.722,-8.399 -18.722,-18.722Zm18.132,29.52l-6.768,0l7.948,-7.948l6.767,0l-7.947,7.948Zm11.757,-12.217c-0.329,-0.107 -0.655,-0.221 -0.979,-0.339l0,-3.46c0,-0.787 -0.638,-1.425 -1.425,-1.425c-0.787,0 -1.425,0.638 -1.425,1.425l0,2.239c-1.19,-0.589 -2.341,-1.263 -3.444,-2.017l0,-6.052c0,-0.787 -0.638,-1.425 -1.425,-1.425c-0.788,0 -1.425,0.638 -1.425,1.425l0,3.833c-0.567,-0.5 -1.117,-1.024 -1.649,-1.573c-1.745,-1.799 -2.685,-4.171 -2.646,-6.678c0.039,-2.506 1.051,-4.847 2.851,-6.592c1.725,-1.673 3.959,-2.577 6.242,-2.647c0.021,0 0.119,-0.001 0.147,-0.003c1.532,-0.023 3.082,0.329 4.51,1.079c0.193,0.101 0.613,0.356 0.832,0.494c0.01,0.006 0.021,0.012 0.031,0.019l13.887,8.207c-0.37,7.468 -6.535,13.436 -14.082,13.49Zm8.966,1.412c-0.153,0 -0.306,-0.001 -0.458,-0.003c-0.534,-0.008 -1.065,-0.032 -1.593,-0.069c5.241,-2.376 9.074,-7.327 9.878,-13.228l10.861,6.419c-5.227,4.458 -11.781,6.881 -18.688,6.881Z" style="fill:#c2c2c2;fill-rule:nonzero;"/><path d="M350.312,160.733c-0.285,-0.198 -0.564,-0.41 -0.83,-0.63c-0.607,-0.503 -1.505,-0.418 -2.007,0.189c-0.502,0.606 -0.417,1.504 0.189,2.006c0.328,0.271 0.671,0.532 1.02,0.775c0.248,0.173 0.532,0.255 0.813,0.255c0.451,0 0.894,-0.213 1.171,-0.611c0.449,-0.647 0.29,-1.535 -0.356,-1.984Z" style="fill:#c2c2c2;fill-rule:nonzero;"/><path d="M346.991,157.317c-1.317,-2.013 -2.013,-4.351 -2.013,-6.762c0,-0.787 -0.638,-1.425 -1.425,-1.425c-0.787,0 -1.425,0.638 -1.425,1.425c0,2.966 0.857,5.845 2.478,8.323c0.274,0.418 0.729,0.645 1.194,0.645c0.267,0 0.538,-0.076 0.779,-0.233c0.658,-0.431 0.843,-1.314 0.412,-1.973Z" style="fill:#c2c2c2;fill-rule:nonzero;"/></g></g></svg>