<?xml version="1.0" encoding="UTF-8" standalone="no"?><!DOCTYPE svg PUBLIC "-//W3C//DTD SVG 1.1//EN" "http://www.w3.org/Graphics/SVG/1.1/DTD/svg11.dtd"><svg width="100%" height="100%" viewBox="0 0 260 216" version="1.1" xmlns="http://www.w3.org/2000/svg" xmlns:xlink="http://www.w3.org/1999/xlink" xml:space="preserve" style="fill-rule:evenodd;clip-rule:evenodd;stroke-linejoin:round;stroke-miterlimit:1.41421;"><path d="M201.2,17.5c0,2.2 0.8,4.2 2.3,5.8c1.4,1.5 3.2,2.5 5.1,2.8l-0.4,6.6l-0.6,0c-0.3,0 -0.5,0.2 -0.5,0.5c0,0.3 0.2,0.5 0.5,0.5l4.7,0c0.3,0 0.5,-0.2 0.5,-0.5c0,-0.3 -0.2,-0.5 -0.5,-0.5l-0.6,0l-0.4,-6.6c4.2,-0.6 7.4,-4.3 7.4,-8.6c0,-3.4 -0.9,-7.7 -2.4,-11.1c-1.8,-4.1 -4,-6.3 -6.3,-6.3c-2.3,0 -4.5,2.2 -6.3,6.3c-1.5,3.4 -2.5,7.7 -2.5,11.1Zm8.2,15.2l0.6,-10.6l0.6,10.6l-1.2,0Zm-7.1,-15.2c0,-3.2 0.9,-7.4 2.3,-10.7c1.6,-3.6 3.5,-5.7 5.3,-5.7c1.8,0 3.7,2.1 5.3,5.7c1.4,3.3 2.3,7.5 2.3,10.7c0,3.7 -2.7,6.9 -6.4,7.5l-0.3,-5.4l2.9,-2.9c0.2,-0.2 0.2,-0.6 0,-0.8c-0.2,-0.2 -0.6,-0.2 -0.8,0l-2.2,2.2l-0.3,-6c0,-0.3 -0.3,-0.5 -0.5,-0.5c-0.3,0 -0.5,0.2 -0.5,0.5l-0.2,3.8l-0.6,-0.6c-0.2,-0.2 -0.6,-0.2 -0.8,0c-0.2,0.2 -0.2,0.6 0,0.8l1.3,1.3l-0.1,2.4l-2.1,-2.1c-0.2,-0.2 -0.6,-0.2 -0.8,0c-0.2,0.2 -0.2,0.6 0,0.8l2.8,2.8l-0.2,3.7c-1.7,-0.3 -3.2,-1.1 -4.4,-2.4c-1.3,-1.4 -2,-3.2 -2,-5.1Z" style="fill:#a1a1a1;fill-rule:nonzero;"/><path d="M95.5,6.3c-1.8,-4.1 -4,-6.3 -6.3,-6.3c-2.3,0 -4.5,2.2 -6.3,6.3c-1.5,3.5 -2.4,7.7 -2.4,11.1c0,4.3 3.2,8 7.4,8.6l-0.4,6.6l-0.6,0c-0.3,0 -0.5,0.2 -0.5,0.5c0,0.3 0.2,0.5 0.5,0.5l4.7,0c0.3,0 0.5,-0.2 0.5,-0.5c0,-0.3 -0.2,-0.5 -0.5,-0.5l-0.6,0l-0.4,-6.6c2,-0.3 3.8,-1.3 5.1,-2.8c1.5,-1.6 2.3,-3.7 2.3,-5.8c-0.1,-3.3 -1,-7.6 -2.5,-11.1Zm-6.9,26.4l0.6,-10.6l0.6,10.6l-1.2,0Zm6.3,-10.1c-1.2,1.3 -2.7,2.1 -4.4,2.4l-0.2,-3.7l2.8,-2.8c0.2,-0.2 0.2,-0.6 0,-0.8c-0.2,-0.2 -0.6,-0.2 -0.8,0l-2.1,2.1l-0.2,-2.4l1.3,-1.3c0.2,-0.2 0.2,-0.6 0,-0.8c-0.2,-0.2 -0.6,-0.2 -0.8,0l-0.5,0.6l-0.2,-3.8c0,-0.3 -0.3,-0.5 -0.5,-0.5c-0.3,0 -0.5,0.2 -0.5,0.5l-0.3,6l-2.2,-2.2c-0.2,-0.2 -0.6,-0.2 -0.8,0c-0.2,0.2 -0.2,0.6 0,0.8l2.9,2.9l-0.4,5.4c-3.7,-0.6 -6.4,-3.8 -6.4,-7.5c0,-3.2 0.9,-7.4 2.3,-10.7c1.6,-3.6 3.5,-5.7 5.3,-5.7c1.8,0 3.7,2.1 5.3,5.7c1.4,3.3 2.3,7.5 2.3,10.7c0,1.9 -0.7,3.7 -1.9,5.1Z" style="fill:#a1a1a1;fill-rule:nonzero;"/><path d="M120.7,17.5c0,2.2 0.8,4.2 2.3,5.8c1.4,1.5 3.2,2.5 5.1,2.8l-0.4,6.6l-0.6,0c-0.3,0 -0.5,0.2 -0.5,0.5c0,0.3 0.2,0.5 0.5,0.5l4.7,0c0.3,0 0.5,-0.2 0.5,-0.5c0,-0.3 -0.2,-0.5 -0.5,-0.5l-0.6,0l-0.4,-6.6c4.2,-0.6 7.4,-4.3 7.4,-8.6c0,-3.4 -0.9,-7.7 -2.4,-11.1c-1.8,-4.1 -4,-6.3 -6.3,-6.3c-2.3,0 -4.5,2.2 -6.3,6.3c-1.5,3.4 -2.5,7.7 -2.5,11.1Zm8.2,15.2l0.6,-10.6l0.6,10.6l-1.2,0Zm-7.1,-15.2c0,-3.2 0.9,-7.4 2.3,-10.7c1.6,-3.6 3.5,-5.7 5.3,-5.7c1.8,0 3.7,2.1 5.3,5.7c1.4,3.3 2.3,7.5 2.3,10.7c0,3.7 -2.7,6.9 -6.4,7.5l-0.3,-5.4l2.9,-2.9c0.2,-0.2 0.2,-0.6 0,-0.8c-0.2,-0.2 -0.6,-0.2 -0.8,0l-2.2,2.2l-0.3,-6c0,-0.3 -0.3,-0.5 -0.5,-0.5c-0.3,0 -0.5,0.2 -0.5,0.5l-0.2,3.8l-0.6,-0.6c-0.2,-0.2 -0.6,-0.2 -0.8,0c-0.2,0.2 -0.2,0.6 0,0.8l1.3,1.3l-0.1,2.4l-2.1,-2.1c-0.2,-0.2 -0.6,-0.2 -0.8,0c-0.2,0.2 -0.2,0.6 0,0.8l2.8,2.8l-0.2,3.7c-1.7,-0.3 -3.2,-1.1 -4.4,-2.4c-1.3,-1.4 -2,-3.2 -2,-5.1Z" style="fill:#a1a1a1;fill-rule:nonzero;"/><path d="M176,6.3c-1.8,-4.1 -4,-6.3 -6.3,-6.3c-2.3,0 -4.5,2.2 -6.3,6.3c-1.5,3.5 -2.4,7.7 -2.4,11.1c0,4.3 3.2,8 7.4,8.6l-0.4,6.6l-0.6,0c-0.3,0 -0.5,0.2 -0.5,0.5c0,0.3 0.2,0.5 0.5,0.5l4.7,0c0.3,0 0.5,-0.2 0.5,-0.5c0,-0.3 -0.2,-0.5 -0.5,-0.5l-0.6,0l-0.4,-6.6c2,-0.3 3.8,-1.3 5.1,-2.8c1.5,-1.6 2.3,-3.7 2.3,-5.8c-0.1,-3.3 -1,-7.6 -2.5,-11.1Zm-6.9,26.4l0.6,-10.6l0.6,10.6l-1.2,0Zm6.3,-10.1c-1.2,1.3 -2.7,2.1 -4.4,2.4l-0.2,-3.7l2.8,-2.8c0.2,-0.2 0.2,-0.6 0,-0.8c-0.2,-0.2 -0.6,-0.2 -0.8,0l-2.1,2.1l-0.1,-2.4l1.3,-1.3c0.2,-0.2 0.2,-0.6 0,-0.8c-0.2,-0.2 -0.6,-0.2 -0.8,0l-0.6,0.6l-0.2,-3.8c0,-0.3 -0.3,-0.5 -0.5,-0.5c-0.2,0 -0.5,0.2 -0.5,0.5l-0.3,6l-2.2,-2.2c-0.2,-0.2 -0.6,-0.2 -0.8,0c-0.2,0.2 -0.2,0.6 0,0.8l2.9,2.9l-0.3,5.4c-3.7,-0.6 -6.4,-3.8 -6.4,-7.5c0,-3.2 0.9,-7.4 2.3,-10.7c1.6,-3.6 3.5,-5.7 5.3,-5.7c1.8,0 3.7,2.1 5.3,5.7c1.4,3.3 2.3,7.5 2.3,10.7c-0.1,1.9 -0.8,3.7 -2,5.1Z" style="fill:#a1a1a1;fill-rule:nonzero;"/><path d="M40.2,17.5c0,2.2 0.8,4.2 2.3,5.8c1.4,1.5 3.2,2.5 5.1,2.8l-0.4,6.6l-0.6,0c-0.3,0 -0.5,0.2 -0.5,0.5c0,0.3 0.2,0.5 0.5,0.5l4.7,0c0.3,0 0.5,-0.2 0.5,-0.5c0,-0.3 -0.2,-0.5 -0.5,-0.5l-0.6,0l-0.4,-6.6c4.2,-0.6 7.4,-4.3 7.4,-8.6c0,-3.4 -0.9,-7.7 -2.4,-11.1c-1.8,-4.2 -4.1,-6.4 -6.3,-6.4c-2.3,0 -4.5,2.2 -6.3,6.3c-1.5,3.5 -2.5,7.8 -2.5,11.2Zm8.2,15.2l0.6,-10.6l0.6,10.6l-1.2,0Zm-7.1,-15.2c0,-3.2 0.9,-7.4 2.3,-10.7c1.6,-3.6 3.5,-5.7 5.3,-5.7c1.8,0 3.7,2.1 5.3,5.7c1.4,3.3 2.3,7.5 2.3,10.7c0,3.7 -2.7,6.9 -6.4,7.5l-0.3,-5.4l2.9,-2.9c0.2,-0.2 0.2,-0.6 0,-0.8c-0.2,-0.2 -0.6,-0.2 -0.8,0l-2.2,2.2l-0.3,-6c0,-0.3 -0.3,-0.5 -0.5,-0.5c-0.2,0 -0.5,0.2 -0.5,0.5l-0.2,3.8l-0.6,-0.6c-0.2,-0.2 -0.6,-0.2 -0.8,0c-0.2,0.2 -0.2,0.6 0,0.8l1.3,1.3l-0.1,2.4l-2.1,-2.1c-0.2,-0.2 -0.6,-0.2 -0.8,0c-0.2,0.2 -0.2,0.6 0,0.8l2.8,2.8l-0.2,3.7c-1.7,-0.3 -3.2,-1.1 -4.4,-2.4c-1.3,-1.4 -2,-3.2 -2,-5.1Z" style="fill:#a1a1a1;fill-rule:nonzero;"/><path d="M256.5,6.3c-1.8,-4.1 -4,-6.3 -6.3,-6.3c-2.3,0 -4.5,2.2 -6.3,6.3c-1.5,3.5 -2.4,7.7 -2.4,11.1c0,4.3 3.2,8 7.4,8.6l-0.4,6.6l-0.6,0c-0.3,0 -0.5,0.2 -0.5,0.5c0,0.3 0.2,0.5 0.5,0.5l4.7,0c0.3,0 0.5,-0.2 0.5,-0.5c0,-0.3 -0.2,-0.5 -0.5,-0.5l-0.6,0l-0.4,-6.6c2,-0.3 3.8,-1.3 5.1,-2.8c1.5,-1.6 2.3,-3.7 2.3,-5.8c-0.1,-3.3 -1,-7.6 -2.5,-11.1Zm-6.9,26.4l0.6,-10.6l0.6,10.6l-1.2,0Zm6.2,-10.1c-1.2,1.3 -2.7,2.1 -4.4,2.4l-0.2,-3.7l2.8,-2.8c0.2,-0.2 0.2,-0.6 0,-0.8c-0.2,-0.2 -0.6,-0.2 -0.8,0l-2.1,2.1l-0.1,-2.4l1.3,-1.3c0.2,-0.2 0.2,-0.6 0,-0.8c-0.2,-0.2 -0.6,-0.2 -0.8,0l-0.6,0.6l-0.2,-3.8c0,-0.3 -0.3,-0.5 -0.5,-0.5c-0.2,0 -0.5,0.2 -0.5,0.5l-0.3,6l-2.2,-2.2c-0.2,-0.2 -0.6,-0.2 -0.8,0c-0.2,0.2 -0.2,0.6 0,0.8l2.9,2.9l-0.3,5.4c-3.7,-0.6 -6.4,-3.8 -6.4,-7.5c0,-3.2 0.9,-7.4 2.3,-10.7c1.6,-3.6 3.5,-5.7 5.3,-5.7c1.8,0 3.7,2.1 5.3,5.7c1.4,3.3 2.3,7.5 2.3,10.7c0,1.9 -0.7,3.7 -2,5.1Z" style="fill:#a1a1a1;fill-rule:nonzero;"/><path d="M201.2,199.7c0,2.2 0.8,4.2 2.3,5.8c1.4,1.5 3.2,2.5 5.1,2.8l-0.4,6.6l-0.6,0c-0.3,0 -0.5,0.2 -0.5,0.5c0,0.3 0.2,0.5 0.5,0.5l4.7,0c0.3,0 0.5,-0.2 0.5,-0.5c0,-0.3 -0.2,-0.5 -0.5,-0.5l-0.6,0l-0.4,-6.6c4.2,-0.6 7.4,-4.3 7.4,-8.6c0,-3.4 -0.9,-7.7 -2.4,-11.1c-1.8,-4.1 -4,-6.3 -6.3,-6.3c-2.3,0 -4.5,2.2 -6.3,6.3c-1.5,3.4 -2.5,7.7 -2.5,11.1Zm8.2,15.2l0.6,-10.6l0.6,10.6l-1.2,0Zm-7.1,-15.2c0,-3.2 0.9,-7.4 2.3,-10.7c1.6,-3.6 3.5,-5.7 5.3,-5.7c1.8,0 3.7,2.1 5.3,5.7c1.4,3.3 2.3,7.5 2.3,10.7c0,3.7 -2.7,6.9 -6.4,7.5l-0.3,-5.4l2.9,-2.9c0.2,-0.2 0.2,-0.6 0,-0.8c-0.2,-0.2 -0.6,-0.2 -0.8,0l-2.2,2.2l-0.3,-6c0,-0.3 -0.3,-0.5 -0.5,-0.5c-0.3,0 -0.5,0.2 -0.5,0.5l-0.2,3.8l-0.6,-0.6c-0.2,-0.2 -0.6,-0.2 -0.8,0c-0.2,0.2 -0.2,0.6 0,0.8l1.3,1.3l-0.1,2.4l-2.1,-2.1c-0.2,-0.2 -0.6,-0.2 -0.8,0c-0.2,0.2 -0.2,0.6 0,0.8l2.8,2.8l-0.2,3.7c-1.7,-0.3 -3.2,-1.1 -4.4,-2.4c-1.3,-1.4 -2,-3.2 -2,-5.1Z" style="fill:#a1a1a1;fill-rule:nonzero;"/><path d="M95.5,188.6c-1.8,-4.1 -4,-6.3 -6.3,-6.3c-2.3,0 -4.5,2.2 -6.3,6.3c-1.5,3.5 -2.4,7.7 -2.4,11.1c0,4.3 3.2,8 7.4,8.6l-0.4,6.6l-0.6,0c-0.3,0 -0.5,0.2 -0.5,0.5c0,0.3 0.2,0.5 0.5,0.5l4.7,0c0.3,0 0.5,-0.2 0.5,-0.5c0,-0.3 -0.2,-0.5 -0.5,-0.5l-0.6,0l-0.4,-6.6c2,-0.3 3.8,-1.3 5.1,-2.8c1.5,-1.6 2.3,-3.7 2.3,-5.8c-0.1,-3.4 -1,-7.7 -2.5,-11.1Zm-6.9,26.3l0.6,-10.6l0.6,10.6l-1.2,0Zm6.3,-10.1c-1.2,1.3 -2.7,2.1 -4.4,2.4l-0.2,-3.7l2.8,-2.8c0.2,-0.2 0.2,-0.6 0,-0.8c-0.2,-0.2 -0.6,-0.2 -0.8,0l-2.1,2.1l-0.1,-2.4l1.3,-1.3c0.2,-0.2 0.2,-0.6 0,-0.8c-0.2,-0.2 -0.6,-0.2 -0.8,0l-0.6,0.6l-0.2,-3.8c0,-0.3 -0.3,-0.5 -0.5,-0.5c-0.3,0 -0.5,0.2 -0.5,0.5l-0.3,6l-2.2,-2.2c-0.2,-0.2 -0.6,-0.2 -0.8,0c-0.2,0.2 -0.2,0.6 0,0.8l2.9,2.9l-0.3,5.4c-3.7,-0.6 -6.4,-3.8 -6.4,-7.5c0,-3.2 0.9,-7.4 2.3,-10.7c1.6,-3.6 3.5,-5.7 5.3,-5.7c1.8,0 3.7,2.1 5.3,5.7c1.4,3.3 2.3,7.5 2.3,10.7c-0.1,1.9 -0.8,3.7 -2,5.1Z" style="fill:#a1a1a1;fill-rule:nonzero;"/><path d="M120.7,199.7c0,2.2 0.8,4.2 2.3,5.8c1.4,1.5 3.2,2.5 5.1,2.8l-0.4,6.6l-0.6,0c-0.3,0 -0.5,0.2 -0.5,0.5c0,0.3 0.2,0.5 0.5,0.5l4.7,0c0.3,0 0.5,-0.2 0.5,-0.5c0,-0.3 -0.2,-0.5 -0.5,-0.5l-0.6,0l-0.4,-6.6c4.2,-0.6 7.4,-4.3 7.4,-8.6c0,-3.4 -0.9,-7.7 -2.4,-11.1c-1.8,-4.1 -4,-6.3 -6.3,-6.3c-2.3,0 -4.5,2.2 -6.3,6.3c-1.5,3.4 -2.5,7.7 -2.5,11.1Zm8.2,15.2l0.6,-10.6l0.6,10.6l-1.2,0Zm-7.1,-15.2c0,-3.2 0.9,-7.4 2.3,-10.7c1.6,-3.6 3.5,-5.7 5.3,-5.7c1.8,0 3.7,2.1 5.3,5.7c1.4,3.3 2.3,7.5 2.3,10.7c0,3.7 -2.7,6.9 -6.4,7.5l-0.3,-5.4l2.9,-2.9c0.2,-0.2 0.2,-0.6 0,-0.8c-0.2,-0.2 -0.6,-0.2 -0.8,0l-2.2,2.2l-0.3,-6c0,-0.3 -0.3,-0.5 -0.5,-0.5c-0.3,0 -0.5,0.2 -0.5,0.5l-0.2,3.8l-0.6,-0.6c-0.2,-0.2 -0.6,-0.2 -0.8,0c-0.2,0.2 -0.2,0.6 0,0.8l1.3,1.3l-0.1,2.4l-2.1,-2.1c-0.2,-0.2 -0.6,-0.2 -0.8,0c-0.2,0.2 -0.2,0.6 0,0.8l2.8,2.8l-0.2,3.7c-1.7,-0.3 -3.2,-1.1 -4.4,-2.4c-1.3,-1.4 -2,-3.2 -2,-5.1Z" style="fill:#a1a1a1;fill-rule:nonzero;"/><path d="M176,188.6c-1.8,-4.1 -4,-6.3 -6.3,-6.3c-2.3,0 -4.5,2.2 -6.3,6.3c-1.5,3.5 -2.4,7.7 -2.4,11.1c0,4.3 3.2,8 7.4,8.6l-0.4,6.6l-0.6,0c-0.3,0 -0.5,0.2 -0.5,0.5c0,0.3 0.2,0.5 0.5,0.5l4.7,0c0.3,0 0.5,-0.2 0.5,-0.5c0,-0.3 -0.2,-0.5 -0.5,-0.5l-0.6,0l-0.4,-6.6c2,-0.3 3.8,-1.3 5.1,-2.8c1.5,-1.6 2.3,-3.7 2.3,-5.8c-0.1,-3.4 -1,-7.7 -2.5,-11.1Zm-6.9,26.3l0.6,-10.6l0.6,10.6l-1.2,0Zm6.3,-10.1c-1.2,1.3 -2.7,2.1 -4.4,2.4l-0.2,-3.7l2.8,-2.8c0.2,-0.2 0.2,-0.6 0,-0.8c-0.2,-0.2 -0.6,-0.2 -0.8,0l-2.1,2.1l-0.1,-2.4l1.3,-1.3c0.2,-0.2 0.2,-0.6 0,-0.8c-0.2,-0.2 -0.6,-0.2 -0.8,0l-0.6,0.6l-0.2,-3.8c0,-0.3 -0.3,-0.5 -0.5,-0.5c-0.2,0 -0.5,0.2 -0.5,0.5l-0.3,6l-2.2,-2.2c-0.2,-0.2 -0.6,-0.2 -0.8,0c-0.2,0.2 -0.2,0.6 0,0.8l2.9,2.9l-0.3,5.4c-3.7,-0.6 -6.4,-3.8 -6.4,-7.5c0,-3.2 0.9,-7.4 2.3,-10.7c1.6,-3.6 3.5,-5.7 5.3,-5.7c1.8,0 3.7,2.1 5.3,5.7c1.4,3.3 2.3,7.5 2.3,10.7c-0.1,1.9 -0.8,3.7 -2,5.1Z" style="fill:#a1a1a1;fill-rule:nonzero;"/><path d="M40.2,199.7c0,2.2 0.8,4.2 2.3,5.8c1.4,1.5 3.2,2.5 5.1,2.8l-0.4,6.6l-0.6,0c-0.3,0 -0.5,0.2 -0.5,0.5c0,0.3 0.2,0.5 0.5,0.5l4.7,0c0.3,0 0.5,-0.2 0.5,-0.5c0,-0.3 -0.2,-0.5 -0.5,-0.5l-0.6,0l-0.4,-6.6c4.2,-0.6 7.4,-4.3 7.4,-8.6c0,-3.4 -0.9,-7.7 -2.4,-11.1c-1.8,-4.1 -4,-6.3 -6.3,-6.3c-2.3,0 -4.5,2.2 -6.3,6.3c-1.5,3.4 -2.5,7.7 -2.5,11.1Zm8.2,15.2l0.6,-10.6l0.6,10.6l-1.2,0Zm-7.1,-15.2c0,-3.2 0.9,-7.4 2.3,-10.7c1.6,-3.6 3.5,-5.7 5.3,-5.7c1.8,0 3.7,2.1 5.3,5.7c1.4,3.3 2.3,7.5 2.3,10.7c0,3.7 -2.7,6.9 -6.4,7.5l-0.3,-5.4l2.9,-2.9c0.2,-0.2 0.2,-0.6 0,-0.8c-0.2,-0.2 -0.6,-0.2 -0.8,0l-2.2,2.2l-0.3,-6c0,-0.3 -0.3,-0.5 -0.5,-0.5c-0.2,0 -0.5,0.2 -0.5,0.5l-0.2,3.8l-0.6,-0.6c-0.2,-0.2 -0.6,-0.2 -0.8,0c-0.2,0.2 -0.2,0.6 0,0.8l1.3,1.3l-0.1,2.4l-2.1,-2.1c-0.2,-0.2 -0.6,-0.2 -0.8,0c-0.2,0.2 -0.2,0.6 0,0.8l2.8,2.8l-0.2,3.7c-1.7,-0.3 -3.2,-1.1 -4.4,-2.4c-1.3,-1.4 -2,-3.2 -2,-5.1Z" style="fill:#a1a1a1;fill-rule:nonzero;"/><path d="M256.5,188.6c-1.8,-4.1 -4,-6.3 -6.3,-6.3c-2.3,0 -4.5,2.2 -6.3,6.3c-1.5,3.5 -2.4,7.7 -2.4,11.1c0,4.3 3.2,8 7.4,8.6l-0.4,6.6l-0.6,0c-0.3,0 -0.5,0.2 -0.5,0.5c0,0.3 0.2,0.5 0.5,0.5l4.7,0c0.3,0 0.5,-0.2 0.5,-0.5c0,-0.3 -0.2,-0.5 -0.5,-0.5l-0.6,0l-0.4,-6.6c2,-0.3 3.8,-1.3 5.1,-2.8c1.5,-1.6 2.3,-3.7 2.3,-5.8c-0.1,-3.4 -1,-7.7 -2.5,-11.1Zm-6.9,26.3l0.6,-10.6l0.6,10.6l-1.2,0Zm6.2,-10.1c-1.2,1.3 -2.7,2.1 -4.4,2.4l-0.2,-3.7l2.8,-2.8c0.2,-0.2 0.2,-0.6 0,-0.8c-0.2,-0.2 -0.6,-0.2 -0.8,0l-2.1,2.1l-0.1,-2.4l1.3,-1.3c0.2,-0.2 0.2,-0.6 0,-0.8c-0.2,-0.2 -0.6,-0.2 -0.8,0l-0.6,0.6l-0.2,-3.8c0,-0.3 -0.3,-0.5 -0.5,-0.5c-0.2,0 -0.5,0.2 -0.5,0.5l-0.3,6l-2.2,-2.2c-0.2,-0.2 -0.6,-0.2 -0.8,0c-0.2,0.2 -0.2,0.6 0,0.8l2.9,2.9l-0.3,5.4c-3.7,-0.6 -6.4,-3.8 -6.4,-7.5c0,-3.2 0.9,-7.4 2.3,-10.7c1.6,-3.6 3.5,-5.7 5.3,-5.7c1.8,0 3.7,2.1 5.3,5.7c1.4,3.3 2.3,7.5 2.3,10.7c0,1.9 -0.7,3.7 -2,5.1Z" style="fill:#a1a1a1;fill-rule:nonzero;"/><path d="M36,29.1c-1.8,-4.1 -4,-6.3 -6.3,-6.3c-2.3,0 -4.5,2.2 -6.3,6.3c-1.5,3.5 -2.4,7.7 -2.4,11.1c0,4.3 3.2,8 7.4,8.6l-0.4,6.6l-0.6,0c-0.3,0 -0.5,0.2 -0.5,0.5c0,0.3 0.2,0.5 0.5,0.5l4.6,0c0.3,0 0.5,-0.2 0.5,-0.5c0,-0.3 -0.2,-0.5 -0.5,-0.5l-0.6,0l-0.4,-6.5c2,-0.3 3.8,-1.3 5.1,-2.8c1.5,-1.6 2.3,-3.7 2.3,-5.8c0,-3.5 -0.9,-7.7 -2.4,-11.2Zm-6.9,26.3l0.6,-10.6l0.6,10.6l-1.2,0Zm6.3,-10c-1.2,1.3 -2.7,2.1 -4.4,2.4l-0.2,-3.8l2.8,-2.8c0.2,-0.2 0.2,-0.6 0,-0.8c-0.2,-0.2 -0.6,-0.2 -0.8,0l-2.1,2.1l-0.1,-2.4l1.3,-1.3c0.2,-0.2 0.2,-0.6 0,-0.8c-0.2,-0.2 -0.6,-0.2 -0.8,0l-0.6,0.6l-0.2,-3.6c0,-0.3 -0.3,-0.5 -0.5,-0.5c-0.2,0 -0.5,0.2 -0.5,0.5l-0.3,6l-2.2,-2.2c-0.2,-0.2 -0.6,-0.2 -0.8,0c-0.2,0.2 -0.2,0.6 0,0.8l2.9,2.9l-0.3,5.4c-3.7,-0.6 -6.4,-3.8 -6.4,-7.5c0,-3.2 0.9,-7.4 2.3,-10.7c1.6,-3.6 3.5,-5.7 5.3,-5.7c1.8,0 3.7,2.1 5.3,5.7c1.4,3.3 2.3,7.5 2.3,10.7c-0.1,1.7 -0.8,3.6 -2,5Z" style="fill:#a1a1a1;fill-rule:nonzero;"/><path d="M222.2,40.2c0,2.2 0.8,4.2 2.3,5.8c1.4,1.5 3.2,2.5 5.1,2.8l-0.4,6.6l-0.6,0c-0.3,0 -0.5,0.2 -0.5,0.5c0,0.3 0.2,0.5 0.5,0.5l4.7,0c0.3,0 0.5,-0.2 0.5,-0.5c0,-0.3 -0.2,-0.5 -0.5,-0.5l-0.6,0l-0.4,-6.6c4.2,-0.6 7.4,-4.3 7.4,-8.6c0,-3.4 -0.9,-7.7 -2.4,-11.1c-1.8,-4.1 -4,-6.3 -6.3,-6.3c-2.3,0 -4.5,2.2 -6.3,6.3c-1.5,3.5 -2.5,7.7 -2.5,11.1Zm8.2,15.2l0.6,-10.6l0.6,10.6l-1.2,0Zm-7.1,-15.2c0,-3.2 0.9,-7.4 2.3,-10.7c1.6,-3.6 3.5,-5.7 5.3,-5.7c1.8,0 3.7,2.1 5.3,5.7c1.4,3.3 2.3,7.5 2.3,10.7c0,3.7 -2.7,6.9 -6.4,7.5l-0.3,-5.4l2.9,-2.9c0.2,-0.2 0.2,-0.6 0,-0.8c-0.2,-0.2 -0.6,-0.2 -0.8,0l-2.2,2.2l-0.3,-6c0,-0.3 -0.3,-0.5 -0.5,-0.5c-0.3,0 -0.5,0.2 -0.5,0.5l-0.2,3.8l-0.6,-0.6c-0.2,-0.2 -0.6,-0.2 -0.8,0c-0.2,0.2 -0.2,0.6 0,0.8l1.3,1.3l-0.1,2.4l-2.1,-2.1c-0.2,-0.2 -0.6,-0.2 -0.8,0c-0.2,0.2 -0.2,0.6 0,0.8l2.8,2.8l-0.2,3.7c-1.7,-0.3 -3.2,-1.1 -4.4,-2.4c-1.3,-1.3 -2,-3.2 -2,-5.1Z" style="fill:#a1a1a1;fill-rule:nonzero;"/><path d="M116.5,29.1c-1.8,-4.1 -4,-6.3 -6.3,-6.3c-2.3,0 -4.5,2.2 -6.3,6.3c-1.5,3.5 -2.4,7.7 -2.4,11.1c0,4.3 3.2,8 7.4,8.6l-0.4,6.6l-0.6,0c-0.3,0 -0.5,0.2 -0.5,0.5c0,0.3 0.2,0.5 0.5,0.5l4.7,0c0.3,0 0.5,-0.2 0.5,-0.5c0,-0.3 -0.2,-0.5 -0.5,-0.5l-0.6,0l-0.4,-6.6c2,-0.3 3.8,-1.3 5.1,-2.8c1.5,-1.6 2.3,-3.7 2.3,-5.8c-0.1,-3.4 -1,-7.6 -2.5,-11.1Zm-6.9,26.3l0.6,-10.6l0.6,10.6l-1.2,0Zm6.3,-10c-1.2,1.3 -2.7,2.1 -4.4,2.4l-0.2,-3.7l2.8,-2.8c0.2,-0.2 0.2,-0.6 0,-0.8c-0.2,-0.2 -0.6,-0.2 -0.8,0l-2.1,2.1l-0.1,-2.4l1.3,-1.3c0.2,-0.2 0.2,-0.6 0,-0.8c-0.2,-0.2 -0.6,-0.2 -0.8,0l-0.6,0.6l-0.2,-3.8c0,-0.3 -0.3,-0.5 -0.5,-0.5c-0.3,0 -0.5,0.2 -0.5,0.5l-0.3,6l-2.2,-2.2c-0.2,-0.2 -0.6,-0.2 -0.8,0c-0.2,0.2 -0.2,0.6 0,0.8l2.9,2.9l-0.3,5.4c-3.7,-0.6 -6.4,-3.8 -6.4,-7.5c0,-3.2 0.9,-7.4 2.3,-10.7c1.6,-3.6 3.5,-5.7 5.3,-5.7c1.8,0 3.7,2.1 5.3,5.7c1.4,3.3 2.3,7.5 2.3,10.7c-0.1,1.8 -0.8,3.7 -2,5.1Z" style="fill:#a1a1a1;fill-rule:nonzero;"/><path d="M141.7,40.2c0,2.2 0.8,4.2 2.3,5.8c1.4,1.5 3.2,2.5 5.1,2.8l-0.4,6.6l-0.6,0c-0.3,0 -0.5,0.2 -0.5,0.5c0,0.3 0.2,0.5 0.5,0.5l4.7,0c0.3,0 0.5,-0.2 0.5,-0.5c0,-0.3 -0.2,-0.5 -0.5,-0.5l-0.6,0l-0.4,-6.6c4.2,-0.6 7.4,-4.3 7.4,-8.6c0,-3.4 -0.9,-7.7 -2.4,-11.1c-1.8,-4.1 -4,-6.3 -6.3,-6.3c-2.3,0 -4.5,2.2 -6.3,6.3c-1.5,3.5 -2.5,7.7 -2.5,11.1Zm8.2,15.2l0.6,-10.6l0.6,10.6l-1.2,0Zm-7.1,-15.2c0,-3.2 0.9,-7.4 2.3,-10.7c1.6,-3.6 3.5,-5.7 5.3,-5.7c1.8,0 3.7,2.1 5.3,5.7c1.4,3.3 2.3,7.5 2.3,10.7c0,3.7 -2.7,6.9 -6.4,7.5l-0.3,-5.4l2.9,-2.9c0.2,-0.2 0.2,-0.6 0,-0.8c-0.2,-0.2 -0.6,-0.2 -0.8,0l-2.2,2.2l-0.3,-6c0,-0.3 -0.3,-0.5 -0.5,-0.5c-0.3,0 -0.5,0.2 -0.5,0.5l-0.2,3.8l-0.6,-0.6c-0.2,-0.2 -0.6,-0.2 -0.8,0c-0.2,0.2 -0.2,0.6 0,0.8l1.3,1.3l-0.1,2.4l-2.1,-2.1c-0.2,-0.2 -0.6,-0.2 -0.8,0c-0.2,0.2 -0.2,0.6 0,0.8l2.8,2.8l-0.2,3.7c-1.7,-0.3 -3.2,-1.1 -4.4,-2.4c-1.3,-1.3 -2,-3.2 -2,-5.1Z" style="fill:#a1a1a1;fill-rule:nonzero;"/><path d="M197,29.1c-1.8,-4.1 -4,-6.3 -6.3,-6.3c-2.3,0 -4.5,2.2 -6.3,6.3c-1.5,3.5 -2.4,7.7 -2.4,11.1c0,4.3 3.2,8 7.4,8.6l-0.4,6.6l-0.6,0c-0.3,0 -0.5,0.2 -0.5,0.5c0,0.3 0.2,0.5 0.5,0.5l4.7,0c0.3,0 0.5,-0.2 0.5,-0.5c0,-0.3 -0.2,-0.5 -0.5,-0.5l-0.6,0l-0.4,-6.6c2,-0.3 3.8,-1.3 5.1,-2.8c1.5,-1.6 2.3,-3.7 2.3,-5.8c-0.1,-3.4 -1,-7.6 -2.5,-11.1Zm-6.9,26.3l0.6,-10.6l0.6,10.6l-1.2,0Zm6.3,-10c-1.2,1.3 -2.7,2.1 -4.4,2.4l-0.2,-3.7l2.8,-2.8c0.2,-0.2 0.2,-0.6 0,-0.8c-0.2,-0.2 -0.6,-0.2 -0.8,0l-2.1,2.1l-0.1,-2.4l1.3,-1.3c0.2,-0.2 0.2,-0.6 0,-0.8c-0.2,-0.2 -0.6,-0.2 -0.8,0l-0.6,0.6l-0.2,-3.8c0,-0.3 -0.3,-0.5 -0.5,-0.5c-0.2,0 -0.5,0.2 -0.5,0.5l-0.3,6l-2.2,-2.2c-0.2,-0.2 -0.6,-0.2 -0.8,0c-0.2,0.2 -0.2,0.6 0,0.8l2.9,2.9l-0.3,5.4c-3.7,-0.6 -6.4,-3.8 -6.4,-7.5c0,-3.2 0.9,-7.4 2.3,-10.7c1.6,-3.6 3.5,-5.7 5.3,-5.7c1.8,0 3.7,2.1 5.3,5.7c1.4,3.3 2.3,7.5 2.3,10.7c-0.1,1.8 -0.8,3.7 -2,5.1Z" style="fill:#a1a1a1;fill-rule:nonzero;"/><path d="M61.2,40.2c0,2.2 0.8,4.2 2.3,5.8c1.4,1.5 3.2,2.5 5.1,2.8l-0.4,6.6l-0.6,0c-0.3,0 -0.5,0.2 -0.5,0.5c0,0.3 0.2,0.5 0.5,0.5l4.7,0c0.3,0 0.5,-0.2 0.5,-0.5c0,-0.3 -0.2,-0.5 -0.5,-0.5l-0.6,0l-0.4,-6.6c4.2,-0.6 7.4,-4.3 7.4,-8.6c0,-3.4 -0.9,-7.7 -2.4,-11.1c-1.8,-4.1 -4,-6.3 -6.3,-6.3c-2.3,0 -4.5,2.2 -6.3,6.3c-1.5,3.5 -2.5,7.7 -2.5,11.1Zm8.2,15.2l0.6,-10.5l0.6,10.6l-1.2,-0.1Zm-7.1,-15.2c0,-3.2 0.9,-7.4 2.3,-10.7c1.6,-3.6 3.5,-5.7 5.3,-5.7c1.8,0 3.7,2.1 5.3,5.7c1.4,3.3 2.3,7.5 2.3,10.7c0,3.7 -2.7,6.9 -6.4,7.5l-0.3,-5.4l2.9,-2.9c0.2,-0.2 0.2,-0.6 0,-0.8c-0.2,-0.2 -0.6,-0.2 -0.8,0l-2.2,2.2l-0.3,-6c0,-0.3 -0.3,-0.5 -0.5,-0.5c-0.3,0 -0.5,0.2 -0.5,0.5l-0.2,3.8l-0.6,-0.6c-0.2,-0.2 -0.6,-0.2 -0.8,0c-0.2,0.2 -0.2,0.6 0,0.8l1.3,1.3l-0.1,2.5l-2.1,-2.1c-0.2,-0.2 -0.6,-0.2 -0.8,0c-0.2,0.2 -0.2,0.6 0,0.8l2.8,2.8l-0.2,3.7c-1.7,-0.3 -3.2,-1.1 -4.4,-2.4c-1.3,-1.4 -2,-3.3 -2,-5.2Z" style="fill:#a1a1a1;fill-rule:nonzero;"/><path d="M15,6.3c-1.8,-4.1 -4,-6.3 -6.3,-6.3c-2.3,0 -4.5,2.2 -6.3,6.3c-1.5,3.5 -2.4,7.8 -2.4,11.2c0,4.3 3.2,8 7.4,8.6l-0.4,6.6l-0.6,0c-0.3,0 -0.5,0.2 -0.5,0.5c0,0.3 0.2,0.5 0.5,0.5l4.6,0c0.3,0 0.5,-0.2 0.5,-0.5c0,-0.3 -0.2,-0.5 -0.5,-0.5l-0.6,0l-0.4,-6.6c2,-0.3 3.8,-1.3 5.1,-2.8c1.5,-1.6 2.3,-3.7 2.3,-5.8c0,-3.4 -0.9,-7.7 -2.4,-11.2Zm-6.9,26.4l0.6,-10.6l0.6,10.6l-1.2,0Zm6.3,-10.1c-1.2,1.3 -2.7,2.1 -4.4,2.4l-0.2,-3.7l2.8,-2.8c0.2,-0.2 0.2,-0.6 0,-0.8c-0.2,-0.2 -0.6,-0.2 -0.8,0l-2.1,2.1l-0.1,-2.4l1.3,-1.3c0.2,-0.2 0.2,-0.6 0,-0.8c-0.2,-0.2 -0.6,-0.2 -0.8,0l-0.6,0.6l-0.2,-3.8c0,-0.3 -0.3,-0.5 -0.5,-0.5c-0.3,0 -0.5,0.2 -0.5,0.5l-0.3,6l-2.2,-2.2c-0.2,-0.2 -0.6,-0.2 -0.8,0c-0.2,0.2 -0.2,0.6 0,0.8l2.9,2.9l-0.4,5.4c-3.7,-0.6 -6.4,-3.8 -6.4,-7.5c0,-3.2 0.9,-7.4 2.3,-10.7c1.6,-3.6 3.5,-5.7 5.3,-5.7c1.8,0 3.7,2.1 5.3,5.7c1.4,3.3 2.3,7.5 2.3,10.7c0,1.9 -0.7,3.7 -1.9,5.1Z" style="fill:#a1a1a1;fill-rule:nonzero;"/><path d="M241.5,63c0,2.2 0.8,4.2 2.3,5.8c1.4,1.5 3.2,2.5 5.1,2.8l-0.4,6.6l-0.6,0c-0.3,0 -0.5,0.2 -0.5,0.5c0,0.3 0.2,0.5 0.5,0.5l4.7,0c0.3,0 0.5,-0.2 0.5,-0.5c0,-0.3 -0.2,-0.5 -0.5,-0.5l-0.6,0l-0.4,-6.6c4.2,-0.6 7.4,-4.3 7.4,-8.6c0,-3.4 -0.9,-7.7 -2.4,-11.1c-1.8,-4.1 -4,-6.3 -6.3,-6.3c-2.3,0 -4.5,2.2 -6.3,6.3c-1.6,3.5 -2.5,7.7 -2.5,11.1Zm8.1,15.2l0.6,-10.6l0.6,10.6l-1.2,0Zm-7,-15.2c0,-3.2 0.9,-7.4 2.3,-10.7c1.6,-3.6 3.5,-5.7 5.3,-5.7c1.8,0 3.7,2.1 5.3,5.7c1.4,3.3 2.3,7.5 2.3,10.7c0,3.7 -2.7,6.9 -6.4,7.5l-0.3,-5.4l2.9,-2.9c0.2,-0.2 0.2,-0.6 0,-0.8c-0.2,-0.2 -0.6,-0.2 -0.8,0l-2.2,2.2l-0.3,-6c0,-0.3 -0.3,-0.5 -0.5,-0.5c-0.2,0 -0.5,0.2 -0.5,0.5l-0.2,3.8l-0.6,-0.6c-0.2,-0.2 -0.6,-0.2 -0.8,0c-0.2,0.2 -0.2,0.6 0,0.8l1.3,1.3l-0.1,2.4l-2.1,-2.1c-0.2,-0.2 -0.6,-0.2 -0.8,0c-0.2,0.2 -0.2,0.6 0,0.8l2.8,2.8l-0.2,3.7c-1.7,-0.3 -3.2,-1.1 -4.4,-2.4c-1.3,-1.4 -2,-3.2 -2,-5.1Z" style="fill:#a1a1a1;fill-rule:nonzero;"/><path d="M55.2,51.9c-1.8,-4.1 -4,-6.3 -6.3,-6.3c-2.3,0 -4.5,2.2 -6.3,6.3c-1.5,3.5 -2.4,7.7 -2.4,11.1c0,4.3 3.2,8 7.4,8.6l-0.4,6.6l-0.6,0c-0.3,0 -0.5,0.2 -0.5,0.5c0,0.3 0.2,0.5 0.5,0.5l4.7,0c0.3,0 0.5,-0.2 0.5,-0.5c0,-0.3 -0.2,-0.5 -0.5,-0.5l-0.6,0l-0.4,-6.6c2,-0.3 3.8,-1.3 5.1,-2.8c1.5,-1.6 2.3,-3.7 2.3,-5.8c0,-3.4 -1,-7.6 -2.5,-11.1Zm-6.8,26.3l0.6,-10.5l0.6,10.6l-1.2,-0.1Zm6.2,-10.1c-1.2,1.3 -2.7,2.1 -4.4,2.4l-0.2,-3.7l2.8,-2.8c0.2,-0.2 0.2,-0.6 0,-0.8c-0.2,-0.2 -0.6,-0.2 -0.8,0l-2.1,2.1l-0.1,-2.3l1.3,-1.3c0.2,-0.2 0.2,-0.6 0,-0.8c-0.2,-0.2 -0.6,-0.2 -0.8,0l-0.6,0.6l-0.2,-3.8c0,-0.3 -0.3,-0.5 -0.5,-0.5c-0.3,0 -0.5,0.2 -0.5,0.5l-0.3,6l-2.2,-2.2c-0.2,-0.2 -0.6,-0.2 -0.8,0c-0.2,0.2 -0.2,0.6 0,0.8l2.9,2.9l-0.3,5.4c-3.7,-0.6 -6.4,-3.8 -6.4,-7.5c0,-3.2 0.9,-7.4 2.3,-10.7c1.6,-3.6 3.5,-5.7 5.3,-5.7c1.8,0 3.7,2.1 5.3,5.7c1.4,3.3 2.3,7.5 2.3,10.7c0,1.8 -0.7,3.6 -2,5Z" style="fill:#a1a1a1;fill-rule:nonzero;"/><path d="M161,63c0,2.2 0.8,4.2 2.3,5.8c1.4,1.5 3.2,2.5 5.1,2.8l-0.4,6.6l-0.6,0c-0.3,0 -0.5,0.2 -0.5,0.5c0,0.3 0.2,0.5 0.5,0.5l4.7,0c0.3,0 0.5,-0.2 0.5,-0.5c0,-0.3 -0.2,-0.5 -0.5,-0.5l-0.6,0l-0.4,-6.6c4.2,-0.6 7.4,-4.3 7.4,-8.6c0,-3.4 -0.9,-7.7 -2.4,-11.1c-1.8,-4.1 -4,-6.3 -6.3,-6.3c-2.3,0 -4.5,2.2 -6.3,6.3c-1.6,3.5 -2.5,7.7 -2.5,11.1Zm8.1,15.2l0.6,-10.6l0.6,10.6l-1.2,0Zm-7,-15.2c0,-3.2 0.9,-7.4 2.3,-10.7c1.6,-3.6 3.5,-5.7 5.3,-5.7c1.8,0 3.7,2.1 5.3,5.7c1.4,3.3 2.3,7.5 2.3,10.7c0,3.7 -2.7,6.9 -6.4,7.5l-0.3,-5.4l2.9,-2.9c0.2,-0.2 0.2,-0.6 0,-0.8c-0.2,-0.2 -0.6,-0.2 -0.8,0l-2.2,2.2l-0.3,-6c0,-0.3 -0.3,-0.5 -0.5,-0.5c-0.3,0 -0.5,0.2 -0.5,0.5l-0.2,3.8l-0.6,-0.6c-0.2,-0.2 -0.6,-0.2 -0.8,0c-0.2,0.2 -0.2,0.6 0,0.8l1.3,1.3l-0.1,2.4l-2.1,-2.1c-0.2,-0.2 -0.6,-0.2 -0.8,0c-0.2,0.2 -0.2,0.6 0,0.8l2.8,2.8l-0.2,3.7c-1.7,-0.3 -3.2,-1.1 -4.4,-2.4c-1.3,-1.4 -2,-3.2 -2,-5.1Z" style="fill:#a1a1a1;fill-rule:nonzero;"/><path d="M135.7,51.9c-1.8,-4.1 -4,-6.3 -6.3,-6.3c-2.3,0 -4.5,2.2 -6.3,6.3c-1.5,3.5 -2.4,7.7 -2.4,11.1c0,4.3 3.2,8 7.4,8.6l-0.4,6.6l-0.6,0c-0.3,0 -0.5,0.2 -0.5,0.5c0,0.3 0.2,0.5 0.5,0.5l4.7,0c0.3,0 0.5,-0.2 0.5,-0.5c0,-0.3 -0.2,-0.5 -0.5,-0.5l-0.6,0l-0.4,-6.6c2,-0.3 3.8,-1.3 5.1,-2.8c1.5,-1.6 2.3,-3.7 2.3,-5.8c0,-3.4 -1,-7.6 -2.5,-11.1Zm-6.8,26.3l0.6,-10.6l0.6,10.6l-1.2,0Zm6.2,-10.1c-1.2,1.3 -2.7,2.1 -4.4,2.4l-0.2,-3.7l2.8,-2.8c0.2,-0.2 0.2,-0.6 0,-0.8c-0.2,-0.2 -0.6,-0.2 -0.8,0l-2.1,2.1l-0.1,-2.4l1.3,-1.3c0.2,-0.2 0.2,-0.6 0,-0.8c-0.2,-0.2 -0.6,-0.2 -0.8,0l-0.6,0.6l-0.2,-3.8c0,-0.3 -0.3,-0.5 -0.5,-0.5c-0.3,0 -0.5,0.2 -0.5,0.5l-0.3,6l-2.2,-2.2c-0.2,-0.2 -0.6,-0.2 -0.8,0c-0.2,0.2 -0.2,0.6 0,0.8l2.9,2.9l-0.3,5.4c-3.7,-0.6 -6.4,-3.8 -6.4,-7.5c0,-3.2 0.9,-7.4 2.3,-10.7c1.6,-3.6 3.5,-5.7 5.3,-5.7c1.8,0 3.7,2.1 5.3,5.7c1.4,3.3 2.3,7.5 2.3,10.7c0,1.9 -0.7,3.7 -2,5.1Z" style="fill:#a1a1a1;fill-rule:nonzero;"/><path d="M80.5,63c0,2.2 0.8,4.2 2.3,5.8c1.4,1.5 3.2,2.5 5.1,2.8l-0.4,6.6l-0.6,0c-0.3,0 -0.5,0.2 -0.5,0.5c0,0.3 0.2,0.5 0.5,0.5l4.7,0c0.3,0 0.5,-0.2 0.5,-0.5c0,-0.3 -0.2,-0.5 -0.5,-0.5l-0.6,0l-0.4,-6.6c4.2,-0.6 7.4,-4.3 7.4,-8.6c0,-3.4 -0.9,-7.7 -2.4,-11.1c-1.8,-4.1 -4,-6.3 -6.3,-6.3c-2.3,0 -4.5,2.2 -6.3,6.3c-1.6,3.5 -2.5,7.7 -2.5,11.1Zm8.1,15.2l0.6,-10.6l0.6,10.6l-1.2,0Zm-7,-15.2c0,-3.2 0.9,-7.4 2.3,-10.7c1.6,-3.6 3.5,-5.7 5.3,-5.7c1.8,0 3.7,2.1 5.3,5.7c1.4,3.3 2.3,7.5 2.3,10.7c0,3.7 -2.7,6.9 -6.4,7.5l-0.3,-5.4l2.9,-2.9c0.2,-0.2 0.2,-0.6 0,-0.8c-0.2,-0.2 -0.6,-0.2 -0.8,0l-2.2,2.2l-0.3,-6c0,-0.3 -0.3,-0.5 -0.5,-0.5c-0.3,0 -0.5,0.2 -0.5,0.5l-0.2,3.8l-0.6,-0.6c-0.2,-0.2 -0.6,-0.2 -0.8,0c-0.2,0.2 -0.2,0.6 0,0.8l1.3,1.3l-0.1,2.4l-2.1,-2.1c-0.2,-0.2 -0.6,-0.2 -0.8,0c-0.2,0.2 -0.2,0.6 0,0.8l2.8,2.8l-0.2,3.7c-1.7,-0.3 -3.2,-1.1 -4.4,-2.4c-1.3,-1.4 -2,-3.2 -2,-5.1Z" style="fill:#a1a1a1;fill-rule:nonzero;"/><path d="M216.2,51.9c-1.8,-4.1 -4,-6.3 -6.3,-6.3c-2.3,0 -4.5,2.2 -6.3,6.3c-1.5,3.5 -2.4,7.7 -2.4,11.1c0,4.3 3.2,8 7.4,8.6l-0.4,6.6l-0.6,0c-0.3,0 -0.5,0.2 -0.5,0.5c0,0.3 0.2,0.5 0.5,0.5l4.7,0c0.3,0 0.5,-0.2 0.5,-0.5c0,-0.3 -0.2,-0.5 -0.5,-0.5l-0.6,0l-0.4,-6.6c2,-0.3 3.8,-1.3 5.1,-2.8c1.5,-1.6 2.3,-3.7 2.3,-5.8c0,-3.4 -1,-7.6 -2.5,-11.1Zm-6.8,26.3l0.6,-10.6l0.6,10.6l-1.2,0Zm6.2,-10.1c-1.2,1.3 -2.7,2.1 -4.4,2.4l-0.2,-3.7l2.8,-2.8c0.2,-0.2 0.2,-0.6 0,-0.8c-0.2,-0.2 -0.6,-0.2 -0.8,0l-2.1,2.1l-0.1,-2.4l1.3,-1.3c0.2,-0.2 0.2,-0.6 0,-0.8c-0.2,-0.2 -0.6,-0.2 -0.8,0l-0.6,0.6l-0.2,-3.8c0,-0.3 -0.3,-0.5 -0.5,-0.5c-0.2,0 -0.5,0.2 -0.5,0.5l-0.3,6l-2.2,-2.2c-0.2,-0.2 -0.6,-0.2 -0.8,0c-0.2,0.2 -0.2,0.6 0,0.8l2.9,2.9l-0.3,5.4c-3.7,-0.6 -6.4,-3.8 -6.4,-7.5c0,-3.2 0.9,-7.4 2.3,-10.7c1.6,-3.6 3.5,-5.7 5.3,-5.7c1.8,0 3.7,2.1 5.3,5.7c1.4,3.3 2.3,7.5 2.3,10.7c0,1.9 -0.7,3.7 -2,5.1Z" style="fill:#a1a1a1;fill-rule:nonzero;"/><path d="M0,63c0,2.2 0.8,4.2 2.3,5.8c1.4,1.5 3.2,2.5 5.1,2.8l-0.4,6.6l-0.6,0c-0.3,0 -0.5,0.2 -0.5,0.5c0,0.3 0.2,0.5 0.5,0.5l4.6,0c0.3,0 0.5,-0.2 0.5,-0.5c0,-0.3 -0.2,-0.5 -0.5,-0.5l-0.6,0l-0.4,-6.6c4.2,-0.6 7.4,-4.3 7.4,-8.6c0,-3.4 -0.9,-7.7 -2.4,-11.1c-1.8,-4.1 -4,-6.3 -6.3,-6.3c-2.3,0 -4.5,2.2 -6.3,6.3c-1.5,3.5 -2.4,7.7 -2.4,11.1Zm8.1,15.2l0.6,-10.6l0.6,10.6l-1.2,0Zm-7,-15.2c0,-3.2 0.9,-7.4 2.3,-10.7c1.6,-3.6 3.5,-5.7 5.3,-5.7c1.8,0 3.7,2.1 5.3,5.7c1.4,3.3 2.3,7.5 2.3,10.7c0,3.7 -2.7,6.9 -6.4,7.5l-0.3,-5.4l2.9,-2.9c0.2,-0.2 0.2,-0.6 0,-0.8c-0.2,-0.2 -0.6,-0.2 -0.8,0l-2.2,2.2l-0.3,-6c0,-0.3 -0.3,-0.5 -0.5,-0.5c-0.3,0 -0.5,0.2 -0.5,0.5l-0.2,3.9l-0.6,-0.6c-0.2,-0.2 -0.6,-0.2 -0.8,0c-0.2,0.2 -0.2,0.6 0,0.8l1.3,1.3l-0.1,2.4l-2.1,-2.1c-0.3,-0.3 -0.7,-0.3 -0.9,-0.1c-0.2,0.2 -0.2,0.6 0,0.8l2.8,2.8l-0.2,3.7c-1.7,-0.3 -3.2,-1.1 -4.4,-2.4c-1.2,-1.4 -1.9,-3.2 -1.9,-5.1Z" style="fill:#a1a1a1;fill-rule:nonzero;"/><path d="M36,74.7c-1.8,-4.1 -4,-6.3 -6.3,-6.3c-2.3,0 -4.5,2.2 -6.3,6.3c-1.5,3.5 -2.4,7.7 -2.4,11.1c0,4.3 3.2,8 7.4,8.6l-0.4,6.6l-0.6,0c-0.3,0 -0.5,0.2 -0.5,0.5c0,0.3 0.2,0.5 0.5,0.5l4.6,0c0.3,0 0.5,-0.2 0.5,-0.5c0,-0.3 -0.2,-0.5 -0.5,-0.5l-0.6,0l-0.4,-6.6c2,-0.3 3.8,-1.3 5.1,-2.8c1.5,-1.6 2.3,-3.7 2.3,-5.8c0,-3.4 -0.9,-7.7 -2.4,-11.1Zm-6.9,26.3l0.6,-10.6l0.6,10.6l-1.2,0Zm6.3,-10.1c-1.2,1.3 -2.7,2.1 -4.4,2.4l-0.2,-3.7l2.8,-2.8c0.2,-0.2 0.2,-0.6 0,-0.8c-0.2,-0.2 -0.6,-0.2 -0.8,0l-2.1,2.1l-0.1,-2.4l1.3,-1.3c0.2,-0.2 0.2,-0.6 0,-0.8c-0.2,-0.2 -0.6,-0.2 -0.8,0l-0.6,0.6l-0.2,-3.8c0,-0.3 -0.3,-0.5 -0.5,-0.5c-0.2,0 -0.5,0.2 -0.5,0.5l-0.3,6l-2.2,-2.2c-0.2,-0.2 -0.6,-0.2 -0.8,0c-0.2,0.2 -0.2,0.6 0,0.8l2.9,2.9l-0.3,5.4c-3.7,-0.6 -6.4,-3.8 -6.4,-7.5c0,-3.2 0.9,-7.4 2.3,-10.7c1.6,-3.6 3.5,-5.7 5.3,-5.7c1.8,0 3.7,2.1 5.3,5.7c1.4,3.3 2.3,7.5 2.3,10.7c-0.1,1.9 -0.8,3.7 -2,5.1Z" style="fill:#a1a1a1;fill-rule:nonzero;"/><path d="M222.2,85.8c0,2.2 0.8,4.2 2.3,5.8c1.4,1.5 3.2,2.5 5.1,2.8l-0.4,6.6l-0.6,0c-0.3,0 -0.5,0.2 -0.5,0.5c0,0.3 0.2,0.5 0.5,0.5l4.7,0c0.3,0 0.5,-0.2 0.5,-0.5c0,-0.3 -0.2,-0.5 -0.5,-0.5l-0.6,0l-0.4,-6.6c4.2,-0.6 7.4,-4.3 7.4,-8.6c0,-3.4 -0.9,-7.7 -2.4,-11.1c-1.8,-4.1 -4,-6.3 -6.3,-6.3c-2.3,0 -4.5,2.2 -6.3,6.3c-1.5,3.4 -2.5,7.7 -2.5,11.1Zm8.2,15.2l0.6,-10.6l0.6,10.6l-1.2,0Zm-7.1,-15.2c0,-3.2 0.9,-7.4 2.3,-10.7c1.6,-3.6 3.5,-5.7 5.3,-5.7c1.8,0 3.7,2.1 5.3,5.7c1.4,3.3 2.3,7.5 2.3,10.7c0,3.7 -2.7,6.9 -6.4,7.5l-0.3,-5.4l2.9,-2.9c0.2,-0.2 0.2,-0.6 0,-0.8c-0.2,-0.2 -0.6,-0.2 -0.8,0l-2.2,2.2l-0.3,-6c0,-0.3 -0.3,-0.5 -0.5,-0.5c-0.3,0 -0.5,0.2 -0.5,0.5l-0.2,3.8l-0.6,-0.6c-0.2,-0.2 -0.6,-0.2 -0.8,0c-0.2,0.2 -0.2,0.6 0,0.8l1.3,1.3l-0.1,2.4l-2.1,-2.1c-0.2,-0.2 -0.6,-0.2 -0.8,0c-0.2,0.2 -0.2,0.6 0,0.8l2.8,2.8l-0.2,3.7c-1.7,-0.3 -3.2,-1.1 -4.4,-2.4c-1.3,-1.4 -2,-3.2 -2,-5.1Z" style="fill:#a1a1a1;fill-rule:nonzero;"/><path d="M116.5,74.7c-1.8,-4.1 -4,-6.3 -6.3,-6.3c-2.3,0 -4.5,2.2 -6.3,6.3c-1.5,3.5 -2.4,7.7 -2.4,11.1c0,4.3 3.2,8 7.4,8.6l-0.4,6.6l-0.6,0c-0.3,0 -0.5,0.2 -0.5,0.5c0,0.3 0.2,0.5 0.5,0.5l4.7,0c0.3,0 0.5,-0.2 0.5,-0.5c0,-0.3 -0.2,-0.5 -0.5,-0.5l-0.6,0l-0.4,-6.6c2,-0.3 3.8,-1.3 5.1,-2.8c1.5,-1.6 2.3,-3.7 2.3,-5.8c-0.1,-3.4 -1,-7.7 -2.5,-11.1Zm-6.9,26.3l0.6,-10.6l0.6,10.6l-1.2,0Zm6.3,-10.1c-1.2,1.3 -2.7,2.1 -4.4,2.4l-0.2,-3.7l2.8,-2.8c0.2,-0.2 0.2,-0.6 0,-0.8c-0.2,-0.2 -0.6,-0.2 -0.8,0l-2.1,2.1l-0.1,-2.4l1.3,-1.3c0.2,-0.2 0.2,-0.6 0,-0.8c-0.2,-0.2 -0.6,-0.2 -0.8,0l-0.6,0.6l-0.2,-3.8c0,-0.3 -0.3,-0.5 -0.5,-0.5c-0.3,0 -0.5,0.2 -0.5,0.5l-0.3,6l-2.2,-2.2c-0.2,-0.2 -0.6,-0.2 -0.8,0c-0.2,0.2 -0.2,0.6 0,0.8l2.9,2.9l-0.3,5.4c-3.7,-0.6 -6.4,-3.8 -6.4,-7.5c0,-3.2 0.9,-7.4 2.3,-10.7c1.6,-3.6 3.5,-5.7 5.3,-5.7c1.8,0 3.7,2.1 5.3,5.7c1.4,3.3 2.3,7.5 2.3,10.7c-0.1,1.9 -0.8,3.7 -2,5.1Z" style="fill:#a1a1a1;fill-rule:nonzero;"/><path d="M141.7,85.8c0,2.2 0.8,4.2 2.3,5.8c1.4,1.5 3.2,2.5 5.1,2.8l-0.4,6.6l-0.6,0c-0.3,0 -0.5,0.2 -0.5,0.5c0,0.3 0.2,0.5 0.5,0.5l4.7,0c0.3,0 0.5,-0.2 0.5,-0.5c0,-0.3 -0.2,-0.5 -0.5,-0.5l-0.6,0l-0.4,-6.6c4.2,-0.6 7.4,-4.3 7.4,-8.6c0,-3.4 -0.9,-7.7 -2.4,-11.1c-1.8,-4.1 -4,-6.3 -6.3,-6.3c-2.3,0 -4.5,2.2 -6.3,6.3c-1.5,3.4 -2.5,7.7 -2.5,11.1Zm8.2,15.2l0.6,-10.6l0.5,10.6l-1.1,0Zm-7.1,-15.2c0,-3.2 0.9,-7.4 2.3,-10.7c1.6,-3.6 3.5,-5.7 5.3,-5.7c1.8,0 3.7,2.1 5.3,5.7c1.4,3.3 2.3,7.5 2.3,10.7c0,3.7 -2.7,6.9 -6.4,7.5l-0.3,-5.4l2.9,-2.9c0.2,-0.2 0.2,-0.6 0,-0.8c-0.2,-0.2 -0.6,-0.2 -0.8,0l-2.2,2.2l-0.3,-6c0,-0.3 -0.3,-0.5 -0.5,-0.5c-0.3,0 -0.5,0.2 -0.5,0.5l-0.2,3.8l-0.6,-0.6c-0.2,-0.2 -0.6,-0.2 -0.8,0c-0.2,0.2 -0.2,0.6 0,0.8l1.3,1.3l-0.1,2.4l-2.1,-2.1c-0.2,-0.2 -0.6,-0.2 -0.8,0c-0.2,0.2 -0.2,0.6 0,0.8l2.8,2.8l-0.2,3.7c-1.7,-0.3 -3.2,-1.1 -4.4,-2.4c-1.3,-1.4 -2,-3.2 -2,-5.1Z" style="fill:#a1a1a1;fill-rule:nonzero;"/><path d="M197,74.7c-1.8,-4.1 -4,-6.3 -6.3,-6.3c-2.3,0 -4.5,2.2 -6.3,6.3c-1.5,3.5 -2.4,7.7 -2.4,11.1c0,4.3 3.2,8 7.4,8.6l-0.4,6.6l-0.6,0c-0.3,0 -0.5,0.2 -0.5,0.5c0,0.3 0.2,0.5 0.5,0.5l4.7,0c0.3,0 0.5,-0.2 0.5,-0.5c0,-0.3 -0.2,-0.5 -0.5,-0.5l-0.6,0l-0.4,-6.6c2,-0.3 3.8,-1.3 5.1,-2.8c1.5,-1.6 2.3,-3.7 2.3,-5.8c-0.1,-3.4 -1,-7.7 -2.5,-11.1Zm-6.9,26.3l0.6,-10.6l0.6,10.6l-1.2,0Zm6.3,-10.1c-1.2,1.3 -2.7,2.1 -4.4,2.4l-0.2,-3.7l2.8,-2.8c0.2,-0.2 0.2,-0.6 0,-0.8c-0.2,-0.2 -0.6,-0.2 -0.8,0l-2.1,2.1l-0.1,-2.4l1.3,-1.3c0.2,-0.2 0.2,-0.6 0,-0.8c-0.2,-0.2 -0.6,-0.2 -0.8,0l-0.6,0.6l-0.2,-3.8c0,-0.3 -0.3,-0.5 -0.5,-0.5c-0.2,0 -0.5,0.2 -0.5,0.5l-0.3,6l-2.2,-2.2c-0.2,-0.2 -0.6,-0.2 -0.8,0c-0.2,0.2 -0.2,0.6 0,0.8l2.9,2.9l-0.3,5.4c-3.7,-0.6 -6.4,-3.8 -6.4,-7.5c0,-3.2 0.9,-7.4 2.3,-10.7c1.6,-3.6 3.5,-5.7 5.3,-5.7c1.8,0 3.7,2.1 5.3,5.7c1.4,3.3 2.3,7.5 2.3,10.7c-0.1,1.9 -0.8,3.7 -2,5.1Z" style="fill:#a1a1a1;fill-rule:nonzero;"/><path d="M61.2,85.8c0,2.2 0.8,4.2 2.3,5.8c1.4,1.5 3.2,2.5 5.1,2.8l-0.4,6.6l-0.6,0c-0.3,0 -0.5,0.2 -0.5,0.5c0,0.3 0.2,0.5 0.5,0.5l4.7,0c0.3,0 0.5,-0.2 0.5,-0.5c0,-0.3 -0.2,-0.5 -0.5,-0.5l-0.6,0l-0.4,-6.6c4.2,-0.6 7.4,-4.3 7.4,-8.6c0,-3.4 -0.9,-7.7 -2.4,-11.1c-1.8,-4.1 -4,-6.3 -6.3,-6.3c-2.3,0 -4.5,2.2 -6.3,6.3c-1.5,3.4 -2.5,7.7 -2.5,11.1Zm8.2,15.2l0.6,-10.6l0.6,10.6l-1.2,0Zm-7.1,-15.2c0,-3.2 0.9,-7.4 2.3,-10.7c1.6,-3.6 3.5,-5.7 5.3,-5.7c1.8,0 3.7,2.1 5.3,5.7c1.4,3.3 2.3,7.5 2.3,10.7c0,3.7 -2.7,6.9 -6.4,7.5l-0.2,-5.3l2.9,-2.9c0.2,-0.2 0.2,-0.6 0,-0.8c-0.2,-0.2 -0.6,-0.2 -0.8,0l-2.2,2.2l-0.3,-6c0,-0.3 -0.3,-0.5 -0.5,-0.5c-0.3,0 -0.5,0.2 -0.5,0.5l-0.2,3.8l-0.6,-0.6c-0.2,-0.2 -0.6,-0.2 -0.8,0c-0.2,0.2 -0.2,0.6 0,0.8l1.3,1.3l-0.2,2.3l-2.2,-2.1c-0.2,-0.2 -0.6,-0.2 -0.8,0c-0.2,0.2 -0.2,0.6 0,0.8l2.8,2.8l-0.2,3.7c-1.7,-0.3 -3.2,-1.1 -4.4,-2.4c-1.2,-1.4 -1.9,-3.2 -1.9,-5.1Z" style="fill:#a1a1a1;fill-rule:nonzero;"/><path d="M15,97.4c-1.8,-4.1 -4,-6.3 -6.3,-6.3c-2.3,0 -4.5,2.2 -6.3,6.3c-1.5,3.5 -2.4,7.7 -2.4,11.1c0,4.3 3.2,8 7.4,8.6l-0.4,6.7l-0.6,0c-0.3,0 -0.5,0.2 -0.5,0.5c0,0.3 0.2,0.5 0.5,0.5l4.6,0c0.3,0 0.5,-0.2 0.5,-0.5c0,-0.3 -0.2,-0.5 -0.5,-0.5l-0.6,0l-0.4,-6.6c2,-0.3 3.8,-1.3 5.1,-2.8c1.5,-1.6 2.3,-3.7 2.3,-5.8c0,-3.4 -0.9,-7.7 -2.4,-11.2Zm-6.9,26.4l0.6,-10.6l0.6,10.6l-1.2,0Zm6.3,-10.1c-1.2,1.3 -2.7,2.1 -4.4,2.4l-0.2,-3.7l2.8,-2.8c0.2,-0.2 0.2,-0.6 0,-0.8c-0.2,-0.2 -0.6,-0.2 -0.8,0l-2.1,2.1l-0.1,-2.4l1.3,-1.3c0.2,-0.2 0.2,-0.6 0,-0.8c-0.2,-0.2 -0.6,-0.2 -0.8,0l-0.6,0.6l-0.2,-3.8c0,-0.3 -0.3,-0.5 -0.5,-0.5c-0.3,0 -0.5,0.2 -0.5,0.5l-0.3,6l-2.4,-2.2c-0.2,-0.2 -0.6,-0.2 -0.8,0c-0.2,0.2 -0.2,0.6 0,0.8l2.9,2.9l-0.3,5.4c-3.7,-0.6 -6.4,-3.8 -6.4,-7.5c0,-3.2 0.9,-7.4 2.3,-10.7c1.6,-3.6 3.5,-5.7 5.3,-5.7c1.8,0 3.7,2.1 5.3,5.7c1.4,3.3 2.3,7.5 2.3,10.7c0.1,1.9 -0.6,3.7 -1.8,5.1Z" style="fill:#a1a1a1;fill-rule:nonzero;"/><path d="M201.2,108.6c0,2.2 0.8,4.2 2.3,5.8c1.4,1.5 3.2,2.5 5.1,2.8l-0.4,6.6l-0.6,0c-0.3,0 -0.5,0.2 -0.5,0.5c0,0.3 0.2,0.5 0.5,0.5l4.7,0c0.3,0 0.5,-0.2 0.5,-0.5c0,-0.3 -0.2,-0.5 -0.5,-0.5l-0.6,0l-0.4,-6.6c4.2,-0.6 7.4,-4.3 7.4,-8.6c0,-3.4 -0.9,-7.7 -2.4,-11.1c-1.8,-4.1 -4,-6.3 -6.3,-6.3c-2.3,0 -4.5,2.2 -6.3,6.3c-1.5,3.4 -2.5,7.7 -2.5,11.1Zm8.2,15.2l0.6,-10.6l0.6,10.6l-1.2,0Zm-7.1,-15.2c0,-3.2 0.9,-7.4 2.3,-10.7c1.6,-3.6 3.5,-5.7 5.3,-5.7c1.8,0 3.7,2.1 5.3,5.7c1.4,3.3 2.3,7.5 2.3,10.7c0,3.7 -2.7,6.9 -6.4,7.5l-0.3,-5.4l2.9,-2.9c0.2,-0.2 0.2,-0.6 0,-0.8c-0.2,-0.2 -0.6,-0.2 -0.8,0l-2.2,2.2l-0.3,-6c0,-0.3 -0.3,-0.5 -0.5,-0.5c-0.3,0 -0.5,0.2 -0.5,0.5l-0.2,3.8l-0.6,-0.6c-0.2,-0.2 -0.6,-0.2 -0.8,0c-0.2,0.2 -0.2,0.6 0,0.8l1.3,1.3l-0.1,2.4l-2.1,-2.1c-0.2,-0.2 -0.6,-0.2 -0.8,0c-0.2,0.2 -0.2,0.6 0,0.8l2.8,2.8l-0.2,3.7c-1.7,-0.3 -3.2,-1.1 -4.4,-2.4c-1.3,-1.4 -2,-3.2 -2,-5.1Z" style="fill:#a1a1a1;fill-rule:nonzero;"/><path d="M95.5,97.4c-1.8,-4.1 -4,-6.3 -6.3,-6.3c-2.3,0 -4.5,2.2 -6.3,6.3c-1.5,3.5 -2.4,7.7 -2.4,11.1c0,4.3 3.2,8 7.4,8.6l-0.4,6.6l-0.6,0c-0.3,0 -0.5,0.2 -0.5,0.5c0,0.3 0.2,0.5 0.5,0.5l4.7,0c0.3,0 0.5,-0.2 0.5,-0.5c0,-0.3 -0.2,-0.5 -0.5,-0.5l-0.6,0l-0.4,-6.6c2,-0.3 3.8,-1.3 5.1,-2.8c1.5,-1.6 2.3,-3.7 2.3,-5.8c-0.1,-3.3 -1,-7.6 -2.5,-11.1Zm-6.9,26.4l0.6,-10.6l0.6,10.6l-1.2,0Zm6.3,-10.1c-1.2,1.3 -2.7,2.1 -4.4,2.4l-0.2,-3.7l2.8,-2.8c0.2,-0.2 0.2,-0.6 0,-0.8c-0.2,-0.2 -0.6,-0.2 -0.8,0l-2.1,2.1l-0.1,-2.4l1.3,-1.3c0.2,-0.2 0.2,-0.6 0,-0.8c-0.2,-0.2 -0.6,-0.2 -0.8,0l-0.6,0.6l-0.2,-3.8c0,-0.3 -0.3,-0.5 -0.5,-0.5c-0.3,0 -0.5,0.2 -0.5,0.5l-0.3,6l-2.2,-2.2c-0.2,-0.2 -0.6,-0.2 -0.8,0c-0.2,0.2 -0.2,0.6 0,0.8l2.9,2.9l-0.3,5.4c-3.7,-0.6 -6.4,-3.8 -6.4,-7.5c0,-3.2 0.9,-7.4 2.3,-10.7c1.6,-3.6 3.5,-5.7 5.3,-5.7c1.8,0 3.7,2.1 5.3,5.7c1.4,3.3 2.3,7.5 2.3,10.7c-0.1,1.9 -0.8,3.7 -2,5.1Z" style="fill:#a1a1a1;fill-rule:nonzero;"/><path d="M120.7,108.6c0,2.2 0.8,4.2 2.3,5.8c1.4,1.5 3.2,2.5 5.1,2.8l-0.4,6.6l-0.6,0c-0.3,0 -0.5,0.2 -0.5,0.5c0,0.3 0.2,0.5 0.5,0.5l4.7,0c0.3,0 0.5,-0.2 0.5,-0.5c0,-0.3 -0.2,-0.5 -0.5,-0.5l-0.6,0l-0.4,-6.6c4.2,-0.6 7.4,-4.3 7.4,-8.6c0,-3.4 -0.9,-7.7 -2.4,-11.1c-1.8,-4.1 -4,-6.3 -6.3,-6.3c-2.3,0 -4.5,2.2 -6.3,6.3c-1.5,3.4 -2.5,7.7 -2.5,11.1Zm8.2,15.2l0.6,-10.6l0.6,10.6l-1.2,0Zm-7.1,-15.2c0,-3.2 0.9,-7.4 2.3,-10.7c1.6,-3.6 3.5,-5.7 5.3,-5.7c1.8,0 3.7,2.1 5.3,5.7c1.4,3.3 2.3,7.5 2.3,10.7c0,3.7 -2.7,6.9 -6.4,7.5l-0.3,-5.4l2.9,-2.9c0.2,-0.2 0.2,-0.6 0,-0.8c-0.2,-0.2 -0.6,-0.2 -0.8,0l-2.2,2.2l-0.3,-6c0,-0.3 -0.3,-0.5 -0.5,-0.5c-0.3,0 -0.5,0.2 -0.5,0.5l-0.2,3.8l-0.6,-0.6c-0.2,-0.2 -0.6,-0.2 -0.8,0c-0.2,0.2 -0.2,0.6 0,0.8l1.3,1.3l-0.1,2.4l-2.1,-2.1c-0.2,-0.2 -0.6,-0.2 -0.8,0c-0.2,0.2 -0.2,0.6 0,0.8l2.8,2.8l-0.2,3.7c-1.7,-0.3 -3.2,-1.1 -4.4,-2.4c-1.3,-1.4 -2,-3.2 -2,-5.1Z" style="fill:#a1a1a1;fill-rule:nonzero;"/><path d="M176,97.4c-1.8,-4.1 -4,-6.3 -6.3,-6.3c-2.3,0 -4.5,2.2 -6.3,6.3c-1.5,3.5 -2.4,7.7 -2.4,11.1c0,4.3 3.2,8 7.4,8.6l-0.4,6.6l-0.6,0c-0.3,0 -0.5,0.2 -0.5,0.5c0,0.3 0.2,0.5 0.5,0.5l4.7,0c0.3,0 0.5,-0.2 0.5,-0.5c0,-0.3 -0.2,-0.5 -0.5,-0.5l-0.6,0l-0.4,-6.6c2,-0.3 3.8,-1.3 5.1,-2.8c1.5,-1.6 2.3,-3.7 2.3,-5.8c-0.1,-3.3 -1,-7.6 -2.5,-11.1Zm-6.9,26.4l0.6,-10.6l0.6,10.6l-1.2,0Zm6.3,-10.1c-1.2,1.3 -2.7,2.1 -4.4,2.4l-0.2,-3.7l2.8,-2.8c0.2,-0.2 0.2,-0.6 0,-0.8c-0.2,-0.2 -0.6,-0.2 -0.8,0l-2.1,2.1l-0.1,-2.4l1.3,-1.3c0.2,-0.2 0.2,-0.6 0,-0.8c-0.2,-0.2 -0.6,-0.2 -0.8,0l-0.6,0.6l-0.2,-3.8c0,-0.3 -0.3,-0.5 -0.5,-0.5c-0.2,0 -0.5,0.2 -0.5,0.5l-0.3,6l-2.2,-2.2c-0.2,-0.2 -0.6,-0.2 -0.8,0c-0.2,0.2 -0.2,0.6 0,0.8l2.9,2.9l-0.3,5.4c-3.7,-0.6 -6.4,-3.8 -6.4,-7.5c0,-3.2 0.9,-7.4 2.3,-10.7c1.6,-3.6 3.5,-5.7 5.3,-5.7c1.8,0 3.7,2.1 5.3,5.7c1.4,3.3 2.3,7.5 2.3,10.7c-0.1,1.9 -0.8,3.7 -2,5.1Z" style="fill:#a1a1a1;fill-rule:nonzero;"/><path d="M40.2,108.6c0,2.2 0.8,4.2 2.3,5.8c1.4,1.5 3.2,2.5 5.1,2.8l-0.4,6.6l-0.6,0c-0.3,0 -0.5,0.2 -0.5,0.5c0,0.3 0.2,0.5 0.5,0.5l4.7,0c0.3,0 0.5,-0.2 0.5,-0.5c0,-0.3 -0.2,-0.5 -0.5,-0.5l-0.6,0l-0.4,-6.6c4.2,-0.6 7.4,-4.3 7.4,-8.6c0,-3.4 -0.9,-7.7 -2.4,-11.1c-1.8,-4.1 -4,-6.3 -6.3,-6.3c-2.3,0 -4.5,2.2 -6.3,6.3c-1.5,3.4 -2.5,7.7 -2.5,11.1Zm8.2,15.2l0.6,-10.6l0.6,10.6l-1.2,0Zm-7.1,-15.2c0,-3.2 0.9,-7.4 2.3,-10.7c1.6,-3.6 3.5,-5.7 5.3,-5.7c1.8,0 3.7,2.1 5.3,5.7c1.4,3.3 2.3,7.5 2.3,10.7c0,3.7 -2.7,6.9 -6.4,7.5l-0.3,-5.4l2.9,-2.9c0.2,-0.2 0.2,-0.6 0,-0.8c-0.2,-0.2 -0.6,-0.2 -0.8,0l-2.2,2.2l-0.3,-6c0,-0.3 -0.3,-0.5 -0.5,-0.5c-0.2,0 -0.5,0.2 -0.5,0.5l-0.2,3.8l-0.6,-0.6c-0.2,-0.2 -0.6,-0.2 -0.8,0c-0.2,0.2 -0.2,0.6 0,0.8l1.3,1.3l-0.1,2.4l-2.1,-2.1c-0.2,-0.2 -0.6,-0.2 -0.8,0c-0.2,0.2 -0.2,0.6 0,0.8l2.8,2.8l-0.2,3.7c-1.7,-0.3 -3.2,-1.1 -4.4,-2.4c-1.3,-1.4 -2,-3.2 -2,-5.1Z" style="fill:#a1a1a1;fill-rule:nonzero;"/><path d="M256.5,97.4c-1.8,-4.1 -4,-6.3 -6.3,-6.3c-2.3,0 -4.5,2.2 -6.3,6.3c-1.5,3.5 -2.4,7.7 -2.4,11.1c0,4.3 3.2,8 7.4,8.6l-0.4,6.6l-0.6,0c-0.3,0 -0.5,0.2 -0.5,0.5c0,0.3 0.2,0.5 0.5,0.5l4.7,0c0.3,0 0.5,-0.2 0.5,-0.5c0,-0.3 -0.2,-0.5 -0.5,-0.5l-0.6,0l-0.4,-6.6c2,-0.3 3.8,-1.3 5.1,-2.8c1.5,-1.6 2.3,-3.7 2.3,-5.8c-0.1,-3.3 -1,-7.6 -2.5,-11.1Zm-6.9,26.4l0.6,-10.6l0.6,10.6l-1.2,0Zm6.2,-10.1c-1.2,1.3 -2.7,2.1 -4.4,2.4l-0.2,-3.7l2.8,-2.8c0.2,-0.2 0.2,-0.6 0,-0.8c-0.2,-0.2 -0.6,-0.2 -0.8,0l-2.1,2.1l-0.1,-2.4l1.3,-1.3c0.2,-0.2 0.2,-0.6 0,-0.8c-0.2,-0.2 -0.6,-0.2 -0.8,0l-0.6,0.6l-0.2,-3.8c0,-0.3 -0.3,-0.5 -0.5,-0.5c-0.2,0 -0.5,0.2 -0.5,0.5l-0.3,6l-2.2,-2.2c-0.2,-0.2 -0.6,-0.2 -0.8,0c-0.2,0.2 -0.2,0.6 0,0.8l2.9,2.9l-0.3,5.4c-3.7,-0.6 -6.4,-3.8 -6.4,-7.5c0,-3.2 0.9,-7.4 2.3,-10.7c1.6,-3.6 3.5,-5.7 5.3,-5.7c1.8,0 3.7,2.1 5.3,5.7c1.4,3.3 2.3,7.5 2.3,10.7c0,1.9 -0.7,3.7 -2,5.1Z" style="fill:#a1a1a1;fill-rule:nonzero;"/><path d="M36,120.2c-1.8,-4.1 -4,-6.3 -6.3,-6.3c-2.3,0 -4.5,2.2 -6.3,6.3c-1.5,3.5 -2.4,7.7 -2.4,11.1c0,4.3 3.2,8 7.4,8.6l-0.4,6.6l-0.6,0c-0.3,0 -0.5,0.2 -0.5,0.5c0,0.3 0.2,0.5 0.5,0.5l4.6,0c0.3,0 0.5,-0.2 0.5,-0.5c0,-0.3 -0.2,-0.5 -0.5,-0.5l-0.6,0l-0.4,-6.5c2,-0.3 3.8,-1.3 5.1,-2.8c1.5,-1.6 2.3,-3.7 2.3,-5.8c0,-3.4 -0.9,-7.7 -2.4,-11.2Zm-6.9,26.4l0.6,-10.6l0.6,10.6l-1.2,0Zm6.3,-10.1c-1.2,1.3 -2.7,2.1 -4.4,2.4l-0.2,-3.7l2.8,-2.8c0.2,-0.2 0.2,-0.6 0,-0.8c-0.2,-0.2 -0.6,-0.2 -0.8,0l-2.1,2.1l-0.1,-2.4l1.3,-1.3c0.2,-0.2 0.2,-0.6 0,-0.8c-0.2,-0.2 -0.6,-0.2 -0.8,0l-0.6,0.6l-0.2,-3.8c0,-0.3 -0.3,-0.5 -0.5,-0.5c-0.2,0 -0.5,0.2 -0.5,0.5l-0.3,6l-2.2,-2.2c-0.2,-0.2 -0.6,-0.2 -0.8,0c-0.2,0.2 -0.2,0.6 0,0.8l2.9,2.9l-0.3,5.4c-3.7,-0.6 -6.4,-3.8 -6.4,-7.5c0,-3.2 0.9,-7.4 2.3,-10.7c1.6,-3.6 3.5,-5.7 5.3,-5.7c1.8,0 3.7,2.1 5.3,5.7c1.4,3.3 2.3,7.5 2.3,10.7c-0.1,1.9 -0.8,3.7 -2,5.1Z" style="fill:#a1a1a1;fill-rule:nonzero;"/><path d="M222.2,131.4c0,2.2 0.8,4.2 2.3,5.8c1.4,1.5 3.2,2.5 5.1,2.8l-0.4,6.6l-0.6,0c-0.3,0 -0.5,0.2 -0.5,0.5c0,0.3 0.2,0.5 0.5,0.5l4.7,0c0.3,0 0.5,-0.2 0.5,-0.5c0,-0.3 -0.2,-0.5 -0.5,-0.5l-0.6,0l-0.4,-6.6c4.2,-0.6 7.4,-4.3 7.4,-8.6c0,-3.4 -0.9,-7.7 -2.4,-11.1c-1.8,-4.1 -4,-6.3 -6.3,-6.3c-2.3,0 -4.5,2.2 -6.3,6.3c-1.5,3.4 -2.5,7.7 -2.5,11.1Zm8.2,15.2l0.6,-10.6l0.6,10.6l-1.2,0Zm-7.1,-15.2c0,-3.2 0.9,-7.4 2.3,-10.7c1.6,-3.6 3.5,-5.7 5.3,-5.7c1.8,0 3.7,2.1 5.3,5.7c1.4,3.3 2.3,7.5 2.3,10.7c0,3.7 -2.7,6.9 -6.4,7.5l-0.3,-5.4l2.9,-2.9c0.2,-0.2 0.2,-0.6 0,-0.8c-0.2,-0.2 -0.6,-0.2 -0.8,0l-2.2,2.2l-0.3,-6c0,-0.3 -0.3,-0.5 -0.5,-0.5c-0.3,0 -0.5,0.2 -0.5,0.5l-0.2,3.8l-0.6,-0.6c-0.2,-0.2 -0.6,-0.2 -0.8,0c-0.2,0.2 -0.2,0.6 0,0.8l1.3,1.3l-0.1,2.4l-2.1,-2.1c-0.2,-0.2 -0.6,-0.2 -0.8,0c-0.2,0.2 -0.2,0.6 0,0.8l2.8,2.8l-0.2,3.7c-1.7,-0.3 -3.2,-1.1 -4.4,-2.4c-1.3,-1.4 -2,-3.2 -2,-5.1Z" style="fill:#a1a1a1;fill-rule:nonzero;"/><path d="M116.5,120.2c-1.8,-4.1 -4,-6.3 -6.3,-6.3c-2.3,0 -4.5,2.2 -6.3,6.3c-1.5,3.5 -2.4,7.7 -2.4,11.1c0,4.3 3.2,8 7.4,8.6l-0.4,6.6l-0.6,0c-0.3,0 -0.5,0.2 -0.5,0.5c0,0.3 0.2,0.5 0.5,0.5l4.7,0c0.3,0 0.5,-0.2 0.5,-0.5c0,-0.3 -0.2,-0.5 -0.5,-0.5l-0.6,0l-0.4,-6.6c2,-0.3 3.8,-1.3 5.1,-2.8c1.5,-1.6 2.3,-3.7 2.3,-5.8c-0.1,-3.3 -1,-7.6 -2.5,-11.1Zm-6.9,26.4l0.6,-10.6l0.6,10.6l-1.2,0Zm6.3,-10.1c-1.2,1.3 -2.7,2.1 -4.4,2.4l-0.2,-3.7l2.8,-2.8c0.2,-0.2 0.2,-0.6 0,-0.8c-0.2,-0.2 -0.6,-0.2 -0.8,0l-2.1,2.1l-0.1,-2.4l1.3,-1.3c0.2,-0.2 0.2,-0.6 0,-0.8c-0.2,-0.2 -0.6,-0.2 -0.8,0l-0.6,0.6l-0.2,-3.8c0,-0.3 -0.3,-0.5 -0.5,-0.5c-0.3,0 -0.5,0.2 -0.5,0.5l-0.3,6l-2.2,-2.2c-0.2,-0.2 -0.6,-0.2 -0.8,0c-0.2,0.2 -0.2,0.6 0,0.8l2.9,2.9l-0.3,5.4c-3.7,-0.6 -6.4,-3.8 -6.4,-7.5c0,-3.2 0.9,-7.4 2.3,-10.7c1.6,-3.6 3.5,-5.7 5.3,-5.7c1.8,0 3.7,2.1 5.3,5.7c1.4,3.3 2.3,7.5 2.3,10.7c-0.1,1.9 -0.8,3.7 -2,5.1Z" style="fill:#a1a1a1;fill-rule:nonzero;"/><path d="M141.7,131.4c0,2.2 0.8,4.2 2.3,5.8c1.4,1.5 3.2,2.5 5.1,2.8l-0.4,6.6l-0.6,0c-0.3,0 -0.5,0.2 -0.5,0.5c0,0.3 0.2,0.5 0.5,0.5l4.7,0c0.3,0 0.5,-0.2 0.5,-0.5c0,-0.3 -0.2,-0.5 -0.5,-0.5l-0.6,0l-0.4,-6.6c4.2,-0.6 7.4,-4.3 7.4,-8.6c0,-3.4 -0.9,-7.7 -2.4,-11.1c-1.8,-4.1 -4,-6.3 -6.3,-6.3c-2.3,0 -4.5,2.2 -6.3,6.3c-1.5,3.4 -2.5,7.7 -2.5,11.1Zm8.2,15.2l0.6,-10.6l0.6,10.6l-1.2,0Zm-7.1,-15.2c0,-3.2 0.9,-7.4 2.3,-10.7c1.6,-3.6 3.5,-5.7 5.3,-5.7c1.8,0 3.7,2.1 5.3,5.7c1.4,3.3 2.3,7.5 2.3,10.7c0,3.7 -2.7,6.9 -6.4,7.5l-0.3,-5.4l2.9,-2.9c0.2,-0.2 0.2,-0.6 0,-0.8c-0.2,-0.2 -0.6,-0.2 -0.8,0l-2.2,2.2l-0.3,-6c0,-0.3 -0.3,-0.5 -0.5,-0.5c-0.3,0 -0.5,0.2 -0.5,0.5l-0.2,3.8l-0.6,-0.6c-0.2,-0.2 -0.6,-0.2 -0.8,0c-0.2,0.2 -0.2,0.6 0,0.8l1.3,1.3l-0.1,2.4l-2.1,-2.1c-0.2,-0.2 -0.6,-0.2 -0.8,0c-0.2,0.2 -0.2,0.6 0,0.8l2.8,2.8l-0.2,3.7c-1.7,-0.3 -3.2,-1.1 -4.4,-2.4c-1.3,-1.4 -2,-3.2 -2,-5.1Z" style="fill:#a1a1a1;fill-rule:nonzero;"/><path d="M197,120.2c-1.8,-4.1 -4,-6.3 -6.3,-6.3c-2.3,0 -4.5,2.2 -6.3,6.3c-1.5,3.5 -2.4,7.7 -2.4,11.1c0,4.3 3.2,8 7.4,8.6l-0.4,6.6l-0.6,0c-0.3,0 -0.5,0.2 -0.5,0.5c0,0.3 0.2,0.5 0.5,0.5l4.7,0c0.3,0 0.5,-0.2 0.5,-0.5c0,-0.3 -0.2,-0.5 -0.5,-0.5l-0.6,0l-0.5,-6.5c2,-0.3 3.8,-1.3 5.1,-2.8c1.5,-1.6 2.3,-3.7 2.3,-5.8c0,-3.4 -0.9,-7.7 -2.4,-11.2Zm-6.9,26.4l0.6,-10.6l0.6,10.6l-1.2,0Zm6.3,-10.1c-1.2,1.3 -2.7,2.1 -4.4,2.4l-0.2,-3.7l2.8,-2.8c0.2,-0.2 0.2,-0.6 0,-0.8c-0.2,-0.2 -0.6,-0.2 -0.8,0l-2.1,2.1l-0.1,-2.4l1.3,-1.3c0.2,-0.2 0.2,-0.6 0,-0.8c-0.2,-0.2 -0.6,-0.2 -0.8,0l-0.6,0.6l-0.2,-3.8c0,-0.3 -0.3,-0.5 -0.5,-0.5c-0.2,0 -0.5,0.2 -0.5,0.5l-0.3,6l-2.2,-2.2c-0.2,-0.2 -0.6,-0.2 -0.8,0c-0.2,0.2 -0.2,0.6 0,0.8l2.9,2.9l-0.3,5.4c-3.7,-0.6 -6.4,-3.8 -6.4,-7.5c0,-3.2 0.9,-7.4 2.3,-10.7c1.6,-3.6 3.5,-5.7 5.3,-5.7c1.8,0 3.7,2.1 5.3,5.7c1.4,3.3 2.3,7.5 2.3,10.7c-0.1,1.9 -0.8,3.7 -2,5.1Z" style="fill:#a1a1a1;fill-rule:nonzero;"/><path d="M61.2,131.4c0,2.2 0.8,4.2 2.3,5.8c1.4,1.5 3.2,2.5 5.1,2.8l-0.4,6.6l-0.6,0c-0.3,0 -0.5,0.2 -0.5,0.5c0,0.3 0.2,0.5 0.5,0.5l4.7,0c0.3,0 0.5,-0.2 0.5,-0.5c0,-0.3 -0.2,-0.5 -0.5,-0.5l-0.6,0l-0.4,-6.6c4.2,-0.6 7.4,-4.3 7.4,-8.6c0,-3.4 -0.9,-7.7 -2.4,-11.1c-1.8,-4.1 -4,-6.3 -6.3,-6.3c-2.3,0 -4.5,2.2 -6.3,6.3c-1.5,3.4 -2.5,7.7 -2.5,11.1Zm8.2,15.2l0.6,-10.6l0.6,10.6l-1.2,0Zm-7.1,-15.2c0,-3.2 0.9,-7.4 2.3,-10.7c1.6,-3.6 3.5,-5.7 5.3,-5.7c1.8,0 3.7,2.1 5.3,5.7c1.4,3.3 2.3,7.5 2.3,10.7c0,3.7 -2.7,6.9 -6.4,7.5l-0.3,-5.4l2.9,-2.9c0.2,-0.2 0.2,-0.6 0,-0.8c-0.2,-0.2 -0.6,-0.2 -0.8,0l-2.2,2.2l-0.3,-6c0,-0.3 -0.3,-0.5 -0.5,-0.5c-0.3,0 -0.5,0.2 -0.5,0.5l-0.2,3.8l-0.6,-0.6c-0.2,-0.2 -0.6,-0.2 -0.8,0c-0.2,0.2 -0.2,0.6 0,0.8l1.3,1.3l-0.1,2.4l-2.1,-2.1c-0.2,-0.2 -0.6,-0.2 -0.8,0c-0.2,0.2 -0.2,0.6 0,0.8l2.8,2.8l-0.2,3.7c-1.7,-0.3 -3.2,-1.1 -4.4,-2.4c-1.3,-1.4 -2,-3.2 -2,-5.1Z" style="fill:#a1a1a1;fill-rule:nonzero;"/><path d="M15,188.6c-1.8,-4.1 -4,-6.3 -6.3,-6.3c-2.3,0 -4.5,2.2 -6.3,6.3c-1.5,3.4 -2.4,7.7 -2.4,11.1c0,4.3 3.2,8 7.4,8.6l-0.4,6.6l-0.6,0c-0.3,0 -0.5,0.2 -0.5,0.5c0,0.3 0.2,0.5 0.5,0.5l4.6,0c0.3,0 0.5,-0.2 0.5,-0.5c0,-0.3 -0.2,-0.5 -0.5,-0.5l-0.6,0l-0.4,-6.6c2,-0.3 3.8,-1.3 5.1,-2.8c1.5,-1.6 2.3,-3.7 2.3,-5.8c0,-3.4 -0.9,-7.7 -2.4,-11.1Zm-6.9,26.3l0.6,-10.6l0.6,10.6l-1.2,0Zm6.3,-10.1c-1.2,1.3 -2.7,2.1 -4.4,2.4l-0.2,-3.7l2.8,-2.8c0.2,-0.2 0.2,-0.6 0,-0.8c-0.2,-0.2 -0.6,-0.2 -0.8,0l-2.1,2.1l-0.1,-2.4l1.3,-1.3c0.2,-0.2 0.2,-0.6 0,-0.8c-0.2,-0.2 -0.6,-0.2 -0.8,0l-0.6,0.6l-0.2,-3.8c0,-0.3 -0.3,-0.5 -0.5,-0.5c-0.3,0 -0.5,0.2 -0.5,0.5l-0.3,6l-2.2,-2.2c-0.2,-0.2 -0.6,-0.2 -0.8,0c-0.2,0.2 -0.2,0.6 0,0.8l2.9,2.9l-0.3,5.4c-3.7,-0.6 -6.4,-3.8 -6.4,-7.5c0,-3.2 0.9,-7.4 2.3,-10.7c1.6,-3.6 3.5,-5.7 5.3,-5.7c1.8,0 3.7,2.1 5.3,5.7c1.4,3.3 2.3,7.5 2.3,10.7c-0.1,1.9 -0.8,3.7 -2,5.1Z" style="fill:#a1a1a1;fill-rule:nonzero;"/><path d="M241.5,154.1c0,2.2 0.8,4.2 2.3,5.8c1.4,1.5 3.2,2.5 5.1,2.8l-0.4,6.6l-0.6,0c-0.3,0 -0.5,0.2 -0.5,0.5c0,0.3 0.2,0.5 0.5,0.5l4.7,0c0.3,0 0.5,-0.2 0.5,-0.5c0,-0.3 -0.2,-0.5 -0.5,-0.5l-0.6,0l-0.4,-6.6c4.2,-0.6 7.4,-4.3 7.4,-8.6c0,-3.4 -0.9,-7.7 -2.4,-11.1c-1.8,-4.1 -4,-6.3 -6.3,-6.3c-2.3,0 -4.5,2.2 -6.3,6.3c-1.6,3.5 -2.5,7.7 -2.5,11.1Zm8.1,15.2l0.6,-10.6l0.6,10.6l-1.2,0Zm-7,-15.2c0,-3.2 0.9,-7.4 2.3,-10.7c1.6,-3.6 3.5,-5.7 5.3,-5.7c1.8,0 3.7,2.1 5.3,5.7c1.4,3.3 2.3,7.5 2.3,10.7c0,3.7 -2.7,6.9 -6.4,7.5l-0.3,-5.4l2.9,-2.9c0.2,-0.2 0.2,-0.6 0,-0.8c-0.2,-0.2 -0.6,-0.2 -0.8,0l-2.2,2.2l-0.3,-6c0,-0.3 -0.3,-0.5 -0.5,-0.5c-0.2,0 -0.5,0.2 -0.5,0.5l-0.2,3.8l-0.6,-0.6c-0.2,-0.2 -0.6,-0.2 -0.8,0c-0.2,0.2 -0.2,0.6 0,0.8l1.3,1.3l-0.1,2.4l-2.1,-2.1c-0.2,-0.2 -0.6,-0.2 -0.8,0c-0.2,0.2 -0.2,0.6 0,0.8l2.8,2.8l-0.2,3.7c-1.7,-0.3 -3.2,-1.1 -4.4,-2.4c-1.3,-1.3 -2,-3.2 -2,-5.1Z" style="fill:#a1a1a1;fill-rule:nonzero;"/><path d="M55.2,143c-1.8,-4.1 -4,-6.3 -6.3,-6.3c-2.3,0 -4.5,2.2 -6.3,6.3c-1.5,3.5 -2.4,7.7 -2.4,11.1c0,4.3 3.2,8 7.4,8.6l-0.4,6.6l-0.6,0c-0.3,0 -0.5,0.2 -0.5,0.5c0,0.3 0.2,0.5 0.5,0.5l4.7,0c0.3,0 0.5,-0.2 0.5,-0.5c0,-0.3 -0.2,-0.5 -0.5,-0.5l-0.6,0l-0.4,-6.6c2,-0.3 3.8,-1.3 5.1,-2.8c1.5,-1.6 2.3,-3.7 2.3,-5.8c0,-3.4 -1,-7.6 -2.5,-11.1Zm-6.8,26.3l0.6,-10.6l0.6,10.6l-1.2,0Zm6.2,-10c-1.2,1.3 -2.7,2.1 -4.4,2.4l-0.2,-3.7l2.8,-2.8c0.2,-0.2 0.2,-0.6 0,-0.8c-0.2,-0.2 -0.6,-0.2 -0.8,0l-2.1,2.1l-0.1,-2.4l1.3,-1.3c0.2,-0.2 0.2,-0.6 0,-0.8c-0.2,-0.2 -0.6,-0.2 -0.8,0l-0.6,0.6l-0.2,-3.8c0,-0.3 -0.3,-0.5 -0.5,-0.5c-0.3,0 -0.5,0.2 -0.5,0.5l-0.3,6l-2.2,-2.2c-0.2,-0.2 -0.6,-0.2 -0.8,0c-0.2,0.2 -0.2,0.6 0,0.8l2.9,2.9l-0.3,5.4c-3.7,-0.6 -6.4,-3.8 -6.4,-7.5c0,-3.2 0.9,-7.4 2.3,-10.7c1.6,-3.6 3.5,-5.7 5.3,-5.7c1.8,0 3.7,2.1 5.3,5.7c1.4,3.3 2.3,7.5 2.3,10.7c0,1.8 -0.7,3.7 -2,5.1Z" style="fill:#a1a1a1;fill-rule:nonzero;"/><path d="M161,154.1c0,2.2 0.8,4.2 2.3,5.8c1.4,1.5 3.2,2.5 5.1,2.8l-0.4,6.6l-0.6,0c-0.3,0 -0.5,0.2 -0.5,0.5c0,0.3 0.2,0.5 0.5,0.5l4.7,0c0.3,0 0.5,-0.2 0.5,-0.5c0,-0.3 -0.2,-0.5 -0.5,-0.5l-0.6,0l-0.4,-6.6c4.2,-0.6 7.4,-4.3 7.4,-8.6c0,-3.4 -0.9,-7.7 -2.4,-11.1c-1.8,-4.1 -4,-6.3 -6.3,-6.3c-2.3,0 -4.5,2.2 -6.3,6.3c-1.6,3.5 -2.5,7.7 -2.5,11.1Zm8.1,15.2l0.6,-10.6l0.6,10.6l-1.2,0Zm-7,-15.2c0,-3.2 0.9,-7.4 2.3,-10.7c1.6,-3.6 3.5,-5.7 5.3,-5.7c1.8,0 3.7,2.1 5.3,5.7c1.4,3.3 2.3,7.5 2.3,10.7c0,3.7 -2.7,6.9 -6.4,7.5l-0.3,-5.4l2.9,-2.9c0.2,-0.2 0.2,-0.6 0,-0.8c-0.2,-0.2 -0.6,-0.2 -0.8,0l-2.2,2.2l-0.3,-6c0,-0.3 -0.3,-0.5 -0.5,-0.5c-0.3,0 -0.5,0.2 -0.5,0.5l-0.2,3.8l-0.6,-0.6c-0.2,-0.2 -0.6,-0.2 -0.8,0c-0.2,0.2 -0.2,0.6 0,0.8l1.3,1.3l-0.1,2.4l-2.1,-2.1c-0.2,-0.2 -0.6,-0.2 -0.8,0c-0.2,0.2 -0.2,0.6 0,0.8l2.8,2.8l-0.2,3.7c-1.7,-0.3 -3.2,-1.1 -4.4,-2.4c-1.3,-1.3 -2,-3.2 -2,-5.1Z" style="fill:#a1a1a1;fill-rule:nonzero;"/><path d="M135.7,143c-1.8,-4.1 -4,-6.3 -6.3,-6.3c-2.3,0 -4.5,2.2 -6.3,6.3c-1.5,3.5 -2.4,7.7 -2.4,11.1c0,4.3 3.2,8 7.4,8.6l-0.4,6.6l-0.6,0c-0.3,0 -0.5,0.2 -0.5,0.5c0,0.3 0.2,0.5 0.5,0.5l4.7,0c0.3,0 0.5,-0.2 0.5,-0.5c0,-0.3 -0.2,-0.5 -0.5,-0.5l-0.6,0l-0.4,-6.6c2,-0.3 3.8,-1.3 5.1,-2.8c1.5,-1.6 2.3,-3.7 2.3,-5.8c0,-3.4 -1,-7.6 -2.5,-11.1Zm-6.8,26.3l0.6,-10.6l0.6,10.6l-1.2,0Zm6.2,-10c-1.2,1.3 -2.7,2.1 -4.4,2.4l-0.2,-3.7l2.8,-2.8c0.2,-0.2 0.2,-0.6 0,-0.8c-0.2,-0.2 -0.6,-0.2 -0.8,0l-2.1,2.1l-0.1,-2.4l1.3,-1.3c0.2,-0.2 0.2,-0.6 0,-0.8c-0.2,-0.2 -0.6,-0.2 -0.8,0l-0.6,0.6l-0.2,-3.8c0,-0.3 -0.3,-0.5 -0.5,-0.5c-0.3,0 -0.5,0.2 -0.5,0.5l-0.3,6l-2.2,-2.2c-0.2,-0.2 -0.6,-0.2 -0.8,0c-0.2,0.2 -0.2,0.6 0,0.8l2.9,2.9l-0.3,5.4c-3.7,-0.6 -6.4,-3.8 -6.4,-7.5c0,-3.2 0.9,-7.4 2.3,-10.7c1.6,-3.6 3.5,-5.7 5.3,-5.7c1.8,0 3.7,2.1 5.3,5.7c1.4,3.3 2.3,7.5 2.3,10.7c0,1.8 -0.7,3.7 -2,5.1Z" style="fill:#a1a1a1;fill-rule:nonzero;"/><path d="M80.5,154.1c0,2.2 0.8,4.2 2.3,5.8c1.4,1.5 3.2,2.5 5.1,2.8l-0.4,6.6l-0.6,0c-0.3,0 -0.5,0.2 -0.5,0.5c0,0.3 0.2,0.5 0.5,0.5l4.7,0c0.3,0 0.5,-0.2 0.5,-0.5c0,-0.3 -0.2,-0.5 -0.5,-0.5l-0.6,0l-0.4,-6.6c4.2,-0.6 7.4,-4.3 7.4,-8.6c0,-3.4 -0.9,-7.7 -2.4,-11.1c-1.8,-4.1 -4,-6.3 -6.3,-6.3c-2.3,0 -4.5,2.2 -6.3,6.3c-1.6,3.5 -2.5,7.7 -2.5,11.1Zm8.1,15.2l0.6,-10.6l0.6,10.6l-1.2,0Zm-7,-15.2c0,-3.2 0.9,-7.4 2.3,-10.7c1.6,-3.6 3.5,-5.7 5.3,-5.7c1.8,0 3.7,2.1 5.3,5.7c1.4,3.3 2.3,7.5 2.3,10.7c0,3.7 -2.7,6.9 -6.4,7.5l-0.3,-5.4l2.9,-2.9c0.2,-0.2 0.2,-0.6 0,-0.8c-0.2,-0.2 -0.6,-0.2 -0.8,0l-2.2,2.2l-0.3,-6c0,-0.3 -0.3,-0.5 -0.5,-0.5c-0.3,0 -0.5,0.2 -0.5,0.5l-0.2,3.8l-0.6,-0.6c-0.2,-0.2 -0.6,-0.2 -0.8,0c-0.2,0.2 -0.2,0.6 0,0.8l1.3,1.3l-0.1,2.4l-2.1,-2.1c-0.2,-0.2 -0.6,-0.2 -0.8,0c-0.2,0.2 -0.2,0.6 0,0.8l2.8,2.8l-0.2,3.7c-1.7,-0.3 -3.2,-1.1 -4.4,-2.4c-1.3,-1.3 -2,-3.2 -2,-5.1Z" style="fill:#a1a1a1;fill-rule:nonzero;"/><path d="M216.2,143c-1.8,-4.1 -4,-6.3 -6.3,-6.3c-2.3,0 -4.5,2.2 -6.3,6.3c-1.5,3.5 -2.4,7.7 -2.4,11.1c0,4.3 3.2,8 7.4,8.6l-0.4,6.6l-0.6,0c-0.3,0 -0.5,0.2 -0.5,0.5c0,0.3 0.2,0.5 0.5,0.5l4.7,0c0.3,0 0.5,-0.2 0.5,-0.5c0,-0.3 -0.2,-0.5 -0.5,-0.5l-0.6,0l-0.4,-6.6c2,-0.3 3.8,-1.3 5.1,-2.8c1.5,-1.6 2.3,-3.7 2.3,-5.8c0,-3.4 -1,-7.6 -2.5,-11.1Zm-6.8,26.3l0.6,-10.6l0.6,10.6l-1.2,0Zm6.2,-10c-1.2,1.3 -2.7,2.1 -4.4,2.4l-0.2,-3.7l2.8,-2.8c0.2,-0.2 0.2,-0.6 0,-0.8c-0.2,-0.2 -0.6,-0.2 -0.8,0l-2.1,2.1l-0.1,-2.4l1.3,-1.3c0.2,-0.2 0.2,-0.6 0,-0.8c-0.2,-0.2 -0.6,-0.2 -0.8,0l-0.6,0.6l-0.2,-3.8c0,-0.3 -0.3,-0.5 -0.5,-0.5c-0.2,0 -0.5,0.2 -0.5,0.5l-0.3,6l-2.2,-2.2c-0.2,-0.2 -0.6,-0.2 -0.8,0c-0.2,0.2 -0.2,0.6 0,0.8l2.9,2.9l-0.3,5.4c-3.7,-0.6 -6.4,-3.8 -6.4,-7.5c0,-3.2 0.9,-7.4 2.3,-10.7c1.6,-3.6 3.5,-5.7 5.3,-5.7c1.8,0 3.7,2.1 5.3,5.7c1.4,3.3 2.3,7.5 2.3,10.7c0,1.8 -0.7,3.7 -2,5.1Z" style="fill:#a1a1a1;fill-rule:nonzero;"/><path d="M0,154.1c0,2.2 0.8,4.2 2.3,5.8c1.4,1.5 3.2,2.5 5.1,2.8l-0.4,6.6l-0.6,0c-0.3,0 -0.5,0.2 -0.5,0.5c0,0.3 0.2,0.5 0.5,0.5l4.6,0c0.3,0 0.5,-0.2 0.5,-0.5c0,-0.3 -0.2,-0.5 -0.5,-0.5l-0.6,0l-0.4,-6.6c4.2,-0.6 7.4,-4.3 7.4,-8.6c0,-3.4 -0.9,-7.7 -2.4,-11.1c-1.8,-4.1 -4,-6.3 -6.3,-6.3c-2.3,0 -4.5,2.2 -6.3,6.3c-1.5,3.5 -2.4,7.7 -2.4,11.1Zm8.1,15.2l0.6,-10.6l0.6,10.6l-1.2,0Zm-7,-15.2c0,-3.2 0.9,-7.4 2.3,-10.7c1.6,-3.6 3.5,-5.7 5.3,-5.7c1.8,0 3.7,2.1 5.3,5.7c1.4,3.3 2.3,7.5 2.3,10.7c0,3.7 -2.7,6.9 -6.4,7.5l-0.3,-5.4l2.9,-2.9c0.2,-0.2 0.2,-0.6 0,-0.8c-0.2,-0.2 -0.6,-0.2 -0.8,0l-2.2,2.2l-0.3,-6c0,-0.3 -0.3,-0.5 -0.5,-0.5c-0.3,0 -0.5,0.2 -0.5,0.5l-0.2,3.9l-0.6,-0.6c-0.2,-0.2 -0.6,-0.2 -0.8,0c-0.2,0.2 -0.2,0.6 0,0.8l1.3,1.3l-0.1,2.4l-2.1,-2.1c-0.2,-0.2 -0.6,-0.2 -0.8,0c-0.2,0.2 -0.2,0.6 0,0.8l2.8,2.8l-0.2,3.7c-1.7,-0.3 -3.2,-1.1 -4.4,-2.4c-1.3,-1.4 -2,-3.3 -2,-5.2Z" style="fill:#a1a1a1;fill-rule:nonzero;"/><path d="M36,165.8c-1.8,-4.1 -4,-6.3 -6.3,-6.3c-2.3,0 -4.5,2.2 -6.3,6.3c-1.5,3.5 -2.4,7.7 -2.4,11.1c0,4.3 3.2,8 7.4,8.6l-0.4,6.6l-0.6,0c-0.3,0 -0.5,0.2 -0.5,0.5c0,0.3 0.2,0.5 0.5,0.5l4.6,0c0.3,0 0.5,-0.2 0.5,-0.5c0,-0.3 -0.2,-0.5 -0.5,-0.5l-0.6,0l-0.4,-6.6c2,-0.3 3.8,-1.3 5.1,-2.8c1.5,-1.6 2.3,-3.7 2.3,-5.8c0,-3.4 -0.9,-7.6 -2.4,-11.1Zm-6.9,26.3l0.6,-10.6l0.6,10.6l-1.2,0Zm6.3,-10.1c-1.2,1.3 -2.7,2.1 -4.4,2.4l-0.2,-3.7l2.8,-2.8c0.2,-0.2 0.2,-0.6 0,-0.8c-0.2,-0.2 -0.6,-0.2 -0.8,0l-2.1,2.1l-0.1,-2.4l1.3,-1.3c0.2,-0.2 0.2,-0.6 0,-0.8c-0.2,-0.2 -0.6,-0.2 -0.8,0l-0.6,0.6l-0.2,-3.8c0,-0.3 -0.3,-0.5 -0.5,-0.5c-0.2,0 -0.5,0.2 -0.5,0.5l-0.3,6l-2.2,-2.2c-0.2,-0.2 -0.6,-0.2 -0.8,0c-0.2,0.2 -0.2,0.6 0,0.8l2.9,2.9l-0.3,5.4c-3.7,-0.6 -6.4,-3.8 -6.4,-7.5c0,-3.2 0.9,-7.4 2.3,-10.7c1.6,-3.6 3.5,-5.7 5.3,-5.7c1.8,0 3.7,2.1 5.3,5.7c1.4,3.3 2.3,7.5 2.3,10.7c-0.1,1.9 -0.8,3.7 -2,5.1Z" style="fill:#a1a1a1;fill-rule:nonzero;"/><path d="M222.2,176.9c0,2.2 0.8,4.2 2.3,5.8c1.4,1.5 3.2,2.5 5.1,2.8l-0.4,6.6l-0.6,0c-0.3,0 -0.5,0.2 -0.5,0.5c0,0.3 0.2,0.5 0.5,0.5l4.7,0c0.3,0 0.5,-0.2 0.5,-0.5c0,-0.3 -0.2,-0.5 -0.5,-0.5l-0.6,0l-0.4,-6.6c4.2,-0.6 7.4,-4.3 7.4,-8.6c0,-3.4 -0.9,-7.7 -2.4,-11.1c-1.8,-4.1 -4,-6.3 -6.3,-6.3c-2.3,0 -4.5,2.2 -6.3,6.3c-1.5,3.5 -2.5,7.7 -2.5,11.1Zm8.2,15.2l0.6,-10.6l0.6,10.6l-1.2,0Zm-7.1,-15.2c0,-3.2 0.9,-7.4 2.3,-10.7c1.6,-3.6 3.5,-5.7 5.3,-5.7c1.8,0 3.7,2.1 5.3,5.7c1.4,3.3 2.3,7.5 2.3,10.7c0,3.7 -2.7,6.9 -6.4,7.5l-0.3,-5.4l2.9,-2.9c0.2,-0.2 0.2,-0.6 0,-0.8c-0.2,-0.2 -0.6,-0.2 -0.8,0l-2.2,2.2l-0.3,-6c0,-0.3 -0.3,-0.5 -0.5,-0.5c-0.3,0 -0.5,0.2 -0.5,0.5l-0.2,3.8l-0.6,-0.6c-0.2,-0.2 -0.6,-0.2 -0.8,0c-0.2,0.2 -0.2,0.6 0,0.8l1.3,1.3l-0.1,2.4l-2.1,-2.1c-0.2,-0.2 -0.6,-0.2 -0.8,0c-0.2,0.2 -0.2,0.6 0,0.8l2.8,2.8l-0.2,3.7c-1.7,-0.3 -3.2,-1.1 -4.4,-2.4c-1.3,-1.4 -2,-3.2 -2,-5.1Z" style="fill:#a1a1a1;fill-rule:nonzero;"/><path d="M116.5,165.8c-1.8,-4.1 -4,-6.3 -6.3,-6.3c-2.3,0 -4.5,2.2 -6.3,6.3c-1.5,3.5 -2.4,7.7 -2.4,11.1c0,4.3 3.2,8 7.4,8.6l-0.4,6.6l-0.6,0c-0.3,0 -0.5,0.2 -0.5,0.5c0,0.3 0.2,0.5 0.5,0.5l4.7,0c0.3,0 0.5,-0.2 0.5,-0.5c0,-0.3 -0.2,-0.5 -0.5,-0.5l-0.6,0l-0.4,-6.6c2,-0.3 3.8,-1.3 5.1,-2.8c1.5,-1.6 2.3,-3.7 2.3,-5.8c-0.1,-3.4 -1,-7.6 -2.5,-11.1Zm-6.9,26.3l0.6,-10.6l0.6,10.6l-1.2,0Zm6.3,-10.1c-1.2,1.3 -2.7,2.1 -4.4,2.4l-0.2,-3.7l2.8,-2.8c0.2,-0.2 0.2,-0.6 0,-0.8c-0.2,-0.2 -0.6,-0.2 -0.8,0l-2.1,2.1l-0.1,-2.4l1.3,-1.3c0.2,-0.2 0.2,-0.6 0,-0.8c-0.2,-0.2 -0.6,-0.2 -0.8,0l-0.6,0.6l-0.2,-3.8c0,-0.3 -0.3,-0.5 -0.5,-0.5c-0.3,0 -0.5,0.2 -0.5,0.5l-0.3,6l-2.2,-2.2c-0.2,-0.2 -0.6,-0.2 -0.8,0c-0.2,0.2 -0.2,0.6 0,0.8l2.9,2.9l-0.3,5.4c-3.7,-0.6 -6.4,-3.8 -6.4,-7.5c0,-3.2 0.9,-7.4 2.3,-10.7c1.6,-3.6 3.5,-5.7 5.3,-5.7c1.8,0 3.7,2.1 5.3,5.7c1.4,3.3 2.3,7.5 2.3,10.7c-0.1,1.9 -0.8,3.7 -2,5.1Z" style="fill:#a1a1a1;fill-rule:nonzero;"/><path d="M141.7,176.9c0,2.2 0.8,4.2 2.3,5.8c1.4,1.5 3.2,2.5 5.1,2.8l-0.4,6.6l-0.6,0c-0.3,0 -0.5,0.2 -0.5,0.5c0,0.3 0.2,0.5 0.5,0.5l4.7,0c0.3,0 0.5,-0.2 0.5,-0.5c0,-0.3 -0.2,-0.5 -0.5,-0.5l-0.6,0l-0.4,-6.6c4.2,-0.6 7.4,-4.3 7.4,-8.6c0,-3.4 -0.9,-7.7 -2.4,-11.1c-1.8,-4.1 -4,-6.3 -6.3,-6.3c-2.3,0 -4.5,2.2 -6.3,6.3c-1.5,3.5 -2.5,7.7 -2.5,11.1Zm8.2,15.2l0.6,-10.6l0.6,10.6l-1.2,0Zm-7.1,-15.2c0,-3.2 0.9,-7.4 2.3,-10.7c1.6,-3.6 3.5,-5.7 5.3,-5.7c1.8,0 3.7,2.1 5.3,5.7c1.4,3.3 2.3,7.5 2.3,10.7c0,3.7 -2.7,6.9 -6.4,7.5l-0.3,-5.4l2.9,-2.9c0.2,-0.2 0.2,-0.6 0,-0.8c-0.2,-0.2 -0.6,-0.2 -0.8,0l-2.2,2.2l-0.3,-6c0,-0.3 -0.3,-0.5 -0.5,-0.5c-0.3,0 -0.5,0.2 -0.5,0.5l-0.2,3.8l-0.6,-0.6c-0.2,-0.2 -0.6,-0.2 -0.8,0c-0.2,0.2 -0.2,0.6 0,0.8l1.3,1.3l-0.1,2.4l-2.1,-2.1c-0.2,-0.2 -0.6,-0.2 -0.8,0c-0.2,0.2 -0.2,0.6 0,0.8l2.8,2.8l-0.2,3.7c-1.7,-0.3 -3.2,-1.1 -4.4,-2.4c-1.3,-1.4 -2,-3.2 -2,-5.1Z" style="fill:#a1a1a1;fill-rule:nonzero;"/><path d="M197,165.8c-1.8,-4.1 -4,-6.3 -6.3,-6.3c-2.3,0 -4.5,2.2 -6.3,6.3c-1.5,3.5 -2.4,7.7 -2.4,11.1c0,4.3 3.2,8 7.4,8.6l-0.4,6.6l-0.6,0c-0.3,0 -0.5,0.2 -0.5,0.5c0,0.3 0.2,0.5 0.5,0.5l4.7,0c0.3,0 0.5,-0.2 0.5,-0.5c0,-0.3 -0.2,-0.5 -0.5,-0.5l-0.6,0l-0.4,-6.6c2,-0.3 3.8,-1.3 5.1,-2.8c1.5,-1.6 2.3,-3.7 2.3,-5.8c-0.1,-3.4 -1,-7.6 -2.5,-11.1Zm-6.9,26.3l0.6,-10.6l0.6,10.6l-1.2,0Zm6.3,-10.1c-1.2,1.3 -2.7,2.1 -4.4,2.4l-0.2,-3.7l2.8,-2.8c0.2,-0.2 0.2,-0.6 0,-0.8c-0.2,-0.2 -0.6,-0.2 -0.8,0l-2.1,2.1l-0.1,-2.4l1.3,-1.3c0.2,-0.2 0.2,-0.6 0,-0.8c-0.2,-0.2 -0.6,-0.2 -0.8,0l-0.6,0.6l-0.2,-3.8c0,-0.3 -0.3,-0.5 -0.5,-0.5c-0.2,0 -0.5,0.2 -0.5,0.5l-0.3,6l-2.2,-2.2c-0.2,-0.2 -0.6,-0.2 -0.8,0c-0.2,0.2 -0.2,0.6 0,0.8l2.9,2.9l-0.3,5.4c-3.7,-0.6 -6.4,-3.8 -6.4,-7.5c0,-3.2 0.9,-7.4 2.3,-10.7c1.6,-3.6 3.5,-5.7 5.3,-5.7c1.8,0 3.7,2.1 5.3,5.7c1.4,3.3 2.3,7.5 2.3,10.7c-0.1,1.9 -0.8,3.7 -2,5.1Z" style="fill:#a1a1a1;fill-rule:nonzero;"/><path d="M61.2,176.9c0,2.2 0.8,4.2 2.3,5.8c1.4,1.5 3.2,2.5 5.1,2.8l-0.4,6.6l-0.6,0c-0.3,0 -0.5,0.2 -0.5,0.5c0,0.3 0.2,0.5 0.5,0.5l4.7,0c0.3,0 0.5,-0.2 0.5,-0.5c0,-0.3 -0.2,-0.5 -0.5,-0.5l-0.6,0l-0.4,-6.6c4.2,-0.6 7.4,-4.3 7.4,-8.6c0,-3.4 -0.9,-7.7 -2.4,-11.1c-1.8,-4.1 -4,-6.3 -6.3,-6.3c-2.3,0 -4.5,2.2 -6.3,6.3c-1.5,3.5 -2.5,7.7 -2.5,11.1Zm8.2,15.2l0.6,-10.6l0.6,10.6l-1.2,0Zm-7.1,-15.2c0,-3.2 0.9,-7.4 2.3,-10.7c1.6,-3.6 3.5,-5.7 5.3,-5.7c1.8,0 3.7,2.1 5.3,5.7c1.4,3.3 2.3,7.5 2.3,10.7c0,3.7 -2.7,6.9 -6.4,7.5l-0.3,-5.4l2.9,-2.9c0.2,-0.2 0.2,-0.6 0,-0.8c-0.2,-0.2 -0.6,-0.2 -0.8,0l-2.2,2.2l-0.3,-6c0,-0.3 -0.3,-0.5 -0.5,-0.5c-0.3,0 -0.5,0.2 -0.5,0.5l-0.2,3.8l-0.6,-0.6c-0.2,-0.2 -0.6,-0.2 -0.8,0c-0.2,0.2 -0.2,0.6 0,0.8l1.3,1.3l-0.1,2.4l-2.1,-2.1c-0.2,-0.2 -0.6,-0.2 -0.8,0c-0.2,0.2 -0.2,0.6 0,0.8l2.8,2.8l-0.2,3.7c-1.7,-0.3 -3.2,-1.1 -4.4,-2.4c-1.3,-1.4 -2,-3.2 -2,-5.1Z" style="fill:#a1a1a1;fill-rule:nonzero;"/></svg>