<?xml version="1.0" encoding="UTF-8"?>
<svg width="50px" height="50px" viewBox="0 0 50 50" version="1.1" xmlns="http://www.w3.org/2000/svg" xmlns:xlink="http://www.w3.org/1999/xlink">
    <!-- Generator: Sketch 42 (36781) - http://www.bohemiancoding.com/sketch -->
    <title>Fresh_Water_icon</title>
    <desc>Created with Sketch.</desc>
    <defs></defs>
    <g id="🖥-Desktop" stroke="none" stroke-width="1" fill="none" fill-rule="evenodd">
        <g id="2_1_1_D_WWF_Country_BiH-Copy" transform="translate(-25.000000, -671.000000)" fill-rule="nonzero" fill="#03769D">
            <g id="Sidebar_navigation" transform="translate(0.000000, 550.000000)">
                <g id="Fresh-Water" transform="translate(0.000000, 106.000000)">
                    <g id="Fresh_Water_icon" transform="translate(25.000000, 15.000000)">
                        <g id="Fresh-Water" transform="translate(0.000000, 7.500000)">
                            <path d="M15.1058468,0.0039798433 C15.4765386,0.0305548429 15.8229021,0.197999848 16.0735887,0.471822339 C23.1948097,8.21860448 30,17.4158046 30,26.3225396 C30,35.1769707 23.3327177,42.5 15,42.5 C6.66723871,42.5 0,35.1769707 0,26.3225396 C0,17.4158046 6.80522903,8.21860448 13.9264113,0.471822339 C14.226814,0.143541303 14.6616026,-0.0289247285 15.1058468,0.0039798433 L15.1058468,0.0039798433 Z M15,3.68616299 C8.51242742,10.9762578 2.90322581,19.3547819 2.90322581,26.3225396 C2.90322581,33.7385289 8.37618387,39.6025444 15,39.6025444 C21.6237629,39.6025444 27.0967742,33.7385289 27.0967742,26.3225396 C27.0967742,19.3547819 21.4875968,10.9762578 15,3.68616299 L15,3.68616299 Z M24.1935484,23.6363568 C24.9327968,23.656944 25.5383903,24.2288398 25.5997984,24.9643573 C25.9950774,29.1264557 23.9343677,33.6843465 20.6703629,35.9354763 C20.2439873,36.2461558 19.6822299,36.3013489 19.2033354,36.079613 C18.7244409,35.8578771 18.4039023,35.3941666 18.3662498,34.8686345 C18.3285973,34.3431025 18.5797666,33.8385938 19.0221774,33.5511118 C21.1121952,32.109676 22.9849984,28.1137467 22.7116935,25.2359938 C22.6680506,24.8210663 22.8057456,24.4075011 23.089533,24.1011574 C23.3733204,23.7948137 23.7756537,23.6254277 24.1935484,23.6363568 L24.1935484,23.6363568 Z" id="Shape"></path>
                        </g>
                        <g id="Fresh-Water-Copy" transform="translate(25.000000, 0.000000)">
                            <path d="M12.5882056,0.00335555415 C12.8971155,0.0257619263 13.1857517,0.166941048 13.3946573,0.397810992 C19.3290081,6.92941162 25,14.6839137 25,22.1935138 C25,29.6590145 19.4439315,35.8333333 12.5,35.8333333 C5.55603226,35.8333333 0,29.6590145 0,22.1935138 C0,14.6839137 5.67102419,6.92941162 11.6053427,0.397810992 C11.8556784,0.121025021 12.2180022,-0.0243875162 12.5882056,0.00335555415 L12.5882056,0.00335555415 Z M12.5,3.10794134 C7.09368952,9.2544919 2.41935484,16.3187377 2.41935484,22.1935138 C2.41935484,28.4462107 6.98015323,33.3903806 12.5,33.3903806 C18.0198024,33.3903806 22.5806452,28.4462107 22.5806452,22.1935138 C22.5806452,16.3187377 17.9063306,9.2544919 12.5,3.10794134 L12.5,3.10794134 Z M20.1612903,19.928693 C20.7773307,19.9460508 21.2819919,20.4282375 21.3331653,21.0483797 C21.6625645,24.5575999 19.9453065,28.4005274 17.2253024,30.2985389 C16.8699894,30.5604843 16.4018582,30.6070197 16.0027795,30.4200659 C15.6037008,30.2331121 15.3365852,29.8421405 15.3052082,29.3990448 C15.2738311,28.9559492 15.4831388,28.5305791 15.8518145,28.2881923 C17.593496,27.072864 19.1541653,23.7037472 18.9264113,21.2774065 C18.8900422,20.9275657 19.004788,20.5788735 19.2412775,20.3205837 C19.477767,20.0622939 19.8130447,19.9194783 20.1612903,19.928693 L20.1612903,19.928693 Z" id="Shape"></path>
                        </g>
                    </g>
                </g>
            </g>
        </g>
    </g>
</svg>