<?xml version="1.0" encoding="utf-8"?>
<!-- Generator: Adobe Illustrator 21.0.0, SVG Export Plug-In . SVG Version: 6.00 Build 0)  -->
<svg version="1.1" xmlns="http://www.w3.org/2000/svg" xmlns:xlink="http://www.w3.org/1999/xlink" x="0px" y="0px"
	 viewBox="0 0 199 216" style="enable-background:new 0 0 199 216;" xml:space="preserve">
<style type="text/css">
	.st0{display:none;stroke:#ccc;}
	.st1{display:inline;stroke:#ccc;}
	.st2{fill:none;stroke-miterlimit:10;stroke:#ccc;}
	path{stroke:#DCDCDC;}
</style>
<g id="Layer_1" class="st0">
	<title>Number_of_visitors_icon</title>
	<desc>Created with Sketch.</desc>
	<g id="_xD83D__xDDA5_-Desktop" class="st1">
		<g id="_x32__x5F_6_x5F_1_x5F_D_x5F_WWF_x5F_Country_x5F_Kosovo" transform="translate(-903.000000, -684.000000)">
			<g id="Tourism" transform="translate(150.000000, 620.000000)">
				<g id="Tourism-Numbers" transform="translate(617.000000, 2.000000)">
					<g id="Number_of_visitors_icon" transform="translate(137.000000, 63.000000)">
						<path id="Combined-Shape" class="st2" d="M10.7,12.1c-3.4,0-6.1-2.7-6.1-6.1s2.7-6,6.1-6s6.1,2.7,6.1,6.1S14,12.1,10.7,12.1z
							 M15.1,14L15.1,14c3.4,0,6.2,2.8,6.2,6.2v12.7c0,3-2.1,5.5-5,6.1v13.8c0,2.5-2.1,4.6-4.6,4.6h-2c-2.5,0-4.6-2.1-4.6-4.6V39.1
							c-2.9-0.6-5-3.1-5-6.1V20.3C0,16.8,2.8,14,6.2,14H15.1z M10.7,75.1c-3.4,0-6.1-2.7-6.1-6.1s2.7-6.1,6.1-6.1s6.1,2.7,6.1,6.1
							S14,75.1,10.7,75.1z M15.1,77L15.1,77c1.7,0,3.2,0.7,4.4,1.8c1.2,1.2,1.8,2.8,1.8,4.4v12.7c0,3-2.1,5.5-5,6.1v13.9
							c0,1.2-0.5,2.4-1.3,3.3c-0.9,0.9-2,1.3-3.3,1.3h-2c-2.5,0-4.6-2.1-4.6-4.6v-13.8c-3-0.6-5.1-3.2-5-6.2V83.2
							C0,79.7,2.8,77,6.2,77H15.1z M10.7,138c-3.4,0-6.1-2.7-6.1-6.1c0-3.4,2.7-6.1,6.1-6.1s6.1,2.7,6.1,6.1
							C16.7,135.3,14,138,10.7,138z M15.1,139.9L15.1,139.9c3.5,0,6.2,2.8,6.2,6.2v12.7c0,3-2.1,5.5-5,6.1v13.8
							c0,2.5-2.1,4.6-4.6,4.6h-2c-2.5,0-4.6-2.1-4.6-4.6v-13.8c-2.9-0.6-5-3.1-5-6.1v-12.7c0-3.4,2.8-6.2,6.2-6.2H15.1z M35.8,42.8
							c-3.4,0-6.1-2.7-6.1-6.1c0-3.4,2.7-6.1,6.1-6.1s6.1,2.7,6.1,6.1C41.8,40.1,39.1,42.8,35.8,42.8z M40.2,44.7
							c1.7,0,3.3,0.6,4.5,1.8s1.9,2.8,1.9,4.4v12.7c0,3-2.1,5.5-5,6.1v13.8c0,2.5-2.1,4.6-4.6,4.6h-2c-1.3,0-2.5-0.4-3.4-1.3
							s-1.4-2.1-1.4-3.3V69.7c-2.9-0.6-5-3.1-5-6.1V50.9c0-1.7,0.7-3.3,1.9-4.4c1.2-1.2,2.8-1.8,4.5-1.8H40.2z M35.8,105.7
							c-3.4,0-6.1-2.7-6.1-6.1s2.7-6.1,6.1-6.1s6.1,2.7,6.1,6.1S39.1,105.7,35.8,105.7z M40.2,107.6L40.2,107.6
							c3.4,0,6.2,2.8,6.2,6.2v12.7c0,2.9-2.1,5.5-4.9,6.1v13.8c0,2.5-2.1,4.6-4.6,4.6h-2c-1.2,0-2.4-0.4-3.3-1.3
							c-0.9-0.9-1.4-2-1.4-3.3v-13.8c-2.9-0.6-5-3.1-5-6.1v-12.7c0-1.7,0.7-3.3,1.9-4.4c1.2-1.2,2.8-1.8,4.5-1.8
							C31.6,107.6,40.2,107.6,40.2,107.6z M35.8,168.7c-3.4,0-6.1-2.7-6.1-6.1c0-3.4,2.7-6.1,6.1-6.1s6.1,2.7,6.1,6.1
							C41.8,165.9,39.1,168.7,35.8,168.7z M40.2,170.6c1.7,0,3.3,0.6,4.4,1.8c1.2,1.2,1.9,2.7,1.9,4.4v12.7c0,3-2.1,5.5-5,6.1v13.8
							c0,2.5-2.1,4.6-4.6,4.6h-2c-1.2,0-2.5-0.4-3.4-1.3c-0.9-0.9-1.4-2.1-1.4-3.3v-13.8c-2.9-0.6-5-3.1-5-6.1v-12.7
							c0-1.7,0.7-3.2,1.9-4.4c1.2-1.2,2.8-1.8,4.4-1.8H40.2z M60.9,12.1c-3.4,0-6.1-2.7-6.1-6.1s2.7-6,6.1-6C64.2,0,67,2.7,67,6.1
							S64.2,12.1,60.9,12.1z M65.3,14L65.3,14c1.7,0,3.3,0.6,4.4,1.8s1.8,2.8,1.9,4.4v12.7c0,3-2.2,5.6-5.2,6.1v13.8
							c0,2.5-2.1,4.6-4.6,4.6h-1.9c-1.2,0-2.4-0.5-3.3-1.3s-1.3-2-1.3-3.3V39.1c-2.9-0.6-5-3.1-5-6.1V20.3c0-3.4,2.8-6.2,6.2-6.2
							L65.3,14L65.3,14z M60.9,75.1c-3.4,0-6.1-2.7-6.1-6.1s2.7-6.1,6.1-6.1c3.4,0,6.1,2.7,6.1,6.1S64.2,75.1,60.9,75.1z M65.3,77
							L65.3,77c1.7,0,3.3,0.6,4.4,1.8c1.2,1.2,1.8,2.8,1.8,4.4v12.7c0,3-2.2,5.6-5.2,6.1v13.9c0,1.2-0.5,2.4-1.3,3.3
							c-0.9,0.9-2,1.3-3.3,1.3h-1.9c-2.5,0-4.6-2.1-4.6-4.6v-13.8c-3-0.6-5.1-3.2-5-6.2V83.2c0-3.4,2.8-6.2,6.2-6.2H65.3z M60.9,138
							c-3.4,0-6.1-2.7-6.1-6.1c0-3.4,2.7-6.1,6.1-6.1c3.4,0,6.1,2.7,6.1,6.1C67,135.3,64.2,138,60.9,138z M65.3,139.9L65.3,139.9
							c1.7,0,3.3,0.6,4.4,1.8c1.2,1.2,1.8,2.8,1.8,4.4v12.7c0,3-2.2,5.6-5.2,6.1v13.8c0,2.5-2.1,4.6-4.6,4.6h-1.9
							c-1.2,0-2.4-0.5-3.3-1.3s-1.3-2-1.3-3.3v-13.8c-2.9-0.6-5-3.1-5-6.1v-12.7c0-3.4,2.8-6.2,6.2-6.2H65.3z M86,42.8
							c-3.4,0-6.1-2.7-6.1-6.1c0-3.4,2.7-6.1,6.1-6.1s6.1,2.7,6.1,6.1C92.1,40.1,89.4,42.8,86,42.8z M90.4,44.7
							c3.4,0,6.2,2.8,6.2,6.2v12.7c0,3-2.1,5.5-5,6.1v13.8c0,2.5-2.1,4.6-4.6,4.6h-2c-2.5,0-4.6-2.1-4.6-4.6V69.7
							c-2.9-0.6-5-3.1-5-6.1V50.9c0-3.4,2.8-6.2,6.2-6.2H90.4z M86,105.7c-3.4,0-6.1-2.7-6.1-6.1s2.7-6.1,6.1-6.1s6.1,2.7,6.1,6.1
							S89.4,105.7,86,105.7z M90.4,107.6L90.4,107.6c3.4,0,6.2,2.8,6.2,6.2v12.7c0,3-2.1,5.5-5,6.1v13.8c0,2.5-2.1,4.6-4.6,4.6h-2
							c-2.5,0-4.6-2-4.6-4.5v-13.8c-2.9-0.6-5-3.1-5-6.1v-12.7c0-3.4,2.8-6.2,6.2-6.2h8.8V107.6z M86,168.7c-3.4,0-6.1-2.7-6.1-6.1
							c0-3.4,2.7-6.1,6.1-6.1s6.1,2.7,6.1,6.1C92.1,165.9,89.4,168.7,86,168.7z M90.4,170.6c3.4,0,6.2,2.8,6.2,6.2v12.7
							c0,3-2.1,5.5-5,6.1v13.8c0,2.5-2.1,4.6-4.6,4.6h-2c-2.5,0-4.6-2.1-4.6-4.6v-13.8c-2.9-0.6-5-3.1-5-6.1v-12.7
							c0-3.4,2.8-6.2,6.2-6.2H90.4z M111.1,12.1c-3.4,0-6.1-2.7-6.1-6.1s2.7-6.1,6.1-6.1s6.1,2.7,6.1,6.1S114.5,12.1,111.1,12.1z
							 M115.5,14L115.5,14c3.4,0,6.2,2.8,6.2,6.2v12.7c0,3-2.1,5.5-5,6.1v13.8c0,2.5-2.1,4.6-4.6,4.6h-2c-2.5,0-4.6-2.1-4.6-4.6
							V39.1c-2.9-0.6-5-3.1-5-6.1V20.3c0-3.4,2.8-6.2,6.2-6.2L115.5,14L115.5,14z M111.1,75.1c-3.4,0-6.1-2.7-6.1-6.1
							s2.7-6.1,6.1-6.1s6.1,2.7,6.1,6.1S114.5,75.1,111.1,75.1z M115.5,77c1.7,0,3.2,0.7,4.4,1.8c1.2,1.2,1.8,2.8,1.8,4.4v12.7
							c0,3-2.1,5.5-5,6.1v13.9c0,1.2-0.5,2.4-1.3,3.3c-0.9,0.9-2,1.3-3.3,1.3h-2c-2.5,0-4.6-2.1-4.6-4.6v-13.8c-3-0.6-5.1-3.2-5-6.2
							V83.2c0-3.4,2.8-6.2,6.2-6.2H115.5z M111.1,138c-3.4,0-6.1-2.7-6.1-6.1c0-3.4,2.7-6.1,6.1-6.1s6.1,2.7,6.1,6.1
							C117.2,135.3,114.5,138,111.1,138z M115.5,139.9c3.5,0,6.2,2.8,6.2,6.2v12.7c0,3-2.1,5.5-5,6.1v13.8c0,2.5-2.1,4.6-4.6,4.6h-2
							c-2.5,0-4.6-2.1-4.6-4.6v-13.8c-2.9-0.6-5-3.1-5-6.1v-12.7c0-3.4,2.8-6.2,6.2-6.2H115.5z M136.2,42.8c-3.4,0-6.1-2.7-6.1-6.1
							c0-3.4,2.7-6.1,6.1-6.1s6.1,2.7,6.1,6.1C142.3,40.1,139.6,42.8,136.2,42.8z M140.6,44.7c1.7,0,3.3,0.6,4.5,1.8
							s1.9,2.8,1.9,4.4v12.7c0,3-2.1,5.5-5,6.1v13.8c0,2.5-2.1,4.6-4.6,4.6h-2c-1.3,0-2.5-0.4-3.4-1.3s-1.4-2.1-1.4-3.3V69.7
							c-2.9-0.6-5-3.1-5-6.1V50.9c0-1.7,0.7-3.3,1.9-4.4c1.2-1.2,2.8-1.8,4.5-1.8H140.6z M136.2,105.7c-3.4,0-6.1-2.7-6.1-6.1
							s2.7-6.1,6.1-6.1s6.1,2.7,6.1,6.1S139.6,105.7,136.2,105.7z M140.6,107.6c3.4,0,6.2,2.8,6.2,6.2v12.7c0,2.9-2.1,5.5-4.9,6.1
							v13.8c0,2.5-2.1,4.6-4.6,4.6h-2c-1.2,0-2.4-0.4-3.3-1.3c-0.9-0.9-1.4-2-1.4-3.3v-13.8c-2.9-0.6-5-3.1-5-6.1v-12.7
							c0-1.7,0.7-3.3,1.9-4.4c1.2-1.2,2.8-1.8,4.5-1.8C132,107.6,140.6,107.6,140.6,107.6z M136.2,168.7c-3.4,0-6.1-2.7-6.1-6.1
							c0-3.4,2.7-6.1,6.1-6.1s6.1,2.7,6.1,6.1C142.3,165.9,139.6,168.7,136.2,168.7z M140.6,170.6c1.7,0,3.3,0.6,4.4,1.8
							c1.2,1.2,1.9,2.7,1.9,4.4v12.7c0,3-2.1,5.5-5,6.1v13.8c0,2.5-2.1,4.6-4.6,4.6h-2c-1.2,0-2.5-0.4-3.4-1.3s-1.4-2.1-1.4-3.3
							v-13.8c-2.9-0.6-5-3.1-5-6.1v-12.7c0-1.7,0.7-3.2,1.9-4.4s2.8-1.8,4.4-1.8H140.6z M161.3,12.1c-3.4,0-6.1-2.7-6.1-6.1
							s2.8-6,6.1-6s6.1,2.7,6.1,6.1S164.7,12.1,161.3,12.1z M165.7,14L165.7,14c1.7,0,3.3,0.6,4.4,1.8c1.2,1.2,1.8,2.8,1.9,4.4v12.7
							c0,3-2.2,5.6-5.2,6.1v13.8c0,2.5-2.1,4.6-4.6,4.6h-1.9c-2.5,0-4.6-2.1-4.6-4.6V39.1c-2.9-0.6-5-3.1-5-6.1V20.3
							c0-3.4,2.8-6.2,6.2-6.2L165.7,14L165.7,14z M161.3,75.1c-3.4,0-6.1-2.7-6.1-6.1s2.7-6.1,6.1-6.1s6.1,2.7,6.1,6.1
							S164.7,75.1,161.3,75.1z M165.7,77L165.7,77c1.7,0,3.3,0.6,4.4,1.8s1.8,2.8,1.8,4.4v12.7c0,3-2.2,5.6-5.2,6.1v13.9
							c0,2.5-2.1,4.6-4.6,4.6h-1.9c-1.2,0-2.4-0.5-3.3-1.3c-0.9-0.9-1.3-2-1.3-3.3v-13.8c-3-0.6-5.1-3.2-5-6.2V83.2
							c0-3.4,2.8-6.2,6.2-6.2H165.7z M161.3,138c-3.4,0-6.1-2.7-6.1-6.1c0-3.4,2.7-6.1,6.1-6.1s6.1,2.7,6.1,6.1
							C167.4,135.3,164.7,138,161.3,138z M165.7,139.9c1.7,0,3.3,0.6,4.4,1.8c1.2,1.2,1.8,2.8,1.8,4.4v12.7c0,3-2.2,5.6-5.2,6.1
							v13.8c0,2.5-2.1,4.6-4.6,4.6h-1.9c-2.5,0-4.6-2.1-4.6-4.6v-13.8c-2.9-0.6-5-3.1-5-6.1v-12.7c0-3.4,2.8-6.2,6.2-6.2H165.7z
							 M186.4,42.8c-3.4,0-6.1-2.7-6.1-6.1c0-3.4,2.7-6.1,6.1-6.1s6.1,2.7,6.1,6.1C192.5,40.1,189.8,42.8,186.4,42.8z M190.9,44.7
							c3.4,0,6.2,2.8,6.2,6.2v12.7c0,3-2.1,5.5-5,6.1v13.8c0,2.5-2.1,4.6-4.6,4.6h-2c-2.5,0-4.6-2.1-4.6-4.6V69.7
							c-2.9-0.6-5-3.1-5-6.1V50.9c0-3.4,2.8-6.2,6.2-6.2H190.9z M186.4,105.7c-3.4,0-6.1-2.7-6.1-6.1s2.7-6.1,6.1-6.1
							s6.1,2.7,6.1,6.1S189.8,105.7,186.4,105.7z M190.9,107.6c3.4,0,6.2,2.8,6.2,6.2v12.7c0,3-2.1,5.5-5,6.1v13.8
							c0,2.5-2.1,4.6-4.6,4.6h-2c-2.5,0-4.6-2-4.6-4.5v-13.8c-2.9-0.6-5-3.1-5-6.1v-12.7c0-3.4,2.8-6.2,6.2-6.2h8.8V107.6z
							 M186.4,168.7c-3.4,0-6.1-2.7-6.1-6.1c0-3.4,2.7-6.1,6.1-6.1s6.1,2.7,6.1,6.1C192.5,165.9,189.8,168.7,186.4,168.7z
							 M190.9,170.6c3.4,0,6.2,2.8,6.2,6.2v12.7c0,3-2.1,5.5-5,6.1v13.8c0,2.5-2.1,4.6-4.6,4.6h-2c-2.5,0-4.6-2.1-4.6-4.6v-13.8
							c-2.9-0.6-5-3.1-5-6.1v-12.7c0-3.4,2.8-6.2,6.2-6.2H190.9z"/>
					</g>
				</g>
			</g>
		</g>
	</g>
</g>
<g id="Layer_2" class="st0">
	<g class="st1">
		<path d="M20.5,10.3C20.5,10.3,20.5,10.3,20.5,10.3C20.5,10.3,20.5,10.2,20.5,10.3C20.5,10.2,20.5,10.2,20.5,10.3
			c0-0.1,0-0.1,0-0.2c0,0,0,0,0,0c0,0,0,0,0,0c0,0,0,0,0,0c0,0,0,0,0,0c0,0,0,0,0,0c0,0,0,0,0,0c0,0,0,0,0-0.1c0,0,0,0,0,0
			c0,0,0,0,0,0c0,0,0,0,0,0c0,0,0,0-0.1,0l-8.7-4.9l5-3.1l8.4,4.8l-3.5,2.2c-0.3,0.2-0.4,0.5-0.2,0.8c0.2,0.3,0.5,0.4,0.8,0.2
			L26.3,7c0.2-0.1,0.3-0.3,0.3-0.5c0-0.2-0.1-0.4-0.3-0.5l-9.5-5.4c-0.2-0.1-0.4-0.1-0.6,0l-6.1,3.9c0,0,0,0,0,0L7,6.4c0,0,0,0,0,0
			l-6.1,3.9c-0.2,0.1-0.3,0.3-0.3,0.5c0,0.2,0.1,0.4,0.3,0.5l9.5,5.4c0.1,0.1,0.2,0.1,0.3,0.1c0.1,0,0.2,0,0.3-0.1l4.4-2.7
			c0.3-0.2,0.4-0.5,0.2-0.8c-0.2-0.3-0.5-0.4-0.8-0.2l-4.1,2.6l-8.4-4.8l5-3.1l8.9,5.1v6.7c0,0.2,0.1,0.4,0.3,0.5
			c0.1,0,0.2,0.1,0.3,0.1c0.1,0,0.2,0,0.3-0.1l3.1-1.9c0.2-0.1,0.3-0.3,0.3-0.5L20.5,10.3C20.5,10.4,20.5,10.4,20.5,10.3
			C20.5,10.3,20.5,10.3,20.5,10.3z M17.4,18.3v-6c0-0.2-0.1-0.4-0.3-0.5L8.5,6.8l1.9-1.2l8.4,4.8L18,10.9c-0.3,0.2-0.4,0.5-0.2,0.8
			c0.1,0.2,0.3,0.3,0.5,0.3c0.1,0,0.2,0,0.3-0.1l0.7-0.4v5.7L17.4,18.3z"/>
		<path d="M25.7,8.4l-4.4,2.7c-0.3,0.2-0.4,0.5-0.2,0.8c0.1,0.2,0.3,0.3,0.5,0.3c0.1,0,0.2,0,0.3-0.1l4.4-2.7
			c0.3-0.2,0.4-0.5,0.2-0.8C26.4,8.3,26,8.2,25.7,8.4z"/>
		<path d="M14.8,15.3l-4.1,2.6l-9.2-5.2c-0.3-0.2-0.6-0.1-0.8,0.2c-0.2,0.3-0.1,0.6,0.2,0.8l9.5,5.4c0.1,0.1,0.2,0.1,0.3,0.1
			c0.1,0,0.2,0,0.3-0.1l4.4-2.7c0.3-0.2,0.4-0.5,0.2-0.8C15.4,15.2,15,15.1,14.8,15.3z"/>
		<path d="M25.7,10.7l-4.4,2.7c-0.3,0.2-0.4,0.5-0.2,0.8c0.1,0.2,0.3,0.3,0.5,0.3c0.1,0,0.2,0,0.3-0.1l4.4-2.7
			c0.3-0.2,0.4-0.5,0.2-0.8C26.4,10.6,26,10.5,25.7,10.7z"/>
		<path d="M14.8,17.6l-4.1,2.6l-9.2-5.2c-0.3-0.2-0.6-0.1-0.8,0.2c-0.2,0.3-0.1,0.6,0.2,0.8l9.5,5.4c0.1,0.1,0.2,0.1,0.3,0.1
			c0.1,0,0.2,0,0.3-0.1l4.4-2.7c0.3-0.2,0.4-0.5,0.2-0.8C15.4,17.5,15,17.4,14.8,17.6z"/>
		<path d="M25.7,13.1l-4.4,2.7c-0.3,0.2-0.4,0.5-0.2,0.8c0.1,0.2,0.3,0.3,0.5,0.3c0.1,0,0.2,0,0.3-0.1l4.4-2.7
			c0.3-0.2,0.4-0.5,0.2-0.8C26.4,13,26,12.9,25.7,13.1z"/>
		<path d="M14.8,20l-4.1,2.6l-9.2-5.2c-0.3-0.2-0.6-0.1-0.8,0.2c-0.2,0.3-0.1,0.6,0.2,0.8l9.5,5.4c0.1,0.1,0.2,0.1,0.3,0.1
			c0.1,0,0.2,0,0.3-0.1l4.4-2.7c0.3-0.2,0.4-0.5,0.2-0.8C15.4,19.9,15,19.8,14.8,20z"/>
	</g>
	<g class="st1">
		<path d="M20.5,58.2C20.5,58.2,20.5,58.2,20.5,58.2C20.5,58.2,20.5,58.1,20.5,58.2C20.5,58.1,20.5,58.1,20.5,58.2
			c0-0.1,0-0.1,0-0.2c0,0,0,0,0,0c0,0,0,0,0,0c0,0,0,0,0,0c0,0,0,0,0,0c0,0,0,0,0,0c0,0,0,0,0,0c0,0,0,0,0-0.1c0,0,0,0,0,0
			c0,0,0,0,0,0c0,0,0,0,0,0c0,0,0,0-0.1,0l-8.7-4.9l5-3.1l8.4,4.8l-3.5,2.2c-0.3,0.2-0.4,0.5-0.2,0.8c0.2,0.3,0.5,0.4,0.8,0.2
			l4.4-2.7c0.2-0.1,0.3-0.3,0.3-0.5c0-0.2-0.1-0.4-0.3-0.5l-9.5-5.4c-0.2-0.1-0.4-0.1-0.6,0l-6.1,3.9c0,0,0,0,0,0L7,54.3
			c0,0,0,0,0,0l-6.1,3.9c-0.2,0.1-0.3,0.3-0.3,0.5c0,0.2,0.1,0.4,0.3,0.5l9.5,5.4c0.1,0.1,0.2,0.1,0.3,0.1c0.1,0,0.2,0,0.3-0.1
			l4.4-2.7c0.3-0.2,0.4-0.5,0.2-0.8c-0.2-0.3-0.5-0.4-0.8-0.2l-4.1,2.6l-8.4-4.8l5-3.1l8.9,5.1v6.7c0,0.2,0.1,0.4,0.3,0.5
			c0.1,0,0.2,0.1,0.3,0.1c0.1,0,0.2,0,0.3-0.1l3.1-1.9c0.2-0.1,0.3-0.3,0.3-0.5L20.5,58.2C20.5,58.3,20.5,58.3,20.5,58.2
			C20.5,58.2,20.5,58.2,20.5,58.2z M17.4,66.2v-6c0-0.2-0.1-0.4-0.3-0.5l-8.7-4.9l1.9-1.2l8.4,4.8L18,58.8c-0.3,0.2-0.4,0.5-0.2,0.8
			c0.1,0.2,0.3,0.3,0.5,0.3c0.1,0,0.2,0,0.3-0.1l0.7-0.4V65L17.4,66.2z"/>
		<path d="M25.7,56.3L21.4,59c-0.3,0.2-0.4,0.5-0.2,0.8c0.1,0.2,0.3,0.3,0.5,0.3c0.1,0,0.2,0,0.3-0.1l4.4-2.7
			c0.3-0.2,0.4-0.5,0.2-0.8C26.4,56.2,26,56.1,25.7,56.3z"/>
		<path d="M14.8,63.2l-4.1,2.6l-9.2-5.2c-0.3-0.2-0.6-0.1-0.8,0.2c-0.2,0.3-0.1,0.6,0.2,0.8l9.5,5.4c0.1,0.1,0.2,0.1,0.3,0.1
			c0.1,0,0.2,0,0.3-0.1l4.4-2.7c0.3-0.2,0.4-0.5,0.2-0.8C15.4,63.1,15,63,14.8,63.2z"/>
		<path d="M25.7,58.6l-4.4,2.7c-0.3,0.2-0.4,0.5-0.2,0.8c0.1,0.2,0.3,0.3,0.5,0.3c0.1,0,0.2,0,0.3-0.1l4.4-2.7
			c0.3-0.2,0.4-0.5,0.2-0.8C26.4,58.5,26,58.5,25.7,58.6z"/>
		<path d="M14.8,65.5l-4.1,2.6l-9.2-5.2c-0.3-0.2-0.6-0.1-0.8,0.2c-0.2,0.3-0.1,0.6,0.2,0.8l9.5,5.4c0.1,0.1,0.2,0.1,0.3,0.1
			c0.1,0,0.2,0,0.3-0.1l4.4-2.7c0.3-0.2,0.4-0.5,0.2-0.8C15.4,65.4,15,65.4,14.8,65.5z"/>
		<path d="M25.7,61l-4.4,2.7c-0.3,0.2-0.4,0.5-0.2,0.8c0.1,0.2,0.3,0.3,0.5,0.3c0.1,0,0.2,0,0.3-0.1l4.4-2.7
			c0.3-0.2,0.4-0.5,0.2-0.8C26.4,60.9,26,60.8,25.7,61z"/>
		<path d="M14.8,67.9l-4.1,2.6l-9.2-5.2c-0.3-0.2-0.6-0.1-0.8,0.2c-0.2,0.3-0.1,0.6,0.2,0.8l9.5,5.4c0.1,0.1,0.2,0.1,0.3,0.1
			c0.1,0,0.2,0,0.3-0.1l4.4-2.7c0.3-0.2,0.4-0.5,0.2-0.8C15.4,67.8,15,67.7,14.8,67.9z"/>
	</g>
	<g class="st1">
		<path d="M38.2,30.8C38.2,30.8,38.2,30.8,38.2,30.8C38.2,30.7,38.2,30.7,38.2,30.8C38.2,30.7,38.2,30.7,38.2,30.8
			c0-0.1,0-0.1,0-0.2c0,0,0,0,0,0c0,0,0,0,0,0c0,0,0,0,0,0c0,0,0,0,0,0c0,0,0,0,0,0c0,0,0,0,0,0c0,0,0,0,0-0.1c0,0,0,0,0,0
			c0,0,0,0,0,0c0,0,0,0,0,0c0,0,0,0-0.1,0l-8.7-4.9l5-3.1l8.4,4.8l-3.5,2.2c-0.3,0.2-0.4,0.5-0.2,0.8c0.2,0.3,0.5,0.4,0.8,0.2
			l4.4-2.7c0.2-0.1,0.3-0.3,0.3-0.5c0-0.2-0.1-0.4-0.3-0.5l-9.5-5.4c-0.2-0.1-0.4-0.1-0.6,0l-6.1,3.9c0,0,0,0,0,0l-3.1,1.9
			c0,0,0,0,0,0l-6.1,3.9c-0.2,0.1-0.3,0.3-0.3,0.5c0,0.2,0.1,0.4,0.3,0.5l9.5,5.4c0.1,0.1,0.2,0.1,0.3,0.1c0.1,0,0.2,0,0.3-0.1
			l4.4-2.7c0.3-0.2,0.4-0.5,0.2-0.8c-0.2-0.3-0.5-0.4-0.8-0.2L28.4,36l-8.4-4.8l5-3.1l8.9,5.1v6.7c0,0.2,0.1,0.4,0.3,0.5
			c0.1,0,0.2,0.1,0.3,0.1c0.1,0,0.2,0,0.3-0.1l3.1-1.9c0.2-0.1,0.3-0.3,0.3-0.5L38.2,30.8C38.2,30.9,38.2,30.8,38.2,30.8
			C38.2,30.8,38.2,30.8,38.2,30.8z M35.2,38.8v-6c0-0.2-0.1-0.4-0.3-0.5l-8.7-4.9l1.9-1.2l8.4,4.8l-0.7,0.5
			c-0.3,0.2-0.4,0.5-0.2,0.8c0.1,0.2,0.3,0.3,0.5,0.3c0.1,0,0.2,0,0.3-0.1l0.7-0.4v5.7L35.2,38.8z"/>
		<path d="M43.4,28.9l-4.4,2.7c-0.3,0.2-0.4,0.5-0.2,0.8c0.1,0.2,0.3,0.3,0.5,0.3c0.1,0,0.2,0,0.3-0.1l4.4-2.7
			c0.3-0.2,0.4-0.5,0.2-0.8C44.1,28.8,43.7,28.7,43.4,28.9z"/>
		<path d="M32.5,35.8l-4.1,2.6l-9.2-5.2c-0.3-0.2-0.6-0.1-0.8,0.2c-0.2,0.3-0.1,0.6,0.2,0.8l9.5,5.4c0.1,0.1,0.2,0.1,0.3,0.1
			c0.1,0,0.2,0,0.3-0.1l4.4-2.7c0.3-0.2,0.4-0.5,0.2-0.8C33.1,35.7,32.8,35.6,32.5,35.8z"/>
		<path d="M43.4,31.2L39.1,34c-0.3,0.2-0.4,0.5-0.2,0.8c0.1,0.2,0.3,0.3,0.5,0.3c0.1,0,0.2,0,0.3-0.1l4.4-2.7
			c0.3-0.2,0.4-0.5,0.2-0.8C44.1,31.1,43.7,31,43.4,31.2z"/>
		<path d="M32.5,38.1l-4.1,2.6l-9.2-5.2c-0.3-0.2-0.6-0.1-0.8,0.2c-0.2,0.3-0.1,0.6,0.2,0.8l9.5,5.4c0.1,0.1,0.2,0.1,0.3,0.1
			c0.1,0,0.2,0,0.3-0.1l4.4-2.7c0.3-0.2,0.4-0.5,0.2-0.8C33.1,38,32.8,37.9,32.5,38.1z"/>
		<path d="M43.4,33.6l-4.4,2.7c-0.3,0.2-0.4,0.5-0.2,0.8c0.1,0.2,0.3,0.3,0.5,0.3c0.1,0,0.2,0,0.3-0.1l4.4-2.7
			c0.3-0.2,0.4-0.5,0.2-0.8C44.1,33.5,43.7,33.4,43.4,33.6z"/>
		<path d="M32.5,40.5L28.4,43l-9.2-5.2c-0.3-0.2-0.6-0.1-0.8,0.2c-0.2,0.3-0.1,0.6,0.2,0.8l9.5,5.4c0.1,0.1,0.2,0.1,0.3,0.1
			c0.1,0,0.2,0,0.3-0.1l4.4-2.7c0.3-0.2,0.4-0.5,0.2-0.8C33.1,40.4,32.8,40.3,32.5,40.5z"/>
	</g>
	<g class="st1">
		<path d="M66.2,10.3C66.2,10.3,66.2,10.3,66.2,10.3C66.2,10.3,66.2,10.2,66.2,10.3C66.1,10.2,66.1,10.2,66.2,10.3
			c0-0.1,0-0.1,0-0.2c0,0,0,0,0,0c0,0,0,0,0,0c0,0,0,0,0,0c0,0,0,0,0,0c0,0,0,0,0,0c0,0,0,0,0,0c0,0,0,0,0-0.1c0,0,0,0,0,0
			c0,0,0,0,0,0c0,0,0,0,0,0c0,0,0,0-0.1,0l-8.7-4.9l5-3.1l8.4,4.8L67,8.8c-0.3,0.2-0.4,0.5-0.2,0.8c0.2,0.3,0.5,0.4,0.8,0.2L72,7
			c0.2-0.1,0.3-0.3,0.3-0.5c0-0.2-0.1-0.4-0.3-0.5l-9.5-5.4c-0.2-0.1-0.4-0.1-0.6,0l-6.1,3.9c0,0,0,0,0,0l-3.1,1.9c0,0,0,0,0,0
			l-6.1,3.9c-0.2,0.1-0.3,0.3-0.3,0.5c0,0.2,0.1,0.4,0.3,0.5l9.5,5.4c0.1,0.1,0.2,0.1,0.3,0.1c0.1,0,0.2,0,0.3-0.1l4.4-2.7
			c0.3-0.2,0.4-0.5,0.2-0.8c-0.2-0.3-0.5-0.4-0.8-0.2l-4.1,2.6L48,10.7l5-3.1l8.9,5.1v6.7c0,0.2,0.1,0.4,0.3,0.5
			c0.1,0,0.2,0.1,0.3,0.1c0.1,0,0.2,0,0.3-0.1l3.1-1.9c0.2-0.1,0.3-0.3,0.3-0.5L66.2,10.3C66.2,10.4,66.2,10.4,66.2,10.3
			C66.2,10.3,66.2,10.3,66.2,10.3z M63.1,18.3v-6c0-0.2-0.1-0.4-0.3-0.5l-8.7-4.9l1.9-1.2l8.4,4.8l-0.7,0.5
			c-0.3,0.2-0.4,0.5-0.2,0.8c0.1,0.2,0.3,0.3,0.5,0.3c0.1,0,0.2,0,0.3-0.1l0.7-0.4v5.7L63.1,18.3z"/>
		<path d="M71.4,8.4L67,11.1c-0.3,0.2-0.4,0.5-0.2,0.8c0.1,0.2,0.3,0.3,0.5,0.3c0.1,0,0.2,0,0.3-0.1L72,9.4c0.3-0.2,0.4-0.5,0.2-0.8
			C72,8.3,71.7,8.2,71.4,8.4z"/>
		<path d="M60.4,15.3l-4.1,2.6l-9.2-5.2c-0.3-0.2-0.6-0.1-0.8,0.2c-0.2,0.3-0.1,0.6,0.2,0.8l9.5,5.4c0.1,0.1,0.2,0.1,0.3,0.1
			c0.1,0,0.2,0,0.3-0.1l4.4-2.7c0.3-0.2,0.4-0.5,0.2-0.8C61.1,15.2,60.7,15.1,60.4,15.3z"/>
		<path d="M71.4,10.7L67,13.5c-0.3,0.2-0.4,0.5-0.2,0.8c0.1,0.2,0.3,0.3,0.5,0.3c0.1,0,0.2,0,0.3-0.1l4.4-2.7
			c0.3-0.2,0.4-0.5,0.2-0.8C72,10.6,71.7,10.5,71.4,10.7z"/>
		<path d="M60.4,17.6l-4.1,2.6l-9.2-5.2c-0.3-0.2-0.6-0.1-0.8,0.2c-0.2,0.3-0.1,0.6,0.2,0.8l9.5,5.4c0.1,0.1,0.2,0.1,0.3,0.1
			c0.1,0,0.2,0,0.3-0.1l4.4-2.7c0.3-0.2,0.4-0.5,0.2-0.8C61.1,17.5,60.7,17.4,60.4,17.6z"/>
		<path d="M71.4,13.1L67,15.8c-0.3,0.2-0.4,0.5-0.2,0.8c0.1,0.2,0.3,0.3,0.5,0.3c0.1,0,0.2,0,0.3-0.1l4.4-2.7
			c0.3-0.2,0.4-0.5,0.2-0.8C72,13,71.7,12.9,71.4,13.1z"/>
		<path d="M60.4,20l-4.1,2.6l-9.2-5.2c-0.3-0.2-0.6-0.1-0.8,0.2c-0.2,0.3-0.1,0.6,0.2,0.8l9.5,5.4c0.1,0.1,0.2,0.1,0.3,0.1
			c0.1,0,0.2,0,0.3-0.1l4.4-2.7c0.3-0.2,0.4-0.5,0.2-0.8C61.1,19.9,60.7,19.8,60.4,20z"/>
	</g>
	<g class="st1">
		<path d="M83.9,30.8C83.9,30.8,83.9,30.8,83.9,30.8C83.9,30.7,83.9,30.7,83.9,30.8C83.9,30.7,83.9,30.7,83.9,30.8
			c0-0.1,0-0.1,0-0.2c0,0,0,0,0,0c0,0,0,0,0,0c0,0,0,0,0,0c0,0,0,0,0,0c0,0,0,0,0,0c0,0,0,0,0,0c0,0,0,0,0-0.1c0,0,0,0,0,0
			c0,0,0,0,0,0c0,0,0,0,0,0c0,0,0,0-0.1,0l-8.7-4.9l5-3.1l8.4,4.8l-3.5,2.2c-0.3,0.2-0.4,0.5-0.2,0.8c0.2,0.3,0.5,0.4,0.8,0.2
			l4.4-2.7c0.2-0.1,0.3-0.3,0.3-0.5c0-0.2-0.1-0.4-0.3-0.5l-9.5-5.4c-0.2-0.1-0.4-0.1-0.6,0l-6.1,3.9c0,0,0,0,0,0l-3.1,1.9
			c0,0,0,0,0,0l-6.1,3.9C64.1,30.8,64,31,64,31.2c0,0.2,0.1,0.4,0.3,0.5l9.5,5.4c0.1,0.1,0.2,0.1,0.3,0.1c0.1,0,0.2,0,0.3-0.1
			l4.4-2.7c0.3-0.2,0.4-0.5,0.2-0.8c-0.2-0.3-0.5-0.4-0.8-0.2L74.1,36l-8.4-4.8l5-3.1l8.9,5.1v6.7c0,0.2,0.1,0.4,0.3,0.5
			c0.1,0,0.2,0.1,0.3,0.1c0.1,0,0.2,0,0.3-0.1l3.1-1.9c0.2-0.1,0.3-0.3,0.3-0.5L83.9,30.8C83.9,30.9,83.9,30.8,83.9,30.8
			C83.9,30.8,83.9,30.8,83.9,30.8z M80.8,38.8v-6c0-0.2-0.1-0.4-0.3-0.5l-8.7-4.9l1.9-1.2l8.4,4.8l-0.7,0.5
			c-0.3,0.2-0.4,0.5-0.2,0.8c0.1,0.2,0.3,0.3,0.5,0.3c0.1,0,0.2,0,0.3-0.1l0.7-0.4v5.7L80.8,38.8z"/>
		<path d="M89.1,28.9l-4.4,2.7c-0.3,0.2-0.4,0.5-0.2,0.8c0.1,0.2,0.3,0.3,0.5,0.3c0.1,0,0.2,0,0.3-0.1l4.4-2.7
			c0.3-0.2,0.4-0.5,0.2-0.8C89.7,28.8,89.4,28.7,89.1,28.9z"/>
		<path d="M78.2,35.8l-4.1,2.6l-9.2-5.2c-0.3-0.2-0.6-0.1-0.8,0.2c-0.2,0.3-0.1,0.6,0.2,0.8l9.5,5.4c0.1,0.1,0.2,0.1,0.3,0.1
			c0.1,0,0.2,0,0.3-0.1l4.4-2.7c0.3-0.2,0.4-0.5,0.2-0.8C78.8,35.7,78.4,35.6,78.2,35.8z"/>
		<path d="M89.1,31.2L84.8,34c-0.3,0.2-0.4,0.5-0.2,0.8c0.1,0.2,0.3,0.3,0.5,0.3c0.1,0,0.2,0,0.3-0.1l4.4-2.7
			c0.3-0.2,0.4-0.5,0.2-0.8C89.7,31.1,89.4,31,89.1,31.2z"/>
		<path d="M78.2,38.1l-4.1,2.6l-9.2-5.2c-0.3-0.2-0.6-0.1-0.8,0.2c-0.2,0.3-0.1,0.6,0.2,0.8l9.5,5.4c0.1,0.1,0.2,0.1,0.3,0.1
			c0.1,0,0.2,0,0.3-0.1l4.4-2.7c0.3-0.2,0.4-0.5,0.2-0.8C78.8,38,78.4,37.9,78.2,38.1z"/>
		<path d="M89.1,33.6l-4.4,2.7c-0.3,0.2-0.4,0.5-0.2,0.8c0.1,0.2,0.3,0.3,0.5,0.3c0.1,0,0.2,0,0.3-0.1l4.4-2.7
			c0.3-0.2,0.4-0.5,0.2-0.8C89.7,33.5,89.4,33.4,89.1,33.6z"/>
		<path d="M78.2,40.5L74.1,43l-9.2-5.2c-0.3-0.2-0.6-0.1-0.8,0.2c-0.2,0.3-0.1,0.6,0.2,0.8l9.5,5.4c0.1,0.1,0.2,0.1,0.3,0.1
			c0.1,0,0.2,0,0.3-0.1l4.4-2.7c0.3-0.2,0.4-0.5,0.2-0.8C78.8,40.4,78.4,40.3,78.2,40.5z"/>
	</g>
	<polygon class="st1" points="37.5,-20.8 37.6,-35.1 41.6,-37.3 41.5,-23.7 	"/>
</g>
<g id="Layer_3">
	<g>
		<g>
			<path d="M34,13.3L12.8,34.4c-0.2,0.2-0.4,0.2-0.6,0L0.1,22.3c-0.2-0.2-0.2-0.4,0-0.6L21.2,0.6c0.2-0.2,0.4-0.2,0.6,0L34,12.7
				C34.1,12.9,34.1,13.2,34,13.3z M12.6,33.6L33.1,13L21.5,1.5L1,22L12.6,33.6z"/>
			<path d="M24.3,3.7c-1.5,1.5-4,1.5-5.6,0c-0.2-0.2-0.2-0.4,0-0.6c0.2-0.2,0.4-0.2,0.6,0c1.2,1.2,3.2,1.2,4.4,0
				c0.2-0.2,0.4-0.2,0.6,0C24.5,3.3,24.5,3.5,24.3,3.7z"/>
			<path d="M31.5,15.8c-0.2,0.2-0.4,0.2-0.6,0c-1.5-1.5-1.5-4,0-5.6c0.2-0.2,0.4-0.2,0.6,0c0.2,0.2,0.2,0.4,0,0.6
				c-1.2,1.2-1.2,3.2,0,4.4C31.6,15.4,31.6,15.7,31.5,15.8z"/>
			<path d="M3.2,24.8C3,25,2.8,25,2.6,24.8c-0.2-0.2-0.2-0.4,0-0.6c1.2-1.2,1.2-3.2,0-4.4c-0.2-0.2-0.2-0.4,0-0.6
				c0.2-0.2,0.4-0.2,0.6,0C4.7,20.8,4.7,23.3,3.2,24.8z"/>
			<path d="M15.3,32c-0.2,0.2-0.4,0.2-0.6,0c-1.2-1.2-3.2-1.2-4.4,0c-0.2,0.2-0.4,0.2-0.6,0c-0.2-0.2-0.2-0.4,0-0.6
				c1.5-1.5,4-1.5,5.6,0C15.5,31.5,15.5,31.8,15.3,32z"/>
		</g>
		<path d="M20.6,15.9c-0.4,0.1-0.5,0.4-0.4,0.6c0.5,1.2,0.2,2.5-0.6,3.2c-0.8,0.8-1.9,1-3,0.7l1.6-1.6c0.2-0.2,0.2-0.5,0-0.7
			s-0.5-0.2-0.7,0L15.8,20c-0.2-0.2-0.5-0.3-0.7-0.6c-0.2-0.2-0.4-0.4-0.5-0.6l1.9-1.9c0.2-0.2,0.2-0.5,0-0.7
			c-0.2-0.2-0.5-0.2-0.7,0l-1.7,1.7c-0.3-1.1-0.1-2.3,0.7-3.1c0.8-0.8,2-1.1,3.2-0.6c0.3,0,0.5-0.1,0.6-0.4c0-0.3-0.1-0.5-0.4-0.6
			c-1.6-0.6-3.2-0.3-4.3,0.8c-1.2,1.2-1.4,3.1-0.7,4.6l-0.8,0.8c-0.2,0.2-0.2,0.5,0,0.7c0.2,0.2,0.5,0.2,0.7,0l0.6-0.6
			c0.1,0.2,0.3,0.4,0.4,0.5c0.2,0.2,0.5,0.4,0.8,0.6l-0.6,0.6c-0.2,0.2-0.2,0.5,0,0.7c0.2,0.2,0.5,0.2,0.7,0l0.9-0.9
			c1.5,0.6,3.2,0.3,4.3-0.8c1.1-1.1,1.4-2.7,0.9-4.1C21.2,15.9,20.9,15.8,20.6,15.9z"/>
	</g>
	<g>
		<g>
			<path d="M45.1,61.5L24,40.4c-0.2-0.2-0.2-0.4,0-0.6l12.1-12.1c0.2-0.2,0.4-0.2,0.6,0l21.1,21.1c0.2,0.2,0.2,0.4,0,0.6L45.7,61.5
				C45.5,61.6,45.3,61.6,45.1,61.5z M24.9,40.1l20.5,20.5L56.9,49L36.4,28.5L24.9,40.1z"/>
			<path d="M54.7,51.8c-1.5-1.5-1.5-4,0-5.6c0.2-0.2,0.4-0.2,0.6,0c0.2,0.2,0.2,0.4,0,0.6c-1.2,1.2-1.2,3.2,0,4.4
				c0.2,0.2,0.2,0.4,0,0.6C55.2,52,54.9,52,54.7,51.8z"/>
			<path d="M42.6,59c-0.2-0.2-0.2-0.4,0-0.6c1.5-1.5,4-1.5,5.6,0c0.2,0.2,0.2,0.4,0,0.6c-0.2,0.2-0.4,0.2-0.6,0
				c-1.2-1.2-3.2-1.2-4.4,0C43,59.1,42.8,59.1,42.6,59z"/>
			<path d="M33.6,30.7c-0.2-0.2-0.2-0.4,0-0.6c0.2-0.2,0.4-0.2,0.6,0c1.2,1.2,3.2,1.2,4.4,0c0.2-0.2,0.4-0.2,0.6,0
				c0.2,0.2,0.2,0.4,0,0.6C37.7,32.2,35.2,32.2,33.6,30.7z"/>
			<path d="M26.5,42.8c-0.2-0.2-0.2-0.4,0-0.6c1.2-1.2,1.2-3.2,0-4.4c-0.2-0.2-0.2-0.4,0-0.6c0.2-0.2,0.4-0.2,0.6,0
				c1.5,1.5,1.5,4,0,5.6C26.9,43,26.7,43,26.5,42.8z"/>
		</g>
		<path d="M42.5,48.1c-0.1-0.4-0.4-0.5-0.6-0.4c-1.2,0.5-2.5,0.2-3.2-0.6c-0.8-0.8-1-1.9-0.7-3l1.6,1.6c0.2,0.2,0.5,0.2,0.7,0
			s0.2-0.5,0-0.7l-1.9-1.9c0.2-0.2,0.3-0.5,0.6-0.7c0.2-0.2,0.4-0.4,0.6-0.5l1.9,1.9c0.2,0.2,0.5,0.2,0.7,0c0.2-0.2,0.2-0.5,0-0.7
			l-1.7-1.7c1.1-0.3,2.3-0.1,3.1,0.7c0.8,0.8,1.1,2,0.6,3.2c0,0.3,0.1,0.5,0.4,0.6c0.3,0,0.5-0.1,0.6-0.4c0.6-1.6,0.3-3.2-0.8-4.3
			c-1.2-1.2-3.1-1.4-4.6-0.7l-0.8-0.8c-0.2-0.2-0.5-0.2-0.7,0c-0.2,0.2-0.2,0.5,0,0.7l0.6,0.6c-0.2,0.1-0.4,0.3-0.5,0.4
			c-0.2,0.2-0.4,0.5-0.6,0.8L37.1,42c-0.2-0.2-0.5-0.2-0.7,0s-0.2,0.5,0,0.7l0.9,0.9c-0.6,1.5-0.3,3.2,0.8,4.3
			c1.1,1.1,2.7,1.4,4.1,0.9C42.5,48.7,42.7,48.4,42.5,48.1z"/>
	</g>
	<g>
		<g>
			<path d="M91.7,61.5L70.6,40.4c-0.2-0.2-0.2-0.4,0-0.6l12.1-12.1c0.2-0.2,0.4-0.2,0.6,0l21.1,21.1c0.2,0.2,0.2,0.4,0,0.6
				L92.3,61.5C92.1,61.6,91.9,61.6,91.7,61.5z M71.5,40.1L92,60.6L103.6,49L83,28.5L71.5,40.1z"/>
			<path d="M101.4,51.8c-1.5-1.5-1.5-4,0-5.6c0.2-0.2,0.4-0.2,0.6,0s0.2,0.4,0,0.6c-1.2,1.2-1.2,3.2,0,4.4c0.2,0.2,0.2,0.4,0,0.6
				C101.8,52,101.5,52,101.4,51.8z"/>
			<path d="M89.2,59c-0.2-0.2-0.2-0.4,0-0.6c1.5-1.5,4-1.5,5.6,0c0.2,0.2,0.2,0.4,0,0.6c-0.2,0.2-0.4,0.2-0.6,0
				c-1.2-1.2-3.2-1.2-4.4,0C89.7,59.1,89.4,59.1,89.2,59z"/>
			<path d="M80.3,30.7c-0.2-0.2-0.2-0.4,0-0.6s0.4-0.2,0.6,0c1.2,1.2,3.2,1.2,4.4,0c0.2-0.2,0.4-0.2,0.6,0c0.2,0.2,0.2,0.4,0,0.6
				C84.3,32.2,81.8,32.2,80.3,30.7z"/>
			<path d="M73.1,42.8c-0.2-0.2-0.2-0.4,0-0.6c1.2-1.2,1.2-3.2,0-4.4c-0.2-0.2-0.2-0.4,0-0.6c0.2-0.2,0.4-0.2,0.6,0
				c1.5,1.5,1.5,4,0,5.6C73.5,43,73.3,43,73.1,42.8z"/>
		</g>
		<path d="M89.1,48.1c-0.1-0.4-0.4-0.5-0.6-0.4c-1.2,0.5-2.5,0.2-3.2-0.6c-0.8-0.8-1-1.9-0.7-3l1.6,1.6c0.2,0.2,0.5,0.2,0.7,0
			s0.2-0.5,0-0.7L85,43.3c0.2-0.2,0.3-0.5,0.6-0.7c0.2-0.2,0.4-0.4,0.6-0.5l1.9,1.9c0.2,0.2,0.5,0.2,0.7,0c0.2-0.2,0.2-0.5,0-0.7
			l-1.7-1.7c1.1-0.3,2.3-0.1,3.1,0.7c0.8,0.8,1.1,2,0.6,3.2c0,0.3,0.1,0.5,0.4,0.6c0.3,0,0.5-0.1,0.6-0.4c0.6-1.6,0.3-3.2-0.8-4.3
			c-1.2-1.2-3.1-1.4-4.6-0.7l-0.8-0.8c-0.2-0.2-0.5-0.2-0.7,0c-0.2,0.2-0.2,0.5,0,0.7l0.6,0.6c-0.2,0.1-0.4,0.3-0.5,0.4
			c-0.2,0.2-0.4,0.5-0.6,0.8L83.7,42c-0.2-0.2-0.5-0.2-0.7,0s-0.2,0.5,0,0.7l0.9,0.9c-0.6,1.5-0.3,3.2,0.8,4.3
			c1.1,1.1,2.7,1.4,4.1,0.9C89.1,48.7,89.3,48.4,89.1,48.1z"/>
	</g>
	<g>
		<g>
			<path d="M138.7,61.5l-21.1-21.1c-0.2-0.2-0.2-0.4,0-0.6l12.1-12.1c0.2-0.2,0.4-0.2,0.6,0l21.1,21.1c0.2,0.2,0.2,0.4,0,0.6
				l-12.1,12.1C139.1,61.6,138.8,61.6,138.7,61.5z M118.5,40.1L139,60.6L150.5,49L130,28.5L118.5,40.1z"/>
			<path d="M148.3,51.8c-1.5-1.5-1.5-4,0-5.6c0.2-0.2,0.4-0.2,0.6,0s0.2,0.4,0,0.6c-1.2,1.2-1.2,3.2,0,4.4c0.2,0.2,0.2,0.4,0,0.6
				C148.8,52,148.5,52,148.3,51.8z"/>
			<path d="M136.2,59c-0.2-0.2-0.2-0.4,0-0.6c1.5-1.5,4-1.5,5.6,0c0.2,0.2,0.2,0.4,0,0.6c-0.2,0.2-0.4,0.2-0.6,0
				c-1.2-1.2-3.2-1.2-4.4,0C136.6,59.1,136.4,59.1,136.2,59z"/>
			<path d="M127.2,30.7c-0.2-0.2-0.2-0.4,0-0.6c0.2-0.2,0.4-0.2,0.6,0c1.2,1.2,3.2,1.2,4.4,0c0.2-0.2,0.4-0.2,0.6,0
				c0.2,0.2,0.2,0.4,0,0.6C131.3,32.2,128.8,32.2,127.2,30.7z"/>
			<path d="M120.1,42.8c-0.2-0.2-0.2-0.4,0-0.6c1.2-1.2,1.2-3.2,0-4.4c-0.2-0.2-0.2-0.4,0-0.6s0.4-0.2,0.6,0c1.5,1.5,1.5,4,0,5.6
				C120.5,43,120.2,43,120.1,42.8z"/>
		</g>
		<path d="M136.1,48.1c-0.1-0.4-0.4-0.5-0.6-0.4c-1.2,0.5-2.5,0.2-3.2-0.6c-0.8-0.8-1-1.9-0.7-3l1.6,1.6c0.2,0.2,0.5,0.2,0.7,0
			s0.2-0.5,0-0.7l-1.9-1.9c0.2-0.2,0.3-0.5,0.6-0.7c0.2-0.2,0.4-0.4,0.6-0.5l1.9,1.9c0.2,0.2,0.5,0.2,0.7,0c0.2-0.2,0.2-0.5,0-0.7
			l-1.7-1.7c1.1-0.3,2.3-0.1,3.1,0.7c0.8,0.8,1.1,2,0.6,3.2c0,0.3,0.1,0.5,0.4,0.6c0.3,0,0.5-0.1,0.6-0.4c0.6-1.6,0.3-3.2-0.8-4.3
			c-1.2-1.2-3.1-1.4-4.6-0.7l-0.8-0.8c-0.2-0.2-0.5-0.2-0.7,0c-0.2,0.2-0.2,0.5,0,0.7l0.6,0.6c-0.2,0.1-0.4,0.3-0.5,0.4
			c-0.2,0.2-0.4,0.5-0.6,0.8l-0.6-0.6c-0.2-0.2-0.5-0.2-0.7,0s-0.2,0.5,0,0.7l0.9,0.9c-0.6,1.5-0.3,3.2,0.8,4.3
			c1.1,1.1,2.7,1.4,4.1,0.9C136.1,48.7,136.3,48.4,136.1,48.1z"/>
	</g>
	<g>
		<g>
			<path d="M185.7,61.5l-21.1-21.1c-0.2-0.2-0.2-0.4,0-0.6l12.1-12.1c0.2-0.2,0.4-0.2,0.6,0l21.1,21.1c0.2,0.2,0.2,0.4,0,0.6
				l-12.1,12.1C186.1,61.6,185.8,61.6,185.7,61.5z M165.4,40.1L186,60.6L197.5,49L177,28.5L165.4,40.1z"/>
			<path d="M195.3,51.8c-1.5-1.5-1.5-4,0-5.6c0.2-0.2,0.4-0.2,0.6,0s0.2,0.4,0,0.6c-1.2,1.2-1.2,3.2,0,4.4c0.2,0.2,0.2,0.4,0,0.6
				C195.7,52,195.5,52,195.3,51.8z"/>
			<path d="M183.2,59c-0.2-0.2-0.2-0.4,0-0.6c1.5-1.5,4-1.5,5.6,0c0.2,0.2,0.2,0.4,0,0.6c-0.2,0.2-0.4,0.2-0.6,0
				c-1.2-1.2-3.2-1.2-4.4,0C183.6,59.1,183.3,59.1,183.2,59z"/>
			<path d="M174.2,30.7c-0.2-0.2-0.2-0.4,0-0.6s0.4-0.2,0.6,0c1.2,1.2,3.2,1.2,4.4,0c0.2-0.2,0.4-0.2,0.6,0c0.2,0.2,0.2,0.4,0,0.6
				C178.2,32.2,175.7,32.2,174.2,30.7z"/>
			<path d="M167,42.8c-0.2-0.2-0.2-0.4,0-0.6c1.2-1.2,1.2-3.2,0-4.4c-0.2-0.2-0.2-0.4,0-0.6s0.4-0.2,0.6,0c1.5,1.5,1.5,4,0,5.6
				C167.5,43,167.2,43,167,42.8z"/>
		</g>
		<path d="M183.1,48.1c-0.1-0.4-0.4-0.5-0.6-0.4c-1.2,0.5-2.5,0.2-3.2-0.6c-0.8-0.8-1-1.9-0.7-3l1.6,1.6c0.2,0.2,0.5,0.2,0.7,0
			c0.2-0.2,0.2-0.5,0-0.7l-1.9-1.9c0.2-0.2,0.3-0.5,0.6-0.7c0.2-0.2,0.4-0.4,0.6-0.5L182,44c0.2,0.2,0.5,0.2,0.7,0
			c0.2-0.2,0.2-0.5,0-0.7l-1.7-1.7c1.1-0.3,2.3-0.1,3.1,0.7c0.8,0.8,1.1,2,0.6,3.2c0,0.3,0.1,0.5,0.4,0.6c0.3,0,0.5-0.1,0.6-0.4
			c0.6-1.6,0.3-3.2-0.8-4.3c-1.2-1.2-3.1-1.4-4.6-0.7l-0.8-0.8c-0.2-0.2-0.5-0.2-0.7,0c-0.2,0.2-0.2,0.5,0,0.7l0.6,0.6
			c-0.2,0.1-0.4,0.3-0.5,0.4c-0.2,0.2-0.4,0.5-0.6,0.8l-0.6-0.6c-0.2-0.2-0.5-0.2-0.7,0s-0.2,0.5,0,0.7l0.9,0.9
			c-0.6,1.5-0.3,3.2,0.8,4.3c1.1,1.1,2.7,1.4,4.1,0.9C183.1,48.7,183.2,48.4,183.1,48.1z"/>
	</g>
	<g>
		<g>
			<path d="M45.1,112.9L24,91.8c-0.2-0.2-0.2-0.4,0-0.6l12.1-12.1c0.2-0.2,0.4-0.2,0.6,0l21.1,21.1c0.2,0.2,0.2,0.4,0,0.6
				l-12.1,12.1C45.5,113.1,45.3,113.1,45.1,112.9z M24.9,91.5L45.4,112l11.5-11.5L36.4,80L24.9,91.5z"/>
			<path d="M54.7,103.3c-1.5-1.5-1.5-4,0-5.6c0.2-0.2,0.4-0.2,0.6,0c0.2,0.2,0.2,0.4,0,0.6c-1.2,1.2-1.2,3.2,0,4.4
				c0.2,0.2,0.2,0.4,0,0.6C55.2,103.5,54.9,103.5,54.7,103.3z"/>
			<path d="M42.6,110.4c-0.2-0.2-0.2-0.4,0-0.6c1.5-1.5,4-1.5,5.6,0c0.2,0.2,0.2,0.4,0,0.6s-0.4,0.2-0.6,0c-1.2-1.2-3.2-1.2-4.4,0
				C43,110.6,42.8,110.6,42.6,110.4z"/>
			<path d="M33.6,82.2c-0.2-0.2-0.2-0.4,0-0.6c0.2-0.2,0.4-0.2,0.6,0c1.2,1.2,3.2,1.2,4.4,0c0.2-0.2,0.4-0.2,0.6,0
				c0.2,0.2,0.2,0.4,0,0.6C37.7,83.7,35.2,83.7,33.6,82.2z"/>
			<path d="M26.5,94.3c-0.2-0.2-0.2-0.4,0-0.6c1.2-1.2,1.2-3.2,0-4.4c-0.2-0.2-0.2-0.4,0-0.6c0.2-0.2,0.4-0.2,0.6,0
				c1.5,1.5,1.5,4,0,5.6C26.9,94.5,26.7,94.5,26.5,94.3z"/>
		</g>
		<path d="M42.5,99.6c-0.1-0.4-0.4-0.5-0.6-0.4c-1.2,0.5-2.5,0.2-3.2-0.6c-0.8-0.8-1-1.9-0.7-3l1.6,1.6c0.2,0.2,0.5,0.2,0.7,0
			s0.2-0.5,0-0.7l-1.9-1.9c0.2-0.2,0.3-0.5,0.6-0.7c0.2-0.2,0.4-0.4,0.6-0.5l1.9,1.9c0.2,0.2,0.5,0.2,0.7,0c0.2-0.2,0.2-0.5,0-0.7
			l-1.7-1.7c1.1-0.3,2.3-0.1,3.1,0.7c0.8,0.8,1.1,2,0.6,3.2c0,0.3,0.1,0.5,0.4,0.6c0.3,0,0.5-0.1,0.6-0.4c0.6-1.6,0.3-3.2-0.8-4.3
			c-1.2-1.2-3.1-1.4-4.6-0.7l-0.8-0.8c-0.2-0.2-0.5-0.2-0.7,0s-0.2,0.5,0,0.7l0.6,0.6c-0.2,0.1-0.4,0.3-0.5,0.4
			c-0.2,0.2-0.4,0.5-0.6,0.8l-0.6-0.6c-0.2-0.2-0.5-0.2-0.7,0s-0.2,0.5,0,0.7l0.9,0.9c-0.6,1.5-0.3,3.2,0.8,4.3
			c1.1,1.1,2.7,1.4,4.1,0.9C42.5,100.2,42.7,99.9,42.5,99.6z"/>
	</g>
	<g>
		<g>
			<path d="M91.7,112.9L70.6,91.8c-0.2-0.2-0.2-0.4,0-0.6l12.1-12.1c0.2-0.2,0.4-0.2,0.6,0l21.1,21.1c0.2,0.2,0.2,0.4,0,0.6
				l-12.1,12.1C92.1,113.1,91.9,113.1,91.7,112.9z M71.5,91.5L92,112l11.5-11.5L83,80L71.5,91.5z"/>
			<path d="M101.4,103.3c-1.5-1.5-1.5-4,0-5.6c0.2-0.2,0.4-0.2,0.6,0s0.2,0.4,0,0.6c-1.2,1.2-1.2,3.2,0,4.4c0.2,0.2,0.2,0.4,0,0.6
				S101.5,103.5,101.4,103.3z"/>
			<path d="M89.2,110.4c-0.2-0.2-0.2-0.4,0-0.6c1.5-1.5,4-1.5,5.6,0c0.2,0.2,0.2,0.4,0,0.6c-0.2,0.2-0.4,0.2-0.6,0
				c-1.2-1.2-3.2-1.2-4.4,0C89.7,110.6,89.4,110.6,89.2,110.4z"/>
			<path d="M80.3,82.2c-0.2-0.2-0.2-0.4,0-0.6s0.4-0.2,0.6,0c1.2,1.2,3.2,1.2,4.4,0c0.2-0.2,0.4-0.2,0.6,0c0.2,0.2,0.2,0.4,0,0.6
				C84.3,83.7,81.8,83.7,80.3,82.2z"/>
			<path d="M73.1,94.3c-0.2-0.2-0.2-0.4,0-0.6c1.2-1.2,1.2-3.2,0-4.4c-0.2-0.2-0.2-0.4,0-0.6c0.2-0.2,0.4-0.2,0.6,0
				c1.5,1.5,1.5,4,0,5.6C73.5,94.5,73.3,94.5,73.1,94.3z"/>
		</g>
		<path d="M89.1,99.6c-0.1-0.4-0.4-0.5-0.6-0.4c-1.2,0.5-2.5,0.2-3.2-0.6c-0.8-0.8-1-1.9-0.7-3l1.6,1.6c0.2,0.2,0.5,0.2,0.7,0
			s0.2-0.5,0-0.7L85,94.8c0.2-0.2,0.3-0.5,0.6-0.7c0.2-0.2,0.4-0.4,0.6-0.5l1.9,1.9c0.2,0.2,0.5,0.2,0.7,0c0.2-0.2,0.2-0.5,0-0.7
			l-1.7-1.7c1.1-0.3,2.3-0.1,3.1,0.7c0.8,0.8,1.1,2,0.6,3.2c0,0.3,0.1,0.5,0.4,0.6c0.3,0,0.5-0.1,0.6-0.4c0.6-1.6,0.3-3.2-0.8-4.3
			c-1.2-1.2-3.1-1.4-4.6-0.7l-0.8-0.8c-0.2-0.2-0.5-0.2-0.7,0s-0.2,0.5,0,0.7l0.6,0.6c-0.2,0.1-0.4,0.3-0.5,0.4
			c-0.2,0.2-0.4,0.5-0.6,0.8l-0.6-0.6c-0.2-0.2-0.5-0.2-0.7,0s-0.2,0.5,0,0.7l0.9,0.9c-0.6,1.5-0.3,3.2,0.8,4.3
			c1.1,1.1,2.7,1.4,4.1,0.9C89.1,100.2,89.3,99.9,89.1,99.6z"/>
	</g>
	<g>
		<g>
			<path d="M138.7,112.9l-21.1-21.1c-0.2-0.2-0.2-0.4,0-0.6l12.1-12.1c0.2-0.2,0.4-0.2,0.6,0l21.1,21.1c0.2,0.2,0.2,0.4,0,0.6
				l-12.1,12.1C139.1,113.1,138.8,113.1,138.7,112.9z M118.5,91.5L139,112l11.5-11.5L130,80L118.5,91.5z"/>
			<path d="M148.3,103.3c-1.5-1.5-1.5-4,0-5.6c0.2-0.2,0.4-0.2,0.6,0s0.2,0.4,0,0.6c-1.2,1.2-1.2,3.2,0,4.4c0.2,0.2,0.2,0.4,0,0.6
				S148.5,103.5,148.3,103.3z"/>
			<path d="M136.2,110.4c-0.2-0.2-0.2-0.4,0-0.6c1.5-1.5,4-1.5,5.6,0c0.2,0.2,0.2,0.4,0,0.6c-0.2,0.2-0.4,0.2-0.6,0
				c-1.2-1.2-3.2-1.2-4.4,0C136.6,110.6,136.4,110.6,136.2,110.4z"/>
			<path d="M127.2,82.2c-0.2-0.2-0.2-0.4,0-0.6c0.2-0.2,0.4-0.2,0.6,0c1.2,1.2,3.2,1.2,4.4,0c0.2-0.2,0.4-0.2,0.6,0
				c0.2,0.2,0.2,0.4,0,0.6C131.3,83.7,128.8,83.7,127.2,82.2z"/>
			<path d="M120.1,94.3c-0.2-0.2-0.2-0.4,0-0.6c1.2-1.2,1.2-3.2,0-4.4c-0.2-0.2-0.2-0.4,0-0.6s0.4-0.2,0.6,0c1.5,1.5,1.5,4,0,5.6
				C120.5,94.5,120.2,94.5,120.1,94.3z"/>
		</g>
		<path d="M136.1,99.6c-0.1-0.4-0.4-0.5-0.6-0.4c-1.2,0.5-2.5,0.2-3.2-0.6c-0.8-0.8-1-1.9-0.7-3l1.6,1.6c0.2,0.2,0.5,0.2,0.7,0
			s0.2-0.5,0-0.7l-1.9-1.9c0.2-0.2,0.3-0.5,0.6-0.7c0.2-0.2,0.4-0.4,0.6-0.5l1.9,1.9c0.2,0.2,0.5,0.2,0.7,0c0.2-0.2,0.2-0.5,0-0.7
			l-1.7-1.7c1.1-0.3,2.3-0.1,3.1,0.7c0.8,0.8,1.1,2,0.6,3.2c0,0.3,0.1,0.5,0.4,0.6c0.3,0,0.5-0.1,0.6-0.4c0.6-1.6,0.3-3.2-0.8-4.3
			c-1.2-1.2-3.1-1.4-4.6-0.7l-0.8-0.8c-0.2-0.2-0.5-0.2-0.7,0s-0.2,0.5,0,0.7l0.6,0.6c-0.2,0.1-0.4,0.3-0.5,0.4
			c-0.2,0.2-0.4,0.5-0.6,0.8l-0.6-0.6c-0.2-0.2-0.5-0.2-0.7,0s-0.2,0.5,0,0.7l0.9,0.9c-0.6,1.5-0.3,3.2,0.8,4.3
			c1.1,1.1,2.7,1.4,4.1,0.9C136.1,100.2,136.3,99.9,136.1,99.6z"/>
	</g>
	<g>
		<g>
			<path d="M185.7,112.9l-21.1-21.1c-0.2-0.2-0.2-0.4,0-0.6l12.1-12.1c0.2-0.2,0.4-0.2,0.6,0l21.1,21.1c0.2,0.2,0.2,0.4,0,0.6
				l-12.1,12.1C186.1,113.1,185.8,113.1,185.7,112.9z M165.4,91.5L186,112l11.5-11.5L177,80L165.4,91.5z"/>
			<path d="M195.3,103.3c-1.5-1.5-1.5-4,0-5.6c0.2-0.2,0.4-0.2,0.6,0s0.2,0.4,0,0.6c-1.2,1.2-1.2,3.2,0,4.4c0.2,0.2,0.2,0.4,0,0.6
				S195.5,103.5,195.3,103.3z"/>
			<path d="M183.2,110.4c-0.2-0.2-0.2-0.4,0-0.6c1.5-1.5,4-1.5,5.6,0c0.2,0.2,0.2,0.4,0,0.6s-0.4,0.2-0.6,0c-1.2-1.2-3.2-1.2-4.4,0
				C183.6,110.6,183.3,110.6,183.2,110.4z"/>
			<path d="M174.2,82.2c-0.2-0.2-0.2-0.4,0-0.6s0.4-0.2,0.6,0c1.2,1.2,3.2,1.2,4.4,0c0.2-0.2,0.4-0.2,0.6,0c0.2,0.2,0.2,0.4,0,0.6
				C178.2,83.7,175.7,83.7,174.2,82.2z"/>
			<path d="M167,94.3c-0.2-0.2-0.2-0.4,0-0.6c1.2-1.2,1.2-3.2,0-4.4c-0.2-0.2-0.2-0.4,0-0.6s0.4-0.2,0.6,0c1.5,1.5,1.5,4,0,5.6
				C167.5,94.5,167.2,94.5,167,94.3z"/>
		</g>
		<path d="M183.1,99.6c-0.1-0.4-0.4-0.5-0.6-0.4c-1.2,0.5-2.5,0.2-3.2-0.6c-0.8-0.8-1-1.9-0.7-3l1.6,1.6c0.2,0.2,0.5,0.2,0.7,0
			c0.2-0.2,0.2-0.5,0-0.7l-1.9-1.9c0.2-0.2,0.3-0.5,0.6-0.7c0.2-0.2,0.4-0.4,0.6-0.5l1.9,1.9c0.2,0.2,0.5,0.2,0.7,0
			c0.2-0.2,0.2-0.5,0-0.7l-1.7-1.7c1.1-0.3,2.3-0.1,3.1,0.7c0.8,0.8,1.1,2,0.6,3.2c0,0.3,0.1,0.5,0.4,0.6c0.3,0,0.5-0.1,0.6-0.4
			c0.6-1.6,0.3-3.2-0.8-4.3c-1.2-1.2-3.1-1.4-4.6-0.7l-0.8-0.8c-0.2-0.2-0.5-0.2-0.7,0s-0.2,0.5,0,0.7l0.6,0.6
			c-0.2,0.1-0.4,0.3-0.5,0.4c-0.2,0.2-0.4,0.5-0.6,0.8l-0.6-0.6c-0.2-0.2-0.5-0.2-0.7,0s-0.2,0.5,0,0.7l0.9,0.9
			c-0.6,1.5-0.3,3.2,0.8,4.3c1.1,1.1,2.7,1.4,4.1,0.9C183.1,100.2,183.2,99.9,183.1,99.6z"/>
	</g>
	<g>
		<g>
			<path d="M81,13.3L59.9,34.4c-0.2,0.2-0.4,0.2-0.6,0L47.1,22.3c-0.2-0.2-0.2-0.4,0-0.6L68.3,0.6c0.2-0.2,0.4-0.2,0.6,0L81,12.7
				C81.1,12.9,81.1,13.2,81,13.3z M59.6,33.6L80.1,13L68.5,1.5L48,22L59.6,33.6z"/>
			<path d="M71.3,3.7c-1.5,1.5-4,1.5-5.6,0c-0.2-0.2-0.2-0.4,0-0.6c0.2-0.2,0.4-0.2,0.6,0c1.2,1.2,3.2,1.2,4.4,0
				c0.2-0.2,0.4-0.2,0.6,0C71.5,3.3,71.5,3.5,71.3,3.7z"/>
			<path d="M78.5,15.8c-0.2,0.2-0.4,0.2-0.6,0c-1.5-1.5-1.5-4,0-5.6c0.2-0.2,0.4-0.2,0.6,0c0.2,0.2,0.2,0.4,0,0.6
				c-1.2,1.2-1.2,3.2,0,4.4C78.7,15.4,78.7,15.7,78.5,15.8z"/>
			<path d="M50.2,24.8c-0.2,0.2-0.4,0.2-0.6,0c-0.2-0.2-0.2-0.4,0-0.6c1.2-1.2,1.2-3.2,0-4.4c-0.2-0.2-0.2-0.4,0-0.6
				c0.2-0.2,0.4-0.2,0.6,0C51.8,20.8,51.8,23.3,50.2,24.8z"/>
			<path d="M62.4,32c-0.2,0.2-0.4,0.2-0.6,0c-1.2-1.2-3.2-1.2-4.4,0c-0.2,0.2-0.4,0.2-0.6,0c-0.2-0.2-0.2-0.4,0-0.6
				c1.5-1.5,4-1.5,5.6,0C62.5,31.5,62.5,31.8,62.4,32z"/>
		</g>
		<path d="M67.7,15.9c-0.4,0.1-0.5,0.4-0.4,0.6c0.5,1.2,0.2,2.5-0.6,3.2c-0.8,0.8-1.9,1-3,0.7l1.6-1.6c0.2-0.2,0.2-0.5,0-0.7
			s-0.5-0.2-0.7,0L62.8,20c-0.2-0.2-0.5-0.3-0.7-0.6c-0.2-0.2-0.4-0.4-0.5-0.6l1.9-1.9c0.2-0.2,0.2-0.5,0-0.7
			c-0.2-0.2-0.5-0.2-0.7,0l-1.7,1.7c-0.3-1.1-0.1-2.3,0.7-3.1c0.8-0.8,2-1.1,3.2-0.6c0.3,0,0.5-0.1,0.6-0.4c0-0.3-0.1-0.5-0.4-0.6
			c-1.6-0.6-3.2-0.3-4.3,0.8c-1.2,1.2-1.4,3.1-0.7,4.6l-0.8,0.8c-0.2,0.2-0.2,0.5,0,0.7s0.5,0.2,0.7,0l0.6-0.6
			c0.1,0.2,0.3,0.4,0.4,0.5c0.2,0.2,0.5,0.4,0.8,0.6l-0.6,0.6c-0.2,0.2-0.2,0.5,0,0.7s0.5,0.2,0.7,0l0.9-0.9
			c1.5,0.6,3.2,0.3,4.3-0.8c1.1-1.1,1.4-2.7,0.9-4.1C68.2,15.9,67.9,15.8,67.7,15.9z"/>
	</g>
	<g>
		<g>
			<path d="M127.9,13.3l-21.1,21.1c-0.2,0.2-0.4,0.2-0.6,0L94.1,22.3c-0.2-0.2-0.2-0.4,0-0.6l21.1-21.1c0.2-0.2,0.4-0.2,0.6,0
				l12.1,12.1C128.1,12.9,128.1,13.2,127.9,13.3z M106.5,33.6L127,13L115.5,1.5L95,22L106.5,33.6z"/>
			<path d="M118.3,3.7c-1.5,1.5-4,1.5-5.6,0c-0.2-0.2-0.2-0.4,0-0.6c0.2-0.2,0.4-0.2,0.6,0c1.2,1.2,3.2,1.2,4.4,0
				c0.2-0.2,0.4-0.2,0.6,0C118.4,3.3,118.4,3.5,118.3,3.7z"/>
			<path d="M125.4,15.8c-0.2,0.2-0.4,0.2-0.6,0c-1.5-1.5-1.5-4,0-5.6c0.2-0.2,0.4-0.2,0.6,0c0.2,0.2,0.2,0.4,0,0.6
				c-1.2,1.2-1.2,3.2,0,4.4C125.6,15.4,125.6,15.7,125.4,15.8z"/>
			<path d="M97.2,24.8c-0.2,0.2-0.4,0.2-0.6,0s-0.2-0.4,0-0.6c1.2-1.2,1.2-3.2,0-4.4c-0.2-0.2-0.2-0.4,0-0.6s0.4-0.2,0.6,0
				C98.7,20.8,98.7,23.3,97.2,24.8z"/>
			<path d="M109.3,32c-0.2,0.2-0.4,0.2-0.6,0c-1.2-1.2-3.2-1.2-4.4,0c-0.2,0.2-0.4,0.2-0.6,0c-0.2-0.2-0.2-0.4,0-0.6
				c1.5-1.5,4-1.5,5.6,0C109.4,31.5,109.4,31.8,109.3,32z"/>
		</g>
		<path d="M114.6,15.9c-0.4,0.1-0.5,0.4-0.4,0.6c0.5,1.2,0.2,2.5-0.6,3.2c-0.8,0.8-1.9,1-3,0.7l1.6-1.6c0.2-0.2,0.2-0.5,0-0.7
			s-0.5-0.2-0.7,0l-1.9,1.9c-0.2-0.2-0.5-0.3-0.7-0.6c-0.2-0.2-0.4-0.4-0.5-0.6l1.9-1.9c0.2-0.2,0.2-0.5,0-0.7
			c-0.2-0.2-0.5-0.2-0.7,0l-1.7,1.7c-0.3-1.1-0.1-2.3,0.7-3.1c0.8-0.8,2-1.1,3.2-0.6c0.3,0,0.5-0.1,0.6-0.4c0-0.3-0.1-0.5-0.4-0.6
			c-1.6-0.6-3.2-0.3-4.3,0.8c-1.2,1.2-1.4,3.1-0.7,4.6l-0.8,0.8c-0.2,0.2-0.2,0.5,0,0.7s0.5,0.2,0.7,0l0.6-0.6
			c0.1,0.2,0.3,0.4,0.4,0.5c0.2,0.2,0.5,0.4,0.8,0.6l-0.6,0.6c-0.2,0.2-0.2,0.5,0,0.7s0.5,0.2,0.7,0l0.9-0.9
			c1.5,0.6,3.2,0.3,4.3-0.8c1.1-1.1,1.4-2.7,0.9-4.1C115.2,15.9,114.9,15.8,114.6,15.9z"/>
	</g>
	<g>
		<g>
			<path d="M174.9,13.3l-21.1,21.1c-0.2,0.2-0.4,0.2-0.6,0l-12.1-12.1c-0.2-0.2-0.2-0.4,0-0.6l21.1-21.1c0.2-0.2,0.4-0.2,0.6,0
				l12.1,12.1C175.1,12.9,175.1,13.2,174.9,13.3z M153.5,33.6L174,13L162.5,1.5L142,22L153.5,33.6z"/>
			<path d="M165.3,3.7c-1.5,1.5-4,1.5-5.6,0c-0.2-0.2-0.2-0.4,0-0.6c0.2-0.2,0.4-0.2,0.6,0c1.2,1.2,3.2,1.2,4.4,0
				c0.2-0.2,0.4-0.2,0.6,0C165.4,3.3,165.4,3.5,165.3,3.7z"/>
			<path d="M172.4,15.8c-0.2,0.2-0.4,0.2-0.6,0c-1.5-1.5-1.5-4,0-5.6c0.2-0.2,0.4-0.2,0.6,0c0.2,0.2,0.2,0.4,0,0.6
				c-1.2,1.2-1.2,3.2,0,4.4C172.6,15.4,172.6,15.7,172.4,15.8z"/>
			<path d="M144.2,24.8c-0.2,0.2-0.4,0.2-0.6,0s-0.2-0.4,0-0.6c1.2-1.2,1.2-3.2,0-4.4c-0.2-0.2-0.2-0.4,0-0.6s0.4-0.2,0.6,0
				C145.7,20.8,145.7,23.3,144.2,24.8z"/>
			<path d="M156.3,32c-0.2,0.2-0.4,0.2-0.6,0c-1.2-1.2-3.2-1.2-4.4,0c-0.2,0.2-0.4,0.2-0.6,0c-0.2-0.2-0.2-0.4,0-0.6
				c1.5-1.5,4-1.5,5.6,0C156.5,31.5,156.5,31.8,156.3,32z"/>
		</g>
		<path d="M161.6,15.9c-0.4,0.1-0.5,0.4-0.4,0.6c0.5,1.2,0.2,2.5-0.6,3.2c-0.8,0.8-1.9,1-3,0.7l1.6-1.6c0.2-0.2,0.2-0.5,0-0.7
			s-0.5-0.2-0.7,0l-1.9,1.9c-0.2-0.2-0.5-0.3-0.7-0.6c-0.2-0.2-0.4-0.4-0.5-0.6l1.9-1.9c0.2-0.2,0.2-0.5,0-0.7
			c-0.2-0.2-0.5-0.2-0.7,0l-1.7,1.7c-0.3-1.1-0.1-2.3,0.7-3.1c0.8-0.8,2-1.1,3.2-0.6c0.3,0,0.5-0.1,0.6-0.4c0-0.3-0.1-0.5-0.4-0.6
			c-1.6-0.6-3.2-0.3-4.3,0.8c-1.2,1.2-1.4,3.1-0.7,4.6l-0.8,0.8c-0.2,0.2-0.2,0.5,0,0.7s0.5,0.2,0.7,0l0.6-0.6
			c0.1,0.2,0.3,0.4,0.4,0.5c0.2,0.2,0.5,0.4,0.8,0.6l-0.6,0.6c-0.2,0.2-0.2,0.5,0,0.7s0.5,0.2,0.7,0l0.9-0.9
			c1.5,0.6,3.2,0.3,4.3-0.8c1.1-1.1,1.4-2.7,0.9-4.1C162.2,15.9,161.9,15.8,161.6,15.9z"/>
	</g>
	<g>
		<g>
			<path d="M34,65.4L12.8,86.5c-0.2,0.2-0.4,0.2-0.6,0L0.1,74.3c-0.2-0.2-0.2-0.4,0-0.6l21.1-21.1c0.2-0.2,0.4-0.2,0.6,0L34,64.8
				C34.1,64.9,34.1,65.2,34,65.4z M12.6,85.6l20.5-20.5L21.5,53.5L1,74L12.6,85.6z"/>
			<path d="M24.3,55.7c-1.5,1.5-4,1.5-5.6,0c-0.2-0.2-0.2-0.4,0-0.6s0.4-0.2,0.6,0c1.2,1.2,3.2,1.2,4.4,0c0.2-0.2,0.4-0.2,0.6,0
				C24.5,55.3,24.5,55.6,24.3,55.7z"/>
			<path d="M31.5,67.9c-0.2,0.2-0.4,0.2-0.6,0c-1.5-1.5-1.5-4,0-5.6c0.2-0.2,0.4-0.2,0.6,0c0.2,0.2,0.2,0.4,0,0.6
				c-1.2,1.2-1.2,3.2,0,4.4C31.6,67.4,31.6,67.7,31.5,67.9z"/>
			<path d="M3.2,76.8C3,77,2.8,77,2.6,76.8c-0.2-0.2-0.2-0.4,0-0.6c1.2-1.2,1.2-3.2,0-4.4c-0.2-0.2-0.2-0.4,0-0.6
				c0.2-0.2,0.4-0.2,0.6,0C4.7,72.8,4.7,75.3,3.2,76.8z"/>
			<path d="M15.3,84c-0.2,0.2-0.4,0.2-0.6,0c-1.2-1.2-3.2-1.2-4.4,0c-0.2,0.2-0.4,0.2-0.6,0s-0.2-0.4,0-0.6c1.5-1.5,4-1.5,5.6,0
				C15.5,83.6,15.5,83.8,15.3,84z"/>
		</g>
		<path d="M20.6,67.9c-0.4,0.1-0.5,0.4-0.4,0.6c0.5,1.2,0.2,2.5-0.6,3.2c-0.8,0.8-1.9,1-3,0.7l1.6-1.6c0.2-0.2,0.2-0.5,0-0.7
			s-0.5-0.2-0.7,0l-1.9,1.9c-0.2-0.2-0.5-0.3-0.7-0.6c-0.2-0.2-0.4-0.4-0.5-0.6l1.9-1.9c0.2-0.2,0.2-0.5,0-0.7
			c-0.2-0.2-0.5-0.2-0.7,0l-1.7,1.7c-0.3-1.1-0.1-2.3,0.7-3.1c0.8-0.8,2-1.1,3.2-0.6c0.3,0,0.5-0.1,0.6-0.4c0-0.3-0.1-0.5-0.4-0.6
			c-1.6-0.6-3.2-0.3-4.3,0.8c-1.2,1.2-1.4,3.1-0.7,4.6l-0.8,0.8c-0.2,0.2-0.2,0.5,0,0.7c0.2,0.2,0.5,0.2,0.7,0l0.6-0.6
			c0.1,0.2,0.3,0.4,0.4,0.5c0.2,0.2,0.5,0.4,0.8,0.6l-0.6,0.6c-0.2,0.2-0.2,0.5,0,0.7c0.2,0.2,0.5,0.2,0.7,0l0.9-0.9
			c1.5,0.6,3.2,0.3,4.3-0.8c1.1-1.1,1.4-2.7,0.9-4.1C21.2,67.9,20.9,67.8,20.6,67.9z"/>
	</g>
	<g>
		<g>
			<path d="M81,65.4L59.9,86.5c-0.2,0.2-0.4,0.2-0.6,0L47.1,74.3c-0.2-0.2-0.2-0.4,0-0.6l21.1-21.1c0.2-0.2,0.4-0.2,0.6,0L81,64.8
				C81.1,64.9,81.1,65.2,81,65.4z M59.6,85.6l20.5-20.5L68.5,53.5L48,74L59.6,85.6z"/>
			<path d="M71.3,55.7c-1.5,1.5-4,1.5-5.6,0c-0.2-0.2-0.2-0.4,0-0.6c0.2-0.2,0.4-0.2,0.6,0c1.2,1.2,3.2,1.2,4.4,0
				c0.2-0.2,0.4-0.2,0.6,0C71.5,55.3,71.5,55.6,71.3,55.7z"/>
			<path d="M78.5,67.9c-0.2,0.2-0.4,0.2-0.6,0c-1.5-1.5-1.5-4,0-5.6c0.2-0.2,0.4-0.2,0.6,0c0.2,0.2,0.2,0.4,0,0.6
				c-1.2,1.2-1.2,3.2,0,4.4C78.7,67.4,78.7,67.7,78.5,67.9z"/>
			<path d="M50.2,76.8c-0.2,0.2-0.4,0.2-0.6,0c-0.2-0.2-0.2-0.4,0-0.6c1.2-1.2,1.2-3.2,0-4.4c-0.2-0.2-0.2-0.4,0-0.6
				c0.2-0.2,0.4-0.2,0.6,0C51.8,72.8,51.8,75.3,50.2,76.8z"/>
			<path d="M62.4,84c-0.2,0.2-0.4,0.2-0.6,0c-1.2-1.2-3.2-1.2-4.4,0c-0.2,0.2-0.4,0.2-0.6,0s-0.2-0.4,0-0.6c1.5-1.5,4-1.5,5.6,0
				C62.5,83.6,62.5,83.8,62.4,84z"/>
		</g>
		<path d="M67.7,67.9c-0.4,0.1-0.5,0.4-0.4,0.6c0.5,1.2,0.2,2.5-0.6,3.2c-0.8,0.8-1.9,1-3,0.7l1.6-1.6c0.2-0.2,0.2-0.5,0-0.7
			s-0.5-0.2-0.7,0l-1.9,1.9c-0.2-0.2-0.5-0.3-0.7-0.6c-0.2-0.2-0.4-0.4-0.5-0.6l1.9-1.9c0.2-0.2,0.2-0.5,0-0.7
			c-0.2-0.2-0.5-0.2-0.7,0l-1.7,1.7c-0.3-1.1-0.1-2.3,0.7-3.1c0.8-0.8,2-1.1,3.2-0.6c0.3,0,0.5-0.1,0.6-0.4c0-0.3-0.1-0.5-0.4-0.6
			c-1.6-0.6-3.2-0.3-4.3,0.8c-1.2,1.2-1.4,3.1-0.7,4.6l-0.8,0.8c-0.2,0.2-0.2,0.5,0,0.7s0.5,0.2,0.7,0l0.6-0.6
			c0.1,0.2,0.3,0.4,0.4,0.5c0.2,0.2,0.5,0.4,0.8,0.6l-0.6,0.6c-0.2,0.2-0.2,0.5,0,0.7s0.5,0.2,0.7,0l0.9-0.9
			c1.5,0.6,3.2,0.3,4.3-0.8c1.1-1.1,1.4-2.7,0.9-4.1C68.2,67.9,67.9,67.8,67.7,67.9z"/>
	</g>
	<g>
		<g>
			<path d="M127.9,65.4l-21.1,21.1c-0.2,0.2-0.4,0.2-0.6,0L94.1,74.3c-0.2-0.2-0.2-0.4,0-0.6l21.1-21.1c0.2-0.2,0.4-0.2,0.6,0
				l12.1,12.1C128.1,64.9,128.1,65.2,127.9,65.4z M106.5,85.6L127,65.1l-11.5-11.5L95,74L106.5,85.6z"/>
			<path d="M118.3,55.7c-1.5,1.5-4,1.5-5.6,0c-0.2-0.2-0.2-0.4,0-0.6s0.4-0.2,0.6,0c1.2,1.2,3.2,1.2,4.4,0c0.2-0.2,0.4-0.2,0.6,0
				C118.4,55.3,118.4,55.6,118.3,55.7z"/>
			<path d="M125.4,67.9c-0.2,0.2-0.4,0.2-0.6,0c-1.5-1.5-1.5-4,0-5.6c0.2-0.2,0.4-0.2,0.6,0c0.2,0.2,0.2,0.4,0,0.6
				c-1.2,1.2-1.2,3.2,0,4.4C125.6,67.4,125.6,67.7,125.4,67.9z"/>
			<path d="M97.2,76.8c-0.2,0.2-0.4,0.2-0.6,0c-0.2-0.2-0.2-0.4,0-0.6c1.2-1.2,1.2-3.2,0-4.4c-0.2-0.2-0.2-0.4,0-0.6s0.4-0.2,0.6,0
				C98.7,72.8,98.7,75.3,97.2,76.8z"/>
			<path d="M109.3,84c-0.2,0.2-0.4,0.2-0.6,0c-1.2-1.2-3.2-1.2-4.4,0c-0.2,0.2-0.4,0.2-0.6,0c-0.2-0.2-0.2-0.4,0-0.6
				c1.5-1.5,4-1.5,5.6,0C109.4,83.6,109.4,83.8,109.3,84z"/>
		</g>
		<path d="M114.6,67.9c-0.4,0.1-0.5,0.4-0.4,0.6c0.5,1.2,0.2,2.5-0.6,3.2c-0.8,0.8-1.9,1-3,0.7l1.6-1.6c0.2-0.2,0.2-0.5,0-0.7
			s-0.5-0.2-0.7,0l-1.9,1.9c-0.2-0.2-0.5-0.3-0.7-0.6c-0.2-0.2-0.4-0.4-0.5-0.6l1.9-1.9c0.2-0.2,0.2-0.5,0-0.7
			c-0.2-0.2-0.5-0.2-0.7,0l-1.7,1.7c-0.3-1.1-0.1-2.3,0.7-3.1c0.8-0.8,2-1.1,3.2-0.6c0.3,0,0.5-0.1,0.6-0.4c0-0.3-0.1-0.5-0.4-0.6
			c-1.6-0.6-3.2-0.3-4.3,0.8c-1.2,1.2-1.4,3.1-0.7,4.6l-0.8,0.8c-0.2,0.2-0.2,0.5,0,0.7s0.5,0.2,0.7,0l0.6-0.6
			c0.1,0.2,0.3,0.4,0.4,0.5c0.2,0.2,0.5,0.4,0.8,0.6l-0.6,0.6c-0.2,0.2-0.2,0.5,0,0.7s0.5,0.2,0.7,0l0.9-0.9
			c1.5,0.6,3.2,0.3,4.3-0.8c1.1-1.1,1.4-2.7,0.9-4.1C115.2,67.9,114.9,67.8,114.6,67.9z"/>
	</g>
	<g>
		<g>
			<path d="M174.9,65.4l-21.1,21.1c-0.2,0.2-0.4,0.2-0.6,0l-12.1-12.1c-0.2-0.2-0.2-0.4,0-0.6l21.1-21.1c0.2-0.2,0.4-0.2,0.6,0
				l12.1,12.1C175.1,64.9,175.1,65.2,174.9,65.4z M153.5,85.6L174,65.1l-11.5-11.5L142,74L153.5,85.6z"/>
			<path d="M165.3,55.7c-1.5,1.5-4,1.5-5.6,0c-0.2-0.2-0.2-0.4,0-0.6s0.4-0.2,0.6,0c1.2,1.2,3.2,1.2,4.4,0c0.2-0.2,0.4-0.2,0.6,0
				C165.4,55.3,165.4,55.6,165.3,55.7z"/>
			<path d="M172.4,67.9c-0.2,0.2-0.4,0.2-0.6,0c-1.5-1.5-1.5-4,0-5.6c0.2-0.2,0.4-0.2,0.6,0c0.2,0.2,0.2,0.4,0,0.6
				c-1.2,1.2-1.2,3.2,0,4.4C172.6,67.4,172.6,67.7,172.4,67.9z"/>
			<path d="M144.2,76.8c-0.2,0.2-0.4,0.2-0.6,0c-0.2-0.2-0.2-0.4,0-0.6c1.2-1.2,1.2-3.2,0-4.4c-0.2-0.2-0.2-0.4,0-0.6s0.4-0.2,0.6,0
				C145.7,72.8,145.7,75.3,144.2,76.8z"/>
			<path d="M156.3,84c-0.2,0.2-0.4,0.2-0.6,0c-1.2-1.2-3.2-1.2-4.4,0c-0.2,0.2-0.4,0.2-0.6,0s-0.2-0.4,0-0.6c1.5-1.5,4-1.5,5.6,0
				C156.5,83.6,156.5,83.8,156.3,84z"/>
		</g>
		<path d="M161.6,67.9c-0.4,0.1-0.5,0.4-0.4,0.6c0.5,1.2,0.2,2.5-0.6,3.2c-0.8,0.8-1.9,1-3,0.7l1.6-1.6c0.2-0.2,0.2-0.5,0-0.7
			s-0.5-0.2-0.7,0l-1.9,1.9c-0.2-0.2-0.5-0.3-0.7-0.6c-0.2-0.2-0.4-0.4-0.5-0.6l1.9-1.9c0.2-0.2,0.2-0.5,0-0.7
			c-0.2-0.2-0.5-0.2-0.7,0l-1.7,1.7c-0.3-1.1-0.1-2.3,0.7-3.1c0.8-0.8,2-1.1,3.2-0.6c0.3,0,0.5-0.1,0.6-0.4c0-0.3-0.1-0.5-0.4-0.6
			c-1.6-0.6-3.2-0.3-4.3,0.8c-1.2,1.2-1.4,3.1-0.7,4.6l-0.8,0.8c-0.2,0.2-0.2,0.5,0,0.7s0.5,0.2,0.7,0l0.6-0.6
			c0.1,0.2,0.3,0.4,0.4,0.5c0.2,0.2,0.5,0.4,0.8,0.6l-0.6,0.6c-0.2,0.2-0.2,0.5,0,0.7s0.5,0.2,0.7,0l0.9-0.9
			c1.5,0.6,3.2,0.3,4.3-0.8c1.1-1.1,1.4-2.7,0.9-4.1C162.2,67.9,161.9,67.8,161.6,67.9z"/>
	</g>
	<g>
		<g>
			<path d="M34,117.4l-21.1,21.1c-0.2,0.2-0.4,0.2-0.6,0L0.1,126.4c-0.2-0.2-0.2-0.4,0-0.6l21.1-21.1c0.2-0.2,0.4-0.2,0.6,0
				L34,116.8C34.1,117,34.1,117.2,34,117.4z M12.6,137.6l20.5-20.5l-11.5-11.5L1,126.1L12.6,137.6z"/>
			<path d="M24.3,107.8c-1.5,1.5-4,1.5-5.6,0c-0.2-0.2-0.2-0.4,0-0.6s0.4-0.2,0.6,0c1.2,1.2,3.2,1.2,4.4,0c0.2-0.2,0.4-0.2,0.6,0
				C24.5,107.3,24.5,107.6,24.3,107.8z"/>
			<path d="M31.5,119.9c-0.2,0.2-0.4,0.2-0.6,0c-1.5-1.5-1.5-4,0-5.6c0.2-0.2,0.4-0.2,0.6,0c0.2,0.2,0.2,0.4,0,0.6
				c-1.2,1.2-1.2,3.2,0,4.4C31.6,119.5,31.6,119.7,31.5,119.9z"/>
			<path d="M3.2,128.9c-0.2,0.2-0.4,0.2-0.6,0c-0.2-0.2-0.2-0.4,0-0.6c1.2-1.2,1.2-3.2,0-4.4c-0.2-0.2-0.2-0.4,0-0.6
				c0.2-0.2,0.4-0.2,0.6,0C4.7,124.8,4.7,127.3,3.2,128.9z"/>
			<path d="M15.3,136c-0.2,0.2-0.4,0.2-0.6,0c-1.2-1.2-3.2-1.2-4.4,0c-0.2,0.2-0.4,0.2-0.6,0s-0.2-0.4,0-0.6c1.5-1.5,4-1.5,5.6,0
				C15.5,135.6,15.5,135.8,15.3,136z"/>
		</g>
		<path d="M20.6,120c-0.4,0.1-0.5,0.4-0.4,0.6c0.5,1.2,0.2,2.5-0.6,3.2c-0.8,0.8-1.9,1-3,0.7l1.6-1.6c0.2-0.2,0.2-0.5,0-0.7
			s-0.5-0.2-0.7,0l-1.9,1.9c-0.2-0.2-0.5-0.3-0.7-0.6c-0.2-0.2-0.4-0.4-0.5-0.6l1.9-1.9c0.2-0.2,0.2-0.5,0-0.7
			c-0.2-0.2-0.5-0.2-0.7,0l-1.7,1.7c-0.3-1.1-0.1-2.3,0.7-3.1c0.8-0.8,2-1.1,3.2-0.6c0.3,0,0.5-0.1,0.6-0.4c0-0.3-0.1-0.5-0.4-0.6
			c-1.6-0.6-3.2-0.3-4.3,0.8c-1.2,1.2-1.4,3.1-0.7,4.6l-0.8,0.8c-0.2,0.2-0.2,0.5,0,0.7c0.2,0.2,0.5,0.2,0.7,0l0.6-0.6
			c0.1,0.2,0.3,0.4,0.4,0.5c0.2,0.2,0.5,0.4,0.8,0.6l-0.6,0.6c-0.2,0.2-0.2,0.5,0,0.7c0.2,0.2,0.5,0.2,0.7,0l0.9-0.9
			c1.5,0.6,3.2,0.3,4.3-0.8c1.1-1.1,1.4-2.7,0.9-4.1C21.2,120,20.9,119.8,20.6,120z"/>
	</g>
	<g>
		<g>
			<path d="M45.1,164.4L24,143.3c-0.2-0.2-0.2-0.4,0-0.6l12.1-12.1c0.2-0.2,0.4-0.2,0.6,0l21.1,21.1c0.2,0.2,0.2,0.4,0,0.6
				l-12.1,12.1C45.5,164.6,45.3,164.6,45.1,164.4z M24.9,143l20.5,20.5L56.9,152l-20.5-20.5L24.9,143z"/>
			<path d="M54.7,154.8c-1.5-1.5-1.5-4,0-5.6c0.2-0.2,0.4-0.2,0.6,0c0.2,0.2,0.2,0.4,0,0.6c-1.2,1.2-1.2,3.2,0,4.4
				c0.2,0.2,0.2,0.4,0,0.6C55.2,154.9,54.9,154.9,54.7,154.8z"/>
			<path d="M42.6,161.9c-0.2-0.2-0.2-0.4,0-0.6c1.5-1.5,4-1.5,5.6,0c0.2,0.2,0.2,0.4,0,0.6s-0.4,0.2-0.6,0c-1.2-1.2-3.2-1.2-4.4,0
				C43,162.1,42.8,162.1,42.6,161.9z"/>
			<path d="M33.6,133.7c-0.2-0.2-0.2-0.4,0-0.6c0.2-0.2,0.4-0.2,0.6,0c1.2,1.2,3.2,1.2,4.4,0c0.2-0.2,0.4-0.2,0.6,0
				c0.2,0.2,0.2,0.4,0,0.6C37.7,135.2,35.2,135.2,33.6,133.7z"/>
			<path d="M26.5,145.8c-0.2-0.2-0.2-0.4,0-0.6c1.2-1.2,1.2-3.2,0-4.4c-0.2-0.2-0.2-0.4,0-0.6c0.2-0.2,0.4-0.2,0.6,0
				c1.5,1.5,1.5,4,0,5.6C26.9,146,26.7,146,26.5,145.8z"/>
		</g>
		<path d="M42.5,151.1c-0.1-0.4-0.4-0.5-0.6-0.4c-1.2,0.5-2.5,0.2-3.2-0.6c-0.8-0.8-1-1.9-0.7-3l1.6,1.6c0.2,0.2,0.5,0.2,0.7,0
			s0.2-0.5,0-0.7l-1.9-1.9c0.2-0.2,0.3-0.5,0.6-0.7c0.2-0.2,0.4-0.4,0.6-0.5l1.9,1.9c0.2,0.2,0.5,0.2,0.7,0c0.2-0.2,0.2-0.5,0-0.7
			l-1.7-1.7c1.1-0.3,2.3-0.1,3.1,0.7c0.8,0.8,1.1,2,0.6,3.2c0,0.3,0.1,0.5,0.4,0.6c0.3,0,0.5-0.1,0.6-0.4c0.6-1.6,0.3-3.2-0.8-4.3
			c-1.2-1.2-3.1-1.4-4.6-0.7l-0.8-0.8c-0.2-0.2-0.5-0.2-0.7,0s-0.2,0.5,0,0.7l0.6,0.6c-0.2,0.1-0.4,0.3-0.5,0.4
			c-0.2,0.2-0.4,0.5-0.6,0.8l-0.6-0.6c-0.2-0.2-0.5-0.2-0.7,0s-0.2,0.5,0,0.7l0.9,0.9c-0.6,1.5-0.3,3.2,0.8,4.3
			c1.1,1.1,2.7,1.4,4.1,0.9C42.5,151.7,42.7,151.4,42.5,151.1z"/>
	</g>
	<g>
		<g>
			<path d="M91.7,164.4l-21.1-21.1c-0.2-0.2-0.2-0.4,0-0.6l12.1-12.1c0.2-0.2,0.4-0.2,0.6,0l21.1,21.1c0.2,0.2,0.2,0.4,0,0.6
				l-12.1,12.1C92.1,164.6,91.9,164.6,91.7,164.4z M71.5,143L92,163.5l11.5-11.5L83,131.5L71.5,143z"/>
			<path d="M101.4,154.8c-1.5-1.5-1.5-4,0-5.6c0.2-0.2,0.4-0.2,0.6,0s0.2,0.4,0,0.6c-1.2,1.2-1.2,3.2,0,4.4c0.2,0.2,0.2,0.4,0,0.6
				S101.5,154.9,101.4,154.8z"/>
			<path d="M89.2,161.9c-0.2-0.2-0.2-0.4,0-0.6c1.5-1.5,4-1.5,5.6,0c0.2,0.2,0.2,0.4,0,0.6c-0.2,0.2-0.4,0.2-0.6,0
				c-1.2-1.2-3.2-1.2-4.4,0C89.7,162.1,89.4,162.1,89.2,161.9z"/>
			<path d="M80.3,133.7c-0.2-0.2-0.2-0.4,0-0.6s0.4-0.2,0.6,0c1.2,1.2,3.2,1.2,4.4,0c0.2-0.2,0.4-0.2,0.6,0c0.2,0.2,0.2,0.4,0,0.6
				C84.3,135.2,81.8,135.2,80.3,133.7z"/>
			<path d="M73.1,145.8c-0.2-0.2-0.2-0.4,0-0.6c1.2-1.2,1.2-3.2,0-4.4c-0.2-0.2-0.2-0.4,0-0.6c0.2-0.2,0.4-0.2,0.6,0
				c1.5,1.5,1.5,4,0,5.6C73.5,146,73.3,146,73.1,145.8z"/>
		</g>
		<path d="M89.1,151.1c-0.1-0.4-0.4-0.5-0.6-0.4c-1.2,0.5-2.5,0.2-3.2-0.6c-0.8-0.8-1-1.9-0.7-3l1.6,1.6c0.2,0.2,0.5,0.2,0.7,0
			s0.2-0.5,0-0.7l-1.9-1.9c0.2-0.2,0.3-0.5,0.6-0.7c0.2-0.2,0.4-0.4,0.6-0.5l1.9,1.9c0.2,0.2,0.5,0.2,0.7,0c0.2-0.2,0.2-0.5,0-0.7
			l-1.7-1.7c1.1-0.3,2.3-0.1,3.1,0.7c0.8,0.8,1.1,2,0.6,3.2c0,0.3,0.1,0.5,0.4,0.6c0.3,0,0.5-0.1,0.6-0.4c0.6-1.6,0.3-3.2-0.8-4.3
			c-1.2-1.2-3.1-1.4-4.6-0.7l-0.8-0.8c-0.2-0.2-0.5-0.2-0.7,0s-0.2,0.5,0,0.7l0.6,0.6c-0.2,0.1-0.4,0.3-0.5,0.4
			c-0.2,0.2-0.4,0.5-0.6,0.8l-0.6-0.6c-0.2-0.2-0.5-0.2-0.7,0s-0.2,0.5,0,0.7l0.9,0.9c-0.6,1.5-0.3,3.2,0.8,4.3
			c1.1,1.1,2.7,1.4,4.1,0.9C89.1,151.7,89.3,151.4,89.1,151.1z"/>
	</g>
	<g>
		<g>
			<path d="M138.7,164.4l-21.1-21.1c-0.2-0.2-0.2-0.4,0-0.6l12.1-12.1c0.2-0.2,0.4-0.2,0.6,0l21.1,21.1c0.2,0.2,0.2,0.4,0,0.6
				l-12.1,12.1C139.1,164.6,138.8,164.6,138.7,164.4z M118.5,143l20.5,20.5l11.5-11.5L130,131.5L118.5,143z"/>
			<path d="M148.3,154.8c-1.5-1.5-1.5-4,0-5.6c0.2-0.2,0.4-0.2,0.6,0s0.2,0.4,0,0.6c-1.2,1.2-1.2,3.2,0,4.4c0.2,0.2,0.2,0.4,0,0.6
				S148.5,154.9,148.3,154.8z"/>
			<path d="M136.2,161.9c-0.2-0.2-0.2-0.4,0-0.6c1.5-1.5,4-1.5,5.6,0c0.2,0.2,0.2,0.4,0,0.6c-0.2,0.2-0.4,0.2-0.6,0
				c-1.2-1.2-3.2-1.2-4.4,0C136.6,162.1,136.4,162.1,136.2,161.9z"/>
			<path d="M127.2,133.7c-0.2-0.2-0.2-0.4,0-0.6c0.2-0.2,0.4-0.2,0.6,0c1.2,1.2,3.2,1.2,4.4,0c0.2-0.2,0.4-0.2,0.6,0
				c0.2,0.2,0.2,0.4,0,0.6C131.3,135.2,128.8,135.2,127.2,133.7z"/>
			<path d="M120.1,145.8c-0.2-0.2-0.2-0.4,0-0.6c1.2-1.2,1.2-3.2,0-4.4c-0.2-0.2-0.2-0.4,0-0.6s0.4-0.2,0.6,0c1.5,1.5,1.5,4,0,5.6
				C120.5,146,120.2,146,120.1,145.8z"/>
		</g>
		<path d="M136.1,151.1c-0.1-0.4-0.4-0.5-0.6-0.4c-1.2,0.5-2.5,0.2-3.2-0.6c-0.8-0.8-1-1.9-0.7-3l1.6,1.6c0.2,0.2,0.5,0.2,0.7,0
			s0.2-0.5,0-0.7l-1.9-1.9c0.2-0.2,0.3-0.5,0.6-0.7c0.2-0.2,0.4-0.4,0.6-0.5l1.9,1.9c0.2,0.2,0.5,0.2,0.7,0c0.2-0.2,0.2-0.5,0-0.7
			l-1.7-1.7c1.1-0.3,2.3-0.1,3.1,0.7c0.8,0.8,1.1,2,0.6,3.2c0,0.3,0.1,0.5,0.4,0.6c0.3,0,0.5-0.1,0.6-0.4c0.6-1.6,0.3-3.2-0.8-4.3
			c-1.2-1.2-3.1-1.4-4.6-0.7l-0.8-0.8c-0.2-0.2-0.5-0.2-0.7,0s-0.2,0.5,0,0.7l0.6,0.6c-0.2,0.1-0.4,0.3-0.5,0.4
			c-0.2,0.2-0.4,0.5-0.6,0.8l-0.6-0.6c-0.2-0.2-0.5-0.2-0.7,0s-0.2,0.5,0,0.7l0.9,0.9c-0.6,1.5-0.3,3.2,0.8,4.3
			c1.1,1.1,2.7,1.4,4.1,0.9C136.1,151.7,136.3,151.4,136.1,151.1z"/>
	</g>
	<g>
		<g>
			<path d="M185.7,164.4l-21.1-21.1c-0.2-0.2-0.2-0.4,0-0.6l12.1-12.1c0.2-0.2,0.4-0.2,0.6,0l21.1,21.1c0.2,0.2,0.2,0.4,0,0.6
				l-12.1,12.1C186.1,164.6,185.8,164.6,185.7,164.4z M165.4,143l20.5,20.5l11.5-11.5L177,131.5L165.4,143z"/>
			<path d="M195.3,154.8c-1.5-1.5-1.5-4,0-5.6c0.2-0.2,0.4-0.2,0.6,0s0.2,0.4,0,0.6c-1.2,1.2-1.2,3.2,0,4.4c0.2,0.2,0.2,0.4,0,0.6
				S195.5,154.9,195.3,154.8z"/>
			<path d="M183.2,161.9c-0.2-0.2-0.2-0.4,0-0.6c1.5-1.5,4-1.5,5.6,0c0.2,0.2,0.2,0.4,0,0.6s-0.4,0.2-0.6,0c-1.2-1.2-3.2-1.2-4.4,0
				C183.6,162.1,183.3,162.1,183.2,161.9z"/>
			<path d="M174.2,133.7c-0.2-0.2-0.2-0.4,0-0.6s0.4-0.2,0.6,0c1.2,1.2,3.2,1.2,4.4,0c0.2-0.2,0.4-0.2,0.6,0c0.2,0.2,0.2,0.4,0,0.6
				C178.2,135.2,175.7,135.2,174.2,133.7z"/>
			<path d="M167,145.8c-0.2-0.2-0.2-0.4,0-0.6c1.2-1.2,1.2-3.2,0-4.4c-0.2-0.2-0.2-0.4,0-0.6s0.4-0.2,0.6,0c1.5,1.5,1.5,4,0,5.6
				C167.5,146,167.2,146,167,145.8z"/>
		</g>
		<path d="M183.1,151.1c-0.1-0.4-0.4-0.5-0.6-0.4c-1.2,0.5-2.5,0.2-3.2-0.6c-0.8-0.8-1-1.9-0.7-3l1.6,1.6c0.2,0.2,0.5,0.2,0.7,0
			c0.2-0.2,0.2-0.5,0-0.7l-1.9-1.9c0.2-0.2,0.3-0.5,0.6-0.7c0.2-0.2,0.4-0.4,0.6-0.5l1.9,1.9c0.2,0.2,0.5,0.2,0.7,0
			c0.2-0.2,0.2-0.5,0-0.7l-1.7-1.7c1.1-0.3,2.3-0.1,3.1,0.7c0.8,0.8,1.1,2,0.6,3.2c0,0.3,0.1,0.5,0.4,0.6c0.3,0,0.5-0.1,0.6-0.4
			c0.6-1.6,0.3-3.2-0.8-4.3c-1.2-1.2-3.1-1.4-4.6-0.7l-0.8-0.8c-0.2-0.2-0.5-0.2-0.7,0s-0.2,0.5,0,0.7l0.6,0.6
			c-0.2,0.1-0.4,0.3-0.5,0.4c-0.2,0.2-0.4,0.5-0.6,0.8l-0.6-0.6c-0.2-0.2-0.5-0.2-0.7,0s-0.2,0.5,0,0.7l0.9,0.9
			c-0.6,1.5-0.3,3.2,0.8,4.3c1.1,1.1,2.7,1.4,4.1,0.9C183.1,151.7,183.2,151.4,183.1,151.1z"/>
	</g>
	<g>
		<g>
			<path d="M45.1,215.9L24,194.8c-0.2-0.2-0.2-0.4,0-0.6L36.1,182c0.2-0.2,0.4-0.2,0.6,0l21.1,21.1c0.2,0.2,0.2,0.4,0,0.6
				l-12.1,12.1C45.5,216,45.3,216,45.1,215.9z M24.9,194.5L45.4,215l11.5-11.5l-20.5-20.5L24.9,194.5z"/>
			<path d="M54.7,206.2c-1.5-1.5-1.5-4,0-5.6c0.2-0.2,0.4-0.2,0.6,0c0.2,0.2,0.2,0.4,0,0.6c-1.2,1.2-1.2,3.2,0,4.4
				c0.2,0.2,0.2,0.4,0,0.6C55.2,206.4,54.9,206.4,54.7,206.2z"/>
			<path d="M42.6,213.4c-0.2-0.2-0.2-0.4,0-0.6c1.5-1.5,4-1.5,5.6,0c0.2,0.2,0.2,0.4,0,0.6s-0.4,0.2-0.6,0c-1.2-1.2-3.2-1.2-4.4,0
				C43,213.6,42.8,213.6,42.6,213.4z"/>
			<path d="M33.6,185.1c-0.2-0.2-0.2-0.4,0-0.6c0.2-0.2,0.4-0.2,0.6,0c1.2,1.2,3.2,1.2,4.4,0c0.2-0.2,0.4-0.2,0.6,0
				c0.2,0.2,0.2,0.4,0,0.6C37.7,186.7,35.2,186.7,33.6,185.1z"/>
			<path d="M26.5,197.3c-0.2-0.2-0.2-0.4,0-0.6c1.2-1.2,1.2-3.2,0-4.4c-0.2-0.2-0.2-0.4,0-0.6c0.2-0.2,0.4-0.2,0.6,0
				c1.5,1.5,1.5,4,0,5.6C26.9,197.4,26.7,197.4,26.5,197.3z"/>
		</g>
		<path d="M42.5,202.6c-0.1-0.4-0.4-0.5-0.6-0.4c-1.2,0.5-2.5,0.2-3.2-0.6c-0.8-0.8-1-1.9-0.7-3l1.6,1.6c0.2,0.2,0.5,0.2,0.7,0
			s0.2-0.5,0-0.7l-1.9-1.9c0.2-0.2,0.3-0.5,0.6-0.7c0.2-0.2,0.4-0.4,0.6-0.5l1.9,1.9c0.2,0.2,0.5,0.2,0.7,0c0.2-0.2,0.2-0.5,0-0.7
			l-1.7-1.7c1.1-0.3,2.3-0.1,3.1,0.7c0.8,0.8,1.1,2,0.6,3.2c0,0.3,0.1,0.5,0.4,0.6c0.3,0,0.5-0.1,0.6-0.4c0.6-1.6,0.3-3.2-0.8-4.3
			c-1.2-1.2-3.1-1.4-4.6-0.7l-0.8-0.8c-0.2-0.2-0.5-0.2-0.7,0s-0.2,0.5,0,0.7l0.6,0.6c-0.2,0.1-0.4,0.3-0.5,0.4
			c-0.2,0.2-0.4,0.5-0.6,0.8l-0.6-0.6c-0.2-0.2-0.5-0.2-0.7,0s-0.2,0.5,0,0.7l0.9,0.9c-0.6,1.5-0.3,3.2,0.8,4.3
			c1.1,1.1,2.7,1.4,4.1,0.9C42.5,203.1,42.7,202.8,42.5,202.6z"/>
	</g>
	<g>
		<g>
			<path d="M91.7,215.9l-21.1-21.1c-0.2-0.2-0.2-0.4,0-0.6L82.7,182c0.2-0.2,0.4-0.2,0.6,0l21.1,21.1c0.2,0.2,0.2,0.4,0,0.6
				l-12.1,12.1C92.1,216,91.9,216,91.7,215.9z M71.5,194.5L92,215l11.5-11.5L83,182.9L71.5,194.5z"/>
			<path d="M101.4,206.2c-1.5-1.5-1.5-4,0-5.6c0.2-0.2,0.4-0.2,0.6,0c0.2,0.2,0.2,0.4,0,0.6c-1.2,1.2-1.2,3.2,0,4.4
				c0.2,0.2,0.2,0.4,0,0.6S101.5,206.4,101.4,206.2z"/>
			<path d="M89.2,213.4c-0.2-0.2-0.2-0.4,0-0.6c1.5-1.5,4-1.5,5.6,0c0.2,0.2,0.2,0.4,0,0.6c-0.2,0.2-0.4,0.2-0.6,0
				c-1.2-1.2-3.2-1.2-4.4,0C89.7,213.6,89.4,213.6,89.2,213.4z"/>
			<path d="M80.3,185.1c-0.2-0.2-0.2-0.4,0-0.6s0.4-0.2,0.6,0c1.2,1.2,3.2,1.2,4.4,0c0.2-0.2,0.4-0.2,0.6,0c0.2,0.2,0.2,0.4,0,0.6
				C84.3,186.7,81.8,186.7,80.3,185.1z"/>
			<path d="M73.1,197.3c-0.2-0.2-0.2-0.4,0-0.6c1.2-1.2,1.2-3.2,0-4.4c-0.2-0.2-0.2-0.4,0-0.6c0.2-0.2,0.4-0.2,0.6,0
				c1.5,1.5,1.5,4,0,5.6C73.5,197.4,73.3,197.4,73.1,197.3z"/>
		</g>
		<path d="M89.1,202.6c-0.1-0.4-0.4-0.5-0.6-0.4c-1.2,0.5-2.5,0.2-3.2-0.6c-0.8-0.8-1-1.9-0.7-3l1.6,1.6c0.2,0.2,0.5,0.2,0.7,0
			s0.2-0.5,0-0.7l-1.9-1.9c0.2-0.2,0.3-0.5,0.6-0.7c0.2-0.2,0.4-0.4,0.6-0.5l1.9,1.9c0.2,0.2,0.5,0.2,0.7,0c0.2-0.2,0.2-0.5,0-0.7
			l-1.7-1.7c1.1-0.3,2.3-0.1,3.1,0.7c0.8,0.8,1.1,2,0.6,3.2c0,0.3,0.1,0.5,0.4,0.6c0.3,0,0.5-0.1,0.6-0.4c0.6-1.6,0.3-3.2-0.8-4.3
			c-1.2-1.2-3.1-1.4-4.6-0.7l-0.8-0.8c-0.2-0.2-0.5-0.2-0.7,0s-0.2,0.5,0,0.7l0.6,0.6c-0.2,0.1-0.4,0.3-0.5,0.4
			c-0.2,0.2-0.4,0.5-0.6,0.8l-0.6-0.6c-0.2-0.2-0.5-0.2-0.7,0s-0.2,0.5,0,0.7l0.9,0.9c-0.6,1.5-0.3,3.2,0.8,4.3
			c1.1,1.1,2.7,1.4,4.1,0.9C89.1,203.1,89.3,202.8,89.1,202.6z"/>
	</g>
	<g>
		<g>
			<path d="M138.7,215.9l-21.1-21.1c-0.2-0.2-0.2-0.4,0-0.6l12.1-12.1c0.2-0.2,0.4-0.2,0.6,0l21.1,21.1c0.2,0.2,0.2,0.4,0,0.6
				l-12.1,12.1C139.1,216,138.8,216,138.7,215.9z M118.5,194.5L139,215l11.5-11.5L130,182.9L118.5,194.5z"/>
			<path d="M148.3,206.2c-1.5-1.5-1.5-4,0-5.6c0.2-0.2,0.4-0.2,0.6,0c0.2,0.2,0.2,0.4,0,0.6c-1.2,1.2-1.2,3.2,0,4.4
				c0.2,0.2,0.2,0.4,0,0.6S148.5,206.4,148.3,206.2z"/>
			<path d="M136.2,213.4c-0.2-0.2-0.2-0.4,0-0.6c1.5-1.5,4-1.5,5.6,0c0.2,0.2,0.2,0.4,0,0.6c-0.2,0.2-0.4,0.2-0.6,0
				c-1.2-1.2-3.2-1.2-4.4,0C136.6,213.6,136.4,213.6,136.2,213.4z"/>
			<path d="M127.2,185.1c-0.2-0.2-0.2-0.4,0-0.6c0.2-0.2,0.4-0.2,0.6,0c1.2,1.2,3.2,1.2,4.4,0c0.2-0.2,0.4-0.2,0.6,0
				c0.2,0.2,0.2,0.4,0,0.6C131.3,186.7,128.8,186.7,127.2,185.1z"/>
			<path d="M120.1,197.3c-0.2-0.2-0.2-0.4,0-0.6c1.2-1.2,1.2-3.2,0-4.4c-0.2-0.2-0.2-0.4,0-0.6c0.2-0.2,0.4-0.2,0.6,0
				c1.5,1.5,1.5,4,0,5.6C120.5,197.4,120.2,197.4,120.1,197.3z"/>
		</g>
		<path d="M136.1,202.6c-0.1-0.4-0.4-0.5-0.6-0.4c-1.2,0.5-2.5,0.2-3.2-0.6c-0.8-0.8-1-1.9-0.7-3l1.6,1.6c0.2,0.2,0.5,0.2,0.7,0
			s0.2-0.5,0-0.7l-1.9-1.9c0.2-0.2,0.3-0.5,0.6-0.7c0.2-0.2,0.4-0.4,0.6-0.5l1.9,1.9c0.2,0.2,0.5,0.2,0.7,0c0.2-0.2,0.2-0.5,0-0.7
			l-1.7-1.7c1.1-0.3,2.3-0.1,3.1,0.7c0.8,0.8,1.1,2,0.6,3.2c0,0.3,0.1,0.5,0.4,0.6c0.3,0,0.5-0.1,0.6-0.4c0.6-1.6,0.3-3.2-0.8-4.3
			c-1.2-1.2-3.1-1.4-4.6-0.7l-0.8-0.8c-0.2-0.2-0.5-0.2-0.7,0s-0.2,0.5,0,0.7l0.6,0.6c-0.2,0.1-0.4,0.3-0.5,0.4
			c-0.2,0.2-0.4,0.5-0.6,0.8l-0.6-0.6c-0.2-0.2-0.5-0.2-0.7,0s-0.2,0.5,0,0.7l0.9,0.9c-0.6,1.5-0.3,3.2,0.8,4.3
			c1.1,1.1,2.7,1.4,4.1,0.9C136.1,203.1,136.3,202.8,136.1,202.6z"/>
	</g>
	<g>
		<g>
			<path d="M185.7,215.9l-21.1-21.1c-0.2-0.2-0.2-0.4,0-0.6l12.1-12.1c0.2-0.2,0.4-0.2,0.6,0l21.1,21.1c0.2,0.2,0.2,0.4,0,0.6
				l-12.1,12.1C186.1,216,185.8,216,185.7,215.9z M165.4,194.5L186,215l11.5-11.5L177,182.9L165.4,194.5z"/>
			<path d="M195.3,206.2c-1.5-1.5-1.5-4,0-5.6c0.2-0.2,0.4-0.2,0.6,0c0.2,0.2,0.2,0.4,0,0.6c-1.2,1.2-1.2,3.2,0,4.4
				c0.2,0.2,0.2,0.4,0,0.6S195.5,206.4,195.3,206.2z"/>
			<path d="M183.2,213.4c-0.2-0.2-0.2-0.4,0-0.6c1.5-1.5,4-1.5,5.6,0c0.2,0.2,0.2,0.4,0,0.6s-0.4,0.2-0.6,0c-1.2-1.2-3.2-1.2-4.4,0
				C183.6,213.6,183.3,213.6,183.2,213.4z"/>
			<path d="M174.2,185.1c-0.2-0.2-0.2-0.4,0-0.6s0.4-0.2,0.6,0c1.2,1.2,3.2,1.2,4.4,0c0.2-0.2,0.4-0.2,0.6,0c0.2,0.2,0.2,0.4,0,0.6
				C178.2,186.7,175.7,186.7,174.2,185.1z"/>
			<path d="M167,197.3c-0.2-0.2-0.2-0.4,0-0.6c1.2-1.2,1.2-3.2,0-4.4c-0.2-0.2-0.2-0.4,0-0.6c0.2-0.2,0.4-0.2,0.6,0
				c1.5,1.5,1.5,4,0,5.6C167.5,197.4,167.2,197.4,167,197.3z"/>
		</g>
		<path d="M183.1,202.6c-0.1-0.4-0.4-0.5-0.6-0.4c-1.2,0.5-2.5,0.2-3.2-0.6c-0.8-0.8-1-1.9-0.7-3l1.6,1.6c0.2,0.2,0.5,0.2,0.7,0
			c0.2-0.2,0.2-0.5,0-0.7l-1.9-1.9c0.2-0.2,0.3-0.5,0.6-0.7c0.2-0.2,0.4-0.4,0.6-0.5l1.9,1.9c0.2,0.2,0.5,0.2,0.7,0
			c0.2-0.2,0.2-0.5,0-0.7l-1.7-1.7c1.1-0.3,2.3-0.1,3.1,0.7c0.8,0.8,1.1,2,0.6,3.2c0,0.3,0.1,0.5,0.4,0.6c0.3,0,0.5-0.1,0.6-0.4
			c0.6-1.6,0.3-3.2-0.8-4.3c-1.2-1.2-3.1-1.4-4.6-0.7l-0.8-0.8c-0.2-0.2-0.5-0.2-0.7,0s-0.2,0.5,0,0.7l0.6,0.6
			c-0.2,0.1-0.4,0.3-0.5,0.4c-0.2,0.2-0.4,0.5-0.6,0.8l-0.6-0.6c-0.2-0.2-0.5-0.2-0.7,0s-0.2,0.5,0,0.7l0.9,0.9
			c-0.6,1.5-0.3,3.2,0.8,4.3c1.1,1.1,2.7,1.4,4.1,0.9C183.1,203.1,183.2,202.8,183.1,202.6z"/>
	</g>
	<g>
		<g>
			<path d="M81,117.4l-21.1,21.1c-0.2,0.2-0.4,0.2-0.6,0l-12.1-12.1c-0.2-0.2-0.2-0.4,0-0.6l21.1-21.1c0.2-0.2,0.4-0.2,0.6,0
				L81,116.8C81.1,117,81.1,117.2,81,117.4z M59.6,137.6l20.5-20.5l-11.5-11.5L48,126.1L59.6,137.6z"/>
			<path d="M71.3,107.8c-1.5,1.5-4,1.5-5.6,0c-0.2-0.2-0.2-0.4,0-0.6c0.2-0.2,0.4-0.2,0.6,0c1.2,1.2,3.2,1.2,4.4,0
				c0.2-0.2,0.4-0.2,0.6,0C71.5,107.3,71.5,107.6,71.3,107.8z"/>
			<path d="M78.5,119.9c-0.2,0.2-0.4,0.2-0.6,0c-1.5-1.5-1.5-4,0-5.6c0.2-0.2,0.4-0.2,0.6,0s0.2,0.4,0,0.6c-1.2,1.2-1.2,3.2,0,4.4
				C78.7,119.5,78.7,119.7,78.5,119.9z"/>
			<path d="M50.2,128.9c-0.2,0.2-0.4,0.2-0.6,0c-0.2-0.2-0.2-0.4,0-0.6c1.2-1.2,1.2-3.2,0-4.4c-0.2-0.2-0.2-0.4,0-0.6
				c0.2-0.2,0.4-0.2,0.6,0C51.8,124.8,51.8,127.3,50.2,128.9z"/>
			<path d="M62.4,136c-0.2,0.2-0.4,0.2-0.6,0c-1.2-1.2-3.2-1.2-4.4,0c-0.2,0.2-0.4,0.2-0.6,0s-0.2-0.4,0-0.6c1.5-1.5,4-1.5,5.6,0
				C62.5,135.6,62.5,135.8,62.4,136z"/>
		</g>
		<path d="M67.7,120c-0.4,0.1-0.5,0.4-0.4,0.6c0.5,1.2,0.2,2.5-0.6,3.2c-0.8,0.8-1.9,1-3,0.7l1.6-1.6c0.2-0.2,0.2-0.5,0-0.7
			s-0.5-0.2-0.7,0l-1.9,1.9c-0.2-0.2-0.5-0.3-0.7-0.6c-0.2-0.2-0.4-0.4-0.5-0.6l1.9-1.9c0.2-0.2,0.2-0.5,0-0.7
			c-0.2-0.2-0.5-0.2-0.7,0l-1.7,1.7c-0.3-1.1-0.1-2.3,0.7-3.1c0.8-0.8,2-1.1,3.2-0.6c0.3,0,0.5-0.1,0.6-0.4c0-0.3-0.1-0.5-0.4-0.6
			c-1.6-0.6-3.2-0.3-4.3,0.8c-1.2,1.2-1.4,3.1-0.7,4.6l-0.8,0.8c-0.2,0.2-0.2,0.5,0,0.7s0.5,0.2,0.7,0l0.6-0.6
			c0.1,0.2,0.3,0.4,0.4,0.5c0.2,0.2,0.5,0.4,0.8,0.6l-0.6,0.6c-0.2,0.2-0.2,0.5,0,0.7c0.2,0.2,0.5,0.2,0.7,0l0.9-0.9
			c1.5,0.6,3.2,0.3,4.3-0.8c1.1-1.1,1.4-2.7,0.9-4.1C68.2,120,67.9,119.8,67.7,120z"/>
	</g>
	<g>
		<g>
			<path d="M127.9,117.4l-21.1,21.1c-0.2,0.2-0.4,0.2-0.6,0l-12.1-12.1c-0.2-0.2-0.2-0.4,0-0.6l21.1-21.1c0.2-0.2,0.4-0.2,0.6,0
				l12.1,12.1C128.1,117,128.1,117.2,127.9,117.4z M106.5,137.6l20.5-20.5l-11.5-11.5L95,126.1L106.5,137.6z"/>
			<path d="M118.3,107.8c-1.5,1.5-4,1.5-5.6,0c-0.2-0.2-0.2-0.4,0-0.6s0.4-0.2,0.6,0c1.2,1.2,3.2,1.2,4.4,0c0.2-0.2,0.4-0.2,0.6,0
				C118.4,107.3,118.4,107.6,118.3,107.8z"/>
			<path d="M125.4,119.9c-0.2,0.2-0.4,0.2-0.6,0c-1.5-1.5-1.5-4,0-5.6c0.2-0.2,0.4-0.2,0.6,0s0.2,0.4,0,0.6c-1.2,1.2-1.2,3.2,0,4.4
				C125.6,119.5,125.6,119.7,125.4,119.9z"/>
			<path d="M97.2,128.9c-0.2,0.2-0.4,0.2-0.6,0s-0.2-0.4,0-0.6c1.2-1.2,1.2-3.2,0-4.4c-0.2-0.2-0.2-0.4,0-0.6s0.4-0.2,0.6,0
				C98.7,124.8,98.7,127.3,97.2,128.9z"/>
			<path d="M109.3,136c-0.2,0.2-0.4,0.2-0.6,0c-1.2-1.2-3.2-1.2-4.4,0c-0.2,0.2-0.4,0.2-0.6,0c-0.2-0.2-0.2-0.4,0-0.6
				c1.5-1.5,4-1.5,5.6,0C109.4,135.6,109.4,135.8,109.3,136z"/>
		</g>
		<path d="M114.6,120c-0.4,0.1-0.5,0.4-0.4,0.6c0.5,1.2,0.2,2.5-0.6,3.2c-0.8,0.8-1.9,1-3,0.7l1.6-1.6c0.2-0.2,0.2-0.5,0-0.7
			s-0.5-0.2-0.7,0l-1.9,1.9c-0.2-0.2-0.5-0.3-0.7-0.6c-0.2-0.2-0.4-0.4-0.5-0.6l1.9-1.9c0.2-0.2,0.2-0.5,0-0.7
			c-0.2-0.2-0.5-0.2-0.7,0l-1.7,1.7c-0.3-1.1-0.1-2.3,0.7-3.1c0.8-0.8,2-1.1,3.2-0.6c0.3,0,0.5-0.1,0.6-0.4c0-0.3-0.1-0.5-0.4-0.6
			c-1.6-0.6-3.2-0.3-4.3,0.8c-1.2,1.2-1.4,3.1-0.7,4.6l-0.8,0.8c-0.2,0.2-0.2,0.5,0,0.7s0.5,0.2,0.7,0l0.6-0.6
			c0.1,0.2,0.3,0.4,0.4,0.5c0.2,0.2,0.5,0.4,0.8,0.6l-0.6,0.6c-0.2,0.2-0.2,0.5,0,0.7c0.2,0.2,0.5,0.2,0.7,0l0.9-0.9
			c1.5,0.6,3.2,0.3,4.3-0.8c1.1-1.1,1.4-2.7,0.9-4.1C115.2,120,114.9,119.8,114.6,120z"/>
	</g>
	<g>
		<g>
			<path d="M174.9,117.4l-21.1,21.1c-0.2,0.2-0.4,0.2-0.6,0l-12.1-12.1c-0.2-0.2-0.2-0.4,0-0.6l21.1-21.1c0.2-0.2,0.4-0.2,0.6,0
				l12.1,12.1C175.1,117,175.1,117.2,174.9,117.4z M153.5,137.6l20.5-20.5l-11.5-11.5L142,126.1L153.5,137.6z"/>
			<path d="M165.3,107.8c-1.5,1.5-4,1.5-5.6,0c-0.2-0.2-0.2-0.4,0-0.6s0.4-0.2,0.6,0c1.2,1.2,3.2,1.2,4.4,0c0.2-0.2,0.4-0.2,0.6,0
				C165.4,107.3,165.4,107.6,165.3,107.8z"/>
			<path d="M172.4,119.9c-0.2,0.2-0.4,0.2-0.6,0c-1.5-1.5-1.5-4,0-5.6c0.2-0.2,0.4-0.2,0.6,0s0.2,0.4,0,0.6c-1.2,1.2-1.2,3.2,0,4.4
				C172.6,119.5,172.6,119.7,172.4,119.9z"/>
			<path d="M144.2,128.9c-0.2,0.2-0.4,0.2-0.6,0s-0.2-0.4,0-0.6c1.2-1.2,1.2-3.2,0-4.4c-0.2-0.2-0.2-0.4,0-0.6s0.4-0.2,0.6,0
				C145.7,124.8,145.7,127.3,144.2,128.9z"/>
			<path d="M156.3,136c-0.2,0.2-0.4,0.2-0.6,0c-1.2-1.2-3.2-1.2-4.4,0c-0.2,0.2-0.4,0.2-0.6,0s-0.2-0.4,0-0.6c1.5-1.5,4-1.5,5.6,0
				C156.5,135.6,156.5,135.8,156.3,136z"/>
		</g>
		<path d="M161.6,120c-0.4,0.1-0.5,0.4-0.4,0.6c0.5,1.2,0.2,2.5-0.6,3.2c-0.8,0.8-1.9,1-3,0.7l1.6-1.6c0.2-0.2,0.2-0.5,0-0.7
			s-0.5-0.2-0.7,0l-1.9,1.9c-0.2-0.2-0.5-0.3-0.7-0.6c-0.2-0.2-0.4-0.4-0.5-0.6l1.9-1.9c0.2-0.2,0.2-0.5,0-0.7
			c-0.2-0.2-0.5-0.2-0.7,0l-1.7,1.7c-0.3-1.1-0.1-2.3,0.7-3.1c0.8-0.8,2-1.1,3.2-0.6c0.3,0,0.5-0.1,0.6-0.4c0-0.3-0.1-0.5-0.4-0.6
			c-1.6-0.6-3.2-0.3-4.3,0.8c-1.2,1.2-1.4,3.1-0.7,4.6l-0.8,0.8c-0.2,0.2-0.2,0.5,0,0.7s0.5,0.2,0.7,0l0.6-0.6
			c0.1,0.2,0.3,0.4,0.4,0.5c0.2,0.2,0.5,0.4,0.8,0.6l-0.6,0.6c-0.2,0.2-0.2,0.5,0,0.7c0.2,0.2,0.5,0.2,0.7,0l0.9-0.9
			c1.5,0.6,3.2,0.3,4.3-0.8c1.1-1.1,1.4-2.7,0.9-4.1C162.2,120,161.9,119.8,161.6,120z"/>
	</g>
	<g>
		<g>
			<path d="M34,169.4l-21.1,21.1c-0.2,0.2-0.4,0.2-0.6,0L0.1,178.4c-0.2-0.2-0.2-0.4,0-0.6l21.1-21.1c0.2-0.2,0.4-0.2,0.6,0
				L34,168.8C34.1,169,34.1,169.3,34,169.4z M12.6,189.6l20.5-20.5l-11.5-11.5L1,178.1L12.6,189.6z"/>
			<path d="M24.3,159.8c-1.5,1.5-4,1.5-5.6,0c-0.2-0.2-0.2-0.4,0-0.6s0.4-0.2,0.6,0c1.2,1.2,3.2,1.2,4.4,0c0.2-0.2,0.4-0.2,0.6,0
				S24.5,159.6,24.3,159.8z"/>
			<path d="M31.5,171.9c-0.2,0.2-0.4,0.2-0.6,0c-1.5-1.5-1.5-4,0-5.6c0.2-0.2,0.4-0.2,0.6,0c0.2,0.2,0.2,0.4,0,0.6
				c-1.2,1.2-1.2,3.2,0,4.4C31.6,171.5,31.6,171.8,31.5,171.9z"/>
			<path d="M3.2,180.9c-0.2,0.2-0.4,0.2-0.6,0c-0.2-0.2-0.2-0.4,0-0.6c1.2-1.2,1.2-3.2,0-4.4c-0.2-0.2-0.2-0.4,0-0.6
				c0.2-0.2,0.4-0.2,0.6,0C4.7,176.9,4.7,179.3,3.2,180.9z"/>
			<path d="M15.3,188c-0.2,0.2-0.4,0.2-0.6,0c-1.2-1.2-3.2-1.2-4.4,0c-0.2,0.2-0.4,0.2-0.6,0s-0.2-0.4,0-0.6c1.5-1.5,4-1.5,5.6,0
				C15.5,187.6,15.5,187.9,15.3,188z"/>
		</g>
		<path d="M20.6,172c-0.4,0.1-0.5,0.4-0.4,0.6c0.5,1.2,0.2,2.5-0.6,3.2c-0.8,0.8-1.9,1-3,0.7l1.6-1.6c0.2-0.2,0.2-0.5,0-0.7
			s-0.5-0.2-0.7,0l-1.9,1.9c-0.2-0.2-0.5-0.3-0.7-0.6c-0.2-0.2-0.4-0.4-0.5-0.6l1.9-1.9c0.2-0.2,0.2-0.5,0-0.7
			c-0.2-0.2-0.5-0.2-0.7,0l-1.7,1.7c-0.3-1.1-0.1-2.3,0.7-3.1c0.8-0.8,2-1.1,3.2-0.6c0.3,0,0.5-0.1,0.6-0.4c0-0.3-0.1-0.5-0.4-0.6
			c-1.6-0.6-3.2-0.3-4.3,0.8c-1.2,1.2-1.4,3.1-0.7,4.6l-0.8,0.8c-0.2,0.2-0.2,0.5,0,0.7c0.2,0.2,0.5,0.2,0.7,0l0.6-0.6
			c0.1,0.2,0.3,0.4,0.4,0.5c0.2,0.2,0.5,0.4,0.8,0.6l-0.6,0.6c-0.2,0.2-0.2,0.5,0,0.7c0.2,0.2,0.5,0.2,0.7,0l0.9-0.9
			c1.5,0.6,3.2,0.3,4.3-0.8c1.1-1.1,1.4-2.7,0.9-4.1C21.2,172,20.9,171.9,20.6,172z"/>
	</g>
	<g>
		<g>
			<path d="M81,169.4l-21.1,21.1c-0.2,0.2-0.4,0.2-0.6,0l-12.1-12.1c-0.2-0.2-0.2-0.4,0-0.6l21.1-21.1c0.2-0.2,0.4-0.2,0.6,0
				L81,168.8C81.1,169,81.1,169.3,81,169.4z M59.6,189.6l20.5-20.5l-11.5-11.5L48,178.1L59.6,189.6z"/>
			<path d="M71.3,159.8c-1.5,1.5-4,1.5-5.6,0c-0.2-0.2-0.2-0.4,0-0.6c0.2-0.2,0.4-0.2,0.6,0c1.2,1.2,3.2,1.2,4.4,0
				c0.2-0.2,0.4-0.2,0.6,0S71.5,159.6,71.3,159.8z"/>
			<path d="M78.5,171.9c-0.2,0.2-0.4,0.2-0.6,0c-1.5-1.5-1.5-4,0-5.6c0.2-0.2,0.4-0.2,0.6,0s0.2,0.4,0,0.6c-1.2,1.2-1.2,3.2,0,4.4
				C78.7,171.5,78.7,171.8,78.5,171.9z"/>
			<path d="M50.2,180.9c-0.2,0.2-0.4,0.2-0.6,0c-0.2-0.2-0.2-0.4,0-0.6c1.2-1.2,1.2-3.2,0-4.4c-0.2-0.2-0.2-0.4,0-0.6
				c0.2-0.2,0.4-0.2,0.6,0C51.8,176.9,51.8,179.3,50.2,180.9z"/>
			<path d="M62.4,188c-0.2,0.2-0.4,0.2-0.6,0c-1.2-1.2-3.2-1.2-4.4,0c-0.2,0.2-0.4,0.2-0.6,0s-0.2-0.4,0-0.6c1.5-1.5,4-1.5,5.6,0
				C62.5,187.6,62.5,187.9,62.4,188z"/>
		</g>
		<path d="M67.7,172c-0.4,0.1-0.5,0.4-0.4,0.6c0.5,1.2,0.2,2.5-0.6,3.2c-0.8,0.8-1.9,1-3,0.7l1.6-1.6c0.2-0.2,0.2-0.5,0-0.7
			s-0.5-0.2-0.7,0l-1.9,1.9c-0.2-0.2-0.5-0.3-0.7-0.6c-0.2-0.2-0.4-0.4-0.5-0.6l1.9-1.9c0.2-0.2,0.2-0.5,0-0.7
			c-0.2-0.2-0.5-0.2-0.7,0l-1.7,1.7c-0.3-1.1-0.1-2.3,0.7-3.1c0.8-0.8,2-1.1,3.2-0.6c0.3,0,0.5-0.1,0.6-0.4c0-0.3-0.1-0.5-0.4-0.6
			c-1.6-0.6-3.2-0.3-4.3,0.8c-1.2,1.2-1.4,3.1-0.7,4.6l-0.8,0.8c-0.2,0.2-0.2,0.5,0,0.7s0.5,0.2,0.7,0l0.6-0.6
			c0.1,0.2,0.3,0.4,0.4,0.5c0.2,0.2,0.5,0.4,0.8,0.6l-0.6,0.6c-0.2,0.2-0.2,0.5,0,0.7s0.5,0.2,0.7,0l0.9-0.9
			c1.5,0.6,3.2,0.3,4.3-0.8c1.1-1.1,1.4-2.7,0.9-4.1C68.2,172,67.9,171.9,67.7,172z"/>
	</g>
	<g>
		<g>
			<path d="M127.9,169.4l-21.1,21.1c-0.2,0.2-0.4,0.2-0.6,0l-12.1-12.1c-0.2-0.2-0.2-0.4,0-0.6l21.1-21.1c0.2-0.2,0.4-0.2,0.6,0
				l12.1,12.1C128.1,169,128.1,169.3,127.9,169.4z M106.5,189.6l20.5-20.5l-11.5-11.5L95,178.1L106.5,189.6z"/>
			<path d="M118.3,159.8c-1.5,1.5-4,1.5-5.6,0c-0.2-0.2-0.2-0.4,0-0.6s0.4-0.2,0.6,0c1.2,1.2,3.2,1.2,4.4,0c0.2-0.2,0.4-0.2,0.6,0
				S118.4,159.6,118.3,159.8z"/>
			<path d="M125.4,171.9c-0.2,0.2-0.4,0.2-0.6,0c-1.5-1.5-1.5-4,0-5.6c0.2-0.2,0.4-0.2,0.6,0s0.2,0.4,0,0.6c-1.2,1.2-1.2,3.2,0,4.4
				C125.6,171.5,125.6,171.8,125.4,171.9z"/>
			<path d="M97.2,180.9c-0.2,0.2-0.4,0.2-0.6,0s-0.2-0.4,0-0.6c1.2-1.2,1.2-3.2,0-4.4c-0.2-0.2-0.2-0.4,0-0.6s0.4-0.2,0.6,0
				C98.7,176.9,98.7,179.3,97.2,180.9z"/>
			<path d="M109.3,188c-0.2,0.2-0.4,0.2-0.6,0c-1.2-1.2-3.2-1.2-4.4,0c-0.2,0.2-0.4,0.2-0.6,0c-0.2-0.2-0.2-0.4,0-0.6
				c1.5-1.5,4-1.5,5.6,0C109.4,187.6,109.4,187.9,109.3,188z"/>
		</g>
		<path d="M114.6,172c-0.4,0.1-0.5,0.4-0.4,0.6c0.5,1.2,0.2,2.5-0.6,3.2c-0.8,0.8-1.9,1-3,0.7l1.6-1.6c0.2-0.2,0.2-0.5,0-0.7
			s-0.5-0.2-0.7,0l-1.9,1.9c-0.2-0.2-0.5-0.3-0.7-0.6c-0.2-0.2-0.4-0.4-0.5-0.6l1.9-1.9c0.2-0.2,0.2-0.5,0-0.7
			c-0.2-0.2-0.5-0.2-0.7,0l-1.7,1.7c-0.3-1.1-0.1-2.3,0.7-3.1c0.8-0.8,2-1.1,3.2-0.6c0.3,0,0.5-0.1,0.6-0.4c0-0.3-0.1-0.5-0.4-0.6
			c-1.6-0.6-3.2-0.3-4.3,0.8c-1.2,1.2-1.4,3.1-0.7,4.6l-0.8,0.8c-0.2,0.2-0.2,0.5,0,0.7s0.5,0.2,0.7,0l0.6-0.6
			c0.1,0.2,0.3,0.4,0.4,0.5c0.2,0.2,0.5,0.4,0.8,0.6l-0.6,0.6c-0.2,0.2-0.2,0.5,0,0.7s0.5,0.2,0.7,0l0.9-0.9
			c1.5,0.6,3.2,0.3,4.3-0.8c1.1-1.1,1.4-2.7,0.9-4.1C115.2,172,114.9,171.9,114.6,172z"/>
	</g>
	<g>
		<g>
			<path d="M174.9,169.4l-21.1,21.1c-0.2,0.2-0.4,0.2-0.6,0l-12.1-12.1c-0.2-0.2-0.2-0.4,0-0.6l21.1-21.1c0.2-0.2,0.4-0.2,0.6,0
				l12.1,12.1C175.1,169,175.1,169.3,174.9,169.4z M153.5,189.6l20.5-20.5l-11.5-11.5L142,178.1L153.5,189.6z"/>
			<path d="M165.3,159.8c-1.5,1.5-4,1.5-5.6,0c-0.2-0.2-0.2-0.4,0-0.6s0.4-0.2,0.6,0c1.2,1.2,3.2,1.2,4.4,0c0.2-0.2,0.4-0.2,0.6,0
				S165.4,159.6,165.3,159.8z"/>
			<path d="M172.4,171.9c-0.2,0.2-0.4,0.2-0.6,0c-1.5-1.5-1.5-4,0-5.6c0.2-0.2,0.4-0.2,0.6,0s0.2,0.4,0,0.6c-1.2,1.2-1.2,3.2,0,4.4
				C172.6,171.5,172.6,171.8,172.4,171.9z"/>
			<path d="M144.2,180.9c-0.2,0.2-0.4,0.2-0.6,0s-0.2-0.4,0-0.6c1.2-1.2,1.2-3.2,0-4.4c-0.2-0.2-0.2-0.4,0-0.6s0.4-0.2,0.6,0
				C145.7,176.9,145.7,179.3,144.2,180.9z"/>
			<path d="M156.3,188c-0.2,0.2-0.4,0.2-0.6,0c-1.2-1.2-3.2-1.2-4.4,0c-0.2,0.2-0.4,0.2-0.6,0s-0.2-0.4,0-0.6c1.5-1.5,4-1.5,5.6,0
				C156.5,187.6,156.5,187.9,156.3,188z"/>
		</g>
		<path d="M161.6,172c-0.4,0.1-0.5,0.4-0.4,0.6c0.5,1.2,0.2,2.5-0.6,3.2c-0.8,0.8-1.9,1-3,0.7l1.6-1.6c0.2-0.2,0.2-0.5,0-0.7
			s-0.5-0.2-0.7,0l-1.9,1.9c-0.2-0.2-0.5-0.3-0.7-0.6c-0.2-0.2-0.4-0.4-0.5-0.6l1.9-1.9c0.2-0.2,0.2-0.5,0-0.7
			c-0.2-0.2-0.5-0.2-0.7,0l-1.7,1.7c-0.3-1.1-0.1-2.3,0.7-3.1c0.8-0.8,2-1.1,3.2-0.6c0.3,0,0.5-0.1,0.6-0.4c0-0.3-0.1-0.5-0.4-0.6
			c-1.6-0.6-3.2-0.3-4.3,0.8c-1.2,1.2-1.4,3.1-0.7,4.6l-0.8,0.8c-0.2,0.2-0.2,0.5,0,0.7s0.5,0.2,0.7,0l0.6-0.6
			c0.1,0.2,0.3,0.4,0.4,0.5c0.2,0.2,0.5,0.4,0.8,0.6l-0.6,0.6c-0.2,0.2-0.2,0.5,0,0.7s0.5,0.2,0.7,0l0.9-0.9
			c1.5,0.6,3.2,0.3,4.3-0.8c1.1-1.1,1.4-2.7,0.9-4.1C162.2,172,161.9,171.9,161.6,172z"/>
	</g>
</g>
</svg>
