<?xml version="1.0" encoding="UTF-8" standalone="no"?><!DOCTYPE svg PUBLIC "-//W3C//DTD SVG 1.1//EN" "http://www.w3.org/Graphics/SVG/1.1/DTD/svg11.dtd"><svg width="100%" height="100%" viewBox="0 0 241 180" version="1.1" xmlns="http://www.w3.org/2000/svg" xmlns:xlink="http://www.w3.org/1999/xlink" xml:space="preserve" style="fill-rule:evenodd;clip-rule:evenodd;stroke-linejoin:round;stroke-miterlimit:1.41421;"><g><g><path d="M8.087,0.053c-0.143,-0.078 -0.317,-0.07 -0.452,0.021c-3.691,2.46 -7.635,6.952 -7.635,12.18c0,5.71 2.642,9.39 7.44,10.416l0,3.15c0,0.242 0.195,0.438 0.437,0.438c0.242,0 0.438,-0.196 0.438,-0.438l0,-7.188l5.035,-2.937c0.208,-0.122 0.279,-0.39 0.157,-0.598c-0.122,-0.209 -0.39,-0.279 -0.599,-0.158l-4.593,2.68l0,-3.353l5.459,-2.94c0.213,-0.114 0.293,-0.38 0.178,-0.593c-0.114,-0.212 -0.38,-0.292 -0.593,-0.177l-5.044,2.716l0,-3.385l4.149,-2.283c0.213,-0.116 0.29,-0.382 0.173,-0.594c-0.116,-0.212 -0.383,-0.289 -0.594,-0.172l-3.728,2.05l0,-5.825c0,-0.241 -0.196,-0.437 -0.438,-0.437c-0.242,0 -0.437,0.196 -0.437,0.437l0,5.825l-3.728,-2.05c-0.211,-0.117 -0.478,-0.04 -0.594,0.172c-0.117,0.212 -0.04,0.478 0.173,0.594l4.149,2.283l0,3.385l-5.044,-2.716c-0.213,-0.115 -0.479,-0.035 -0.593,0.177c-0.115,0.213 -0.035,0.479 0.178,0.593l5.459,2.939l0,3.354l-4.594,-2.68c-0.208,-0.121 -0.476,-0.051 -0.598,0.158c-0.122,0.208 -0.051,0.476 0.157,0.598l5.035,2.937l0,3.142c-4.294,-0.993 -6.565,-4.268 -6.565,-9.52c0,-4.781 3.588,-8.94 7.025,-11.303c4.44,2.513 6.98,6.619 6.98,11.303c0,4.723 -1.868,7.9 -5.402,9.186c-0.227,0.083 -0.344,0.334 -0.261,0.561c0.082,0.227 0.334,0.345 0.561,0.261c3.91,-1.423 5.977,-4.884 5.977,-10.008c0,-5.096 -2.795,-9.542 -7.668,-12.201Z" style="fill:#adacac;"/><path d="M40.191,0.053c-0.143,-0.078 -0.317,-0.07 -0.452,0.021c-3.691,2.46 -7.635,6.952 -7.635,12.18c0,5.71 2.642,9.39 7.44,10.416l0,3.15c0,0.242 0.196,0.438 0.438,0.438c0.242,0 0.437,-0.196 0.437,-0.438l0,-7.188l5.035,-2.937c0.209,-0.122 0.279,-0.39 0.157,-0.598c-0.121,-0.209 -0.389,-0.279 -0.598,-0.158l-4.594,2.68l0,-3.353l5.459,-2.94c0.213,-0.114 0.293,-0.38 0.178,-0.593c-0.114,-0.212 -0.38,-0.292 -0.593,-0.177l-5.044,2.716l0,-3.385l4.15,-2.283c0.212,-0.116 0.289,-0.382 0.172,-0.594c-0.116,-0.212 -0.383,-0.289 -0.593,-0.172l-3.729,2.05l0,-5.825c0,-0.241 -0.195,-0.437 -0.437,-0.437c-0.242,0 -0.438,0.196 -0.438,0.437l0,5.825l-3.728,-2.05c-0.211,-0.117 -0.478,-0.04 -0.594,0.172c-0.117,0.212 -0.039,0.478 0.173,0.594l4.149,2.283l0,3.385l-5.044,-2.716c-0.213,-0.115 -0.478,-0.035 -0.593,0.177c-0.115,0.213 -0.035,0.479 0.178,0.593l5.459,2.939l0,3.354l-4.593,-2.68c-0.209,-0.121 -0.477,-0.051 -0.599,0.158c-0.122,0.208 -0.051,0.476 0.158,0.598l5.034,2.937l0,3.142c-4.294,-0.993 -6.564,-4.268 -6.564,-9.52c0,-4.781 3.587,-8.94 7.025,-11.303c4.439,2.513 6.979,6.619 6.979,11.303c0,4.723 -1.868,7.9 -5.401,9.186c-0.227,0.083 -0.345,0.334 -0.262,0.561c0.083,0.227 0.335,0.345 0.561,0.261c3.91,-1.423 5.977,-4.884 5.977,-10.008c0,-5.096 -2.795,-9.542 -7.668,-12.201Z" style="fill:#adacac;"/><path d="M72.295,0.053c-0.142,-0.078 -0.317,-0.07 -0.452,0.021c-3.69,2.46 -7.634,6.952 -7.634,12.18c0,5.71 2.642,9.39 7.439,10.416l0,3.15c0,0.242 0.196,0.438 0.438,0.438c0.242,0 0.438,-0.196 0.438,-0.438l0,-7.188l5.034,-2.937c0.209,-0.122 0.279,-0.39 0.158,-0.598c-0.122,-0.209 -0.39,-0.279 -0.599,-0.158l-4.593,2.68l0,-3.353l5.459,-2.94c0.212,-0.114 0.292,-0.38 0.178,-0.593c-0.115,-0.212 -0.38,-0.292 -0.593,-0.177l-5.044,2.716l0,-3.385l4.149,-2.283c0.212,-0.116 0.29,-0.382 0.173,-0.594c-0.117,-0.212 -0.383,-0.289 -0.594,-0.172l-3.728,2.05l0,-5.825c0,-0.241 -0.196,-0.437 -0.438,-0.437c-0.242,0 -0.438,0.196 -0.438,0.437l0,5.825l-3.728,-2.05c-0.211,-0.117 -0.477,-0.04 -0.594,0.172c-0.116,0.212 -0.039,0.478 0.173,0.594l4.149,2.283l0,3.385l-5.044,-2.716c-0.212,-0.115 -0.478,-0.035 -0.593,0.177c-0.114,0.213 -0.034,0.479 0.178,0.593l5.459,2.939l0,3.354l-4.593,-2.68c-0.208,-0.121 -0.477,-0.051 -0.599,0.158c-0.121,0.208 -0.051,0.476 0.158,0.598l5.034,2.937l0,3.142c-4.293,-0.993 -6.564,-4.268 -6.564,-9.52c0,-4.781 3.587,-8.94 7.025,-11.303c4.439,2.513 6.979,6.619 6.979,11.303c0,4.723 -1.868,7.9 -5.401,9.186c-0.227,0.083 -0.344,0.334 -0.262,0.561c0.083,0.227 0.335,0.345 0.561,0.261c3.911,-1.423 5.977,-4.884 5.977,-10.008c0,-5.096 -2.794,-9.542 -7.668,-12.201Z" style="fill:#adacac;"/><path d="M104.4,0.053c-0.143,-0.078 -0.317,-0.07 -0.453,0.021c-3.69,2.46 -7.634,6.952 -7.634,12.18c0,5.71 2.642,9.39 7.44,10.416l0,3.15c0,0.242 0.195,0.438 0.437,0.438c0.242,0 0.438,-0.196 0.438,-0.438l0,-7.188l5.034,-2.937c0.209,-0.122 0.28,-0.39 0.158,-0.598c-0.122,-0.209 -0.39,-0.279 -0.599,-0.158l-4.593,2.68l0,-3.353l5.459,-2.94c0.213,-0.114 0.293,-0.38 0.178,-0.593c-0.115,-0.212 -0.38,-0.292 -0.593,-0.177l-5.044,2.716l0,-3.385l4.149,-2.283c0.212,-0.116 0.29,-0.382 0.173,-0.594c-0.116,-0.212 -0.383,-0.289 -0.594,-0.172l-3.728,2.05l0,-5.825c0,-0.241 -0.196,-0.437 -0.438,-0.437c-0.242,0 -0.437,0.196 -0.437,0.437l0,5.825l-3.728,-2.05c-0.211,-0.117 -0.478,-0.04 -0.594,0.172c-0.117,0.212 -0.04,0.478 0.173,0.594l4.149,2.283l0,3.385l-5.044,-2.716c-0.213,-0.115 -0.479,-0.035 -0.593,0.177c-0.115,0.213 -0.035,0.479 0.178,0.593l5.459,2.939l0,3.354l-4.594,-2.68c-0.208,-0.121 -0.476,-0.051 -0.598,0.158c-0.122,0.208 -0.052,0.476 0.157,0.598l5.035,2.937l0,3.142c-4.294,-0.993 -6.565,-4.268 -6.565,-9.52c0,-4.781 3.588,-8.94 7.025,-11.303c4.439,2.513 6.98,6.619 6.98,11.303c0,4.723 -1.868,7.9 -5.402,9.186c-0.227,0.083 -0.344,0.334 -0.261,0.561c0.082,0.227 0.334,0.345 0.561,0.261c3.91,-1.423 5.977,-4.884 5.977,-10.008c0,-5.096 -2.795,-9.542 -7.668,-12.201Z" style="fill:#adacac;"/><path d="M136.504,0.053c-0.143,-0.078 -0.317,-0.07 -0.452,0.021c-3.691,2.46 -7.635,6.952 -7.635,12.18c0,5.71 2.642,9.39 7.44,10.416l0,3.15c0,0.242 0.196,0.438 0.438,0.438c0.242,0 0.437,-0.196 0.437,-0.438l0,-7.188l5.035,-2.937c0.209,-0.122 0.279,-0.39 0.157,-0.598c-0.121,-0.209 -0.39,-0.279 -0.598,-0.158l-4.594,2.68l0,-3.353l5.459,-2.94c0.213,-0.114 0.293,-0.38 0.178,-0.593c-0.114,-0.212 -0.38,-0.292 -0.593,-0.177l-5.044,2.716l0,-3.385l4.149,-2.283c0.213,-0.116 0.29,-0.382 0.173,-0.594c-0.116,-0.212 -0.383,-0.289 -0.594,-0.172l-3.728,2.05l0,-5.825c0,-0.241 -0.195,-0.437 -0.437,-0.437c-0.242,0 -0.438,0.196 -0.438,0.437l0,5.825l-3.728,-2.05c-0.211,-0.117 -0.478,-0.04 -0.594,0.172c-0.117,0.212 -0.039,0.478 0.173,0.594l4.149,2.283l0,3.385l-5.044,-2.716c-0.213,-0.115 -0.478,-0.035 -0.593,0.177c-0.115,0.213 -0.035,0.479 0.178,0.593l5.459,2.939l0,3.354l-4.593,-2.68c-0.209,-0.121 -0.477,-0.051 -0.599,0.158c-0.122,0.208 -0.051,0.476 0.157,0.598l5.035,2.937l0,3.142c-4.294,-0.993 -6.564,-4.268 -6.564,-9.52c0,-4.781 3.587,-8.94 7.024,-11.303c4.44,2.513 6.98,6.619 6.98,11.303c0,4.723 -1.868,7.9 -5.401,9.186c-0.228,0.083 -0.345,0.334 -0.262,0.561c0.083,0.227 0.335,0.345 0.561,0.261c3.91,-1.423 5.977,-4.884 5.977,-10.008c0,-5.096 -2.795,-9.542 -7.668,-12.201Z" style="fill:#adacac;"/><path d="M168.608,0.053c-0.143,-0.078 -0.317,-0.07 -0.452,0.021c-3.691,2.46 -7.634,6.952 -7.634,12.18c0,5.71 2.642,9.39 7.439,10.416l0,3.15c0,0.242 0.196,0.438 0.438,0.438c0.242,0 0.438,-0.196 0.438,-0.438l0,-7.188l5.034,-2.937c0.209,-0.122 0.279,-0.39 0.158,-0.598c-0.122,-0.209 -0.39,-0.279 -0.599,-0.158l-4.593,2.68l0,-3.353l5.459,-2.94c0.212,-0.114 0.292,-0.38 0.178,-0.593c-0.115,-0.212 -0.381,-0.292 -0.593,-0.177l-5.044,2.716l0,-3.385l4.149,-2.283c0.212,-0.116 0.289,-0.382 0.173,-0.594c-0.117,-0.212 -0.383,-0.289 -0.594,-0.172l-3.728,2.05l0,-5.825c0,-0.241 -0.196,-0.437 -0.438,-0.437c-0.242,0 -0.438,0.196 -0.438,0.437l0,5.825l-3.728,-2.05c-0.211,-0.117 -0.477,-0.04 -0.594,0.172c-0.117,0.212 -0.039,0.478 0.173,0.594l4.149,2.283l0,3.385l-5.044,-2.716c-0.212,-0.115 -0.478,-0.035 -0.593,0.177c-0.114,0.213 -0.034,0.479 0.178,0.593l5.459,2.939l0,3.354l-4.593,-2.68c-0.208,-0.121 -0.477,-0.051 -0.599,0.158c-0.121,0.208 -0.051,0.476 0.158,0.598l5.034,2.937l0,3.142c-4.293,-0.993 -6.564,-4.268 -6.564,-9.52c0,-4.781 3.587,-8.94 7.025,-11.303c4.439,2.513 6.979,6.619 6.979,11.303c0,4.723 -1.868,7.9 -5.401,9.186c-0.227,0.083 -0.345,0.334 -0.262,0.561c0.083,0.227 0.335,0.345 0.561,0.261c3.91,-1.423 5.977,-4.884 5.977,-10.008c0,-5.096 -2.794,-9.542 -7.668,-12.201Z" style="fill:#adacac;"/><path d="M200.712,0.053c-0.142,-0.078 -0.316,-0.07 -0.452,0.021c-3.69,2.46 -7.634,6.952 -7.634,12.18c0,5.71 2.642,9.39 7.44,10.416l0,3.15c0,0.242 0.195,0.438 0.437,0.438c0.242,0 0.438,-0.196 0.438,-0.438l0,-7.188l5.034,-2.937c0.209,-0.122 0.28,-0.39 0.158,-0.598c-0.122,-0.209 -0.39,-0.279 -0.599,-0.158l-4.593,2.68l0,-3.353l5.459,-2.94c0.213,-0.114 0.293,-0.38 0.178,-0.593c-0.115,-0.212 -0.38,-0.292 -0.593,-0.177l-5.044,2.716l0,-3.385l4.149,-2.283c0.212,-0.116 0.29,-0.382 0.173,-0.594c-0.116,-0.212 -0.383,-0.289 -0.594,-0.172l-3.728,2.05l0,-5.825c0,-0.241 -0.196,-0.437 -0.438,-0.437c-0.242,0 -0.437,0.196 -0.437,0.437l0,5.825l-3.729,-2.05c-0.21,-0.117 -0.477,-0.04 -0.593,0.172c-0.117,0.212 -0.04,0.478 0.172,0.594l4.15,2.283l0,3.385l-5.044,-2.716c-0.213,-0.115 -0.479,-0.035 -0.593,0.177c-0.115,0.213 -0.035,0.479 0.178,0.593l5.459,2.939l0,3.354l-4.594,-2.68c-0.208,-0.121 -0.476,-0.051 -0.598,0.158c-0.122,0.208 -0.052,0.476 0.157,0.598l5.035,2.937l0,3.142c-4.294,-0.993 -6.565,-4.268 -6.565,-9.52c0,-4.781 3.587,-8.94 7.025,-11.303c4.439,2.513 6.979,6.619 6.979,11.303c0,4.723 -1.867,7.9 -5.401,9.186c-0.227,0.083 -0.344,0.334 -0.262,0.561c0.083,0.227 0.335,0.345 0.562,0.261c3.91,-1.423 5.977,-4.884 5.977,-10.008c0,-5.096 -2.795,-9.542 -7.669,-12.201Z" style="fill:#adacac;"/><path d="M232.817,0.053c-0.143,-0.078 -0.317,-0.07 -0.452,0.021c-3.691,2.46 -7.635,6.952 -7.635,12.18c0,5.71 2.642,9.39 7.44,10.416l0,3.15c0,0.242 0.196,0.438 0.438,0.438c0.242,0 0.437,-0.196 0.437,-0.438l0,-7.188l5.035,-2.937c0.208,-0.122 0.279,-0.39 0.157,-0.598c-0.121,-0.209 -0.39,-0.279 -0.598,-0.158l-4.594,2.68l0,-3.353l5.459,-2.94c0.213,-0.114 0.293,-0.38 0.178,-0.593c-0.114,-0.212 -0.38,-0.292 -0.593,-0.177l-5.044,2.716l0,-3.385l4.149,-2.283c0.213,-0.116 0.29,-0.382 0.173,-0.594c-0.116,-0.212 -0.383,-0.289 -0.594,-0.172l-3.728,2.05l0,-5.825c0,-0.241 -0.195,-0.437 -0.437,-0.437c-0.242,0 -0.438,0.196 -0.438,0.437l0,5.825l-3.728,-2.05c-0.211,-0.117 -0.478,-0.04 -0.594,0.172c-0.117,0.212 -0.04,0.478 0.173,0.594l4.149,2.283l0,3.385l-5.044,-2.716c-0.213,-0.115 -0.479,-0.035 -0.593,0.177c-0.115,0.213 -0.035,0.479 0.178,0.593l5.459,2.939l0,3.354l-4.593,-2.68c-0.209,-0.121 -0.477,-0.051 -0.599,0.158c-0.122,0.208 -0.051,0.476 0.157,0.598l5.035,2.937l0,3.142c-4.294,-0.993 -6.565,-4.268 -6.565,-9.52c0,-4.781 3.588,-8.94 7.025,-11.303c4.44,2.513 6.98,6.619 6.98,11.303c0,4.723 -1.868,7.9 -5.402,9.186c-0.227,0.083 -0.344,0.334 -0.261,0.561c0.082,0.227 0.335,0.345 0.561,0.261c3.91,-1.423 5.977,-4.884 5.977,-10.008c0,-5.096 -2.795,-9.542 -7.668,-12.201Z" style="fill:#adacac;"/></g><g><path d="M24.139,56.056c-0.143,0.078 -0.317,0.07 -0.452,-0.02c-3.691,-2.461 -7.635,-6.952 -7.635,-12.18c0,-5.711 2.642,-9.39 7.44,-10.417l0,-3.15c0,-0.242 0.196,-0.438 0.438,-0.438c0.242,0 0.437,0.196 0.437,0.438l0,7.188l5.035,2.937c0.208,0.122 0.279,0.39 0.157,0.599c-0.121,0.208 -0.39,0.279 -0.598,0.157l-4.594,-2.679l0,3.353l5.459,2.939c0.213,0.115 0.293,0.38 0.178,0.593c-0.114,0.213 -0.38,0.293 -0.593,0.178l-5.044,-2.716l0,3.385l4.149,2.282c0.213,0.116 0.29,0.382 0.173,0.594c-0.116,0.212 -0.383,0.29 -0.594,0.173l-3.728,-2.051l0,5.825c0,0.241 -0.195,0.438 -0.437,0.438c-0.242,0 -0.438,-0.197 -0.438,-0.438l0,-5.825l-3.728,2.051c-0.211,0.117 -0.478,0.039 -0.594,-0.173c-0.117,-0.211 -0.039,-0.478 0.173,-0.594l4.149,-2.282l0,-3.385l-5.044,2.716c-0.213,0.115 -0.478,0.035 -0.593,-0.178c-0.115,-0.213 -0.035,-0.478 0.178,-0.593l5.459,-2.939l0,-3.353l-4.593,2.679c-0.209,0.122 -0.477,0.051 -0.599,-0.157c-0.122,-0.209 -0.051,-0.477 0.157,-0.599l5.035,-2.936l0,-3.143c-4.294,0.993 -6.565,4.269 -6.565,9.521c0,4.78 3.588,8.939 7.025,11.302c4.44,-2.512 6.98,-6.618 6.98,-11.302c0,-4.724 -1.868,-7.901 -5.401,-9.187c-0.228,-0.082 -0.345,-0.334 -0.262,-0.561c0.083,-0.226 0.335,-0.345 0.561,-0.261c3.91,1.423 5.977,4.884 5.977,10.009c0,5.095 -2.795,9.542 -7.668,12.2Z" style="fill:#adacac;"/><path d="M56.243,56.056c-0.143,0.078 -0.317,0.07 -0.452,-0.02c-3.691,-2.461 -7.635,-6.952 -7.635,-12.18c0,-5.711 2.642,-9.39 7.44,-10.417l0,-3.15c0,-0.242 0.196,-0.438 0.438,-0.438c0.242,0 0.438,0.196 0.438,0.438l0,7.188l5.034,2.937c0.209,0.122 0.279,0.39 0.158,0.599c-0.122,0.208 -0.39,0.279 -0.599,0.157l-4.594,-2.679l0,3.353l5.46,2.939c0.212,0.115 0.292,0.38 0.178,0.593c-0.115,0.213 -0.381,0.293 -0.593,0.178l-5.045,-2.716l0,3.385l4.15,2.282c0.212,0.116 0.289,0.382 0.173,0.594c-0.117,0.212 -0.383,0.29 -0.594,0.173l-3.728,-2.051l0,5.825c0,0.241 -0.196,0.438 -0.438,0.438c-0.242,0 -0.438,-0.197 -0.438,-0.438l0,-5.825l-3.728,2.051c-0.211,0.117 -0.477,0.039 -0.594,-0.173c-0.117,-0.211 -0.039,-0.478 0.173,-0.594l4.149,-2.282l0,-3.385l-5.044,2.716c-0.213,0.115 -0.478,0.035 -0.593,-0.178c-0.115,-0.213 -0.034,-0.478 0.178,-0.593l5.459,-2.939l0,-3.353l-4.593,2.679c-0.208,0.122 -0.477,0.051 -0.599,-0.157c-0.121,-0.209 -0.051,-0.477 0.158,-0.599l5.034,-2.936l0,-3.143c-4.293,0.993 -6.564,4.269 -6.564,9.521c0,4.78 3.587,8.939 7.025,11.302c4.439,-2.512 6.979,-6.618 6.979,-11.302c0,-4.724 -1.868,-7.901 -5.401,-9.187c-0.227,-0.082 -0.345,-0.334 -0.262,-0.561c0.083,-0.226 0.335,-0.345 0.561,-0.261c3.91,1.423 5.977,4.884 5.977,10.009c0,5.095 -2.794,9.542 -7.668,12.2Z" style="fill:#adacac;"/><path d="M88.347,56.056c-0.142,0.078 -0.316,0.07 -0.452,-0.02c-3.69,-2.461 -7.634,-6.952 -7.634,-12.18c0,-5.711 2.642,-9.39 7.44,-10.417l0,-3.15c0,-0.242 0.195,-0.438 0.437,-0.438c0.242,0 0.438,0.196 0.438,0.438l0,7.188l5.034,2.937c0.209,0.122 0.28,0.39 0.158,0.599c-0.122,0.208 -0.39,0.279 -0.599,0.157l-4.593,-2.679l0,3.353l5.459,2.939c0.213,0.115 0.293,0.38 0.178,0.593c-0.115,0.213 -0.38,0.293 -0.593,0.178l-5.044,-2.716l0,3.385l4.149,2.282c0.212,0.116 0.29,0.382 0.173,0.594c-0.117,0.212 -0.383,0.29 -0.594,0.173l-3.728,-2.051l0,5.825c0,0.241 -0.196,0.438 -0.438,0.438c-0.242,0 -0.437,-0.197 -0.437,-0.438l0,-5.825l-3.729,2.051c-0.211,0.117 -0.477,0.039 -0.594,-0.173c-0.116,-0.211 -0.039,-0.478 0.173,-0.594l4.15,-2.282l0,-3.385l-5.045,2.716c-0.212,0.115 -0.478,0.035 -0.593,-0.178c-0.114,-0.213 -0.034,-0.478 0.179,-0.593l5.459,-2.939l0,-3.353l-4.594,2.679c-0.208,0.122 -0.476,0.051 -0.599,-0.157c-0.121,-0.209 -0.051,-0.477 0.158,-0.599l5.035,-2.936l0,-3.143c-4.294,0.993 -6.565,4.269 -6.565,9.521c0,4.78 3.587,8.939 7.025,11.302c4.439,-2.512 6.979,-6.618 6.979,-11.302c0,-4.724 -1.867,-7.901 -5.401,-9.187c-0.227,-0.082 -0.344,-0.334 -0.262,-0.561c0.083,-0.226 0.335,-0.345 0.561,-0.261c3.911,1.423 5.978,4.884 5.978,10.009c0,5.095 -2.795,9.542 -7.669,12.2Z" style="fill:#adacac;"/><path d="M120.452,56.056c-0.143,0.078 -0.317,0.07 -0.452,-0.02c-3.691,-2.461 -7.635,-6.952 -7.635,-12.18c0,-5.711 2.642,-9.39 7.44,-10.417l0,-3.15c0,-0.242 0.195,-0.438 0.437,-0.438c0.243,0 0.438,0.196 0.438,0.438l0,7.188l5.035,2.937c0.208,0.122 0.279,0.39 0.157,0.599c-0.121,0.208 -0.39,0.279 -0.599,0.157l-4.593,-2.679l0,3.353l5.459,2.939c0.213,0.115 0.293,0.38 0.178,0.593c-0.114,0.213 -0.38,0.293 -0.593,0.178l-5.044,-2.716l0,3.385l4.149,2.282c0.213,0.116 0.29,0.382 0.173,0.594c-0.116,0.212 -0.383,0.29 -0.594,0.173l-3.728,-2.051l0,5.825c0,0.241 -0.195,0.438 -0.438,0.438c-0.242,0 -0.437,-0.197 -0.437,-0.438l0,-5.825l-3.728,2.051c-0.211,0.117 -0.478,0.039 -0.594,-0.173c-0.117,-0.211 -0.04,-0.478 0.173,-0.594l4.149,-2.282l0,-3.385l-5.044,2.716c-0.213,0.115 -0.479,0.035 -0.593,-0.178c-0.115,-0.213 -0.035,-0.478 0.178,-0.593l5.459,-2.939l0,-3.353l-4.593,2.679c-0.209,0.122 -0.477,0.051 -0.599,-0.157c-0.122,-0.209 -0.051,-0.477 0.157,-0.599l5.035,-2.936l0,-3.143c-4.294,0.993 -6.565,4.269 -6.565,9.521c0,4.78 3.588,8.939 7.025,11.302c4.44,-2.512 6.98,-6.618 6.98,-11.302c0,-4.724 -1.868,-7.901 -5.402,-9.187c-0.227,-0.082 -0.344,-0.334 -0.261,-0.561c0.082,-0.226 0.334,-0.345 0.561,-0.261c3.91,1.423 5.977,4.884 5.977,10.009c0,5.095 -2.795,9.542 -7.668,12.2Z" style="fill:#adacac;"/><path d="M152.556,56.056c-0.143,0.078 -0.317,0.07 -0.452,-0.02c-3.691,-2.461 -7.635,-6.952 -7.635,-12.18c0,-5.711 2.642,-9.39 7.44,-10.417l0,-3.15c0,-0.242 0.196,-0.438 0.438,-0.438c0.242,0 0.437,0.196 0.437,0.438l0,7.188l5.035,2.937c0.209,0.122 0.279,0.39 0.157,0.599c-0.121,0.208 -0.389,0.279 -0.598,0.157l-4.594,-2.679l0,3.353l5.459,2.939c0.213,0.115 0.293,0.38 0.179,0.593c-0.115,0.213 -0.381,0.293 -0.593,0.178l-5.045,-2.716l0,3.385l4.15,2.282c0.212,0.116 0.289,0.382 0.172,0.594c-0.116,0.212 -0.382,0.29 -0.593,0.173l-3.729,-2.051l0,5.825c0,0.241 -0.195,0.438 -0.437,0.438c-0.242,0 -0.438,-0.197 -0.438,-0.438l0,-5.825l-3.728,2.051c-0.211,0.117 -0.477,0.039 -0.594,-0.173c-0.117,-0.211 -0.039,-0.478 0.173,-0.594l4.149,-2.282l0,-3.385l-5.044,2.716c-0.213,0.115 -0.478,0.035 -0.593,-0.178c-0.115,-0.213 -0.035,-0.478 0.178,-0.593l5.459,-2.939l0,-3.353l-4.593,2.679c-0.209,0.122 -0.477,0.051 -0.599,-0.157c-0.122,-0.209 -0.051,-0.477 0.158,-0.599l5.034,-2.936l0,-3.143c-4.293,0.993 -6.564,4.269 -6.564,9.521c0,4.78 3.587,8.939 7.025,11.302c4.439,-2.512 6.979,-6.618 6.979,-11.302c0,-4.724 -1.868,-7.901 -5.401,-9.187c-0.227,-0.082 -0.345,-0.334 -0.262,-0.561c0.083,-0.226 0.335,-0.345 0.561,-0.261c3.91,1.423 5.977,4.884 5.977,10.009c0,5.095 -2.795,9.542 -7.668,12.2Z" style="fill:#adacac;"/><path d="M184.66,56.056c-0.142,0.078 -0.317,0.07 -0.452,-0.02c-3.69,-2.461 -7.634,-6.952 -7.634,-12.18c0,-5.711 2.642,-9.39 7.439,-10.417l0,-3.15c0,-0.242 0.196,-0.438 0.438,-0.438c0.242,0 0.438,0.196 0.438,0.438l0,7.188l5.034,2.937c0.209,0.122 0.279,0.39 0.158,0.599c-0.122,0.208 -0.39,0.279 -0.599,0.157l-4.593,-2.679l0,3.353l5.459,2.939c0.212,0.115 0.293,0.38 0.178,0.593c-0.115,0.213 -0.38,0.293 -0.593,0.178l-5.044,-2.716l0,3.385l4.149,2.282c0.212,0.116 0.29,0.382 0.173,0.594c-0.117,0.212 -0.383,0.29 -0.594,0.173l-3.728,-2.051l0,5.825c0,0.241 -0.196,0.438 -0.438,0.438c-0.242,0 -0.438,-0.197 -0.438,-0.438l0,-5.825l-3.728,2.051c-0.211,0.117 -0.477,0.039 -0.594,-0.173c-0.116,-0.211 -0.039,-0.478 0.173,-0.594l4.15,-2.282l0,-3.385l-5.045,2.716c-0.212,0.115 -0.478,0.035 -0.593,-0.178c-0.114,-0.213 -0.034,-0.478 0.178,-0.593l5.46,-2.939l0,-3.353l-4.594,2.679c-0.208,0.122 -0.476,0.051 -0.599,-0.157c-0.121,-0.209 -0.051,-0.477 0.158,-0.599l5.034,-2.936l0,-3.143c-4.293,0.993 -6.564,4.269 -6.564,9.521c0,4.78 3.587,8.939 7.025,11.302c4.439,-2.512 6.979,-6.618 6.979,-11.302c0,-4.724 -1.868,-7.901 -5.401,-9.187c-0.227,-0.082 -0.344,-0.334 -0.262,-0.561c0.083,-0.226 0.335,-0.345 0.561,-0.261c3.911,1.423 5.978,4.884 5.978,10.009c0,5.095 -2.795,9.542 -7.669,12.2Z" style="fill:#adacac;"/><path d="M216.765,56.056c-0.143,0.078 -0.317,0.07 -0.452,-0.02c-3.691,-2.461 -7.635,-6.952 -7.635,-12.18c0,-5.711 2.642,-9.39 7.44,-10.417l0,-3.15c0,-0.242 0.195,-0.438 0.437,-0.438c0.242,0 0.438,0.196 0.438,0.438l0,7.188l5.035,2.937c0.208,0.122 0.279,0.39 0.157,0.599c-0.122,0.208 -0.39,0.279 -0.599,0.157l-4.593,-2.679l0,3.353l5.459,2.939c0.213,0.115 0.293,0.38 0.178,0.593c-0.115,0.213 -0.38,0.293 -0.593,0.178l-5.044,-2.716l0,3.385l4.149,2.282c0.212,0.116 0.29,0.382 0.173,0.594c-0.116,0.212 -0.383,0.29 -0.594,0.173l-3.728,-2.051l0,5.825c0,0.241 -0.196,0.438 -0.438,0.438c-0.242,0 -0.437,-0.197 -0.437,-0.438l0,-5.825l-3.728,2.051c-0.211,0.117 -0.478,0.039 -0.594,-0.173c-0.117,-0.211 -0.04,-0.478 0.173,-0.594l4.149,-2.282l0,-3.385l-5.044,2.716c-0.213,0.115 -0.479,0.035 -0.593,-0.178c-0.115,-0.213 -0.035,-0.478 0.178,-0.593l5.459,-2.939l0,-3.353l-4.594,2.679c-0.208,0.122 -0.476,0.051 -0.598,-0.157c-0.122,-0.209 -0.051,-0.477 0.157,-0.599l5.035,-2.936l0,-3.143c-4.294,0.993 -6.565,4.269 -6.565,9.521c0,4.78 3.588,8.939 7.025,11.302c4.44,-2.512 6.98,-6.618 6.98,-11.302c0,-4.724 -1.868,-7.901 -5.402,-9.187c-0.227,-0.082 -0.344,-0.334 -0.261,-0.561c0.082,-0.226 0.334,-0.345 0.561,-0.261c3.91,1.423 5.977,4.884 5.977,10.009c0,5.095 -2.795,9.542 -7.668,12.2Z" style="fill:#adacac;"/></g></g><g><g><path d="M8.087,61.999c-0.143,-0.078 -0.317,-0.07 -0.452,0.02c-3.691,2.46 -7.635,6.952 -7.635,12.18c0,5.711 2.642,9.39 7.44,10.416l0,3.151c0,0.241 0.195,0.437 0.437,0.437c0.242,0 0.438,-0.196 0.438,-0.437l0,-7.189l5.035,-2.936c0.208,-0.122 0.279,-0.39 0.157,-0.599c-0.122,-0.208 -0.39,-0.279 -0.599,-0.158l-4.593,2.68l0,-3.353l5.459,-2.94c0.213,-0.114 0.293,-0.38 0.178,-0.592c-0.114,-0.213 -0.38,-0.293 -0.593,-0.178l-5.044,2.716l0,-3.385l4.149,-2.282c0.213,-0.117 0.29,-0.383 0.173,-0.595c-0.116,-0.211 -0.383,-0.289 -0.594,-0.172l-3.728,2.05l0,-5.824c0,-0.242 -0.196,-0.438 -0.438,-0.438c-0.242,0 -0.437,0.196 -0.437,0.438l0,5.824l-3.728,-2.05c-0.211,-0.117 -0.478,-0.039 -0.594,0.172c-0.117,0.212 -0.04,0.478 0.173,0.595l4.149,2.282l0,3.385l-5.044,-2.716c-0.213,-0.115 -0.479,-0.035 -0.593,0.178c-0.115,0.212 -0.035,0.478 0.178,0.592l5.459,2.94l0,3.353l-4.594,-2.68c-0.208,-0.121 -0.476,-0.05 -0.598,0.158c-0.122,0.209 -0.051,0.476 0.157,0.599l5.035,2.936l0,3.143c-4.294,-0.993 -6.565,-4.269 -6.565,-9.521c0,-4.78 3.588,-8.94 7.025,-11.303c4.44,2.513 6.98,6.619 6.98,11.303c0,4.723 -1.868,7.9 -5.402,9.186c-0.227,0.083 -0.344,0.334 -0.261,0.561c0.082,0.227 0.334,0.346 0.561,0.262c3.91,-1.423 5.977,-4.885 5.977,-10.009c0,-5.095 -2.795,-9.542 -7.668,-12.2Z" style="fill:#adacac;"/><path d="M40.191,61.999c-0.143,-0.078 -0.317,-0.07 -0.452,0.02c-3.691,2.46 -7.635,6.952 -7.635,12.18c0,5.711 2.642,9.39 7.44,10.416l0,3.151c0,0.241 0.196,0.437 0.438,0.437c0.242,0 0.437,-0.196 0.437,-0.437l0,-7.189l5.035,-2.936c0.209,-0.122 0.279,-0.39 0.157,-0.599c-0.121,-0.208 -0.389,-0.279 -0.598,-0.158l-4.594,2.68l0,-3.353l5.459,-2.94c0.213,-0.114 0.293,-0.38 0.178,-0.592c-0.114,-0.213 -0.38,-0.293 -0.593,-0.178l-5.044,2.716l0,-3.385l4.15,-2.282c0.212,-0.117 0.289,-0.383 0.172,-0.595c-0.116,-0.211 -0.383,-0.289 -0.593,-0.172l-3.729,2.05l0,-5.824c0,-0.242 -0.195,-0.438 -0.437,-0.438c-0.242,0 -0.438,0.196 -0.438,0.438l0,5.824l-3.728,-2.05c-0.211,-0.117 -0.478,-0.039 -0.594,0.172c-0.117,0.212 -0.039,0.478 0.173,0.595l4.149,2.282l0,3.385l-5.044,-2.716c-0.213,-0.115 -0.478,-0.035 -0.593,0.178c-0.115,0.212 -0.035,0.478 0.178,0.592l5.459,2.94l0,3.353l-4.593,-2.68c-0.209,-0.121 -0.477,-0.05 -0.599,0.158c-0.122,0.209 -0.051,0.476 0.158,0.599l5.034,2.936l0,3.143c-4.294,-0.993 -6.564,-4.269 -6.564,-9.521c0,-4.78 3.587,-8.94 7.025,-11.303c4.439,2.513 6.979,6.619 6.979,11.303c0,4.723 -1.868,7.9 -5.401,9.186c-0.227,0.083 -0.345,0.334 -0.262,0.561c0.083,0.227 0.335,0.346 0.561,0.262c3.91,-1.423 5.977,-4.885 5.977,-10.009c0,-5.095 -2.795,-9.542 -7.668,-12.2Z" style="fill:#adacac;"/><path d="M72.295,61.999c-0.142,-0.078 -0.317,-0.07 -0.452,0.02c-3.69,2.46 -7.634,6.952 -7.634,12.18c0,5.711 2.642,9.39 7.439,10.416l0,3.151c0,0.241 0.196,0.437 0.438,0.437c0.242,0 0.438,-0.196 0.438,-0.437l0,-7.189l5.034,-2.936c0.209,-0.122 0.279,-0.39 0.158,-0.599c-0.122,-0.208 -0.39,-0.279 -0.599,-0.158l-4.593,2.68l0,-3.353l5.459,-2.94c0.212,-0.114 0.292,-0.38 0.178,-0.592c-0.115,-0.213 -0.38,-0.293 -0.593,-0.178l-5.044,2.716l0,-3.385l4.149,-2.282c0.212,-0.117 0.29,-0.383 0.173,-0.595c-0.117,-0.211 -0.383,-0.289 -0.594,-0.172l-3.728,2.05l0,-5.824c0,-0.242 -0.196,-0.438 -0.438,-0.438c-0.242,0 -0.438,0.196 -0.438,0.438l0,5.824l-3.728,-2.05c-0.211,-0.117 -0.477,-0.039 -0.594,0.172c-0.116,0.212 -0.039,0.478 0.173,0.595l4.149,2.282l0,3.385l-5.044,-2.716c-0.212,-0.115 -0.478,-0.035 -0.593,0.178c-0.114,0.212 -0.034,0.478 0.178,0.592l5.459,2.94l0,3.353l-4.593,-2.68c-0.208,-0.121 -0.477,-0.05 -0.599,0.158c-0.121,0.209 -0.051,0.476 0.158,0.599l5.034,2.936l0,3.143c-4.293,-0.993 -6.564,-4.269 -6.564,-9.521c0,-4.78 3.587,-8.94 7.025,-11.303c4.439,2.513 6.979,6.619 6.979,11.303c0,4.723 -1.868,7.9 -5.401,9.186c-0.227,0.083 -0.344,0.334 -0.262,0.561c0.083,0.227 0.335,0.346 0.561,0.262c3.911,-1.423 5.977,-4.885 5.977,-10.009c0,-5.095 -2.794,-9.542 -7.668,-12.2Z" style="fill:#adacac;"/><path d="M104.4,61.999c-0.143,-0.078 -0.317,-0.07 -0.453,0.02c-3.69,2.46 -7.634,6.952 -7.634,12.18c0,5.711 2.642,9.39 7.44,10.416l0,3.151c0,0.241 0.195,0.437 0.437,0.437c0.242,0 0.438,-0.196 0.438,-0.437l0,-7.189l5.034,-2.936c0.209,-0.122 0.28,-0.39 0.158,-0.599c-0.122,-0.208 -0.39,-0.279 -0.599,-0.158l-4.593,2.68l0,-3.353l5.459,-2.94c0.213,-0.114 0.293,-0.38 0.178,-0.592c-0.115,-0.213 -0.38,-0.293 -0.593,-0.178l-5.044,2.716l0,-3.385l4.149,-2.282c0.212,-0.117 0.29,-0.383 0.173,-0.595c-0.116,-0.211 -0.383,-0.289 -0.594,-0.172l-3.728,2.05l0,-5.824c0,-0.242 -0.196,-0.438 -0.438,-0.438c-0.242,0 -0.437,0.196 -0.437,0.438l0,5.824l-3.728,-2.05c-0.211,-0.117 -0.478,-0.039 -0.594,0.172c-0.117,0.212 -0.04,0.478 0.173,0.595l4.149,2.282l0,3.385l-5.044,-2.716c-0.213,-0.115 -0.479,-0.035 -0.593,0.178c-0.115,0.212 -0.035,0.478 0.178,0.592l5.459,2.94l0,3.353l-4.594,-2.68c-0.208,-0.121 -0.476,-0.05 -0.598,0.158c-0.122,0.209 -0.052,0.476 0.157,0.599l5.035,2.936l0,3.143c-4.294,-0.993 -6.565,-4.269 -6.565,-9.521c0,-4.78 3.588,-8.94 7.025,-11.303c4.439,2.513 6.98,6.619 6.98,11.303c0,4.723 -1.868,7.9 -5.402,9.186c-0.227,0.083 -0.344,0.334 -0.261,0.561c0.082,0.227 0.334,0.346 0.561,0.262c3.91,-1.423 5.977,-4.885 5.977,-10.009c0,-5.095 -2.795,-9.542 -7.668,-12.2Z" style="fill:#adacac;"/><path d="M136.504,61.999c-0.143,-0.078 -0.317,-0.07 -0.452,0.02c-3.691,2.46 -7.635,6.952 -7.635,12.18c0,5.711 2.642,9.39 7.44,10.416l0,3.151c0,0.241 0.196,0.437 0.438,0.437c0.242,0 0.437,-0.196 0.437,-0.437l0,-7.189l5.035,-2.936c0.209,-0.122 0.279,-0.39 0.157,-0.599c-0.121,-0.208 -0.39,-0.279 -0.598,-0.158l-4.594,2.68l0,-3.353l5.459,-2.94c0.213,-0.114 0.293,-0.38 0.178,-0.592c-0.114,-0.213 -0.38,-0.293 -0.593,-0.178l-5.044,2.716l0,-3.385l4.149,-2.282c0.213,-0.117 0.29,-0.383 0.173,-0.595c-0.116,-0.211 -0.383,-0.289 -0.594,-0.172l-3.728,2.05l0,-5.824c0,-0.242 -0.195,-0.438 -0.437,-0.438c-0.242,0 -0.438,0.196 -0.438,0.438l0,5.824l-3.728,-2.05c-0.211,-0.117 -0.478,-0.039 -0.594,0.172c-0.117,0.212 -0.039,0.478 0.173,0.595l4.149,2.282l0,3.385l-5.044,-2.716c-0.213,-0.115 -0.478,-0.035 -0.593,0.178c-0.115,0.212 -0.035,0.478 0.178,0.592l5.459,2.94l0,3.353l-4.593,-2.68c-0.209,-0.121 -0.477,-0.05 -0.599,0.158c-0.122,0.209 -0.051,0.476 0.157,0.599l5.035,2.936l0,3.143c-4.294,-0.993 -6.564,-4.269 -6.564,-9.521c0,-4.78 3.587,-8.94 7.024,-11.303c4.44,2.513 6.98,6.619 6.98,11.303c0,4.723 -1.868,7.9 -5.401,9.186c-0.228,0.083 -0.345,0.334 -0.262,0.561c0.083,0.227 0.335,0.346 0.561,0.262c3.91,-1.423 5.977,-4.885 5.977,-10.009c0,-5.095 -2.795,-9.542 -7.668,-12.2Z" style="fill:#adacac;"/><path d="M168.608,61.999c-0.143,-0.078 -0.317,-0.07 -0.452,0.02c-3.691,2.46 -7.634,6.952 -7.634,12.18c0,5.711 2.642,9.39 7.439,10.416l0,3.151c0,0.241 0.196,0.437 0.438,0.437c0.242,0 0.438,-0.196 0.438,-0.437l0,-7.189l5.034,-2.936c0.209,-0.122 0.279,-0.39 0.158,-0.599c-0.122,-0.208 -0.39,-0.279 -0.599,-0.158l-4.593,2.68l0,-3.353l5.459,-2.94c0.212,-0.114 0.292,-0.38 0.178,-0.592c-0.115,-0.213 -0.381,-0.293 -0.593,-0.178l-5.044,2.716l0,-3.385l4.149,-2.282c0.212,-0.117 0.289,-0.383 0.173,-0.595c-0.117,-0.211 -0.383,-0.289 -0.594,-0.172l-3.728,2.05l0,-5.824c0,-0.242 -0.196,-0.438 -0.438,-0.438c-0.242,0 -0.438,0.196 -0.438,0.438l0,5.824l-3.728,-2.05c-0.211,-0.117 -0.477,-0.039 -0.594,0.172c-0.117,0.212 -0.039,0.478 0.173,0.595l4.149,2.282l0,3.385l-5.044,-2.716c-0.212,-0.115 -0.478,-0.035 -0.593,0.178c-0.114,0.212 -0.034,0.478 0.178,0.592l5.459,2.94l0,3.353l-4.593,-2.68c-0.208,-0.121 -0.477,-0.05 -0.599,0.158c-0.121,0.209 -0.051,0.476 0.158,0.599l5.034,2.936l0,3.143c-4.293,-0.993 -6.564,-4.269 -6.564,-9.521c0,-4.78 3.587,-8.94 7.025,-11.303c4.439,2.513 6.979,6.619 6.979,11.303c0,4.723 -1.868,7.9 -5.401,9.186c-0.227,0.083 -0.345,0.334 -0.262,0.561c0.083,0.227 0.335,0.346 0.561,0.262c3.91,-1.423 5.977,-4.885 5.977,-10.009c0,-5.095 -2.794,-9.542 -7.668,-12.2Z" style="fill:#adacac;"/><path d="M200.712,61.999c-0.142,-0.078 -0.316,-0.07 -0.452,0.02c-3.69,2.46 -7.634,6.952 -7.634,12.18c0,5.711 2.642,9.39 7.44,10.416l0,3.151c0,0.241 0.195,0.437 0.437,0.437c0.242,0 0.438,-0.196 0.438,-0.437l0,-7.189l5.034,-2.936c0.209,-0.122 0.28,-0.39 0.158,-0.599c-0.122,-0.208 -0.39,-0.279 -0.599,-0.158l-4.593,2.68l0,-3.353l5.459,-2.94c0.213,-0.114 0.293,-0.38 0.178,-0.592c-0.115,-0.213 -0.38,-0.293 -0.593,-0.178l-5.044,2.716l0,-3.385l4.149,-2.282c0.212,-0.117 0.29,-0.383 0.173,-0.595c-0.116,-0.211 -0.383,-0.289 -0.594,-0.172l-3.728,2.05l0,-5.824c0,-0.242 -0.196,-0.438 -0.438,-0.438c-0.242,0 -0.437,0.196 -0.437,0.438l0,5.824l-3.729,-2.05c-0.21,-0.117 -0.477,-0.039 -0.593,0.172c-0.117,0.212 -0.04,0.478 0.172,0.595l4.15,2.282l0,3.385l-5.044,-2.716c-0.213,-0.115 -0.479,-0.035 -0.593,0.178c-0.115,0.212 -0.035,0.478 0.178,0.592l5.459,2.94l0,3.353l-4.594,-2.68c-0.208,-0.121 -0.476,-0.05 -0.598,0.158c-0.122,0.209 -0.052,0.476 0.157,0.599l5.035,2.936l0,3.143c-4.294,-0.993 -6.565,-4.269 -6.565,-9.521c0,-4.78 3.587,-8.94 7.025,-11.303c4.439,2.513 6.979,6.619 6.979,11.303c0,4.723 -1.867,7.9 -5.401,9.186c-0.227,0.083 -0.344,0.334 -0.262,0.561c0.083,0.227 0.335,0.346 0.562,0.262c3.91,-1.423 5.977,-4.885 5.977,-10.009c0,-5.095 -2.795,-9.542 -7.669,-12.2Z" style="fill:#adacac;"/><path d="M232.817,61.999c-0.143,-0.078 -0.317,-0.07 -0.452,0.02c-3.691,2.46 -7.635,6.952 -7.635,12.18c0,5.711 2.642,9.39 7.44,10.416l0,3.151c0,0.241 0.196,0.437 0.438,0.437c0.242,0 0.437,-0.196 0.437,-0.437l0,-7.189l5.035,-2.936c0.208,-0.122 0.279,-0.39 0.157,-0.599c-0.121,-0.208 -0.39,-0.279 -0.598,-0.158l-4.594,2.68l0,-3.353l5.459,-2.94c0.213,-0.114 0.293,-0.38 0.178,-0.592c-0.114,-0.213 -0.38,-0.293 -0.593,-0.178l-5.044,2.716l0,-3.385l4.149,-2.282c0.213,-0.117 0.29,-0.383 0.173,-0.595c-0.116,-0.211 -0.383,-0.289 -0.594,-0.172l-3.728,2.05l0,-5.824c0,-0.242 -0.195,-0.438 -0.437,-0.438c-0.242,0 -0.438,0.196 -0.438,0.438l0,5.824l-3.728,-2.05c-0.211,-0.117 -0.478,-0.039 -0.594,0.172c-0.117,0.212 -0.04,0.478 0.173,0.595l4.149,2.282l0,3.385l-5.044,-2.716c-0.213,-0.115 -0.479,-0.035 -0.593,0.178c-0.115,0.212 -0.035,0.478 0.178,0.592l5.459,2.94l0,3.353l-4.593,-2.68c-0.209,-0.121 -0.477,-0.05 -0.599,0.158c-0.122,0.209 -0.051,0.476 0.157,0.599l5.035,2.936l0,3.143c-4.294,-0.993 -6.565,-4.269 -6.565,-9.521c0,-4.78 3.588,-8.94 7.025,-11.303c4.44,2.513 6.98,6.619 6.98,11.303c0,4.723 -1.868,7.9 -5.402,9.186c-0.227,0.083 -0.344,0.334 -0.261,0.561c0.082,0.227 0.335,0.346 0.561,0.262c3.91,-1.423 5.977,-4.885 5.977,-10.009c0,-5.095 -2.795,-9.542 -7.668,-12.2Z" style="fill:#adacac;"/></g><g><path d="M24.139,118.001c-0.143,0.078 -0.317,0.07 -0.452,-0.02c-3.691,-2.46 -7.635,-6.952 -7.635,-12.18c0,-5.711 2.642,-9.39 7.44,-10.416l0,-3.151c0,-0.241 0.196,-0.437 0.438,-0.437c0.242,0 0.437,0.196 0.437,0.437l0,7.189l5.035,2.936c0.208,0.122 0.279,0.39 0.157,0.599c-0.121,0.208 -0.39,0.279 -0.598,0.158l-4.594,-2.68l0,3.353l5.459,2.94c0.213,0.114 0.293,0.38 0.178,0.592c-0.114,0.213 -0.38,0.293 -0.593,0.178l-5.044,-2.716l0,3.385l4.149,2.282c0.213,0.117 0.29,0.383 0.173,0.595c-0.116,0.211 -0.383,0.289 -0.594,0.172l-3.728,-2.05l0,5.824c0,0.242 -0.195,0.438 -0.437,0.438c-0.242,0 -0.438,-0.196 -0.438,-0.438l0,-5.824l-3.728,2.05c-0.211,0.117 -0.478,0.039 -0.594,-0.172c-0.117,-0.212 -0.039,-0.478 0.173,-0.595l4.149,-2.282l0,-3.385l-5.044,2.716c-0.213,0.115 -0.478,0.035 -0.593,-0.178c-0.115,-0.212 -0.035,-0.478 0.178,-0.592l5.459,-2.94l0,-3.353l-4.593,2.68c-0.209,0.121 -0.477,0.05 -0.599,-0.158c-0.122,-0.209 -0.051,-0.476 0.157,-0.599l5.035,-2.936l0,-3.143c-4.294,0.993 -6.565,4.269 -6.565,9.521c0,4.78 3.588,8.94 7.025,11.303c4.44,-2.513 6.98,-6.619 6.98,-11.303c0,-4.723 -1.868,-7.9 -5.401,-9.186c-0.228,-0.083 -0.345,-0.334 -0.262,-0.561c0.083,-0.227 0.335,-0.346 0.561,-0.262c3.91,1.423 5.977,4.885 5.977,10.009c0,5.095 -2.795,9.542 -7.668,12.2Z" style="fill:#adacac;"/><path d="M56.243,118.001c-0.143,0.078 -0.317,0.07 -0.452,-0.02c-3.691,-2.46 -7.635,-6.952 -7.635,-12.18c0,-5.711 2.642,-9.39 7.44,-10.416l0,-3.151c0,-0.241 0.196,-0.437 0.438,-0.437c0.242,0 0.438,0.196 0.438,0.437l0,7.189l5.034,2.936c0.209,0.122 0.279,0.39 0.158,0.599c-0.122,0.208 -0.39,0.279 -0.599,0.158l-4.594,-2.68l0,3.353l5.46,2.94c0.212,0.114 0.292,0.38 0.178,0.592c-0.115,0.213 -0.381,0.293 -0.593,0.178l-5.045,-2.716l0,3.385l4.15,2.282c0.212,0.117 0.289,0.383 0.173,0.595c-0.117,0.211 -0.383,0.289 -0.594,0.172l-3.728,-2.05l0,5.824c0,0.242 -0.196,0.438 -0.438,0.438c-0.242,0 -0.438,-0.196 -0.438,-0.438l0,-5.824l-3.728,2.05c-0.211,0.117 -0.477,0.039 -0.594,-0.172c-0.117,-0.212 -0.039,-0.478 0.173,-0.595l4.149,-2.282l0,-3.385l-5.044,2.716c-0.213,0.115 -0.478,0.035 -0.593,-0.178c-0.115,-0.212 -0.034,-0.478 0.178,-0.592l5.459,-2.94l0,-3.353l-4.593,2.68c-0.208,0.121 -0.477,0.05 -0.599,-0.158c-0.121,-0.209 -0.051,-0.476 0.158,-0.599l5.034,-2.936l0,-3.143c-4.293,0.993 -6.564,4.269 -6.564,9.521c0,4.78 3.587,8.94 7.025,11.303c4.439,-2.513 6.979,-6.619 6.979,-11.303c0,-4.723 -1.868,-7.9 -5.401,-9.186c-0.227,-0.083 -0.345,-0.334 -0.262,-0.561c0.083,-0.227 0.335,-0.346 0.561,-0.262c3.91,1.423 5.977,4.885 5.977,10.009c0,5.095 -2.794,9.542 -7.668,12.2Z" style="fill:#adacac;"/><path d="M88.347,118.001c-0.142,0.078 -0.316,0.07 -0.452,-0.02c-3.69,-2.46 -7.634,-6.952 -7.634,-12.18c0,-5.711 2.642,-9.39 7.44,-10.416l0,-3.151c0,-0.241 0.195,-0.437 0.437,-0.437c0.242,0 0.438,0.196 0.438,0.437l0,7.189l5.034,2.936c0.209,0.122 0.28,0.39 0.158,0.599c-0.122,0.208 -0.39,0.279 -0.599,0.158l-4.593,-2.68l0,3.353l5.459,2.94c0.213,0.114 0.293,0.38 0.178,0.592c-0.115,0.213 -0.38,0.293 -0.593,0.178l-5.044,-2.716l0,3.385l4.149,2.282c0.212,0.117 0.29,0.383 0.173,0.595c-0.117,0.211 -0.383,0.289 -0.594,0.172l-3.728,-2.05l0,5.824c0,0.242 -0.196,0.438 -0.438,0.438c-0.242,0 -0.437,-0.196 -0.437,-0.438l0,-5.824l-3.729,2.05c-0.211,0.117 -0.477,0.039 -0.594,-0.172c-0.116,-0.212 -0.039,-0.478 0.173,-0.595l4.15,-2.282l0,-3.385l-5.045,2.716c-0.212,0.115 -0.478,0.035 -0.593,-0.178c-0.114,-0.212 -0.034,-0.478 0.179,-0.592l5.459,-2.94l0,-3.353l-4.594,2.68c-0.208,0.121 -0.476,0.05 -0.599,-0.158c-0.121,-0.209 -0.051,-0.476 0.158,-0.599l5.035,-2.936l0,-3.143c-4.294,0.993 -6.565,4.269 -6.565,9.521c0,4.78 3.587,8.94 7.025,11.303c4.439,-2.513 6.979,-6.619 6.979,-11.303c0,-4.723 -1.867,-7.9 -5.401,-9.186c-0.227,-0.083 -0.344,-0.334 -0.262,-0.561c0.083,-0.227 0.335,-0.346 0.561,-0.262c3.911,1.423 5.978,4.885 5.978,10.009c0,5.095 -2.795,9.542 -7.669,12.2Z" style="fill:#adacac;"/><path d="M120.452,118.001c-0.143,0.078 -0.317,0.07 -0.452,-0.02c-3.691,-2.46 -7.635,-6.952 -7.635,-12.18c0,-5.711 2.642,-9.39 7.44,-10.416l0,-3.151c0,-0.241 0.195,-0.437 0.437,-0.437c0.243,0 0.438,0.196 0.438,0.437l0,7.189l5.035,2.936c0.208,0.122 0.279,0.39 0.157,0.599c-0.121,0.208 -0.39,0.279 -0.599,0.158l-4.593,-2.68l0,3.353l5.459,2.94c0.213,0.114 0.293,0.38 0.178,0.592c-0.114,0.213 -0.38,0.293 -0.593,0.178l-5.044,-2.716l0,3.385l4.149,2.282c0.213,0.117 0.29,0.383 0.173,0.595c-0.116,0.211 -0.383,0.289 -0.594,0.172l-3.728,-2.05l0,5.824c0,0.242 -0.195,0.438 -0.438,0.438c-0.242,0 -0.437,-0.196 -0.437,-0.438l0,-5.824l-3.728,2.05c-0.211,0.117 -0.478,0.039 -0.594,-0.172c-0.117,-0.212 -0.04,-0.478 0.173,-0.595l4.149,-2.282l0,-3.385l-5.044,2.716c-0.213,0.115 -0.479,0.035 -0.593,-0.178c-0.115,-0.212 -0.035,-0.478 0.178,-0.592l5.459,-2.94l0,-3.353l-4.593,2.68c-0.209,0.121 -0.477,0.05 -0.599,-0.158c-0.122,-0.209 -0.051,-0.476 0.157,-0.599l5.035,-2.936l0,-3.143c-4.294,0.993 -6.565,4.269 -6.565,9.521c0,4.78 3.588,8.94 7.025,11.303c4.44,-2.513 6.98,-6.619 6.98,-11.303c0,-4.723 -1.868,-7.9 -5.402,-9.186c-0.227,-0.083 -0.344,-0.334 -0.261,-0.561c0.082,-0.227 0.334,-0.346 0.561,-0.262c3.91,1.423 5.977,4.885 5.977,10.009c0,5.095 -2.795,9.542 -7.668,12.2Z" style="fill:#adacac;"/><path d="M152.556,118.001c-0.143,0.078 -0.317,0.07 -0.452,-0.02c-3.691,-2.46 -7.635,-6.952 -7.635,-12.18c0,-5.711 2.642,-9.39 7.44,-10.416l0,-3.151c0,-0.241 0.196,-0.437 0.438,-0.437c0.242,0 0.437,0.196 0.437,0.437l0,7.189l5.035,2.936c0.209,0.122 0.279,0.39 0.157,0.599c-0.121,0.208 -0.389,0.279 -0.598,0.158l-4.594,-2.68l0,3.353l5.459,2.94c0.213,0.114 0.293,0.38 0.179,0.592c-0.115,0.213 -0.381,0.293 -0.593,0.178l-5.045,-2.716l0,3.385l4.15,2.282c0.212,0.117 0.289,0.383 0.172,0.595c-0.116,0.211 -0.382,0.289 -0.593,0.172l-3.729,-2.05l0,5.824c0,0.242 -0.195,0.438 -0.437,0.438c-0.242,0 -0.438,-0.196 -0.438,-0.438l0,-5.824l-3.728,2.05c-0.211,0.117 -0.477,0.039 -0.594,-0.172c-0.117,-0.212 -0.039,-0.478 0.173,-0.595l4.149,-2.282l0,-3.385l-5.044,2.716c-0.213,0.115 -0.478,0.035 -0.593,-0.178c-0.115,-0.212 -0.035,-0.478 0.178,-0.592l5.459,-2.94l0,-3.353l-4.593,2.68c-0.209,0.121 -0.477,0.05 -0.599,-0.158c-0.122,-0.209 -0.051,-0.476 0.158,-0.599l5.034,-2.936l0,-3.143c-4.293,0.993 -6.564,4.269 -6.564,9.521c0,4.78 3.587,8.94 7.025,11.303c4.439,-2.513 6.979,-6.619 6.979,-11.303c0,-4.723 -1.868,-7.9 -5.401,-9.186c-0.227,-0.083 -0.345,-0.334 -0.262,-0.561c0.083,-0.227 0.335,-0.346 0.561,-0.262c3.91,1.423 5.977,4.885 5.977,10.009c0,5.095 -2.795,9.542 -7.668,12.2Z" style="fill:#adacac;"/><path d="M184.66,118.001c-0.142,0.078 -0.317,0.07 -0.452,-0.02c-3.69,-2.46 -7.634,-6.952 -7.634,-12.18c0,-5.711 2.642,-9.39 7.439,-10.416l0,-3.151c0,-0.241 0.196,-0.437 0.438,-0.437c0.242,0 0.438,0.196 0.438,0.437l0,7.189l5.034,2.936c0.209,0.122 0.279,0.39 0.158,0.599c-0.122,0.208 -0.39,0.279 -0.599,0.158l-4.593,-2.68l0,3.353l5.459,2.94c0.212,0.114 0.293,0.38 0.178,0.592c-0.115,0.213 -0.38,0.293 -0.593,0.178l-5.044,-2.716l0,3.385l4.149,2.282c0.212,0.117 0.29,0.383 0.173,0.595c-0.117,0.211 -0.383,0.289 -0.594,0.172l-3.728,-2.05l0,5.824c0,0.242 -0.196,0.438 -0.438,0.438c-0.242,0 -0.438,-0.196 -0.438,-0.438l0,-5.824l-3.728,2.05c-0.211,0.117 -0.477,0.039 -0.594,-0.172c-0.116,-0.212 -0.039,-0.478 0.173,-0.595l4.15,-2.282l0,-3.385l-5.045,2.716c-0.212,0.115 -0.478,0.035 -0.593,-0.178c-0.114,-0.212 -0.034,-0.478 0.178,-0.592l5.46,-2.94l0,-3.353l-4.594,2.68c-0.208,0.121 -0.476,0.05 -0.599,-0.158c-0.121,-0.209 -0.051,-0.476 0.158,-0.599l5.034,-2.936l0,-3.143c-4.293,0.993 -6.564,4.269 -6.564,9.521c0,4.78 3.587,8.94 7.025,11.303c4.439,-2.513 6.979,-6.619 6.979,-11.303c0,-4.723 -1.868,-7.9 -5.401,-9.186c-0.227,-0.083 -0.344,-0.334 -0.262,-0.561c0.083,-0.227 0.335,-0.346 0.561,-0.262c3.911,1.423 5.978,4.885 5.978,10.009c0,5.095 -2.795,9.542 -7.669,12.2Z" style="fill:#adacac;"/><path d="M216.765,118.001c-0.143,0.078 -0.317,0.07 -0.452,-0.02c-3.691,-2.46 -7.635,-6.952 -7.635,-12.18c0,-5.711 2.642,-9.39 7.44,-10.416l0,-3.151c0,-0.241 0.195,-0.437 0.437,-0.437c0.242,0 0.438,0.196 0.438,0.437l0,7.189l5.035,2.936c0.208,0.122 0.279,0.39 0.157,0.599c-0.122,0.208 -0.39,0.279 -0.599,0.158l-4.593,-2.68l0,3.353l5.459,2.94c0.213,0.114 0.293,0.38 0.178,0.592c-0.115,0.213 -0.38,0.293 -0.593,0.178l-5.044,-2.716l0,3.385l4.149,2.282c0.212,0.117 0.29,0.383 0.173,0.595c-0.116,0.211 -0.383,0.289 -0.594,0.172l-3.728,-2.05l0,5.824c0,0.242 -0.196,0.438 -0.438,0.438c-0.242,0 -0.437,-0.196 -0.437,-0.438l0,-5.824l-3.728,2.05c-0.211,0.117 -0.478,0.039 -0.594,-0.172c-0.117,-0.212 -0.04,-0.478 0.173,-0.595l4.149,-2.282l0,-3.385l-5.044,2.716c-0.213,0.115 -0.479,0.035 -0.593,-0.178c-0.115,-0.212 -0.035,-0.478 0.178,-0.592l5.459,-2.94l0,-3.353l-4.594,2.68c-0.208,0.121 -0.476,0.05 -0.598,-0.158c-0.122,-0.209 -0.051,-0.476 0.157,-0.599l5.035,-2.936l0,-3.143c-4.294,0.993 -6.565,4.269 -6.565,9.521c0,4.78 3.588,8.94 7.025,11.303c4.44,-2.513 6.98,-6.619 6.98,-11.303c0,-4.723 -1.868,-7.9 -5.402,-9.186c-0.227,-0.083 -0.344,-0.334 -0.261,-0.561c0.082,-0.227 0.334,-0.346 0.561,-0.262c3.91,1.423 5.977,4.885 5.977,10.009c0,5.095 -2.795,9.542 -7.668,12.2Z" style="fill:#adacac;"/></g></g><g><g><path d="M8.087,123.944c-0.143,-0.078 -0.317,-0.07 -0.452,0.02c-3.691,2.461 -7.635,6.952 -7.635,12.18c0,5.711 2.642,9.39 7.44,10.417l0,3.15c0,0.242 0.195,0.438 0.437,0.438c0.242,0 0.438,-0.196 0.438,-0.438l0,-7.188l5.035,-2.937c0.208,-0.122 0.279,-0.39 0.157,-0.599c-0.122,-0.208 -0.39,-0.279 -0.599,-0.157l-4.593,2.679l0,-3.353l5.459,-2.939c0.213,-0.115 0.293,-0.38 0.178,-0.593c-0.114,-0.213 -0.38,-0.293 -0.593,-0.178l-5.044,2.716l0,-3.385l4.149,-2.282c0.213,-0.116 0.29,-0.382 0.173,-0.594c-0.116,-0.212 -0.383,-0.29 -0.594,-0.173l-3.728,2.051l0,-5.825c0,-0.241 -0.196,-0.438 -0.438,-0.438c-0.242,0 -0.437,0.197 -0.437,0.438l0,5.825l-3.728,-2.051c-0.211,-0.117 -0.478,-0.039 -0.594,0.173c-0.117,0.211 -0.04,0.478 0.173,0.594l4.149,2.282l0,3.385l-5.044,-2.716c-0.213,-0.115 -0.479,-0.035 -0.593,0.178c-0.115,0.213 -0.035,0.478 0.178,0.593l5.459,2.939l0,3.353l-4.594,-2.679c-0.208,-0.122 -0.476,-0.051 -0.598,0.157c-0.122,0.209 -0.051,0.477 0.157,0.599l5.035,2.936l0,3.143c-4.294,-0.993 -6.565,-4.269 -6.565,-9.521c0,-4.78 3.588,-8.939 7.025,-11.302c4.44,2.512 6.98,6.618 6.98,11.302c0,4.724 -1.868,7.901 -5.402,9.187c-0.227,0.082 -0.344,0.334 -0.261,0.561c0.082,0.226 0.334,0.345 0.561,0.261c3.91,-1.423 5.977,-4.884 5.977,-10.009c0,-5.095 -2.795,-9.542 -7.668,-12.2Z" style="fill:#adacac;"/><path d="M40.191,123.944c-0.143,-0.078 -0.317,-0.07 -0.452,0.02c-3.691,2.461 -7.635,6.952 -7.635,12.18c0,5.711 2.642,9.39 7.44,10.417l0,3.15c0,0.242 0.196,0.438 0.438,0.438c0.242,0 0.437,-0.196 0.437,-0.438l0,-7.188l5.035,-2.937c0.209,-0.122 0.279,-0.39 0.157,-0.599c-0.121,-0.208 -0.389,-0.279 -0.598,-0.157l-4.594,2.679l0,-3.353l5.459,-2.939c0.213,-0.115 0.293,-0.38 0.178,-0.593c-0.114,-0.213 -0.38,-0.293 -0.593,-0.178l-5.044,2.716l0,-3.385l4.15,-2.282c0.212,-0.116 0.289,-0.382 0.172,-0.594c-0.116,-0.212 -0.383,-0.29 -0.593,-0.173l-3.729,2.051l0,-5.825c0,-0.241 -0.195,-0.438 -0.437,-0.438c-0.242,0 -0.438,0.197 -0.438,0.438l0,5.825l-3.728,-2.051c-0.211,-0.117 -0.478,-0.039 -0.594,0.173c-0.117,0.211 -0.039,0.478 0.173,0.594l4.149,2.282l0,3.385l-5.044,-2.716c-0.213,-0.115 -0.478,-0.035 -0.593,0.178c-0.115,0.213 -0.035,0.478 0.178,0.593l5.459,2.939l0,3.353l-4.593,-2.679c-0.209,-0.122 -0.477,-0.051 -0.599,0.157c-0.122,0.209 -0.051,0.477 0.158,0.599l5.034,2.936l0,3.143c-4.294,-0.993 -6.564,-4.269 -6.564,-9.521c0,-4.78 3.587,-8.939 7.025,-11.302c4.439,2.512 6.979,6.618 6.979,11.302c0,4.724 -1.868,7.901 -5.401,9.187c-0.227,0.082 -0.345,0.334 -0.262,0.561c0.083,0.226 0.335,0.345 0.561,0.261c3.91,-1.423 5.977,-4.884 5.977,-10.009c0,-5.095 -2.795,-9.542 -7.668,-12.2Z" style="fill:#adacac;"/><path d="M72.295,123.944c-0.142,-0.078 -0.317,-0.07 -0.452,0.02c-3.69,2.461 -7.634,6.952 -7.634,12.18c0,5.711 2.642,9.39 7.439,10.417l0,3.15c0,0.242 0.196,0.438 0.438,0.438c0.242,0 0.438,-0.196 0.438,-0.438l0,-7.188l5.034,-2.937c0.209,-0.122 0.279,-0.39 0.158,-0.599c-0.122,-0.208 -0.39,-0.279 -0.599,-0.157l-4.593,2.679l0,-3.353l5.459,-2.939c0.212,-0.115 0.292,-0.38 0.178,-0.593c-0.115,-0.213 -0.38,-0.293 -0.593,-0.178l-5.044,2.716l0,-3.385l4.149,-2.282c0.212,-0.116 0.29,-0.382 0.173,-0.594c-0.117,-0.212 -0.383,-0.29 -0.594,-0.173l-3.728,2.051l0,-5.825c0,-0.241 -0.196,-0.438 -0.438,-0.438c-0.242,0 -0.438,0.197 -0.438,0.438l0,5.825l-3.728,-2.051c-0.211,-0.117 -0.477,-0.039 -0.594,0.173c-0.116,0.211 -0.039,0.478 0.173,0.594l4.149,2.282l0,3.385l-5.044,-2.716c-0.212,-0.115 -0.478,-0.035 -0.593,0.178c-0.114,0.213 -0.034,0.478 0.178,0.593l5.459,2.939l0,3.353l-4.593,-2.679c-0.208,-0.122 -0.477,-0.051 -0.599,0.157c-0.121,0.209 -0.051,0.477 0.158,0.599l5.034,2.936l0,3.143c-4.293,-0.993 -6.564,-4.269 -6.564,-9.521c0,-4.78 3.587,-8.939 7.025,-11.302c4.439,2.512 6.979,6.618 6.979,11.302c0,4.724 -1.868,7.901 -5.401,9.187c-0.227,0.082 -0.344,0.334 -0.262,0.561c0.083,0.226 0.335,0.345 0.561,0.261c3.911,-1.423 5.977,-4.884 5.977,-10.009c0,-5.095 -2.794,-9.542 -7.668,-12.2Z" style="fill:#adacac;"/><path d="M104.4,123.944c-0.143,-0.078 -0.317,-0.07 -0.453,0.02c-3.69,2.461 -7.634,6.952 -7.634,12.18c0,5.711 2.642,9.39 7.44,10.417l0,3.15c0,0.242 0.195,0.438 0.437,0.438c0.242,0 0.438,-0.196 0.438,-0.438l0,-7.188l5.034,-2.937c0.209,-0.122 0.28,-0.39 0.158,-0.599c-0.122,-0.208 -0.39,-0.279 -0.599,-0.157l-4.593,2.679l0,-3.353l5.459,-2.939c0.213,-0.115 0.293,-0.38 0.178,-0.593c-0.115,-0.213 -0.38,-0.293 -0.593,-0.178l-5.044,2.716l0,-3.385l4.149,-2.282c0.212,-0.116 0.29,-0.382 0.173,-0.594c-0.116,-0.212 -0.383,-0.29 -0.594,-0.173l-3.728,2.051l0,-5.825c0,-0.241 -0.196,-0.438 -0.438,-0.438c-0.242,0 -0.437,0.197 -0.437,0.438l0,5.825l-3.728,-2.051c-0.211,-0.117 -0.478,-0.039 -0.594,0.173c-0.117,0.211 -0.04,0.478 0.173,0.594l4.149,2.282l0,3.385l-5.044,-2.716c-0.213,-0.115 -0.479,-0.035 -0.593,0.178c-0.115,0.213 -0.035,0.478 0.178,0.593l5.459,2.939l0,3.353l-4.594,-2.679c-0.208,-0.122 -0.476,-0.051 -0.598,0.157c-0.122,0.209 -0.052,0.477 0.157,0.599l5.035,2.936l0,3.143c-4.294,-0.993 -6.565,-4.269 -6.565,-9.521c0,-4.78 3.588,-8.939 7.025,-11.302c4.439,2.512 6.98,6.618 6.98,11.302c0,4.724 -1.868,7.901 -5.402,9.187c-0.227,0.082 -0.344,0.334 -0.261,0.561c0.082,0.226 0.334,0.345 0.561,0.261c3.91,-1.423 5.977,-4.884 5.977,-10.009c0,-5.095 -2.795,-9.542 -7.668,-12.2Z" style="fill:#adacac;"/><path d="M136.504,123.944c-0.143,-0.078 -0.317,-0.07 -0.452,0.02c-3.691,2.461 -7.635,6.952 -7.635,12.18c0,5.711 2.642,9.39 7.44,10.417l0,3.15c0,0.242 0.196,0.438 0.438,0.438c0.242,0 0.437,-0.196 0.437,-0.438l0,-7.188l5.035,-2.937c0.209,-0.122 0.279,-0.39 0.157,-0.599c-0.121,-0.208 -0.39,-0.279 -0.598,-0.157l-4.594,2.679l0,-3.353l5.459,-2.939c0.213,-0.115 0.293,-0.38 0.178,-0.593c-0.114,-0.213 -0.38,-0.293 -0.593,-0.178l-5.044,2.716l0,-3.385l4.149,-2.282c0.213,-0.116 0.29,-0.382 0.173,-0.594c-0.116,-0.212 -0.383,-0.29 -0.594,-0.173l-3.728,2.051l0,-5.825c0,-0.241 -0.195,-0.438 -0.437,-0.438c-0.242,0 -0.438,0.197 -0.438,0.438l0,5.825l-3.728,-2.051c-0.211,-0.117 -0.478,-0.039 -0.594,0.173c-0.117,0.211 -0.039,0.478 0.173,0.594l4.149,2.282l0,3.385l-5.044,-2.716c-0.213,-0.115 -0.478,-0.035 -0.593,0.178c-0.115,0.213 -0.035,0.478 0.178,0.593l5.459,2.939l0,3.353l-4.593,-2.679c-0.209,-0.122 -0.477,-0.051 -0.599,0.157c-0.122,0.209 -0.051,0.477 0.157,0.599l5.035,2.936l0,3.143c-4.294,-0.993 -6.564,-4.269 -6.564,-9.521c0,-4.78 3.587,-8.939 7.024,-11.302c4.44,2.512 6.98,6.618 6.98,11.302c0,4.724 -1.868,7.901 -5.401,9.187c-0.228,0.082 -0.345,0.334 -0.262,0.561c0.083,0.226 0.335,0.345 0.561,0.261c3.91,-1.423 5.977,-4.884 5.977,-10.009c0,-5.095 -2.795,-9.542 -7.668,-12.2Z" style="fill:#adacac;"/><path d="M168.608,123.944c-0.143,-0.078 -0.317,-0.07 -0.452,0.02c-3.691,2.461 -7.634,6.952 -7.634,12.18c0,5.711 2.642,9.39 7.439,10.417l0,3.15c0,0.242 0.196,0.438 0.438,0.438c0.242,0 0.438,-0.196 0.438,-0.438l0,-7.188l5.034,-2.937c0.209,-0.122 0.279,-0.39 0.158,-0.599c-0.122,-0.208 -0.39,-0.279 -0.599,-0.157l-4.593,2.679l0,-3.353l5.459,-2.939c0.212,-0.115 0.292,-0.38 0.178,-0.593c-0.115,-0.213 -0.381,-0.293 -0.593,-0.178l-5.044,2.716l0,-3.385l4.149,-2.282c0.212,-0.116 0.289,-0.382 0.173,-0.594c-0.117,-0.212 -0.383,-0.29 -0.594,-0.173l-3.728,2.051l0,-5.825c0,-0.241 -0.196,-0.438 -0.438,-0.438c-0.242,0 -0.438,0.197 -0.438,0.438l0,5.825l-3.728,-2.051c-0.211,-0.117 -0.477,-0.039 -0.594,0.173c-0.117,0.211 -0.039,0.478 0.173,0.594l4.149,2.282l0,3.385l-5.044,-2.716c-0.212,-0.115 -0.478,-0.035 -0.593,0.178c-0.114,0.213 -0.034,0.478 0.178,0.593l5.459,2.939l0,3.353l-4.593,-2.679c-0.208,-0.122 -0.477,-0.051 -0.599,0.157c-0.121,0.209 -0.051,0.477 0.158,0.599l5.034,2.936l0,3.143c-4.293,-0.993 -6.564,-4.269 -6.564,-9.521c0,-4.78 3.587,-8.939 7.025,-11.302c4.439,2.512 6.979,6.618 6.979,11.302c0,4.724 -1.868,7.901 -5.401,9.187c-0.227,0.082 -0.345,0.334 -0.262,0.561c0.083,0.226 0.335,0.345 0.561,0.261c3.91,-1.423 5.977,-4.884 5.977,-10.009c0,-5.095 -2.794,-9.542 -7.668,-12.2Z" style="fill:#adacac;"/><path d="M200.712,123.944c-0.142,-0.078 -0.316,-0.07 -0.452,0.02c-3.69,2.461 -7.634,6.952 -7.634,12.18c0,5.711 2.642,9.39 7.44,10.417l0,3.15c0,0.242 0.195,0.438 0.437,0.438c0.242,0 0.438,-0.196 0.438,-0.438l0,-7.188l5.034,-2.937c0.209,-0.122 0.28,-0.39 0.158,-0.599c-0.122,-0.208 -0.39,-0.279 -0.599,-0.157l-4.593,2.679l0,-3.353l5.459,-2.939c0.213,-0.115 0.293,-0.38 0.178,-0.593c-0.115,-0.213 -0.38,-0.293 -0.593,-0.178l-5.044,2.716l0,-3.385l4.149,-2.282c0.212,-0.116 0.29,-0.382 0.173,-0.594c-0.116,-0.212 -0.383,-0.29 -0.594,-0.173l-3.728,2.051l0,-5.825c0,-0.241 -0.196,-0.438 -0.438,-0.438c-0.242,0 -0.437,0.197 -0.437,0.438l0,5.825l-3.729,-2.051c-0.21,-0.117 -0.477,-0.039 -0.593,0.173c-0.117,0.211 -0.04,0.478 0.172,0.594l4.15,2.282l0,3.385l-5.044,-2.716c-0.213,-0.115 -0.479,-0.035 -0.593,0.178c-0.115,0.213 -0.035,0.478 0.178,0.593l5.459,2.939l0,3.353l-4.594,-2.679c-0.208,-0.122 -0.476,-0.051 -0.598,0.157c-0.122,0.209 -0.052,0.477 0.157,0.599l5.035,2.936l0,3.143c-4.294,-0.993 -6.565,-4.269 -6.565,-9.521c0,-4.78 3.587,-8.939 7.025,-11.302c4.439,2.512 6.979,6.618 6.979,11.302c0,4.724 -1.867,7.901 -5.401,9.187c-0.227,0.082 -0.344,0.334 -0.262,0.561c0.083,0.226 0.335,0.345 0.562,0.261c3.91,-1.423 5.977,-4.884 5.977,-10.009c0,-5.095 -2.795,-9.542 -7.669,-12.2Z" style="fill:#adacac;"/><path d="M232.817,123.944c-0.143,-0.078 -0.317,-0.07 -0.452,0.02c-3.691,2.461 -7.635,6.952 -7.635,12.18c0,5.711 2.642,9.39 7.44,10.417l0,3.15c0,0.242 0.196,0.438 0.438,0.438c0.242,0 0.437,-0.196 0.437,-0.438l0,-7.188l5.035,-2.937c0.208,-0.122 0.279,-0.39 0.157,-0.599c-0.121,-0.208 -0.39,-0.279 -0.598,-0.157l-4.594,2.679l0,-3.353l5.459,-2.939c0.213,-0.115 0.293,-0.38 0.178,-0.593c-0.114,-0.213 -0.38,-0.293 -0.593,-0.178l-5.044,2.716l0,-3.385l4.149,-2.282c0.213,-0.116 0.29,-0.382 0.173,-0.594c-0.116,-0.212 -0.383,-0.29 -0.594,-0.173l-3.728,2.051l0,-5.825c0,-0.241 -0.195,-0.438 -0.437,-0.438c-0.242,0 -0.438,0.197 -0.438,0.438l0,5.825l-3.728,-2.051c-0.211,-0.117 -0.478,-0.039 -0.594,0.173c-0.117,0.211 -0.04,0.478 0.173,0.594l4.149,2.282l0,3.385l-5.044,-2.716c-0.213,-0.115 -0.479,-0.035 -0.593,0.178c-0.115,0.213 -0.035,0.478 0.178,0.593l5.459,2.939l0,3.353l-4.593,-2.679c-0.209,-0.122 -0.477,-0.051 -0.599,0.157c-0.122,0.209 -0.051,0.477 0.157,0.599l5.035,2.936l0,3.143c-4.294,-0.993 -6.565,-4.269 -6.565,-9.521c0,-4.78 3.588,-8.939 7.025,-11.302c4.44,2.512 6.98,6.618 6.98,11.302c0,4.724 -1.868,7.901 -5.402,9.187c-0.227,0.082 -0.344,0.334 -0.261,0.561c0.082,0.226 0.335,0.345 0.561,0.261c3.91,-1.423 5.977,-4.884 5.977,-10.009c0,-5.095 -2.795,-9.542 -7.668,-12.2Z" style="fill:#adacac;"/></g><g><path d="M24.139,179.947c-0.143,0.078 -0.317,0.07 -0.452,-0.021c-3.691,-2.46 -7.635,-6.952 -7.635,-12.18c0,-5.71 2.642,-9.39 7.44,-10.416l0,-3.15c0,-0.242 0.196,-0.438 0.438,-0.438c0.242,0 0.437,0.196 0.437,0.438l0,7.188l5.035,2.937c0.208,0.122 0.279,0.39 0.157,0.598c-0.121,0.209 -0.39,0.279 -0.598,0.158l-4.594,-2.68l0,3.353l5.459,2.94c0.213,0.114 0.293,0.38 0.178,0.593c-0.114,0.212 -0.38,0.292 -0.593,0.177l-5.044,-2.716l0,3.385l4.149,2.283c0.213,0.116 0.29,0.382 0.173,0.594c-0.116,0.212 -0.383,0.289 -0.594,0.172l-3.728,-2.05l0,5.825c0,0.241 -0.195,0.437 -0.437,0.437c-0.242,0 -0.438,-0.196 -0.438,-0.437l0,-5.825l-3.728,2.05c-0.211,0.117 -0.478,0.04 -0.594,-0.172c-0.117,-0.212 -0.039,-0.478 0.173,-0.594l4.149,-2.283l0,-3.385l-5.044,2.716c-0.213,0.115 -0.478,0.035 -0.593,-0.177c-0.115,-0.213 -0.035,-0.479 0.178,-0.593l5.459,-2.939l0,-3.354l-4.593,2.68c-0.209,0.121 -0.477,0.051 -0.599,-0.158c-0.122,-0.208 -0.051,-0.476 0.157,-0.598l5.035,-2.937l0,-3.142c-4.294,0.993 -6.565,4.268 -6.565,9.52c0,4.781 3.588,8.94 7.025,11.303c4.44,-2.513 6.98,-6.619 6.98,-11.303c0,-4.723 -1.868,-7.9 -5.401,-9.186c-0.228,-0.083 -0.345,-0.334 -0.262,-0.561c0.083,-0.227 0.335,-0.345 0.561,-0.261c3.91,1.423 5.977,4.884 5.977,10.008c0,5.096 -2.795,9.542 -7.668,12.201Z" style="fill:#adacac;"/><path d="M56.243,179.947c-0.143,0.078 -0.317,0.07 -0.452,-0.021c-3.691,-2.46 -7.635,-6.952 -7.635,-12.18c0,-5.71 2.642,-9.39 7.44,-10.416l0,-3.15c0,-0.242 0.196,-0.438 0.438,-0.438c0.242,0 0.438,0.196 0.438,0.438l0,7.188l5.034,2.937c0.209,0.122 0.279,0.39 0.158,0.598c-0.122,0.209 -0.39,0.279 -0.599,0.158l-4.594,-2.68l0,3.353l5.46,2.94c0.212,0.114 0.292,0.38 0.178,0.593c-0.115,0.212 -0.381,0.292 -0.593,0.177l-5.045,-2.716l0,3.385l4.15,2.283c0.212,0.116 0.289,0.382 0.173,0.594c-0.117,0.212 -0.383,0.289 -0.594,0.172l-3.728,-2.05l0,5.825c0,0.241 -0.196,0.437 -0.438,0.437c-0.242,0 -0.438,-0.196 -0.438,-0.437l0,-5.825l-3.728,2.05c-0.211,0.117 -0.477,0.04 -0.594,-0.172c-0.117,-0.212 -0.039,-0.478 0.173,-0.594l4.149,-2.283l0,-3.385l-5.044,2.716c-0.213,0.115 -0.478,0.035 -0.593,-0.177c-0.115,-0.213 -0.034,-0.479 0.178,-0.593l5.459,-2.939l0,-3.354l-4.593,2.68c-0.208,0.121 -0.477,0.051 -0.599,-0.158c-0.121,-0.208 -0.051,-0.476 0.158,-0.598l5.034,-2.937l0,-3.142c-4.293,0.993 -6.564,4.268 -6.564,9.52c0,4.781 3.587,8.94 7.025,11.303c4.439,-2.513 6.979,-6.619 6.979,-11.303c0,-4.723 -1.868,-7.9 -5.401,-9.186c-0.227,-0.083 -0.345,-0.334 -0.262,-0.561c0.083,-0.227 0.335,-0.345 0.561,-0.261c3.91,1.423 5.977,4.884 5.977,10.008c0,5.096 -2.794,9.542 -7.668,12.201Z" style="fill:#adacac;"/><path d="M88.347,179.947c-0.142,0.078 -0.316,0.07 -0.452,-0.021c-3.69,-2.46 -7.634,-6.952 -7.634,-12.18c0,-5.71 2.642,-9.39 7.44,-10.416l0,-3.15c0,-0.242 0.195,-0.438 0.437,-0.438c0.242,0 0.438,0.196 0.438,0.438l0,7.188l5.034,2.937c0.209,0.122 0.28,0.39 0.158,0.598c-0.122,0.209 -0.39,0.279 -0.599,0.158l-4.593,-2.68l0,3.353l5.459,2.94c0.213,0.114 0.293,0.38 0.178,0.593c-0.115,0.212 -0.38,0.292 -0.593,0.177l-5.044,-2.716l0,3.385l4.149,2.283c0.212,0.116 0.29,0.382 0.173,0.594c-0.117,0.212 -0.383,0.289 -0.594,0.172l-3.728,-2.05l0,5.825c0,0.241 -0.196,0.437 -0.438,0.437c-0.242,0 -0.437,-0.196 -0.437,-0.437l0,-5.825l-3.729,2.05c-0.211,0.117 -0.477,0.04 -0.594,-0.172c-0.116,-0.212 -0.039,-0.478 0.173,-0.594l4.15,-2.283l0,-3.385l-5.045,2.716c-0.212,0.115 -0.478,0.035 -0.593,-0.177c-0.114,-0.213 -0.034,-0.479 0.179,-0.593l5.459,-2.939l0,-3.354l-4.594,2.68c-0.208,0.121 -0.476,0.051 -0.599,-0.158c-0.121,-0.208 -0.051,-0.476 0.158,-0.598l5.035,-2.937l0,-3.142c-4.294,0.993 -6.565,4.268 -6.565,9.52c0,4.781 3.587,8.94 7.025,11.303c4.439,-2.513 6.979,-6.619 6.979,-11.303c0,-4.723 -1.867,-7.9 -5.401,-9.186c-0.227,-0.083 -0.344,-0.334 -0.262,-0.561c0.083,-0.227 0.335,-0.345 0.561,-0.261c3.911,1.423 5.978,4.884 5.978,10.008c0,5.096 -2.795,9.542 -7.669,12.201Z" style="fill:#adacac;"/><path d="M120.452,179.947c-0.143,0.078 -0.317,0.07 -0.452,-0.021c-3.691,-2.46 -7.635,-6.952 -7.635,-12.18c0,-5.71 2.642,-9.39 7.44,-10.416l0,-3.15c0,-0.242 0.195,-0.438 0.437,-0.438c0.243,0 0.438,0.196 0.438,0.438l0,7.188l5.035,2.937c0.208,0.122 0.279,0.39 0.157,0.598c-0.121,0.209 -0.39,0.279 -0.599,0.158l-4.593,-2.68l0,3.353l5.459,2.94c0.213,0.114 0.293,0.38 0.178,0.593c-0.114,0.212 -0.38,0.292 -0.593,0.177l-5.044,-2.716l0,3.385l4.149,2.283c0.213,0.116 0.29,0.382 0.173,0.594c-0.116,0.212 -0.383,0.289 -0.594,0.172l-3.728,-2.05l0,5.825c0,0.241 -0.195,0.437 -0.438,0.437c-0.242,0 -0.437,-0.196 -0.437,-0.437l0,-5.825l-3.728,2.05c-0.211,0.117 -0.478,0.04 -0.594,-0.172c-0.117,-0.212 -0.04,-0.478 0.173,-0.594l4.149,-2.283l0,-3.385l-5.044,2.716c-0.213,0.115 -0.479,0.035 -0.593,-0.177c-0.115,-0.213 -0.035,-0.479 0.178,-0.593l5.459,-2.939l0,-3.354l-4.593,2.68c-0.209,0.121 -0.477,0.051 -0.599,-0.158c-0.122,-0.208 -0.051,-0.476 0.157,-0.598l5.035,-2.937l0,-3.142c-4.294,0.993 -6.565,4.268 -6.565,9.52c0,4.781 3.588,8.94 7.025,11.303c4.44,-2.513 6.98,-6.619 6.98,-11.303c0,-4.723 -1.868,-7.9 -5.402,-9.186c-0.227,-0.083 -0.344,-0.334 -0.261,-0.561c0.082,-0.227 0.334,-0.345 0.561,-0.261c3.91,1.423 5.977,4.884 5.977,10.008c0,5.096 -2.795,9.542 -7.668,12.201Z" style="fill:#adacac;"/><path d="M152.556,179.947c-0.143,0.078 -0.317,0.07 -0.452,-0.021c-3.691,-2.46 -7.635,-6.952 -7.635,-12.18c0,-5.71 2.642,-9.39 7.44,-10.416l0,-3.15c0,-0.242 0.196,-0.438 0.438,-0.438c0.242,0 0.437,0.196 0.437,0.438l0,7.188l5.035,2.937c0.209,0.122 0.279,0.39 0.157,0.598c-0.121,0.209 -0.389,0.279 -0.598,0.158l-4.594,-2.68l0,3.353l5.459,2.94c0.213,0.114 0.293,0.38 0.179,0.593c-0.115,0.212 -0.381,0.292 -0.593,0.177l-5.045,-2.716l0,3.385l4.15,2.283c0.212,0.116 0.289,0.382 0.172,0.594c-0.116,0.212 -0.382,0.289 -0.593,0.172l-3.729,-2.05l0,5.825c0,0.241 -0.195,0.437 -0.437,0.437c-0.242,0 -0.438,-0.196 -0.438,-0.437l0,-5.825l-3.728,2.05c-0.211,0.117 -0.477,0.04 -0.594,-0.172c-0.117,-0.212 -0.039,-0.478 0.173,-0.594l4.149,-2.283l0,-3.385l-5.044,2.716c-0.213,0.115 -0.478,0.035 -0.593,-0.177c-0.115,-0.213 -0.035,-0.479 0.178,-0.593l5.459,-2.939l0,-3.354l-4.593,2.68c-0.209,0.121 -0.477,0.051 -0.599,-0.158c-0.122,-0.208 -0.051,-0.476 0.158,-0.598l5.034,-2.937l0,-3.142c-4.293,0.993 -6.564,4.268 -6.564,9.52c0,4.781 3.587,8.94 7.025,11.303c4.439,-2.513 6.979,-6.619 6.979,-11.303c0,-4.723 -1.868,-7.9 -5.401,-9.186c-0.227,-0.083 -0.345,-0.334 -0.262,-0.561c0.083,-0.227 0.335,-0.345 0.561,-0.261c3.91,1.423 5.977,4.884 5.977,10.008c0,5.096 -2.795,9.542 -7.668,12.201Z" style="fill:#adacac;"/><path d="M184.66,179.947c-0.142,0.078 -0.317,0.07 -0.452,-0.021c-3.69,-2.46 -7.634,-6.952 -7.634,-12.18c0,-5.71 2.642,-9.39 7.439,-10.416l0,-3.15c0,-0.242 0.196,-0.438 0.438,-0.438c0.242,0 0.438,0.196 0.438,0.438l0,7.188l5.034,2.937c0.209,0.122 0.279,0.39 0.158,0.598c-0.122,0.209 -0.39,0.279 -0.599,0.158l-4.593,-2.68l0,3.353l5.459,2.94c0.212,0.114 0.293,0.38 0.178,0.593c-0.115,0.212 -0.38,0.292 -0.593,0.177l-5.044,-2.716l0,3.385l4.149,2.283c0.212,0.116 0.29,0.382 0.173,0.594c-0.117,0.212 -0.383,0.289 -0.594,0.172l-3.728,-2.05l0,5.825c0,0.241 -0.196,0.437 -0.438,0.437c-0.242,0 -0.438,-0.196 -0.438,-0.437l0,-5.825l-3.728,2.05c-0.211,0.117 -0.477,0.04 -0.594,-0.172c-0.116,-0.212 -0.039,-0.478 0.173,-0.594l4.15,-2.283l0,-3.385l-5.045,2.716c-0.212,0.115 -0.478,0.035 -0.593,-0.177c-0.114,-0.213 -0.034,-0.479 0.178,-0.593l5.46,-2.939l0,-3.354l-4.594,2.68c-0.208,0.121 -0.476,0.051 -0.599,-0.158c-0.121,-0.208 -0.051,-0.476 0.158,-0.598l5.034,-2.937l0,-3.142c-4.293,0.993 -6.564,4.268 -6.564,9.52c0,4.781 3.587,8.94 7.025,11.303c4.439,-2.513 6.979,-6.619 6.979,-11.303c0,-4.723 -1.868,-7.9 -5.401,-9.186c-0.227,-0.083 -0.344,-0.334 -0.262,-0.561c0.083,-0.227 0.335,-0.345 0.561,-0.261c3.911,1.423 5.978,4.884 5.978,10.008c0,5.096 -2.795,9.542 -7.669,12.201Z" style="fill:#adacac;"/><path d="M216.765,179.947c-0.143,0.078 -0.317,0.07 -0.452,-0.021c-3.691,-2.46 -7.635,-6.952 -7.635,-12.18c0,-5.71 2.642,-9.39 7.44,-10.416l0,-3.15c0,-0.242 0.195,-0.438 0.437,-0.438c0.242,0 0.438,0.196 0.438,0.438l0,7.188l5.035,2.937c0.208,0.122 0.279,0.39 0.157,0.598c-0.122,0.209 -0.39,0.279 -0.599,0.158l-4.593,-2.68l0,3.353l5.459,2.94c0.213,0.114 0.293,0.38 0.178,0.593c-0.115,0.212 -0.38,0.292 -0.593,0.177l-5.044,-2.716l0,3.385l4.149,2.283c0.212,0.116 0.29,0.382 0.173,0.594c-0.116,0.212 -0.383,0.289 -0.594,0.172l-3.728,-2.05l0,5.825c0,0.241 -0.196,0.437 -0.438,0.437c-0.242,0 -0.437,-0.196 -0.437,-0.437l0,-5.825l-3.728,2.05c-0.211,0.117 -0.478,0.04 -0.594,-0.172c-0.117,-0.212 -0.04,-0.478 0.173,-0.594l4.149,-2.283l0,-3.385l-5.044,2.716c-0.213,0.115 -0.479,0.035 -0.593,-0.177c-0.115,-0.213 -0.035,-0.479 0.178,-0.593l5.459,-2.939l0,-3.354l-4.594,2.68c-0.208,0.121 -0.476,0.051 -0.598,-0.158c-0.122,-0.208 -0.051,-0.476 0.157,-0.598l5.035,-2.937l0,-3.142c-4.294,0.993 -6.565,4.268 -6.565,9.52c0,4.781 3.588,8.94 7.025,11.303c4.44,-2.513 6.98,-6.619 6.98,-11.303c0,-4.723 -1.868,-7.9 -5.402,-9.186c-0.227,-0.083 -0.344,-0.334 -0.261,-0.561c0.082,-0.227 0.334,-0.345 0.561,-0.261c3.91,1.423 5.977,4.884 5.977,10.008c0,5.096 -2.795,9.542 -7.668,12.201Z" style="fill:#adacac;"/></g></g></svg>