<?xml version="1.0" encoding="iso-8859-1"?>
<!-- Generator: Adobe Illustrator 19.0.0, SVG Export Plug-In . SVG Version: 6.00 Build 0)  -->
<svg version="1.1" id="Layer_1" xmlns="http://www.w3.org/2000/svg" xmlns:xlink="http://www.w3.org/1999/xlink" x="0px" y="0px"
	 viewBox="0 0 511.999 511.999" style="enable-background:new 0 0 511.999 511.999;" xml:space="preserve">
<g>
	<g>
		<path d="M482.51,251.506c0-25.203-15.386-47.674-37.922-57.262c2.654-7.001,4.031-14.463,4.031-22.044
			c0-34.076-27.551-61.826-61.547-62.176c-7.286-27.39-29.688-47.193-58.075-50.908c-24.99-3.27-48.685,6.802-63.456,26.151V9.543
			c0-5.271-4.273-9.543-9.543-9.543c-5.271,0-9.543,4.273-9.543,9.543v75.724c-14.772-19.349-38.473-29.419-63.456-26.15
			c-28.387,3.716-50.787,23.519-58.075,50.908c-33.995,0.35-61.546,28.1-61.546,62.176c0,7.581,1.377,15.043,4.031,22.044
			c-22.535,9.589-37.922,32.058-37.922,57.262c0,18.456,8.239,35.807,22.064,47.506c-7.784,10.603-12.104,23.54-12.104,36.845
			c0,31.222,23.124,57.144,53.148,61.536c-0.332,2.603-0.499,5.23-0.499,7.866c0,34.293,27.898,62.191,62.191,62.191
			c3.999,0,7.958-0.38,11.846-1.135c7.318,26.363,31.75,45.684,59.943,45.684c10.558,0,20.783-2.631,29.915-7.658
			c9.144,5.026,19.371,7.658,29.924,7.658c28.192,0,52.625-19.322,59.943-45.684c3.889,0.755,7.847,1.135,11.846,1.135
			c34.293,0,62.191-27.898,62.191-62.191c0-2.637-0.167-5.263-0.499-7.866c30.022-4.391,53.148-30.314,53.148-61.536
			c0-13.305-4.32-26.243-12.104-36.845C474.271,287.313,482.51,269.962,482.51,251.506z M274.561,107.144
			c4.396-2.89,17.088-10.103,28.383-5.655c12.417,4.888,21.392,22.982,25.957,52.326c0.733,4.712,4.795,8.078,9.417,8.078
			c0.487,0,0.981-0.037,1.479-0.115c5.208-0.809,8.773-5.689,7.963-10.896c-5.746-36.941-18.472-59.534-37.825-67.151
			c-3.134-1.234-6.258-1.991-9.327-2.39c8.714-3.568,17.911-4.345,25.912-3.299c17.139,2.243,37.38,13.856,42.791,39.72
			c12.814,61.244-6.691,115.581-15.682,136.128c-50.179-31.528-81.567-108.989-87.569-124.819
			C268.563,121.038,271.416,113.69,274.561,107.144z M142.686,117.762c5.41-25.865,25.653-37.477,42.791-39.721
			c2.149-0.281,4.382-0.431,6.671-0.431c6.235,0,12.867,1.12,19.239,3.728c-3.068,0.398-6.192,1.157-9.326,2.391
			c-19.353,7.617-32.078,30.211-37.826,67.151c-0.811,5.208,2.755,10.087,7.963,10.896c0.498,0.078,0.991,0.115,1.479,0.115
			c4.623,0,8.686-3.367,9.417-8.078c4.555-29.28,13.505-47.363,25.88-52.295c11.326-4.511,24.029,2.708,28.461,5.626
			c3.146,6.548,5.998,13.898,8.499,21.929c-5.989,15.824-37.316,93.277-87.587,124.826
			C149.344,233.403,129.83,179.209,142.686,117.762z M439.734,304.319c8.852,8.243,13.728,19.443,13.728,31.539
			c0,23.768-19.337,43.104-43.106,43.104c-0.775,0-1.551-0.025-2.313-0.06c-3.148-0.154-6.162,1.27-8.06,3.784
			s-2.433,5.804-1.429,8.789c1.499,4.461,2.26,9.099,2.26,13.784c0,23.768-19.336,43.104-43.104,43.104
			c-5.436,0-10.765-1.014-15.839-3.014c-2.807-1.108-5.974-0.82-8.538,0.772c-2.564,1.593-4.222,4.306-4.473,7.315
			c-1.84,22.136-20.701,39.475-42.939,39.475c-8.802,0-17.276-2.639-24.504-7.631c-3.266-2.255-7.588-2.253-10.853,0.004
			c-7.211,4.989-15.678,7.627-24.483,7.627c-22.239,0-41.099-17.34-42.939-39.475c-0.249-3.008-1.909-5.721-4.473-7.315
			c-2.564-1.593-5.729-1.882-8.538-0.772c-5.075,2-10.404,3.014-15.839,3.014c-23.768,0-43.104-19.336-43.104-43.104
			c0-4.685,0.761-9.323,2.26-13.784c1.004-2.986,0.468-6.274-1.429-8.789c-1.898-2.514-4.917-3.938-8.06-3.784
			c-0.763,0.036-1.538,0.06-2.313,0.06c-23.768,0-43.106-19.336-43.106-43.104c0-12.095,4.876-23.296,13.729-31.539
			c2.226-2.072,3.33-5.081,2.975-8.1c-0.356-3.021-2.129-5.69-4.776-7.188c-13.501-7.646-21.889-22.025-21.889-37.525
			c0-20.302,14.395-38.042,34.228-42.183c3.051-0.638,5.6-2.726,6.825-5.592c1.224-2.867,0.972-6.151-0.677-8.798
			c-4.242-6.808-6.486-14.669-6.486-22.734c0-22.342,17.086-40.764,38.878-42.896c-10.555,77.698,22.914,139.742,24.436,142.508
			c1.733,3.151,4.994,4.946,8.369,4.946c1.435,0,2.892-0.326,4.261-1.009c49.483-24.742,82.647-87.174,97.587-120.915
			c14.941,33.74,48.104,96.172,97.587,120.915c1.368,0.685,2.825,1.009,4.261,1.009c3.375,0,6.636-1.797,8.369-4.946
			c1.522-2.768,34.991-64.81,24.436-142.508c21.792,2.13,38.88,20.553,38.88,42.896c0,8.065-2.242,15.926-6.486,22.734
			c-1.649,2.647-1.901,5.931-0.677,8.798c1.225,2.867,3.773,4.955,6.825,5.592c19.832,4.141,34.228,21.882,34.228,42.183
			c0,15.5-8.387,29.877-21.889,37.525c-2.647,1.498-4.419,4.167-4.776,7.188C436.404,299.239,437.509,302.247,439.734,304.319z"/>
	</g>
</g>
<g>
</g>
<g>
</g>
<g>
</g>
<g>
</g>
<g>
</g>
<g>
</g>
<g>
</g>
<g>
</g>
<g>
</g>
<g>
</g>
<g>
</g>
<g>
</g>
<g>
</g>
<g>
</g>
<g>
</g>
</svg>
