<?xml version="1.0" encoding="UTF-8"?>
<svg width="50px" height="50px" viewBox="0 0 50 50" version="1.1" xmlns="http://www.w3.org/2000/svg" xmlns:xlink="http://www.w3.org/1999/xlink">
    <!-- Generator: Sketch 42 (36781) - http://www.bohemiancoding.com/sketch -->
    <title>Tourism_icon</title>
    <desc>Created with Sketch.</desc>
    <defs></defs>
    <g id="🖥-Desktop" stroke="none" stroke-width="1" fill="none" fill-rule="evenodd">
        <g id="2_1_1_D_WWF_Country_BiH-Copy" transform="translate(-30.000000, -565.000000)" fill-rule="nonzero" fill="#FFFFFF">
            <g id="Sidebar_navigation" transform="translate(0.000000, 550.000000)">
                <g id="Tourism">
                    <g id="Tourism_icon" transform="translate(30.000000, 15.000000)">
                        <path d="M36.5,5 C37.328,5 38,4.25333333 38,3.33333333 L38,1.66666667 C38,0.746666667 37.328,0 36.5,0 C35.672,0 35,0.746666667 35,1.66666667 L35,3.33333333 C35,4.25333333 35.672,5 36.5,5 Z" id="Shape"></path>
                        <path d="M28.8470029,7.4587855 C29.2072134,7.81990302 29.6801053,8 30.1529971,8 C30.625889,8 31.0978572,7.81990302 31.4589914,7.4587855 C32.1803362,6.73747402 32.1803362,5.56822905 31.4589914,4.84691757 L30.1529971,3.54098361 C29.4316524,2.81967213 28.2614298,2.81967213 27.5410086,3.54098361 C26.8196638,4.26229508 26.8196638,5.43154006 27.5410086,6.15285154 L28.8470029,7.4587855 Z" id="Shape"></path>
                        <path d="M43.8470029,8 C44.3198947,8 44.7918629,7.81990302 45.1529971,7.4587855 L46.4589914,6.15285154 C47.1803362,5.43154006 47.1803362,4.26229508 46.4589914,3.54098361 C45.7376466,2.81967213 44.5683476,2.81967213 43.8470029,3.54098361 L42.5410086,4.84691757 C41.8196638,5.56822905 41.8196638,6.73747402 42.5410086,7.4587855 C42.9021428,7.81897945 43.3750346,8 43.8470029,8 Z" id="Shape"></path>
                        <path d="M43.3333379,40.1818835 L7.61010141,40.1818835 L3.09594699,32.7945691 C2.62261494,32.0197561 1.59845105,31.7685759 0.809286527,32.2333001 C0.0201220004,32.6980243 -0.235710639,33.703563 0.23762141,34.4783761 L4.76677579,41.8894176 L1.84261706,47.6321976 C1.43095151,48.4405558 1.76511727,49.4231857 2.58844837,49.828183 C2.82761439,49.9451822 3.08178036,50 3.33261302,50 C3.94344469,50 4.53260976,49.6694567 4.82510897,49.0959151 L7.69676785,43.454589 L18.3334057,43.454589 L18.3334057,48.3636473 C18.3334057,49.266914 19.0800703,50 20.0000678,50 C20.9200653,50 21.66673,49.266914 21.66673,48.3636473 L21.66673,43.454589 L37.0316883,43.454589 L38.3825179,48.7604628 C38.5725174,49.5041851 39.2525156,50 39.9983469,50 C40.1325132,50 40.2683462,49.9844546 40.4041791,49.9509094 C41.2966767,49.7316382 41.8400086,48.8430986 41.6166758,47.9660135 L40.4683456,43.454589 L43.3333379,43.454589 C44.2533354,43.454589 45,42.721503 45,41.8182363 C45,40.9149696 44.2533354,40.1818835 43.3333379,40.1818835 Z" id="Shape"></path>
                        <path d="M36.5,20 C40.0839375,20 43,17.0839375 43,13.5 C43,9.9160625 40.0839375,7 36.5,7 C32.9160625,7 30,9.9160625 30,13.5 C30,17.0839375 32.9160625,20 36.5,20 Z M36.5,10.25 C38.292375,10.25 39.75,11.707625 39.75,13.5 C39.75,15.292375 38.292375,16.75 36.5,16.75 C34.707625,16.75 33.25,15.292375 33.25,13.5 C33.25,11.707625 34.707625,10.25 36.5,10.25 Z" id="Shape"></path>
                        <path d="M24.6666667,15 L26.3333333,15 C27.2533333,15 28,14.328 28,13.5 C28,12.672 27.2533333,12 26.3333333,12 L24.6666667,12 C23.7466667,12 23,12.672 23,13.5 C23,14.328 23.7466667,15 24.6666667,15 Z" id="Shape"></path>
                        <path d="M48.3333333,12 L46.6666667,12 C45.7466667,12 45,12.672 45,13.5 C45,14.328 45.7466667,15 46.6666667,15 L48.3333333,15 C49.2533333,15 50,14.328 50,13.5 C50,12.672 49.2533333,12 48.3333333,12 Z" id="Shape"></path>
                        <path d="M35,23.6666667 L35,25.3333333 C35,26.2533333 35.672,27 36.5,27 C37.328,27 38,26.2533333 38,25.3333333 L38,23.6666667 C38,22.7466667 37.328,22 36.5,22 C35.672,22 35,22.7466667 35,23.6666667 Z" id="Shape"></path>
                        <path d="M42.5410086,19.5409836 C41.8196638,20.2622951 41.8196638,21.4315401 42.5410086,22.1528515 L43.8470029,23.4587855 C44.2081371,23.819903 44.6801053,24 45.1529971,24 C45.625889,24 46.0978572,23.819903 46.4589914,23.4587855 C47.1803362,22.737474 47.1803362,21.568229 46.4589914,20.8469176 L45.1529971,19.5409836 C44.4316524,18.8196721 43.263277,18.8196721 42.5410086,19.5409836 Z" id="Shape"></path>
                        <path d="M28.8470029,19.5409836 L27.5410086,20.8469176 C26.8196638,21.568229 26.8196638,22.737474 27.5410086,23.4587855 C27.9012192,23.819903 28.374111,24 28.8470029,24 C29.3198947,24 29.7918629,23.819903 30.1529971,23.4587855 L31.4589914,22.1528515 C32.1803362,21.4315401 32.1803362,20.2622951 31.4589914,19.5409836 C30.736723,18.8196721 29.567424,18.8196721 28.8470029,19.5409836 Z" id="Shape"></path>
                    </g>
                </g>
            </g>
        </g>
    </g>
</svg>