<svg xmlns="http://www.w3.org/2000/svg" viewBox="0 0 217.4 70.7"><defs><style>.a{fill:#ed1a3b;}</style></defs><title>cocacola</title><path class="a" d="M201.5,300.3c6.2-11.5,17-24.1,29.8-28.3,2.6-.7,6.1-1.4,8.4.4s2.3,4.1,1.9,6.5-2.5,6.3-5.7,6.8a1.9,1.9,0,0,1-1.4-.6,3.3,3.3,0,0,1-.6-3c0.5-2.2,2.6-4.6,4.9-4.9a0.9,0.9,0,0,0,.1-1.1,2,2,0,0,0-1.3-1c-2.6-.3-4.5,1.3-6.4,2.6-7.4,6-12.8,13.6-17.4,21.3s-6.9,14-7.8,22c-0.5,5.8,1.4,11.5,6.6,14.3s12.9,1,18.5-.6l5.2-1.6,9.9-3c9.4-2.8,21.2-3.4,30.4.3,5.6,2.3,11.3,5.5,14.9,11,0,0.1,0,.3-0.2.3-7.9-2.2-18.2-4.3-26-.5H265a15.7,15.7,0,0,0-10.5-6.7c-13.3-1.3-24.2,5-36.6,6.6-6.3.6-13.1,0.4-17.5-4.5-7-6.9-6.1-19.2-2.8-27.6A70.2,70.2,0,0,1,201.5,300.3Z" transform="translate(-195.1 -271)"/><path class="a" d="M219.8,304.4c3.3-6,8.3-13.4,15.3-15.6a6,6,0,0,1,5.3,1c3,3,1.8,8.1.8,11.7a0.5,0.5,0,0,0,.4.5,10.1,10.1,0,0,0,6.8-3.2c4.1-4.6,8.6-10.7,15.3-10a4.4,4.4,0,0,1,3.2,2.1c1.7,3.4,0,7.1-2.3,9.8a3.3,3.3,0,0,1-3.3,1.1,2.1,2.1,0,0,1-1.1-1.2,5.8,5.8,0,0,1,2.8-5.8c0.5-.5,2.2-0.2,1.8-1.4a1.5,1.5,0,0,0-1.4-.6c-3.3,1.4-5.4,4.7-7.3,7.5a48.3,48.3,0,0,0-5.6,12c-0.3,1.5-.8,3.5.1,4.9a2.7,2.7,0,0,0,2.9,1c3.2-1.3,6.1-3.9,8.6-6.6,5.7-6.8,8.7-15.2,16.3-20.8,2.4-1.6,5.7-2.9,8.5-1.4,0.5,0.2.8,0.8,1.4,0.6s0.8-1.4,1.7-1.2,4.5-.1,6.7.1V289l-0.6,1.5-11.8,24a1.6,1.6,0,0,0-.1.9,0.7,0.7,0,0,0,.9.2,16.2,16.2,0,0,0,4.2-4.3,28.9,28.9,0,0,0,2.7-4.5,1.5,1.5,0,0,1,1.3-.9c0.7,0.1,1.5-.2,2,0.3a45.3,45.3,0,0,1-3,5.7c-3.2,4.9-7.4,10.7-13.3,12.1a3.6,3.6,0,0,1-2.9-.5c-1.1-.9-1.2-2.2-1.5-3.5a0.4,0.4,0,0,0-.5-0.1c-2.5,2.3-5.1,4.5-8.6,4.1a3.9,3.9,0,0,1-2.6-2.1c-0.9-1.8-.5-4-0.5-6-0.1-.2-0.4-0.1-0.5-0.1-3.8,3.8-8,7.2-13.1,8.1a6.7,6.7,0,0,1-6-2.1c-3.8-5-.8-11.5,1.2-16.4a0.4,0.4,0,0,0-.2-0.6l-4,.5-0.5.5c-3.1,5.7-6.4,11.8-12,16.1-2.3,1.7-5.7,2.8-8.4,1.3s-3.1-5.4-2.7-8.6A40.6,40.6,0,0,1,219.8,304.4Zm8.8-.3c-1.6,3.3-3.3,6.6-3.3,10.4a2.2,2.2,0,0,0,1.4,1.8,2.8,2.8,0,0,0,2.2-.7c3.2-2.7,5.4-6.3,7.2-9.8a1.4,1.4,0,0,0,.2-1.1,14,14,0,0,1-5.2-3.7h-0.3a1.4,1.4,0,0,0-.6.5Zm4.9-6.6a4.9,4.9,0,0,0,3.2,3.8,1.1,1.1,0,0,0,1.3-.1,14.9,14.9,0,0,0,1.2-3.5c0.3-1.6.5-3.7-1-4.7a2.2,2.2,0,0,0-1.8-.1A5.1,5.1,0,0,0,233.5,297.5Zm38.9,13.4c-0.4,1.4-1.1,3-.6,4.6a1.3,1.3,0,0,0,.8.6c1.3,0,2.2-1.1,3-2.1a95.5,95.5,0,0,0,9.3-16.6,10.3,10.3,0,0,0,1.1-3.7,1,1,0,0,0-.5-0.6,1.8,1.8,0,0,0-1.6.4c-5.1,3.9-7.8,9.5-10.4,14.9Z" transform="translate(-195.1 -271)"/><path class="a" d="M296.9,296.2a61.4,61.4,0,0,1,3.5-6.7,3.3,3.3,0,0,1,2.2-.7h5.7l0.2,0.2c-1,2.3-2,4.5-3.2,6.7a2.2,2.2,0,0,1-1.6,1.2,61.9,61.9,0,0,1-6.9,0A0.8,0.8,0,0,1,296.9,296.2Z" transform="translate(-195.1 -271)"/><path class="a" d="M302.6,307.6c3.9-8.1,8.7-16,15.4-22.9s13.6-11.8,22.1-13.4c2.3-.3,4.9-0.1,6.7,1.5a1.3,1.3,0,0,0,1.2.4c6.1-2.4,14.6-3.3,20.8-.2a114.6,114.6,0,0,1,10.3,6.1c0.4,0.2.2,0.7,0,.9-2,2.2-3.6,4.4-5.4,6.7a0.6,0.6,0,0,1-.7,0l-9-6.2c-4.2-2.9-9.1-4.9-14.5-4-0.6.3-.3,1.1-0.4,1.6,0.1,5.6-1.9,10.5-4.6,15s-4.7,6.4-8.4,7.4a4,4,0,0,1-4.1-1.4c-2.7-4.1-.3-9.1,1.7-12.7a36.4,36.4,0,0,1,9.5-10.5,0.4,0.4,0,0,0,.1-0.5,1.6,1.6,0,0,0-1.5-.1c-6.1,2-11,7.5-15.5,12.6-8.1,9.9-14.2,20.7-17.7,32.6-1.1,4.4-2.5,11.3,2,14.4s7.8-.6,10.8-3.2a32,32,0,0,0,8.9-16c0.2-1.8.7-4.3-1-5.5s-2.7.6-3.7,1.6a17.9,17.9,0,0,0-3.7,9.8c-1,.9-2.3,1.4-3.4,2.2a31.3,31.3,0,0,0-5.8,5.3c-0.2.1-.2-0.2-0.3-0.3-0.2-6.7,2.1-12.4,5.8-17.5,2.9-3.4,6.7-6.3,11.2-5.2,2,0.5,3.3,2.6,3.7,4.5,0.7,6.3-1.9,11.7-4.7,16.8-4.6,7.2-11.8,14.4-20.9,13.5a10.1,10.1,0,0,1-8.2-5.9c-3.4-6.9-1.1-15.7,1.3-22.4Zm31-11.9a2.1,2.1,0,0,0,1.2,1.9c1.5,0.4,2.8-.7,3.9-1.6a26,26,0,0,0,7.3-15.3c0-.9.3-2-0.2-2.7a1.4,1.4,0,0,0-1,.3,28.6,28.6,0,0,0-7.3,7.3C335.6,288.8,333.8,291.9,333.6,295.8Z" transform="translate(-195.1 -271)"/><path class="a" d="M339.4,315.3c3.3-4.4,7.7-9.2,13.3-9.5a4.3,4.3,0,0,1,3.5,1.8c2.4,3.5.4,8-.5,11.6a0.5,0.5,0,0,0,.4.6,6,6,0,0,0,3.5-.5l0.4-.5a133.4,133.4,0,0,1,17-32.1c4.4-5.8,10.1-11.9,16.6-14.7,1.6-.5,3.8-1.2,5.3,0s1.2,3.7.8,5.5-2,1.8-3.1,2.1h-0.2a18.1,18.1,0,0,1,.8-3,2.7,2.7,0,0,0-.1-1.5,1,1,0,0,0-1.3-.2c-2.2,1.1-4,3.1-5.7,5-6.3,7.4-10.9,15.5-15.2,23.8-1.4,2.9-2.8,5.7-4,8.7a0.4,0.4,0,0,0,.2.4c1,0,1.6-1,2.3-1.5a100.7,100.7,0,0,0,14.3-16.8,8.3,8.3,0,0,1,3-.5h0.2a6.2,6.2,0,0,1-1.1,2.1,110.6,110.6,0,0,1-16.4,19l-4.7,3.8c-1,.9-1,2.2-1.5,3.3a36.3,36.3,0,0,0-1.9,9.2,1.6,1.6,0,0,0,.7,1.4c1.2,0.5,2.2-.6,3.1-1.4,6.3-7.3,9.1-16.2,16.8-22.8,2.5-2,5.9-3.7,9.1-2.2,0.6,0.2,1,1,1.7.6s0.5-1.1,1.2-1.1c2.3,0,4.7-.1,6.9.1a0.6,0.6,0,0,1,0,.7l-1.6,3.2-9.7,19.5a6.1,6.1,0,0,0-1,2.8,0.8,0.8,0,0,0,1,.4,13.6,13.6,0,0,0,4.3-4.3c1.2-1.7,2.1-3.4,3.3-5.1a4,4,0,0,1,2.1-.1c0.4,0.4-.1.9-0.2,1.3-2.8,5.9-6.8,12.3-13,15.5-1.4.7-3.4,1.4-5,.5s-1.1-2.4-1.7-3.7a0.4,0.4,0,0,0-.5-0.1c-2.6,2.3-5.3,4.9-8.9,3.9s-2.5-3.6-2.7-5.8a2.2,2.2,0,0,0-.2-0.3h-0.3c-2.5,3-5.7,6.8-9.9,6.4a4.5,4.5,0,0,1-3.5-3.1c-1.5-4.7.1-9.8,1.1-14.3a0.6,0.6,0,0,0-.5-0.5h-3.5l-0.6.7c-2.6,5.1-5.5,10-10,14.3-2.4,2.1-5.3,3.8-8.5,2.9s-3.4-4.1-3.4-6.8C332.5,326.7,335.6,320.9,339.4,315.3Zm0.9,15.6a2.4,2.4,0,0,0,1.5,2.3,2.6,2.6,0,0,0,2-.3c3.3-2.5,5.3-6.2,7.1-9.7a0.8,0.8,0,0,0-.1-1.1,16.8,16.8,0,0,1-4.8-3.7,0.6,0.6,0,0,0-.7-0.1,30.1,30.1,0,0,0-2.9,5.3C341.5,325.8,340.4,328.1,340.4,330.8Zm8.3-16.1a4.8,4.8,0,0,0,3.1,4,0.9,0.9,0,0,0,1.1-.1c1-2.2,1.9-4.8,1.4-7.4a2.3,2.3,0,0,0-1.3-1.4,2.7,2.7,0,0,0-1.8.3A5.6,5.6,0,0,0,348.7,314.7Zm31.6,15.3c-0.1.8-.3,1.9,0.4,2.5a1.3,1.3,0,0,0,1.3.2c1.7-.9,2.8-2.7,3.8-4.2a101.5,101.5,0,0,0,8.4-17,1.5,1.5,0,0,0-.3-1.6c-1.4-.7-2.5.9-3.5,1.6-4.6,4.5-7,10.1-9.3,15.6Z" transform="translate(-195.1 -271)"/><path class="a" d="M387,287.3l3.1-4,0.5-.4c8.8-.2,15.8-5.4,22-11.6a7.4,7.4,0,0,1-.7,2.4c-4.1,9.6-14,18-24.7,18.2h-2.5c-0.5-.1-0.1-0.6,0-0.8Z" transform="translate(-195.1 -271)"/><path class="a" d="M398.2,337.9a2.1,2.1,0,1,1,2.1,2.1A2.1,2.1,0,0,1,398.2,337.9Zm2.1,2.5a2.5,2.5,0,1,0-2.6-2.5A2.5,2.5,0,0,0,400.2,340.5Zm-0.5-2.3h0.5l0.8,1.3h0.5l-0.8-1.3a0.8,0.8,0,0,0,.8-0.8,0.8,0.8,0,0,0-1-.8h-1.1v2.9h0.4v-1.3Zm0-.4v-0.9h0.6c0.3,0,.6.1,0.6,0.4s-0.3.5-.7,0.5h-0.5Z" transform="translate(-195.1 -271)"/></svg>