<svg xmlns="http://www.w3.org/2000/svg" viewBox="0 0 370.3 244.6"><defs><style>.a{fill:#d62b2b;fill-rule:evenodd;}</style></defs><title>hm</title><path class="a" d="M254.5,158.3c7.4,0.1,20.2-4,22.7,2.2s-6.8,11.6-10.1,15.1c-6.1,6.6-9.5,14.9-18.7,18.7a72.6,72.6,0,0,1-8.3,2.2c-12.9,33.3-25.1,67.3-37.1,102.9-1.7,4.9-2.8,12-7.6,12.2s-6.2-4.7-8.6-7.2c-4.3-4.3-11.5-7.7-12.6-13-0.7-3.4,1.1-8.5,2.2-12.2,7-24.9,16.6-50.6,24.8-73.8-14.2,2.4-29.8,6.5-44.6,9.4-8.9,22.6-17.4,46.3-25.9,70.6-1.6,4.6-6.3,19.9-15.5,15.8-6.6-2.9-.2-18,1.1-21.6,7.4-21.1,14.9-41.8,22.7-61.9-3.1-1.3-5.5-1.4-7.9-2.9-4.9-3-7.4-9.4-11.9-12.2-2-1.3-5-1.7-7.2-3.6s-4-3.9-3.2-7.2,6.6-4.5,9.7-5.4c11.9-3.6,23.7-6.4,35.6-9.4,11.5-28.5,23.6-59.7,35.6-88.9,1.7-4.2,3.1-9.2,5.4-12.2s8.4-7.8,13-4.7,1,10.4-.4,13.7c-11.9,29.2-23.7,58.2-34.9,87.5,14.6-2.9,29.1-5.9,43.9-8.6,9.7-24.4,21.8-53.4,32.8-78.8,1.8-4.3,3.2-8.2,6.1-9.7,1.4-.7,4.1-1.1,6.5-1.8l6.1-2.2c3.8-1.4,8.3-3.6,12.2-4,13.4-1.1,1.7,20,0,24.5C271.6,114.4,263.4,136.3,254.5,158.3Z" transform="translate(-108.6 -67.2)"/><path class="a" d="M264.3,237.8c0.5,3.3,2.1,5.6,2.5,9,2.9-.4,5.4-5.8,10.8-3.6,4.8,6.6-2.4,13.9-5.8,18,1.1,3.8,4.5,8.9,1.8,13.3-4.6,2.3-8.2-1.3-9-5-3.6,2.2-6.3,5.1-10.8,5.8-11.4,1.7-17.5-5.6-17.6-15.1-0.2-13.5,10.7-19.7,16.2-27.4-1.8-5.9-3.5-9.8-2.9-14.8,1-8.2,8.8-13,16.2-11.9,5.5,0.9,10.8,5.5,9.7,13.7S267.7,231.4,264.3,237.8Zm-4.3-13.3c1.4,0.6,2.2-1.5,2.9-2.5s2.5-2.4,1.8-4.7C260.7,213.1,257.8,220.3,259.9,224.5ZM252,258c0.3,0.1.7,0,.7,0.4a9.7,9.7,0,0,0,6.5-4c-1-2.4-1.1-5.6-2.9-7.2C254.7,250.3,250.2,253.7,252,258Z" transform="translate(-108.6 -67.2)"/><path class="a" d="M432.4,130.5c-21.5,43.6-41.7,91.9-60.5,140.7-2.2,5.8-4.6,18.2-10.4,18.4-3.9.1-6.2-5.3-8.6-8.3-4.1-5-9.5-9-11.5-14.8-3.1-8.5-2.3-21.4-1.8-32,1.5-31.7,5.7-65.3,7.6-95.4-16.3,48.4-31.4,97.2-46.1,147.6-1.8,6.3-4.5,16.7-13,14.4s-0.1-23.2,1.1-27.4c16-57,32.5-110.8,51.5-164.9,1.4-3.9,2.9-8.6,4.7-13.3s3.3-10,5.4-12.6c3.5-4.3,10.6-5.4,17.3-8.3,4.1-1.8,15.3-7.6,19.8-3.6,2.8,2.5,1.3,13.5.7,20.2-4.1,48.3-14.2,88.5-15.1,140.4,11-26.8,20.9-52.9,33.8-80.6,8.4-18.1,18.6-38.8,27.7-58.3,3.1-6.6,6.5-14.2,11.5-16.9,1.8-1,5.1-1.3,7.6-2.2,5.9-2,12.4-5.9,18-6.1,2.6-.1,4.6.4,5.8,1.8,2.7,3.4.1,12.2-.7,15.8-15.4,64.6-27.3,130.3-40.7,198-1,4.9-2.1,9.2-3.2,15.1s-1.4,12.5-5,13.3c-6.3,1.4-9.3-6.1-13-9.4s-10.9-6.3-11.9-11.2c-0.5-2.5.5-7.1,1.1-10.8C411.8,229.5,423.1,179.7,432.4,130.5Z" transform="translate(-108.6 -67.2)"/></svg>