<svg xmlns="http://www.w3.org/2000/svg" viewBox="0 0 65.5 74.4"><defs><style>.a{fill:#231f20;}</style></defs><title>services_erosion</title><path class="a" d="M57,71.6a4.1,4.1,0,0,0,.2,1.6,6.7,6.7,0,0,0,2.5-1,1.5,1.5,0,0,0-.1-0.7,8.4,8.4,0,0,0-2.5.1m-6.8,0c0-.2-0.4-1.8-0.7-1.7s-3.2,1.1-3.2,1.8a3.9,3.9,0,0,0,.3,1.1,8.4,8.4,0,0,0,.4,1.1,7.5,7.5,0,0,0,3.4-.1,7.8,7.8,0,0,0-.1-2.2m15.3-2.9c0.5,0.6.8,1.4,1.8,1.4a3.1,3.1,0,0,0,0-1.4,1.8,1.8,0,0,0-1.9-.1m-33-.2c-0.2,1.1-1.7,2.8-.7,3.7a26.5,26.5,0,0,0,3-1.6c0.1-.8.1-1.6,0.1-2.5s-1.7.2-2.4,0.4m30.9-2.8a2.8,2.8,0,0,0-.9-0.9,2.6,2.6,0,0,0-2,.9,2.2,2.2,0,0,0,.7,1,3.8,3.8,0,0,0,2.7.7,4,4,0,0,0-.5-1.6M46.7,62.5a10.6,10.6,0,0,0-2.2,1.1,10.8,10.8,0,0,0,.2,2,19.2,19.2,0,0,0,3.7-.8c-0.1-.6-0.2-1.2-0.4-1.7l-1.3-.6M24.9,56.2a5.6,5.6,0,0,0-2,1.6,10.2,10.2,0,0,0,.5,2,7.8,7.8,0,0,0,3.8-1,3.5,3.5,0,0,0-2.3-2.6m8.2-.6-1.5,1,0.7,1.1,1.6,0.7a16.4,16.4,0,0,0,1.2-2.2l-2-.6M30.6,50a7.5,7.5,0,0,0-3.5.1,3.7,3.7,0,0,0,.5,2.4,18.9,18.9,0,0,0,3.8-1,5.9,5.9,0,0,0-.8-1.5m-9.2-.3a3.4,3.4,0,0,0-1.3-.8c-0.7-.1-1.5.4-2.4,0.5a5.3,5.3,0,0,0-.4.9,19.6,19.6,0,0,0,3.9.6,2.1,2.1,0,0,0,1.4-.3,4,4,0,0,0-1.2-.9m-1.6-9.9c-0.6.5-.8,2,0.2,2.3a8.3,8.3,0,0,0,1.6-.1,7.1,7.1,0,0,0,0-1.4,3.2,3.2,0,0,0-1.8-.7m3.6-1.3a1.9,1.9,0,0,0,.8.7L26,40.6a2,2,0,0,0,1.1.5,1.5,1.5,0,0,0,.8-1.6,2.8,2.8,0,0,0-1.3-1.1,3.6,3.6,0,0,0-2.4-.6,0.9,0.9,0,0,0-.9.7m-2.5-1.4a5.1,5.1,0,0,0,4.3-1.1c-0.7-1.4-4.4-.4-4.3,1.1M19.2,35c0.1,1.4,1.7.7,2.4,0.3s-1.5-.6-2.4-0.3m52.9-.1a11.2,11.2,0,0,1-2.5,1.7l-1.4.7a5.2,5.2,0,0,0-1.5.7,3.6,3.6,0,0,0-.4,1.4,5.7,5.7,0,0,1-.5,1.3,57.4,57.4,0,0,0-12.2,2.5l-0.6,2.3c-0.2.8-.2,1.6-0.5,2.4a9,9,0,0,1-1,1.8c-0.8,1.2-1.8,2.3-2.5,3.4,1,1,2.7,1.5,3.4,2.7s1,2.9,1.7,4.4l1.7,0.2a3.5,3.5,0,0,1,1.5.4,5.2,5.2,0,0,1,.6,1.4,4.3,4.3,0,0,0,2.1,2.3,8.1,8.1,0,0,1,2.4-.6,6,6,0,0,1,1.7,1.7c0.2,0.5.3,2.2,0.7,2.4a3.3,3.3,0,0,0,1-.2,3.6,3.6,0,0,1,1.9.4c0.4,0.6-.1,2,0.5,2.2s0.2,0,.4-0.2a30.3,30.3,0,0,0,9.5-17,32,32,0,0,0-4.1-22.3h0c-0.6,1.2-1.2,3-2,3.8m-52.8-.7,2.1-.3A14.6,14.6,0,0,1,22.5,35a5.1,5.1,0,0,1,2.2-.2A2.4,2.4,0,0,1,26,36a0.9,0.9,0,0,1-.3.6,0.9,0.9,0,0,0-.3.5c1.2,0.3,3.3,1,3.5,2.1a6.6,6.6,0,0,1-.2,2.1l1.1-.2L33,42.3c1.1,0.4,2.3.8,3.3,1.3l1.3,0.9,2.5,1.9a4.6,4.6,0,0,0,1.4.9A5.9,5.9,0,0,0,43,47l1.4-.5A7.4,7.4,0,0,0,47,45.2a5.9,5.9,0,0,0,.6-1.5c0.2-.6.3-1.2,0.4-1.7a35.5,35.5,0,0,0-5.4-1.2l-1.4-1.4a11.7,11.7,0,0,0-1.3-1.5,10.5,10.5,0,0,0-2.8-1.2,27.6,27.6,0,0,1-2.9-1.1c-1.1-.6-1.4-1.4-1.7-2.8s-0.6-5.3-1.2-7.6c1.6-1.3,3.6-2.3,5-3.7l-0.8-1.2a15.3,15.3,0,0,0,1.2-2.1A31.4,31.4,0,0,0,19.3,34.2m45.6,4.3a5.4,5.4,0,0,1,.5-1.5,5.7,5.7,0,0,1,1.3-.6l1.3-.7a11.1,11.1,0,0,0,2.4-1.8,17.3,17.3,0,0,0,1.1-1.8c0.7-1.2,1.3-2.5,1.9-3.8a4.7,4.7,0,0,0,.8-2.1,4.4,4.4,0,0,0-.8-1.3c-0.7-1-1-1.6-1.5-2.6a11.8,11.8,0,0,0-.7-1.4l-0.8-.5a33.5,33.5,0,0,0-4-2.6,5.4,5.4,0,0,1-1.7-1,7,7,0,0,1-.3-1.3A20.5,20.5,0,0,0,63,11.5a33.4,33.4,0,0,0-7.7-3.4,9.2,9.2,0,0,0-3.7-.9,26.9,26.9,0,0,0-8,2.3c-0.7.3-1.9,0.6-2.3,1.2a5,5,0,0,0-.4,1.2,49.7,49.7,0,0,1-3.3,8c0,0.4,1.2.9,1.2,1.2l-0.6.6-3,3A4.1,4.1,0,0,0,34,25.9a5.3,5.3,0,0,0,.1,1.7c0.3,1.9.1,3.6,0.3,5.5s3.4,1.8,5.3,2.7A13.5,13.5,0,0,1,43,38.5a5.8,5.8,0,0,0,1.1,1h1.2l3.2,0.7a2.1,2.1,0,0,0-.2-1.9,8.3,8.3,0,0,0-.4-0.9,8.1,8.1,0,0,0-2.2-1.9l-1.2-.9a6.2,6.2,0,0,1-1.2-.9,5.6,5.6,0,0,1-.4-1.1c-0.4-1.1-.8-2.1-1.1-3.1a6.7,6.7,0,0,1,1.3,2,8,8,0,0,0,1.2,2.1A10.6,10.6,0,0,0,46.6,35l1.1,0.6,1,0.6a8.3,8.3,0,0,1,.6,1.5,4.6,4.6,0,0,1,.6,1.5,7.5,7.5,0,0,1-.3,1.7c-0.2,1.1-.5,2.2-0.8,3.2a7.6,7.6,0,0,1-.5,1.6,5.1,5.1,0,0,1-1.5,1.2,15.6,15.6,0,0,1-3.6,1.8,5.7,5.7,0,0,1-2,.7,3.4,3.4,0,0,1-1.6-1.4l-2.2-1.9a13.5,13.5,0,0,0-2.3-1.8l-2.8-1.3a9.4,9.4,0,0,0-2.9-1.2,9,9,0,0,0-2.4.6l-1.2.3a1.2,1.2,0,0,0-1,.5c1.4,0.2,2.9-.3,4.4-0.3a1,1,0,0,1,.5.7l-3.6,1.8L25,46a3.6,3.6,0,0,0-.6.7,1.2,1.2,0,0,0-.4.7c2.3-.9,4.7-1.7,7.1-2.5,0.7,0.5,1.9.8,2.8,1.4a8.5,8.5,0,0,1,1.3,1.3l2.4,2.9A9.6,9.6,0,0,1,39,52a11.3,11.3,0,0,1,.4,1.3,5.4,5.4,0,0,1,.4,1.3,6.4,6.4,0,0,1-.5,1.4c-0.5,1.4-1.1,2.9-1.7,4.2s-2.9.8-4.2,1.4l-1.3,1c-0.6.4-1.5,0.7-1.4,1.7a15.3,15.3,0,0,1,7-2.2,7.7,7.7,0,0,1,1.7,3.6,12.9,12.9,0,0,1,.5,2,14.1,14.1,0,0,1-.3,2.2c-0.1.5-.4,1.9-0.1,2.1s0.3,0,.5-0.2a7.1,7.1,0,0,0,.6-1.8,14.9,14.9,0,0,0,.7-2.5,24.5,24.5,0,0,0-.3-3.3c0-.5-0.1-1.1-0.1-1.7a9,9,0,0,1-.1-1.8,4.2,4.2,0,0,1,.8-1.3l0.9-1.3a13,13,0,0,1,1.9-2.5c2.2,1,4.2,2.2,6.2,3.4l1.1,2.4a16.3,16.3,0,0,1,1.1,2.4,15.8,15.8,0,0,1,.3,2.8c0.1,0.9,0,2,0,3.1a5.4,5.4,0,0,0,.8-2.1,9.6,9.6,0,0,0,.3-1.6c0-1.1-.3-2.1-0.2-3.2a20,20,0,0,1,2.2.3,2.7,2.7,0,0,1,.8.9A5,5,0,0,1,58,66c0.4-.4,0-1.3.1-2s-0.8-1.6-1.3-2.3l-3.1-.5q-1-2.3-2-4.4l-3.8-2.8c-0.4-.3-1.1-0.7-1.1-1.1a4.3,4.3,0,0,1,1-1.4L50,48.8a7.2,7.2,0,0,0,1.1-1.3,12.2,12.2,0,0,0,.4-1.6c0.5-1.7.7-3.1,1.2-4.8,3.3-1,7.6-.9,11.7-1.2l0.5-1.4M40.5,9.8a65,65,0,0,1,8.7-3.3,19.4,19.4,0,0,1,3.5-.7,4.5,4.5,0,0,1,1.8.4l4,1.4c1.9,0.7,3.8,1.1,5.5,1.8a15.8,15.8,0,0,1,1.2,2.8A10.9,10.9,0,0,0,66.2,15a6.4,6.4,0,0,0,1.4,1c1,0.7,1.7,1.3,2.6,2.1a5.9,5.9,0,0,1,1.3,1.1l2.8,4.7a5.5,5.5,0,0,1,.9,1.4,7.2,7.2,0,0,1-.3,2.9,3.6,3.6,0,0,0-.2.8,9.9,9.9,0,0,0,1.2,2.1,32.7,32.7,0,0,1,4.3,18.5,31.9,31.9,0,0,1-7.4,18.7A32.7,32.7,0,0,1,57.1,78.8a33.3,33.3,0,0,1-11.6,1.4,31.5,31.5,0,0,1-10.6-2.5,32.9,32.9,0,0,1-20-32.2,30.8,30.8,0,0,1,2.5-10.6C21.2,25.7,28,19.5,37.9,16.2a27.6,27.6,0,0,0,2.6-6.3" transform="translate(-14.8 -5.8)"/><path class="a" d="M55.3,17.7c0.1,1.2,0,2.4.1,3.7a9.6,9.6,0,0,1,.1,1.7,5.4,5.4,0,0,1-1.2,1.5l-2.5,3a4.4,4.4,0,0,0-1.3,2.5c-0.1,2,.5,4.4.7,6.5,1.5-.2,3-0.6,4.6-1a6.2,6.2,0,0,0,1.5-.4c0.9-.5,1.2-2,2.3-2.2a6,6,0,0,1-.7,1.5l-0.6,1.6c-2.7.6-5.2,1.4-7.8,2a50.6,50.6,0,0,1-.9-6.1,12.7,12.7,0,0,0-.2-2.1c-0.2-.6-1.1-1.1-1.3-1.7a10.1,10.1,0,0,1-.1-2.4c-0.1-2.3-.4-4.7-0.4-7.1a5.1,5.1,0,0,1,.5,2c0.3,1.7.6,3.6,0.8,5.5s0.2,1.6,1,2c1.3-1.2,2.5-2.6,3.9-3.9A5.6,5.6,0,0,0,54.9,23a17.3,17.3,0,0,0,0-2.7,7.5,7.5,0,0,1,.4-2.6h0Z" transform="translate(-14.8 -5.8)"/><path class="a" d="M61.8,25.5c0,1-.8,1.7-0.9,2.7s0.2,0.9.2,1.5a21.4,21.4,0,0,0,2.1-1.9,15,15,0,0,1,2.2-1.2,3.1,3.1,0,0,1-1.2,1.2,30.7,30.7,0,0,0-2.5,2.4,6.5,6.5,0,0,1-1.2,1.2c-0.1-.8,0-1.6-0.1-2.4a3.5,3.5,0,0,1-.2-0.6,4.7,4.7,0,0,1,.7-1.5,12.5,12.5,0,0,1,.9-1.5h0.1Z" transform="translate(-14.8 -5.8)"/></svg>