<svg xmlns="http://www.w3.org/2000/svg" viewBox="0 0 65.5 65.4"><defs><style>.a{fill:#231f20;}</style></defs><title>services_moderation</title><path class="a" d="M30,61.7v3.8a70.1,70.1,0,0,0-8,0,29.7,29.7,0,0,0,11.5,9.9,30.7,30.7,0,0,1,8-1.8c6.2-.7,11.9,1.2,18,1.2a10,10,0,0,0,6.7-2.4,0.3,0.3,0,0,0,.2-0.3,9.2,9.2,0,0,1-3.9.4c-4.1-.4-7.4-2.4-11.1-3.6a71.7,71.7,0,0,0-15.9-3c0-1.4,0-3,0-4.2H30.1c0-.1-0.1,0-0.1.1m-1.3-2.6A7.7,7.7,0,0,0,30.1,61a11.1,11.1,0,0,0,2,0h4.2l-1.5-1.8a9,9,0,0,0-1.7-1.8H31.7a35.5,35.5,0,0,0-4.5-.2l1.5,1.9M66.5,69.3c-6.7-.5-6.9-9.4-9.5-14.2a3.9,3.9,0,0,0-1.2-1.2,44,44,0,0,0-9.2.5c-3.2.5-5.9,1.2-6.6,3.9,0.7-.1,1.1-0.8,2-0.9s0.4,0.7.9,0.8a6.2,6.2,0,0,0,1.8-.6c0.9-.3,2.6-0.7,3,0s-0.3,2.3.5,2.5a2,2,0,0,0,1.1-.4,9.7,9.7,0,0,1,3.6-1.1,3.3,3.3,0,0,1,3.3,2c0.9,1.5,1.4,3.2,2.2,4.7a11.8,11.8,0,0,0,3.2,3.7,7.5,7.5,0,0,0,5.2,1.4,5,5,0,0,0,3.1-1.3,18.9,18.9,0,0,1-3.4.1m0-38.8c-1.7-4-5.4-6.3-10.2-7.2a52,52,0,0,0-11.9-.9,108.3,108.3,0,0,0-11.3,1c8.2-.2,16.7.1,23.3,1.9s9.8,5.1,10.4,11.7a20.3,20.3,0,0,0-7-4.7,23.1,23.1,0,0,0-4.2-1.3c-9.5-2.1-22.2.8-31.6-1.3,3.2,1.6,7,2.3,11.3,2.6s9.1-.3,13.5,0a45.2,45.2,0,0,1,6.2.7,37.1,37.1,0,0,1,5.3,1.6,23.6,23.6,0,0,1,4.8,2.2A9.4,9.4,0,0,1,68.6,40a77,77,0,0,0-11.6-2.6,56.3,56.3,0,0,0-13.3-.3l-6.5.6c-2.2.2-4.3,0.5-6.5,0.6a36.3,36.3,0,0,1-12.7-1.6A31.1,31.1,0,0,0,16.6,52a30.4,30.4,0,0,0,4,11.3,4.2,4.2,0,0,0,.9,1.3c0.6,0.2,1.4-.2,2,0V61.7c-0.2-.2-0.6,0-0.8-0.1a46.9,46.9,0,0,1,2.8-3.8,3,3,0,0,1,1.1-1.1,8.5,8.5,0,0,1,1.7.1L33.3,57c1.1,1.1,2.2,2.3,3.2,3.4a2.8,2.8,0,0,1,1,1.3,7.1,7.1,0,0,1-.9,0c0,1.1.1,2.2,0,3.4,2,0.1,3.9.7,5.8,0.6a4.4,4.4,0,0,0,3.8-2.2c0.8-1.6.5-4.9-1.6-5s-1,.5-1.8.4-0.7-.6-1.3-0.6a2.4,2.4,0,0,0-1.1.6,1.6,1.6,0,0,1-1.2.6c-0.2-3.8,2.8-4.9,6-5.4a47.5,47.5,0,0,1,8.2-.6,10,10,0,0,1,2.7.3c0.9,0.4,1.6,2.1,2.1,3.2,1.5,3.6,2.2,8.8,5.7,10.4s5.7,0.9,7.4-.3a8.9,8.9,0,0,0,2.2-2.6,31.8,31.8,0,0,0,4.3-10,32.7,32.7,0,0,0-.8-16.8c-2.9.5-7.2,0.6-9.5-.5,1.5-.6,3-1,3.9-2.1s0.8-3.6-.1-5.1a10.4,10.4,0,0,0-3.4-3.5c1.3,1.7,3.7,4.7,2.5,7.7h0a6.8,6.8,0,0,1-3.2,2.5,12.1,12.1,0,0,0-.9-6.4M46,14.8c10.8-.5,18.4,3.9,23.9,8.9a30.2,30.2,0,0,1,7,9.4,33.3,33.3,0,0,1,3.4,13,32.4,32.4,0,0,1-8.9,23.8A32.7,32.7,0,0,1,48.9,80.2a32,32,0,0,1-23.8-8.8,31.6,31.6,0,0,1-7-9.4,32.7,32.7,0,0,1,5.5-36.9,30.1,30.1,0,0,1,9.4-7,33.5,33.5,0,0,1,13-3.3" transform="translate(-14.7 -14.8)"/><path class="a" d="M73.7,44.2c-2.2-1.2-5.3-1-8.1-.7s-5.5,1.1-8.4.8a15.4,15.4,0,0,1-3.3-.9L51,42.1a19.9,19.9,0,0,1-3.9-2.3,2.2,2.2,0,0,1-1-1.1,68.6,68.6,0,0,1,22.6,2,12,12,0,0,1,2.3.7c1.1,0.6,2,2,2.7,2.8" transform="translate(-14.7 -14.8)"/><path class="a" d="M75.1,52.2a9.4,9.4,0,0,0-3.6-3.5,14,14,0,0,0-4.2-1.4c-3-.6-6.2-1.2-8.7-2.5,2.8,0.2,5.7-.3,8.3-0.6h2.9c1.6-.1,3.2-0.2,4.2.6a5,5,0,0,1,1.4,2.1c0.5,1.7-.1,3.7-0.3,5.3" transform="translate(-14.7 -14.8)"/><path class="a" d="M66.8,47.6a11.3,11.3,0,0,1,6.6,4,5.5,5.5,0,0,1,1.4,2.1,6,6,0,0,1-.4,2.3c-0.2.7-.5,1.3-0.7,1.9A13.4,13.4,0,0,0,70.9,52a19,19,0,0,0-3.1-3.4,5.4,5.4,0,0,1-1.1-1" transform="translate(-14.7 -14.8)"/><path class="a" d="M67.3,48.8h0a18.7,18.7,0,0,1,5.3,8.8,5.8,5.8,0,0,1,.4,1.6,2.4,2.4,0,0,1-1.2,1.1c-1.3-4-2.8-7.7-4.4-11.4" transform="translate(-14.7 -14.8)"/><path class="a" d="M69.1,54.6A46.3,46.3,0,0,0,71,60.7a2.8,2.8,0,0,1-1.2.9c-0.9-1.8-1.7-4.7-.7-7" transform="translate(-14.7 -14.8)"/><path class="a" d="M68.4,57.1a10.4,10.4,0,0,0,1,4.8,2,2,0,0,1-.7.7,4.7,4.7,0,0,1-1.2-1.4,3.4,3.4,0,0,1-.7-1.9c0.1-.7,1.3-1.7,1.6-2.2" transform="translate(-14.7 -14.8)"/><path class="a" d="M66.3,60.7a6.4,6.4,0,0,0,2.1,2.1,1.9,1.9,0,0,1-2.7.6,5,5,0,0,1,.6-2.7" transform="translate(-14.7 -14.8)"/><path class="a" d="M68.2,63.6c0,0.8-.1,1.8-1,1.8a8.3,8.3,0,0,1-1-1.2,3.2,3.2,0,0,0,2-.6" transform="translate(-14.7 -14.8)"/><path class="a" d="M68.4,65a3.2,3.2,0,0,1,0,2.4,2.5,2.5,0,0,0-.5-1.2,3.3,3.3,0,0,0,.5-1.2" transform="translate(-14.7 -14.8)"/></svg>