<svg xmlns="http://www.w3.org/2000/svg" viewBox="0 0 78.4 74.7"><defs><style>.a{fill:#231f20;}</style></defs><title>services_waste_treatment</title><path class="a" d="M54.4,59.4a1.9,1.9,0,0,0,.2.8c0-.3.1-0.5,0.1-0.8H54.4m-11.6.8a7.2,7.2,0,0,0,0-1.6l-0.7-.2,0.8,1.8m23.1-2.7a72.7,72.7,0,0,0,.2,11l2,0.4a10.6,10.6,0,0,0,1.9.5,5.2,5.2,0,0,0,1.2-1.2,31.8,31.8,0,0,0,6.2-10.6,33.6,33.6,0,0,0-11.6,0m-40.9-.8c0,1.7.1,3.1,0,4.9-2.4-1.6-4.7-3.3-7-5A30.9,30.9,0,0,0,24,67.7,4.7,4.7,0,0,0,25.2,69l0.8-.2c2.3-.4,4.3-0.7,6.6-0.8-0.5-1.8-1.1-3.6-1.5-5.3s-0.8-3.8-1.2-5.7a2.3,2.3,0,0,0-.4-1,37,37,0,0,0-4.7.7m42.1-2.4a11.8,11.8,0,0,1,.5,1.2l1.6-.7-1.1-1.4-1,.9m11.7-2.6-2.1,2.1a1.6,1.6,0,0,0,.7.7,6.5,6.5,0,0,0,1.4-.4l1.6-.3c0-.6-0.1-1.1,0-1.8l-1.5-.4m-5.5-2.5a27.4,27.4,0,0,0-3,1.6c0.7,0.7,1.6,1.2,2.3,2a1.5,1.5,0,0,0,.8.7,2.9,2.9,0,0,0,.9-0.8l0.8-1c-0.6-.9-1.3-1.6-1.8-2.5m-5.3-3a26.4,26.4,0,0,0-1,2.7l3.3-.6c-0.1-.8-0.3-1.5-0.4-2.3H67.9m6.9,1a12.7,12.7,0,0,1,2.4,1.8,4.9,4.9,0,0,1,1.4-.6,5.8,5.8,0,0,1,.3-2.1,10.5,10.5,0,0,0-2-1.7,19.4,19.4,0,0,1-2,2.7m-2.3-8.4a13.2,13.2,0,0,0-3,2.6,9,9,0,0,0,1.3,1.8,32.9,32.9,0,0,0,3.1-1.7c-0.5-.8-0.8-1.8-1.3-2.7m6,3.7c0.5-.4,1.4-0.3,2-0.6a4.3,4.3,0,0,0,1-1,7.2,7.2,0,0,0,.9-1.1,3.5,3.5,0,0,0-.8-0.6,3.1,3.1,0,0,0-.8-0.6,20.9,20.9,0,0,0-3.6-.3c0.4,1.4.9,2.7,1.3,4.1m-37.4,14c3.5,1.5,9,1.9,13.8,1.2A84.7,84.7,0,0,1,59,41.9c0.6-1.6,1.4-3.2,1.8-4.8-2.1.3-4.1,1-6.1,1.4a31.3,31.3,0,0,1-6.9.6A28.8,28.8,0,0,1,41.4,38,25.4,25.4,0,0,0,35,36.9c1.8,6.7,3.9,13.5,6.2,19.8M23,34.5c-4.9,4.5-10.2,8.6-15,13.2L23.5,58.8c0-1-.1-1.9,0-2.9a23.9,23.9,0,0,1,5.9-1.2c-1-5.6-1.7-11.2-2.3-17.1l-4,.9a34.9,34.9,0,0,0-.1-4m47,0.1a43.7,43.7,0,0,1,6.2.3,24.8,24.8,0,0,0-4-6.7A57.7,57.7,0,0,0,70,34.5M18.6,36.2H19c1.8-1.5,3.5-3.5,5.5-4.7,0,1.7,0,3.5,0,5.3a16.3,16.3,0,0,1,2.5-.6,120.4,120.4,0,0,1,.3-12.2,32.3,32.3,0,0,0-8.7,12.3M51.5,16.7A156.5,156.5,0,0,0,52,37.4c3.5-.4,6.2-1.5,9.6-2a69.5,69.5,0,0,1,7.3-10.8,30.7,30.7,0,0,0-9.5-6,7.2,7.2,0,0,0-1.7-.6l-1.3.2a4.1,4.1,0,0,1-1.9-.4,8.8,8.8,0,0,0-1.1-.9,12.1,12.1,0,0,0-1.8-.2c-0.1,0-.1.1,0,0.1m-11.5.6c0.8,3.8-4.9,5-6.8,2.6l-1.7.9c0.8,5,1.7,9.9,2.9,14.5,3.3,0,6,.9,8.5,1.5a116.3,116.3,0,0,1,4.1-20.5,27.7,27.7,0,0,0-7,.9m-6,.6c-0.2,2.7,4.7,2,5.1.2s-1.5-2.3-2.7-2.2a2.4,2.4,0,0,0-2.4,2M67,29.3c-1.1,1.7-2.2,3.5-3.2,5.3A69.1,69.1,0,0,0,59,47a63,63,0,0,0-1.6,7c-0.4,2.4-1,4.8-1.2,7.3s-0.3,2.6-.4,3.9a28,28,0,0,1-.5,3.8,84,84,0,0,1-2.4-9.4H49.1c0.3,2.4.7,4.7,1.1,7.1,0.1,0.4.6,2.1-.2,2.1s-0.6-1.4-.7-2c-0.4-2.4-.7-4.8-1-7.2a22.3,22.3,0,0,1-3.9-.5c0.1,1.6.2,3.3,0.4,4.9a30.5,30.5,0,0,1,.5,4.6,2.7,2.7,0,0,1-.8-1.3c-0.7-1.4-1.5-2.8-2.1-4.3s-1.6-4.1-2.4-6.1-1.5-4.1-2.3-6.3-1.6-4.3-2.1-6.5-0.6-2.2-.9-3.3a87.6,87.6,0,0,1-2.6-10.3,126.8,126.8,0,0,1-2-15.2,95.8,95.8,0,0,0-1.2,10.4,28.9,28.9,0,0,0-.2,3.7c0.1,2.5.2,5,.3,7.4s0.4,4.8.7,7.1c0.5,4.5,1.6,8.8,2.4,13.1,0.4,2.1,1.1,4.1,1.6,6.2s0.5,2.1.8,3.1a23.7,23.7,0,0,1,.8,3,80.7,80.7,0,0,0-8.4,1.1,3.9,3.9,0,0,0,.8.9,31.1,31.1,0,0,0,20.1,7.4,30.3,30.3,0,0,0,20.1-7.2,2.3,2.3,0,0,0,.9-0.9l-4.4-1.1a35,35,0,0,1-.2-5.1c0.1-1.7-.1-3.5.1-5.4s0.2-3.8.6-5.6,0.5-3.7.8-5.5,0.6-3.5,1-5.2a111.8,111.8,0,0,1,8.2-22.9s0.1,0,0,0A61.9,61.9,0,0,0,67,29.3M54.3,15.1c-0.7,1.7,2,2.5,3.2,1.9a1.5,1.5,0,0,0,.8-1.3c0-1.2-1-1.7-2.3-1.5a2.1,2.1,0,0,0-1.7,1m-4.8-2.6c-0.4,1-.7,2.1-1,3.2s-1.3,4.4-1.8,6.7a143.9,143.9,0,0,0-2.4,14.7l2.9,0.3c-0.1-2.2.1-4.4,0.2-6.3a5.4,5.4,0,0,1,.3-1.9c0.2,2.6,0,5.7.2,8.3h2.6a187.4,187.4,0,0,1,.3-28.2,30.7,30.7,0,0,0-1.3,3.1m2.3-6.9c0.5-.1.3,1.7,0.2,2.2s-0.2,1.6-.2,2.3-0.1,3.4-.2,4.9l1.6,0.3c0.6-2.6,6.8-2.1,5.8,1.5a34.7,34.7,0,0,1,10.2,6c0.6,0.5.5,0.6,1,0a80,80,0,0,1,6.3-6.1,1.9,1.9,0,0,1,1.1-.7c-1.6,3.5-3.3,6.9-4.7,10.6,0.9,1.3,1.9,2.6,2.8,4a43,43,0,0,1,2.3,4.6,50.7,50.7,0,0,1,6.5,1.5c-1,7.3-1.9,14.7-3,22a4.3,4.3,0,0,1-1.3-.4l-1.5-.4A33,33,0,0,1,46.2,80.2,31.4,31.4,0,0,1,35,77.6,32.4,32.4,0,0,1,16.3,56.5a8,8,0,0,0-.4-1.3,5.1,5.1,0,0,0-1.2-1c-2.9-2.1-5.7-4.3-8.6-6.5,3.3-3.2,6.9-6,10.1-9.3A32.7,32.7,0,0,1,27.6,21.7a59.3,59.3,0,0,1,2.6-11c0.6,0.7.3,1.8,0.4,2.8s0.3,1.8.4,2.8,0.2,1.9.3,2.8a11.5,11.5,0,0,0,1.3-.6c0-2.8,4.1-4,6.4-2.5a30.6,30.6,0,0,1,8.4-1.2,12.9,12.9,0,0,0,.9-2.4,31.9,31.9,0,0,1,3.4-6.8" transform="translate(-6.2 -5.6)"/><path class="a" d="M41.1,8.6a1.3,1.3,0,0,0,.3,1.9c1.3,0.6,3.5-.4,3.4-1.7s-0.8-.9-1.6-0.8a2.6,2.6,0,0,0-2.1.6m1.2-1.1c1.5-.2,2.8.1,3,1.2a2.2,2.2,0,0,1-.6,1.9c-0.8.9-3.6,1.6-4.6,0.1a2.1,2.1,0,0,1,.1-2.3,3.1,3.1,0,0,1,2.2-1" transform="translate(-6.2 -5.6)"/><path class="a" d="M58.4,10c0,0.8,1.5.9,1.7,0.3s-0.5-1-1.1-.9a0.6,0.6,0,0,0-.6.6m0.7-1a1.3,1.3,0,0,1,1.5,1.2c0,1.8-3.4,1.3-2.8-.5A1.3,1.3,0,0,1,59.2,9" transform="translate(-6.2 -5.6)"/><path class="a" d="M56.8,25.8C57,28,62.5,28,62,25.3c-0.2-1.1-1.6-1.6-2.8-1.4s-2.6.6-2.4,2m2.6-2.6c1.5-.1,2.9.4,3.4,1.6a2.9,2.9,0,0,1-.9,2.9c-1.9,1.3-5.9.6-6.1-1.7a2.5,2.5,0,0,1,.5-1.5,4.2,4.2,0,0,1,3.1-1.3" transform="translate(-6.2 -5.6)"/><path class="a" d="M37.9,27.3c-0.2,2,3.9,1.5,3.9-.1s-1.3-1.2-2.2-1.1-1.6.4-1.7,1.2m1.7-1.7a3.2,3.2,0,0,1,2.3.5,2,2,0,0,1,.4,2.2,3.6,3.6,0,0,1-2.7,1.3c-1.8.1-3.5-1.5-2.3-3.1a3.1,3.1,0,0,1,2.3-.9" transform="translate(-6.2 -5.6)"/><path class="a" d="M55.3,30.2c-0.1,1.2,2.2,1.1,2.1-.1a0.8,0.8,0,0,0-.9-0.6,1,1,0,0,0-1.2.7m2.6,0.6c-0.4,1.3-3.3,1.4-3.5-.1a1.4,1.4,0,0,1,.2-0.8c0.6-1,3.7-1.2,3.3.9" transform="translate(-6.2 -5.6)"/><path class="a" d="M64.3,39.2h0.1a127.5,127.5,0,0,0-4.2,28.5c0,0.4.1,1.6-.6,1.6s-0.5-1-.5-1.8c0.1-3.6.5-6.8,1-10.1a107.3,107.3,0,0,1,3-14.8,29.1,29.1,0,0,1,1.2-3.3h0.1" transform="translate(-6.2 -5.6)"/><path class="a" d="M31.6,40.2h0c1.9,7.3,3.7,14.6,6.1,21.5,0.6,1.6,1.1,3.3,1.8,5.2,0.1,0.1.7,1.5,0,1.7s-0.9-1.2-1-1.3a161.6,161.6,0,0,1-6.4-23.1c-0.1-.6-0.3-1.2-0.4-1.8a12.5,12.5,0,0,1-.3-2c0-.1,0-0.1,0-0.1" transform="translate(-6.2 -5.6)"/><path class="a" d="M53.6,41.9c0.1,0.4.4,0.6,0.5,1.1s-1.2.5-1.8,0.6a10.7,10.7,0,0,0-.4-1.7c0.4-.5,1.2-0.1,1.8,0" transform="translate(-6.2 -5.6)"/><path class="a" d="M44.8,43.6l-2,.8c-0.2-.5-0.2-1.1-0.4-1.7l1.5-.7a12.8,12.8,0,0,1,.9,1.6" transform="translate(-6.2 -5.6)"/><path class="a" d="M48.8,49.5l-1.4-.2a5.6,5.6,0,0,1-.6-1.1c0.8-.3,1.3-0.8,2.1-1.1s0.9,1.8,0,2.4" transform="translate(-6.2 -5.6)"/><path class="a" d="M41.4,48.1l0.8,0.3a3.3,3.3,0,0,1-.2.9,7.3,7.3,0,0,1-1.1-.5l0.5-.7" transform="translate(-6.2 -5.6)"/><path class="a" d="M53.3,53.3l-0.6,1a3.8,3.8,0,0,1-1.2-.9l0.7-.6,1.1,0.5" transform="translate(-6.2 -5.6)"/><path class="a" d="M45.7,54.4l-1.1,1.2-1.2-1.1a11.1,11.1,0,0,1,.8-0.8l1.4,0.7" transform="translate(-6.2 -5.6)"/></svg>