<svg xmlns="http://www.w3.org/2000/svg" viewBox="0 0 65.4 75.3"><defs><style>.a{fill:#231f20;}</style></defs><title>services_medicine</title><path class="a" d="M45.9,27.6c-0.3-2-1.3-2.7-3.6-2.6a30.4,30.4,0,0,0-4.5.8c-2.7.6-5.5,1.8-8.7,1.2A15.4,15.4,0,0,1,25,25.9a15.4,15.4,0,0,0-2.5,2.8,31.8,31.8,0,0,0-5.3,10.7A33.3,33.3,0,0,0,18.1,58,31.3,31.3,0,0,0,38.7,77.4a8.6,8.6,0,0,0,2.1.6l1.3-.4,3.7-1.2c0-2.9.1-5.9,0-8.9-4-1.3-9.3-2.4-9.6-7.3A6.2,6.2,0,0,1,37,57c1.4-2.6,4.9-3.3,8-4.3,0,1.8,0,3.7,0,5.6s-2.9.6-3,2,0.8,1.4,1.6,1.8l2.5,0.9V45.7a23.6,23.6,0,0,1-7.6-3.9,9.5,9.5,0,0,1-3.7-7.9c0.3-5.3,4.5-7.2,10.2-7.1a23.1,23.1,0,0,1,.2,5.8c-1.9.1-3.8,0.5-3.7,2.5s2.8,3.6,4.6,4.3c-0.3-3.7.4-8.5,0-11.8m5.7,50.2a6.2,6.2,0,0,0,1.4.4,10.4,10.4,0,0,0,2.5-.5A31.4,31.4,0,0,0,77.8,55.3a32.7,32.7,0,0,0,.8-10.8A29.2,29.2,0,0,0,76.1,35a31.5,31.5,0,0,0-9-11.8c-0.4-.3-1.5-1.4-1.9-1.2l-1.6.7-1.6.7A17.7,17.7,0,0,1,56.4,25a26.7,26.7,0,0,1-4.4-.4,6.3,6.3,0,0,0-2.2,0,4.1,4.1,0,0,0-1,1.2A6.7,6.7,0,0,0,47.7,30c-0.1,3.2.1,7.3,0,10.1,4.4,1.8,11.2,2.3,11.2,8.5,0,4.2-3.3,5.7-6.3,6.9-1.4.6-2.7,1.2-4,1.5V51.2l2.3-.9c0.7-.3,1.6-0.8,1.5-1.8s-1.4-1.1-2.1-1.4L49,46.7a4.2,4.2,0,0,0-1.2-.3c-0.1,5.5,0,11.8,0,17.3,2.3,1.1,5.7,1.5,6.8,3.7a4.9,4.9,0,0,1,0,3.6,7.2,7.2,0,0,1-5.9,4.3c0.1-1-.1-2.1,0-2.9s2.7-1,2.5-2.5-2.2-1.4-3.4-1.9c0,2.7-.1,5.6,0,8.3a29.5,29.5,0,0,0,3.8,1.5M35,20.9c2.9-.4,5.8,0,7.6,1.4h0.1c-1.5-1.7-2.9-3.6-5.9-3.8a11.5,11.5,0,0,0-5.1.9l-3.6,1.2a40.5,40.5,0,0,1-7.5,2.2,18.3,18.3,0,0,0,9.3,3.3c2.6,0.2,4.6-.6,6.8-1.1A29.1,29.1,0,0,1,43.5,24a8.1,8.1,0,0,0-5.7-2.6c-3.3-.2-6.3.8-9.1,1.2a1.7,1.7,0,0,1-1.2,0c2.4-.5,4.8-1.4,7.5-1.7m26.1-5.9c-5,.5-9.4,2.2-10.4,6.6,3.1-2.9,8.4-4.4,14.6-4a4.7,4.7,0,0,1,2.3.4,29.1,29.1,0,0,0-11.3,1.2,13.7,13.7,0,0,0-6,3.9c-0.1.1-.3,0.2-0.3,0.4,2.1-.3,3.7.4,5.6,0.3s5.7-1.5,8.3-2.5a39.2,39.2,0,0,1,8.3-2.5,15,15,0,0,0-11.2-3.8m-11.9.4a4.7,4.7,0,0,0-1.9-3.7,9.3,9.3,0,0,0-2.1-1.6,28.7,28.7,0,0,0-4.5-1.5,16.9,16.9,0,0,1-6.2-3h0a12.2,12.2,0,0,0,4.2,9.5c1.4,1.2,3.1,1.9,4.6,3.1a12.4,12.4,0,0,1,3,4.1A8.4,8.4,0,0,0,44,14.1,26.9,26.9,0,0,0,41,11.8a12.2,12.2,0,0,1-2.9-2.5c2,1.7,4.7,2.6,6.6,4.5A9.4,9.4,0,0,1,47.2,22a11.6,11.6,0,0,0,2.1-6.6M47.6,25c0.4-1.1,1.5-1.8,2-2.9s0.4-1.2.7-1.7a9.8,9.8,0,0,1,2-3.2c2.3-2.1,7.3-3.1,11.7-2.5a16.5,16.5,0,0,1,7.9,3L73,18.4a3.3,3.3,0,0,1,1,.8,25.5,25.5,0,0,0-7,1.9c6.9,5.6,12.4,12.9,13.1,24.6A32.6,32.6,0,0,1,68.9,72.2,32.4,32.4,0,0,1,51.6,80a32.8,32.8,0,0,1-20.5-4.2A32,32,0,0,1,18.7,63a33.6,33.6,0,0,1-3.5-20.9,32.7,32.7,0,0,1,8.2-16.9l-2.6-1.6a2.1,2.1,0,0,1-1.1-1,41.2,41.2,0,0,0,7.4-2.5,33.3,33.3,0,0,1,7.1-2.8c3.3-.7,5.8.3,7.4,2s2.9,3.8,4.5,5.4c-0.3-3.5-2.6-5.4-4.9-6.8a24.3,24.3,0,0,1-3.1-2c-2.2-1.9-3.6-5.2-3.7-9.2A5.6,5.6,0,0,1,34.4,5h0.1A6.5,6.5,0,0,0,36.3,6a45.5,45.5,0,0,0,6.3,2.1c3.3,0.9,6.3,2.2,7.3,5.4a10.6,10.6,0,0,1-.8,7l-0.8,1.3a4.2,4.2,0,0,0-.6,3.1" transform="translate(-14.8 -4.9)"/><path class="a" d="M60,31c-0.1.7,1.1,1.1,1.8,0.7S60.1,30.1,60,31M49.1,27.6c1.9,0.6,3.7,1.6,5.8,2s4.1-.4,6.2-0.2a5,5,0,0,1,1.8.3c0.5,0.2.9,1,1.4,1.3s2.6,0.9,3.9,1.4a3.2,3.2,0,0,1-.4,1.2c-5.3,2.8-13.5.6-19.1-.6a18,18,0,0,1,.4-5.5" transform="translate(-14.8 -4.9)"/><path class="a" d="M44.9,72.8c0,0.8,0,1.6,0,2.4a7.5,7.5,0,0,1-3-1.7c-1.1-1.1-2.3-2.8-1.8-4.6s0.7,0.6.9,1a6.6,6.6,0,0,0,3.9,3" transform="translate(-14.8 -4.9)"/></svg>