<svg xmlns="http://www.w3.org/2000/svg" viewBox="0 0 78.8 66.9"><defs><style>.a{fill:#231f20;}</style></defs><title>services_climate</title><path class="a" d="M54.6,54.9v6.7l8.3,3.3c0-2.6,0-4.6,0-7.3l-8.4-2.7m19.2-2.7A14.4,14.4,0,0,0,72,51.1a17.3,17.3,0,0,0-2.2-.4l-6.4-1.4-9.5,4.7,9.1,2.9c2.4-1.4,4.8-2.9,7.2-4.3a1.8,1.8,0,0,1,1.1-.5c-1.8,1.4-3.9,2.7-5.9,4a7,7,0,0,0-1.8,1.4,5.6,5.6,0,0,0,0,1.5c0.1,1.9-.1,3.8,0,5.9l3.3-.2c0.1-2.2.1-4.5,0-6.8h4.3c0,2,0,4.4,0,6.5,2.5-.1,5.5-0.3,7.9-0.6,0-2.8,0-5.6,0-8.4l-5.4-3.1M29.5,60.6a7.7,7.7,0,0,0,.6-2.9,7.7,7.7,0,0,0-1.5-2.8,47,47,0,0,0-4-4.7,8.5,8.5,0,0,0-2.4-2,12.3,12.3,0,0,0-2.3,0c-1.7,0-2.9-.4-3.5-1.4h0a30.2,30.2,0,0,0,4.5,16.7A30.6,30.6,0,0,0,31.4,74.2a31.1,31.1,0,0,0,16.7,4.5,30.3,30.3,0,0,0,16.3-4.9c-0.7-.1-1.2-0.8-1.9-1a23,23,0,0,0-3.1.1,11,11,0,0,1-3-.2c-0.7-.3-0.6-1.2-1-2a21.8,21.8,0,0,1-4.1-1.7l-8.6.7-2.8.3-2,.4H35.5c-1.5.1-3.3,0.1-4.4-.5s-0.9-1-1.5-1.2-1.9-.1-2.6-0.5c0.6-2.7,1.7-5.2,2.5-7.8m48-21.8a31.7,31.7,0,0,0-5.9-11c-5-6.1-12.1-10.6-22.5-11.4h0c0.2,0.1.3,0.5,0.6,0.6l1.5,0.7a26.4,26.4,0,0,1,2.6,1.8,8.7,8.7,0,0,0,1.2,1L56.2,21a40.4,40.4,0,0,1,5.6,2.3,6.4,6.4,0,0,1,2,1.2,7.8,7.8,0,0,1,.7,2.1c0.7,2.2.9,4.7,1.4,7s4.5,1.7,6.4,2.9,1.7,0.8,1.8,1.3a7.1,7.1,0,0,1-.2,2.7,9.6,9.6,0,0,1-.6,2.3,20.7,20.7,0,0,1-4,1l-1.5.2-0.7.4-0.8.4c-3.4,1.4-7.2,1.8-11.5,2.2a17.4,17.4,0,0,0-2.2.1,7.9,7.9,0,0,0-1.4,1l-4.3,3.1-4.4,2.9a9,9,0,0,0-1.4,1.1,11.6,11.6,0,0,0-1.8,4.3,15.5,15.5,0,0,0-.4,5.5l4.9-.4c-0.3-1.2-1.2-1.7-2.1-2.4s-1.4-1.1-1.4-1.6a4.6,4.6,0,0,1,.9-2.2,30.7,30.7,0,0,1,3.6-.2c0.6-.6,1.1-1.7,2-1.9s2.3,0.1,3.3,0,0.5-.4.9-0.5a14.4,14.4,0,0,1,2.8.1V54.7a1.3,1.3,0,0,1-1.2-.7c1.6-1,3.4-1.7,5.3-2.6l4-2a5.5,5.5,0,0,1,1.4-.6,9.7,9.7,0,0,1,2.2.4L69.9,50a16.5,16.5,0,0,1,2.2.4,12.4,12.4,0,0,1,1.5.9l4.6,2.5a33.1,33.1,0,0,0-.6-15.1M54.2,22A24.4,24.4,0,0,0,50,18.5a9.6,9.6,0,0,1-1.4-.7,7.5,7.5,0,0,1-.7-1l-0.7-1c-0.4-.5-1.1-1.7-1.8-1.7H45.1a26.7,26.7,0,0,0-4.7,1.2,10.7,10.7,0,0,1-1.4.6,15.2,15.2,0,0,0-2.1.1,4.8,4.8,0,0,0-1.2.9A29.5,29.5,0,0,0,33.5,19a3.7,3.7,0,0,1-1.2,1,12.7,12.7,0,0,1-2.4,0,34.7,34.7,0,0,0-6.7.6A18.2,18.2,0,0,0,21,24.5a43.7,43.7,0,0,0-9.7,6,4,4,0,0,0-1.2,1.1,4.3,4.3,0,0,0,.2.9,30,30,0,0,0,1.8,6,21.3,21.3,0,0,0-2.3,3.1A18.5,18.5,0,0,0,15,44.2a12.8,12.8,0,0,1,2,.6c0.4,0.3.4,1,.8,1.2a4.3,4.3,0,0,0,1.8.3h2.1a38.1,38.1,0,0,1,5.1,4.7c1.5,1.7,3.4,3.4,4.2,5.6s0.1,3.2-.3,4.4-1.3,4.4-1.8,6.6a11.5,11.5,0,0,1,1.7.3c0.4,0.2.8,0.7,1.3,1a8.5,8.5,0,0,0,3.4.2,6.5,6.5,0,0,0,2.9-.6,33.4,33.4,0,0,1,0-8c0.3-2.3.9-5,2.2-6.3a15.7,15.7,0,0,1,3.2-2.1,70.1,70.1,0,0,0,7.9-5.5,9.2,9.2,0,0,1,1.5-1.2,7.3,7.3,0,0,1,1.9-.2,49.1,49.1,0,0,0,10.9-1.8l1.5-.6h1.3l3.6-.6a9,9,0,0,0,.6-1.3,3.5,3.5,0,0,0,.3-1.6,2.8,2.8,0,0,0-.9-0.8,39.6,39.6,0,0,0-5.4-3l-2.3-1.1a40.7,40.7,0,0,0-1.2-8.9,35.3,35.3,0,0,0-9-3.2M79.5,54.6a17.5,17.5,0,0,1,1.5,1,0.6,0.6,0,0,1-1,.3c-0.1.4,0.1,0.8,0,1.2a40.9,40.9,0,0,1,5.7.9c0.5,0.1,1.4.4,1.4,0.8a2,2,0,0,1-.8,1,21.4,21.4,0,0,0-2.5,2.7,10.2,10.2,0,0,1,2.4,1.2c-0.1.6-.8,1.1-0.9,2s0.2,3,.2,4.3-3.8,1.3-6.2,1.1H77.8A6.2,6.2,0,0,0,76,72.2l-1.8,1.3a12.8,12.8,0,0,1-4.3,2.1,6.8,6.8,0,0,1-2-.5L66,74.6a32.6,32.6,0,0,1-17.1,5.6,32.1,32.1,0,0,1-18.1-4.6A33.3,33.3,0,0,1,19.4,64.2a32,32,0,0,1-4.5-18.1,18.6,18.6,0,0,1-5.4-2.8,3,3,0,0,1-1.3-1.4,3.5,3.5,0,0,1,.9-2l1.1-1.8a21.1,21.1,0,0,1-1.3-5.3,5.8,5.8,0,0,1-.2-2,4.1,4.1,0,0,1,1.2-1.2A40.5,40.5,0,0,1,20,23.8,27.5,27.5,0,0,1,22.3,20a39.5,39.5,0,0,1,7.3-1.3,14.8,14.8,0,0,0,2.8-.1,4.4,4.4,0,0,0,.9-0.9L35.3,16a4.5,4.5,0,0,1,1-.8,20.1,20.1,0,0,1,3-.1,8.2,8.2,0,0,0,1.4-.6,20.8,20.8,0,0,1,4.8-1.2h0.2a1.6,1.6,0,0,1,1.2.7,4.2,4.2,0,0,0,1,.8,15.9,15.9,0,0,0,2.2.1A32.5,32.5,0,0,1,79,38.4c1.3,4.5,1.9,10.9.5,16.2" transform="translate(-8.2 -13.3)"/><path class="a" d="M42.2,48.9a4.3,4.3,0,0,0-.1.8,11.3,11.3,0,0,0,3-1.3l-2.8.5m7.7-3.2a25.3,25.3,0,0,1-4,3,11.6,11.6,0,0,1-4.8,2.1c0-1.1.3-2.3,0.4-3.6a63.2,63.2,0,0,0,8.5-1.6" transform="translate(-8.2 -13.3)"/><path class="a" d="M30,50.1a8.9,8.9,0,0,1-.2-1.3,5,5,0,0,0-1.3,0L30,50.1m0.6-2.9c0,1.6.5,3.2,0.4,4.6a31.6,31.6,0,0,1-2.8-2.4,20.2,20.2,0,0,1-2.7-2.5h0l5.1,0.4" transform="translate(-8.2 -13.3)"/><path class="a" d="M34.9,53.2c1.3-1.1,3-1.8,3.4-3.8a33.6,33.6,0,0,1-4.8-.1,8.8,8.8,0,0,0,1.4,3.9m4.6-5.7a10.8,10.8,0,0,1-.6,3.6,8.1,8.1,0,0,1-1.9,2l-1.1.8a3.2,3.2,0,0,1-1.2.8c-0.4,0-.8-1-1-1.4a13.7,13.7,0,0,1-1.2-3.6,6,6,0,0,1-.1-2.1c2.1-.2,4.8.2,7-0.1" transform="translate(-8.2 -13.3)"/><path class="a" d="M76.8,57.5v3.1l-3,.2c0-1-.1-2.2,0-3.1l3-.2" transform="translate(-8.2 -13.3)"/><path class="a" d="M57.5,57.5l1.8,0.6v2.6L57.5,60c0-.7-0.1-1.8,0-2.5" transform="translate(-8.2 -13.3)"/></svg>