<svg xmlns="http://www.w3.org/2000/svg" viewBox="0 0 65.5 70.8"><defs><style>.a{fill:#231f20;}</style></defs><title>services_recreation</title><path class="a" d="M56,68.3a21.2,21.2,0,0,1,.7,6.2H61a34,34,0,0,0-2.2-6.2H56m4.1,0a28.2,28.2,0,0,1,1.5,7,4.4,4.4,0,0,0,1.3-.8,35.3,35.3,0,0,0-.3-6.4H60.2M40.7,73.8A25.9,25.9,0,0,0,42.1,68a7,7,0,0,0-.5-2.9c-0.2-.6-0.5-1.7-0.9-1.7a11,11,0,0,1-2.8.1,5.6,5.6,0,0,0,.6,1.4,18.3,18.3,0,0,1,.6,9.8,1.6,1.6,0,0,1-.5.9c-0.2,0,0-.4-0.2-0.4s-3.6,0-5.2.1a31.4,31.4,0,0,0,16.2,3.4,30.3,30.3,0,0,0,10.7-2.6,2,2,0,0,0,1.2-.7,42.3,42.3,0,0,0-4.5-.1c-0.1.4,0,1-.4,1.1a3.4,3.4,0,0,1,0-1.6c0.1-2.7-.4-5-1.5-6.4a19.7,19.7,0,0,1-2.8-.1,15.5,15.5,0,0,1,3.4,6.6c0.1,0.3.4,0.9,0,1a3.6,3.6,0,0,0-.4-0.6,8.3,8.3,0,0,0-1.8,0H41c-0.3.1-.2,0.5-0.7,0.4a3.7,3.7,0,0,1,.4-1.8M33.8,53.3c-1.5,1.9-2.2,4.7-3.6,6.8a14,14,0,0,1,4.7,1.8,13.9,13.9,0,0,1,1.4-3.7,5.3,5.3,0,0,1-.1-1.4c-0.3-.5-1.1-0.5-1.3-1.1a5.8,5.8,0,0,1,0-1.3c0.3,0.2.1,1.1,0.7,1.1a4.5,4.5,0,0,1,0-1.6,3.1,3.1,0,0,1,.4,1.6,6,6,0,0,1,.7.9,6,6,0,0,1,0,.9,18.5,18.5,0,0,1,0,5.1,8.9,8.9,0,0,0,4.8-.1c0-1.1,0-2.3,0-3.5s-0.3-1.8-.3-2.6,0.5-1.8.2-2.7c-2.1-.9-5.1-0.2-7.6-0.4m14.8-.6c-0.3-.9-0.8-0.7-1.1,0S48,53.9,48.7,54s-0.5-.8-0.1-1.3m1.5-1.5-0.8-.4-0.7-.6c-0.9-2-1.4-4.5-2.8-6A10.9,10.9,0,0,1,44,45.7a34.8,34.8,0,0,1,2.9,3.9c0.4,0.7,1,1.5.6,2.3a2,2,0,0,1,.8-0.4c0.6,0,1.3,1.1.7,1.6a0.9,0.9,0,0,1,.4,1,0.9,0.9,0,0,0,.8-0.9,2.4,2.4,0,0,0,.6-0.5,8.2,8.2,0,0,0-.5-1.5m-5.5-6.6a3,3,0,0,0,1-1.1,3.7,3.7,0,0,0-.8-1.1L42.7,39a20.7,20.7,0,0,0-3.7-1.8c-0.9.7-2,1.8-3.3,0.9l-1.3.9c-0.8.5-1.4,0.6-1.5,1.7a13.4,13.4,0,0,1-.5,4.1l1.3,0.4c0-.6-0.2-1.4-0.2-2.2a3.6,3.6,0,0,1,.3-2.2,2.9,2.9,0,0,1,.1,1.3c0,1.1.3,2.1,0.4,3.2a28.2,28.2,0,0,1-.8,7.1c2.9,0.2,6-.3,8.8.1a28.4,28.4,0,0,1-.2-4.2c0.1-1.7.3-3.5-.2-4.8a1.2,1.2,0,0,1-.4-0.8c1.1,0.2,1.3,1.7,2,2.5a6.6,6.6,0,0,0,1.4-.8M54.2,31a2.8,2.8,0,0,0-.4.9,16.5,16.5,0,0,0,.4,1.7c0,0.3-.1.5-0.1,0.7a5.8,5.8,0,0,0,1.3,2.3,7.8,7.8,0,0,0,2.6-.9,3.7,3.7,0,0,1-1.4,1.4c0,0.2,0,.5,0,0.7s0.6,1.5.1,2a0.8,0.8,0,0,1-.3-0.7c-0.5.7-1.4,2.5-.9,3.6a1.5,1.5,0,0,0,1.5-.7,28.3,28.3,0,0,0,1.9-3.5,5.9,5.9,0,0,1-.4-3.1A2,2,0,0,1,58,34a6,6,0,0,1,3,3.8c0.5-2.7-1.6-3.6-3.4-4.6s-1.3-1-2.2-.9,0.3-.2.3-0.4-0.9-1-1.6-.9m-20-.2a22.7,22.7,0,0,0,0,2.7c-0.2-.1-0.2-0.5-0.5-0.4a1.5,1.5,0,0,0,.7,1.4c0.2,1.4,1.3,2,2.8,2a2.6,2.6,0,0,1-1.5.3,4.9,4.9,0,0,0,.3,1,1.6,1.6,0,0,0,1,.2,2.4,2.4,0,0,0,.8-0.7c0.3-.7-0.1-1.9.2-2.6s0.4-.2.5-0.4a7,7,0,0,0,.3-1.3,1,1,0,0,0-.6.4c0-1,.3-2.4,0-3.2a6.2,6.2,0,0,0-4,.6m35.3-3.7,1.1-.6a4.9,4.9,0,0,0-1.1-1.2,13.5,13.5,0,0,0,0,1.7m-45.7.1c-4.3,5-7.1,10.8-7.5,19.6a29.3,29.3,0,0,0,4.9,17.6,30.3,30.3,0,0,0,9.1,9.2,5.1,5.1,0,0,0,1.8,1c1.9,0.1,4.4-.1,6.4-0.1a18.7,18.7,0,0,0-.1-7.2,10.4,10.4,0,0,0-.5-2.1,16.5,16.5,0,0,1-.8-1.8A2.1,2.1,0,0,1,36,63a12.9,12.9,0,0,0,.3-3.7,26.5,26.5,0,0,0-1.1,3.4,1.8,1.8,0,0,0-.6-0.1c-0.7.6-.4,1.8-0.5,3a12.7,12.7,0,0,1-.9,3.5,10.1,10.1,0,0,1-2.3,4,5,5,0,0,1,.7-1.7,14.6,14.6,0,0,0,1.5-3.7c0.4-1.8.2-3.8,0.8-5.3A7.1,7.1,0,0,0,31.2,61c-1,1.4-.6,4.1-0.7,6.6-0.1.9-.1,1.7-0.2,2.5a2.7,2.7,0,0,1-.8,2c0.9-3.2-.1-8.1.9-11.1a2.4,2.4,0,0,1-.7-0.3c1.2-2.3,2.1-5,3.4-7.2a2.5,2.5,0,0,1-.6-0.4,17.2,17.2,0,0,0,1-4.1l-1.9,1a12.6,12.6,0,0,0-2,1.1c-0.6.5-.8,1.5-1.4,2.1l-0.8.6c-0.2.1-.5,0.6-0.8,0.3a1.6,1.6,0,0,1,.7-0.8c0.6-.6.8-1.5,1.5-2.2a13.4,13.4,0,0,1,2.5-1.5c0.7-.4,2-1.1,2.2-1.8a14.3,14.3,0,0,0,0-1.8l-0.8-.3c-1.6,1.2-3,3-4.6,4.2s-3,1.7-3.2,3.7l1.8-1.3c0.2-.1.8-0.6,0.9-0.1a1.6,1.6,0,0,1-.8.7l-1.7,1.3a2.7,2.7,0,0,1-.8.6c0-1.9.5-3.6,1.9-4.3l1.7-.8,1.4-1.2c1.1-.9,1.9-2.2,3-3.1a0.7,0.7,0,0,1-.6-0.4,27.8,27.8,0,0,0,1-5.5l1.4-1a3.3,3.3,0,0,0,1.2-1.2c0.1-.3-0.2-0.6-0.1-1a1.8,1.8,0,0,1-1-1.6,2,2,0,0,1-.5-2.3,5.8,5.8,0,0,1-.5-2.5c0.5-.5,1.1-1.6,1.9-1.8a7.1,7.1,0,0,1,3.2.4,3.1,3.1,0,0,1,1.2,1.5,3.7,3.7,0,0,1-.3,1.2l-0.4,1.1c1.2,0.2.1,2.3-.4,2.6a9.8,9.8,0,0,0,0,1.2,41.3,41.3,0,0,0,4.5,2.2c1.1,1.7,2.4,3.3,3.6,5,0,0.2-.2.2-0.1,0.4a3.9,3.9,0,0,1,1.2,1.9l0.6,1.3c0.6,1.5.6,3.1,2.1,3.4a15.1,15.1,0,0,1,2.3-3,1.5,1.5,0,0,1,1-.7,2.8,2.8,0,0,1-.7.9c-0.8.9-1.4,2-2.2,3a4.3,4.3,0,0,0,.6.9l1.4-.9a2.2,2.2,0,0,1,1.3-.8,2.9,2.9,0,0,1-1.2,1.3l-1.5,1.1c0.1,0.6-.5.8-0.7,1.3s-0.1.4-.1,0.6a1.9,1.9,0,0,1-1.1.8,2.6,2.6,0,0,1-.5-0.4l-0.9-.2a2.5,2.5,0,0,1-.4-0.8,1.6,1.6,0,0,1-.4-1.2c0-.1-0.1-0.3,0-0.4a5.8,5.8,0,0,0,.2-1.3,2.6,2.6,0,0,0-.3-0.8c-1-1.6-2.5-2.5-3.4-3.9l-0.5.2a2.1,2.1,0,0,0-.5-0.9,40.3,40.3,0,0,0,.4,8.2,2.1,2.1,0,0,0-.8,0,41,41,0,0,0,.2,9l-0.6.3a10.1,10.1,0,0,1,1.2,4,15.5,15.5,0,0,1-.7,4c-0.4,1.3-.8,2.5-1.2,3.6H55a16.6,16.6,0,0,0-2.9-5.1A5.1,5.1,0,0,0,50.8,68a3.6,3.6,0,0,1-1-.1,37.2,37.2,0,0,1,1.8-9c0.6-2.1,1.3-4.2,1.8-6.2a15.6,15.6,0,0,0,.5-2.2c0-.6.1-1.4,0.1-2.2a5.9,5.9,0,0,0,0-1.4,4.2,4.2,0,0,0-.8-1,2.3,2.3,0,0,1-.6-1.3,5.1,5.1,0,0,1,.7-1.7c0.6-1.2,1.1-2,1.8-3.1a6.2,6.2,0,0,0,1-1.4c0.1-.4-0.2-0.8-0.1-1.1a4.4,4.4,0,0,1-.8,0,5.5,5.5,0,0,1-.8-1.3,4.3,4.3,0,0,1-.8-1.4c-0.1-.3.1-0.7,0-1.1s-0.6-.8-0.8-1.3A2.5,2.5,0,0,1,53,31c0.1-.3.1-0.6,0.1-0.7h0.2a2,2,0,0,1,.1-0.4l2.2-.7a7.9,7.9,0,0,1,2.2-.6A4.3,4.3,0,0,1,59.4,30c0.5,0.7.9,1.3,1.3,1.7s2.3,2.1,2.7,3.5a1.7,1.7,0,0,1,0,.4c0,1.3-1.3,2.5-1.8,3.3,1,0.6,1.3,1.7,1.9,2.8l0.9,1.6a37.5,37.5,0,0,1,1.9,3.2c0.5,1.2.3,3.4,0.4,4.7s1.1,2.7,1,4.2a6.4,6.4,0,0,1-.3,1.6,2,2,0,0,1-.7,1.4,2,2,0,0,1-.5-1.1,23.6,23.6,0,0,1-1-2.3,1.8,1.8,0,0,1-.1-1.4,10.7,10.7,0,0,0,1.6,3.2c0.9-2.1-.4-3.6-0.7-5.8s-0.1-3-.4-4.4a5.7,5.7,0,0,0-.9-1.6l-1.3-2.3a19.3,19.3,0,0,0-1.4-2.3c-0.4-.5-1.5-1.4-2.2-1.3s-0.7,1.1-.7,2.1,0.2,1.6.7,1.5-0.4-.7-0.3-1a11.2,11.2,0,0,1,2.9,2.9,8.3,8.3,0,0,1,1.4,2,7,7,0,0,1,0,.7c0.2,1.5,1.1,2.6,1.2,4.1s-0.4,2.2-.4,3.3a3.2,3.2,0,0,1,.1,1.2,3.5,3.5,0,0,1-.7-1.8c-0.1-1,.4-1.9.3-2.9s-1.3-2.7-1.2-4.4a27.6,27.6,0,0,0-1.9-2.6c-0.1,0-.2-0.4-0.3-0.2a8.3,8.3,0,0,0-.6,2.8,8.9,8.9,0,0,0,.1,3.1c0.2,0.6.6,1.2,0.8,1.8a12.9,12.9,0,0,1,.9,4.4c0,0.8.2,1.6,0.3,2.4,0.3,3.2.9,6.5,1.3,9.6H63.5a37.4,37.4,0,0,1-.1,6.1A29.9,29.9,0,0,0,72.6,66a30.1,30.1,0,0,0,5.5-12,33.9,33.9,0,0,0-.7-15.6,30.3,30.3,0,0,0-6.3-11.2,13.6,13.6,0,0,0-4.3,2.7A15.9,15.9,0,0,0,60.5,27a15.8,15.8,0,0,0-6.2-.4,9.1,9.1,0,0,1-1.9.4,5.1,5.1,0,0,1-1.1-.7A10.7,10.7,0,0,0,47,25.1a14,14,0,0,0-7.1,1.4,9.5,9.5,0,0,0-6.6-1.3,7.8,7.8,0,0,0-4.7-2.5,29.1,29.1,0,0,0-4.7,4.5M44.9,16.4v7.8a14.5,14.5,0,0,1,2.9.1v-8H44.9m-5.2-5.3H39.6c-2.9,1-6.6,1.6-9.6,2.6,0,2.8-.1,5.8,0,8.6l1.2,0.4c0-1.9.1-4.2,0.1-6.1s-0.2-1.5.2-1.8c0.2,1.9.2,4.2,0.2,6.3a8.3,8.3,0,0,0,0,1.7,2.6,2.6,0,0,0,1,.7c0.1-2.3.1-5.1,0.2-7.4,0-.5-0.2-1.6.2-1.7,0.3,3.1,0,6.8.3,9.9,0.3,0.1.6-.2,1.1-0.1,0-3,.1-6,0.1-9a1.4,1.4,0,0,1,.2-1.2,4,4,0,0,1,.1,1.7c0.1,2.8,0,5.8.2,8.4l1.2,0.2c0.1-3.1.2-6.5,0.2-9.6a1.3,1.3,0,0,1,.2-1.2c0.3,3.7.1,7.3,0.2,11L38.5,25c0.1-3.5.1-7.2,0.1-10.6a1.2,1.2,0,0,1,.2-1.2c0.2,4,.2,8,0.3,12.1a4.9,4.9,0,0,0,.9.6,11.2,11.2,0,0,1,4.1-1.6c0-3.9,0-8,0-10.8-1.5-.6-3-1.8-4.5-2.3m15.3-1c-2.2,1.2-4.5,2.2-6.6,3.4V24.4l2,0.7a9.8,9.8,0,0,0,1.7,1,5.7,5.7,0,0,0,1.2-.2,18.9,18.9,0,0,1,13.5,3.2l1-.9a1.5,1.5,0,0,0,.8-1.1L56.5,25c-0.5-.1-1.4,0-1.5-0.5a3,3,0,0,1,1.6.1c4,0.7,8.1,1.4,12.1,2V24.7L56.5,22.6c-0.6-.1-1.3,0-1.5-0.5a3.4,3.4,0,0,1,1.6.1l12.1,2.1V22.5L56.5,20.1c-0.6-.1-1.4-0.1-1.5-0.6a13.2,13.2,0,0,1,3.4.5l10.4,2V20.2L55.7,17.6c-0.2,0-.7,0-0.7-0.4a2.9,2.9,0,0,1,1.6.1l12.2,2.4V18.1L56.5,15.4c-0.5-.1-1.3,0-1.5-0.6a3.5,3.5,0,0,1,1.7.2l12.1,2.6V15.9L56.5,13c-0.5-.1-1.4-0.1-1.6-0.6a12.1,12.1,0,0,1,3.4.7l10.4,2.4c-0.1-.5,0-1.1,0-1.7L55,10.1M55,9.4c4.8,1.3,9.8,2.4,14.4,3.9,0.1,2.4.1,4.8,0.1,7.3a12.1,12.1,0,0,0,0,2.4A7.1,7.1,0,0,0,71,24.7a32.5,32.5,0,0,1,8.2,14.6A34.3,34.3,0,0,1,80,51.1a33.1,33.1,0,0,1-2.8,10.2A32.7,32.7,0,0,1,44.5,80.1,32.5,32.5,0,0,1,16,56.5a34,34,0,0,1-1.2-11.7,32,32,0,0,1,2.6-10.3A32.7,32.7,0,0,1,29.3,20.3V13.2l9.3-2.4a6.4,6.4,0,0,1,1.3-.4,4.9,4.9,0,0,1,1.3.7l3.8,2c-0.1.5,0,1.2,0,1.8h2.8a13.1,13.1,0,0,0,0-1.6c2.3-1.3,4.8-2.5,7.2-3.7" transform="translate(-14.8 -9.4)"/><path class="a" d="M27.5,26.5a2.1,2.1,0,0,1,0,1.7c-0.4,1.5-1,3.1-1.5,4.6a19.1,19.1,0,0,0,3.4-2.2,1.4,1.4,0,0,1,1.1-.6,7.8,7.8,0,0,1-2.4,2.3c-0.9.7-1.7,1.5-2.7,2.1A30.9,30.9,0,0,1,21.8,41a30.5,30.5,0,0,0,7.5-1.4,1.2,1.2,0,0,1,.9-0.1,1.5,1.5,0,0,1-1.1.9,20,20,0,0,1-4.5,1.3,15.4,15.4,0,0,0,3.6.9,2.3,2.3,0,0,1,1.1.3c0.1,0.5-1.3.3-1.5,0.3a15.5,15.5,0,0,1-3-.7,7.6,7.6,0,0,0-1.4-.5l-1.3.2H20.7a7.9,7.9,0,0,0-1.1.7,2.8,2.8,0,0,1-2,.8c-0.2-.4.3-0.7,0.5-0.9A26.6,26.6,0,0,0,22.2,38a3.5,3.5,0,0,0,.6-0.9,4.4,4.4,0,0,0-.7-1.8,2.8,2.8,0,0,1-.6-1.7,6.3,6.3,0,0,1,1.7,2.7c1.9-2.6,2.9-6.3,4-9.6a0.2,0.2,0,0,1,.1-0.2h0.1Z" transform="translate(-14.8 -9.4)"/><path class="a" d="M38.1,31.5H38a3.9,3.9,0,0,0-1.2-.4c0.2-.5,1.2-0.2,1.3.2" transform="translate(-14.8 -9.4)"/><path class="a" d="M35.6,31.3l-0.7.3c-0.2-.3.5-0.5,0.7-0.3" transform="translate(-14.8 -9.4)"/><path class="a" d="M54.6,32.3a0.4,0.4,0,0,1-.3.3,0.7,0.7,0,0,1,0-.3c0.2,0,.3-0.1.4,0" transform="translate(-14.8 -9.4)"/><path class="a" d="M35.8,32.6h0a1.5,1.5,0,0,1-.9,0c0.3-.2.8-0.6,1,0" transform="translate(-14.8 -9.4)"/><path class="a" d="M37.8,32.5c-0.1.4-.7,0.2-1,0.1s0.8-.6,1-0.1" transform="translate(-14.8 -9.4)"/><path class="a" d="M56.7,33.2H56c-0.6-.7.7-0.7,0.7,0" transform="translate(-14.8 -9.4)"/><path class="a" d="M55,33.2H54.3c0-.6.6-0.4,0.7,0" transform="translate(-14.8 -9.4)"/><path class="a" d="M37,33.8c-0.1.3-1.1,0.4-1.2,0H37" transform="translate(-14.8 -9.4)"/><path class="a" d="M73.6,33.8a3.8,3.8,0,0,1,.4,1.9,27.1,27.1,0,0,0,1.2,5.4,35,35,0,0,0,2,4.7c0.4,0.8,1.2,1.6.8,2.9l-2.7-.7-0.8-.3H71.2c-0.5,0-1.9.1-2-.2s1-.4,1.2-0.4h2.4l-2.7-1.5a12.3,12.3,0,0,1-2.4-1.8,0.7,0.7,0,0,1-.2-0.7,3.1,3.1,0,0,1,1.5.9A20.7,20.7,0,0,0,76.3,47a46.9,46.9,0,0,1-1.6-4.6A18,18,0,0,1,71.2,39a3.4,3.4,0,0,1-.8-1.4,1.3,1.3,0,0,1,1,.8,13.4,13.4,0,0,0,2.9,2.6,46.7,46.7,0,0,1-.8-4.9c-0.1-.8-0.3-1.9.2-2.2" transform="translate(-14.8 -9.4)"/><path class="a" d="M55.9,34.2c-0.1.4-1.1,0.3-1.1-.2a1.7,1.7,0,0,1,1.1.2" transform="translate(-14.8 -9.4)"/><path class="a" d="M37.6,34.6a1.6,1.6,0,0,1-2.3.2c0.6-.2,1.7.1,2.1-0.3h0.2" transform="translate(-14.8 -9.4)"/><path class="a" d="M56.7,35.1c-0.4.5-1.7,1.2-1.8,0s0.3-.2.4,0,0.8,0.2,1.5,0" transform="translate(-14.8 -9.4)"/><path class="a" d="M38.5,53.7c1,0.1,1.7,1.1,2.6.8a0.8,0.8,0,0,1,0,.8,4.8,4.8,0,0,1-2.6-1.4V53.7Z" transform="translate(-14.8 -9.4)"/></svg>