<svg xmlns="http://www.w3.org/2000/svg" viewBox="0 0 71.5 80"><defs><style>.a{fill:#231f20;}</style></defs><title>values_food</title><path class="a" d="M73.9,68.2A13.9,13.9,0,0,1,78.5,73a2,2,0,0,0,.5.7c-0.2-1.6-.4-3.2-0.6-4.8a7.1,7.1,0,0,1-.3-1.6,3.9,3.9,0,0,1,1.3-1.2,30.7,30.7,0,0,1,3.8-2.5,1.6,1.6,0,0,0,.7-0.4,21.2,21.2,0,0,0-10,5M69.6,54.8c-1.2.2-1.4,2.5-.2,3s2.1-3.3.2-3m-39.7,10-4.1-5.9a38.3,38.3,0,0,0-3.2-4.3c-0.4-.5-1.1-1.3-1.6-1A6.7,6.7,0,0,0,18.7,57a5,5,0,0,0-.5,1.3,6.9,6.9,0,0,0,.6,1.7A31.1,31.1,0,0,0,37.4,77.2a142.4,142.4,0,0,0-7.5-12.4m-3-41.7c0.6-1.4.8-3.1,2.7-3.2,0.1-2.9.1-5.8,0.1-8.8a1.4,1.4,0,0,1,.2-1.1c0.4,0.6.2,1.2,0.2,1.9s0.1,4.4,0,7,1,8.3-2.5,8c0.1,1.1.4,2,.5,3,0.7-1.3,1-3,3-3.1,0.4-3.1.3-6.7,0.8-9.7A2.9,2.9,0,0,1,32,19c-0.1,3.4-.1,7-0.5,10.5-0.2,1.9-.2,3.4-1.6,4.1a2.5,2.5,0,0,1-1.3.2c0.2,0.8.3,1.7,0.4,2.5,0.4-1.6.8-3.1,2.8-3.1,0.6-2.8,1.1-6,1.5-8.9a11.3,11.3,0,0,1,.6-2.8,1.1,1.1,0,0,1,0,1c-0.6,3.9-1.1,8-1.6,12.1-0.3,2.6-.1,5.6-2.7,5.9l0.5,2.2c0.7-1.1,1.2-2.5,2.9-2.6,0.6-2.8.9-5.9,1.3-8.8a13.5,13.5,0,0,1,.5-2.8,1.2,1.2,0,0,1,0,1c-0.2,2.5-.6,4.9-0.8,7.5l-0.4,4.4c-0.2,2.6-.2,5.4-2.7,5.6,0.2,3.1,1.3,5.7,2.2,8.3,1.7,5.2,3.8,10.1,5.6,15.3,0.9,2.6,1.6,5.2,2.6,7.8a33.4,33.4,0,0,0,16.1-1A31.8,31.8,0,0,0,69,70.5c-3.1-2.8-5.3-6.6-5.1-12.6a13.7,13.7,0,0,0,2.3,10c0.6,0.8,1.3,1.5,1.8,2.4a17.7,17.7,0,0,1-3.1-.9l-1-.3a11.2,11.2,0,0,0-1.8.3c-4.5.5-9.5-.2-13.7-0.6A16.5,16.5,0,0,1,55,66l1.1-.2,1,0.4a3.3,3.3,0,0,0,1.2.2,18.4,18.4,0,0,1-8.1-6.4,10.6,10.6,0,0,1-4.4-2,2.8,2.8,0,0,1-1.1-1.1,9.1,9.1,0,0,1,3.3-.4,6.7,6.7,0,0,0,.9,1.2A40.1,40.1,0,0,1,46.3,51c-3.5.3-7.5,0.3-10.1-.7a33.1,33.1,0,0,1,5.3-5.4,2.4,2.4,0,0,0,.8-0.7A4.4,4.4,0,0,0,42,43c-0.7-2.6-1-5.5-1.6-8s-1.6-5.8-2.4-8.6a1.4,1.4,0,0,1,.9.7,52.8,52.8,0,0,1,7,8.6c0.4,0.7,1,1.4,1.4,2.1s1.5,3.1,2.2,4.7l4.2-.6a12.5,12.5,0,0,0-.7-1.3,52.2,52.2,0,0,0,7.7-6.6c1.7,2.6,3.5,5,4.7,8.1,1.4,0.7,2.9,1.1,4.3,1.7L72.1,45A18.7,18.7,0,0,1,77.9,49a4.1,4.1,0,0,0,1,.8,30.9,30.9,0,0,0-3.7-16.9A32.2,32.2,0,0,0,65.5,22a30.9,30.9,0,0,0-15.2-5.5,41.8,41.8,0,0,0-14,1.3l-3.8,1.3A3,3,0,0,1,34.3,18a37.5,37.5,0,0,1,6.1-2.2A31.4,31.4,0,0,1,50.5,15a31.9,31.9,0,0,1,16.2,6A32.6,32.6,0,0,1,80.2,51.4a76.5,76.5,0,0,1,6.1,11.4A26.9,26.9,0,0,0,79,67.3a55.9,55.9,0,0,1,.6,8.1A37.5,37.5,0,0,0,73,72l-1.3-.4a5,5,0,0,0-1.2-.4,5.5,5.5,0,0,0-1.3,1.1,32.2,32.2,0,0,1-10.5,6.2A33.1,33.1,0,0,1,42,80c0.2,0.9.7,1.9,1,2.8a1.8,1.8,0,0,1-.9.7,3.2,3.2,0,0,1-1.4-.9,4.4,4.4,0,0,1-1.2-1.2c-0.5-.8-0.6-1.8-1.1-2.4A32.3,32.3,0,0,1,17.6,60.8a38.7,38.7,0,0,0-.8,7.4c-0.1,2.6,0,5.4,0,7.9-2-4.7-3.1-13.5-.4-18.3A32.6,32.6,0,0,1,15.1,44c0.5-4.7,1.8-8.7,3.9-11.6a3,3,0,0,1-.3,1.2,39.4,39.4,0,0,0-2.2,9.8,38,38,0,0,0,.9,12.5,1.2,1.2,0,0,0,.5-0.6,8.4,8.4,0,0,1,2.8-2.7,4.3,4.3,0,0,1,1.4-.7,3.9,3.9,0,0,1,1.2.7,19.5,19.5,0,0,1,3,2.7c3.8,3.8,6.8,8.7,9.6,13.2-1.6-5.2-3.3-10.6-5.4-15.7a4.8,4.8,0,0,1-.4-1,8.4,8.4,0,0,1,.3-1.2,11.9,11.9,0,0,0-.4-2.6,2.4,2.4,0,0,1-1.7,0c-1.6-.7-2.4-3.1-3.2-4.7-2.5-4.9-4.6-9.7-7-14.6a1.9,1.9,0,0,1-.5-1.3,1.1,1.1,0,0,1,.6.8c2.2,4.5,4.4,9.3,6.8,13.7,1.7-.9,3.2.5,4,1.4-0.1-.7-0.2-1.4-0.4-2.1-2.3.4-3-1.5-3.7-3.1L19.6,25.7c-0.4-.8-0.7-1.7-1.1-2.5a7.6,7.6,0,0,1-1-2.5,1.1,1.1,0,0,1,.6.7l6.2,13.5c1.7-1.1,3.2.5,3.8,1.7-0.2-.9-0.3-1.8-0.5-2.7a2.6,2.6,0,0,1-2.9-.5,7.6,7.6,0,0,1-1-2.2c-1.6-4.7-3.3-9.4-4.9-14.1a11.4,11.4,0,0,1-.6-2.5,3.2,3.2,0,0,1,.7,1.6c1.3,4.1,2.8,8.2,4.4,12,1.9-.5,2.9,1,3.6,2.1-0.1-1-.2-1.9-0.3-3a2.5,2.5,0,0,1-2.8-.5,5.7,5.7,0,0,1-.8-2.1c-0.6-2.2-1.3-4.5-1.8-6.8l-1.7-7a7.8,7.8,0,0,1-.4-2.3,2.3,2.3,0,0,1,.6,1.5c1,3.7,1.8,7.7,3,11.2a2.9,2.9,0,0,1,3.3,1.7c-0.1-.3,0-0.9-0.1-1.3a8.8,8.8,0,0,0-1.1-.9c-1.3-1.6-1-5.2.1-6.8-0.4-3.4-.8-6.9-1.3-10.2h0.2a40.6,40.6,0,0,1,.9,5.1c0.1,0.8.3,1.7,0.4,2.5a11.9,11.9,0,0,0,.4,2.6,6.9,6.9,0,0,0,.8,1,7.2,7.2,0,0,1,.9,5.7,4.6,4.6,0,0,0-.6,1.1,12.1,12.1,0,0,0,.2,1.6" transform="translate(-14.8 -3.5)"/></svg>