<svg xmlns="http://www.w3.org/2000/svg" viewBox="0 0 69.6 68"><defs><style>.a{fill:#231f20;}</style></defs><title>services_raw_materials</title><path class="a" d="M39.6,62.3a4.4,4.4,0,0,0-2.2-1.1c-3.5-.4-4.5,1.8-5.8,3.7A19.9,19.9,0,0,1,29.8,67c-1.2,1.3-2.7,2.7-2.7,5.1a5.7,5.7,0,0,0,1.1,3.5c1.1,1.4,3.4,1.9,5,2.9s3,2.5,4.6,3.3h0.3a4.8,4.8,0,0,0,4.7-1.2,5.5,5.5,0,0,0,1.8-2.2c1-2.7-.6-5.2-1.4-7.1A38.7,38.7,0,0,1,47.5,64l1.4-1.5a0.9,0.9,0,0,0,.3-0.5,19.3,19.3,0,0,0-4.9,6.2,9.2,9.2,0,0,1-1.4,2.3c-0.2-1.1-.5-2.1-0.7-3.2l2.1-2.4a30.4,30.4,0,0,1,2.3-2.3c-2,.9-2.9,2.9-4.6,4.1a9.9,9.9,0,0,0-2.5-4.5m-24.8-5c-0.7,1.1-.1,3,0,4.3s-0.1,3.4.1,4.7,1.4,3.5,3.2,4.6,4.3,1.8,5.9.6,3.2-4.6,2.9-8a5.6,5.6,0,0,0-2.7-4.7A13.7,13.7,0,0,0,21,58l-2-.6c-0.9-.3-1.6-1.2-2.7-1a2.3,2.3,0,0,0-1.6.9M69.1,69.8c5.2-5,9.1-12,9.5-21.9h0L74.2,52a4.6,4.6,0,0,0-1.3,1.5,7.7,7.7,0,0,0,0,1.4,3.4,3.4,0,0,1-1.1,1.6,4.4,4.4,0,0,1-2.8,1.8H68a4.5,4.5,0,0,0-1.4,1.2l-1.3,1.3-2.7,2.5c-5.1,5-10.4,9.7-15.4,14.7a0.9,0.9,0,0,0-.5.6c10.2,0,17.2-3.7,22.5-8.8m8.6-25.5a26.6,26.6,0,0,1-4.6,2c-3.2,1.2-6,2.8-7.7,5.4a16.8,16.8,0,0,1,7.9-5.3,17.1,17.1,0,0,0,8-5.1,16.2,16.2,0,0,1-3.7,2.9m-46.4.1-0.9-1.5a12.1,12.1,0,0,1,5.1-2.6l2-.6a17.1,17.1,0,0,0-7.4,2.7c-0.6-1.1-1.5-2.7-3.4-2.2s-1.7,2.1-2.4,3.2a17.5,17.5,0,0,1-1.6,2c-1,1.2-2.3,2.7-2.3,4.9a5.6,5.6,0,0,0,2.2,4l3.6,3.1c1.1,1,2,2,3.9,2.1a5.4,5.4,0,0,0,3.5-1.3,5.8,5.8,0,0,0,2.7-4.4c0.3-4.6-2.7-6.1-4.7-9,3.1-3.1,7.6-4.8,12.6-5.9,0,0,.2-0.1,0-0.1a30.3,30.3,0,0,0-13,5.6M68.7,24.7c-5.2-4.8-12.3-8.9-22.6-8.4a30.3,30.3,0,0,0-13.6,3.7A30.7,30.7,0,0,0,17.3,39.4a32.2,32.2,0,0,0-.1,15.4l3.5-1.2a5.6,5.6,0,0,1-1-5.3,15.3,15.3,0,0,1,2.7-3.8,11.7,11.7,0,0,0,1.4-1.9A12.8,12.8,0,0,1,25,40.4c1-1.1,3-1.3,4.7-1.8l3.1-.9c-0.6-2.1,1.6-3.4,3.6-3.2s2.6,1.1,4,1a9.7,9.7,0,0,0,1.9-.5l28.5-8.1a10.5,10.5,0,0,0-2.1-2.2m1,7.9c2.6-.5,6-0.6,7.9-2,0.4-.3.6-0.6,0.8-0.4s0,0.4-.3.6a15.6,15.6,0,0,1-5.9,2.9c-2.7.8-5.2,1.6-7,3.2,1.9-1.4,4.5-2.1,7-3a20.1,20.1,0,0,0,5.2-2.3c0.5-.3.8-0.8,1.3-1.2s0.4,2.1,0,3-2.6,2.3-4.1,3.2C61.4,44.1,47.2,51.5,34.5,59c3.7-1.7,7.2-3.7,10.9-5.5,1.8-.9,3.4-2,5.2-3,8-4.3,15.9-8.6,23.8-13.1,1.2-.7,2.2-1.5,3.8-1.7,3.2-.3,3,3.2,4.1,5.1-2.5,4.1-8,5.2-10.8,9,3.1-3.3,8.3-4.9,11-8.8,1.2,2-.7,3.6-1.8,4.7a3.1,3.1,0,0,0-.6.7,11.5,11.5,0,0,0,0,2.1,31.5,31.5,0,0,1-5.9,17.7,31.7,31.7,0,0,1-21,13.3,32.7,32.7,0,0,1-5.9.5,11.6,11.6,0,0,0-2-.1A4.5,4.5,0,0,0,44,81,9.9,9.9,0,0,1,42.9,82a6.6,6.6,0,0,1-5.6.2c-1.7-.9-3.1-2.9-5.2-3.6s-4.3-1.4-5.3-3.4a6.2,6.2,0,0,1-.5-3.8l-1.4.7a5.4,5.4,0,0,1-1.2.9,6.9,6.9,0,0,1-2.9-.2,8.6,8.6,0,0,1-2.3-.8A8,8,0,0,1,15.2,69c-1.2-2-1-5.3-1.3-8.1a24.3,24.3,0,0,1-.5-2.6,3.3,3.3,0,0,1,2.4-2.9,34.2,34.2,0,0,1-.6-12.6,34.5,34.5,0,0,1,3.4-10.5A32,32,0,0,1,32.4,18.5a32.5,32.5,0,0,1,10.5-3.4,33.3,33.3,0,0,1,12.5.7A32.6,32.6,0,0,1,72.5,26.5c0.8-.1,1.8-0.6,2.7-0.3s1.6,1.9,2.2,2.9L78.1,30c0,0.3-1.3.9-1.7,1.1-2,.9-4.9.9-6.8,1.6" transform="translate(-13.4 -14.8)"/><path class="a" d="M26.9,43.6a11.3,11.3,0,0,0-2.1,2.4,8.7,8.7,0,0,0-2,2.6c-0.9,2.4,1,3.3,2.3,4.4s2.1,2.4,3.4,3.1a3,3,0,0,0,3.2-.2,3.8,3.8,0,0,0,1.7-2.9c0.3-3.3-1.9-4.8-3.4-6.5l-1.2-1.7c-0.4-.6-1.1-1.4-1.7-1.3H26.9m-0.1-.5c1-.3,1.5.8,2,1.5a28.6,28.6,0,0,0,2.8,3.2C32.7,49,33.8,50,34,52a4.8,4.8,0,0,1-1.8,4.5,3.9,3.9,0,0,1-2.6.7c-1.9-.2-3-2.1-4.1-3.3a17.4,17.4,0,0,0-1.6-1.4c-1-.8-2.2-1.9-1.6-4a5.8,5.8,0,0,1,.9-1.5c0.6-.9,1.5-1.7,2.3-2.6a4.2,4.2,0,0,1,1.3-1.3" transform="translate(-13.4 -14.8)"/><path class="a" d="M25,51a4.3,4.3,0,0,0,1.3,1.3,8.8,8.8,0,0,0,1.4,1.2c0.9,0.5,2.5.4,3-.3a4.5,4.5,0,0,0,.3-2.7,3.9,3.9,0,0,0-.6-1.2c-0.6-.9-1.9-2-3.2-1.8A3,3,0,0,0,25,51m2.3-4.1c1.1-.2,2.2.9,2.8,1.6a5.1,5.1,0,0,1,1.3,4.3,2.5,2.5,0,0,1-.2.9,2.2,2.2,0,0,1-1.5.6c-1.7.2-2.7-.8-3.6-1.6a4.9,4.9,0,0,1-1.3-1.4,3.3,3.3,0,0,1,.1-2.2,4.3,4.3,0,0,1,2.4-2.2" transform="translate(-13.4 -14.8)"/><path class="a" d="M27.1,51.5c0.6,0.9,2.3.4,1.8-.8a1.7,1.7,0,0,0-1.5-1c-0.6.2-.7,1.3-0.4,1.8m0.4-2.1a2.4,2.4,0,0,1,1.7,1,1.3,1.3,0,0,1-1.4,1.9c-1.1-.2-1.7-2.7-0.3-2.9" transform="translate(-13.4 -14.8)"/><path class="a" d="M16.5,61.8c0.1,0.9-.2,2.7-0.1,3.6a4.9,4.9,0,0,0,1.8,3.4A5.5,5.5,0,0,0,20.7,70a3.5,3.5,0,0,0,4.1-3.4,8.1,8.1,0,0,0-.6-3.4,4.9,4.9,0,0,0-1.7-2.3c-1-.6-2.1-0.5-3.1-1s-1.6-1.7-2.6-1.4-0.4,2.7-.3,3.3m0-4c1.1-.2,1.8,1,2.6,1.4l1.3,0.6a16.3,16.3,0,0,1,2.8.8c1.5,0.8,2.2,2.8,2.2,5.3A4.9,4.9,0,0,1,24,69.5a5,5,0,0,1-4.7.6A5.6,5.6,0,0,1,16,66.9c-0.3-1.4.3-2.6,0.1-4.8a17.7,17.7,0,0,0-.3-1.8c-0.1-.9-0.4-2.2.6-2.4" transform="translate(-13.4 -14.8)"/><path class="a" d="M17.7,63.2c-0.1,1.3.6,3.6,1.3,4.1a2.4,2.4,0,0,0,3,0c1.1-1.2.2-3.3-.5-4.2s-1.4-1.6-2.6-1.5a1.4,1.4,0,0,0-1.2,1.5m1-1.9c1.3-.2,1.8.5,2.4,1.1l1.1,1c0.7,0.9,1.3,2.9.5,4.1s-3.7.8-4.4-.3a5.1,5.1,0,0,1-.6-1.9c-0.2-1.6-.7-3.6,1-4" transform="translate(-13.4 -14.8)"/><path class="a" d="M19.1,63.7a1.7,1.7,0,0,0,1,2.4,0.7,0.7,0,0,0,.9-0.5c0.2-.9-1-2.4-1.8-2H19.1m0-.4c1.3-.4,2.9,1.5,2.2,2.8a1.2,1.2,0,0,1-1,.5c-1.3,0-2-2.2-1.2-3.3" transform="translate(-13.4 -14.8)"/><path class="a" d="M33.9,66l-1.4,1.8a14.6,14.6,0,0,0-2.8,3.6c-0.7,1.6.2,2.5,1.3,3.2s3,1.7,4.6,2.5,3.4,2.4,5.1,1.1,0.6-3.1.1-4.7S39.6,69,39,67.2s-0.8-2.8-2.5-2.8-1.8.8-2.5,1.6m3.2-2.6c2,0.6,2.4,4,3,6.1l0.8,2.9c0.3,0.9.7,1.9,0.9,2.9S42,79.7,39,79.4c-1.4-.1-2.4-1.1-3.5-1.8s-3.1-1.8-4.9-2.8-2.2-1-2-2.5a5.9,5.9,0,0,1,1.4-2.3l3.4-4.1c0.9-1.1,1.6-2.5,3.6-2.4" transform="translate(-13.4 -14.8)"/><path class="a" d="M33.7,69.3a5.5,5.5,0,0,0-1.3,2.5,2.2,2.2,0,0,0,.9,1.8,8.3,8.3,0,0,0,2.5,1.5,1.9,1.9,0,0,0,2.7-1.6,5.9,5.9,0,0,0-.5-3.8c-0.4-.7-1.4-2.1-2.4-1.8a4.1,4.1,0,0,0-1.8,1.4m2-1.8c1.1-.2,2.1.9,2.5,1.7a6.8,6.8,0,0,1,.6,3.5c-0.2,1.9-1,3.4-3.1,2.8a9.6,9.6,0,0,1-3.1-1.8,2.8,2.8,0,0,1-.5-2.8,6.2,6.2,0,0,1,1.4-2.1,4.3,4.3,0,0,1,2.2-1.4" transform="translate(-13.4 -14.8)"/><path class="a" d="M34.4,71.3c0.1,1.5,2.4,2.7,2.3.6S35.8,70,35,70.2a1.1,1.1,0,0,0-.7,1.1M35,69.8A1.9,1.9,0,0,1,37,72a1.6,1.6,0,0,1-.9,1.5c-1.7.3-2.8-2.4-1.6-3.5l0.5-.2" transform="translate(-13.4 -14.8)"/></svg>