<svg xmlns="http://www.w3.org/2000/svg" viewBox="0 0 65.5 70"><defs><style>.a{fill:#231f20;}</style></defs><title>services_bio_control</title><path class="a" d="M72.7,61.3a10.5,10.5,0,0,0-2.4.7,15,15,0,0,0-1.5,1.1l-4.7,3.3A34.4,34.4,0,0,0,59.7,70a5.7,5.7,0,0,1-1.4,1.2,16.3,16.3,0,0,1-2.7,0l-7.8.4c-2.5.2-5.1,0.3-7.4,0.7l-2.4.4A10.9,10.9,0,0,0,35.6,74a17.9,17.9,0,0,0-2.2,1.4,31.7,31.7,0,0,0,19.7,2.9c-0.9-1.6-2-3.2-3-4.9a5.8,5.8,0,0,1-.9-1.6c3-.1,6.1-0.3,9.4-0.3a27.9,27.9,0,0,1,7-5.6c-0.2,2.5-.4,4.9-0.6,7.4A29.9,29.9,0,0,0,75.7,60.9H75.6l-2.9.4m5.1-6.8c-1.4.7-2.7,1.7-4,2.5a4.1,4.1,0,0,0-1.3.9,2.9,2.9,0,0,0,1.7,0H77a21.8,21.8,0,0,0,.9-3.4H77.8m-32-22.2a9.4,9.4,0,0,0-.3,2.5,1.6,1.6,0,0,1,1.3.5,2.1,2.1,0,0,0-.7.9,3.1,3.1,0,0,1,2.6,1.4l-1.1.4a4,4,0,0,1,1.2,2.4H47.5c-0.6,3.3-3.9,3.9-4.6,7.1a4.7,4.7,0,0,1-1.1-3.1c-2.5-.7-4.1-2.5-3.8-5.7S39,35.5,39,34a7.2,7.2,0,0,0-3.2,6.8A10.8,10.8,0,0,0,37,44.9c1.6,2.9,4.1,4.8,6.3,7l1.3,1.2A29.3,29.3,0,0,1,49.2,44a3,3,0,0,1,.8-1.1,3.2,3.2,0,0,1-.7,1.4l-0.7,1.4a43.5,43.5,0,0,0-3,7.8,15.8,15.8,0,0,1-.4,1.8,2.5,2.5,0,0,1-.7-0.7c-1.6-2-3.6-3.7-5.4-5.6s-3.9-4.7-4.1-8.5a9.9,9.9,0,0,1,.6-4l-1.1-.8a1.8,1.8,0,0,0-1.3-.5,2.3,2.3,0,0,0-.6,1.2,21,21,0,0,0-.7,4.5c-0.3,5.9,1.6,11.2,4.2,14.1,0-.8-0.3-1.8,0-2.4,0.8,3.4,2,6.5,4.2,8.5a6.3,6.3,0,0,0,2.5,1.7,32.1,32.1,0,0,1-5.4-11.3,4.8,4.8,0,0,1-.3-1.9c0.9,2.1,1.8,4.8,3.4,6.2a1.5,1.5,0,0,0,1.5.5c0.2-.5-0.3-1.1-0.1-1.5s1.2,2.1,1.9,3,1.5,2,2.9,2-0.1-1.3.2-1.7c1.1,1.3,1.7,3,3.7,3.3a3.4,3.4,0,0,0,.1-2,61.2,61.2,0,0,1-.8-6.1c0.3,0.4.7,1.6,1.6,1.4s0.4-.9.3-1.6a29,29,0,0,1,.1-5.9c2.3,5.8,6.3,9.9,10,14.2a9.4,9.4,0,0,0,1.3-.9,3.4,3.4,0,0,0,1.3-1,7.2,7.2,0,0,0,0-1.1,37.5,37.5,0,0,0-2.5-15.4,26.7,26.7,0,0,0-4.5-7.5c-0.5-.6-1.5-1.9-2.1-1.9a3.7,3.7,0,0,0-1.3,1.2,23.4,23.4,0,0,0-2.5,3.8,1.1,1.1,0,0,1-.5.7c0.4-4.2-1.7-6.7-5.5-7m8.5-10.9c-2.9-.9-6.4-1.5-9.6-2.2a23.5,23.5,0,0,0-3.3-.6H41.2a10.4,10.4,0,0,0-4,4,4.7,4.7,0,0,0-.8,2.5c0.1,0.7,1.5,1.2,2.1,1.4l2.4,0.9-1.3.3a18.3,18.3,0,0,1,.5,5.2c-0.1,2.4-1.3,4.4-1.1,6.7A4.1,4.1,0,0,0,40.6,43a4.8,4.8,0,0,0,5.2-.6,3.6,3.6,0,0,0,.6-4.4l-0.5-.5a0.6,0.6,0,0,0-.5-0.3c-0.1.9,0.4,1.9,0,2.6a3.6,3.6,0,0,1-1-2.6,21.3,21.3,0,0,1,.4-3.9c0.2-1.4.4-2.8,0.4-3.9a4,4,0,0,0-.3-2c-0.6-.9-2.1-1-2.5-1.8,4.8,0.6,11.4-1.3,14.5,1.5-0.3-2.4-1.5-3.9-2.6-5.5M76.8,36.7a32,32,0,0,0-6.5-10.5,29.7,29.7,0,0,0-9.9-7.1,31.4,31.4,0,0,0-14.3-2.8,30.2,30.2,0,0,0-17.2,6,31.3,31.3,0,0,0-10.2,13,28.6,28.6,0,0,0-2.3,9.3,33.1,33.1,0,0,0,.8,10.6A31.5,31.5,0,0,0,23,66.9a17.3,17.3,0,0,0,2.8,3l3.1-1.4,1.1-.5c0.5-.4,1.1-1.7,1.8-1.8a9.1,9.1,0,0,1,1.7.5,16.2,16.2,0,0,0,2.8-.2l8.3-.7c-2.9-2-5.6-4.3-7.2-7.5-0.2-.5-0.4-1-0.6-1.5a7.9,7.9,0,0,0-.9-1,21.4,21.4,0,0,1-4.3-9.2,21.4,21.4,0,0,1-.5-7,24.3,24.3,0,0,1,.6-3.2c0.2-.8.6-2.4,1.2-2.6a3.4,3.4,0,0,1,1.8.5l1.6,0.7a15.1,15.1,0,0,1,2.1-2.2,4,4,0,0,0,1-.8,5.1,5.1,0,0,0-.1-1.5,4.6,4.6,0,0,0-2.4-3.5,5,5,0,0,1-1.5-1,3.3,3.3,0,0,1,.2-1.5,9.9,9.9,0,0,1,3.6-5A6.3,6.3,0,0,1,41.3,18a6.9,6.9,0,0,1,1.8.2C47,19,51,19.9,54.6,20.9a9.7,9.7,0,0,1,2.8,7.5c-1.1-.5-2.2-1.4-3.7-1.5a32.5,32.5,0,0,0-7.6.7,30.9,30.9,0,0,1-.1,3.1,6.7,6.7,0,0,1,6.2,4.8c0.6-.6.9-1.4,1.6-2.1s1.2-1.6,2.2-1.5,2,1.5,2.5,2.1a33.2,33.2,0,0,1,5.1,8.7c1.8,4.6,2.1,10.4,2.1,16.2a1.2,1.2,0,0,0,.8-0.5l0.8-.6a18.2,18.2,0,0,1,1.5-1.3l2.4-1.3c2.4-1.3,5-2.4,7.4-3.7a31.2,31.2,0,0,0-1.7-14.8M64,81.4a1.2,1.2,0,0,1-1.5-.6,4.1,4.1,0,0,1-2.3,3.9c-0.6-.5-0.6-1.6-0.9-2.4s0.1,0.8-.2.9-2.1-1.1-2.6-2.3-0.6.6-1.1,0.5-1-1.4-1.4-1.8a33.1,33.1,0,0,1-15.3-.6A32.2,32.2,0,0,1,19.3,64.2,31.7,31.7,0,0,1,15,51.5a32.5,32.5,0,0,1,8-25.7,31.1,31.1,0,0,1,9.6-7.4,32.8,32.8,0,0,1,13.6-3.5,31.8,31.8,0,0,1,21.1,6.6,32,32,0,0,1,11.5,16,35.2,35.2,0,0,1,1.5,12.2,31.2,31.2,0,0,1-2.7,11.1A33.2,33.2,0,0,1,64.8,75.4c-0.3,2-.4,4.1-0.8,6" transform="translate(-14.7 -14.8)"/><path class="a" d="M42.7,20.2h0.1c-0.2.5-1.1,1.3-1.1,2a1.4,1.4,0,0,0,.6.8c1.3,0.9,4.1.8,5.9,0.6-2,1-6.3,1.1-7.4-.8a7.2,7.2,0,0,1,1.8-2.6" transform="translate(-14.7 -14.8)"/><path class="a" d="M47.6,21.9l-2.2-.6a1.4,1.4,0,0,0,2.2.6m1.9-.2c-0.6,1.6-4.7,2.2-4.6-.5-0.4-.4-1.4-0.2-1.6-0.8h0c2,0.3,4,1,6.1,1.4" transform="translate(-14.7 -14.8)"/><path class="a" d="M58.8,39H59a18.2,18.2,0,0,1,2.3,3.8,14.7,14.7,0,0,1,1.6,4.5c0.1,0.6-.1,1.3,0,1.9s0.5,1.4.6,2.2a6.4,6.4,0,0,1,.4,2.9c-0.1.3-.3,0.5-0.4,0.7s0.6,2.6-.2,2.6a1.5,1.5,0,0,1-.6-1q-1.4-2.7-2.9-5.2a8.1,8.1,0,0,1-1.1-2,1,1,0,0,1,.8.6l0.6,0.9c0.3,0.4,1,1.6,1.5,1.5s0.4-1,.2-1.6a29.5,29.5,0,0,0-1.7-4.7c1.4-.6.7-3,0.1-4.4s-1.1-2.1-1.5-2.8h0" transform="translate(-14.7 -14.8)"/></svg>