<svg xmlns="http://www.w3.org/2000/svg" viewBox="0 0 70.8 79.2"><defs><style>.a{fill:#231f20;}</style></defs><title>services_pollination</title><path class="a" d="M67.3,51.2a3.1,3.1,0,0,0,3.7-2.1,6.2,6.2,0,0,1-3.3,1.2A6.7,6.7,0,0,1,64.4,49a4,4,0,0,0,2.9,2.2m-0.7-4.9a8.3,8.3,0,0,1-3.2-.5c1,2,5.1,2.5,6.9,1a4,4,0,0,0,1-4.3,5.1,5.1,0,0,1-4.8,3.8m-0.3-6.7c0,1.5-.8,2.5-2.3,2.2a4.6,4.6,0,0,1-1.7,1.1c2.4,1.1,6.1.2,6.4-2.4a2.6,2.6,0,0,0-1.4-3c0.1,0.9-.1,1.9-1,2M44.9,34.3a0.9,0.9,0,0,0-.3,1.7,12.1,12.1,0,0,0,1.5,5.3,33.5,33.5,0,0,0,3.7-1.2,11.7,11.7,0,0,0,3.3-1.7,5.1,5.1,0,0,0,1.8-4.3,4.2,4.2,0,0,0-3.2-3.6,2.3,2.3,0,0,1-.2.9,0.6,0.6,0,0,1-.7-0.1,3.8,3.8,0,0,1,0-.9,5.8,5.8,0,0,0-5.9,3.9M55.1,19.4c-0.1,1.3,0,2.6,0,3.9a22.7,22.7,0,0,0,.2,3.8c0.3,1.7,1,3.2,1.3,4.5a11.7,11.7,0,0,1,2.9-.6c0.1-.1,0-0.5.1-0.7s0.9-1.3,1.2-2.1a9,9,0,0,0,.3-2.1,37.7,37.7,0,0,0,0-7.1,15.7,15.7,0,0,0-1.1-4.5c-0.2-.4-0.4-1.1-0.7-1A29.8,29.8,0,0,0,58,18.8a13.1,13.1,0,0,0-.4,1.8c-0.1,1.3.1,2.8,0.2,4.1s0.1,2.1.2,3a1,1,0,0,1-.1.9c-0.2-1.3-.4-2.5-0.5-3.8a31,31,0,0,1-.3-4,15.2,15.2,0,0,1,.4-2.4,10.8,10.8,0,0,0,.4-2.4,5.5,5.5,0,0,0-.4-1A9.8,9.8,0,0,0,56,12.2a50,50,0,0,0-.9,7.2m17.5-6.1-1.9,2.4c-3.1,4.1-6,8.2-9,12.5-0.9,1.3-1.9,2.3-1.8,4.3,1.8-.1,2.9-0.9,4.4-1.2-0.5.7-1.5,0.7-2,1.4a10.6,10.6,0,0,0,6.7-1.6,46.4,46.4,0,0,0,5.3-3.1c1.6-3.3,3.5-7.3,2.9-12.3A8.8,8.8,0,0,0,76,17.3a14.7,14.7,0,0,0-1.2,1.8,17.5,17.5,0,0,0-.6,1.8,23.4,23.4,0,0,1-1.4,3.4c-0.3.5-.5,1.1-0.8,1.6s-2.3,1.8-3.3,2.5a2.6,2.6,0,0,1-1.2.6l3.9-3a27.3,27.3,0,0,0,3.6-14.9h0l-2.2,2.3M65.9,33.2a2.6,2.6,0,0,1,.5,1.2,2.1,2.1,0,0,1,.8,2.5c2.2,0.7,3.7,1.6,4.2,3.8,0.1,0.3,0,.7.1,1.1a11.9,11.9,0,0,0,.7,1.2,6.3,6.3,0,0,1,.4,2.7,10.1,10.1,0,0,1-.5,1.9,12.5,12.5,0,0,1-.6,2.1,8.4,8.4,0,0,1-1,1.8A4.4,4.4,0,0,1,68,53.1c-2.2.3-3.4-1.3-3.9-2.7s-0.2-1.4-.4-2.1-0.4-.8-0.6-1.3-0.1-1-.3-1.5a8.4,8.4,0,0,0-.9-1.2,6.2,6.2,0,0,1-.6-1.4,4.5,4.5,0,0,0-.9.1,2.6,2.6,0,0,1-1.6-1c-1.3.5-1.9-.6-2.4-1.4s-1.4-1-1.8-1.8c-2.4,1.7-5.6,2.6-8.8,3.6a20.7,20.7,0,0,1-1.1-3.2,8.8,8.8,0,0,0-.3-1.2c-0.2-.4-0.7-0.6-0.9-1.1A2,2,0,0,1,44.6,34a7.7,7.7,0,0,1,1.8-2.9,8.5,8.5,0,0,0-2.4-2.6,4.3,4.3,0,0,0-1.4-.8,2.1,2.1,0,0,0-1.1.6A10.8,10.8,0,0,0,40.3,30c-0.3.5-.8,1.7-1.2,1.8s-0.9-1.1-.6-1.8a5.1,5.1,0,0,1,2.5-2.7,3.8,3.8,0,0,1,1.6-.7,5.6,5.6,0,0,1,2.8,1.5,10.1,10.1,0,0,1,1.9,2.5,8.4,8.4,0,0,1,3.7-1c-0.1-2.3-.2-4.2-1-5.7A1.8,1.8,0,0,0,49,23a2.4,2.4,0,0,0-1.2.5,7.1,7.1,0,0,0-1.8,1.7,2.5,2.5,0,0,1-.8.9,0.9,0.9,0,0,1-.8-0.4c-0.3-.7.5-1.9,1.1-2.4a7,7,0,0,1,1.5-1.1,3.7,3.7,0,0,1,2.5-.5c1,0.4,1.6,2.3,1.8,3.4a22,22,0,0,1,.6,4.6c2.4,0.7,4.4,2.3,4.3,5.5a5.4,5.4,0,0,1-1,2.9c1.3-.6,1.7-4,0.7-5.5s0.2-.4.2-0.6a5.2,5.2,0,0,0-.3-1.2l-0.3-1.2c-0.2-.8-0.5-1.6-0.6-2.3s-0.2-2.8-.2-4.3a44.8,44.8,0,0,1,.4-8.5,7.9,7.9,0,0,1,1-3.5,3.9,3.9,0,0,1,1.3,1.8c0.3,0.7.7,1.4,1,2.2a9.6,9.6,0,0,1,1-2.5,4.1,4.1,0,0,1,1.6,2.3c1.3,3.1,1.4,8.1.8,12.1,2.1-2.7,4-6,6.3-8.8A61.6,61.6,0,0,1,74.1,11a2.2,2.2,0,0,1,1.2-.7c0.3,0.1.4,1.1,0.4,1.7a19.4,19.4,0,0,1-.5,5.6h0l1.1-1.5c0.2-.3.8-1.3,1.2-1.3s0.7,2.3.7,3.3a25,25,0,0,1-2,7.9A8.7,8.7,0,0,1,75,28.4a10.4,10.4,0,0,1-2.1,1.4l-2.2,1.2a18.9,18.9,0,0,1-4.8,2.1" transform="translate(-9.3 -10.3)"/><path class="a" d="M29.7,73.1l1.9,1.2a14.8,14.8,0,0,0,.1-2.5c-0.7.4-1.4,0.8-2,1.3m22,5.3a24.5,24.5,0,0,0,4.3-.9,22.4,22.4,0,0,0-7.3-6,33.1,33.1,0,0,1,3.1,6.8M18.5,58.9a45.9,45.9,0,0,1,5.1.1,18.9,18.9,0,0,0-6-2.6,26.3,26.3,0,0,0,.9,2.5m32.9,0.3A55.4,55.4,0,0,1,58,57.5a5.2,5.2,0,0,0,2.9-1.3c0.9-1.2.5-3.4-.1-4.6s-3.8-3.3-7-3.5a10.3,10.3,0,0,0-4.8,1,20.3,20.3,0,0,0-5.3,3.6c-0.3.2-1.2,1.4-1.6,1.4s-0.7-1.7-.7-2.7S41.3,49,41.2,48a25.3,25.3,0,0,0-1.2-5.8c-1.2-3.2-3.5-6.2-7.5-6.5-2-.1-3.7.5-4.3,1.7s0.2,4.1.8,5.7,1.9,4.5,2.7,6.8a24.3,24.3,0,0,1,1,3.7c-0.6.2-.8-0.2-1-0.6a21.4,21.4,0,0,0-2-3c-2.4-3.1-5.3-6.2-10.7-6.1-3,.1-4.9.8-6.3,2.5S10.5,50,11.4,52s3.1,2.4,5.5,3a25.3,25.3,0,0,1,8.2,3.4,1.4,1.4,0,0,1,1,1.4c-5.8-.1-12.3-0.4-14.7,3.4a6.7,6.7,0,0,0-.7,5,12.7,12.7,0,0,0,1.8,4.1c1.2,1.8,2.4,3.3,4.5,4.3s4.9-.3,6.6-1.5l5-3.5c1.3-.9,2.7-2.1,4.6-1.3a31,31,0,0,1-.1,6.1c-0.1,2-.5,4.2,0,6.1a7.2,7.2,0,0,0,3.3,4.1c2.1,1.2,5.3,1.3,7.9.8s5-1.5,6.1-3.3-0.1-6.4-1-8.2-0.9-2.3-1.5-3.2a8.3,8.3,0,0,1-1.4-3.4c1-.6,1.8.1,2.6,0.6a30.2,30.2,0,0,1,7,5.3c1.2,1.2,2.4,2.9,4.3,3.2a5.5,5.5,0,0,0,4.8-1.4,7.3,7.3,0,0,0,1.1-8.3,9,9,0,0,0-1.4-1.6c-3.7-3.6-9.4-4.9-15.6-5.9,0.1-1.3,1.3-1.6,2.2-1.9m-8.7-7c2.9-2.1,6.2-4.8,11.6-4.5a10.2,10.2,0,0,1,6.1,2,6.4,6.4,0,0,1,2.5,5.6,3.8,3.8,0,0,1-1.4,2.7c-1.2.8-3.2,1-4.8,1.3l-4.8,1.3c5.7,0.9,10.6,2.6,14.2,5.7a7.4,7.4,0,0,1,2.7,3.9,1.9,1.9,0,0,0,.9-0.7,32.6,32.6,0,0,0,8.7-16.9,31.3,31.3,0,0,0,.6-6.3,32.3,32.3,0,0,0-.6-6.2,32.2,32.2,0,0,0-2.7-7.6,12.7,12.7,0,0,1-1.1-2.2,2.7,2.7,0,0,1,.8,1,26.4,26.4,0,0,1,3.9,8.9,34.3,34.3,0,0,1,.3,13.3A32.7,32.7,0,0,1,69.1,72.1,9.3,9.3,0,0,1,62,79.9a4.9,4.9,0,0,1-4.1-.8l-0.6-.4a5.3,5.3,0,0,0-1.2.4l-3.9.8c1.3,5.8-2.6,8.1-7.1,9.1a16.4,16.4,0,0,1-7.2.1A11.2,11.2,0,0,1,33.7,87a6.6,6.6,0,0,1-2.7-3.8c-0.4-2,0-4.3.2-6.3a4.2,4.2,0,0,0,.1-0.9,5.7,5.7,0,0,0-1.6-1L28.3,74l-5.2,3.5a12,12,0,0,1-1.7,1.2c-2.5,1.2-5.9,0-7.4-1.4a17.8,17.8,0,0,1-3.9-6.5,9.9,9.9,0,0,1-.8-4.3c0.3-4.4,3.2-6.6,7.5-7.3-0.3-.9-0.7-2.2-1-3.2C13,55,10,54,10,50.4s2.3-5.2,4.9-6.3c1.2-9.4,5.2-16.3,11.1-21.4S39.7,14.2,50.7,15a6.1,6.1,0,0,1,2.4.6,45.7,45.7,0,0,0-7.6,0,36.7,36.7,0,0,0-6.6,1.5,23.5,23.5,0,0,0-3,1.1l-2.7,1.3a26.9,26.9,0,0,0-4.9,3.2c-5.8,5-10.5,11.4-11.7,20.8,6.2-1,10.3,1.8,13.2,4.9h0.1c-0.7-2.2-2-4.3-2.8-6.5a6.3,6.3,0,0,1-.5-2.6c0.3-3.6,4.2-4.9,7.9-3.9a10.6,10.6,0,0,1,4.8,3.1c2.7,2.9,3.4,7.9,3.5,13.4" transform="translate(-9.3 -10.3)"/><path class="a" d="M50.8,34.9c1.7,1.1,2.5-2.4.4-2a1.1,1.1,0,0,0-.4,2m0.5-2.5c2.2-.3,2.3,2.9,1.1,4.3s-2.2,1.5-3.1,1-0.9-2-.6-3A3.5,3.5,0,0,1,49.8,33a2.8,2.8,0,0,1,1.4-.6" transform="translate(-9.3 -10.3)"/><path class="a" d="M36.1,55.7c-0.2-1.2,1.2.1,0,0" transform="translate(-9.3 -10.3)"/><path class="a" d="M43.4,57.2a0.4,0.4,0,0,1-.6.3,0.3,0.3,0,1,1,.6-0.3" transform="translate(-9.3 -10.3)"/><path class="a" d="M41.9,58H41.7c0-1,1.1.1,0.1,0.1" transform="translate(-9.3 -10.3)"/><path class="a" d="M35.2,58.5a0.5,0.5,0,0,1,0,.7H34.9a0.4,0.4,0,0,1,.3-0.7" transform="translate(-9.3 -10.3)"/><path class="a" d="M34.2,58.8c0,0.3-.1.4-0.3,0.4H33.8a0.3,0.3,0,0,1,.4-0.3" transform="translate(-9.3 -10.3)"/><path class="a" d="M38.9,59.5c-0.1,1-.9-0.4,0,0" transform="translate(-9.3 -10.3)"/><path class="a" d="M39.2,60.3c-0.1-.7.6-0.6,0.6-0.2a0.4,0.4,0,0,1-.6.2" transform="translate(-9.3 -10.3)"/><path class="a" d="M44.6,60.4c-0.1,1.3-1.2-.5,0,0" transform="translate(-9.3 -10.3)"/><path class="a" d="M39.4,62.8a0.3,0.3,0,0,1,.3.4c-0.2.6-1.1-.3-0.3-0.4" transform="translate(-9.3 -10.3)"/><path class="a" d="M35,63.7a0.8,0.8,0,0,1-.8.6c-0.9-.1-0.3-1.6.6-1,0.4-1,1.4.5,0.3,0.4" transform="translate(-9.3 -10.3)"/><path class="a" d="M37.9,63.4c0.3-.1.6,0,0.7,0.3s-1.1,1-1.2.3a0.6,0.6,0,0,1,.5-0.6" transform="translate(-9.3 -10.3)"/><path class="a" d="M35.2,64.7v0.2c-0.9,0,0-1,.1-0.2" transform="translate(-9.3 -10.3)"/><path class="a" d="M38.2,64.5a0.8,0.8,0,0,1,1.1.6c0,0.9-1.7,1-1.7.1a0.7,0.7,0,0,1,.6-0.7" transform="translate(-9.3 -10.3)"/><path class="a" d="M39.5,65.9a0.3,0.3,0,0,1-.1.5c-0.6.2-.5-1,0.1-0.5" transform="translate(-9.3 -10.3)"/><path class="a" d="M37.4,63.3a2.3,2.3,0,0,0-.4,1.4,4.9,4.9,0,0,0,2,2.4,4,4,0,0,0,2.2-.1,3.8,3.8,0,0,0,2.2-2.8c0.1-1.6-.7-2.9-2.2-2.8a5.4,5.4,0,0,0-3.7,1.8m-5.2-.1a10.1,10.1,0,0,0,.5,1.2c0.4,0.8,2.1,1.2,2.7.2a4.2,4.2,0,0,0,.4-2.7,3.3,3.3,0,0,0-2.8-1.6,2,2,0,0,0-.8,2.9m12.4-4.8c-1.2-.1-2.1,1.4-2.5,2.1l0.5,0.2c-0.3-.9,1.1-1,1.2-0.2a0.7,0.7,0,0,1-.6.6,1.8,1.8,0,0,1,.6.6l2.6-1.4a1.8,1.8,0,0,0-1.8-1.9m-4.6,2a4.4,4.4,0,0,0,0-3.9,2.2,2.2,0,0,0-2.9,0c-0.7.7-.5,2.3-0.2,3.3s0.3,1.1.8,1.1c-1.1-.5.6-1.7,0.8-0.5l0.5,0.2a3.3,3.3,0,0,0,.1.5c0.2-.3.6-0.4,0.8-0.7m-5.7-4.2a1.8,1.8,0,0,0-2.4.6c-0.3.7,0.4,1.2,0.7,1.6l0.7,1.1a10.4,10.4,0,0,1,1.8.5,0.8,0.8,0,0,1,.6-0.7,6.2,6.2,0,0,0-1.4-3m10,0a1.7,1.7,0,0,0-2.6-1c-1,.7-0.3,1.7-0.2,3a0.7,0.7,0,0,1,.9.2,4.9,4.9,0,0,1,1.9-1.1,9,9,0,0,0,0-1.2m-8.9-2.6c-0.8.8,0.5,2.5,0.8,3.1a2.4,2.4,0,0,1,2-1.6,4.6,4.6,0,0,0-.2-1.5c-0.7-.3-2-0.6-2.6,0m9,9.8c0,0.5.6,0.4,0.9,0.4l3.4,0.4A18.1,18.1,0,0,1,56.1,67a10.2,10.2,0,0,1,3.2,2.9,21.6,21.6,0,0,0-14.8-5.5,4.3,4.3,0,0,1-3.7,3.9,36.6,36.6,0,0,1,1.6,10.5,1.7,1.7,0,0,1-.3-1.2,53.2,53.2,0,0,0-1.8-9.1H39.7a41.2,41.2,0,0,1,1,6.7,28.9,28.9,0,0,1,.2,7.3,70.3,70.3,0,0,0-1.8-14,3.7,3.7,0,0,1-3.2-2.7c-1,.4-2.6.6-3.4,0a4.3,4.3,0,0,1-1.2-2.1c-5.2.5-9,2.3-12.8,4.2A7.4,7.4,0,0,1,21,66.1a27,27,0,0,1,10-2.9,2.2,2.2,0,0,0,0-.6,29.1,29.1,0,0,0-8.9,2,26.1,26.1,0,0,1-2.4,1.2A8.1,8.1,0,0,1,22,64.2,26.1,26.1,0,0,1,31,62a3,3,0,0,1,1.1-1.8c-0.3-.8-0.9-1.4-1.2-2.2s-0.1-.4-0.1-0.6a6.3,6.3,0,0,0-1.5-1.5A45.3,45.3,0,0,0,24,52.3a24.8,24.8,0,0,0-3.9-2A15.5,15.5,0,0,0,15.5,49a1.6,1.6,0,0,1,1.2,0,19,19,0,0,1,7.4,2.8,40.1,40.1,0,0,1,6.8,4.9c0.2-.3-0.1-0.5-0.3-0.6a37,37,0,0,0-7.3-5.3,21.2,21.2,0,0,1-2.7-1.4,10.1,10.1,0,0,1,3.1,1.2A35,35,0,0,1,31.2,56a3.3,3.3,0,0,1,3.6-.6c-0.4-1.5.3-2.5,1.5-2.7a27.9,27.9,0,0,0-1.1-8,1,1,0,0,1,.4.7,33.3,33.3,0,0,1,1.2,7.2c0.5,0.1.3-.6,0.3-0.8a44.3,44.3,0,0,0-.8-6.7,22.2,22.2,0,0,1,1.2,7.4c1.5,0,2,1.1,2,2.7a2.2,2.2,0,0,1,.9.4c0.5-1.9,4.2-1.6,4.8,0a16.5,16.5,0,0,1,6.5-3.3,23.7,23.7,0,0,0-5.7,3.3,1,1,0,0,0-.6.7,20.2,20.2,0,0,1,10-4.3,36.2,36.2,0,0,0-5.7,2.1,13.6,13.6,0,0,0-4.5,3.3c1.1,0.4,2.3,1.1,2.2,2.4a1.8,1.8,0,0,1-.4,1.1l-0.8.4-0.7.5c-0.4.3-1.3,0.4-1.1,1.2,5.4,0.1,10.2,1.2,13,4.1a22.6,22.6,0,0,0-12.9-3.6" transform="translate(-9.3 -10.3)"/></svg>