<svg xmlns="http://www.w3.org/2000/svg" viewBox="0 0 68.4 67.3"><defs><style>.a{fill:#231f20;}</style></defs><title>services_tourism</title><path class="a" d="M42.8,73.5a4.7,4.7,0,0,0,1.8,0,2.3,2.3,0,0,0-1.8,0m-1.2-.7c0.3,0.6,1.3,0,1.9,0s-1.3,0-1.9,0m-0.7-.9c0,0.9,1.6,0,1.9,0s0-.4-0.2-0.4l-1.7.4m1.6-1.5a9.3,9.3,0,0,0-1.8.5v0.4l1.8-.6V70.3ZM40,71.6a3.5,3.5,0,0,1,.8-2.4c-2.2.8-1.5,5.1,1.3,4.8-0.8-.5-1.9-1.1-2.1-2.3m0.8-1.5,1.7-.6c0-.2.2-0.4,0-0.4s-1.5.3-1.7,1.1M36.5,69c0.6,2.6,1.5,4.9,2.2,7.4,2.5-.7,4.9-1.4,7.2-2.3a0.3,0.3,0,0,1-.1-0.3c-2.1.3-4.5,1.3-6.1,0a3.1,3.1,0,0,1,1.3-5.3,32.2,32.2,0,0,0-4.6.6m4.9,0c0.5-.2,1.6-0.5,1.5-1a4.3,4.3,0,0,0-1.5,1m2.7,0.6a2.9,2.9,0,0,0,4.2,2.5,2.9,2.9,0,0,0,1.1-2.5A2.8,2.8,0,0,0,46.4,67a2.4,2.4,0,0,0-2.2,2.7m-5.4-1.8,3.4-.3c-1-1.9-2.3-3.5-3.4-5.2a52.2,52.2,0,0,0,0,5.5M43,49l-1.9.6,1.3,1.4c0.1,0.1.2,0.4,0.4,0.3s2.6-1.3,2.1-3.1L43,49m4.7-.5L49.6,53c-0.7,1.2-3.4,1.1-4.2.1A13.6,13.6,0,0,0,44,50.9a6.5,6.5,0,0,1-.2,1.5c0.1,0.5,1,1,1.5,1.4s2,0.9,2.1,2A8.3,8.3,0,0,0,51,53.4c-1.1-.1-1.3-1.1-1.8-2s-1.4-3.4-2.1-4.6a3.4,3.4,0,0,0,.6,1.7m-6.9-1.3c-0.1.5,0.3,1,.1,1.8l1.9-.5c-0.3-.7-1-1.3-0.8-2.4-0.2.4-1.1,0.7-1.2,1.1M20,47.2l-3.1,5.1a5.5,5.5,0,0,0-.9,1.9,2.9,2.9,0,0,0,1.5,2.2l0.4-1.2a1,1,0,0,1,.7-0.9,82.5,82.5,0,0,0-2.2,20.1,11.2,11.2,0,0,0,.2,3,71.3,71.3,0,0,0,22.4,3.2,18.5,18.5,0,0,1-.4-2.8l-3.4-.3c-1-2.4-1.8-5-2.5-7.6,0.1-.3.5-0.2,0.6-0.5-1.9-3.4-4-6.7-5.6-10.4a25.7,25.7,0,0,1-2.3-13.5h0A24.7,24.7,0,0,0,20,47.2m32.6-2.1a1.8,1.8,0,0,1,.7,1.9c-0.2,1-1.2,2.4-1.5,3.1s-1.4-1.4-2.5-1.4a9.8,9.8,0,0,0,.4,2.4A9.6,9.6,0,0,0,52,52.3c-0.8,2.2-2.7,3.3-4.4,4.5a10.5,10.5,0,0,1-1,5.2l1.5,0.3a4.8,4.8,0,0,0,1.7,0,2.6,2.6,0,0,0,.6-1c1.3-2.5,2.3-5.6,4.2-7.2a14.9,14.9,0,0,0,1-3.8,3.7,3.7,0,0,0,0-1.5,8,8,0,0,0-.9-0.7c-0.6-.7-0.3-2-0.2-3.1H52.6m-9.4.1a12.3,12.3,0,0,1,.6,1.6,1.9,1.9,0,0,1-.9-1c-0.6.4-.1,1.4,0.2,1.6s3.7,0.2,3.9-1.2a1.3,1.3,0,0,0-.9-1.4c0.1,0.4.3,1.3-.1,1.5a4.4,4.4,0,0,0-.7-1.6,2.1,2.1,0,0,1-2.1.6m7.4-1.1a2.9,2.9,0,0,1-2.3.5,5.9,5.9,0,0,1,.5,1.6,2.7,2.7,0,0,1-.9-1.1,1.3,1.3,0,0,0,.2,1.7c1.2,0.9,3.7.2,4-1a1.3,1.3,0,0,0-.9-1.6,2,2,0,0,1-.1,1.5l-0.6-1.6m-5.8,0c0-.4-0.3-0.4-0.5-0.4s0.4,1.3.5,0.4m-9.7.6a12.7,12.7,0,0,0-6.7-1.4c-0.8.1-1,1-1.5,1.5a3.2,3.2,0,0,0-.6.5,5.1,5.1,0,0,0-.2,1.8,22.7,22.7,0,0,0,.6,5.4,42,42,0,0,0,8,16.1,5.6,5.6,0,0,1,2.6-.6c0-2.5.1-4.8,0.3-7-0.3-.4-1.1-0.4-1.4-1a7.4,7.4,0,0,1-.4-2.1,10.6,10.6,0,0,1,.5-4.4,3,3,0,0,1,.9-1.6,12,12,0,0,0,0,7.4A17.8,17.8,0,0,0,40.8,61a21.9,21.9,0,0,0,4.2,1.3,10.5,10.5,0,0,0,1.6-6.5,25.4,25.4,0,0,1-5.9-4.9,13.3,13.3,0,0,0-4.4-3.7c-0.3-.1-1.9-0.5-1.7-1s1.5,0.3,1.7.1A4.1,4.1,0,0,0,35,44.7m14.9-1.2c0.1-.4-0.4-0.5-0.7-0.4s0.6,1.2.7,0.4m-7,.8a1.3,1.3,0,0,1,1.3-.9,6.8,6.8,0,0,1,.9.3c-0.2-1.2-3-.6-2.2.6m7.5-1.2c-0.2-1.3-2.9-.8-2.4.6,0.1-1,1.9-1.1,2.4-.6m-18-2.7c-0.3.2-.4,1.3-0.8,1.2s-0.1-.6-0.2-1.1H30.1a9.5,9.5,0,0,0-.3,1.7,19.6,19.6,0,0,1,5.3,1.4,29.7,29.7,0,0,0,.4-4.2,21.4,21.4,0,0,1-3.2.9m3.7-1c-0.4,2.5,1.2,3.3,2.8,4,0.1-.9.8-1.6,1-2.5a21.2,21.2,0,0,1,.3-2.3,3.8,3.8,0,0,0,1.1-.4,9.6,9.6,0,0,1-.5-1.7A18.3,18.3,0,0,1,36,39.4M29.8,26a1.2,1.2,0,0,0,1.4-.5c-0.3-.6-1.4-0.1-1.4.5M29,25.7c0.8-.1,1.1-0.8,2-0.7s0.6-.5.8-0.7A3.2,3.2,0,0,0,29,25.7m9.3,0.8a9.4,9.4,0,0,0-1.5-1.9,4.6,4.6,0,0,0-3.5-.6c-0.6.2-1.7,0.8-1.5,1.4s1.4,0.1,1.9.3a7,7,0,0,1,3.1,3.4c0.7,1.5.9,3.3,2.1,4.2a8.4,8.4,0,0,0,1.9.8c-2.9.1-3.4-2.3-4.3-4.3s-1.7-3.1-3.1-3.6a3.4,3.4,0,0,0-1.8-.3c-0.3.1-.5,0.4-0.8,0.6l-0.9.2c-1.5,1.6-1.6,4.2-.9,6.6s1.2,3.5-.1,4.4c1-2.2-.7-4.7-0.7-7.1a7,7,0,0,1,.8-3.3c0.2-.4.6-0.6,0.4-1.1-2.4.6-3.6,2.9-3,5.9s1,4.5-.8,4.8c0.8-.9.5-2.9,0-3.9-1.2,1.2-1.3,4.2,0,5.2a5.2,5.2,0,0,0,1.7.7,9.1,9.1,0,0,0,3.1.2c4.5-.3,8.9-1.9,11.3-4.3a7.8,7.8,0,0,0,2-3.6c0.5-2.6-1.4-4-3.8-3.9,0.2,0.6,1,.5,1.4.9-1.5.5-2.2-.7-2.9-1.7M78.1,41.3a29.6,29.6,0,0,0-6-13,31.2,31.2,0,0,0-10.4-8.6,31.6,31.6,0,0,0-15.8-3.3,30.4,30.4,0,0,0-12.8,3.4A31.2,31.2,0,0,0,16.6,51.5c0.9-1.4,1.7-2.9,2.5-4.4a5,5,0,0,1,.9-1.4,5.3,5.3,0,0,1,1.5-.5L26.3,44c0.6-.8.9-1.7,2.3-1.7a10.6,10.6,0,0,0,.4-1.7,7.3,7.3,0,0,1-3.8-1.2,5.4,5.4,0,0,1-1.1-1.6,6,6,0,0,1,.7-5,3.4,3.4,0,0,0,.5-0.7,3.8,3.8,0,0,0-.2-0.9,4.9,4.9,0,0,1,2.5-4.9,6.6,6.6,0,0,1,2.7-2.1,10.5,10.5,0,0,1,2.2-.4l0.9-.3a5.2,5.2,0,0,1,3.6.6,5.6,5.6,0,0,1,1.1,1.2,3.7,3.7,0,0,0,1.1,1.2,10,10,0,0,0,1.4,0,4,4,0,0,1,3.9,4,6.6,6.6,0,0,1-2.3,4.8,4.4,4.4,0,0,0-1.2,1.2c-0.1.8,0.7,1.2,0.7,1.7s-1.1,1-1.3,1.6a3.2,3.2,0,0,0,0,1.3c-0.8.8-.8,2.3-1.3,3.3S37,43.9,36.2,44a2.4,2.4,0,0,0,.6,1.3,3.5,3.5,0,0,1,.5,1.4,18.3,18.3,0,0,1,2.5,1.3,7.3,7.3,0,0,0,.2-1.3,3.1,3.1,0,0,1,1.2-.9,3.9,3.9,0,0,0,1.2-.9c-1.4-2.3,3.1-3.5,3.2-.9,0.8,0,1.1.6,1.5,0.8a1.2,1.2,0,0,1,.4-0.6c-1-1.6,1-2.9,2.4-2.3a1.9,1.9,0,0,1,.9,1.5c0.8,0,1,.8,1.5.9h0.9c0.8,0,2,0,2.3.4s-0.1,1.7.1,2.5,0.5,1,.6,1.5a7.5,7.5,0,0,1-.9,5.3l-0.7,1A23,23,0,0,0,51.9,61c-0.3.9-.6,2.1-1.2,2.3a7.6,7.6,0,0,1-2.2,0H46.4c-0.3.1-.5,0.4-0.8,0.4a6.8,6.8,0,0,1-1.9-.3,49.3,49.3,0,0,1-4.9-1.6,48.6,48.6,0,0,0,3.1,4.5,4.6,4.6,0,0,0,1.2,1.4,4.4,4.4,0,0,0,1.2-.5l1.2-.6a3.6,3.6,0,0,1,4.1,1.7c0.9,1.6.3,4.2-1.2,4.9l-1.8.6a4.6,4.6,0,0,0,.2.8c-2.2,1-4.7,1.8-6.8,2.9,0,0.6.6,0.6,1,.7a29.5,29.5,0,0,0,4.4.6A31.2,31.2,0,0,0,75,62.3a0.6,0.6,0,0,0,.2-0.5C69,62,62,61.9,57,60.4c-0.7-.2-1.7-0.6-1.7-1.2s2-1.1,2.6-1.3a46.5,46.5,0,0,1,10.8-.6,8.5,8.5,0,0,1-2.6.1,47.6,47.6,0,0,0-5.1.4l-2.5.4c-0.6.1-2,.3-2,0.8s0.8,0.6,1.2.8l1.6,0.4a52.2,52.2,0,0,0,11.2,1,51.3,51.3,0,0,0,9-.6,4.2,4.2,0,0,0,2.4-.9,4.1,4.1,0,0,0-2.5-1.2,70.4,70.4,0,0,0-9.1-1.1,1,1,0,0,1-.8-0.2,50.2,50.2,0,0,1,7.4.5c1.9-4.7,2.2-11.2,1.2-16.6m0.4,16.8,2.6,0.6c0.6,0.2,2,.5,2,1.2s-1.9,1.2-2.6,1.3l-3.5.5c-4.7,9-12.1,16-23.9,18.1a34.7,34.7,0,0,1-12.8-.3c-0.2.7,0.7,1.5,0.3,2.2s-2.4.4-3.4,0.4l-3.6-.2C31.2,81.5,29,81.4,27,81a93.9,93.9,0,0,1-10.5-2.8,3,3,0,0,1-1.3-.6A6.8,6.8,0,0,1,15,75a68.2,68.2,0,0,1,1.9-16.6c-0.3-.4-0.7-0.6-1-1a7.1,7.1,0,0,1-.7-1.6,4.6,4.6,0,0,1-.4-1.6,5.5,5.5,0,0,1,.5-1,14,14,0,0,0-.3-1.9,33.3,33.3,0,0,1,1.2-13.6A32.3,32.3,0,0,1,32.2,18.6a31.4,31.4,0,0,1,6.2-2.5,33.6,33.6,0,0,1,7.7-1.2,32,32,0,0,1,16.3,3.5,33.1,33.1,0,0,1,10.8,8.9,32.1,32.1,0,0,1,6.9,22.6,33.1,33.1,0,0,1-1.6,8.2" transform="translate(-14.8 -14.8)"/><path class="a" d="M69.6,48.7a10.8,10.8,0,0,0,2.2-1,10.9,10.9,0,0,0-2.2-1.2c0,0.7-.1,1.4,0,2.1m4-10.7a1,1,0,0,1-.4,1.1,14.4,14.4,0,0,1,2.7.5,16.2,16.2,0,0,1-2.3,3.8c0.5,0.6,1.3.9,1.8,1.6l-1.8.2a13.1,13.1,0,0,0-1.9,0,9.5,9.5,0,0,0-1.1.7,3.5,3.5,0,0,0,1.3.9c0.4,0.3,1.8.8,1.1,1.6a1.3,1.3,0,0,1-.9.1c-0.8.1-1.9,0.8-2.6,0.9a12.9,12.9,0,0,0,0,1.9,3.6,3.6,0,0,1,.3.9,5.6,5.6,0,0,1-.4.8,5.4,5.4,0,0,0,0,.9c-0.1,1.5-.1,3.2-0.1,4.9a5.2,5.2,0,0,1,1.9.4,5.4,5.4,0,0,1-2.5.2,4.8,4.8,0,0,1-1.9-.3,3,3,0,0,1,1.8-.3c0.2-1.5.1-3.6,0.1-5.2a3,3,0,0,0,0-.6c0-.4-0.5-0.7-0.5-1a2.1,2.1,0,0,1,.4-0.7V49.7a27.8,27.8,0,0,0-3.5,1.3,5.3,5.3,0,0,0,.1,2.1c0.2,0.1.7-.2,0.8,0.1s-1,.6-1.4,1a11.7,11.7,0,0,1-1.4-3.7A24.5,24.5,0,0,0,68.9,49c0-.7-0.1-1.4-0.1-2.1a11.9,11.9,0,0,0-1.4.3,4.3,4.3,0,0,1-2-.9c-0.5-.4-0.8-1-1.2-1.3-2.2-.3-3.9-1.4-4-3.3s1-2.8,1.9-3.9L63.3,36c0.5-.6,1.8-1.9,1.4-3.1a1.7,1.7,0,0,0-1.6-1,4.4,4.4,0,0,0-3.6,1.5,5,5,0,0,1,.6-3.6c2.2,0.3,3.1-.9,4.8-1.1s2.6,1.8,2.4,3.6-1.4,3.1-2.3,4.5L63.8,39c-0.5.9-1.5,2.5-.5,3.1s1.5-.7,2.1-1.5a8.3,8.3,0,0,1,1-1.3A16.9,16.9,0,0,1,73.7,38" transform="translate(-14.8 -14.8)"/><path class="a" d="M50.4,44.7a3.6,3.6,0,0,1,.5,1.1l-0.5.3a2.9,2.9,0,0,1-.3-1.4h0.3Z" transform="translate(-14.8 -14.8)"/><path class="a" d="M50.2,46.2H49.6a4.2,4.2,0,0,1-.3-1.3c0.6-.5.7,0.8,0.9,1.2" transform="translate(-14.8 -14.8)"/><path class="a" d="M48.8,44.9a2.2,2.2,0,0,1,.6,1.4,0.8,0.8,0,0,1-.4,0c-0.1-.4-0.6-1.2-0.1-1.4" transform="translate(-14.8 -14.8)"/><path class="a" d="M45.1,45.2c0.5,0,.5.7,0.7,1a0.5,0.5,0,0,1-.4.3,2.2,2.2,0,0,1-.3-1.3" transform="translate(-14.8 -14.8)"/><path class="a" d="M45.2,46.7H44.7c-0.3-.2-0.7-1.6-0.2-1.4s0.5,1,.6,1.3" transform="translate(-14.8 -14.8)"/><path class="a" d="M43.8,45.5a3.3,3.3,0,0,1,.6,1.4H43.9c-0.1-.4-0.7-1.2-0.1-1.4" transform="translate(-14.8 -14.8)"/><path class="a" d="M68.6,58.1a0.9,0.9,0,0,1-.7.2c-1.9.1-4.2,0.1-5.6,0.7a3.9,3.9,0,0,0,2.3.7c3.6,0.5,8.7.7,11.8-.3-1.7-.9-4.7-0.8-6.8-1.2a24.5,24.5,0,0,1,6.2.5c0.6,0.1,1.5.4,1.5,0.8s-1.1.6-1.7,0.7a37.1,37.1,0,0,1-13-.3c-0.6-.1-1.6-0.4-1.6-0.7s1.5-.7,2.1-0.8a32.8,32.8,0,0,1,5.3-.3" transform="translate(-14.8 -14.8)"/><path class="a" d="M47.7,69.7c1.1-1-1.1-2.6-1.8-1.6s0.6,2,1.5,1.8l0.3-.2m-2-2.3c1.7-.4,3.2,1.5,2.7,3.4a2,2,0,0,1-.9,1.4,2.3,2.3,0,0,1-1.7-.3c-1.5-.9-1.7-3.7-0.2-4.4h0.1" transform="translate(-14.8 -14.8)"/><path class="a" d="M37.8,69.4a0.4,0.4,0,0,0,.6.2V69.3a0.4,0.4,0,0,0-.6.1M38.7,70a0.8,0.8,0,0,1-1.4-.1,0.7,0.7,0,1,1,1.4.1" transform="translate(-14.8 -14.8)"/></svg>