<svg xmlns="http://www.w3.org/2000/svg" viewBox="0 0 79 79"><defs><style>.a{fill:#231f20;}</style></defs><title>services_spiritual</title><path class="a" d="M54.7,77.6c0,0.1-.4.2-0.1,0.3a30.8,30.8,0,0,0,9.4-4,13.7,13.7,0,0,1-6.4-2.1,12.8,12.8,0,0,1-2.9,5.8m-14.1.1a12.9,12.9,0,0,1-3-5.9h0A13.7,13.7,0,0,1,31,73.9,33.1,33.1,0,0,0,40.7,78c0.1-.1,0-0.2-0.1-0.3M21.2,64.2a13.7,13.7,0,0,1,2.1-6.5,13.4,13.4,0,0,1-6.2-3,30,30,0,0,0,4.1,9.6m50.5-6.5A13.3,13.3,0,0,1,73.9,64a28.6,28.6,0,0,0,3.9-9.4,13.4,13.4,0,0,1-6,3.1m0-20a12.8,12.8,0,0,1,5.7,2.8,0.5,0.5,0,0,0,.4.2,31.3,31.3,0,0,0-3.9-9.4,13.5,13.5,0,0,1-2.2,6.4M17.1,40.7a13.6,13.6,0,0,1,6.3-3,14.1,14.1,0,0,1-2.2-6.8,31.1,31.1,0,0,0-4.1,9.8M57.6,23.4a13.6,13.6,0,0,1,6.4-2.2,32.7,32.7,0,0,0-9.5-4,14.5,14.5,0,0,1,3,6.2M30.9,21.2a13.6,13.6,0,0,1,6.6,2.2,13.2,13.2,0,0,1,2.6-5.6,1,1,0,0,0,.4-0.6,31.5,31.5,0,0,0-9.6,4.1m33.6,1.2A11.4,11.4,0,0,0,60,24l-1.7,1.3c-0.5.5-1.1,1.3-1.8,1.2s-0.8-1.3-.8-2.4a11,11,0,0,0-2.7-7c-1.9-2.5-3.7-4.9-5.4-7.5h0A45.4,45.4,0,0,1,45,13.4l-2.7,3.5c-1.4,1.9-2.7,3.6-2.9,6.4-0.1.9,0.2,2.3-.2,2.9s-1.9-.4-2.4-0.9a10.7,10.7,0,0,0-6-2.9c-3.4-.5-6.7-0.8-10-1.7,0.8,3.2,1.1,6.6,1.7,10.1a10.6,10.6,0,0,0,2.9,6c0.5,0.5,1.3,1.2,1.2,1.8s-1.1.8-2,.8c-3.7,0-5.6,1.3-7.8,3S12.2,46,9.6,47.7a75.6,75.6,0,0,1,7.3,5.2c1.9,1.5,3.5,2.6,6.4,2.9,1.1,0.1,3.3-.3,3.3.9s-0.8,1.2-1.3,1.7a10.5,10.5,0,0,0-2.9,5.9c-0.6,3.6-.9,6.8-1.7,10.1a99.9,99.9,0,0,1,10.1-1.6,11.1,11.1,0,0,0,6.1-2.9c0.5-.5,1.1-1.3,1.7-1.2s0.8,2.2.9,3.2c0.3,2.9,1.5,4.5,2.9,6.4s3.5,4.6,5.2,7.2a72.5,72.5,0,0,1,4.8-6.8c1.7-2.3,3.3-4.3,3.3-8.3,0-.8,0-1.7.8-1.8s1.2,0.9,1.7,1.3a10.4,10.4,0,0,0,6,2.9,98,98,0,0,1,10,1.7c-0.9-3.2-1.1-6.6-1.7-10.2a11,11,0,0,0-2.9-5.9c-0.5-.5-1.3-1.1-1.2-1.8s1.4-.7,2.5-0.7A11.2,11.2,0,0,0,78,53c2.5-1.9,4.9-3.8,7.5-5.4a68.3,68.3,0,0,1-7.2-5.1,11.8,11.8,0,0,0-6.3-2.9c-1.2-.1-3.4.3-3.4-1s0.8-1.2,1.3-1.7l1.3-1.6c2.5-3.6,1.9-9.9,3.3-14.5-3.4.8-6.7,1.1-9.9,1.6M47.5,8A44,44,0,0,0,53,15.4a32.4,32.4,0,0,1,12.1,4.7,7.5,7.5,0,0,0,1.4.9,9.7,9.7,0,0,0,2.4-.2,30.2,30.2,0,0,0,6.6-1.1,27.5,27.5,0,0,0-1.2,6.6,9.7,9.7,0,0,0-.2,2.4,6.9,6.9,0,0,0,.9,1.5,32.3,32.3,0,0,1,4.4,11.1,6.2,6.2,0,0,0,.2,1,9.4,9.4,0,0,0,1.7,1.5,37.2,37.2,0,0,0,5.6,4c-2.9,1.4-5,3.5-7.3,5.4a32.1,32.1,0,0,1-4.7,12,8.2,8.2,0,0,0-.9,1.4,12.4,12.4,0,0,0,.2,2.4,28.9,28.9,0,0,0,1.2,6.6,28.8,28.8,0,0,0-6.7-1.2,9.3,9.3,0,0,0-2.3-.2A8.1,8.1,0,0,0,65,75a33,33,0,0,1-10,4.2,11.7,11.7,0,0,0-1.9.4,7.2,7.2,0,0,0-1.5,1.7A28.4,28.4,0,0,0,47.6,87a42.2,42.2,0,0,0-5.3-7.2A32,32,0,0,1,29.9,75a7.8,7.8,0,0,0-1.5-.9,10.2,10.2,0,0,0-2.3.2,26.7,26.7,0,0,0-6.5,1.2A35.4,35.4,0,0,0,20.8,69a10.2,10.2,0,0,0,.2-2.3,6.7,6.7,0,0,0-1-1.5,33.3,33.3,0,0,1-4.7-12.1A37.2,37.2,0,0,0,8,47.6a34.8,34.8,0,0,0,6.5-4.7,3.9,3.9,0,0,0,.8-0.7,6.3,6.3,0,0,0,.2-1.1,32.4,32.4,0,0,1,5.5-12.7c-0.3-3-.5-6.3-1.4-8.7a47.6,47.6,0,0,0,8.8,1.3A33.6,33.6,0,0,1,40,15.8a13.5,13.5,0,0,0,2-.4,6.5,6.5,0,0,0,1.5-1.7L45,12a22.4,22.4,0,0,0,2.5-4" transform="translate(-8 -8)"/><path class="a" d="M40,60.4a0.9,0.9,0,0,0-.7.7c2.6-.3,5.2.9,7.6,0.1-2-.4-5.1-0.4-6.9-0.8m18.5-7.8-0.9.6a0.7,0.7,0,0,0-.4.6c0.8,0,2.5-.4,2.8.3-3.7.4-7.2,0.9-9.1,3.1a9.8,9.8,0,0,0,3.5,1.6h1.3l1.2,0.2a5.5,5.5,0,0,0,1.3-.6l1.3-.7c1.5-.8,3.2-1.3,3.6-3-1.1-1.1-3-1.5-4.6-2.2m-22.3,0-2.7,1a4.6,4.6,0,0,0-1.7,1.2c-0.1.5,1,1.6,1.3,1.8,3.2,2.1,7.4,3.4,12.5,3.8a19.4,19.4,0,0,1,2.7.2l1.7,0.6a12.9,12.9,0,0,0,3.1.4c1.6,0,2.9-1,4.6-.8a3.4,3.4,0,0,0-2.5-1.1A11.2,11.2,0,0,1,50.8,58a5,5,0,0,0-1.3-.8,2.7,2.7,0,0,0-1.7.8c0.4,0.2,1.1.1,1.2,0.6s-0.6.1-.8,0.1c-2.2-.5-3.7-1.7-5.3-2.6a15.8,15.8,0,0,0-7.1-1.9A0.9,0.9,0,0,1,35,54c0.4-.7,2-0.3,2.8-0.3s-1-1.3-1.6-1.1m16.5,0.2a29.6,29.6,0,0,1,4.7-.9L56.1,51a4.2,4.2,0,0,1-1.3-.9,6.1,6.1,0,0,1-.3-1.1,23.6,23.6,0,0,0-1.3-2.9c-0.1,2.2-.2,4.5-0.4,6.6M40.3,50.1c-0.8.7-1.9,1.1-2.8,1.8a22.9,22.9,0,0,1,4.7.9c-0.2-2.1-.2-4.5-0.4-6.6a19.1,19.1,0,0,0-1.6,4M45.8,38a2.9,2.9,0,0,0,.8,1l0.9,0.8c0.5-.5,1.5-1.1,1.7-1.8s-0.1-1.2,0-1.9-1.4,1.2-2.4.7-0.6-.6-1-0.8-0.1,1.4,0,1.9m1.5-11.7a1.3,1.3,0,0,0-2.1.8H44.7c-0.7.9-.3,2.6-0.3,3.7H43.5a2.7,2.7,0,0,0,.5,1.9h0.7c0.4,0.6.3,1.5,0.7,2.2a6.6,6.6,0,0,0,1.4,1.2,1.7,1.7,0,0,0,1.8-.5,3.8,3.8,0,0,0,.9-0.8c0.4-.6.3-1.5,0.7-2.1H51a3.6,3.6,0,0,0,.6-1.9c-0.3-.1-0.7.2-1.1,0.1s0.9-4.4-1.2-4.2c-0.1-1.1-1.6-1.1-2.1-.4m2.4-.2c1.9,0,1.6,2.3,1.6,4a1.9,1.9,0,0,1,.9.2c0.1,1.2,0,3-1.4,3a3.4,3.4,0,0,1-1,2.2c0.1,0.4,0,.6,0,1A15.7,15.7,0,0,1,52.3,38a24.6,24.6,0,0,1,2.6,1c0.7,1.6,1.3,3.4,1.9,5a1.6,1.6,0,0,1-.4.3c0.4,0.9.8,1.9,1.3,2.8a9,9,0,0,1,3.5,2.6,4.2,4.2,0,0,0,1.6,1.4,7,7,0,0,0,2.2-.2,34,34,0,0,1,3,1.6c-1,.7-2.2-0.6-2.9-0.7s-1.3.4-2.3,0.1-3.2-3.5-5.8-4.4c-0.4-1-.8-1.9-1.2-2.9l-2.1,1a32,32,0,0,1,1.8,4.2,29.9,29.9,0,0,0,5.6,2.9l1,0.2c0.5,0.2.8,0.8,1.3,1.1s1.5,0.4,2.3.7a19.1,19.1,0,0,1,1.7-1.1c0.6-.3,1.6-0.7,2.1-0.1a0.8,0.8,0,0,1-.7.4l-1.5.8a5.5,5.5,0,0,1-1.4.9,7.5,7.5,0,0,1-2.1-.6c-0.9,2.6-4,3-6,4.5,0.3,0.4.8,0.6,0.6,1.3l-3.5.8-1,.4a12.7,12.7,0,0,1-2.9,0,13.1,13.1,0,0,1-3.1-.7,6.5,6.5,0,0,1-3,.7c-1,0-2.1-.4-3.3-0.5H40.1a2.1,2.1,0,0,1-1.5-.2,1.9,1.9,0,0,1,.6-1.2,37,37,0,0,1-5.7-2.5,4.6,4.6,0,0,1-2.4-2.6,9.6,9.6,0,0,1-2.1.6,4.6,4.6,0,0,1-1.4-.9l-1.5-.8a1.2,1.2,0,0,1-.7-0.3c0.5-.7,1.5-0.2,2.1.1a8.9,8.9,0,0,1,1.7,1.1,9,9,0,0,0,3.1-1.2l0.6-.6,1-.2a38,38,0,0,0,5.6-2.9,24.9,24.9,0,0,1,1.8-4.2l-2.1-1.1c-0.5.9-.9,1.9-1.3,2.9-2.5.9-3.6,3.2-5.8,4.4s-1.5-.2-2.2-0.1-1.8,1.4-3,.7a1.2,1.2,0,0,1,.7-0.5l2.3-1.2a8.2,8.2,0,0,0,2.2.2,4,4,0,0,0,1.7-1.4,8.4,8.4,0,0,1,3.4-2.5,24,24,0,0,0,1.3-2.7c0.1-.2-0.3-0.2-0.3-0.3,0.7-1.7,1.2-3.4,1.9-5.1s1.7-.6,2.5-1a19.4,19.4,0,0,1,2.6-1.4c0-.3.1-0.6,0-0.9a2.1,2.1,0,0,0-.5-0.6,9.3,9.3,0,0,1-.5-1.7c-1.4-.1-1.6-1.8-1.5-3.1a1.2,1.2,0,0,1,.9-0.2c0-1.1-.2-2.4.3-3.1a3.7,3.7,0,0,1,.7-0.5,4,4,0,0,1,1.1-1,1.8,1.8,0,0,1,1.4.2c0.6-.8,2.3-0.8,2.5.4" transform="translate(-8 -8)"/><path class="a" d="M46.8,31.9c-0.1-.6.1-1.6-0.4-1.9a9.9,9.9,0,0,0-1.3.1,2.2,2.2,0,0,1,2.2-.3,6.3,6.3,0,0,1-.5,2.1" transform="translate(-8 -8)"/><path class="a" d="M49.8,30a3,3,0,0,1-1.2,0c0-.6,1.1-0.2,1.2,0" transform="translate(-8 -8)"/><path class="a" d="M45.7,31.3c-0.5-.2.2-1,0.5-0.5s0,0.5-.5.5" transform="translate(-8 -8)"/><path class="a" d="M49.4,30.8a0.4,0.4,0,0,1-.2.5c-0.6.1-.5-1,0.2-0.5" transform="translate(-8 -8)"/><path class="a" d="M48.3,32.7a0.9,0.9,0,0,1-1.6,0h1.6" transform="translate(-8 -8)"/><path class="a" d="M49,34c-0.1.4-.9,0.5-1.5,0.5a1.7,1.7,0,0,1-1.4-.5,5.6,5.6,0,0,0,2.3.1A0.8,0.8,0,0,1,49,34" transform="translate(-8 -8)"/><path class="a" d="M48,35c-0.3.3-1,.5-1.1,0H48" transform="translate(-8 -8)"/></svg>