<svg xmlns="http://www.w3.org/2000/svg" viewBox="0 0 68.8 65.5"><defs><style>.a{fill:#231f20;}</style></defs><title>services_inspiration</title><path class="a" d="M55.9,58.9a6.4,6.4,0,0,0-1.4.7c-1.4.8-2.4,2.1-3.7,3a11.2,11.2,0,0,1-2.9,1.3,19.6,19.6,0,0,1-8,.3,2.5,2.5,0,0,0,.9,1.8,12.3,12.3,0,0,0,5.3,3.4,20.5,20.5,0,0,0,10,1.2,12.5,12.5,0,0,0,3-.9,6.1,6.1,0,0,0,2.4-1.5,5.7,5.7,0,0,0,.6-1.4,23.5,23.5,0,0,0,1.2-4.9l-1.5-.2a16.4,16.4,0,0,1-1.3,4.2,6.3,6.3,0,0,1-2.8,2.2,8.8,8.8,0,0,1-3.9.6c0.6-.2,1.2-0.2,1.8-0.4,3.1-1,4.7-3.6,5.5-7a7.7,7.7,0,0,1-1.8-1.5,34.8,34.8,0,0,0-6.4,3.3c1.5-1.8,3.1-3.5,6.2-3.6a3.4,3.4,0,0,0-.1-0.5,6.7,6.7,0,0,0-3-.2m4.5-3c-0.3,1.3-1,2.9-.3,3.9s2.7,1.2,4,.7c1.9-3,4.1-6,6.1-8.9a0.9,0.9,0,0,0,.2-0.6,9.4,9.4,0,0,1-8-4c-0.5,2.7-1.4,6.1-2,8.9m1.7-11.4a4.1,4.1,0,0,0,.8,1.8,6.6,6.6,0,0,0,1.2,1.5c2,1.8,6.5,3.4,9.2,1.4,0-.3.1-0.5,0.1-0.8a3.8,3.8,0,0,1-2.2.8c-3.2.3-6.9-1.2-8-3.8a8.3,8.3,0,0,1-.4-1.8h0a3.8,3.8,0,0,0-.6,1m2.6-22.9a29.7,29.7,0,0,0-18.4-5.2,35.7,35.7,0,0,0-5.5.7,28.6,28.6,0,0,0-4.6,1.4A31.1,31.1,0,0,0,16.3,46.7,30.9,30.9,0,0,0,35,76.1a29.6,29.6,0,0,0,9.5,2.5,31.4,31.4,0,0,0,30.9-17,31.9,31.9,0,0,0,2.8-20.2,1.1,1.1,0,0,0-.5.6c-0.8,1.3-1.5,2.5-2.5,3.7a5.2,5.2,0,0,0-1,1.5c-0.1.5,0.3,1.3,0.1,1.8a1.9,1.9,0,0,1-.7,1c-0.4.2-.9,0.2-1.3,0.5A6.8,6.8,0,0,0,71.2,52l-1,1.4c-2,2.6-3.7,5.1-5.5,7.8a4.9,4.9,0,0,0-.5.7,12.1,12.1,0,0,0-.2,1.8c-0.3,1.7-.5,3.9-1.2,5.2s-2.9,1.5-4.2,1.9a29.5,29.5,0,0,1-4.6,1.4,35.7,35.7,0,0,1-11.1,0,34.8,34.8,0,0,1-9.1-2.9,22.8,22.8,0,0,1-7.1-4.9,15.8,15.8,0,0,1-4.3-7.6,33,33,0,0,1-.4-11.1,24.4,24.4,0,0,1,3-9.1,22.7,22.7,0,0,1,2.6-3.4,13.2,13.2,0,0,1,3.1-3,19.9,19.9,0,0,1,5.1-1.7,44.7,44.7,0,0,1,15.2-.9,8.3,8.3,0,0,1,2.8.6,6.6,6.6,0,0,1,1.6,1.9,18.7,18.7,0,0,1,3.4,13.7c-0.1,1-.3,2-0.6,3a13.9,13.9,0,0,1-.7,2.9,6.5,6.5,0,0,1-1.9,1.7l-2.1,1.5a20.3,20.3,0,0,1-5,2.1,16.9,16.9,0,0,1-6.4.6,13.5,13.5,0,0,1-5.7-1.5,7.2,7.2,0,0,1-1.8-2.4,16.1,16.1,0,0,1-2.2-6,11.8,11.8,0,0,1-.3-3.7,6.9,6.9,0,0,1,.8-1.9A15.2,15.2,0,0,1,34,38.6,8.6,8.6,0,0,1,36.7,36c1.6-.8,5.3-1.1,7.9-0.9a9.7,9.7,0,0,1,2.6.4,5.4,5.4,0,0,1,1.2.9,7.9,7.9,0,0,1,2.5,4.1,12.7,12.7,0,0,1-.3,5.5,4.6,4.6,0,0,1-1,1.8,8.7,8.7,0,0,1-4.3,1.5,6.6,6.6,0,0,1-3.2-1.4c-0.7-.5-2.1-1.4-2.2-2.3a4.1,4.1,0,0,1,.5-1.6c0.6-1.5,1.5-3,2.8-3.5s4.6,0.5,4.1,2.7A2.1,2.1,0,0,1,45,44.7a1.1,1.1,0,0,1-1.2-.6,1.3,1.3,0,0,1,.5-1.2c0.6,0.1,1.5.5,1.8-.1a1.2,1.2,0,0,0-1-1.4,3,3,0,0,0-2.1,1,3.2,3.2,0,0,0,0,3.4c0.6,0.7,2.5.7,3.6,0.3s2.5-.9,2.8-1.7a3.7,3.7,0,0,0-.6-3,8.2,8.2,0,0,0-2.3-2.3,6.5,6.5,0,0,0-3.3-1.3H43.2a6.6,6.6,0,0,0-3,2.2,11,11,0,0,0-2.6,7.8c0,1.4.3,3.4,1.2,4s2.9,0.6,4.4.5a15,15,0,0,0,5.9-1.7l1.6-1C51.6,49,53,48,53.3,47a15.5,15.5,0,0,0,0-6.6c-0.4-2-1.2-4.2-2.5-5.2s-5-2.2-8.4-2.2-6.5.4-8.7,1.8a6.2,6.2,0,0,0-1.5,1.9,20,20,0,0,0-2.6,7.3,17.1,17.1,0,0,0,1.8,10.8,14.3,14.3,0,0,0,6.9,6.1,16.3,16.3,0,0,0,8,1.7,9.3,9.3,0,0,0,2.9-.4,6.9,6.9,0,0,0,1.5-1.1l2.6-2.5a4.6,4.6,0,0,1,1.5-1.2h1.1L58.9,58c1.1-3.4,1.6-7.2,2.5-10.8a6.5,6.5,0,0,0,.3-1.6,7.6,7.6,0,0,1-.4-1.7c0.1-.6,1.1-0.9,1.3-1.4a13.7,13.7,0,0,0,.6-2.4c0.4-1.7.7-3.2,1.2-4.8s0.6-1.4.9-2.1c1.2-3,2.5-5.5,3.7-8.2a20.9,20.9,0,0,0-4.3-3.5m5,1.9c0.7-1.1,1.2-2.3,1.9-3.5s0.5-1,.8-0.9-0.2,1.2-.3,1.4c-1.5,3.5-3.1,7.2-4.5,10.6a74.3,74.3,0,0,0-4.2,13.1,5.6,5.6,0,0,0,3.7,3.6c1.3,0.4,3.6.8,4.8,0.1s1.1-1.6,1.6-2.4c1.6-2.4,3.2-4.9,4.5-7.4s3-6.2,4.4-9.5l0.3-.7c0.1-.2.3-0.4,0.5-0.3s0.3,0.2.2,0.7a15.1,15.1,0,0,1-.8,2.3c-0.9,2.5-2,4.6-3,7.1a5.9,5.9,0,0,0-.6,1.4,6.2,6.2,0,0,0,.3,1.3,32.2,32.2,0,0,1-2,20.3A31.8,31.8,0,0,1,65.8,74.7a32.8,32.8,0,0,1-30.5,3.2A32.4,32.4,0,0,1,16.6,58.3a33.5,33.5,0,0,1-1.8-11,31.7,31.7,0,0,1,1.9-10.8A32.4,32.4,0,0,1,27.4,21.7a32.1,32.1,0,0,1,13-6.1,37.4,37.4,0,0,1,5.8-.7,31.2,31.2,0,0,1,13.6,2.4,34.2,34.2,0,0,1,9.8,6.2" transform="translate(-14.8 -14.8)"/><path class="a" d="M53.2,57.7a6,6,0,0,1-1.7,2.1,4.7,4.7,0,0,1-2.4,1.5,11.8,11.8,0,0,1-2.9,0c3.3-.2,5.1-2,7-3.6" transform="translate(-14.8 -14.8)"/></svg>