<svg xmlns="http://www.w3.org/2000/svg" viewBox="0 0 81.9 65.4"><defs><style>.a{fill:#231f20;}</style></defs><title>cervices_carbon</title><path class="a" d="M57.4,64.4A15.8,15.8,0,0,0,56,67c1.4,0.2,1.9-.6,2.5-1.2a3.3,3.3,0,0,0,1.1-1.4,12.4,12.4,0,0,1-2.2,0m-21.8-.6a8.3,8.3,0,0,0-1.8-.2l-1.9-.2a6.7,6.7,0,0,0,1,1.1,3.5,3.5,0,0,0,1,.9,18.6,18.6,0,0,0,2.9.1,3.6,3.6,0,0,0-1.1-1.6m14-1.2a0.4,0.4,0,0,0,0,.1c-0.2,2.2-.3,4.4-0.2,6.8A26.2,26.2,0,0,0,52,67.8a3.8,3.8,0,0,0,1.3-1.4,22.2,22.2,0,0,0,1.3-2.3c-1.7-.5-3.3-1.1-5-1.5m-4.3,4.7a12.3,12.3,0,0,0-.8-2.4,21.2,21.2,0,0,1-.8-2.5H43.5l-5.2,1.2a11.7,11.7,0,0,0,1.4,2c0.8,0.7,2,.9,2.8,1.5a16.1,16.1,0,0,0,1.2,1.8A6.2,6.2,0,0,0,45,70.5a30.9,30.9,0,0,0,.2-3.1m2.3-3.1c0.1-.7.1-1.5,0.1-2.3l-1.4-.2a24.6,24.6,0,0,0,1.3,2.4M75.8,52.1a10.9,10.9,0,0,1-1.1,2l-3.6-6.6-1.9,1.1a4.8,4.8,0,0,1,.5,1c0.3,1.2.2,2.9,0.6,4a7.1,7.1,0,0,0,.8,1.2A27.8,27.8,0,0,0,73,57.1a3.9,3.9,0,0,1,.9,1.3,5.3,5.3,0,0,1-1,2,6.1,6.1,0,0,1-1.3,1.8,7.7,7.7,0,0,1-2,.1h-2a14.6,14.6,0,0,0-2.1,1,20.6,20.6,0,0,0-2.3.9A8.2,8.2,0,0,0,62,65.4l-2.4,2.4a6.3,6.3,0,0,1-1.2,1.2c-1,.5-2,0.6-3.2,1.1s-1.4,2-2.1,3.1a2.3,2.3,0,0,0-.6,1l6.2,1.2a9.3,9.3,0,0,0,2.1.4,7.7,7.7,0,0,0,2-1,30.2,30.2,0,0,0,11-10.2,30.5,30.5,0,0,0,5.1-19h0l-3,6.5M16.5,45a32.4,32.4,0,0,0,1,11A31,31,0,0,0,32.3,74.7a8,8,0,0,0,2,1,9,9,0,0,0,1.9-.3l5.8-1.1A29.1,29.1,0,0,0,40,69.7a4.3,4.3,0,0,0-.9-1.3,7.8,7.8,0,0,0-1.7-.3c-1.7-.3-3.4-0.7-5.1-0.8s-1.9-2.6-3-3.7a12.1,12.1,0,0,1-3.7.3A35.8,35.8,0,0,1,22,59.5a7.3,7.3,0,0,1-1-1.7,6.2,6.2,0,0,1,.4-1.8,9,9,0,0,0,.5-1.7,4.2,4.2,0,0,0-.7-1.2,6.5,6.5,0,0,1-.8-1.2c0.7-1,1.6-1.9,2.4-2.9a37.6,37.6,0,0,1-6.3-4.3h0ZM56.1,29.2a29.8,29.8,0,0,0-4.4-1.4,3.7,3.7,0,0,0-1.8-.2c-1.1.7-2.3,1.9-3.4,2.7L44.2,30a13.2,13.2,0,0,0-2.4,0,4.8,4.8,0,0,0-1.3.6c-1.3.7-2.7,1.4-3.7,2.1a8.9,8.9,0,0,0-.8,1.6,17.9,17.9,0,0,0,2.9,1.2,15.4,15.4,0,0,1,2.6-1.7c0.3-.1.7-0.5,1-0.2a1.8,1.8,0,0,1-.9.6A5.1,5.1,0,0,0,40,35.8a15.2,15.2,0,0,0-.2,3.2,31.6,31.6,0,0,0-4.1,2.7A26.1,26.1,0,0,0,34,48.5a38.2,38.2,0,0,0-5,1.8,13.3,13.3,0,0,0-2.5,1.9,1.4,1.4,0,0,1-.9.6,7.9,7.9,0,0,1,.9-1.9l-2.3-.9A12.2,12.2,0,0,0,22,52.3c0.1,0.6,1,1.1,1.1,1.7a4.1,4.1,0,0,1-.2.9,25.9,25.9,0,0,0-.6,2.9c1.3,1.3,2.2,3,3.5,4.3l4.1-.6,1.4-.2,2,0.2,2,0.2c3.6,0.5,6.6-.6,9.7-1.1a9.8,9.8,0,0,1,1.9-.3l1.1,0.3,5.6,1.5a11.4,11.4,0,0,0,2.3.6c0.6,0,1.1-.2,1.5-0.2s1.8,0.2,2.7.2a14.9,14.9,0,0,0,5.9-1.5,3.8,3.8,0,0,1,1-.5,9.4,9.4,0,0,1,1.6.1h1.8a4.1,4.1,0,0,0,1.2-1.2,2.9,2.9,0,0,0,.9-1.4,3.6,3.6,0,0,0-.8-1,17.4,17.4,0,0,1-2.6-2.8,8.6,8.6,0,0,1-.7-2.6c-0.2-.9-0.1-2-0.8-2.6s-2.2.8-3.2,1.4,1,1.6,1.4,2.5H65c-0.9-1.1-1.7-2.4-2.8-3.6a13.7,13.7,0,0,0-3.1-3.3,7.6,7.6,0,0,0-2.1-.5c-0.5-.1-1.6-0.2-1.8-0.7a7.3,7.3,0,0,1,.1-1.8c0.1-2.2-.2-3.4-1.2-4.5a14.4,14.4,0,0,0,.8-1.7,5.7,5.7,0,0,0,.8-1.7,7.2,7.2,0,0,0-.5-2l-0.2-1.1c0-.3-0.3-0.8.1-0.9s0.6,1.4,1.1,1.9l2.2-.7a35.3,35.3,0,0,0-2.4-3.5m8.2,2.3a21,21,0,0,1-7.4,3.7,7.1,7.1,0,0,1-.6,2.6,6.3,6.3,0,0,0-.5,1.6,3.9,3.9,0,0,0,.5.9,5.6,5.6,0,0,1,.4,1,28.9,28.9,0,0,1,.1,3.1c1.5,0.4,3.3.2,4.3,0.9A6.4,6.4,0,0,1,62.4,47a9.1,9.1,0,0,0,1.2,1.9,46.2,46.2,0,0,0,8.2-3.6c1,1.9,2,3.8,3,5.5,3.5-7.7,7.1-15.4,10.6-23.2-8.2-.9-16.5-2-24.6-2.8l3.5,6.5M7.7,32.7a62.5,62.5,0,0,0,8.4,9.8,30.4,30.4,0,0,0,11.2,7.1,15.9,15.9,0,0,1,3-1.2c0.5-.2,2-0.3,2.3-0.7a6.9,6.9,0,0,0,.4-1.6l0.4-1.6a13.8,13.8,0,0,1,1.1-3,8,8,0,0,1,2-1.8l2.2-1.5V37.1c-7.9-2.8-12.7-8.6-16.8-15.1L7.7,32.7M46.3,16.3a30.4,30.4,0,0,0-20.5,8.9,30.3,30.3,0,0,0,8.6,7.9l1-1.3,4.8-2.3a7.3,7.3,0,0,1,1.6-.7,7.5,7.5,0,0,1,1.9.1,7.4,7.4,0,0,0,1.8.2,3.6,3.6,0,0,0,1.1-.7L48.7,27a3.6,3.6,0,0,1,1.1-.7,6.5,6.5,0,0,1,1.8.5l3.6,1.1,1.7,0.6a4.4,4.4,0,0,1,.8.8L60.1,32a12.2,12.2,0,0,0,2-1.1l-3.1-5.8a6.4,6.4,0,0,1-.9-1.9c3.4,0.2,6.8.7,10.1,1.1a30,30,0,0,0-22-7.9m41.2,10c-0.5,1.4-1.2,2.8-1.8,4.1L81,40.7a9.8,9.8,0,0,0-.9,2,10.5,10.5,0,0,0,.2,2,33.4,33.4,0,0,1-1.7,13.4,32.6,32.6,0,0,1-6.4,11,31.7,31.7,0,0,1-9.9,7.6,32.9,32.9,0,0,1-14.1,3.4,31.8,31.8,0,0,1-14.4-3.1,33.5,33.5,0,0,1-10.1-7.4A31,31,0,0,1,17,58.9a33.9,33.9,0,0,1-1.9-14.2,5.4,5.4,0,0,0,.1-1A5.1,5.1,0,0,0,14,42.3a77.4,77.4,0,0,1-8.3-9.7c5.4-4.3,11.1-8.5,16.6-12.8,0.9,1.3,1.7,2.8,2.6,4.1,5.4-4.8,11.9-8.7,21.5-9.1a31.5,31.5,0,0,1,20.1,5.8,30.5,30.5,0,0,1,3.6,2.9,5.4,5.4,0,0,0,1.1,1,12.2,12.2,0,0,0,2.1.2l14.4,1.6" transform="translate(-5.6 -14.8)"/><path class="a" d="M22.1,34.4l-1.7-1.1c0.6-.5,1.3-2.2,0-2.4H19.6a7.8,7.8,0,0,0-2.2,1.6c-0.7.7-1.5,1.6-1.5,2.3s2.1,0.8,2.6,0a16.3,16.3,0,0,1,1.5,1.5,3.9,3.9,0,0,1-2.4,1.2,3.7,3.7,0,0,1-2.9-1.3,3,3,0,0,1-.7-2.7c0.5-2,3.6-4.6,5.7-4.6a3.4,3.4,0,0,1,3.5,2.6,3,3,0,0,1-1.1,2.7" transform="translate(-5.6 -14.8)"/><path class="a" d="M67.2,37.9c0.4,1,.9,2.2,1.8,2.2A1.3,1.3,0,0,0,70,38.5c-0.2-1.3-1.3-4.7-2.7-4.4s-0.6,2.8-.1,3.8m0.3-5.6c1.9-.3,2.9,1.4,3.6,2.7s1.4,4.4.1,5.8a3.2,3.2,0,0,1-3.4,1,5.6,5.6,0,0,1-2.6-3.3c-1-2.6-.6-5.8,2.3-6.2" transform="translate(-5.6 -14.8)"/><path class="a" d="M23.6,37c-0.5.5-1.6,1.4-1.5,2.4a1.2,1.2,0,0,0,1.1,1c1.1,0.1,2.1-1.2,2.6-1.7s1.8-1.7,1.4-2.8a1,1,0,0,0-1.2-.5A5.2,5.2,0,0,0,23.6,37m1.9-3.4A3.1,3.1,0,0,1,28.8,38c-0.7,1.7-2.7,4.1-5,4.2a3.7,3.7,0,0,1-3.5-2.1c-0.8-1.9.9-3.7,1.8-4.6a5.9,5.9,0,0,1,3.4-1.9" transform="translate(-5.6 -14.8)"/><path class="a" d="M74.7,39.3l1.8-1a3.4,3.4,0,0,1,.4.9c-0.9.7-1.9,1.1-2.9,1.8s-0.3-.7-0.5-1a8.6,8.6,0,0,0,1-3.1,1,1,0,0,0-.5-1c-0.8-.2-0.7.8-0.5,1.3l-1.1.3c-1.1-2.8,3.1-3.8,3.1-.9,0,1.2-.6,1.9-0.9,2.8" transform="translate(-5.6 -14.8)"/><path class="a" d="M25.8,44.8L27.8,46a3.2,3.2,0,0,1-.7.7l-3.1-2,0.7-.8c1.3,0,3.2,0,3.8-.8a0.8,0.8,0,0,0,.2-0.4c0-.9-1.2-0.4-1.5,0l-0.7-.8c1.3-2,4.7.4,2.9,2.1s-2,.7-3.6.7" transform="translate(-5.6 -14.8)"/></svg>