<svg xmlns="http://www.w3.org/2000/svg" viewBox="0 0 76.6 66.2"><defs><style>.a{fill:#231f20;}</style></defs><title>services_habitat</title><path class="a" d="M74.9,16.1a3.9,3.9,0,0,1-1.5,1.3c-1.7,1-3.9,1.7-5.8,2.7,0.6,0.2,1.6,0,2.2.2s-0.9,2.1-1.7,2.8l-2.6,2.1c0.6,0.2,1.7,0,2.1.3-0.7,2.2-2.8,3.1-4.4,4.5a12.9,12.9,0,0,1,1.7.3,1.4,1.4,0,0,1-.6,1.1,13.1,13.1,0,0,1-3.9,1.6,1.7,1.7,0,0,1,.7.8c0,0.8-1,1-1.7,1.2a13.6,13.6,0,0,1-4.9.9,8.6,8.6,0,0,1-2.6-.3c2.1-1.6,4.3-3.1,5.4-5.5A30,30,0,0,0,59.2,24a6.7,6.7,0,0,1,.9-2.7c1.3-1.6,3.6-2.7,5.8-3.6a22.1,22.1,0,0,1,9-1.7" transform="translate(-4.8 -14)"/><path class="a" d="M43.7,37a7.5,7.5,0,0,0-.9,4.1,8.1,8.1,0,0,1-2.7-3c-0.5.4-1.8-.4-1.2-1.2a0.8,0.8,0,0,1,1.1,0,8.8,8.8,0,0,1,.9,1.4c0.3,0.4.8,1.2,1.2,1.2s0.7-1.8.8-2.1,0.9-1.9,1.7-2a0.9,0.9,0,0,1,1.2.8,1.3,1.3,0,0,1-1.9.9" transform="translate(-4.8 -14)"/><path class="a" d="M48.8,70.6a5.9,5.9,0,0,0,3,.9H53l0.6,0.4a7.4,7.4,0,0,0,4.1.3,8.1,8.1,0,0,0,4.6,1.6,4.3,4.3,0,0,1,1.6.1,2.5,2.5,0,0,1-1.8.6,5.4,5.4,0,0,1-4.7-1.7c-1.5.7-4,.4-4.7-0.9s-3.6-.2-4-1.4" transform="translate(-4.8 -14)"/><path class="a" d="M44.9,72.5a2.9,2.9,0,0,0,1.8.4c0.5,1.3,1.8,1.7,3.5,1.8-1.5.9-3.5,0.2-3.8-1.3a2.2,2.2,0,0,1-1.6-.8" transform="translate(-4.8 -14)"/><path class="a" d="M57,77.1c-1.1.5-3,.4-3.5-0.6l1-.5A4.4,4.4,0,0,0,57,77.1" transform="translate(-4.8 -14)"/><path class="a" d="M36.3,73.3c-1.7-1.8-5.8-3.7-8.6-1.8A31,31,0,0,0,38,77.1a7.5,7.5,0,0,0-1.7-3.7M45.5,61c-0.5-1.3-2.6-1.8-3.9-1a7.5,7.5,0,0,1,.2,3.6,1.6,1.6,0,0,1,1,.4,1.2,1.2,0,0,1-.4.2v0.9h1.2a4,4,0,0,1,0-1.3A2,2,0,0,0,45.5,61M72,60c-1.1,1.7-.6,4.6,1,5.4a30,30,0,0,0,3.8-7.3A4.9,4.9,0,0,0,72,60m-1.2,1a6.4,6.4,0,0,0,.5-1.2,2.8,2.8,0,0,0-.5-1.2c-1.2-1.8-4.5-.8-4.9,1.1a7,7,0,0,0,0,1.2c-1.4,1.1-1.3,3.6-.1,4.7a3,3,0,0,0,1.1.6,3.2,3.2,0,0,1,1.2.6c0.1,0.3-.3.2-0.3,0.4v2.2a3,3,0,0,0,1.6.1c-0.1-.7-0.1-1.9-0.1-2.7a5,5,0,0,0,2.6-1,4.7,4.7,0,0,1-1-4.8M34.2,63C33,61.4,30,61.2,28,62.1h0a7.1,7.1,0,0,1,3.4-.9c2.8,0,4.1,1.8,4.6,4.2L37,65.6a7.7,7.7,0,0,1-.2,2,3.2,3.2,0,0,0,1.5,0,8,8,0,0,0,.1-2.1,2.9,2.9,0,0,0,2.8-3,4.8,4.8,0,0,0-1.6-4.2l-0.3-.2a4.2,4.2,0,0,0-4.6,1,4.4,4.4,0,0,1-.8.9,7.4,7.4,0,0,1,.9-1.5,2.8,2.8,0,0,0-2.5-.9,0.9,0.9,0,0,1-.5.5,3.6,3.6,0,0,0-2.7-1.6,4.7,4.7,0,0,0-2,.7,4.7,4.7,0,0,0-3.5-1.5,3.4,3.4,0,0,0-1.4.5c0.4,0.1.5,0.7,0.8,0.8h0.7a3.5,3.5,0,0,1,2,1.6c1.3-1.3,4.4-.5,4.7,1-1-.7-3.3-1.5-4.5-0.5a1.5,1.5,0,0,1-.1,1.1,7.4,7.4,0,0,0-1-1.8c-1.1-1.2-3.8-.9-4.6.2a2.9,2.9,0,0,1,1.7-1.5,4.1,4.1,0,0,0-4.3-1.4A30.8,30.8,0,0,0,27.3,71a8,8,0,0,1,6.4-.8c-0.1-1.8-1.1-3.2-2.8-3.3H29.6l-0.7-.3a4.5,4.5,0,0,0-3.3.6c0.5-2,3-1.2,4.9-1.1H31a5.2,5.2,0,0,1,3.6,2.4,5.6,5.6,0,0,0-.4-5.6m40-7a1.3,1.3,0,0,1-.6.6c-0.2,0-.1-0.4-0.1-0.5a2.6,2.6,0,0,0-1.3.1c0,0.3.8,1.1,0.2,1.4a3.8,3.8,0,0,0-4.5-1.9c0.1,0.2.5,0.8,0.1,1a0.8,0.8,0,0,1-.4-0.6A4.9,4.9,0,0,0,66.4,55a2,2,0,0,0-1.5.5,9,9,0,0,0-1.8,2.8,2.3,2.3,0,0,1,.2-1.4c-2.1-1-4.6,0-4.8,2a1.8,1.8,0,0,1,.2-1.5,2.8,2.8,0,0,0-3.1,1.5c-0.3,0,0-.3-0.1-0.5a2.4,2.4,0,0,0-1.8.6c-0.8,1,.3,1.7,1.2,1.9a4.4,4.4,0,0,0,0,.6l0.7,0.2a1.9,1.9,0,0,1-.1-0.9c0.7-.1,1.2.7,2,0.8v1.1a1.9,1.9,0,0,0,.9,0,7.9,7.9,0,0,1-.1-1.1l1.1-.3c0-.2-0.5-0.4-0.3-0.7l0.8,0.5a5.3,5.3,0,0,1,2.9-2,0.8,0.8,0,0,1,.9,0,5.7,5.7,0,0,0-2.3,1.1,5,5,0,0,0-1.7,3.1,3.2,3.2,0,0,0,1.1,2.6c0.7,0.7,2,.5,2.9,1.1s-0.3,1.2-.4,1.8a6.3,6.3,0,0,0,1.6.1,20.1,20.1,0,0,1,0-2l1.1-.2c-0.9-.9-2-1.6-2.1-3a3.1,3.1,0,0,1,.6-2,3.6,3.6,0,0,0,.7-0.7,4.3,4.3,0,0,0,.1-0.8,3.8,3.8,0,0,1,3.6-2.9A3.3,3.3,0,0,1,72,59a5.9,5.9,0,0,1,5.1-1.7,21,21,0,0,0,.7-2.5A5.2,5.2,0,0,0,74.2,56M28.4,49.3a15,15,0,0,0-1.8-1.7,11.6,11.6,0,0,1-1.2-.5A17.2,17.2,0,0,1,23.9,45a59.4,59.4,0,0,1-7.4,4.4,37,37,0,0,0,.8,5.7,4.7,4.7,0,0,1,4.4.7,5.1,5.1,0,0,1,2.9-.6,6,6,0,0,1,2.8,1.4,3.6,3.6,0,0,1,3.8-.2,4.7,4.7,0,0,0,1,.8h0.6a4.2,4.2,0,0,1,2.9,1,5.1,5.1,0,0,1,2.9-.6,3.2,3.2,0,0,1,2.9,2.2,4.4,4.4,0,0,1,3.2-.1l2.1-.6-1.9-.6c-0.6-.2-1.5-0.1-1.7-0.8,1.3-.5,3.3-0.3,4.7-0.7l-0.6-.3,1.7-.2c-0.1-.1-0.5,0-0.5-0.2s1.3,0,1.5.4l-1.8.2L48.9,57c-1.2.3-2.8,0.3-4,.6l4.9,0.8c0.4,0.1,1.3.2,1.4,0.6s-1,.8-1.4.9a5.3,5.3,0,0,0-1.7.6,24.7,24.7,0,0,0,6.3,1.1,3.5,3.5,0,0,1,0-.5,1.8,1.8,0,0,1-1.4-1.2c-0.2-1.3,1.8-2.1,2.9-1.9a2.3,2.3,0,0,1,1.4-1.2c0.6-.2,1.2.1,1.8,0a8.8,8.8,0,0,0,1-.6,5,5,0,0,1,3.6,0c0.7-.7,1.2-1.8,2.3-1.9s1.2,0.9,1.8.9,1-.3,1.5-0.3a3.2,3.2,0,0,1,2.5.8,2.6,2.6,0,0,1,2.3-.3A5.9,5.9,0,0,1,78.1,54a36.6,36.6,0,0,0,.6-6.2l-3.4-2.4-5.6,5c0.3,0.1.7-.2,0.7,0.1A16,16,0,0,1,66.8,52l-1.9.6-2,.5a10.8,10.8,0,0,0-2.1,1.3,1,1,0,0,1,.7,0,21.4,21.4,0,0,1-3.6,1.5,1.5,1.5,0,0,1-1.3.2,0.7,0.7,0,0,1,.5-0.3,20.1,20.1,0,0,0-3.8-.5c-1.1-.2-1.7-0.9-2.5-1.3s-2.3,1-3.6,1.3,0.5,0.3.5,0.7a1.9,1.9,0,0,1-1.2-.2c-2.9-.9-5.3-2.4-8.1-3.4A10.5,10.5,0,0,0,37,51.1c-0.8.5-1.7,0.8-2.5,1.3a3.7,3.7,0,0,1,1.5.9c-3.3-.4-5-2.8-7.6-4.1M49,46.8a4.1,4.1,0,0,1,1.5,0A2.4,2.4,0,0,1,51,48c0.2,0.9.4,1.7,1.1,1.8a0.9,0.9,0,0,1-.3-0.9c0.5,0.4.8,1.3,1.6,1.3a3,3,0,0,1-.7-1.1c-0.1-.3-0.2-0.7.1-0.8s0.8,1,1.2.9a6.1,6.1,0,0,0-.6-1.6c-0.5-.5-1.2-0.7-1.4-1.5a2.2,2.2,0,0,0-1.1-.4,1.6,1.6,0,0,0,0,.4c-0.6-.4-0.8-1.4-1.1-2.2a13.9,13.9,0,0,1-2.7.2c0.4,1,.8,2.5,2,2.6m6,0.1a10.2,10.2,0,0,0,.6,2.1,1.9,1.9,0,0,0,1,.5c0.4,0.2.7,1,1.2,1.1s-0.9-1-.7-1.6,1.4-.1,1.7.3a4.9,4.9,0,0,0-.6-1.2c-0.5-.7-1.5-0.9-2-1.6a8.9,8.9,0,0,1-.6-1.2,21.3,21.3,0,0,0-2.2-3.6,5.2,5.2,0,0,1-2,2,2.7,2.7,0,0,0,1.2,1.2c0.5,0.1,1.2-.2,1.8.1s-0.3,0-.3.2a9.8,9.8,0,0,1,.9,1.8M39.4,34.5c-1,.1-1.6,1.5-1.4,2.7a4.9,4.9,0,0,0,3.1,3.9,4.2,4.2,0,0,0,4.9-1.3c1.4-1.9,1.5-6.8-1.7-6.7-1.6,0-2.4,1-3.2,2.1s-0.9-.8-1.8-0.7m-24.3-.1a3.9,3.9,0,0,1,1.7.1,10.6,10.6,0,0,1-5.7,1.6,4.9,4.9,0,0,0,2,.7,12.3,12.3,0,0,1,2.2,0c-0.9,1.3,2.5.8,3.6,0.8s0,0.4.2,0.4,2.3,0.1,3.3,0-0.1.4,0.1,0.4,1.8,0,2.6,0a0.5,0.5,0,0,0,.2.4c0.8,0.7,4.6.2,5.9,0.2-1.3-.1-2.8,0-3.3-0.8s0.5-.2.3-0.3-2.7,0-3.2-.7a1.3,1.3,0,0,1,.6-0.3,8.1,8.1,0,0,1-2.8-.3,1.2,1.2,0,0,1-1-.8,2.7,2.7,0,0,0,.9-0.2c-1.8,0-3.6.3-4.2-1a1.1,1.1,0,0,1,.9-0.2,20,20,0,0,1,3.8-.2,15.7,15.7,0,0,1,3.2,1.2,30.7,30.7,0,0,0,11.1,2.2,5.6,5.6,0,0,0,0-.9,25.4,25.4,0,0,1-10.8-3,6.6,6.6,0,0,0-3.3-1.3l-2.6.2a81.2,81.2,0,0,1-13.5-.3h0a17.5,17.5,0,0,0,7.9,1.9m57-3.5c0.3,1.6-1.6,1.5-2.9,1.7,0.7,1-.4,1.4-1.2,1.6l-2,.3c-2,2-4.9,3.2-7.8,4.3a1.7,1.7,0,0,1,0,.6c-1.3,1.2-3.9,0-5.4-.3a27.9,27.9,0,0,0,5.3,3.1c0.3,0.2,1.7.8,1.8,1.1s-1.2,1-1.5,1.2l-2,.7c0.3,1.2,1.7,1.5,2.4,2.4a3.1,3.1,0,0,1,.6,2.6,5.1,5.1,0,0,0-1.6-1.3c0.1,0.8.8,1.2,0.8,2a2.1,2.1,0,0,1-1.6-.7,0.6,0.6,0,0,0-.4-0.3c0.1,0.3.5,0.5,0.2,0.8-1.9-.7-1.8-3.3-2.8-4.9l-1.6.2a13.2,13.2,0,0,0,1.2,1.4,4.3,4.3,0,0,1,.4,1.3,3.1,3.1,0,0,1,.3,1.3A13.2,13.2,0,0,1,53,49a5.1,5.1,0,0,0,1,1.6c-1.2.1-2.6-.1-3-1s-0.2-1.7-.7-2.4a2.9,2.9,0,0,1-2.7-.6h-1c-0.2-.8-0.5-1.5-0.7-2.4-3.2-.6-5.8-1.9-7.4-4.1a26.2,26.2,0,0,0-5-.4c-2.3-.1-4.6.2-6.6,0l-1.5-.2L24.7,39a12.1,12.1,0,0,0-1.8,0l-5.2-.4a32.1,32.1,0,0,0-1.2,10c2.9-1,5.2-2.8,7.7-4.3a9.9,9.9,0,0,1,1.2,1l1.4,0.9,0.8,0.8a26.5,26.5,0,0,0,4.3,3.7,6.3,6.3,0,0,0,2.1,1.2,4.3,4.3,0,0,0,1.2-.6,10.1,10.1,0,0,0,1.8-1.2,26.6,26.6,0,0,0,7.9,4.7,5.5,5.5,0,0,0,1.4.5l1.2-.4,2.1-.9a4.3,4.3,0,0,1,1.2-.4l0.8,0.3L56,55.1a5.9,5.9,0,0,0,1.9.4,4.7,4.7,0,0,0,1.2-.6l2.4-1.4a7.3,7.3,0,0,1,1.1-.8h0.6l2.4-.7a10.8,10.8,0,0,0,2.3-.9,14.6,14.6,0,0,0,1.8-1.7l5.6-4.9a18.7,18.7,0,0,1,3.4,2.4,30.4,30.4,0,0,0-5-16.3l-1.5.5M46.2,16.3A31.1,31.1,0,0,0,21.3,30.7a1.2,1.2,0,0,0-.4.7c1.4-.1,2.7-0.6,3.9-0.1a15.9,15.9,0,0,1,2.6,1.6,17.3,17.3,0,0,0,10.2,2.4,5.1,5.1,0,0,1,3.1-3,12.2,12.2,0,0,1,6.8-.3,11.3,11.3,0,0,0,3.5.4,4.1,4.1,0,0,0,2.4-1.8,9.9,9.9,0,0,0,2.1-4.8c0.2-1,.1-2.1.3-3.2a5.2,5.2,0,0,1,1.5-2.3l2-1.8a30.3,30.3,0,0,0-13-2.2m28.3-1.7a27.8,27.8,0,0,0-10.7,2.3A21.5,21.5,0,0,0,58,20.8a7.1,7.1,0,0,0-1.5,1.8,5.8,5.8,0,0,0-.1,1.6c-0.2,3.4-1.1,6.6-3.1,8.4A4.3,4.3,0,0,1,51,33.8l-1.1-.4a9.9,9.9,0,0,0-3.8-.6,4.5,4.5,0,0,1,1.4,1.1c1.1,1.3,1,3.5,1.9,4.9s0.6,0.5.8,0.9l-0.9.4c0.2,0.4.8,0.3,0.9,0.7a3.3,3.3,0,0,1-1.4.6,3.9,3.9,0,0,1,.9.5c-0.4.6-1.7,0.4-2.5,0.5a6.9,6.9,0,0,0,4.8-.1A1.5,1.5,0,0,0,53,40.6,3.3,3.3,0,0,0,51.7,39a1,1,0,0,1-.7-0.3c2.1-.6,4.1.8,6.1,0.2a2.6,2.6,0,0,0,0-.5,18.1,18.1,0,0,0,6.3-3.1,10.8,10.8,0,0,1,1.8-1.4l1.2-.2a2.5,2.5,0,0,0,1.8-1.1,2.2,2.2,0,0,1-.1-0.7c1-.2,2.2-0.2,2.8-0.7a2.7,2.7,0,0,0-.2-0.9l1.9-.6c0.6-.2,1.6-0.4,1.6-1a1.3,1.3,0,0,0-.7-0.7l2.1-1c0.6-.3,1.9-0.7,1.8-1.4s-1.2-.4-1.5-1l1.9-.9c0.3-.2,1.6-0.9,1.5-1.4s-2.1-.3-2.2-1.2,2.6-.9,3-2.2-1.9-.7-2.6-1.2,1-.7,1.6-1.1a2.9,2.9,0,0,0,1.2-1.4,15.8,15.8,0,0,0-5.9-.6m5,3c0.6,0.4,1.5.7,1.6,1.5s-1.1,1.5-1.8,2.1a2,2,0,0,1,1,.8c0.4,1.3-1.5,2.2-2.3,2.7,1.7,1.5-1.5,3-2.8,3.5a1.2,1.2,0,0,1-.3,1.6,32.8,32.8,0,0,1,4.7,23.6,32,32,0,0,1-9.6,17.8,4.2,4.2,0,0,1-1,.8,10,10,0,0,1-2.2-.4c-3.7-.7-6.9-1.2-10.4-2L54.6,69c-0.4-.1-1.5-0.6-1.5-1s2.3-1.1,2.9-1.2a30.1,30.1,0,0,0,3.2-.9,4.1,4.1,0,0,1-.4-1.8c-2.9-.8-6.1-1.4-9-2.2a7.3,7.3,0,0,1-2.7-1c0.7-1,2.5-1,3.6-1.7a5.7,5.7,0,0,0-2.7-.6c-0.2.1,0.2,0.3,0,.4l-2.8.6a14.2,14.2,0,0,1,.8,1.2,5.2,5.2,0,0,1,.4,1.9c1.5,0.8,3.4,1.1,4.9,1.9a2.5,2.5,0,0,1-1.6.6c-3.7.9-7.4,1.5-9.9,3.6-0.7.6-1.3,1.1-1,2.2A8,8,0,0,0,41,74.3a32,32,0,0,0,4.2,3.6,24.2,24.2,0,0,0,3.4,2.1,1.7,1.7,0,0,1-1.1.1c-11.6-.4-19.8-5.4-25.2-12.1a32.3,32.3,0,0,1-6.4-12.8c-1.2-5-1.4-12,.3-17a16.2,16.2,0,0,1-5-1.6c-0.2-.1-1.2-0.7-0.9-1.2s1.3-.1,1.8-0.1a6.1,6.1,0,0,0,1.8-.3c-2.8-.2-5.6-0.7-7.6-1.9a2.4,2.4,0,0,1-1.4-1.8,6.6,6.6,0,0,1,2.4,0,73.8,73.8,0,0,0,11.8.1A32.7,32.7,0,0,1,48.2,14.8a31.9,31.9,0,0,1,12.5,2.8c3.1-2,7.6-3.2,12.8-3.5a31.6,31.6,0,0,1,6.2.3,3.2,3.2,0,0,1,1.6.5c0.3,0.5-.3,1.3-0.6,1.6l-1.2,1.1" transform="translate(-4.8 -14)"/></svg>