<svg xmlns="http://www.w3.org/2000/svg" viewBox="0 0 65.4 72.6"><defs><style>.a{fill:#231f20;}</style></defs><title>services_genetic</title><path class="a" d="M49.3,76.7H45.5c-0.8.1-1.5,1-2.2,1.2l7.1-.6a1.2,1.2,0,0,0,.1-0.6,2,2,0,0,0-1.3-.1M56,77.1c0.4,0,1.4,0,1.3-.5s-0.4-.2-0.7-0.2l-5.7.3a1.9,1.9,0,0,1,.1.8l5-.4m-3.9-2c-0.6-.3-1.8-1-2.2-0.8l-3.6,2.1L54,76l-1.9-1m-6.2-4.3a0.6,0.6,0,0,0,.5.7,2,2,0,0,0,.8-0.5l0.8-.6c-0.7,0-2-.5-2.1.3m-2.6-.2a14.5,14.5,0,0,0,2.4.6c-0.5-.4.2-1,0.1-1.1s-2.8-.9-2.5.4m-4.8-4.4c2.7,2,6.4,2.8,9.9,4l3.9-3a0.7,0.7,0,0,0,.4-0.5l-14.3-.7c0,0.1,0,.1,0,0.1m7.9-.3,7.1,0.3,0.6-.5a0.7,0.7,0,0,0,.4-0.5H46.4a0.8,0.8,0,0,0-.1.8m-6.9-.8a1,1,0,0,0-.6.6L45.9,66a3.9,3.9,0,0,1,0-.8H39.4m8.9-3.5a19.6,19.6,0,0,0-3.1,0,5.3,5.3,0,0,0-1.3.7,25.4,25.4,0,0,0-3.5,2.1s-0.3.1-.2,0.2H55a37.9,37.9,0,0,0,3.1-3,0.6,0.6,0,0,0,.3-0.4l-10.2.2m1.2-1.4H47.8a10.2,10.2,0,0,0-1.7.9h6.4a1,1,0,0,0-.1-0.8h-3m3.6,0a1.4,1.4,0,0,1,0,.8h5.9a1.9,1.9,0,0,0,.6-0.8H53m8.4-2A7.4,7.4,0,0,1,60,60.7c-0.8,1-1.8,1.8-2.6,2.7A31,31,0,0,1,54.6,66c-1.9,1.6-3.9,3.3-6,4.8s-4.3,3-6.4,4.3a27.6,27.6,0,0,0-3.1,2.3,4.5,4.5,0,0,0-1.9,3.5,1.4,1.4,0,0,0,.7-0.6,40.3,40.3,0,0,1,6.3-4A64.8,64.8,0,0,0,57.7,66.1a11.4,11.4,0,0,0,3.7-8H61.3m-0.5-.7a1.9,1.9,0,0,0-.6-1.4H60l-4.5.4H53.9a6.5,6.5,0,0,0-1.2.8l-3.8,2.3H59.9a5.1,5.1,0,0,0,.9-2.2m-4-2.4c-1.1-.1-1.4.6-2.1,1a9.2,9.2,0,0,0,2.3-.3,0.6,0.6,0,0,0-.2-0.7m0.4,0a1,1,0,0,1,0,.8l3.5-.3a0.6,0.6,0,0,0,0-.6c-1.1-.1-2.3.1-3.5,0m0.3-1.2-0.8.7a10,10,0,0,0,1.9-.1l-1.1-.6m-1.2-4.2a10.6,10.6,0,0,0,1.6-1.3,0.7,0.7,0,0,0,.3-0.5H53c1.2,0.5,2.1,1.3,3.3,1.8m-5.5-2.9c-0.8.1-2-.3-2.2,0.5a0.5,0.5,0,0,0,.5.2,12.7,12.7,0,0,0,2.1,0h2.5a0.7,0.7,0,0,1,0-.7H50.8m6-.2c-0.8,0-2.8-.1-2.9.4s1.6,0.4,2.2.4h2.5l0.7-.8H56.8m2.5,1.3c-2.4,2.8-5.7,4.6-8.9,6.5L44,58.3c-2,1.2-4.5,2.5-5.9,4.4a5,5,0,0,0-.9,3.2c3.4-3.8,8.8-5.9,13.7-8.7a30.8,30.8,0,0,0,6.4-4.8c1.8-1.7,3.9-4.5,3.9-7.8h0a8.9,8.9,0,0,1-1.9,3.3m1.4-3.5a2.9,2.9,0,0,0-1.3-1.1H58.7c-4,.2-9.1,0-12.9.3,1,0.7,2.3,1.3,3.5,2a4.3,4.3,0,0,0,1.2.6,17.1,17.1,0,0,0,2.3-.1l7-.2c0.2-.4,1-1.1.9-1.6M41.7,42.6c-0.1.8,0.9,0.7,1.5,0.7l7.5-.2a3,3,0,0,0,0-.8c-2.9.1-6.1,0.1-8.9,0.3m9.4-.4a3.1,3.1,0,0,0,0,.8l7.9-.2a1.1,1.1,0,0,0,1-.2,0.6,0.6,0,0,0-.1-0.6c-2.9-.3-5.8.1-8.8,0.1M51.7,39l-12.2.3a13.4,13.4,0,0,0,1.8,1.4,6.6,6.6,0,0,0,2,1.3H45c3.7-.2,7.9-0.3,11.4-0.6-1.5-.8-3-1.8-4.7-2.5m-5-.4h6a1,1,0,0,0,.8-0.1c0.3-.7-0.7-0.6-1.2-0.6H46.5a2,2,0,0,1,.2.8m-1.5-.8H37.3a3.8,3.8,0,0,0,.4.9c2.7-.2,5.8,0,8.5-0.2,0.3-.7-0.3-0.8-1-0.8m-7.6-.5H48.8a26.6,26.6,0,0,1-3.1-1.8l-1-.6a8.4,8.4,0,0,0-1.8,0H37.5a2.1,2.1,0,0,0,.1,2.6m4.8-2.9h3.2c0.2,0,.7.2,0.8-0.2s-0.7-.4-1.2-0.4l-2.9-.2h0c0.3,0.1,0,.7.1,0.7m-3.8-1.2a6.6,6.6,0,0,0-.8,1h4.1a0.6,0.6,0,0,0,.1-0.6,20.7,20.7,0,0,0-3.4-.5M40,31.9l-1,1,3,0.3a16.5,16.5,0,0,0-2-1.3m-2.9-5.4a15.5,15.5,0,0,0,1.7,1.7l2.4-1.9-4.1.2m-0.7-1c0,0.2.1,0.3,0,.6a12.2,12.2,0,0,0,2.5-.2,0.6,0.6,0,0,1,0-.7l-2.6.3m3-.3a0.6,0.6,0,0,0,0,.6,17,17,0,0,0,2.6-.1l0.8-.6a1.5,1.5,0,0,0,.6-0.6c-1.3.2-2.8,0.3-4.1,0.6m-3-.1,5.9-.7a15.1,15.1,0,0,0,2-.2,5.6,5.6,0,0,0,1.2-.7l2.9-1.8c0.2-.1.5-0.2,0.4-0.4H37.4a10.7,10.7,0,0,0-1,3.9m8.4-4.4h5.1l1.2-.7H44.7a3.5,3.5,0,0,1,0,.8m-7.2,0h6.8a1.7,1.7,0,0,0,.1-0.8H38a2.2,2.2,0,0,0-.4.9m-2-2A31.3,31.3,0,0,0,21.8,29.8a30.2,30.2,0,0,0-5.5,19.3,30.2,30.2,0,0,0,6.9,18A30.5,30.5,0,0,0,38,77.2l0.8-.6c1.8-1.4,3.8-2.6,5.6-3.8a3.1,3.1,0,0,0,.8-0.6,46.6,46.6,0,0,1-4.6-1.8,8.3,8.3,0,0,1-3.6-2.8,5.2,5.2,0,0,1,.1-4.5c0.7-1.5,2.2-2.5,3.5-3.5a49.3,49.3,0,0,1,4.3-2.7l8.7-5.4A111,111,0,0,1,43,45.2a25.3,25.3,0,0,1-4.7-3.8,9.1,9.1,0,0,1-2.7-5.9,8.2,8.2,0,0,1,2-5.9c-2.4-1.9-3.2-7.2-2.1-10.9H35.5m19.2,3.1c-4.2,2.9-8.8,5.7-12.8,8.6,3.7,2.4,8.1,4.4,12.3,6.6a25.6,25.6,0,0,1,5.7,3.8,5.4,5.4,0,0,1,1.8,3,9.2,9.2,0,0,1-.3,4.3,18.2,18.2,0,0,1-1.9,3.7A7.3,7.3,0,0,1,62,56.7a13.1,13.1,0,0,1-.9,6.6,19.4,19.4,0,0,1-3.8,4.8,50.7,50.7,0,0,1-3.9,3.7c-0.2.2-.6,0.3-0.5,0.5a24.8,24.8,0,0,1,3.3,2,33.6,33.6,0,0,1,2.9,2.4A31.5,31.5,0,0,0,72.8,65.8a30.3,30.3,0,0,0,5.9-18.6,29.7,29.7,0,0,0-6.2-18.3,31,31,0,0,0-14-10.6,16.7,16.7,0,0,1-3.8,3.5M38.2,19.5H48.4a21.8,21.8,0,0,0,3.5,0,4.3,4.3,0,0,0,1.1-.7c1-.7,1.8-1.1,2.6-1.8s0.4-.3.3-0.4l-14.6-1a13.2,13.2,0,0,0-3.1,4m12.5-3.9L56.5,16c0.1-.1.6-0.4,0.4-0.5-2.1-.2-4.2-0.5-6.3-0.6a0.6,0.6,0,0,1,0,.6m-7.9-1.5a3.4,3.4,0,0,0-.9.8l8.3,0.6a0.7,0.7,0,0,0,.1-0.6c-2.4-.4-5-0.5-7.5-0.8M59,14.2c-1.4,2.2-3.7,3.7-5.9,5.2l-6.7,4.3a47.7,47.7,0,0,0-6.5,4.6c-1.9,1.8-4.4,4.6-3.6,8,0.3-2.5,1.6-3.7,3.1-5.1,4.4-4.1,9.9-6.8,14.9-10.3,2.5-1.8,5.4-3.8,5.4-7.9h0a6.1,6.1,0,0,1-.6,1.2M39.6,15.7a22.7,22.7,0,0,1,6.8-5.1H46.3a14.6,14.6,0,0,0-7.9,4.2,11.9,11.9,0,0,0-2.7,8.8,14.4,14.4,0,0,1,3.9-7.9m9.6-5.8a7.9,7.9,0,0,1-1.6.8,24,24,0,0,0-4.3,2.9l14,1.6a8,8,0,0,0,1.8-2.4,4.7,4.7,0,0,1,.4-1.2c0.5,0.1.4,0.8,0.4,1.3a7.9,7.9,0,0,1-.7,4.2c8.9,3.7,15.5,10,18.9,19.4a30.9,30.9,0,0,1,2,10.8A32.7,32.7,0,0,1,59.9,77.8c0.5,1.2,1.6,2.9,1.1,4.5A6.4,6.4,0,0,1,59.9,81a22,22,0,0,0-3.8-3.6L44,78.6H42.3a6.7,6.7,0,0,0-1.4.9l-2.5,1.9a3.5,3.5,0,0,1-1.2,1,1.3,1.3,0,0,1-.6-1.1,5,5,0,0,1,.6-2.8C27.5,75,20.5,68.7,16.9,59.1a32.5,32.5,0,0,1,4.3-31A32.2,32.2,0,0,1,36.4,16.8a12.7,12.7,0,0,1,6.1-5.5,15.5,15.5,0,0,1,6.8-1.4" transform="translate(-14.8 -9.9)"/><path class="a" d="M71.1,49.4A45.4,45.4,0,0,0,73.8,57h0.8c-1-2.5-1.9-5-2.6-7.6H71.1M70.5,28.6h0.1a43.9,43.9,0,0,0-1.2,9.7c1.3-2.1,2-4.7,3.1-7a6.9,6.9,0,0,1-.4,1.8c-0.5,1.7-1.2,3.3-1.9,4.9,1.1-1.3,1.8-3.4,2.8-4.9a21.7,21.7,0,0,1-2.5,5.7,15.9,15.9,0,0,1,6.7.6c-1.3-.1-2.7-0.4-4.2-0.4l-2.8.3a16.8,16.8,0,0,1,3.9,1,1.3,1.3,0,0,1,1,.6A16.3,16.3,0,0,0,69.5,40a22.4,22.4,0,0,0,.9,4.6c0.4,1.5.8,2.9,1.3,4.3a3.3,3.3,0,0,1,.6,0c0.8,2.9,1.8,5.7,2.9,8.4H73.5a54.5,54.5,0,0,1-3-8.3H71c-0.7-2.9-1.5-5.7-2-8.6a1.2,1.2,0,0,0-.6.4A11.7,11.7,0,0,1,64,43a5.3,5.3,0,0,1,1.2-.6,12.7,12.7,0,0,0,3.2-2.2,29.4,29.4,0,0,1-7.6.2,1.4,1.4,0,0,1,1-.1,29.2,29.2,0,0,0,5.4-.5,23.9,23.9,0,0,1-4.4-2.4A12.5,12.5,0,0,1,59.4,34a20.3,20.3,0,0,0,7.7,5.1c-1.2-.9-2.6-2.1-3.8-3.2a3,3,0,0,1-1-1.2,33.9,33.9,0,0,0,5.5,4.2c-1.3-2.6-3-5.2-3.7-8.5a44.7,44.7,0,0,0,3.7,7.5,36.6,36.6,0,0,1-1.5-6.7,1.7,1.7,0,0,1,.3.9,44.4,44.4,0,0,0,2,6.6,46.6,46.6,0,0,1,1.7-10.2" transform="translate(-14.8 -9.9)"/><path class="a" d="M31.5,58.1A6.6,6.6,0,0,0,30,56.7c-0.3-.1-0.7.2-1,0.2a18.2,18.2,0,0,0,4.5,3.7c0.7,0.4,1.7,1.3,2.7.9a41,41,0,0,1-4.8-3.4M22.8,46.7a17.3,17.3,0,0,1-1.6-4.6,4.7,4.7,0,0,1,.6,1.4A19.7,19.7,0,0,0,24,47.7a13,13,0,0,1,0-5.1,39,39,0,0,0,.2,4,21.6,21.6,0,0,1,.7-3.7,2.5,2.5,0,0,1-.1,1.5,21.6,21.6,0,0,0-.2,3.3c0.6-1,.8-2.5,1.4-3.6A16.8,16.8,0,0,1,25,48.3c0.8-.4,1.4-1.4,2.3-2-0.5,1.1-1.5,1.6-2.2,2.4,1-.1,1.9-0.6,2.7-0.7s-0.4.3-.6,0.4a10.5,10.5,0,0,1-2.3.6,15.5,15.5,0,0,0,2,3.9,24.3,24.3,0,0,0,2.5,3.3,3.8,3.8,0,0,1,.8-0.1,1.6,1.6,0,0,1,.6.6c1.7,1.9,4.4,3.4,6.6,4.8a8.9,8.9,0,0,1-1.9.6,4.3,4.3,0,0,1-1.1-.6,23.7,23.7,0,0,1-6.3-5h0.8a31.6,31.6,0,0,1-4.4-7.2c-1.1.7-1.7,1.8-2.7,2.5a6.5,6.5,0,0,1,1.5-2.1,13.9,13.9,0,0,1-5.7.8,1.1,1.1,0,0,1,.6-0.2c1.6-.2,3.3-0.3,4.5-0.9l-2.9-.6c-1-.3-2-0.3-2.3-1.1a16.1,16.1,0,0,0,5.6,1.1,24,24,0,0,1-4.7-2.2,2.9,2.9,0,0,1-1.2-1.1,29.2,29.2,0,0,0,4.5,2.4c-1.1-1.1-3-1.9-3.7-3.6a26.1,26.1,0,0,0,5.3,3.9c-1.3-1.7-2.9-3.5-3.4-6.1a2.1,2.1,0,0,1,.6,1.1,14.5,14.5,0,0,0,2.2,3.5h0.1" transform="translate(-14.8 -9.9)"/><path class="a" d="M32.4,43.2a43.2,43.2,0,0,0,2.7,5,4.7,4.7,0,0,0,1,1.6,1.7,1.7,0,0,0,.8-0.1C36,48,35,46.4,34.2,44.7a12,12,0,0,0-.9-1.7l-0.9.2M32.3,29.8c-0.5,1.4-1.5,2.7-1.7,4.6a10.5,10.5,0,0,0,3.3-4.2,5.2,5.2,0,0,1-1.1,2.4,10.7,10.7,0,0,1-2,2.3l3.5-.8a10,10,0,0,1-3.7,1.3,20.3,20.3,0,0,0,1,3.7,14.2,14.2,0,0,0,1.4,3.3h0.6c1.3,2.5,2.6,5.2,4.1,7.5l-1.8.4a50.8,50.8,0,0,1-4.2-7.6,1.5,1.5,0,0,1,.6-0.1,44.1,44.1,0,0,1-2.2-6.9c-1.6,1-3.1,2.2-5.6,2.2l2.7-.9a9.2,9.2,0,0,0,2.3-1.3c-1.1.4-3.3,1-4.5,0.4a3.2,3.2,0,0,1,1.3-.1,8.8,8.8,0,0,0,3-.7,19.2,19.2,0,0,1-4.9-.3,3.5,3.5,0,0,1-2-.8c0.6,0,1.1.4,1.8,0.5a18.2,18.2,0,0,0,4.5.2,8.3,8.3,0,0,1-3.7-2.4,2,2,0,0,1,.9.6,10.9,10.9,0,0,0,3.1,1.4,15,15,0,0,1-4.8-3.7,26.9,26.9,0,0,0,4.4,3.1,9.8,9.8,0,0,1-3.3-6.9,12.8,12.8,0,0,0,1.9,4.5,11.6,11.6,0,0,1-.9-3c0.8,1.6,1.3,3.5,2.5,4.7a20.2,20.2,0,0,1-1.9-7.3,5.2,5.2,0,0,1,.6,2.1,17.7,17.7,0,0,0,2.4,5.8,14.9,14.9,0,0,1,.3-5.4c0.1,1.3-.2,2.8,0,4.1a17.7,17.7,0,0,1,2.4-5.9c-0.7,2-1.8,4-2,6.7a11,11,0,0,1,1.8-3.3" transform="translate(-14.8 -9.9)"/></svg>