<svg xmlns="http://www.w3.org/2000/svg" viewBox="0 0 71.1 73"><defs><style>.a{fill:#231f20;}</style></defs><title>services_water</title><path class="a" d="M40.2,31.6C39.8,37,41,41.7,41,46.8c0,1.8,0,3.5,0,5.2,0,4,.1,8.6-0.2,12.5-0.1.7-.1,3.5-0.6,3.6a3.5,3.5,0,0,1-1.7-.7,18.6,18.6,0,0,0-5.2-2c1,1.3,3.1,1.9,4.2,3.3a36.5,36.5,0,0,0-5.5,1.4c-1.2-1.3,1.3-1.8,2.4-2l-1.6-1.3c-0.4-.3-1.4-1.1-1.4-1.7s1.9-.7,2.8-0.4a26.2,26.2,0,0,1,5,2.2c0.1-.9.3-1.7,0.3-2.6a10,10,0,0,0,.1-2.8,6.1,6.1,0,0,0-.7-1.1,36.8,36.8,0,0,0-2.3-3.1c-1.2-1.4-2.1-2.9-3.6-3.6a34.4,34.4,0,0,1,2.4,6.5,6.8,6.8,0,0,1,.3,2.7c-0.2,1.3-1.3.8-2.1,0.2l-1.2-.9A31.1,31.1,0,0,0,25.8,58c-1.3-.6-3.6-1.5-5.1-0.6s0.2,1.7.7,2.3a31.1,31.1,0,0,1,2.1,2.9,7.4,7.4,0,0,1,.8,1.7,3,3,0,0,1-1.6.2A27,27,0,0,0,16,66a3.1,3.1,0,0,0-1.8,1c0.7,0.5,2,.4,3.1.6a27.2,27.2,0,0,1,7.6,1.7c0.4,0.2,1.2.4,1.1,0.7a4.4,4.4,0,0,1-1.4.9A6.1,6.1,0,0,0,23.3,72a9,9,0,0,0-1.8,3,3.3,3.3,0,0,0,.6,3.3c1.4,1.2,3.4.6,5.1,0a44,44,0,0,1,7.8-2.5,4.1,4.1,0,0,1,1.8-.2,2.2,2.2,0,0,1,.6,1.3,6.7,6.7,0,0,0,.6,1.3,3.6,3.6,0,0,0,1.9,1.9,2.8,2.8,0,0,0,2.2-.6l2.3-1.3,1.2-.6c0.9-.3,2,0.2,3,0.1a2.8,2.8,0,0,0,2.5-1.5,4.2,4.2,0,0,0-.2-2.2c1.2-.7,3-0.4,4.4-0.1A45.5,45.5,0,0,1,65,76.5c0.8,0.3,2.3,1.1,1.9-.5a4.2,4.2,0,0,0-1.1-1.6,11.7,11.7,0,0,0-3.3-2.1c-0.6-.3-1.3-0.5-1.4-1.2a5.1,5.1,0,0,1,2.8-.9,49.5,49.5,0,0,1,10.7,0A4.7,4.7,0,0,0,72,67.9l-2.5-1.1a22.8,22.8,0,0,0-4.5-.9,4,4,0,0,1-1.6-.3c-0.2-.4.8-1,1.1-1.2a12.5,12.5,0,0,1,3.1-1.8,9.1,9.1,0,0,0,1.7-.8,12.7,12.7,0,0,0-5.6.6,39.9,39.9,0,0,0-4.9,1.7,8,8,0,0,1,2.4-5.9,7.5,7.5,0,0,0,1.3-1.4,14.3,14.3,0,0,0-6.4,2.9,34.5,34.5,0,0,0-4.3,3.8,0.9,0.9,0,0,1-.6.5c0-1.4.8-4.6-.4-5.3a7.6,7.6,0,0,0-3.6.9,11.1,11.1,0,0,0-2.8,1.8,21.6,21.6,0,0,1,0,2.2c0.3-.2.6-0.7,1-1a4.2,4.2,0,0,1,2.6-1.1c1.3,0.2.4,1.9,0.1,2.6s-0.5,1.2-.7,1.9a20.9,20.9,0,0,1,2.5.3,1.3,1.3,0,0,1,1.1,1c0,0.8-.9,1-1.6,1.2l-2.8.7a7,7,0,0,1-1.4.4c-0.4,0-1.2-.3-1.1-0.7s0.9-.3,1.3-0.5l1.4-.4a12.3,12.3,0,0,0,2.8-.8c-0.8-.9-2.9-0.3-4-0.4,0.5-1.8,1.7-2.9,2-4.8a1.3,1.3,0,0,0-1,.4,11.2,11.2,0,0,0-2.5,4,1,1,0,0,1-.9.8,2,2,0,0,1-.1-1.4c0-2.9-.1-5.8-0.1-8.6s0-5.9,0-8.9c0-5.8,1.3-11.1,1.2-16.8a9.6,9.6,0,0,0-4.2-.1M60.6,21.2a4.1,4.1,0,0,1,1.2.9,5.4,5.4,0,0,1,0,1.2c0,1.3.1,2.6,0,3.8s-1.9,1.3-2.7,2.1a20.7,20.7,0,0,0,2.3,0,5.5,5.5,0,0,0,1.3-.9,4.4,4.4,0,0,0,1.3-1A6.6,6.6,0,0,0,64,26c0-.5,0-1,0-1.4A9.8,9.8,0,0,0,64,22a3.1,3.1,0,0,0-1.2-.7,5.3,5.3,0,0,0-3.6-1l1.3,0.9m3.9,0.3c1.4,2.2.7,6.1-1.1,7.5l-1.3.7c3.5,1.1,5.8-1.5,6-4.3s-0.8-4.1-2.4-4.8a13.2,13.2,0,0,0-3-.5,4,4,0,0,1,1.8,1.4M49.2,16.8c-0.2,1-.1,2.3-0.6,3s-3.1-.2-4.7-0.2c-5.1.1-5.1,5.8-5,11.1a10.2,10.2,0,0,1,4-.5c1.5,0.1,3.1.3,2.9,1.8a1.2,1.2,0,0,0,.2-1.1c0-1.1-.1-2.9.2-3.5s1.8,0,2.4.4a7,7,0,0,0,1.8.8,6.6,6.6,0,0,0,4.1-.6,8.3,8.3,0,0,1,3-.6h0.7c1.8-.1,2.6-3.1,1.8-4.9s-1.8-1.4-3.3-1.7a5.1,5.1,0,0,1-2-.4,4.2,4.2,0,0,1-.4-1.8,6.5,6.5,0,0,0-.3-1.8,9.3,9.3,0,0,0-4.7,0m-3.6-5.3a1.1,1.1,0,0,0,0,1.5c1.1,0.1,1.7-.3,2.8-0.2a3.5,3.5,0,0,1-.2-1.7c-1,.1-1.7.3-2.6,0.4m6.8,1.1c0-.3.7-0.4,1.2-0.4l4.4-.3h1.3a1.3,1.3,0,0,0,.1-2.4H58.5c-1.8.1-3.7,0.5-5.4,0.7a2.6,2.6,0,0,0-3.3-.2,2.2,2.2,0,0,0,1,3.6c0,0.5,0,1.2,0,1.6h1.6c0-.8-0.2-1.8.5-2.1a0.6,0.6,0,0,1-.5-0.6m1.2,2.7a6.4,6.4,0,0,1,1.4.7c0.1,1.2.4,2.2,0.6,3.3a3.1,3.1,0,0,0,1.2.3c0.5-.1.7-0.6,1.2-0.6s1.5,0.1,2,0a12.3,12.3,0,0,1,1.2-.4L63.3,19a11.4,11.4,0,0,1,2.4.3A5.1,5.1,0,0,1,68,21.5a7.4,7.4,0,0,1-1.2,8.4,4.4,4.4,0,0,1-2.7,1.3c-1.6.1-3.6,0-4.2-1s-1.5,0-2.4-.1-0.7-.8-1.2-0.9a9,9,0,0,0-2.6.7,8.2,8.2,0,0,1-2.9.4,7.2,7.2,0,0,1-3.5-1.5c-0.1,1.3-.1,2.7-0.1,4a2.9,2.9,0,0,1-1.4.5c-0.2,4.3-.9,8.4-1.3,12.7s0,9,0,13.6c1.8-.5,4.3-2.4,7-1.9,1.1,0.2,1.5,2.5,1,3.9l2.4-2a14.8,14.8,0,0,1,7.7-3.4c0.6-.1,1.4-0.2,1.6.5a3,3,0,0,1-.8.9,7.4,7.4,0,0,0-2.7,4.7,6.8,6.8,0,0,0,2.7-.6,14.5,14.5,0,0,1,5.9-.9c0.9,0.1,2.2.3,2.2,1.2a1.6,1.6,0,0,1-1.2.9A20.5,20.5,0,0,0,66.1,65a21.4,21.4,0,0,1,5.7,1.5A28.3,28.3,0,0,0,77,57.1a31,31,0,0,0,1.4-12.9,37.3,37.3,0,0,0-3.2-11.4,29.9,29.9,0,0,0-4.1-6.8l-0.8-1.1a1.5,1.5,0,0,1-.6-1.2,1.3,1.3,0,0,1,1.1.7,32.6,32.6,0,0,1,2.4,42.7c1,0.8,2.4,1.7,2.7,3.2a1.7,1.7,0,0,1-.2,1.4c-3.1-.1-7.6-0.8-10.5.2a4.4,4.4,0,0,0,1.2,1,7.7,7.7,0,0,1,1.2,1.2,4.7,4.7,0,0,1,.9,1.8c0.2,1-.4,2.3-1.5,2.3a5.7,5.7,0,0,1-1.7-.6,33.9,33.9,0,0,0-5.1-1.6,54.2,54.2,0,0,0-7.9-1c-0.1.2,0.1,0.9,0,1.5a3.6,3.6,0,0,1-2.2,2.5,4.2,4.2,0,0,1-2.1.1,13,13,0,0,0-2.1-.3,6.3,6.3,0,0,0-1.8.5,19.4,19.4,0,0,0-3,1.4c-0.9.5-1.2,1-2.1,0.5s-2.3-2.8-3.1-4.1c-3.2.4-5.7,1.9-8.7,2.7a9.8,9.8,0,0,1-3.3.6,4,4,0,0,1-3.9-4.5c0.2-2.6,2.1-4.5,3.5-5.9-2.5-.9-5.5-1.1-8.7-1.5-1.1-.1-2.6-0.4-2.2-1.8s1.8-1.4,2.9-1.7a32.1,32.1,0,0,1,3.7-.8,33.5,33.5,0,0,1-4.7-16.9,32.2,32.2,0,0,1,4.7-17A33.2,33.2,0,0,1,30.3,19.4,27.3,27.3,0,0,1,45,15a5.1,5.1,0,0,1,2.4.3,1,1,0,0,1-.9.4l-3.6.4a29.6,29.6,0,0,0-11.6,4.3A32.7,32.7,0,0,0,20.7,31.1a30.8,30.8,0,0,0-4.5,16.7A29.9,29.9,0,0,0,21.2,64h2a9.7,9.7,0,0,0-3-4.2A3.9,3.9,0,0,1,19,58.3c-0.2-1.2,1.2-2,2.1-2.1a9,9,0,0,1,4.1.7,27.4,27.4,0,0,1,6.3,3.4,33,33,0,0,0,2.9,1.9,19.4,19.4,0,0,0-1.9-6.9c-0.3-.7-1.1-2.2-0.2-2.7a1.7,1.7,0,0,1,1.5.2,13.4,13.4,0,0,1,3.3,2.9,27,27,0,0,1,2.6,3.6c0.2-4.5.1-9,.1-13.3s-0.9-8.4-.9-12.7c-0.5-.4-1.4-0.3-1.7-0.9s0-2.2,0-3,0.2-4,.3-6a5.5,5.5,0,0,1,5.3-4.9,46.6,46.6,0,0,1,4.8.3c0.5-1.3.1-3.3,1.9-3.3,0-.5.1-0.9,0-1.5a6.3,6.3,0,0,1-.6-0.4l-3.7.2c-1-.3-1.1-2.1-0.4-2.8l1.7-.4a10.9,10.9,0,0,0,1.8-.4,8.1,8.1,0,0,0,.9-0.9,4,4,0,0,1,3.3-.6,5.2,5.2,0,0,0,1,.5,5.3,5.3,0,0,0,1.3-.2l3.9-.6a2.1,2.1,0,0,1,2.3,2.4,2.1,2.1,0,0,1-1.2,1.7,12.4,12.4,0,0,1-2.8.2H54.2a1.3,1.3,0,0,0-.4.5,2.1,2.1,0,0,0-.4.5c-0.1.4,0.2,0.8,0,1.4" transform="translate(-9 -8.5)"/><path class="a" d="M43.1,34.8c0.6,0,.4-1.5-0.1-1.3s-0.4,1.3.1,1.3m-0.2-1.7c1.2-.3,1.5,3.4-0.4,2.5s-0.5-2.3.4-2.5" transform="translate(-9 -8.5)"/><path class="a" d="M42.2,40.8c0.4-.1.5-1.5-0.2-1.2s-0.3,1.3.2,1.2m-0.5-1.7c1.6-.6,1.6,2.9,0,2.3s-0.7-2,0-2.3" transform="translate(-9 -8.5)"/><path class="a" d="M23.6,50.7a1,1,0,0,0-.6.7,2.1,2.1,0,0,0,1.2.7,7.8,7.8,0,0,0,2.5.5,2.4,2.4,0,0,0-3.2-2m3.9,2.7a4.6,4.6,0,0,1-3.1-.2A6.3,6.3,0,0,1,22,51.9c-0.1-1.4,1.1-1.9,2.1-1.9a3.1,3.1,0,0,1,3.3,3.5" transform="translate(-9 -8.5)"/><path class="a" d="M53.7,52.5c-0.4.7-.5,2,0.6,1.8a2,2,0,0,0,1.3-1.7c0.1-.7-0.1-1.3-0.8-1.1a2.1,2.1,0,0,0-1.1,1m1.2-1.8c1.9-.4,1.9,2.5,1.2,3.6s-3.4,1.4-3.4-.7a3.2,3.2,0,0,1,2.2-2.9" transform="translate(-9 -8.5)"/><path class="a" d="M26.1,62.8c0.1,0.8,2.7,1.1,2.7.2s-1.5-1.1-2.2-.9a0.6,0.6,0,0,0-.5.7m0.5-1.1c1.1-.2,3.2.4,3.1,1.6s-1.3,1.2-2.5,1.1-1.9-.6-1.8-1.6a1.2,1.2,0,0,1,1.2-1.1" transform="translate(-9 -8.5)"/><path class="a" d="M10.5,63.1a1.6,1.6,0,0,0-.6.9,0.7,0.7,0,0,0,.9.4,6.3,6.3,0,0,0,1.5-.7,3.2,3.2,0,0,0,1.5-.8,3.6,3.6,0,0,0-3.3.2m-1,2.1a1.2,1.2,0,0,1-.6-1c0-1.2,1.9-2,3.1-2.1s2.6,0.2,2.6.9a2,2,0,0,1-1,1.1l-2,1.1a3.3,3.3,0,0,1-2.2,0" transform="translate(-9 -8.5)"/><path class="a" d="M36.9,70.9c0.2,1,2.8.7,3.3,0.1s-0.4-1.6-1.5-1.6-2.1.5-1.8,1.5m1.4-1.8c1.2-.2,3.1.4,3,1.7s-5,2.3-5.2.3,1-1.8,2.2-2" transform="translate(-9 -8.5)"/></svg>