<svg xmlns="http://www.w3.org/2000/svg" xmlns:xlink="http://www.w3.org/1999/xlink" viewBox="0 0 710.8 106.8"><defs><style>.a{isolation:isolate;}.b{opacity:0.5;}.b,.e,.i{mix-blend-mode:multiply;}.c{fill:#ed1c24;}.d{fill:url(#a);}.f{fill:url(#b);}.g{mask:url(#c);}.h{fill:#fff;}.i{opacity:0.4;}.j{fill:#4d4d4f;}.k{fill:url(#e);}.l{fill:#231f20;}.m{filter:url(#d);}</style><radialGradient id="a" cx="25.26" cy="25.66" r="29.44" gradientUnits="userSpaceOnUse"><stop offset="0.03" stop-color="#fff"/><stop offset="0.15" stop-color="#fbd2d4"/><stop offset="0.31" stop-color="#f79b9f"/><stop offset="0.47" stop-color="#f36e73"/><stop offset="0.62" stop-color="#f14a51"/><stop offset="0.77" stop-color="#ef3138"/><stop offset="0.9" stop-color="#ed2129"/><stop offset="1" stop-color="#ed1c24"/></radialGradient><radialGradient id="b" cx="83.35" cy="278.44" r="84.67" gradientTransform="translate(-61.6 -252.8) scale(0.99)" gradientUnits="userSpaceOnUse"><stop offset="0.65" stop-color="#fbfbfb"/><stop offset="0.72" stop-color="#f2f2f2"/><stop offset="0.83" stop-color="#d8d9da"/><stop offset="0.97" stop-color="#b0b1b4"/><stop offset="1" stop-color="#a7a9ac"/></radialGradient><filter id="d" x="84.18" y="264.52" width="80.4" height="72.24" filterUnits="userSpaceOnUse" color-interpolation-filters="sRGB"><feFlood flood-color="#fff" result="bg"/><feBlend in="SourceGraphic" in2="bg"/></filter><mask id="c" x="9.14" y="12.88" width="80.4" height="72.24" maskUnits="userSpaceOnUse"><g class="m"><g transform="translate(-75 -251.6)"><image width="1340" height="1204" transform="translate(84.2 264.5) scale(0.06)" xlink:href="unicredit2.png"/></g></g></mask><linearGradient id="e" x1="83.7" y1="328.51" x2="168.08" y2="279.79" gradientUnits="userSpaceOnUse"><stop offset="0.04" stop-color="#48484a"/><stop offset="0.08" stop-color="#8a8c8e"/><stop offset="0.15" stop-color="#48484a"/><stop offset="0.91" stop-color="#48484a"/><stop offset="0.97" stop-color="#8a8c8e"/><stop offset="0.98" stop-color="#737577"/><stop offset="0.99" stop-color="#58585a"/><stop offset="1" stop-color="#4d4d4f"/></linearGradient></defs><title>unicredit</title><g class="a"><image class="b" width="1655" height="1655" transform="scale(0.06)" xlink:href="unicredit1.png"/><circle class="c" cx="47.6" cy="47.2" r="43.6"/><circle class="d" cx="47.6" cy="47.2" r="43.6"/><g class="e"><circle class="f" cx="47.6" cy="47.2" r="43.6"/></g><g class="g"><path class="h" d="M119.5,285.9s5.1-6.5,5.6-7.3,0.7-1.4-.7-2.3-6-3.5-6.9-4.2-0.8-3.3,1.9-3.8,26.1-2.5,35.2-1.5,7.9,3.5,7.9,5.6-3.7,5.1-8.6,9.5c0,0-8.2,7.5-14.2,12.7s-25.1,21.2-28.9,24-18.1,13.5-19.1,14.2-3.6,2.8-5,1.3,0-3.1.7-4.1S117.3,288.5,119.5,285.9Z" transform="translate(-75 -251.6)"/></g><image class="i" width="1382" height="1257" transform="translate(10.7 16.3) scale(0.06)" xlink:href="unicredit3.png"/><path class="h" d="M119.9,286.8s5-6.5,5.5-7.3,0.7-1.4-.7-2.3-5.9-3.5-6.8-4.2-0.7-3.3,1.9-3.8,25.8-2.5,34.9-1.5,7.8,3.5,7.8,5.6-3.6,5.1-8.5,9.5c0,0-8.1,7.5-14,12.7s-24.9,21.1-28.6,24-18,13.5-18.9,14.2-3.5,2.8-4.9,1.3,0-3.1.7-4.1S117.8,289.3,119.9,286.8Z" transform="translate(-75 -251.6)"/><path class="j" d="M119,275.8c0.9,0.7,5.5,3.4,6.8,4.2l0.5,0.3,0.2-.3c0.5-.8.7-1.4-0.7-2.3s-5.9-3.5-6.8-4.2l-1.5-1.2C118,273.8,118.4,275.4,119,275.8Z" transform="translate(-75 -251.6)"/><path class="k" d="M162,270.1a7.6,7.6,0,0,1,.6,3.1c-0.5,2-3.6,5.1-8.5,9.5,0,0-8.1,7.5-14,12.7s-24.9,21.1-28.6,24-18,13.5-18.9,14.2-3.9,1-5.2.9a18.4,18.4,0,0,0,2.1,2.1c1.5,1.4,4-.6,4.9-1.3s15.2-11.3,18.9-14.2,22.6-18.8,28.6-24,14-12.7,14-12.7c4.9-4.4,7.6-6.8,8.1-8.9A5.2,5.2,0,0,0,162,270.1Z" transform="translate(-75 -251.6)"/><path class="h" d="M119.9,286.8s5-6.5,5.5-7.3,0.7-1.4-.7-2.3-5.9-3.5-6.8-4.2-0.7-3.3,1.9-3.8,25.8-2.5,34.9-1.5,8.2,4.2,7.8,5.6-3.6,5.1-8.5,9.5c0,0-8.1,7.5-14,12.7s-24.9,21.1-28.6,24-18,13.5-18.9,14.2-3.5,2.8-4.9,1.3,0-3.1.7-4.1S117.8,289.3,119.9,286.8Z" transform="translate(-75 -251.6)"/><path class="l" d="M664.6,281.9c-15.2,0-24.3,10.5-24.3,28.1s9.3,28,24.3,28,24.3-10.7,24.3-28S679.8,281.9,664.6,281.9Zm0,46.5c-10.8,0-11.7-14.2-11.7-18.6s0.8-19.1,11.7-19.1,12,13.3,12,19.1S675.7,328.5,664.6,328.5Z" transform="translate(-75 -251.6)"/><path class="l" d="M523.7,262.5a12.6,12.6,0,0,0-12.5,12.6v6.8h-5.9v10.7h5.9v31.8c0,8.7,5.4,13.5,15.1,13.5a17.2,17.2,0,0,0,6.7-1.3v-11a12.6,12.6,0,0,1-3.5.7c-3.9,0-5.1-1.1-5.1-4.7V292.6h8.6V281.9h-8.6V262.5h-0.7Z" transform="translate(-75 -251.6)"/><path class="l" d="M480.8,262.5a12.6,12.6,0,0,0-12.6,12.6v8.9a29.6,29.6,0,0,0-7.3-.8c-14.4,0-23.8,11.1-23.8,28.2s9,26.4,25.2,26.5c0.6,0,16.3,0,19.1-.2V262.5h-0.7ZM468.3,329h-5.5c-8.3,0-12.4-6-12.4-18.2,0-8.8,2.3-19.4,13.2-19.4a18.2,18.2,0,0,1,4.6.6V329Z" transform="translate(-75 -251.6)"/><path class="l" d="M433.3,308c0-16.8-8.1-26.1-22.7-26.1s-23.9,10.7-23.9,27.8,9.7,28.2,26,28.2c9,0,15.3-2.1,18.7-4V322.9c-3.4,2.4-8.1,5.4-17.4,5.4s-13-4.5-14.2-13.6l33.4-4.6V308Zm-34.2-2.3c0-9.9,3.6-14.9,11-15.1,3.5-.1,11.1.4,11.6,11.9Z" transform="translate(-75 -251.6)"/><path class="l" d="M360,286.2v51.7h0.7a12.6,12.6,0,0,0,12.6-12.6V292.4c2.8-1.4,8.8-2.5,13.4.8V282.3C373.5,281.1,366.5,283.1,360,286.2Z" transform="translate(-75 -251.6)"/><path class="l" d="M305.2,299.5c0,19.1,11.3,38.5,33,38.5,7.2,0,13.3-1.6,17.2-4.4V320.4c-3.2,4.3-8.4,6-14.2,6-13.2,0-22-14-22-27s8.4-27,22-27c6.9,0,11.2,2.8,14.2,6.7V265.9a32.3,32.3,0,0,0-17.1-4.4C316.6,261.4,305.2,280.6,305.2,299.5Z" transform="translate(-75 -251.6)"/><path class="l" d="M286.9,281.9v56h0.7a12.6,12.6,0,0,0,12.6-12.6V281.9H286.9Z" transform="translate(-75 -251.6)"/><path class="l" d="M286.3,269.2c0,3.6,3.2,6.5,7.2,6.5s7.2-2.9,7.2-6.5-3.2-6.6-7.2-6.6S286.3,265.5,286.3,269.2Z" transform="translate(-75 -251.6)"/><path class="l" d="M231.4,262.5a12.2,12.2,0,0,0-12.2,12.2v41.8c0,6.8-5.8,10.5-11.3,10.5s-11.4-3.9-11.4-10.5v-54h-0.9a12.9,12.9,0,0,0-12.9,12.9v41.2c0,12.1,10.6,21.3,24.6,21.3s24.6-9.2,24.6-21.3V262.5h-0.7Z" transform="translate(-75 -251.6)"/><path class="l" d="M237.7,286v51.9h13.3V292.1a19.3,19.3,0,0,1,7.6-1.3c7.3,0,8.8,4.4,8.8,8.1v26.5a12.6,12.6,0,0,0,12.6,12.5h0.7V298.7c0-6.3-2.8-16.8-21.6-16.8C250.6,281.9,243.4,283.3,237.7,286Z" transform="translate(-75 -251.6)"/><path class="l" d="M487.7,281.9v56h0.7A12.6,12.6,0,0,0,501,325.4V281.9H487.7Z" transform="translate(-75 -251.6)"/><path class="l" d="M487.1,269.2c0,3.6,3.2,6.5,7.2,6.5s7.2-2.9,7.2-6.5-3.2-6.6-7.2-6.6S487.1,265.5,487.1,269.2Z" transform="translate(-75 -251.6)"/><path class="l" d="M614.1,286.2v51.7h0.7a12.6,12.6,0,0,0,12.6-12.6V292.4c2.8-1.4,8.8-2.5,13.4.8V282.3C627.5,281.1,620.6,283.1,614.1,286.2Z" transform="translate(-75 -251.6)"/><path class="l" d="M593.3,293.6a10.7,10.7,0,0,0-10.6,10.7V305H595v21h-7.6c-11.7,0-23.5-8.1-23.5-26.2s8.2-27.4,22.4-27.4c8,0,13.5,3.1,16.9,6.7v-13a37,37,0,0,0-18.6-4.7c-20.7,0-34.6,15.2-34.6,37.8s13.1,38.7,34.3,38.7h5.1c0.6,0,16.3,0,19.1-.2V293.6H593.3Z" transform="translate(-75 -251.6)"/><path class="l" d="M735.5,281.9a12.7,12.7,0,0,0-12.9,12.9v33.4h-7.4c-5.4,0-8.4-3.1-8.4-8.4V281.9h-0.7a12.7,12.7,0,0,0-12.9,12.9v24.3c0,12.5,7.3,18.9,21.6,18.9h2.3c0.6,0,16.3,0,19.1-.2V281.9h-0.7Z" transform="translate(-75 -251.6)"/><path class="l" d="M760.3,281.9c-7.6,0-13.9,1.3-18.8,3.9l-0.3.2v72.4h0.7a12.6,12.6,0,0,0,12.6-12.6v-8.8a28.3,28.3,0,0,0,7.3.9c14.6,0,24-11.2,24-28.6S776.3,281.9,760.3,281.9Zm-1.2,47.5a13.4,13.4,0,0,1-4.7-.7V291.4a15.3,15.3,0,0,1,5.6-.9c8.7,0,12.6,5.8,12.6,19.3C772.5,318.7,770.2,329.4,759.1,329.4Z" transform="translate(-75 -251.6)"/></g></svg>