<svg xmlns="http://www.w3.org/2000/svg" viewBox="0 0 989.7 1186.6"><defs><style>.a{fill:#fff;}.b{fill:#231f20;}</style></defs><title>WWF logo_key frame_whitebackground</title><rect class="a" width="989.7" height="1186.59"/><path d="M793.1,1182a11.5,11.5,0,0,0-10.8,7.5l-22,55.8-1.9,6.3-1.7-6.5-17-54.2a1,1,0,0,0-.2-0.5v-0.2h0a11.6,11.6,0,0,0-10.9-7.8H700.9a11.7,11.7,0,0,0-11.1,11.6c0,1.7.8,3.9,1.3,5.9l3.6,11.3-13.5,33.9-2.1,6.3-1.7-6.3-16.9-54.3a1.3,1.3,0,0,1-.2-0.5v-0.2a11.6,11.6,0,0,0-10.9-7.8H621.7a11.7,11.7,0,0,0-11.1,11.6,21,21,0,0,0,1.4,5.9l41.2,122.7a11.6,11.6,0,0,0,11.2,8.7,11.4,11.4,0,0,0,11-8.1l28.9-72.8,2.1-6.5,1.7,6.4,24.3,72.2a11.5,11.5,0,0,0,11.2,8.7,11.7,11.7,0,0,0,11.2-8.4l48.8-124.4a12.2,12.2,0,0,0,1.2-5,11.7,11.7,0,0,0-11.7-11.7h0Z" transform="translate(-381.9 -328.1)"/><path d="M998.3,1182a11.7,11.7,0,0,0-10.9,7.5l-21.9,55.8-2.1,6.3-1.6-6.5-17.2-54.2a0.9,0.9,0,0,0-.1-0.5v-0.2h0a11.7,11.7,0,0,0-11-7.8H906a11.6,11.6,0,0,0-11,11.6,20.8,20.8,0,0,0,1.3,5.9l3.6,11.3-13.5,33.9-2.2,6.3-1.6-6.3-17-54.3-0.3-.5v-0.2a11.4,11.4,0,0,0-10.8-7.8H826.9a11.6,11.6,0,0,0-11.1,11.6c0,1.7.8,3.9,1.3,5.9l41.3,122.7a11.5,11.5,0,0,0,11.2,8.7,11.7,11.7,0,0,0,11-8.1l28.8-72.8,2-6.5,1.8,6.4,24.2,72.2a11.6,11.6,0,0,0,22.5.3l48.8-124.4a11.7,11.7,0,0,0-10.5-16.7h0Z" transform="translate(-381.9 -328.1)"/><path d="M1131.5,1182.2h-96.2a10,10,0,0,0-10,10.1h0v127.8h0a10.9,10.9,0,0,0,10.8,10.5h27.3a10.9,10.9,0,0,0,10.7-10.8v-59.7h39.2a10.5,10.5,0,0,0-.2-21.1h-38.9v-34.1h58.1a11.3,11.3,0,0,0-.5-22.6h0Z" transform="translate(-381.9 -328.1)"/><path d="M982.3,775c17.5,19.6,19.4,77.9,63.4,54.7,26.5-13.9,26.1-72.8-9.2-94-28.6-16.9-44.2,5.9-54.5,33.8-0.8,2.2-.8,4.4.3,5.5h0Z" transform="translate(-381.9 -328.1)"/><path d="M914,765.7c-18.4,15.3-31,57-64.9,42.9-27.3-13.9-30-68.1,17.2-93.1,32.8-15.1,49.5,14.8,49.7,46.5a6.6,6.6,0,0,1-2,3.7h0Z" transform="translate(-381.9 -328.1)"/><path d="M959.4,872.3c18.2-1.9,14.1-18.7.3-22.9s-31-6.1-44.1-5.8c-23.4.5-22.8,18.4-10.6,21.4,9.2,3.1,15.1,4.3,23.1,14.5,7.2,14.1,4-4.2,31.4-7.1h0Z" transform="translate(-381.9 -328.1)"/><path d="M1045.1,570.8c22.8-38,62.5-30.6,82.4-11.7,21.9,20.6,25.4,44.3,17,61-11.4,22.4-40.6,49.7-59.6,23.3-8.4-11.6-26.2-25.5-35.9-29.6-14.9-6.3-17.8-19.8-3.8-43.1h0Z" transform="translate(-381.9 -328.1)"/><path d="M1135.9,738.3c-2-6.7-5.4-6.4-5.2-.8,1.8,69.2-39.5,143.4-128,143.9-22.6,0-15.8,36.3-57.1,18.1-29.8-20.1-46.8,19.4-68-23.1C873,864.2,866,859.3,857,857c-87.4-21.6-115.2-141.9-38.2-239,15.2,9.1,20.8,10.5,37-4.4,8.5-7.8,22.7-16.5,30.5-19.3,18.5-7.1,28.6-15,12.5-50.3-20.5-45.8-62.6-32.9-81.8-17-21.7,17.9-37,46.8-9,80.8-78.3,52.8-91.7,117.6-89.9,174,1.8,60-13.5,54.8,5.6,115.9,1.7,5.3-2,5.2-4.9,3.5-81.6-52.2-125.7-211.5,1.4-299.3,2.9-2.6,1.7-5.9-8.8.2-110,58.2-120.2,170.9-101.9,246.9,8.9,36.8-4.6,43.6,9.6,91.9,32.8,100.7,60.7,108.7,100.1,111.6,71.8,0,23.1-39.6,25.7-89.3,0-2.9,3.5-4.3,5.6,1.7,39.5,88.6,67.4,169.3,171.3,161.7,60.1-7.8,26.8-37.7,23.1-54.6-44.2-146.7,63.1-181.3,32.7-38.3-20.1,82,43.3,73.7,88,44.3s103.6-229.7,70.2-339.5h0m-175,173.6c-9.9,26.3-61.6,17.3-63.2-8.2,0-1,1.4-.8,2-0.6,23,5.4,44.8,7.9,59.7,7.9,0.5,0,1.8-.3,1.5,1h0Z" transform="translate(-381.9 -328.1)"/><path d="M730.5,1089.7a19.2,19.2,0,1,1-19.2-19.2,19.3,19.3,0,0,1,19.2,19.2m-19.2-23a23.1,23.1,0,1,0,23,23A23.1,23.1,0,0,0,711.2,1066.7Z" transform="translate(-381.9 -328.1)"/><path d="M717.8,1093.3a5.7,5.7,0,0,1-6,4.7c-4.4,0-7.2-3.9-7.2-8.4s2.5-8.2,7.2-8.2a5.8,5.8,0,0,1,6,4.5H721c-0.6-5.1-4.5-7.9-9.3-7.9-6.9,0-10.8,5-10.8,11.6s4.3,11.6,10.9,11.6a9.3,9.3,0,0,0,9.4-8h-3.4Z" transform="translate(-381.9 -328.1)"/><path d="M1135.4,1144.7a19.3,19.3,0,1,1-19.2-19.1,19.2,19.2,0,0,1,19.2,19.1m-19.2-23a23,23,0,1,0,23,23A23,23,0,0,0,1116.1,1121.7Z" transform="translate(-381.9 -328.1)"/><path d="M1112.1,1146.3h3.8l5.8,9.4h3.6l-6.2-9.6c3.2-.4,5.7-2.1,5.7-5.9s-2.5-6.2-7.6-6.2h-8.4v21.7h3.4v-9.4m0-2.9v-6.8h4.5c2.3,0,4.7.6,4.7,3.2s-2.4,3.5-5.3,3.5h-3.8Z" transform="translate(-381.9 -328.1)"/><path class="b" d="M1336.9,362.8V1480.1H416.6V362.8h920.4m12-12H404.6V1492.1h944.4V350.8h0Z" transform="translate(-381.9 -328.1)"/></svg>